  0
SECTION
  2
BLOCKS
  0
ENDSEC
  0
SECTION
  2
ENTITIES
  0
LINE
  8
0
 10
112.5
 20
221.5
 11
167.5
 21
221.5
  0
LINE
  8
0
 10
167.5
 20
221.5
 11
167.5
 21
216.5
  0
LINE
  8
0
 10
167.5
 20
216.5
 11
190.5
 21
216.5
  0
LINE
  8
0
 10
190.5
 20
216.5
 11
190.5
 21
293
  0
LINE
  8
0
 10
190.5
 20
293
 11
69.5
 21
293
  0
LINE
  8
0
 10
69.5
 20
293
 11
69.5
 21
107
  0
LINE
  8
0
 10
69.5
 20
107
 11
190.5
 21
107
  0
LINE
  8
0
 10
190.5
 20
107
 11
190.5
 21
156.5
  0
LINE
  8
0
 10
190.5
 20
156.5
 11
112.5
 21
156.5
  0
LINE
  8
0
 10
112.5
 20
156.5
 11
112.5
 21
180.5
  0
LINE
  8
0
 10
112.5
 20
180.5
 11
103.5
 21
180.5
  0
LINE
  8
0
 10
103.5
 20
180.5
 11
103.5
 21
180
  0
LINE
  8
0
 10
103.5
 20
180
 11
78.5
 21
180
  0
LINE
  8
0
 10
78.5
 20
180
 11
78.5
 21
220
  0
LINE
  8
0
 10
78.5
 20
220
 11
103.5
 21
220
  0
LINE
  8
0
 10
103.5
 20
220
 11
103.5
 21
215.5
  0
LINE
  8
0
 10
103.5
 20
215.5
 11
112.5
 21
215.5
  0
LINE
  8
0
 10
112.5
 20
215.5
 11
112.5
 21
221.5
  0
LINE
  8
0
 10
79.5217
 20
249.506
 11
78.9405
 21
248.706
  0
LINE
  8
0
 10
78.9405
 20
248.706
 11
78
 21
248.4
  0
LINE
  8
0
 10
78
 20
248.4
 11
77.0596
 21
248.706
  0
LINE
  8
0
 10
77.0596
 20
248.706
 11
76.4783
 21
249.506
  0
LINE
  8
0
 10
76.4783
 20
249.506
 11
76.4783
 21
250.494
  0
LINE
  8
0
 10
76.4783
 20
250.494
 11
77.0596
 21
251.294
  0
LINE
  8
0
 10
77.0596
 20
251.294
 11
78
 21
251.6
  0
LINE
  8
0
 10
78
 20
251.6
 11
78.9405
 21
251.294
  0
LINE
  8
0
 10
78.9405
 20
251.294
 11
79.5217
 21
250.494
  0
LINE
  8
0
 10
79.5217
 20
250.494
 11
79.5217
 21
249.506
  0
LINE
  8
0
 10
79.5217
 20
149.506
 11
78.9405
 21
148.706
  0
LINE
  8
0
 10
78.9405
 20
148.706
 11
78
 21
148.4
  0
LINE
  8
0
 10
78
 20
148.4
 11
77.0596
 21
148.706
  0
LINE
  8
0
 10
77.0596
 20
148.706
 11
76.4783
 21
149.506
  0
LINE
  8
0
 10
76.4783
 20
149.506
 11
76.4783
 21
150.494
  0
LINE
  8
0
 10
76.4783
 20
150.494
 11
77.0596
 21
151.294
  0
LINE
  8
0
 10
77.0596
 20
151.294
 11
78
 21
151.6
  0
LINE
  8
0
 10
78
 20
151.6
 11
78.9405
 21
151.294
  0
LINE
  8
0
 10
78.9405
 20
151.294
 11
79.5217
 21
150.494
  0
LINE
  8
0
 10
79.5217
 20
150.494
 11
79.5217
 21
149.506
  0
LINE
  8
0
 10
91.5217
 20
284.506
 11
90.9405
 21
283.706
  0
LINE
  8
0
 10
90.9405
 20
283.706
 11
90
 21
283.4
  0
LINE
  8
0
 10
90
 20
283.4
 11
89.0596
 21
283.706
  0
LINE
  8
0
 10
89.0596
 20
283.706
 11
88.4783
 21
284.506
  0
LINE
  8
0
 10
88.4783
 20
284.506
 11
88.4783
 21
285.494
  0
LINE
  8
0
 10
88.4783
 20
285.494
 11
89.0596
 21
286.294
  0
LINE
  8
0
 10
89.0596
 20
286.294
 11
90
 21
286.6
  0
LINE
  8
0
 10
90
 20
286.6
 11
90.9405
 21
286.294
  0
LINE
  8
0
 10
90.9405
 20
286.294
 11
91.5217
 21
285.494
  0
LINE
  8
0
 10
91.5217
 20
285.494
 11
91.5217
 21
284.506
  0
LINE
  8
0
 10
91.5217
 20
114.506
 11
90.9405
 21
113.706
  0
LINE
  8
0
 10
90.9405
 20
113.706
 11
90
 21
113.4
  0
LINE
  8
0
 10
90
 20
113.4
 11
89.0596
 21
113.706
  0
LINE
  8
0
 10
89.0596
 20
113.706
 11
88.4783
 21
114.506
  0
LINE
  8
0
 10
88.4783
 20
114.506
 11
88.4783
 21
115.494
  0
LINE
  8
0
 10
88.4783
 20
115.494
 11
89.0596
 21
116.294
  0
LINE
  8
0
 10
89.0596
 20
116.294
 11
90
 21
116.6
  0
LINE
  8
0
 10
90
 20
116.6
 11
90.9405
 21
116.294
  0
LINE
  8
0
 10
90.9405
 20
116.294
 11
91.5217
 21
115.494
  0
LINE
  8
0
 10
91.5217
 20
115.494
 11
91.5217
 21
114.506
  0
LINE
  8
0
 10
171.522
 20
284.506
 11
170.94
 21
283.706
  0
LINE
  8
0
 10
170.94
 20
283.706
 11
170
 21
283.4
  0
LINE
  8
0
 10
170
 20
283.4
 11
169.06
 21
283.706
  0
LINE
  8
0
 10
169.06
 20
283.706
 11
168.478
 21
284.506
  0
LINE
  8
0
 10
168.478
 20
284.506
 11
168.478
 21
285.494
  0
LINE
  8
0
 10
168.478
 20
285.494
 11
169.06
 21
286.294
  0
LINE
  8
0
 10
169.06
 20
286.294
 11
170
 21
286.6
  0
LINE
  8
0
 10
170
 20
286.6
 11
170.94
 21
286.294
  0
LINE
  8
0
 10
170.94
 20
286.294
 11
171.522
 21
285.494
  0
LINE
  8
0
 10
171.522
 20
285.494
 11
171.522
 21
284.506
  0
LINE
  8
0
 10
171.522
 20
114.506
 11
170.94
 21
113.706
  0
LINE
  8
0
 10
170.94
 20
113.706
 11
170
 21
113.4
  0
LINE
  8
0
 10
170
 20
113.4
 11
169.06
 21
113.706
  0
LINE
  8
0
 10
169.06
 20
113.706
 11
168.478
 21
114.506
  0
LINE
  8
0
 10
168.478
 20
114.506
 11
168.478
 21
115.494
  0
LINE
  8
0
 10
168.478
 20
115.494
 11
169.06
 21
116.294
  0
LINE
  8
0
 10
169.06
 20
116.294
 11
170
 21
116.6
  0
LINE
  8
0
 10
170
 20
116.6
 11
170.94
 21
116.294
  0
LINE
  8
0
 10
170.94
 20
116.294
 11
171.522
 21
115.494
  0
LINE
  8
0
 10
171.522
 20
115.494
 11
171.522
 21
114.506
  0
LINE
  8
0
 10
184.522
 20
249.506
 11
183.94
 21
248.706
  0
LINE
  8
0
 10
183.94
 20
248.706
 11
183
 21
248.4
  0
LINE
  8
0
 10
183
 20
248.4
 11
182.06
 21
248.706
  0
LINE
  8
0
 10
182.06
 20
248.706
 11
181.478
 21
249.506
  0
LINE
  8
0
 10
181.478
 20
249.506
 11
181.478
 21
250.494
  0
LINE
  8
0
 10
181.478
 20
250.494
 11
182.06
 21
251.294
  0
LINE
  8
0
 10
182.06
 20
251.294
 11
183
 21
251.6
  0
LINE
  8
0
 10
183
 20
251.6
 11
183.94
 21
251.294
  0
LINE
  8
0
 10
183.94
 20
251.294
 11
184.522
 21
250.494
  0
LINE
  8
0
 10
184.522
 20
250.494
 11
184.522
 21
249.506
  0
LINE
  8
0
 10
184.522
 20
149.506
 11
183.94
 21
148.706
  0
LINE
  8
0
 10
183.94
 20
148.706
 11
183
 21
148.4
  0
LINE
  8
0
 10
183
 20
148.4
 11
182.06
 21
148.706
  0
LINE
  8
0
 10
182.06
 20
148.706
 11
181.478
 21
149.506
  0
LINE
  8
0
 10
181.478
 20
149.506
 11
181.478
 21
150.494
  0
LINE
  8
0
 10
181.478
 20
150.494
 11
182.06
 21
151.294
  0
LINE
  8
0
 10
182.06
 20
151.294
 11
183
 21
151.6
  0
LINE
  8
0
 10
183
 20
151.6
 11
183.94
 21
151.294
  0
LINE
  8
0
 10
183.94
 20
151.294
 11
184.522
 21
150.494
  0
LINE
  8
0
 10
184.522
 20
150.494
 11
184.522
 21
149.506
  0
ENDSEC
  0
SECTION
  2
OBJECTS
  0
DICTIONARY
  0
ENDSEC
  0
EOF
