  0
SECTION
  2
BLOCKS
  0
ENDSEC
  0
SECTION
  2
ENTITIES
  0
LINE
  8
0
 10
-64
 11
-64
 20
-25
 21
-21
  0
LINE
  8
0
 10
-64
 11
-60
 20
-21
 21
-21
  0
LINE
  8
0
 10
-60
 11
-60
 20
-21
 21
-17
  0
LINE
  8
0
 10
-60
 11
-64
 20
-17
 21
-17
  0
LINE
  8
0
 10
-64
 11
-64
 20
-17
 21
-13
  0
LINE
  8
0
 10
-64
 11
-60
 20
-13
 21
-13
  0
LINE
  8
0
 10
-60
 11
-60
 20
-13
 21
-9
  0
LINE
  8
0
 10
-60
 11
-64
 20
-9
 21
-9
  0
LINE
  8
0
 10
-64
 11
-64
 20
-9
 21
-5
  0
LINE
  8
0
 10
-64
 11
-60
 20
-5
 21
-5
  0
LINE
  8
0
 10
-60
 11
-60
 20
-5
 21
3
  0
LINE
  8
0
 10
-60
 11
-56
 20
3
 21
3
  0
LINE
  8
0
 10
-56
 11
-56
 20
3
 21
-1
  0
LINE
  8
0
 10
-56
 11
-52
 20
-1
 21
-1
  0
LINE
  8
0
 10
-52
 11
-52
 20
-1
 21
3
  0
LINE
  8
0
 10
-52
 11
-48
 20
3
 21
3
  0
LINE
  8
0
 10
-48
 11
-48
 20
3
 21
-1
  0
LINE
  8
0
 10
-48
 11
-44
 20
-1
 21
-1
  0
LINE
  8
0
 10
-44
 11
-44
 20
-1
 21
3
  0
LINE
  8
0
 10
-44
 11
-40
 20
3
 21
3
  0
LINE
  8
0
 10
-40
 11
-40
 20
3
 21
-1
  0
LINE
  8
0
 10
-40
 11
-36
 20
-1
 21
-1
  0
LINE
  8
0
 10
-36
 11
-36
 20
-1
 21
3
  0
LINE
  8
0
 10
-36
 11
-32
 20
3
 21
3
  0
LINE
  8
0
 10
-32
 11
-32
 20
3
 21
-1
  0
LINE
  8
0
 10
-32
 11
-28
 20
-1
 21
-1
  0
LINE
  8
0
 10
-28
 11
-28
 20
-1
 21
3
  0
LINE
  8
0
 10
-28
 11
-24
 20
3
 21
3
  0
LINE
  8
0
 10
-24
 11
-24
 20
3
 21
-1
  0
LINE
  8
0
 10
-24
 11
-20
 20
-1
 21
-1
  0
LINE
  8
0
 10
-20
 11
-20
 20
-1
 21
3
  0
LINE
  8
0
 10
-20
 11
-16
 20
3
 21
3
  0
LINE
  8
0
 10
-16
 11
-16
 20
3
 21
-1
  0
LINE
  8
0
 10
-16
 11
-8
 20
-1
 21
-1
  0
LINE
  8
0
 10
-8
 11
-8
 20
-1
 21
-5
  0
LINE
  8
0
 10
-8
 11
-12
 20
-5
 21
-5
  0
LINE
  8
0
 10
-12
 11
-12
 20
-5
 21
-9
  0
LINE
  8
0
 10
-12
 11
-8
 20
-9
 21
-9
  0
LINE
  8
0
 10
-8
 11
-8
 20
-9
 21
-13
  0
LINE
  8
0
 10
-8
 11
-12
 20
-13
 21
-13
  0
LINE
  8
0
 10
-12
 11
-12
 20
-13
 21
-17
  0
LINE
  8
0
 10
-12
 11
-8
 20
-17
 21
-17
  0
LINE
  8
0
 10
-8
 11
-8
 20
-17
 21
-21
  0
LINE
  8
0
 10
-8
 11
-12
 20
-21
 21
-21
  0
LINE
  8
0
 10
-12
 11
-12
 20
-21
 21
-29
  0
LINE
  8
0
 10
-12
 11
-16
 20
-29
 21
-29
  0
LINE
  8
0
 10
-16
 11
-16
 20
-29
 21
-25
  0
LINE
  8
0
 10
-16
 11
-20
 20
-25
 21
-25
  0
LINE
  8
0
 10
-20
 11
-20
 20
-25
 21
-29
  0
LINE
  8
0
 10
-20
 11
-24
 20
-29
 21
-29
  0
LINE
  8
0
 10
-24
 11
-24
 20
-29
 21
-25
  0
LINE
  8
0
 10
-24
 11
-28
 20
-25
 21
-25
  0
LINE
  8
0
 10
-28
 11
-28
 20
-25
 21
-29
  0
LINE
  8
0
 10
-28
 11
-32
 20
-29
 21
-29
  0
LINE
  8
0
 10
-32
 11
-32
 20
-29
 21
-25
  0
LINE
  8
0
 10
-32
 11
-36
 20
-25
 21
-25
  0
LINE
  8
0
 10
-36
 11
-36
 20
-25
 21
-29
  0
LINE
  8
0
 10
-36
 11
-40
 20
-29
 21
-29
  0
LINE
  8
0
 10
-40
 11
-40
 20
-29
 21
-25
  0
LINE
  8
0
 10
-40
 11
-44
 20
-25
 21
-25
  0
LINE
  8
0
 10
-44
 11
-44
 20
-25
 21
-29
  0
LINE
  8
0
 10
-44
 11
-48
 20
-29
 21
-29
  0
LINE
  8
0
 10
-48
 11
-48
 20
-29
 21
-25
  0
LINE
  8
0
 10
-48
 11
-52
 20
-25
 21
-25
  0
LINE
  8
0
 10
-52
 11
-52
 20
-25
 21
-29
  0
LINE
  8
0
 10
-52
 11
-56
 20
-29
 21
-29
  0
LINE
  8
0
 10
-56
 11
-56
 20
-29
 21
-25
  0
LINE
  8
0
 10
-56
 11
-64
 20
-25
 21
-25
  0
LINE
  8
0
 10
-64
 11
-64
 20
20
 21
24
  0
LINE
  8
0
 10
-64
 11
-60
 20
24
 21
24
  0
LINE
  8
0
 10
-60
 11
-60
 20
24
 21
28
  0
LINE
  8
0
 10
-60
 11
-64
 20
28
 21
28
  0
LINE
  8
0
 10
-64
 11
-64
 20
28
 21
32
  0
LINE
  8
0
 10
-64
 11
-60
 20
32
 21
32
  0
LINE
  8
0
 10
-60
 11
-60
 20
32
 21
36
  0
LINE
  8
0
 10
-60
 11
-64
 20
36
 21
36
  0
LINE
  8
0
 10
-64
 11
-64
 20
36
 21
40
  0
LINE
  8
0
 10
-64
 11
-60
 20
40
 21
40
  0
LINE
  8
0
 10
-60
 11
-60
 20
40
 21
48
  0
LINE
  8
0
 10
-60
 11
-56
 20
48
 21
48
  0
LINE
  8
0
 10
-56
 11
-56
 20
48
 21
44
  0
LINE
  8
0
 10
-56
 11
-52
 20
44
 21
44
  0
LINE
  8
0
 10
-52
 11
-52
 20
44
 21
48
  0
LINE
  8
0
 10
-52
 11
-48
 20
48
 21
48
  0
LINE
  8
0
 10
-48
 11
-48
 20
48
 21
44
  0
LINE
  8
0
 10
-48
 11
-44
 20
44
 21
44
  0
LINE
  8
0
 10
-44
 11
-44
 20
44
 21
48
  0
LINE
  8
0
 10
-44
 11
-40
 20
48
 21
48
  0
LINE
  8
0
 10
-40
 11
-40
 20
48
 21
44
  0
LINE
  8
0
 10
-40
 11
-36
 20
44
 21
44
  0
LINE
  8
0
 10
-36
 11
-36
 20
44
 21
48
  0
LINE
  8
0
 10
-36
 11
-32
 20
48
 21
48
  0
LINE
  8
0
 10
-32
 11
-32
 20
48
 21
44
  0
LINE
  8
0
 10
-32
 11
-28
 20
44
 21
44
  0
LINE
  8
0
 10
-28
 11
-28
 20
44
 21
48
  0
LINE
  8
0
 10
-28
 11
-24
 20
48
 21
48
  0
LINE
  8
0
 10
-24
 11
-24
 20
48
 21
44
  0
LINE
  8
0
 10
-24
 11
-20
 20
44
 21
44
  0
LINE
  8
0
 10
-20
 11
-20
 20
44
 21
48
  0
LINE
  8
0
 10
-20
 11
-16
 20
48
 21
48
  0
LINE
  8
0
 10
-16
 11
-16
 20
48
 21
44
  0
LINE
  8
0
 10
-16
 11
-8
 20
44
 21
44
  0
LINE
  8
0
 10
-8
 11
-8
 20
44
 21
40
  0
LINE
  8
0
 10
-8
 11
-12
 20
40
 21
40
  0
LINE
  8
0
 10
-12
 11
-12
 20
40
 21
36
  0
LINE
  8
0
 10
-12
 11
-8
 20
36
 21
36
  0
LINE
  8
0
 10
-8
 11
-8
 20
36
 21
32
  0
LINE
  8
0
 10
-8
 11
-12
 20
32
 21
32
  0
LINE
  8
0
 10
-12
 11
-12
 20
32
 21
28
  0
LINE
  8
0
 10
-12
 11
-8
 20
28
 21
28
  0
LINE
  8
0
 10
-8
 11
-8
 20
28
 21
24
  0
LINE
  8
0
 10
-8
 11
-12
 20
24
 21
24
  0
LINE
  8
0
 10
-12
 11
-12
 20
24
 21
16
  0
LINE
  8
0
 10
-12
 11
-16
 20
16
 21
16
  0
LINE
  8
0
 10
-16
 11
-16
 20
16
 21
20
  0
LINE
  8
0
 10
-16
 11
-20
 20
20
 21
20
  0
LINE
  8
0
 10
-20
 11
-20
 20
20
 21
16
  0
LINE
  8
0
 10
-20
 11
-24
 20
16
 21
16
  0
LINE
  8
0
 10
-24
 11
-24
 20
16
 21
20
  0
LINE
  8
0
 10
-24
 11
-28
 20
20
 21
20
  0
LINE
  8
0
 10
-28
 11
-28
 20
20
 21
16
  0
LINE
  8
0
 10
-28
 11
-32
 20
16
 21
16
  0
LINE
  8
0
 10
-32
 11
-32
 20
16
 21
20
  0
LINE
  8
0
 10
-32
 11
-36
 20
20
 21
20
  0
LINE
  8
0
 10
-36
 11
-36
 20
20
 21
16
  0
LINE
  8
0
 10
-36
 11
-40
 20
16
 21
16
  0
LINE
  8
0
 10
-40
 11
-40
 20
16
 21
20
  0
LINE
  8
0
 10
-40
 11
-44
 20
20
 21
20
  0
LINE
  8
0
 10
-44
 11
-44
 20
20
 21
16
  0
LINE
  8
0
 10
-44
 11
-48
 20
16
 21
16
  0
LINE
  8
0
 10
-48
 11
-48
 20
16
 21
20
  0
LINE
  8
0
 10
-48
 11
-52
 20
20
 21
20
  0
LINE
  8
0
 10
-52
 11
-52
 20
20
 21
16
  0
LINE
  8
0
 10
-52
 11
-56
 20
16
 21
16
  0
LINE
  8
0
 10
-56
 11
-56
 20
16
 21
20
  0
LINE
  8
0
 10
-56
 11
-64
 20
20
 21
20
  0
LINE
  8
0
 10
-33
 11
-33
 20
-14
 21
-4
  0
LINE
  8
0
 10
-33
 11
-21
 20
-4
 21
-4
  0
LINE
  8
0
 10
-21
 11
-21
 20
-4
 21
-14
  0
LINE
  8
0
 10
-21
 11
-33
 20
-14
 21
-14
  0
LINE
  8
0
 10
-4
 11
-4
 20
-29
 21
-21
  0
LINE
  8
0
 10
-4
 11
0
 20
-21
 21
-21
  0
LINE
  8
0
 10
0
 11
0
 20
-21
 21
-17
  0
LINE
  8
0
 10
0
 11
-4
 20
-17
 21
-17
  0
LINE
  8
0
 10
-4
 11
-4
 20
-17
 21
-13
  0
LINE
  8
0
 10
-4
 11
0
 20
-13
 21
-13
  0
LINE
  8
0
 10
0
 11
0
 20
-13
 21
-9
  0
LINE
  8
0
 10
0
 11
-4
 20
-9
 21
-9
  0
LINE
  8
0
 10
-4
 11
-4
 20
-9
 21
-5
  0
LINE
  8
0
 10
-4
 11
0
 20
-5
 21
-5
  0
LINE
  8
0
 10
0
 11
0
 20
-5
 21
-1
  0
LINE
  8
0
 10
0
 11
-4
 20
-1
 21
-1
  0
LINE
  8
0
 10
-4
 11
-4
 20
-1
 21
3
  0
LINE
  8
0
 10
-4
 11
0
 20
3
 21
3
  0
LINE
  8
0
 10
0
 11
0
 20
3
 21
7
  0
LINE
  8
0
 10
0
 11
-4
 20
7
 21
7
  0
LINE
  8
0
 10
-4
 11
-4
 20
7
 21
11
  0
LINE
  8
0
 10
-4
 11
0
 20
11
 21
11
  0
LINE
  8
0
 10
0
 11
0
 20
11
 21
15
  0
LINE
  8
0
 10
0
 11
-4
 20
15
 21
15
  0
LINE
  8
0
 10
-4
 11
-4
 20
15
 21
19
  0
LINE
  8
0
 10
-4
 11
0
 20
19
 21
19
  0
LINE
  8
0
 10
0
 11
0
 20
19
 21
23
  0
LINE
  8
0
 10
0
 11
-4
 20
23
 21
23
  0
LINE
  8
0
 10
-4
 11
-4
 20
23
 21
27
  0
LINE
  8
0
 10
-4
 11
4
 20
27
 21
27
  0
LINE
  8
0
 10
4
 11
4
 20
27
 21
23
  0
LINE
  8
0
 10
4
 11
8
 20
23
 21
23
  0
LINE
  8
0
 10
8
 11
8
 20
23
 21
27
  0
LINE
  8
0
 10
8
 11
12
 20
27
 21
27
  0
LINE
  8
0
 10
12
 11
12
 20
27
 21
23
  0
LINE
  8
0
 10
12
 11
16
 20
23
 21
23
  0
LINE
  8
0
 10
16
 11
16
 20
23
 21
27
  0
LINE
  8
0
 10
16
 11
20
 20
27
 21
27
  0
LINE
  8
0
 10
20
 11
20
 20
27
 21
23
  0
LINE
  8
0
 10
20
 11
24
 20
23
 21
23
  0
LINE
  8
0
 10
24
 11
24
 20
23
 21
27
  0
LINE
  8
0
 10
24
 11
28
 20
27
 21
27
  0
LINE
  8
0
 10
28
 11
28
 20
27
 21
23
  0
LINE
  8
0
 10
28
 11
32
 20
23
 21
23
  0
LINE
  8
0
 10
32
 11
32
 20
23
 21
27
  0
LINE
  8
0
 10
32
 11
36
 20
27
 21
27
  0
LINE
  8
0
 10
36
 11
36
 20
27
 21
23
  0
LINE
  8
0
 10
36
 11
40
 20
23
 21
23
  0
LINE
  8
0
 10
40
 11
40
 20
23
 21
27
  0
LINE
  8
0
 10
40
 11
44
 20
27
 21
27
  0
LINE
  8
0
 10
44
 11
44
 20
27
 21
23
  0
LINE
  8
0
 10
44
 11
48
 20
23
 21
23
  0
LINE
  8
0
 10
48
 11
48
 20
23
 21
27
  0
LINE
  8
0
 10
48
 11
52
 20
27
 21
27
  0
LINE
  8
0
 10
52
 11
52
 20
27
 21
23
  0
LINE
  8
0
 10
52
 11
56
 20
23
 21
23
  0
LINE
  8
0
 10
56
 11
56
 20
23
 21
27
  0
LINE
  8
0
 10
56
 11
60
 20
27
 21
27
  0
LINE
  8
0
 10
60
 11
60
 20
27
 21
23
  0
LINE
  8
0
 10
60
 11
64
 20
23
 21
23
  0
LINE
  8
0
 10
64
 11
64
 20
23
 21
27
  0
LINE
  8
0
 10
64
 11
68
 20
27
 21
27
  0
LINE
  8
0
 10
68
 11
68
 20
27
 21
23
  0
LINE
  8
0
 10
68
 11
72
 20
23
 21
23
  0
LINE
  8
0
 10
72
 11
72
 20
23
 21
27
  0
LINE
  8
0
 10
72
 11
76
 20
27
 21
27
  0
LINE
  8
0
 10
76
 11
76
 20
27
 21
23
  0
LINE
  8
0
 10
76
 11
80
 20
23
 21
23
  0
LINE
  8
0
 10
80
 11
80
 20
23
 21
27
  0
LINE
  8
0
 10
80
 11
84
 20
27
 21
27
  0
LINE
  8
0
 10
84
 11
84
 20
27
 21
19
  0
LINE
  8
0
 10
84
 11
80
 20
19
 21
19
  0
LINE
  8
0
 10
80
 11
80
 20
19
 21
15
  0
LINE
  8
0
 10
80
 11
84
 20
15
 21
15
  0
LINE
  8
0
 10
84
 11
84
 20
15
 21
11
  0
LINE
  8
0
 10
84
 11
80
 20
11
 21
11
  0
LINE
  8
0
 10
80
 11
80
 20
11
 21
7
  0
LINE
  8
0
 10
80
 11
84
 20
7
 21
7
  0
LINE
  8
0
 10
84
 11
84
 20
7
 21
3
  0
LINE
  8
0
 10
84
 11
80
 20
3
 21
3
  0
LINE
  8
0
 10
80
 11
80
 20
3
 21
-1
  0
LINE
  8
0
 10
80
 11
84
 20
-1
 21
-1
  0
LINE
  8
0
 10
84
 11
84
 20
-1
 21
-5
  0
LINE
  8
0
 10
84
 11
80
 20
-5
 21
-5
  0
LINE
  8
0
 10
80
 11
80
 20
-5
 21
-9
  0
LINE
  8
0
 10
80
 11
84
 20
-9
 21
-9
  0
LINE
  8
0
 10
84
 11
84
 20
-9
 21
-13
  0
LINE
  8
0
 10
84
 11
80
 20
-13
 21
-13
  0
LINE
  8
0
 10
80
 11
80
 20
-13
 21
-17
  0
LINE
  8
0
 10
80
 11
84
 20
-17
 21
-17
  0
LINE
  8
0
 10
84
 11
84
 20
-17
 21
-21
  0
LINE
  8
0
 10
84
 11
80
 20
-21
 21
-21
  0
LINE
  8
0
 10
80
 11
80
 20
-21
 21
-25
  0
LINE
  8
0
 10
80
 11
84
 20
-25
 21
-25
  0
LINE
  8
0
 10
84
 11
84
 20
-25
 21
-29
  0
LINE
  8
0
 10
84
 11
76
 20
-29
 21
-29
  0
LINE
  8
0
 10
76
 11
76
 20
-29
 21
-25
  0
LINE
  8
0
 10
76
 11
72
 20
-25
 21
-25
  0
LINE
  8
0
 10
72
 11
72
 20
-25
 21
-29
  0
LINE
  8
0
 10
72
 11
68
 20
-29
 21
-29
  0
LINE
  8
0
 10
68
 11
68
 20
-29
 21
-25
  0
LINE
  8
0
 10
68
 11
64
 20
-25
 21
-25
  0
LINE
  8
0
 10
64
 11
64
 20
-25
 21
-29
  0
LINE
  8
0
 10
64
 11
60
 20
-29
 21
-29
  0
LINE
  8
0
 10
60
 11
60
 20
-29
 21
-25
  0
LINE
  8
0
 10
60
 11
56
 20
-25
 21
-25
  0
LINE
  8
0
 10
56
 11
56
 20
-25
 21
-29
  0
LINE
  8
0
 10
56
 11
52
 20
-29
 21
-29
  0
LINE
  8
0
 10
52
 11
52
 20
-29
 21
-25
  0
LINE
  8
0
 10
52
 11
48
 20
-25
 21
-25
  0
LINE
  8
0
 10
48
 11
48
 20
-25
 21
-29
  0
LINE
  8
0
 10
48
 11
44
 20
-29
 21
-29
  0
LINE
  8
0
 10
44
 11
44
 20
-29
 21
-25
  0
LINE
  8
0
 10
44
 11
40
 20
-25
 21
-25
  0
LINE
  8
0
 10
40
 11
40
 20
-25
 21
-29
  0
LINE
  8
0
 10
40
 11
36
 20
-29
 21
-29
  0
LINE
  8
0
 10
36
 11
36
 20
-29
 21
-25
  0
LINE
  8
0
 10
36
 11
32
 20
-25
 21
-25
  0
LINE
  8
0
 10
32
 11
32
 20
-25
 21
-29
  0
LINE
  8
0
 10
32
 11
28
 20
-29
 21
-29
  0
LINE
  8
0
 10
28
 11
28
 20
-29
 21
-25
  0
LINE
  8
0
 10
28
 11
24
 20
-25
 21
-25
  0
LINE
  8
0
 10
24
 11
24
 20
-25
 21
-29
  0
LINE
  8
0
 10
24
 11
20
 20
-29
 21
-29
  0
LINE
  8
0
 10
20
 11
20
 20
-29
 21
-25
  0
LINE
  8
0
 10
20
 11
16
 20
-25
 21
-25
  0
LINE
  8
0
 10
16
 11
16
 20
-25
 21
-29
  0
LINE
  8
0
 10
16
 11
12
 20
-29
 21
-29
  0
LINE
  8
0
 10
12
 11
12
 20
-29
 21
-25
  0
LINE
  8
0
 10
12
 11
8
 20
-25
 21
-25
  0
LINE
  8
0
 10
8
 11
8
 20
-25
 21
-29
  0
LINE
  8
0
 10
8
 11
4
 20
-29
 21
-29
  0
LINE
  8
0
 10
4
 11
4
 20
-29
 21
-25
  0
LINE
  8
0
 10
4
 11
0
 20
-25
 21
-25
  0
LINE
  8
0
 10
0
 11
0
 20
-25
 21
-29
  0
LINE
  8
0
 10
0
 11
-4
 20
-29
 21
-29
  0
LINE
  8
0
 10
-4
 11
-4
 20
31
 21
39
  0
LINE
  8
0
 10
-4
 11
0
 20
39
 21
39
  0
LINE
  8
0
 10
0
 11
0
 20
39
 21
43
  0
LINE
  8
0
 10
0
 11
-4
 20
43
 21
43
  0
LINE
  8
0
 10
-4
 11
-4
 20
43
 21
47
  0
LINE
  8
0
 10
-4
 11
0
 20
47
 21
47
  0
LINE
  8
0
 10
0
 11
0
 20
47
 21
51
  0
LINE
  8
0
 10
0
 11
-4
 20
51
 21
51
  0
LINE
  8
0
 10
-4
 11
-4
 20
51
 21
55
  0
LINE
  8
0
 10
-4
 11
0
 20
55
 21
55
  0
LINE
  8
0
 10
0
 11
0
 20
55
 21
59
  0
LINE
  8
0
 10
0
 11
-4
 20
59
 21
59
  0
LINE
  8
0
 10
-4
 11
-4
 20
59
 21
63
  0
LINE
  8
0
 10
-4
 11
0
 20
63
 21
63
  0
LINE
  8
0
 10
0
 11
0
 20
63
 21
67
  0
LINE
  8
0
 10
0
 11
-4
 20
67
 21
67
  0
LINE
  8
0
 10
-4
 11
-4
 20
67
 21
71
  0
LINE
  8
0
 10
-4
 11
0
 20
71
 21
71
  0
LINE
  8
0
 10
0
 11
0
 20
71
 21
75
  0
LINE
  8
0
 10
0
 11
-4
 20
75
 21
75
  0
LINE
  8
0
 10
-4
 11
-4
 20
75
 21
79
  0
LINE
  8
0
 10
-4
 11
0
 20
79
 21
79
  0
LINE
  8
0
 10
0
 11
0
 20
79
 21
83
  0
LINE
  8
0
 10
0
 11
-4
 20
83
 21
83
  0
LINE
  8
0
 10
-4
 11
-4
 20
83
 21
87
  0
LINE
  8
0
 10
-4
 11
4
 20
87
 21
87
  0
LINE
  8
0
 10
4
 11
4
 20
87
 21
83
  0
LINE
  8
0
 10
4
 11
8
 20
83
 21
83
  0
LINE
  8
0
 10
8
 11
8
 20
83
 21
87
  0
LINE
  8
0
 10
8
 11
12
 20
87
 21
87
  0
LINE
  8
0
 10
12
 11
12
 20
87
 21
83
  0
LINE
  8
0
 10
12
 11
16
 20
83
 21
83
  0
LINE
  8
0
 10
16
 11
16
 20
83
 21
87
  0
LINE
  8
0
 10
16
 11
20
 20
87
 21
87
  0
LINE
  8
0
 10
20
 11
20
 20
87
 21
83
  0
LINE
  8
0
 10
20
 11
24
 20
83
 21
83
  0
LINE
  8
0
 10
24
 11
24
 20
83
 21
87
  0
LINE
  8
0
 10
24
 11
28
 20
87
 21
87
  0
LINE
  8
0
 10
28
 11
28
 20
87
 21
83
  0
LINE
  8
0
 10
28
 11
32
 20
83
 21
83
  0
LINE
  8
0
 10
32
 11
32
 20
83
 21
87
  0
LINE
  8
0
 10
32
 11
36
 20
87
 21
87
  0
LINE
  8
0
 10
36
 11
36
 20
87
 21
83
  0
LINE
  8
0
 10
36
 11
40
 20
83
 21
83
  0
LINE
  8
0
 10
40
 11
40
 20
83
 21
87
  0
LINE
  8
0
 10
40
 11
44
 20
87
 21
87
  0
LINE
  8
0
 10
44
 11
44
 20
87
 21
83
  0
LINE
  8
0
 10
44
 11
48
 20
83
 21
83
  0
LINE
  8
0
 10
48
 11
48
 20
83
 21
87
  0
LINE
  8
0
 10
48
 11
52
 20
87
 21
87
  0
LINE
  8
0
 10
52
 11
52
 20
87
 21
83
  0
LINE
  8
0
 10
52
 11
56
 20
83
 21
83
  0
LINE
  8
0
 10
56
 11
56
 20
83
 21
87
  0
LINE
  8
0
 10
56
 11
60
 20
87
 21
87
  0
LINE
  8
0
 10
60
 11
60
 20
87
 21
83
  0
LINE
  8
0
 10
60
 11
64
 20
83
 21
83
  0
LINE
  8
0
 10
64
 11
64
 20
83
 21
87
  0
LINE
  8
0
 10
64
 11
68
 20
87
 21
87
  0
LINE
  8
0
 10
68
 11
68
 20
87
 21
83
  0
LINE
  8
0
 10
68
 11
72
 20
83
 21
83
  0
LINE
  8
0
 10
72
 11
72
 20
83
 21
87
  0
LINE
  8
0
 10
72
 11
76
 20
87
 21
87
  0
LINE
  8
0
 10
76
 11
76
 20
87
 21
83
  0
LINE
  8
0
 10
76
 11
80
 20
83
 21
83
  0
LINE
  8
0
 10
80
 11
80
 20
83
 21
87
  0
LINE
  8
0
 10
80
 11
84
 20
87
 21
87
  0
LINE
  8
0
 10
84
 11
84
 20
87
 21
79
  0
LINE
  8
0
 10
84
 11
80
 20
79
 21
79
  0
LINE
  8
0
 10
80
 11
80
 20
79
 21
75
  0
LINE
  8
0
 10
80
 11
84
 20
75
 21
75
  0
LINE
  8
0
 10
84
 11
84
 20
75
 21
71
  0
LINE
  8
0
 10
84
 11
80
 20
71
 21
71
  0
LINE
  8
0
 10
80
 11
80
 20
71
 21
67
  0
LINE
  8
0
 10
80
 11
84
 20
67
 21
67
  0
LINE
  8
0
 10
84
 11
84
 20
67
 21
63
  0
LINE
  8
0
 10
84
 11
80
 20
63
 21
63
  0
LINE
  8
0
 10
80
 11
80
 20
63
 21
59
  0
LINE
  8
0
 10
80
 11
84
 20
59
 21
59
  0
LINE
  8
0
 10
84
 11
84
 20
59
 21
55
  0
LINE
  8
0
 10
84
 11
80
 20
55
 21
55
  0
LINE
  8
0
 10
80
 11
80
 20
55
 21
51
  0
LINE
  8
0
 10
80
 11
84
 20
51
 21
51
  0
LINE
  8
0
 10
84
 11
84
 20
51
 21
47
  0
LINE
  8
0
 10
84
 11
80
 20
47
 21
47
  0
LINE
  8
0
 10
80
 11
80
 20
47
 21
43
  0
LINE
  8
0
 10
80
 11
84
 20
43
 21
43
  0
LINE
  8
0
 10
84
 11
84
 20
43
 21
39
  0
LINE
  8
0
 10
84
 11
80
 20
39
 21
39
  0
LINE
  8
0
 10
80
 11
80
 20
39
 21
35
  0
LINE
  8
0
 10
80
 11
84
 20
35
 21
35
  0
LINE
  8
0
 10
84
 11
84
 20
35
 21
31
  0
LINE
  8
0
 10
84
 11
76
 20
31
 21
31
  0
LINE
  8
0
 10
76
 11
76
 20
31
 21
35
  0
LINE
  8
0
 10
76
 11
72
 20
35
 21
35
  0
LINE
  8
0
 10
72
 11
72
 20
35
 21
31
  0
LINE
  8
0
 10
72
 11
68
 20
31
 21
31
  0
LINE
  8
0
 10
68
 11
68
 20
31
 21
35
  0
LINE
  8
0
 10
68
 11
64
 20
35
 21
35
  0
LINE
  8
0
 10
64
 11
64
 20
35
 21
31
  0
LINE
  8
0
 10
64
 11
60
 20
31
 21
31
  0
LINE
  8
0
 10
60
 11
60
 20
31
 21
35
  0
LINE
  8
0
 10
60
 11
56
 20
35
 21
35
  0
LINE
  8
0
 10
56
 11
56
 20
35
 21
31
  0
LINE
  8
0
 10
56
 11
52
 20
31
 21
31
  0
LINE
  8
0
 10
52
 11
52
 20
31
 21
35
  0
LINE
  8
0
 10
52
 11
48
 20
35
 21
35
  0
LINE
  8
0
 10
48
 11
48
 20
35
 21
31
  0
LINE
  8
0
 10
48
 11
44
 20
31
 21
31
  0
LINE
  8
0
 10
44
 11
44
 20
31
 21
35
  0
LINE
  8
0
 10
44
 11
40
 20
35
 21
35
  0
LINE
  8
0
 10
40
 11
40
 20
35
 21
31
  0
LINE
  8
0
 10
40
 11
36
 20
31
 21
31
  0
LINE
  8
0
 10
36
 11
36
 20
31
 21
35
  0
LINE
  8
0
 10
36
 11
32
 20
35
 21
35
  0
LINE
  8
0
 10
32
 11
32
 20
35
 21
31
  0
LINE
  8
0
 10
32
 11
28
 20
31
 21
31
  0
LINE
  8
0
 10
28
 11
28
 20
31
 21
35
  0
LINE
  8
0
 10
28
 11
24
 20
35
 21
35
  0
LINE
  8
0
 10
24
 11
24
 20
35
 21
31
  0
LINE
  8
0
 10
24
 11
20
 20
31
 21
31
  0
LINE
  8
0
 10
20
 11
20
 20
31
 21
35
  0
LINE
  8
0
 10
20
 11
16
 20
35
 21
35
  0
LINE
  8
0
 10
16
 11
16
 20
35
 21
31
  0
LINE
  8
0
 10
16
 11
12
 20
31
 21
31
  0
LINE
  8
0
 10
12
 11
12
 20
31
 21
35
  0
LINE
  8
0
 10
12
 11
8
 20
35
 21
35
  0
LINE
  8
0
 10
8
 11
8
 20
35
 21
31
  0
LINE
  8
0
 10
8
 11
4
 20
31
 21
31
  0
LINE
  8
0
 10
4
 11
4
 20
31
 21
35
  0
LINE
  8
0
 10
4
 11
0
 20
35
 21
35
  0
LINE
  8
0
 10
0
 11
0
 20
35
 21
31
  0
LINE
  8
0
 10
0
 11
-4
 20
31
 21
31
  0
LINE
  8
0
 10
86
 11
86
 20
-25
 21
-21
  0
LINE
  8
0
 10
86
 11
90
 20
-21
 21
-21
  0
LINE
  8
0
 10
90
 11
90
 20
-21
 21
-17
  0
LINE
  8
0
 10
90
 11
86
 20
-17
 21
-17
  0
LINE
  8
0
 10
86
 11
86
 20
-17
 21
-13
  0
LINE
  8
0
 10
86
 11
90
 20
-13
 21
-13
  0
LINE
  8
0
 10
90
 11
90
 20
-13
 21
-9
  0
LINE
  8
0
 10
90
 11
86
 20
-9
 21
-9
  0
LINE
  8
0
 10
86
 11
86
 20
-9
 21
-5
  0
LINE
  8
0
 10
86
 11
90
 20
-5
 21
-5
  0
LINE
  8
0
 10
90
 11
90
 20
-5
 21
3
  0
LINE
  8
0
 10
90
 11
94
 20
3
 21
3
  0
LINE
  8
0
 10
94
 11
94
 20
3
 21
-1
  0
LINE
  8
0
 10
94
 11
98
 20
-1
 21
-1
  0
LINE
  8
0
 10
98
 11
98
 20
-1
 21
3
  0
LINE
  8
0
 10
98
 11
102
 20
3
 21
3
  0
LINE
  8
0
 10
102
 11
102
 20
3
 21
-1
  0
LINE
  8
0
 10
102
 11
106
 20
-1
 21
-1
  0
LINE
  8
0
 10
106
 11
106
 20
-1
 21
3
  0
LINE
  8
0
 10
106
 11
110
 20
3
 21
3
  0
LINE
  8
0
 10
110
 11
110
 20
3
 21
-1
  0
LINE
  8
0
 10
110
 11
114
 20
-1
 21
-1
  0
LINE
  8
0
 10
114
 11
114
 20
-1
 21
3
  0
LINE
  8
0
 10
114
 11
118
 20
3
 21
3
  0
LINE
  8
0
 10
118
 11
118
 20
3
 21
-1
  0
LINE
  8
0
 10
118
 11
122
 20
-1
 21
-1
  0
LINE
  8
0
 10
122
 11
122
 20
-1
 21
3
  0
LINE
  8
0
 10
122
 11
126
 20
3
 21
3
  0
LINE
  8
0
 10
126
 11
126
 20
3
 21
-1
  0
LINE
  8
0
 10
126
 11
130
 20
-1
 21
-1
  0
LINE
  8
0
 10
130
 11
130
 20
-1
 21
3
  0
LINE
  8
0
 10
130
 11
134
 20
3
 21
3
  0
LINE
  8
0
 10
134
 11
134
 20
3
 21
-1
  0
LINE
  8
0
 10
134
 11
138
 20
-1
 21
-1
  0
LINE
  8
0
 10
138
 11
138
 20
-1
 21
3
  0
LINE
  8
0
 10
138
 11
142
 20
3
 21
3
  0
LINE
  8
0
 10
142
 11
142
 20
3
 21
-1
  0
LINE
  8
0
 10
142
 11
146
 20
-1
 21
-1
  0
LINE
  8
0
 10
146
 11
146
 20
-1
 21
3
  0
LINE
  8
0
 10
146
 11
150
 20
3
 21
3
  0
LINE
  8
0
 10
150
 11
150
 20
3
 21
-1
  0
LINE
  8
0
 10
150
 11
154
 20
-1
 21
-1
  0
LINE
  8
0
 10
154
 11
154
 20
-1
 21
3
  0
LINE
  8
0
 10
154
 11
158
 20
3
 21
3
  0
LINE
  8
0
 10
158
 11
158
 20
3
 21
-1
  0
LINE
  8
0
 10
158
 11
162
 20
-1
 21
-1
  0
LINE
  8
0
 10
162
 11
162
 20
-1
 21
3
  0
LINE
  8
0
 10
162
 11
166
 20
3
 21
3
  0
LINE
  8
0
 10
166
 11
166
 20
3
 21
-1
  0
LINE
  8
0
 10
166
 11
174
 20
-1
 21
-1
  0
LINE
  8
0
 10
174
 11
174
 20
-1
 21
-5
  0
LINE
  8
0
 10
174
 11
170
 20
-5
 21
-5
  0
LINE
  8
0
 10
170
 11
170
 20
-5
 21
-9
  0
LINE
  8
0
 10
170
 11
174
 20
-9
 21
-9
  0
LINE
  8
0
 10
174
 11
174
 20
-9
 21
-13
  0
LINE
  8
0
 10
174
 11
170
 20
-13
 21
-13
  0
LINE
  8
0
 10
170
 11
170
 20
-13
 21
-17
  0
LINE
  8
0
 10
170
 11
174
 20
-17
 21
-17
  0
LINE
  8
0
 10
174
 11
174
 20
-17
 21
-21
  0
LINE
  8
0
 10
174
 11
170
 20
-21
 21
-21
  0
LINE
  8
0
 10
170
 11
170
 20
-21
 21
-29
  0
LINE
  8
0
 10
170
 11
166
 20
-29
 21
-29
  0
LINE
  8
0
 10
166
 11
166
 20
-29
 21
-25
  0
LINE
  8
0
 10
166
 11
162
 20
-25
 21
-25
  0
LINE
  8
0
 10
162
 11
162
 20
-25
 21
-29
  0
LINE
  8
0
 10
162
 11
158
 20
-29
 21
-29
  0
LINE
  8
0
 10
158
 11
158
 20
-29
 21
-25
  0
LINE
  8
0
 10
158
 11
154
 20
-25
 21
-25
  0
LINE
  8
0
 10
154
 11
154
 20
-25
 21
-29
  0
LINE
  8
0
 10
154
 11
150
 20
-29
 21
-29
  0
LINE
  8
0
 10
150
 11
150
 20
-29
 21
-25
  0
LINE
  8
0
 10
150
 11
146
 20
-25
 21
-25
  0
LINE
  8
0
 10
146
 11
146
 20
-25
 21
-29
  0
LINE
  8
0
 10
146
 11
142
 20
-29
 21
-29
  0
LINE
  8
0
 10
142
 11
142
 20
-29
 21
-25
  0
LINE
  8
0
 10
142
 11
138
 20
-25
 21
-25
  0
LINE
  8
0
 10
138
 11
138
 20
-25
 21
-29
  0
LINE
  8
0
 10
138
 11
134
 20
-29
 21
-29
  0
LINE
  8
0
 10
134
 11
134
 20
-29
 21
-25
  0
LINE
  8
0
 10
134
 11
130
 20
-25
 21
-25
  0
LINE
  8
0
 10
130
 11
130
 20
-25
 21
-29
  0
LINE
  8
0
 10
130
 11
126
 20
-29
 21
-29
  0
LINE
  8
0
 10
126
 11
126
 20
-29
 21
-25
  0
LINE
  8
0
 10
126
 11
122
 20
-25
 21
-25
  0
LINE
  8
0
 10
122
 11
122
 20
-25
 21
-29
  0
LINE
  8
0
 10
122
 11
118
 20
-29
 21
-29
  0
LINE
  8
0
 10
118
 11
118
 20
-29
 21
-25
  0
LINE
  8
0
 10
118
 11
114
 20
-25
 21
-25
  0
LINE
  8
0
 10
114
 11
114
 20
-25
 21
-29
  0
LINE
  8
0
 10
114
 11
110
 20
-29
 21
-29
  0
LINE
  8
0
 10
110
 11
110
 20
-29
 21
-25
  0
LINE
  8
0
 10
110
 11
106
 20
-25
 21
-25
  0
LINE
  8
0
 10
106
 11
106
 20
-25
 21
-29
  0
LINE
  8
0
 10
106
 11
102
 20
-29
 21
-29
  0
LINE
  8
0
 10
102
 11
102
 20
-29
 21
-25
  0
LINE
  8
0
 10
102
 11
98
 20
-25
 21
-25
  0
LINE
  8
0
 10
98
 11
98
 20
-25
 21
-29
  0
LINE
  8
0
 10
98
 11
94
 20
-29
 21
-29
  0
LINE
  8
0
 10
94
 11
94
 20
-29
 21
-25
  0
LINE
  8
0
 10
94
 11
86
 20
-25
 21
-25
  0
LINE
  8
0
 10
86
 11
86
 20
20
 21
24
  0
LINE
  8
0
 10
86
 11
90
 20
24
 21
24
  0
LINE
  8
0
 10
90
 11
90
 20
24
 21
28
  0
LINE
  8
0
 10
90
 11
86
 20
28
 21
28
  0
LINE
  8
0
 10
86
 11
86
 20
28
 21
32
  0
LINE
  8
0
 10
86
 11
90
 20
32
 21
32
  0
LINE
  8
0
 10
90
 11
90
 20
32
 21
36
  0
LINE
  8
0
 10
90
 11
86
 20
36
 21
36
  0
LINE
  8
0
 10
86
 11
86
 20
36
 21
40
  0
LINE
  8
0
 10
86
 11
90
 20
40
 21
40
  0
LINE
  8
0
 10
90
 11
90
 20
40
 21
48
  0
LINE
  8
0
 10
90
 11
94
 20
48
 21
48
  0
LINE
  8
0
 10
94
 11
94
 20
48
 21
44
  0
LINE
  8
0
 10
94
 11
98
 20
44
 21
44
  0
LINE
  8
0
 10
98
 11
98
 20
44
 21
48
  0
LINE
  8
0
 10
98
 11
102
 20
48
 21
48
  0
LINE
  8
0
 10
102
 11
102
 20
48
 21
44
  0
LINE
  8
0
 10
102
 11
106
 20
44
 21
44
  0
LINE
  8
0
 10
106
 11
106
 20
44
 21
48
  0
LINE
  8
0
 10
106
 11
110
 20
48
 21
48
  0
LINE
  8
0
 10
110
 11
110
 20
48
 21
44
  0
LINE
  8
0
 10
110
 11
114
 20
44
 21
44
  0
LINE
  8
0
 10
114
 11
114
 20
44
 21
48
  0
LINE
  8
0
 10
114
 11
118
 20
48
 21
48
  0
LINE
  8
0
 10
118
 11
118
 20
48
 21
44
  0
LINE
  8
0
 10
118
 11
122
 20
44
 21
44
  0
LINE
  8
0
 10
122
 11
122
 20
44
 21
48
  0
LINE
  8
0
 10
122
 11
126
 20
48
 21
48
  0
LINE
  8
0
 10
126
 11
126
 20
48
 21
44
  0
LINE
  8
0
 10
126
 11
130
 20
44
 21
44
  0
LINE
  8
0
 10
130
 11
130
 20
44
 21
48
  0
LINE
  8
0
 10
130
 11
134
 20
48
 21
48
  0
LINE
  8
0
 10
134
 11
134
 20
48
 21
44
  0
LINE
  8
0
 10
134
 11
138
 20
44
 21
44
  0
LINE
  8
0
 10
138
 11
138
 20
44
 21
48
  0
LINE
  8
0
 10
138
 11
142
 20
48
 21
48
  0
LINE
  8
0
 10
142
 11
142
 20
48
 21
44
  0
LINE
  8
0
 10
142
 11
146
 20
44
 21
44
  0
LINE
  8
0
 10
146
 11
146
 20
44
 21
48
  0
LINE
  8
0
 10
146
 11
150
 20
48
 21
48
  0
LINE
  8
0
 10
150
 11
150
 20
48
 21
44
  0
LINE
  8
0
 10
150
 11
154
 20
44
 21
44
  0
LINE
  8
0
 10
154
 11
154
 20
44
 21
48
  0
LINE
  8
0
 10
154
 11
158
 20
48
 21
48
  0
LINE
  8
0
 10
158
 11
158
 20
48
 21
44
  0
LINE
  8
0
 10
158
 11
162
 20
44
 21
44
  0
LINE
  8
0
 10
162
 11
162
 20
44
 21
48
  0
LINE
  8
0
 10
162
 11
166
 20
48
 21
48
  0
LINE
  8
0
 10
166
 11
166
 20
48
 21
44
  0
LINE
  8
0
 10
166
 11
174
 20
44
 21
44
  0
LINE
  8
0
 10
174
 11
174
 20
44
 21
40
  0
LINE
  8
0
 10
174
 11
170
 20
40
 21
40
  0
LINE
  8
0
 10
170
 11
170
 20
40
 21
36
  0
LINE
  8
0
 10
170
 11
174
 20
36
 21
36
  0
LINE
  8
0
 10
174
 11
174
 20
36
 21
32
  0
LINE
  8
0
 10
174
 11
170
 20
32
 21
32
  0
LINE
  8
0
 10
170
 11
170
 20
32
 21
28
  0
LINE
  8
0
 10
170
 11
174
 20
28
 21
28
  0
LINE
  8
0
 10
174
 11
174
 20
28
 21
24
  0
LINE
  8
0
 10
174
 11
170
 20
24
 21
24
  0
LINE
  8
0
 10
170
 11
170
 20
24
 21
16
  0
LINE
  8
0
 10
170
 11
166
 20
16
 21
16
  0
LINE
  8
0
 10
166
 11
166
 20
16
 21
20
  0
LINE
  8
0
 10
166
 11
162
 20
20
 21
20
  0
LINE
  8
0
 10
162
 11
162
 20
20
 21
16
  0
LINE
  8
0
 10
162
 11
158
 20
16
 21
16
  0
LINE
  8
0
 10
158
 11
158
 20
16
 21
20
  0
LINE
  8
0
 10
158
 11
154
 20
20
 21
20
  0
LINE
  8
0
 10
154
 11
154
 20
20
 21
16
  0
LINE
  8
0
 10
154
 11
150
 20
16
 21
16
  0
LINE
  8
0
 10
150
 11
150
 20
16
 21
20
  0
LINE
  8
0
 10
150
 11
146
 20
20
 21
20
  0
LINE
  8
0
 10
146
 11
146
 20
20
 21
16
  0
LINE
  8
0
 10
146
 11
142
 20
16
 21
16
  0
LINE
  8
0
 10
142
 11
142
 20
16
 21
20
  0
LINE
  8
0
 10
142
 11
138
 20
20
 21
20
  0
LINE
  8
0
 10
138
 11
138
 20
20
 21
16
  0
LINE
  8
0
 10
138
 11
134
 20
16
 21
16
  0
LINE
  8
0
 10
134
 11
134
 20
16
 21
20
  0
LINE
  8
0
 10
134
 11
130
 20
20
 21
20
  0
LINE
  8
0
 10
130
 11
130
 20
20
 21
16
  0
LINE
  8
0
 10
130
 11
126
 20
16
 21
16
  0
LINE
  8
0
 10
126
 11
126
 20
16
 21
20
  0
LINE
  8
0
 10
126
 11
122
 20
20
 21
20
  0
LINE
  8
0
 10
122
 11
122
 20
20
 21
16
  0
LINE
  8
0
 10
122
 11
118
 20
16
 21
16
  0
LINE
  8
0
 10
118
 11
118
 20
16
 21
20
  0
LINE
  8
0
 10
118
 11
114
 20
20
 21
20
  0
LINE
  8
0
 10
114
 11
114
 20
20
 21
16
  0
LINE
  8
0
 10
114
 11
110
 20
16
 21
16
  0
LINE
  8
0
 10
110
 11
110
 20
16
 21
20
  0
LINE
  8
0
 10
110
 11
106
 20
20
 21
20
  0
LINE
  8
0
 10
106
 11
106
 20
20
 21
16
  0
LINE
  8
0
 10
106
 11
102
 20
16
 21
16
  0
LINE
  8
0
 10
102
 11
102
 20
16
 21
20
  0
LINE
  8
0
 10
102
 11
98
 20
20
 21
20
  0
LINE
  8
0
 10
98
 11
98
 20
20
 21
16
  0
LINE
  8
0
 10
98
 11
94
 20
16
 21
16
  0
LINE
  8
0
 10
94
 11
94
 20
16
 21
20
  0
LINE
  8
0
 10
94
 11
86
 20
20
 21
20
  0
ENDSEC
  0
SECTION
  2
OBJECTS
  0
DICTIONARY
  0
ENDSEC
  0
EOF
