  0
SECTION
  2
BLOCKS
  0
ENDSEC
  0
SECTION
  2
ENTITIES
  0
LINE
  8
0
 10
-22.5
 11
-22.5
 20
-45
 21
45
  0
LINE
  8
0
 10
-22.5
 11
22.5
 20
45
 21
45
  0
LINE
  8
0
 10
22.5
 11
22.5
 20
45
 21
35
  0
LINE
  8
0
 10
22.5
 11
0
 20
35
 21
35
  0
LINE
  8
0
 10
0
 11
0
 20
35
 21
31
  0
LINE
  8
0
 10
0
 11
22.5
 20
31
 21
31
  0
LINE
  8
0
 10
22.5
 11
22.5
 20
31
 21
2
  0
LINE
  8
0
 10
22.5
 11
0
 20
2
 21
2
  0
LINE
  8
0
 10
0
 11
0
 20
2
 21
-2
  0
LINE
  8
0
 10
0
 11
22.5
 20
-2
 21
-2
  0
LINE
  8
0
 10
22.5
 11
22.5
 20
-2
 21
-31
  0
LINE
  8
0
 10
22.5
 11
0
 20
-31
 21
-31
  0
LINE
  8
0
 10
0
 11
0
 20
-31
 21
-35
  0
LINE
  8
0
 10
0
 11
22.5
 20
-35
 21
-35
  0
LINE
  8
0
 10
22.5
 11
22.5
 20
-35
 21
-45
  0
LINE
  8
0
 10
22.5
 11
-22.5
 20
-45
 21
-45
  0
LINE
  8
0
 10
-22.5
 11
-22.5
 20
46
 21
136
  0
LINE
  8
0
 10
-22.5
 11
22.5
 20
136
 21
136
  0
LINE
  8
0
 10
22.5
 11
22.5
 20
136
 21
126
  0
LINE
  8
0
 10
22.5
 11
0
 20
126
 21
126
  0
LINE
  8
0
 10
0
 11
0
 20
126
 21
122
  0
LINE
  8
0
 10
0
 11
22.5
 20
122
 21
122
  0
LINE
  8
0
 10
22.5
 11
22.5
 20
122
 21
93
  0
LINE
  8
0
 10
22.5
 11
0
 20
93
 21
93
  0
LINE
  8
0
 10
0
 11
0
 20
93
 21
89
  0
LINE
  8
0
 10
0
 11
22.5
 20
89
 21
89
  0
LINE
  8
0
 10
22.5
 11
22.5
 20
89
 21
60
  0
LINE
  8
0
 10
22.5
 11
0
 20
60
 21
60
  0
LINE
  8
0
 10
0
 11
0
 20
60
 21
56
  0
LINE
  8
0
 10
0
 11
22.5
 20
56
 21
56
  0
LINE
  8
0
 10
22.5
 11
22.5
 20
56
 21
46
  0
LINE
  8
0
 10
22.5
 11
-22.5
 20
46
 21
46
  0
LINE
  8
0
 10
23.5
 11
23.5
 20
-45
 21
45
  0
LINE
  8
0
 10
23.5
 11
68.5
 20
45
 21
45
  0
LINE
  8
0
 10
68.5
 11
68.5
 20
45
 21
35
  0
LINE
  8
0
 10
68.5
 11
46
 20
35
 21
35
  0
LINE
  8
0
 10
46
 11
46
 20
35
 21
31
  0
LINE
  8
0
 10
46
 11
68.5
 20
31
 21
31
  0
LINE
  8
0
 10
68.5
 11
68.5
 20
31
 21
2
  0
LINE
  8
0
 10
68.5
 11
46
 20
2
 21
2
  0
LINE
  8
0
 10
46
 11
46
 20
2
 21
-2
  0
LINE
  8
0
 10
46
 11
68.5
 20
-2
 21
-2
  0
LINE
  8
0
 10
68.5
 11
68.5
 20
-2
 21
-31
  0
LINE
  8
0
 10
68.5
 11
46
 20
-31
 21
-31
  0
LINE
  8
0
 10
46
 11
46
 20
-31
 21
-35
  0
LINE
  8
0
 10
46
 11
68.5
 20
-35
 21
-35
  0
LINE
  8
0
 10
68.5
 11
68.5
 20
-35
 21
-45
  0
LINE
  8
0
 10
68.5
 11
23.5
 20
-45
 21
-45
  0
LINE
  8
0
 10
23.5
 11
23.5
 20
46
 21
136
  0
LINE
  8
0
 10
23.5
 11
68.5
 20
136
 21
136
  0
LINE
  8
0
 10
68.5
 11
68.5
 20
136
 21
126
  0
LINE
  8
0
 10
68.5
 11
46
 20
126
 21
126
  0
LINE
  8
0
 10
46
 11
46
 20
126
 21
122
  0
LINE
  8
0
 10
46
 11
68.5
 20
122
 21
122
  0
LINE
  8
0
 10
68.5
 11
68.5
 20
122
 21
93
  0
LINE
  8
0
 10
68.5
 11
46
 20
93
 21
93
  0
LINE
  8
0
 10
46
 11
46
 20
93
 21
89
  0
LINE
  8
0
 10
46
 11
68.5
 20
89
 21
89
  0
LINE
  8
0
 10
68.5
 11
68.5
 20
89
 21
60
  0
LINE
  8
0
 10
68.5
 11
46
 20
60
 21
60
  0
LINE
  8
0
 10
46
 11
46
 20
60
 21
56
  0
LINE
  8
0
 10
46
 11
68.5
 20
56
 21
56
  0
LINE
  8
0
 10
68.5
 11
68.5
 20
56
 21
46
  0
LINE
  8
0
 10
68.5
 11
23.5
 20
46
 21
46
  0
LINE
  8
0
 10
69.5
 11
69.5
 20
-45
 21
45
  0
LINE
  8
0
 10
69.5
 11
114.5
 20
45
 21
45
  0
LINE
  8
0
 10
114.5
 11
114.5
 20
45
 21
35
  0
LINE
  8
0
 10
114.5
 11
92
 20
35
 21
35
  0
LINE
  8
0
 10
92
 11
92
 20
35
 21
31
  0
LINE
  8
0
 10
92
 11
114.5
 20
31
 21
31
  0
LINE
  8
0
 10
114.5
 11
114.5
 20
31
 21
2
  0
LINE
  8
0
 10
114.5
 11
92
 20
2
 21
2
  0
LINE
  8
0
 10
92
 11
92
 20
2
 21
-2
  0
LINE
  8
0
 10
92
 11
114.5
 20
-2
 21
-2
  0
LINE
  8
0
 10
114.5
 11
114.5
 20
-2
 21
-31
  0
LINE
  8
0
 10
114.5
 11
92
 20
-31
 21
-31
  0
LINE
  8
0
 10
92
 11
92
 20
-31
 21
-35
  0
LINE
  8
0
 10
92
 11
114.5
 20
-35
 21
-35
  0
LINE
  8
0
 10
114.5
 11
114.5
 20
-35
 21
-45
  0
LINE
  8
0
 10
114.5
 11
69.5
 20
-45
 21
-45
  0
LINE
  8
0
 10
69.5
 11
69.5
 20
46
 21
136
  0
LINE
  8
0
 10
69.5
 11
114.5
 20
136
 21
136
  0
LINE
  8
0
 10
114.5
 11
114.5
 20
136
 21
126
  0
LINE
  8
0
 10
114.5
 11
92
 20
126
 21
126
  0
LINE
  8
0
 10
92
 11
92
 20
126
 21
122
  0
LINE
  8
0
 10
92
 11
114.5
 20
122
 21
122
  0
LINE
  8
0
 10
114.5
 11
114.5
 20
122
 21
93
  0
LINE
  8
0
 10
114.5
 11
92
 20
93
 21
93
  0
LINE
  8
0
 10
92
 11
92
 20
93
 21
89
  0
LINE
  8
0
 10
92
 11
114.5
 20
89
 21
89
  0
LINE
  8
0
 10
114.5
 11
114.5
 20
89
 21
60
  0
LINE
  8
0
 10
114.5
 11
92
 20
60
 21
60
  0
LINE
  8
0
 10
92
 11
92
 20
60
 21
56
  0
LINE
  8
0
 10
92
 11
114.5
 20
56
 21
56
  0
LINE
  8
0
 10
114.5
 11
114.5
 20
56
 21
46
  0
LINE
  8
0
 10
114.5
 11
69.5
 20
46
 21
46
  0
LINE
  8
0
 10
115.5
 11
115.5
 20
-45
 21
45
  0
LINE
  8
0
 10
115.5
 11
160.5
 20
45
 21
45
  0
LINE
  8
0
 10
160.5
 11
160.5
 20
45
 21
35
  0
LINE
  8
0
 10
160.5
 11
138
 20
35
 21
35
  0
LINE
  8
0
 10
138
 11
138
 20
35
 21
31
  0
LINE
  8
0
 10
138
 11
160.5
 20
31
 21
31
  0
LINE
  8
0
 10
160.5
 11
160.5
 20
31
 21
2
  0
LINE
  8
0
 10
160.5
 11
138
 20
2
 21
2
  0
LINE
  8
0
 10
138
 11
138
 20
2
 21
-2
  0
LINE
  8
0
 10
138
 11
160.5
 20
-2
 21
-2
  0
LINE
  8
0
 10
160.5
 11
160.5
 20
-2
 21
-31
  0
LINE
  8
0
 10
160.5
 11
138
 20
-31
 21
-31
  0
LINE
  8
0
 10
138
 11
138
 20
-31
 21
-35
  0
LINE
  8
0
 10
138
 11
160.5
 20
-35
 21
-35
  0
LINE
  8
0
 10
160.5
 11
160.5
 20
-35
 21
-45
  0
LINE
  8
0
 10
160.5
 11
115.5
 20
-45
 21
-45
  0
LINE
  8
0
 10
115.5
 11
115.5
 20
46
 21
136
  0
LINE
  8
0
 10
115.5
 11
160.5
 20
136
 21
136
  0
LINE
  8
0
 10
160.5
 11
160.5
 20
136
 21
126
  0
LINE
  8
0
 10
160.5
 11
138
 20
126
 21
126
  0
LINE
  8
0
 10
138
 11
138
 20
126
 21
122
  0
LINE
  8
0
 10
138
 11
160.5
 20
122
 21
122
  0
LINE
  8
0
 10
160.5
 11
160.5
 20
122
 21
93
  0
LINE
  8
0
 10
160.5
 11
138
 20
93
 21
93
  0
LINE
  8
0
 10
138
 11
138
 20
93
 21
89
  0
LINE
  8
0
 10
138
 11
160.5
 20
89
 21
89
  0
LINE
  8
0
 10
160.5
 11
160.5
 20
89
 21
60
  0
LINE
  8
0
 10
160.5
 11
138
 20
60
 21
60
  0
LINE
  8
0
 10
138
 11
138
 20
60
 21
56
  0
LINE
  8
0
 10
138
 11
160.5
 20
56
 21
56
  0
LINE
  8
0
 10
160.5
 11
160.5
 20
56
 21
46
  0
LINE
  8
0
 10
160.5
 11
115.5
 20
46
 21
46
  0
LINE
  8
0
 10
161.5
 11
161.5
 20
-45
 21
45
  0
LINE
  8
0
 10
161.5
 11
206.5
 20
45
 21
45
  0
LINE
  8
0
 10
206.5
 11
206.5
 20
45
 21
35
  0
LINE
  8
0
 10
206.5
 11
184
 20
35
 21
35
  0
LINE
  8
0
 10
184
 11
184
 20
35
 21
31
  0
LINE
  8
0
 10
184
 11
206.5
 20
31
 21
31
  0
LINE
  8
0
 10
206.5
 11
206.5
 20
31
 21
2
  0
LINE
  8
0
 10
206.5
 11
184
 20
2
 21
2
  0
LINE
  8
0
 10
184
 11
184
 20
2
 21
-2
  0
LINE
  8
0
 10
184
 11
206.5
 20
-2
 21
-2
  0
LINE
  8
0
 10
206.5
 11
206.5
 20
-2
 21
-31
  0
LINE
  8
0
 10
206.5
 11
184
 20
-31
 21
-31
  0
LINE
  8
0
 10
184
 11
184
 20
-31
 21
-35
  0
LINE
  8
0
 10
184
 11
206.5
 20
-35
 21
-35
  0
LINE
  8
0
 10
206.5
 11
206.5
 20
-35
 21
-45
  0
LINE
  8
0
 10
206.5
 11
161.5
 20
-45
 21
-45
  0
LINE
  8
0
 10
161.5
 11
161.5
 20
46
 21
136
  0
LINE
  8
0
 10
161.5
 11
206.5
 20
136
 21
136
  0
LINE
  8
0
 10
206.5
 11
206.5
 20
136
 21
126
  0
LINE
  8
0
 10
206.5
 11
184
 20
126
 21
126
  0
LINE
  8
0
 10
184
 11
184
 20
126
 21
122
  0
LINE
  8
0
 10
184
 11
206.5
 20
122
 21
122
  0
LINE
  8
0
 10
206.5
 11
206.5
 20
122
 21
93
  0
LINE
  8
0
 10
206.5
 11
184
 20
93
 21
93
  0
LINE
  8
0
 10
184
 11
184
 20
93
 21
89
  0
LINE
  8
0
 10
184
 11
206.5
 20
89
 21
89
  0
LINE
  8
0
 10
206.5
 11
206.5
 20
89
 21
60
  0
LINE
  8
0
 10
206.5
 11
184
 20
60
 21
60
  0
LINE
  8
0
 10
184
 11
184
 20
60
 21
56
  0
LINE
  8
0
 10
184
 11
206.5
 20
56
 21
56
  0
LINE
  8
0
 10
206.5
 11
206.5
 20
56
 21
46
  0
LINE
  8
0
 10
206.5
 11
161.5
 20
46
 21
46
  0
LINE
  8
0
 10
207.5
 11
207.5
 20
-45
 21
45
  0
LINE
  8
0
 10
207.5
 11
252.5
 20
45
 21
45
  0
LINE
  8
0
 10
252.5
 11
252.5
 20
45
 21
35
  0
LINE
  8
0
 10
252.5
 11
230
 20
35
 21
35
  0
LINE
  8
0
 10
230
 11
230
 20
35
 21
31
  0
LINE
  8
0
 10
230
 11
252.5
 20
31
 21
31
  0
LINE
  8
0
 10
252.5
 11
252.5
 20
31
 21
2
  0
LINE
  8
0
 10
252.5
 11
230
 20
2
 21
2
  0
LINE
  8
0
 10
230
 11
230
 20
2
 21
-2
  0
LINE
  8
0
 10
230
 11
252.5
 20
-2
 21
-2
  0
LINE
  8
0
 10
252.5
 11
252.5
 20
-2
 21
-31
  0
LINE
  8
0
 10
252.5
 11
230
 20
-31
 21
-31
  0
LINE
  8
0
 10
230
 11
230
 20
-31
 21
-35
  0
LINE
  8
0
 10
230
 11
252.5
 20
-35
 21
-35
  0
LINE
  8
0
 10
252.5
 11
252.5
 20
-35
 21
-45
  0
LINE
  8
0
 10
252.5
 11
207.5
 20
-45
 21
-45
  0
LINE
  8
0
 10
207.5
 11
207.5
 20
46
 21
136
  0
LINE
  8
0
 10
207.5
 11
252.5
 20
136
 21
136
  0
LINE
  8
0
 10
252.5
 11
252.5
 20
136
 21
126
  0
LINE
  8
0
 10
252.5
 11
230
 20
126
 21
126
  0
LINE
  8
0
 10
230
 11
230
 20
126
 21
122
  0
LINE
  8
0
 10
230
 11
252.5
 20
122
 21
122
  0
LINE
  8
0
 10
252.5
 11
252.5
 20
122
 21
93
  0
LINE
  8
0
 10
252.5
 11
230
 20
93
 21
93
  0
LINE
  8
0
 10
230
 11
230
 20
93
 21
89
  0
LINE
  8
0
 10
230
 11
252.5
 20
89
 21
89
  0
LINE
  8
0
 10
252.5
 11
252.5
 20
89
 21
60
  0
LINE
  8
0
 10
252.5
 11
230
 20
60
 21
60
  0
LINE
  8
0
 10
230
 11
230
 20
60
 21
56
  0
LINE
  8
0
 10
230
 11
252.5
 20
56
 21
56
  0
LINE
  8
0
 10
252.5
 11
252.5
 20
56
 21
46
  0
LINE
  8
0
 10
252.5
 11
207.5
 20
46
 21
46
  0
ENDSEC
  0
SECTION
  2
OBJECTS
  0
DICTIONARY
  0
ENDSEC
  0
EOF
