  0
SECTION
  2
BLOCKS
  0
ENDSEC
  0
SECTION
  2
ENTITIES
  0
LINE
  8
0
 10
-50
 11
-48.907
 20
0
 21
10.396
  0
LINE
  8
0
 10
-48.907
 11
-45.677
 20
10.396
 21
20.337
  0
LINE
  8
0
 10
-45.677
 11
-40.451
 20
20.337
 21
29.389
  0
LINE
  8
0
 10
-40.451
 11
-33.457
 20
29.389
 21
37.157
  0
LINE
  8
0
 10
-33.457
 11
-25
 20
37.157
 21
43.301
  0
LINE
  8
0
 10
-25
 11
-15.451
 20
43.301
 21
47.553
  0
LINE
  8
0
 10
-15.451
 11
-5.226
 20
47.553
 21
49.726
  0
LINE
  8
0
 10
-5.226
 11
5.226
 20
49.726
 21
49.726
  0
LINE
  8
0
 10
5.226
 11
15.451
 20
49.726
 21
47.553
  0
LINE
  8
0
 10
15.451
 11
19.5
 20
47.553
 21
45.75
  0
LINE
  8
0
 10
19.5
 11
0
 20
45.75
 21
45.75
  0
LINE
  8
0
 10
0
 11
0
 20
45.75
 21
41.75
  0
LINE
  8
0
 10
0
 11
27.135
 20
41.75
 21
41.75
  0
LINE
  8
0
 10
27.135
 11
33.457
 20
41.75
 21
37.157
  0
LINE
  8
0
 10
33.457
 11
36.975
 20
37.157
 21
33.25
  0
LINE
  8
0
 10
36.975
 11
0
 20
33.25
 21
33.25
  0
LINE
  8
0
 10
0
 11
0
 20
33.25
 21
29.25
  0
LINE
  8
0
 10
0
 11
40.531
 20
29.25
 21
29.25
  0
LINE
  8
0
 10
40.531
 11
45.439
 20
29.25
 21
20.75
  0
LINE
  8
0
 10
45.439
 11
0
 20
20.75
 21
20.75
  0
LINE
  8
0
 10
0
 11
0
 20
20.75
 21
16.75
  0
LINE
  8
0
 10
0
 11
46.842
 20
16.75
 21
16.75
  0
LINE
  8
0
 10
46.842
 11
48.907
 20
16.75
 21
10.396
  0
LINE
  8
0
 10
48.907
 11
49.133
 20
10.396
 21
8.25
  0
LINE
  8
0
 10
49.133
 11
0
 20
8.25
 21
8.25
  0
LINE
  8
0
 10
0
 11
0
 20
8.25
 21
4.25
  0
LINE
  8
0
 10
0
 11
49.553
 20
4.25
 21
4.25
  0
LINE
  8
0
 10
49.553
 11
50
 20
4.25
 21
0
  0
LINE
  8
0
 10
50
 11
49.553
 20
0
 21
-4.25
  0
LINE
  8
0
 10
49.553
 11
0
 20
-4.25
 21
-4.25
  0
LINE
  8
0
 10
0
 11
0
 20
-4.25
 21
-8.25
  0
LINE
  8
0
 10
0
 11
49.133
 20
-8.25
 21
-8.25
  0
LINE
  8
0
 10
49.133
 11
48.907
 20
-8.25
 21
-10.396
  0
LINE
  8
0
 10
48.907
 11
46.842
 20
-10.396
 21
-16.75
  0
LINE
  8
0
 10
46.842
 11
0
 20
-16.75
 21
-16.75
  0
LINE
  8
0
 10
0
 11
0
 20
-16.75
 21
-20.75
  0
LINE
  8
0
 10
0
 11
45.439
 20
-20.75
 21
-20.75
  0
LINE
  8
0
 10
45.439
 11
40.531
 20
-20.75
 21
-29.25
  0
LINE
  8
0
 10
40.531
 11
0
 20
-29.25
 21
-29.25
  0
LINE
  8
0
 10
0
 11
0
 20
-29.25
 21
-33.25
  0
LINE
  8
0
 10
0
 11
36.975
 20
-33.25
 21
-33.25
  0
LINE
  8
0
 10
36.975
 11
33.457
 20
-33.25
 21
-37.157
  0
LINE
  8
0
 10
33.457
 11
27.135
 20
-37.157
 21
-41.75
  0
LINE
  8
0
 10
27.135
 11
0
 20
-41.75
 21
-41.75
  0
LINE
  8
0
 10
0
 11
0
 20
-41.75
 21
-45.75
  0
LINE
  8
0
 10
0
 11
19.5
 20
-45.75
 21
-45.75
  0
LINE
  8
0
 10
19.5
 11
15.451
 20
-45.75
 21
-47.553
  0
LINE
  8
0
 10
15.451
 11
5.226
 20
-47.553
 21
-49.726
  0
LINE
  8
0
 10
5.226
 11
-5.226
 20
-49.726
 21
-49.726
  0
LINE
  8
0
 10
-5.226
 11
-15.451
 20
-49.726
 21
-47.553
  0
LINE
  8
0
 10
-15.451
 11
-25
 20
-47.553
 21
-43.301
  0
LINE
  8
0
 10
-25
 11
-33.457
 20
-43.301
 21
-37.157
  0
LINE
  8
0
 10
-33.457
 11
-40.451
 20
-37.157
 21
-29.389
  0
LINE
  8
0
 10
-40.451
 11
-45.677
 20
-29.389
 21
-20.337
  0
LINE
  8
0
 10
-45.677
 11
-48.907
 20
-20.337
 21
-10.396
  0
LINE
  8
0
 10
-48.907
 11
-50
 20
-10.396
 21
0
  0
LINE
  8
0
 10
-45
 11
-44.563
 20
91
 21
95.158
  0
LINE
  8
0
 10
-44.563
 11
-44.533
 20
95.158
 21
95.25
  0
LINE
  8
0
 10
-44.533
 11
-25
 20
95.25
 21
95.25
  0
LINE
  8
0
 10
-25
 11
-25
 20
95.25
 21
99.25
  0
LINE
  8
0
 10
-25
 11
-43.205
 20
99.25
 21
99.25
  0
LINE
  8
0
 10
-43.205
 11
-41.18
 20
99.25
 21
102.756
  0
LINE
  8
0
 10
-41.18
 11
-38.383
 20
102.756
 21
105.863
  0
LINE
  8
0
 10
-38.383
 11
-35
 20
105.863
 21
108.321
  0
LINE
  8
0
 10
-35
 11
-31.18
 20
108.321
 21
110.021
  0
LINE
  8
0
 10
-31.18
 11
-27.091
 20
110.021
 21
110.89
  0
LINE
  8
0
 10
-27.091
 11
-22.909
 20
110.89
 21
110.89
  0
LINE
  8
0
 10
-22.909
 11
-18.82
 20
110.89
 21
110.021
  0
LINE
  8
0
 10
-18.82
 11
-15
 20
110.021
 21
108.321
  0
LINE
  8
0
 10
-15
 11
-11.617
 20
108.321
 21
105.863
  0
LINE
  8
0
 10
-11.617
 11
-8.82
 20
105.863
 21
102.756
  0
LINE
  8
0
 10
-8.82
 11
-6.729
 20
102.756
 21
99.135
  0
LINE
  8
0
 10
-6.729
 11
-5.437
 20
99.135
 21
95.158
  0
LINE
  8
0
 10
-5.437
 11
-5
 20
95.158
 21
91
  0
LINE
  8
0
 10
-5
 11
-5.437
 20
91
 21
86.842
  0
LINE
  8
0
 10
-5.437
 11
-6.729
 20
86.842
 21
82.865
  0
LINE
  8
0
 10
-6.729
 11
-8.82
 20
82.865
 21
79.244
  0
LINE
  8
0
 10
-8.82
 11
-11.617
 20
79.244
 21
76.137
  0
LINE
  8
0
 10
-11.617
 11
-15
 20
76.137
 21
73.679
  0
LINE
  8
0
 10
-15
 11
-18.82
 20
73.679
 21
71.979
  0
LINE
  8
0
 10
-18.82
 11
-22.909
 20
71.979
 21
71.11
  0
LINE
  8
0
 10
-22.909
 11
-27.091
 20
71.11
 21
71.11
  0
LINE
  8
0
 10
-27.091
 11
-31.18
 20
71.11
 21
71.979
  0
LINE
  8
0
 10
-31.18
 11
-35
 20
71.979
 21
73.679
  0
LINE
  8
0
 10
-35
 11
-38.383
 20
73.679
 21
76.137
  0
LINE
  8
0
 10
-38.383
 11
-41.18
 20
76.137
 21
79.244
  0
LINE
  8
0
 10
-41.18
 11
-43.205
 20
79.244
 21
82.75
  0
LINE
  8
0
 10
-43.205
 11
-25
 20
82.75
 21
82.75
  0
LINE
  8
0
 10
-25
 11
-25
 20
82.75
 21
86.75
  0
LINE
  8
0
 10
-25
 11
-44.533
 20
86.75
 21
86.75
  0
LINE
  8
0
 10
-44.533
 11
-44.563
 20
86.75
 21
86.842
  0
LINE
  8
0
 10
-44.563
 11
-45
 20
86.842
 21
91
  0
LINE
  8
0
 10
-5
 11
-4.553
 20
81
 21
85.25
  0
LINE
  8
0
 10
-4.553
 11
25
 20
85.25
 21
85.25
  0
LINE
  8
0
 10
25
 11
25
 20
85.25
 21
89.25
  0
LINE
  8
0
 10
25
 11
-3.69
 20
89.25
 21
89.25
  0
LINE
  8
0
 10
-3.69
 11
-2.406
 20
89.25
 21
93.202
  0
LINE
  8
0
 10
-2.406
 11
0.219
 20
93.202
 21
97.75
  0
LINE
  8
0
 10
0.219
 11
25
 20
97.75
 21
97.75
  0
LINE
  8
0
 10
25
 11
25
 20
97.75
 21
101.75
  0
LINE
  8
0
 10
25
 11
3.535
 20
101.75
 21
101.75
  0
LINE
  8
0
 10
3.535
 11
4.926
 20
101.75
 21
103.294
  0
LINE
  8
0
 10
4.926
 11
10
 20
103.294
 21
106.981
  0
LINE
  8
0
 10
10
 11
15.729
 20
106.981
 21
109.532
  0
LINE
  8
0
 10
15.729
 11
21.864
 20
109.532
 21
110.836
  0
LINE
  8
0
 10
21.864
 11
28.136
 20
110.836
 21
110.836
  0
LINE
  8
0
 10
28.136
 11
34.271
 20
110.836
 21
109.532
  0
LINE
  8
0
 10
34.271
 11
40
 20
109.532
 21
106.981
  0
LINE
  8
0
 10
40
 11
45.074
 20
106.981
 21
103.294
  0
LINE
  8
0
 10
45.074
 11
49.271
 20
103.294
 21
98.634
  0
LINE
  8
0
 10
49.271
 11
52.406
 20
98.634
 21
93.202
  0
LINE
  8
0
 10
52.406
 11
54.344
 20
93.202
 21
87.237
  0
LINE
  8
0
 10
54.344
 11
55
 20
87.237
 21
81
  0
LINE
  8
0
 10
55
 11
54.344
 20
81
 21
74.763
  0
LINE
  8
0
 10
54.344
 11
52.406
 20
74.763
 21
68.798
  0
LINE
  8
0
 10
52.406
 11
49.271
 20
68.798
 21
63.366
  0
LINE
  8
0
 10
49.271
 11
45.074
 20
63.366
 21
58.706
  0
LINE
  8
0
 10
45.074
 11
40
 20
58.706
 21
55.019
  0
LINE
  8
0
 10
40
 11
34.271
 20
55.019
 21
52.468
  0
LINE
  8
0
 10
34.271
 11
28.136
 20
52.468
 21
51.164
  0
LINE
  8
0
 10
28.136
 11
21.864
 20
51.164
 21
51.164
  0
LINE
  8
0
 10
21.864
 11
15.729
 20
51.164
 21
52.468
  0
LINE
  8
0
 10
15.729
 11
10
 20
52.468
 21
55.019
  0
LINE
  8
0
 10
10
 11
4.926
 20
55.019
 21
58.706
  0
LINE
  8
0
 10
4.926
 11
3.535
 20
58.706
 21
60.25
  0
LINE
  8
0
 10
3.535
 11
25
 20
60.25
 21
60.25
  0
LINE
  8
0
 10
25
 11
25
 20
60.25
 21
64.25
  0
LINE
  8
0
 10
25
 11
0.219
 20
64.25
 21
64.25
  0
LINE
  8
0
 10
0.219
 11
-2.406
 20
64.25
 21
68.798
  0
LINE
  8
0
 10
-2.406
 11
-3.69
 20
68.798
 21
72.75
  0
LINE
  8
0
 10
-3.69
 11
25
 20
72.75
 21
72.75
  0
LINE
  8
0
 10
25
 11
25
 20
72.75
 21
76.75
  0
LINE
  8
0
 10
25
 11
-4.553
 20
76.75
 21
76.75
  0
LINE
  8
0
 10
-4.553
 11
-5
 20
76.75
 21
81
  0
LINE
  8
0
 10
51
 11
51.874
 20
-10
 21
-1.684
  0
LINE
  8
0
 10
51.874
 11
54.458
 20
-1.684
 21
6.269
  0
LINE
  8
0
 10
54.458
 11
58.639
 20
6.269
 21
13.511
  0
LINE
  8
0
 10
58.639
 11
64.235
 20
13.511
 21
19.726
  0
LINE
  8
0
 10
64.235
 11
71
 20
19.726
 21
24.641
  0
LINE
  8
0
 10
71
 11
78.639
 20
24.641
 21
28.042
  0
LINE
  8
0
 10
78.639
 11
86.819
 20
28.042
 21
29.781
  0
LINE
  8
0
 10
86.819
 11
95.181
 20
29.781
 21
29.781
  0
LINE
  8
0
 10
95.181
 11
103.361
 20
29.781
 21
28.042
  0
LINE
  8
0
 10
103.361
 11
111
 20
28.042
 21
24.641
  0
LINE
  8
0
 10
111
 11
112.915
 20
24.641
 21
23.25
  0
LINE
  8
0
 10
112.915
 11
91
 20
23.25
 21
23.25
  0
LINE
  8
0
 10
91
 11
91
 20
23.25
 21
19.25
  0
LINE
  8
0
 10
91
 11
118.194
 20
19.25
 21
19.25
  0
LINE
  8
0
 10
118.194
 11
123.361
 20
19.25
 21
13.511
  0
LINE
  8
0
 10
123.361
 11
124.955
 20
13.511
 21
10.75
  0
LINE
  8
0
 10
124.955
 11
91
 20
10.75
 21
10.75
  0
LINE
  8
0
 10
91
 11
91
 20
10.75
 21
6.75
  0
LINE
  8
0
 10
91
 11
127.264
 20
6.75
 21
6.75
  0
LINE
  8
0
 10
127.264
 11
127.542
 20
6.75
 21
6.269
  0
LINE
  8
0
 10
127.542
 11
130.126
 20
6.269
 21
-1.684
  0
LINE
  8
0
 10
130.126
 11
130.133
 20
-1.684
 21
-1.75
  0
LINE
  8
0
 10
130.133
 11
91
 20
-1.75
 21
-1.75
  0
LINE
  8
0
 10
91
 11
91
 20
-1.75
 21
-5.75
  0
LINE
  8
0
 10
91
 11
130.553
 20
-5.75
 21
-5.75
  0
LINE
  8
0
 10
130.553
 11
131
 20
-5.75
 21
-10
  0
LINE
  8
0
 10
131
 11
130.553
 20
-10
 21
-14.25
  0
LINE
  8
0
 10
130.553
 11
91
 20
-14.25
 21
-14.25
  0
LINE
  8
0
 10
91
 11
91
 20
-14.25
 21
-18.25
  0
LINE
  8
0
 10
91
 11
130.133
 20
-18.25
 21
-18.25
  0
LINE
  8
0
 10
130.133
 11
130.126
 20
-18.25
 21
-18.316
  0
LINE
  8
0
 10
130.126
 11
127.542
 20
-18.316
 21
-26.269
  0
LINE
  8
0
 10
127.542
 11
127.264
 20
-26.269
 21
-26.75
  0
LINE
  8
0
 10
127.264
 11
91
 20
-26.75
 21
-26.75
  0
LINE
  8
0
 10
91
 11
91
 20
-26.75
 21
-30.75
  0
LINE
  8
0
 10
91
 11
124.955
 20
-30.75
 21
-30.75
  0
LINE
  8
0
 10
124.955
 11
123.361
 20
-30.75
 21
-33.511
  0
LINE
  8
0
 10
123.361
 11
118.194
 20
-33.511
 21
-39.25
  0
LINE
  8
0
 10
118.194
 11
91
 20
-39.25
 21
-39.25
  0
LINE
  8
0
 10
91
 11
91
 20
-39.25
 21
-43.25
  0
LINE
  8
0
 10
91
 11
112.915
 20
-43.25
 21
-43.25
  0
LINE
  8
0
 10
112.915
 11
111
 20
-43.25
 21
-44.641
  0
LINE
  8
0
 10
111
 11
103.361
 20
-44.641
 21
-48.042
  0
LINE
  8
0
 10
103.361
 11
95.181
 20
-48.042
 21
-49.781
  0
LINE
  8
0
 10
95.181
 11
86.819
 20
-49.781
 21
-49.781
  0
LINE
  8
0
 10
86.819
 11
78.639
 20
-49.781
 21
-48.042
  0
LINE
  8
0
 10
78.639
 11
71
 20
-48.042
 21
-44.641
  0
LINE
  8
0
 10
71
 11
64.235
 20
-44.641
 21
-39.726
  0
LINE
  8
0
 10
64.235
 11
58.639
 20
-39.726
 21
-33.511
  0
LINE
  8
0
 10
58.639
 11
54.458
 20
-33.511
 21
-26.269
  0
LINE
  8
0
 10
54.458
 11
51.874
 20
-26.269
 21
-18.316
  0
LINE
  8
0
 10
51.874
 11
51
 20
-18.316
 21
-10
  0
LINE
  8
0
 10
59
 11
59.447
 20
71
 21
75.25
  0
LINE
  8
0
 10
59.447
 11
99
 20
75.25
 21
75.25
  0
LINE
  8
0
 10
99
 11
99
 20
75.25
 21
79.25
  0
LINE
  8
0
 10
99
 11
59.867
 20
79.25
 21
79.25
  0
LINE
  8
0
 10
59.867
 11
59.874
 20
79.25
 21
79.316
  0
LINE
  8
0
 10
59.874
 11
62.458
 20
79.316
 21
87.269
  0
LINE
  8
0
 10
62.458
 11
62.736
 20
87.269
 21
87.75
  0
LINE
  8
0
 10
62.736
 11
99
 20
87.75
 21
87.75
  0
LINE
  8
0
 10
99
 11
99
 20
87.75
 21
91.75
  0
LINE
  8
0
 10
99
 11
65.045
 20
91.75
 21
91.75
  0
LINE
  8
0
 10
65.045
 11
66.639
 20
91.75
 21
94.511
  0
LINE
  8
0
 10
66.639
 11
71.806
 20
94.511
 21
100.25
  0
LINE
  8
0
 10
71.806
 11
99
 20
100.25
 21
100.25
  0
LINE
  8
0
 10
99
 11
99
 20
100.25
 21
104.25
  0
LINE
  8
0
 10
99
 11
77.085
 20
104.25
 21
104.25
  0
LINE
  8
0
 10
77.085
 11
79
 20
104.25
 21
105.641
  0
LINE
  8
0
 10
79
 11
86.639
 20
105.641
 21
109.042
  0
LINE
  8
0
 10
86.639
 11
94.819
 20
109.042
 21
110.781
  0
LINE
  8
0
 10
94.819
 11
103.181
 20
110.781
 21
110.781
  0
LINE
  8
0
 10
103.181
 11
111.361
 20
110.781
 21
109.042
  0
LINE
  8
0
 10
111.361
 11
119
 20
109.042
 21
105.641
  0
LINE
  8
0
 10
119
 11
125.765
 20
105.641
 21
100.726
  0
LINE
  8
0
 10
125.765
 11
131.361
 20
100.726
 21
94.511
  0
LINE
  8
0
 10
131.361
 11
135.542
 20
94.511
 21
87.269
  0
LINE
  8
0
 10
135.542
 11
138.126
 20
87.269
 21
79.316
  0
LINE
  8
0
 10
138.126
 11
139
 20
79.316
 21
71
  0
LINE
  8
0
 10
139
 11
138.126
 20
71
 21
62.684
  0
LINE
  8
0
 10
138.126
 11
135.542
 20
62.684
 21
54.731
  0
LINE
  8
0
 10
135.542
 11
131.361
 20
54.731
 21
47.489
  0
LINE
  8
0
 10
131.361
 11
125.765
 20
47.489
 21
41.274
  0
LINE
  8
0
 10
125.765
 11
119
 20
41.274
 21
36.359
  0
LINE
  8
0
 10
119
 11
111.361
 20
36.359
 21
32.958
  0
LINE
  8
0
 10
111.361
 11
103.181
 20
32.958
 21
31.219
  0
LINE
  8
0
 10
103.181
 11
94.819
 20
31.219
 21
31.219
  0
LINE
  8
0
 10
94.819
 11
86.639
 20
31.219
 21
32.958
  0
LINE
  8
0
 10
86.639
 11
79
 20
32.958
 21
36.359
  0
LINE
  8
0
 10
79
 11
77.085
 20
36.359
 21
37.75
  0
LINE
  8
0
 10
77.085
 11
99
 20
37.75
 21
37.75
  0
LINE
  8
0
 10
99
 11
99
 20
37.75
 21
41.75
  0
LINE
  8
0
 10
99
 11
71.806
 20
41.75
 21
41.75
  0
LINE
  8
0
 10
71.806
 11
66.639
 20
41.75
 21
47.489
  0
LINE
  8
0
 10
66.639
 11
65.045
 20
47.489
 21
50.25
  0
LINE
  8
0
 10
65.045
 11
99
 20
50.25
 21
50.25
  0
LINE
  8
0
 10
99
 11
99
 20
50.25
 21
54.25
  0
LINE
  8
0
 10
99
 11
62.736
 20
54.25
 21
54.25
  0
LINE
  8
0
 10
62.736
 11
62.458
 20
54.25
 21
54.731
  0
LINE
  8
0
 10
62.458
 11
59.874
 20
54.731
 21
62.684
  0
LINE
  8
0
 10
59.874
 11
59.867
 20
62.684
 21
62.75
  0
LINE
  8
0
 10
59.867
 11
99
 20
62.75
 21
62.75
  0
LINE
  8
0
 10
99
 11
99
 20
62.75
 21
66.75
  0
LINE
  8
0
 10
99
 11
59.447
 20
66.75
 21
66.75
  0
LINE
  8
0
 10
59.447
 11
59
 20
66.75
 21
71
  0
LINE
  8
0
 10
135
 11
135.656
 20
-20
 21
-13.763
  0
LINE
  8
0
 10
135.656
 11
137.594
 20
-13.763
 21
-7.798
  0
LINE
  8
0
 10
137.594
 11
140.729
 20
-7.798
 21
-2.366
  0
LINE
  8
0
 10
140.729
 11
144.926
 20
-2.366
 21
2.294
  0
LINE
  8
0
 10
144.926
 11
150
 20
2.294
 21
5.981
  0
LINE
  8
0
 10
150
 11
155.729
 20
5.981
 21
8.532
  0
LINE
  8
0
 10
155.729
 11
161.864
 20
8.532
 21
9.836
  0
LINE
  8
0
 10
161.864
 11
168.136
 20
9.836
 21
9.836
  0
LINE
  8
0
 10
168.136
 11
174.271
 20
9.836
 21
8.532
  0
LINE
  8
0
 10
174.271
 11
180
 20
8.532
 21
5.981
  0
LINE
  8
0
 10
180
 11
185.074
 20
5.981
 21
2.294
  0
LINE
  8
0
 10
185.074
 11
186.465
 20
2.294
 21
0.75
  0
LINE
  8
0
 10
186.465
 11
165
 20
0.75
 21
0.75
  0
LINE
  8
0
 10
165
 11
165
 20
0.75
 21
-3.25
  0
LINE
  8
0
 10
165
 11
189.781
 20
-3.25
 21
-3.25
  0
LINE
  8
0
 10
189.781
 11
192.406
 20
-3.25
 21
-7.798
  0
LINE
  8
0
 10
192.406
 11
193.69
 20
-7.798
 21
-11.75
  0
LINE
  8
0
 10
193.69
 11
165
 20
-11.75
 21
-11.75
  0
LINE
  8
0
 10
165
 11
165
 20
-11.75
 21
-15.75
  0
LINE
  8
0
 10
165
 11
194.553
 20
-15.75
 21
-15.75
  0
LINE
  8
0
 10
194.553
 11
195
 20
-15.75
 21
-20
  0
LINE
  8
0
 10
195
 11
194.553
 20
-20
 21
-24.25
  0
LINE
  8
0
 10
194.553
 11
165
 20
-24.25
 21
-24.25
  0
LINE
  8
0
 10
165
 11
165
 20
-24.25
 21
-28.25
  0
LINE
  8
0
 10
165
 11
193.69
 20
-28.25
 21
-28.25
  0
LINE
  8
0
 10
193.69
 11
192.406
 20
-28.25
 21
-32.202
  0
LINE
  8
0
 10
192.406
 11
189.781
 20
-32.202
 21
-36.75
  0
LINE
  8
0
 10
189.781
 11
165
 20
-36.75
 21
-36.75
  0
LINE
  8
0
 10
165
 11
165
 20
-36.75
 21
-40.75
  0
LINE
  8
0
 10
165
 11
186.465
 20
-40.75
 21
-40.75
  0
LINE
  8
0
 10
186.465
 11
185.074
 20
-40.75
 21
-42.294
  0
LINE
  8
0
 10
185.074
 11
180
 20
-42.294
 21
-45.981
  0
LINE
  8
0
 10
180
 11
174.271
 20
-45.981
 21
-48.532
  0
LINE
  8
0
 10
174.271
 11
168.136
 20
-48.532
 21
-49.836
  0
LINE
  8
0
 10
168.136
 11
161.864
 20
-49.836
 21
-49.836
  0
LINE
  8
0
 10
161.864
 11
155.729
 20
-49.836
 21
-48.532
  0
LINE
  8
0
 10
155.729
 11
150
 20
-48.532
 21
-45.981
  0
LINE
  8
0
 10
150
 11
144.926
 20
-45.981
 21
-42.294
  0
LINE
  8
0
 10
144.926
 11
140.729
 20
-42.294
 21
-37.634
  0
LINE
  8
0
 10
140.729
 11
137.594
 20
-37.634
 21
-32.202
  0
LINE
  8
0
 10
137.594
 11
135.656
 20
-32.202
 21
-26.237
  0
LINE
  8
0
 10
135.656
 11
135
 20
-26.237
 21
-20
  0
LINE
  8
0
 10
140
 11
140.447
 20
61
 21
65.25
  0
LINE
  8
0
 10
140.447
 11
190
 20
65.25
 21
65.25
  0
LINE
  8
0
 10
190
 11
190
 20
65.25
 21
69.25
  0
LINE
  8
0
 10
190
 11
140.867
 20
69.25
 21
69.25
  0
LINE
  8
0
 10
140.867
 11
141.093
 20
69.25
 21
71.396
  0
LINE
  8
0
 10
141.093
 11
143.158
 20
71.396
 21
77.75
  0
LINE
  8
0
 10
143.158
 11
190
 20
77.75
 21
77.75
  0
LINE
  8
0
 10
190
 11
190
 20
77.75
 21
81.75
  0
LINE
  8
0
 10
190
 11
144.561
 20
81.75
 21
81.75
  0
LINE
  8
0
 10
144.561
 11
149.469
 20
81.75
 21
90.25
  0
LINE
  8
0
 10
149.469
 11
190
 20
90.25
 21
90.25
  0
LINE
  8
0
 10
190
 11
190
 20
90.25
 21
94.25
  0
LINE
  8
0
 10
190
 11
153.025
 20
94.25
 21
94.25
  0
LINE
  8
0
 10
153.025
 11
156.543
 20
94.25
 21
98.157
  0
LINE
  8
0
 10
156.543
 11
162.865
 20
98.157
 21
102.75
  0
LINE
  8
0
 10
162.865
 11
190
 20
102.75
 21
102.75
  0
LINE
  8
0
 10
190
 11
190
 20
102.75
 21
106.75
  0
LINE
  8
0
 10
190
 11
170.5
 20
106.75
 21
106.75
  0
LINE
  8
0
 10
170.5
 11
174.549
 20
106.75
 21
108.553
  0
LINE
  8
0
 10
174.549
 11
184.774
 20
108.553
 21
110.726
  0
LINE
  8
0
 10
184.774
 11
195.226
 20
110.726
 21
110.726
  0
LINE
  8
0
 10
195.226
 11
205.451
 20
110.726
 21
108.553
  0
LINE
  8
0
 10
205.451
 11
215
 20
108.553
 21
104.301
  0
LINE
  8
0
 10
215
 11
223.457
 20
104.301
 21
98.157
  0
LINE
  8
0
 10
223.457
 11
230.451
 20
98.157
 21
90.389
  0
LINE
  8
0
 10
230.451
 11
235.677
 20
90.389
 21
81.337
  0
LINE
  8
0
 10
235.677
 11
238.907
 20
81.337
 21
71.396
  0
LINE
  8
0
 10
238.907
 11
240
 20
71.396
 21
61
  0
LINE
  8
0
 10
240
 11
238.907
 20
61
 21
50.604
  0
LINE
  8
0
 10
238.907
 11
235.677
 20
50.604
 21
40.663
  0
LINE
  8
0
 10
235.677
 11
230.451
 20
40.663
 21
31.611
  0
LINE
  8
0
 10
230.451
 11
223.457
 20
31.611
 21
23.843
  0
LINE
  8
0
 10
223.457
 11
215
 20
23.843
 21
17.699
  0
LINE
  8
0
 10
215
 11
205.451
 20
17.699
 21
13.447
  0
LINE
  8
0
 10
205.451
 11
195.226
 20
13.447
 21
11.274
  0
LINE
  8
0
 10
195.226
 11
184.774
 20
11.274
 21
11.274
  0
LINE
  8
0
 10
184.774
 11
174.549
 20
11.274
 21
13.447
  0
LINE
  8
0
 10
174.549
 11
170.5
 20
13.447
 21
15.25
  0
LINE
  8
0
 10
170.5
 11
190
 20
15.25
 21
15.25
  0
LINE
  8
0
 10
190
 11
190
 20
15.25
 21
19.25
  0
LINE
  8
0
 10
190
 11
162.865
 20
19.25
 21
19.25
  0
LINE
  8
0
 10
162.865
 11
156.543
 20
19.25
 21
23.843
  0
LINE
  8
0
 10
156.543
 11
153.025
 20
23.843
 21
27.75
  0
LINE
  8
0
 10
153.025
 11
190
 20
27.75
 21
27.75
  0
LINE
  8
0
 10
190
 11
190
 20
27.75
 21
31.75
  0
LINE
  8
0
 10
190
 11
149.469
 20
31.75
 21
31.75
  0
LINE
  8
0
 10
149.469
 11
144.561
 20
31.75
 21
40.25
  0
LINE
  8
0
 10
144.561
 11
190
 20
40.25
 21
40.25
  0
LINE
  8
0
 10
190
 11
190
 20
40.25
 21
44.25
  0
LINE
  8
0
 10
190
 11
143.158
 20
44.25
 21
44.25
  0
LINE
  8
0
 10
143.158
 11
141.093
 20
44.25
 21
50.604
  0
LINE
  8
0
 10
141.093
 11
140.867
 20
50.604
 21
52.75
  0
LINE
  8
0
 10
140.867
 11
190
 20
52.75
 21
52.75
  0
LINE
  8
0
 10
190
 11
190
 20
52.75
 21
56.75
  0
LINE
  8
0
 10
190
 11
140.447
 20
56.75
 21
56.75
  0
LINE
  8
0
 10
140.447
 11
140
 20
56.75
 21
61
  0
LINE
  8
0
 10
195
 11
195.437
 20
-30
 21
-25.842
  0
LINE
  8
0
 10
195.437
 11
196.729
 20
-25.842
 21
-21.865
  0
LINE
  8
0
 10
196.729
 11
198.82
 20
-21.865
 21
-18.244
  0
LINE
  8
0
 10
198.82
 11
201.617
 20
-18.244
 21
-15.137
  0
LINE
  8
0
 10
201.617
 11
205
 20
-15.137
 21
-12.679
  0
LINE
  8
0
 10
205
 11
208.82
 20
-12.679
 21
-10.979
  0
LINE
  8
0
 10
208.82
 11
212.909
 20
-10.979
 21
-10.11
  0
LINE
  8
0
 10
212.909
 11
217.091
 20
-10.11
 21
-10.11
  0
LINE
  8
0
 10
217.091
 11
221.18
 20
-10.11
 21
-10.979
  0
LINE
  8
0
 10
221.18
 11
225
 20
-10.979
 21
-12.679
  0
LINE
  8
0
 10
225
 11
228.383
 20
-12.679
 21
-15.137
  0
LINE
  8
0
 10
228.383
 11
231.18
 20
-15.137
 21
-18.244
  0
LINE
  8
0
 10
231.18
 11
233.205
 20
-18.244
 21
-21.75
  0
LINE
  8
0
 10
233.205
 11
215
 20
-21.75
 21
-21.75
  0
LINE
  8
0
 10
215
 11
215
 20
-21.75
 21
-25.75
  0
LINE
  8
0
 10
215
 11
234.533
 20
-25.75
 21
-25.75
  0
LINE
  8
0
 10
234.533
 11
234.563
 20
-25.75
 21
-25.842
  0
LINE
  8
0
 10
234.563
 11
235
 20
-25.842
 21
-30
  0
LINE
  8
0
 10
235
 11
234.563
 20
-30
 21
-34.158
  0
LINE
  8
0
 10
234.563
 11
234.533
 20
-34.158
 21
-34.25
  0
LINE
  8
0
 10
234.533
 11
215
 20
-34.25
 21
-34.25
  0
LINE
  8
0
 10
215
 11
215
 20
-34.25
 21
-38.25
  0
LINE
  8
0
 10
215
 11
233.205
 20
-38.25
 21
-38.25
  0
LINE
  8
0
 10
233.205
 11
231.18
 20
-38.25
 21
-41.756
  0
LINE
  8
0
 10
231.18
 11
228.383
 20
-41.756
 21
-44.863
  0
LINE
  8
0
 10
228.383
 11
225
 20
-44.863
 21
-47.321
  0
LINE
  8
0
 10
225
 11
221.18
 20
-47.321
 21
-49.021
  0
LINE
  8
0
 10
221.18
 11
217.091
 20
-49.021
 21
-49.89
  0
LINE
  8
0
 10
217.091
 11
212.909
 20
-49.89
 21
-49.89
  0
LINE
  8
0
 10
212.909
 11
208.82
 20
-49.89
 21
-49.021
  0
LINE
  8
0
 10
208.82
 11
205
 20
-49.021
 21
-47.321
  0
LINE
  8
0
 10
205
 11
201.617
 20
-47.321
 21
-44.863
  0
LINE
  8
0
 10
201.617
 11
198.82
 20
-44.863
 21
-41.756
  0
LINE
  8
0
 10
198.82
 11
196.729
 20
-41.756
 21
-38.135
  0
LINE
  8
0
 10
196.729
 11
195.437
 20
-38.135
 21
-34.158
  0
LINE
  8
0
 10
195.437
 11
195
 20
-34.158
 21
-30
  0
ENDSEC
  0
SECTION
  2
OBJECTS
  0
DICTIONARY
  0
ENDSEC
  0
EOF
