  0
SECTION
  2
BLOCKS
  0
ENDSEC
  0
SECTION
  2
ENTITIES
  0
LINE
  8
0
 10
-40
 11
-39.126
 20
0
 21
8.316
  0
LINE
  8
0
 10
-39.126
 11
-36.542
 20
8.316
 21
16.269
  0
LINE
  8
0
 10
-36.542
 11
-32.361
 20
16.269
 21
23.511
  0
LINE
  8
0
 10
-32.361
 11
-26.765
 20
23.511
 21
29.726
  0
LINE
  8
0
 10
-26.765
 11
-20
 20
29.726
 21
34.641
  0
LINE
  8
0
 10
-20
 11
-12.361
 20
34.641
 21
38.042
  0
LINE
  8
0
 10
-12.361
 11
-4.181
 20
38.042
 21
39.781
  0
LINE
  8
0
 10
-4.181
 11
4.181
 20
39.781
 21
39.781
  0
LINE
  8
0
 10
4.181
 11
12.361
 20
39.781
 21
38.042
  0
LINE
  8
0
 10
12.361
 11
20
 20
38.042
 21
34.641
  0
LINE
  8
0
 10
20
 11
21.915
 20
34.641
 21
33.25
  0
LINE
  8
0
 10
21.915
 11
0
 20
33.25
 21
33.25
  0
LINE
  8
0
 10
0
 11
0
 20
33.25
 21
29.25
  0
LINE
  8
0
 10
0
 11
27.194
 20
29.25
 21
29.25
  0
LINE
  8
0
 10
27.194
 11
32.361
 20
29.25
 21
23.511
  0
LINE
  8
0
 10
32.361
 11
33.955
 20
23.511
 21
20.75
  0
LINE
  8
0
 10
33.955
 11
0
 20
20.75
 21
20.75
  0
LINE
  8
0
 10
0
 11
0
 20
20.75
 21
16.75
  0
LINE
  8
0
 10
0
 11
36.264
 20
16.75
 21
16.75
  0
LINE
  8
0
 10
36.264
 11
36.542
 20
16.75
 21
16.269
  0
LINE
  8
0
 10
36.542
 11
39.126
 20
16.269
 21
8.316
  0
LINE
  8
0
 10
39.126
 11
39.133
 20
8.316
 21
8.25
  0
LINE
  8
0
 10
39.133
 11
0
 20
8.25
 21
8.25
  0
LINE
  8
0
 10
0
 11
0
 20
8.25
 21
4.25
  0
LINE
  8
0
 10
0
 11
39.553
 20
4.25
 21
4.25
  0
LINE
  8
0
 10
39.553
 11
40
 20
4.25
 21
0
  0
LINE
  8
0
 10
40
 11
39.553
 20
0
 21
-4.25
  0
LINE
  8
0
 10
39.553
 11
0
 20
-4.25
 21
-4.25
  0
LINE
  8
0
 10
0
 11
0
 20
-4.25
 21
-8.25
  0
LINE
  8
0
 10
0
 11
39.133
 20
-8.25
 21
-8.25
  0
LINE
  8
0
 10
39.133
 11
39.126
 20
-8.25
 21
-8.316
  0
LINE
  8
0
 10
39.126
 11
36.542
 20
-8.316
 21
-16.269
  0
LINE
  8
0
 10
36.542
 11
36.264
 20
-16.269
 21
-16.75
  0
LINE
  8
0
 10
36.264
 11
0
 20
-16.75
 21
-16.75
  0
LINE
  8
0
 10
0
 11
0
 20
-16.75
 21
-20.75
  0
LINE
  8
0
 10
0
 11
33.955
 20
-20.75
 21
-20.75
  0
LINE
  8
0
 10
33.955
 11
32.361
 20
-20.75
 21
-23.511
  0
LINE
  8
0
 10
32.361
 11
27.194
 20
-23.511
 21
-29.25
  0
LINE
  8
0
 10
27.194
 11
0
 20
-29.25
 21
-29.25
  0
LINE
  8
0
 10
0
 11
0
 20
-29.25
 21
-33.25
  0
LINE
  8
0
 10
0
 11
21.915
 20
-33.25
 21
-33.25
  0
LINE
  8
0
 10
21.915
 11
20
 20
-33.25
 21
-34.641
  0
LINE
  8
0
 10
20
 11
12.361
 20
-34.641
 21
-38.042
  0
LINE
  8
0
 10
12.361
 11
4.181
 20
-38.042
 21
-39.781
  0
LINE
  8
0
 10
4.181
 11
-4.181
 20
-39.781
 21
-39.781
  0
LINE
  8
0
 10
-4.181
 11
-12.361
 20
-39.781
 21
-38.042
  0
LINE
  8
0
 10
-12.361
 11
-20
 20
-38.042
 21
-34.641
  0
LINE
  8
0
 10
-20
 11
-26.765
 20
-34.641
 21
-29.726
  0
LINE
  8
0
 10
-26.765
 11
-32.361
 20
-29.726
 21
-23.511
  0
LINE
  8
0
 10
-32.361
 11
-36.542
 20
-23.511
 21
-16.269
  0
LINE
  8
0
 10
-36.542
 11
-39.126
 20
-16.269
 21
-8.316
  0
LINE
  8
0
 10
-39.126
 11
-40
 20
-8.316
 21
0
  0
LINE
  8
0
 10
-40
 11
-39.344
 20
70
 21
76.237
  0
LINE
  8
0
 10
-39.344
 11
-37.406
 20
76.237
 21
82.202
  0
LINE
  8
0
 10
-37.406
 11
-34.271
 20
82.202
 21
87.634
  0
LINE
  8
0
 10
-34.271
 11
-30.074
 20
87.634
 21
92.294
  0
LINE
  8
0
 10
-30.074
 11
-25
 20
92.294
 21
95.981
  0
LINE
  8
0
 10
-25
 11
-19.271
 20
95.981
 21
98.532
  0
LINE
  8
0
 10
-19.271
 11
-13.136
 20
98.532
 21
99.836
  0
LINE
  8
0
 10
-13.136
 11
-6.864
 20
99.836
 21
99.836
  0
LINE
  8
0
 10
-6.864
 11
-0.729
 20
99.836
 21
98.532
  0
LINE
  8
0
 10
-0.729
 11
5
 20
98.532
 21
95.981
  0
LINE
  8
0
 10
5
 11
10.074
 20
95.981
 21
92.294
  0
LINE
  8
0
 10
10.074
 11
11.465
 20
92.294
 21
90.75
  0
LINE
  8
0
 10
11.465
 11
-10
 20
90.75
 21
90.75
  0
LINE
  8
0
 10
-10
 11
-10
 20
90.75
 21
86.75
  0
LINE
  8
0
 10
-10
 11
14.781
 20
86.75
 21
86.75
  0
LINE
  8
0
 10
14.781
 11
17.406
 20
86.75
 21
82.202
  0
LINE
  8
0
 10
17.406
 11
18.69
 20
82.202
 21
78.25
  0
LINE
  8
0
 10
18.69
 11
-10
 20
78.25
 21
78.25
  0
LINE
  8
0
 10
-10
 11
-10
 20
78.25
 21
74.25
  0
LINE
  8
0
 10
-10
 11
19.553
 20
74.25
 21
74.25
  0
LINE
  8
0
 10
19.553
 11
20
 20
74.25
 21
70
  0
LINE
  8
0
 10
20
 11
19.553
 20
70
 21
65.75
  0
LINE
  8
0
 10
19.553
 11
-10
 20
65.75
 21
65.75
  0
LINE
  8
0
 10
-10
 11
-10
 20
65.75
 21
61.75
  0
LINE
  8
0
 10
-10
 11
18.69
 20
61.75
 21
61.75
  0
LINE
  8
0
 10
18.69
 11
17.406
 20
61.75
 21
57.798
  0
LINE
  8
0
 10
17.406
 11
14.781
 20
57.798
 21
53.25
  0
LINE
  8
0
 10
14.781
 11
-10
 20
53.25
 21
53.25
  0
LINE
  8
0
 10
-10
 11
-10
 20
53.25
 21
49.25
  0
LINE
  8
0
 10
-10
 11
11.465
 20
49.25
 21
49.25
  0
LINE
  8
0
 10
11.465
 11
10.074
 20
49.25
 21
47.706
  0
LINE
  8
0
 10
10.074
 11
5
 20
47.706
 21
44.019
  0
LINE
  8
0
 10
5
 11
-0.729
 20
44.019
 21
41.468
  0
LINE
  8
0
 10
-0.729
 11
-6.864
 20
41.468
 21
40.164
  0
LINE
  8
0
 10
-6.864
 11
-13.136
 20
40.164
 21
40.164
  0
LINE
  8
0
 10
-13.136
 11
-19.271
 20
40.164
 21
41.468
  0
LINE
  8
0
 10
-19.271
 11
-25
 20
41.468
 21
44.019
  0
LINE
  8
0
 10
-25
 11
-30.074
 20
44.019
 21
47.706
  0
LINE
  8
0
 10
-30.074
 11
-34.271
 20
47.706
 21
52.366
  0
LINE
  8
0
 10
-34.271
 11
-37.406
 20
52.366
 21
57.798
  0
LINE
  8
0
 10
-37.406
 11
-39.344
 20
57.798
 21
63.763
  0
LINE
  8
0
 10
-39.344
 11
-40
 20
63.763
 21
70
  0
LINE
  8
0
 10
-40
 11
-39.563
 20
120
 21
124.158
  0
LINE
  8
0
 10
-39.563
 11
-38.271
 20
124.158
 21
128.135
  0
LINE
  8
0
 10
-38.271
 11
-36.18
 20
128.135
 21
131.756
  0
LINE
  8
0
 10
-36.18
 11
-33.383
 20
131.756
 21
134.863
  0
LINE
  8
0
 10
-33.383
 11
-30
 20
134.863
 21
137.321
  0
LINE
  8
0
 10
-30
 11
-26.18
 20
137.321
 21
139.021
  0
LINE
  8
0
 10
-26.18
 11
-22.091
 20
139.021
 21
139.89
  0
LINE
  8
0
 10
-22.091
 11
-17.909
 20
139.89
 21
139.89
  0
LINE
  8
0
 10
-17.909
 11
-13.82
 20
139.89
 21
139.021
  0
LINE
  8
0
 10
-13.82
 11
-10
 20
139.021
 21
137.321
  0
LINE
  8
0
 10
-10
 11
-6.617
 20
137.321
 21
134.863
  0
LINE
  8
0
 10
-6.617
 11
-3.82
 20
134.863
 21
131.756
  0
LINE
  8
0
 10
-3.82
 11
-1.795
 20
131.756
 21
128.25
  0
LINE
  8
0
 10
-1.795
 11
-20
 20
128.25
 21
128.25
  0
LINE
  8
0
 10
-20
 11
-20
 20
128.25
 21
124.25
  0
LINE
  8
0
 10
-20
 11
-0.467
 20
124.25
 21
124.25
  0
LINE
  8
0
 10
-0.467
 11
-0.437
 20
124.25
 21
124.158
  0
LINE
  8
0
 10
-0.437
 11
0
 20
124.158
 21
120
  0
LINE
  8
0
 10
0
 11
-0.437
 20
120
 21
115.842
  0
LINE
  8
0
 10
-0.437
 11
-0.467
 20
115.842
 21
115.75
  0
LINE
  8
0
 10
-0.467
 11
-20
 20
115.75
 21
115.75
  0
LINE
  8
0
 10
-20
 11
-20
 20
115.75
 21
111.75
  0
LINE
  8
0
 10
-20
 11
-1.795
 20
111.75
 21
111.75
  0
LINE
  8
0
 10
-1.795
 11
-3.82
 20
111.75
 21
108.244
  0
LINE
  8
0
 10
-3.82
 11
-6.617
 20
108.244
 21
105.137
  0
LINE
  8
0
 10
-6.617
 11
-10
 20
105.137
 21
102.679
  0
LINE
  8
0
 10
-10
 11
-13.82
 20
102.679
 21
100.979
  0
LINE
  8
0
 10
-13.82
 11
-17.909
 20
100.979
 21
100.11
  0
LINE
  8
0
 10
-17.909
 11
-22.091
 20
100.11
 21
100.11
  0
LINE
  8
0
 10
-22.091
 11
-26.18
 20
100.11
 21
100.979
  0
LINE
  8
0
 10
-26.18
 11
-30
 20
100.979
 21
102.679
  0
LINE
  8
0
 10
-30
 11
-33.383
 20
102.679
 21
105.137
  0
LINE
  8
0
 10
-33.383
 11
-36.18
 20
105.137
 21
108.244
  0
LINE
  8
0
 10
-36.18
 11
-38.271
 20
108.244
 21
111.865
  0
LINE
  8
0
 10
-38.271
 11
-39.563
 20
111.865
 21
115.842
  0
LINE
  8
0
 10
-39.563
 11
-40
 20
115.842
 21
120
  0
LINE
  8
0
 10
10
 11
10.447
 20
110
 21
114.25
  0
LINE
  8
0
 10
10.447
 11
50
 20
114.25
 21
114.25
  0
LINE
  8
0
 10
50
 11
50
 20
114.25
 21
118.25
  0
LINE
  8
0
 10
50
 11
10.867
 20
118.25
 21
118.25
  0
LINE
  8
0
 10
10.867
 11
10.874
 20
118.25
 21
118.316
  0
LINE
  8
0
 10
10.874
 11
13.458
 20
118.316
 21
126.269
  0
LINE
  8
0
 10
13.458
 11
13.736
 20
126.269
 21
126.75
  0
LINE
  8
0
 10
13.736
 11
50
 20
126.75
 21
126.75
  0
LINE
  8
0
 10
50
 11
50
 20
126.75
 21
130.75
  0
LINE
  8
0
 10
50
 11
16.045
 20
130.75
 21
130.75
  0
LINE
  8
0
 10
16.045
 11
17.639
 20
130.75
 21
133.511
  0
LINE
  8
0
 10
17.639
 11
22.806
 20
133.511
 21
139.25
  0
LINE
  8
0
 10
22.806
 11
50
 20
139.25
 21
139.25
  0
LINE
  8
0
 10
50
 11
50
 20
139.25
 21
143.25
  0
LINE
  8
0
 10
50
 11
28.085
 20
143.25
 21
143.25
  0
LINE
  8
0
 10
28.085
 11
30
 20
143.25
 21
144.641
  0
LINE
  8
0
 10
30
 11
37.639
 20
144.641
 21
148.042
  0
LINE
  8
0
 10
37.639
 11
45.819
 20
148.042
 21
149.781
  0
LINE
  8
0
 10
45.819
 11
54.181
 20
149.781
 21
149.781
  0
LINE
  8
0
 10
54.181
 11
62.361
 20
149.781
 21
148.042
  0
LINE
  8
0
 10
62.361
 11
70
 20
148.042
 21
144.641
  0
LINE
  8
0
 10
70
 11
76.765
 20
144.641
 21
139.726
  0
LINE
  8
0
 10
76.765
 11
82.361
 20
139.726
 21
133.511
  0
LINE
  8
0
 10
82.361
 11
86.542
 20
133.511
 21
126.269
  0
LINE
  8
0
 10
86.542
 11
89.126
 20
126.269
 21
118.316
  0
LINE
  8
0
 10
89.126
 11
90
 20
118.316
 21
110
  0
LINE
  8
0
 10
90
 11
89.126
 20
110
 21
101.684
  0
LINE
  8
0
 10
89.126
 11
86.542
 20
101.684
 21
93.731
  0
LINE
  8
0
 10
86.542
 11
82.361
 20
93.731
 21
86.489
  0
LINE
  8
0
 10
82.361
 11
76.765
 20
86.489
 21
80.274
  0
LINE
  8
0
 10
76.765
 11
70
 20
80.274
 21
75.359
  0
LINE
  8
0
 10
70
 11
62.361
 20
75.359
 21
71.958
  0
LINE
  8
0
 10
62.361
 11
54.181
 20
71.958
 21
70.219
  0
LINE
  8
0
 10
54.181
 11
45.819
 20
70.219
 21
70.219
  0
LINE
  8
0
 10
45.819
 11
37.639
 20
70.219
 21
71.958
  0
LINE
  8
0
 10
37.639
 11
30
 20
71.958
 21
75.359
  0
LINE
  8
0
 10
30
 11
28.085
 20
75.359
 21
76.75
  0
LINE
  8
0
 10
28.085
 11
50
 20
76.75
 21
76.75
  0
LINE
  8
0
 10
50
 11
50
 20
76.75
 21
80.75
  0
LINE
  8
0
 10
50
 11
22.806
 20
80.75
 21
80.75
  0
LINE
  8
0
 10
22.806
 11
17.639
 20
80.75
 21
86.489
  0
LINE
  8
0
 10
17.639
 11
16.045
 20
86.489
 21
89.25
  0
LINE
  8
0
 10
16.045
 11
50
 20
89.25
 21
89.25
  0
LINE
  8
0
 10
50
 11
50
 20
89.25
 21
93.25
  0
LINE
  8
0
 10
50
 11
13.736
 20
93.25
 21
93.25
  0
LINE
  8
0
 10
13.736
 11
13.458
 20
93.25
 21
93.731
  0
LINE
  8
0
 10
13.458
 11
10.874
 20
93.731
 21
101.684
  0
LINE
  8
0
 10
10.874
 11
10.867
 20
101.684
 21
101.75
  0
LINE
  8
0
 10
10.867
 11
50
 20
101.75
 21
101.75
  0
LINE
  8
0
 10
50
 11
50
 20
101.75
 21
105.75
  0
LINE
  8
0
 10
50
 11
10.447
 20
105.75
 21
105.75
  0
LINE
  8
0
 10
10.447
 11
10
 20
105.75
 21
110
  0
LINE
  8
0
 10
30
 11
30.447
 20
40
 21
44.25
  0
LINE
  8
0
 10
30.447
 11
60
 20
44.25
 21
44.25
  0
LINE
  8
0
 10
60
 11
60
 20
44.25
 21
48.25
  0
LINE
  8
0
 10
60
 11
31.31
 20
48.25
 21
48.25
  0
LINE
  8
0
 10
31.31
 11
32.594
 20
48.25
 21
52.202
  0
LINE
  8
0
 10
32.594
 11
35.219
 20
52.202
 21
56.75
  0
LINE
  8
0
 10
35.219
 11
60
 20
56.75
 21
56.75
  0
LINE
  8
0
 10
60
 11
60
 20
56.75
 21
60.75
  0
LINE
  8
0
 10
60
 11
38.535
 20
60.75
 21
60.75
  0
LINE
  8
0
 10
38.535
 11
39.926
 20
60.75
 21
62.294
  0
LINE
  8
0
 10
39.926
 11
45
 20
62.294
 21
65.981
  0
LINE
  8
0
 10
45
 11
50.729
 20
65.981
 21
68.532
  0
LINE
  8
0
 10
50.729
 11
56.864
 20
68.532
 21
69.836
  0
LINE
  8
0
 10
56.864
 11
63.136
 20
69.836
 21
69.836
  0
LINE
  8
0
 10
63.136
 11
69.271
 20
69.836
 21
68.532
  0
LINE
  8
0
 10
69.271
 11
75
 20
68.532
 21
65.981
  0
LINE
  8
0
 10
75
 11
80.074
 20
65.981
 21
62.294
  0
LINE
  8
0
 10
80.074
 11
84.271
 20
62.294
 21
57.634
  0
LINE
  8
0
 10
84.271
 11
87.406
 20
57.634
 21
52.202
  0
LINE
  8
0
 10
87.406
 11
89.344
 20
52.202
 21
46.237
  0
LINE
  8
0
 10
89.344
 11
90
 20
46.237
 21
40
  0
LINE
  8
0
 10
90
 11
89.344
 20
40
 21
33.763
  0
LINE
  8
0
 10
89.344
 11
87.406
 20
33.763
 21
27.798
  0
LINE
  8
0
 10
87.406
 11
84.271
 20
27.798
 21
22.366
  0
LINE
  8
0
 10
84.271
 11
80.074
 20
22.366
 21
17.706
  0
LINE
  8
0
 10
80.074
 11
75
 20
17.706
 21
14.019
  0
LINE
  8
0
 10
75
 11
69.271
 20
14.019
 21
11.468
  0
LINE
  8
0
 10
69.271
 11
63.136
 20
11.468
 21
10.164
  0
LINE
  8
0
 10
63.136
 11
56.864
 20
10.164
 21
10.164
  0
LINE
  8
0
 10
56.864
 11
50.729
 20
10.164
 21
11.468
  0
LINE
  8
0
 10
50.729
 11
45
 20
11.468
 21
14.019
  0
LINE
  8
0
 10
45
 11
39.926
 20
14.019
 21
17.706
  0
LINE
  8
0
 10
39.926
 11
38.535
 20
17.706
 21
19.25
  0
LINE
  8
0
 10
38.535
 11
60
 20
19.25
 21
19.25
  0
LINE
  8
0
 10
60
 11
60
 20
19.25
 21
23.25
  0
LINE
  8
0
 10
60
 11
35.219
 20
23.25
 21
23.25
  0
LINE
  8
0
 10
35.219
 11
32.594
 20
23.25
 21
27.798
  0
LINE
  8
0
 10
32.594
 11
31.31
 20
27.798
 21
31.75
  0
LINE
  8
0
 10
31.31
 11
60
 20
31.75
 21
31.75
  0
LINE
  8
0
 10
60
 11
60
 20
31.75
 21
35.75
  0
LINE
  8
0
 10
60
 11
30.447
 20
35.75
 21
35.75
  0
LINE
  8
0
 10
30.447
 11
30
 20
35.75
 21
40
  0
LINE
  8
0
 10
50
 11
50.437
 20
-10
 21
-5.842
  0
LINE
  8
0
 10
50.437
 11
50.467
 20
-5.842
 21
-5.75
  0
LINE
  8
0
 10
50.467
 11
70
 20
-5.75
 21
-5.75
  0
LINE
  8
0
 10
70
 11
70
 20
-5.75
 21
-1.75
  0
LINE
  8
0
 10
70
 11
51.795
 20
-1.75
 21
-1.75
  0
LINE
  8
0
 10
51.795
 11
53.82
 20
-1.75
 21
1.756
  0
LINE
  8
0
 10
53.82
 11
56.617
 20
1.756
 21
4.863
  0
LINE
  8
0
 10
56.617
 11
60
 20
4.863
 21
7.321
  0
LINE
  8
0
 10
60
 11
63.82
 20
7.321
 21
9.021
  0
LINE
  8
0
 10
63.82
 11
67.909
 20
9.021
 21
9.89
  0
LINE
  8
0
 10
67.909
 11
72.091
 20
9.89
 21
9.89
  0
LINE
  8
0
 10
72.091
 11
76.18
 20
9.89
 21
9.021
  0
LINE
  8
0
 10
76.18
 11
80
 20
9.021
 21
7.321
  0
LINE
  8
0
 10
80
 11
83.383
 20
7.321
 21
4.863
  0
LINE
  8
0
 10
83.383
 11
86.18
 20
4.863
 21
1.756
  0
LINE
  8
0
 10
86.18
 11
88.271
 20
1.756
 21
-1.865
  0
LINE
  8
0
 10
88.271
 11
89.563
 20
-1.865
 21
-5.842
  0
LINE
  8
0
 10
89.563
 11
90
 20
-5.842
 21
-10
  0
LINE
  8
0
 10
90
 11
89.563
 20
-10
 21
-14.158
  0
LINE
  8
0
 10
89.563
 11
88.271
 20
-14.158
 21
-18.135
  0
LINE
  8
0
 10
88.271
 11
86.18
 20
-18.135
 21
-21.756
  0
LINE
  8
0
 10
86.18
 11
83.383
 20
-21.756
 21
-24.863
  0
LINE
  8
0
 10
83.383
 11
80
 20
-24.863
 21
-27.321
  0
LINE
  8
0
 10
80
 11
76.18
 20
-27.321
 21
-29.021
  0
LINE
  8
0
 10
76.18
 11
72.091
 20
-29.021
 21
-29.89
  0
LINE
  8
0
 10
72.091
 11
67.909
 20
-29.89
 21
-29.89
  0
LINE
  8
0
 10
67.909
 11
63.82
 20
-29.89
 21
-29.021
  0
LINE
  8
0
 10
63.82
 11
60
 20
-29.021
 21
-27.321
  0
LINE
  8
0
 10
60
 11
56.617
 20
-27.321
 21
-24.863
  0
LINE
  8
0
 10
56.617
 11
53.82
 20
-24.863
 21
-21.756
  0
LINE
  8
0
 10
53.82
 11
51.795
 20
-21.756
 21
-18.25
  0
LINE
  8
0
 10
51.795
 11
70
 20
-18.25
 21
-18.25
  0
LINE
  8
0
 10
70
 11
70
 20
-18.25
 21
-14.25
  0
LINE
  8
0
 10
70
 11
50.467
 20
-14.25
 21
-14.25
  0
LINE
  8
0
 10
50.467
 11
50.437
 20
-14.25
 21
-14.158
  0
LINE
  8
0
 10
50.437
 11
50
 20
-14.158
 21
-10
  0
LINE
  8
0
 10
90
 11
90.874
 20
0
 21
8.316
  0
LINE
  8
0
 10
90.874
 11
93.458
 20
8.316
 21
16.269
  0
LINE
  8
0
 10
93.458
 11
97.639
 20
16.269
 21
23.511
  0
LINE
  8
0
 10
97.639
 11
103.235
 20
23.511
 21
29.726
  0
LINE
  8
0
 10
103.235
 11
110
 20
29.726
 21
34.641
  0
LINE
  8
0
 10
110
 11
117.639
 20
34.641
 21
38.042
  0
LINE
  8
0
 10
117.639
 11
125.819
 20
38.042
 21
39.781
  0
LINE
  8
0
 10
125.819
 11
134.181
 20
39.781
 21
39.781
  0
LINE
  8
0
 10
134.181
 11
142.361
 20
39.781
 21
38.042
  0
LINE
  8
0
 10
142.361
 11
150
 20
38.042
 21
34.641
  0
LINE
  8
0
 10
150
 11
151.915
 20
34.641
 21
33.25
  0
LINE
  8
0
 10
151.915
 11
130
 20
33.25
 21
33.25
  0
LINE
  8
0
 10
130
 11
130
 20
33.25
 21
29.25
  0
LINE
  8
0
 10
130
 11
157.194
 20
29.25
 21
29.25
  0
LINE
  8
0
 10
157.194
 11
162.361
 20
29.25
 21
23.511
  0
LINE
  8
0
 10
162.361
 11
163.955
 20
23.511
 21
20.75
  0
LINE
  8
0
 10
163.955
 11
130
 20
20.75
 21
20.75
  0
LINE
  8
0
 10
130
 11
130
 20
20.75
 21
16.75
  0
LINE
  8
0
 10
130
 11
166.264
 20
16.75
 21
16.75
  0
LINE
  8
0
 10
166.264
 11
166.542
 20
16.75
 21
16.269
  0
LINE
  8
0
 10
166.542
 11
169.126
 20
16.269
 21
8.316
  0
LINE
  8
0
 10
169.126
 11
169.133
 20
8.316
 21
8.25
  0
LINE
  8
0
 10
169.133
 11
130
 20
8.25
 21
8.25
  0
LINE
  8
0
 10
130
 11
130
 20
8.25
 21
4.25
  0
LINE
  8
0
 10
130
 11
169.553
 20
4.25
 21
4.25
  0
LINE
  8
0
 10
169.553
 11
170
 20
4.25
 21
0
  0
LINE
  8
0
 10
170
 11
169.553
 20
0
 21
-4.25
  0
LINE
  8
0
 10
169.553
 11
130
 20
-4.25
 21
-4.25
  0
LINE
  8
0
 10
130
 11
130
 20
-4.25
 21
-8.25
  0
LINE
  8
0
 10
130
 11
169.133
 20
-8.25
 21
-8.25
  0
LINE
  8
0
 10
169.133
 11
169.126
 20
-8.25
 21
-8.316
  0
LINE
  8
0
 10
169.126
 11
166.542
 20
-8.316
 21
-16.269
  0
LINE
  8
0
 10
166.542
 11
166.264
 20
-16.269
 21
-16.75
  0
LINE
  8
0
 10
166.264
 11
130
 20
-16.75
 21
-16.75
  0
LINE
  8
0
 10
130
 11
130
 20
-16.75
 21
-20.75
  0
LINE
  8
0
 10
130
 11
163.955
 20
-20.75
 21
-20.75
  0
LINE
  8
0
 10
163.955
 11
162.361
 20
-20.75
 21
-23.511
  0
LINE
  8
0
 10
162.361
 11
157.194
 20
-23.511
 21
-29.25
  0
LINE
  8
0
 10
157.194
 11
130
 20
-29.25
 21
-29.25
  0
LINE
  8
0
 10
130
 11
130
 20
-29.25
 21
-33.25
  0
LINE
  8
0
 10
130
 11
151.915
 20
-33.25
 21
-33.25
  0
LINE
  8
0
 10
151.915
 11
150
 20
-33.25
 21
-34.641
  0
LINE
  8
0
 10
150
 11
142.361
 20
-34.641
 21
-38.042
  0
LINE
  8
0
 10
142.361
 11
134.181
 20
-38.042
 21
-39.781
  0
LINE
  8
0
 10
134.181
 11
125.819
 20
-39.781
 21
-39.781
  0
LINE
  8
0
 10
125.819
 11
117.639
 20
-39.781
 21
-38.042
  0
LINE
  8
0
 10
117.639
 11
110
 20
-38.042
 21
-34.641
  0
LINE
  8
0
 10
110
 11
103.235
 20
-34.641
 21
-29.726
  0
LINE
  8
0
 10
103.235
 11
97.639
 20
-29.726
 21
-23.511
  0
LINE
  8
0
 10
97.639
 11
93.458
 20
-23.511
 21
-16.269
  0
LINE
  8
0
 10
93.458
 11
90.874
 20
-16.269
 21
-8.316
  0
LINE
  8
0
 10
90.874
 11
90
 20
-8.316
 21
0
  0
LINE
  8
0
 10
90
 11
90.656
 20
70
 21
76.237
  0
LINE
  8
0
 10
90.656
 11
92.594
 20
76.237
 21
82.202
  0
LINE
  8
0
 10
92.594
 11
95.729
 20
82.202
 21
87.634
  0
LINE
  8
0
 10
95.729
 11
99.926
 20
87.634
 21
92.294
  0
LINE
  8
0
 10
99.926
 11
105
 20
92.294
 21
95.981
  0
LINE
  8
0
 10
105
 11
110.729
 20
95.981
 21
98.532
  0
LINE
  8
0
 10
110.729
 11
116.864
 20
98.532
 21
99.836
  0
LINE
  8
0
 10
116.864
 11
123.136
 20
99.836
 21
99.836
  0
LINE
  8
0
 10
123.136
 11
129.271
 20
99.836
 21
98.532
  0
LINE
  8
0
 10
129.271
 11
135
 20
98.532
 21
95.981
  0
LINE
  8
0
 10
135
 11
140.074
 20
95.981
 21
92.294
  0
LINE
  8
0
 10
140.074
 11
141.465
 20
92.294
 21
90.75
  0
LINE
  8
0
 10
141.465
 11
120
 20
90.75
 21
90.75
  0
LINE
  8
0
 10
120
 11
120
 20
90.75
 21
86.75
  0
LINE
  8
0
 10
120
 11
144.781
 20
86.75
 21
86.75
  0
LINE
  8
0
 10
144.781
 11
147.406
 20
86.75
 21
82.202
  0
LINE
  8
0
 10
147.406
 11
148.69
 20
82.202
 21
78.25
  0
LINE
  8
0
 10
148.69
 11
120
 20
78.25
 21
78.25
  0
LINE
  8
0
 10
120
 11
120
 20
78.25
 21
74.25
  0
LINE
  8
0
 10
120
 11
149.553
 20
74.25
 21
74.25
  0
LINE
  8
0
 10
149.553
 11
150
 20
74.25
 21
70
  0
LINE
  8
0
 10
150
 11
149.553
 20
70
 21
65.75
  0
LINE
  8
0
 10
149.553
 11
120
 20
65.75
 21
65.75
  0
LINE
  8
0
 10
120
 11
120
 20
65.75
 21
61.75
  0
LINE
  8
0
 10
120
 11
148.69
 20
61.75
 21
61.75
  0
LINE
  8
0
 10
148.69
 11
147.406
 20
61.75
 21
57.798
  0
LINE
  8
0
 10
147.406
 11
144.781
 20
57.798
 21
53.25
  0
LINE
  8
0
 10
144.781
 11
120
 20
53.25
 21
53.25
  0
LINE
  8
0
 10
120
 11
120
 20
53.25
 21
49.25
  0
LINE
  8
0
 10
120
 11
141.465
 20
49.25
 21
49.25
  0
LINE
  8
0
 10
141.465
 11
140.074
 20
49.25
 21
47.706
  0
LINE
  8
0
 10
140.074
 11
135
 20
47.706
 21
44.019
  0
LINE
  8
0
 10
135
 11
129.271
 20
44.019
 21
41.468
  0
LINE
  8
0
 10
129.271
 11
123.136
 20
41.468
 21
40.164
  0
LINE
  8
0
 10
123.136
 11
116.864
 20
40.164
 21
40.164
  0
LINE
  8
0
 10
116.864
 11
110.729
 20
40.164
 21
41.468
  0
LINE
  8
0
 10
110.729
 11
105
 20
41.468
 21
44.019
  0
LINE
  8
0
 10
105
 11
99.926
 20
44.019
 21
47.706
  0
LINE
  8
0
 10
99.926
 11
95.729
 20
47.706
 21
52.366
  0
LINE
  8
0
 10
95.729
 11
92.594
 20
52.366
 21
57.798
  0
LINE
  8
0
 10
92.594
 11
90.656
 20
57.798
 21
63.763
  0
LINE
  8
0
 10
90.656
 11
90
 20
63.763
 21
70
  0
LINE
  8
0
 10
90
 11
90.437
 20
120
 21
124.158
  0
LINE
  8
0
 10
90.437
 11
91.729
 20
124.158
 21
128.135
  0
LINE
  8
0
 10
91.729
 11
93.82
 20
128.135
 21
131.756
  0
LINE
  8
0
 10
93.82
 11
96.617
 20
131.756
 21
134.863
  0
LINE
  8
0
 10
96.617
 11
100
 20
134.863
 21
137.321
  0
LINE
  8
0
 10
100
 11
103.82
 20
137.321
 21
139.021
  0
LINE
  8
0
 10
103.82
 11
107.909
 20
139.021
 21
139.89
  0
LINE
  8
0
 10
107.909
 11
112.091
 20
139.89
 21
139.89
  0
LINE
  8
0
 10
112.091
 11
116.18
 20
139.89
 21
139.021
  0
LINE
  8
0
 10
116.18
 11
120
 20
139.021
 21
137.321
  0
LINE
  8
0
 10
120
 11
123.383
 20
137.321
 21
134.863
  0
LINE
  8
0
 10
123.383
 11
126.18
 20
134.863
 21
131.756
  0
LINE
  8
0
 10
126.18
 11
128.205
 20
131.756
 21
128.25
  0
LINE
  8
0
 10
128.205
 11
110
 20
128.25
 21
128.25
  0
LINE
  8
0
 10
110
 11
110
 20
128.25
 21
124.25
  0
LINE
  8
0
 10
110
 11
129.533
 20
124.25
 21
124.25
  0
LINE
  8
0
 10
129.533
 11
129.563
 20
124.25
 21
124.158
  0
LINE
  8
0
 10
129.563
 11
130
 20
124.158
 21
120
  0
LINE
  8
0
 10
130
 11
129.563
 20
120
 21
115.842
  0
LINE
  8
0
 10
129.563
 11
129.533
 20
115.842
 21
115.75
  0
LINE
  8
0
 10
129.533
 11
110
 20
115.75
 21
115.75
  0
LINE
  8
0
 10
110
 11
110
 20
115.75
 21
111.75
  0
LINE
  8
0
 10
110
 11
128.205
 20
111.75
 21
111.75
  0
LINE
  8
0
 10
128.205
 11
126.18
 20
111.75
 21
108.244
  0
LINE
  8
0
 10
126.18
 11
123.383
 20
108.244
 21
105.137
  0
LINE
  8
0
 10
123.383
 11
120
 20
105.137
 21
102.679
  0
LINE
  8
0
 10
120
 11
116.18
 20
102.679
 21
100.979
  0
LINE
  8
0
 10
116.18
 11
112.091
 20
100.979
 21
100.11
  0
LINE
  8
0
 10
112.091
 11
107.909
 20
100.11
 21
100.11
  0
LINE
  8
0
 10
107.909
 11
103.82
 20
100.11
 21
100.979
  0
LINE
  8
0
 10
103.82
 11
100
 20
100.979
 21
102.679
  0
LINE
  8
0
 10
100
 11
96.617
 20
102.679
 21
105.137
  0
LINE
  8
0
 10
96.617
 11
93.82
 20
105.137
 21
108.244
  0
LINE
  8
0
 10
93.82
 11
91.729
 20
108.244
 21
111.865
  0
LINE
  8
0
 10
91.729
 11
90.437
 20
111.865
 21
115.842
  0
LINE
  8
0
 10
90.437
 11
90
 20
115.842
 21
120
  0
LINE
  8
0
 10
140
 11
140.447
 20
110
 21
114.25
  0
LINE
  8
0
 10
140.447
 11
180
 20
114.25
 21
114.25
  0
LINE
  8
0
 10
180
 11
180
 20
114.25
 21
118.25
  0
LINE
  8
0
 10
180
 11
140.867
 20
118.25
 21
118.25
  0
LINE
  8
0
 10
140.867
 11
140.874
 20
118.25
 21
118.316
  0
LINE
  8
0
 10
140.874
 11
143.458
 20
118.316
 21
126.269
  0
LINE
  8
0
 10
143.458
 11
143.736
 20
126.269
 21
126.75
  0
LINE
  8
0
 10
143.736
 11
180
 20
126.75
 21
126.75
  0
LINE
  8
0
 10
180
 11
180
 20
126.75
 21
130.75
  0
LINE
  8
0
 10
180
 11
146.045
 20
130.75
 21
130.75
  0
LINE
  8
0
 10
146.045
 11
147.639
 20
130.75
 21
133.511
  0
LINE
  8
0
 10
147.639
 11
152.806
 20
133.511
 21
139.25
  0
LINE
  8
0
 10
152.806
 11
180
 20
139.25
 21
139.25
  0
LINE
  8
0
 10
180
 11
180
 20
139.25
 21
143.25
  0
LINE
  8
0
 10
180
 11
158.085
 20
143.25
 21
143.25
  0
LINE
  8
0
 10
158.085
 11
160
 20
143.25
 21
144.641
  0
LINE
  8
0
 10
160
 11
167.639
 20
144.641
 21
148.042
  0
LINE
  8
0
 10
167.639
 11
175.819
 20
148.042
 21
149.781
  0
LINE
  8
0
 10
175.819
 11
184.181
 20
149.781
 21
149.781
  0
LINE
  8
0
 10
184.181
 11
192.361
 20
149.781
 21
148.042
  0
LINE
  8
0
 10
192.361
 11
200
 20
148.042
 21
144.641
  0
LINE
  8
0
 10
200
 11
206.765
 20
144.641
 21
139.726
  0
LINE
  8
0
 10
206.765
 11
212.361
 20
139.726
 21
133.511
  0
LINE
  8
0
 10
212.361
 11
216.542
 20
133.511
 21
126.269
  0
LINE
  8
0
 10
216.542
 11
219.126
 20
126.269
 21
118.316
  0
LINE
  8
0
 10
219.126
 11
220
 20
118.316
 21
110
  0
LINE
  8
0
 10
220
 11
219.126
 20
110
 21
101.684
  0
LINE
  8
0
 10
219.126
 11
216.542
 20
101.684
 21
93.731
  0
LINE
  8
0
 10
216.542
 11
212.361
 20
93.731
 21
86.489
  0
LINE
  8
0
 10
212.361
 11
206.765
 20
86.489
 21
80.274
  0
LINE
  8
0
 10
206.765
 11
200
 20
80.274
 21
75.359
  0
LINE
  8
0
 10
200
 11
192.361
 20
75.359
 21
71.958
  0
LINE
  8
0
 10
192.361
 11
184.181
 20
71.958
 21
70.219
  0
LINE
  8
0
 10
184.181
 11
175.819
 20
70.219
 21
70.219
  0
LINE
  8
0
 10
175.819
 11
167.639
 20
70.219
 21
71.958
  0
LINE
  8
0
 10
167.639
 11
160
 20
71.958
 21
75.359
  0
LINE
  8
0
 10
160
 11
158.085
 20
75.359
 21
76.75
  0
LINE
  8
0
 10
158.085
 11
180
 20
76.75
 21
76.75
  0
LINE
  8
0
 10
180
 11
180
 20
76.75
 21
80.75
  0
LINE
  8
0
 10
180
 11
152.806
 20
80.75
 21
80.75
  0
LINE
  8
0
 10
152.806
 11
147.639
 20
80.75
 21
86.489
  0
LINE
  8
0
 10
147.639
 11
146.045
 20
86.489
 21
89.25
  0
LINE
  8
0
 10
146.045
 11
180
 20
89.25
 21
89.25
  0
LINE
  8
0
 10
180
 11
180
 20
89.25
 21
93.25
  0
LINE
  8
0
 10
180
 11
143.736
 20
93.25
 21
93.25
  0
LINE
  8
0
 10
143.736
 11
143.458
 20
93.25
 21
93.731
  0
LINE
  8
0
 10
143.458
 11
140.874
 20
93.731
 21
101.684
  0
LINE
  8
0
 10
140.874
 11
140.867
 20
101.684
 21
101.75
  0
LINE
  8
0
 10
140.867
 11
180
 20
101.75
 21
101.75
  0
LINE
  8
0
 10
180
 11
180
 20
101.75
 21
105.75
  0
LINE
  8
0
 10
180
 11
140.447
 20
105.75
 21
105.75
  0
LINE
  8
0
 10
140.447
 11
140
 20
105.75
 21
110
  0
LINE
  8
0
 10
160
 11
160.447
 20
40
 21
44.25
  0
LINE
  8
0
 10
160.447
 11
190
 20
44.25
 21
44.25
  0
LINE
  8
0
 10
190
 11
190
 20
44.25
 21
48.25
  0
LINE
  8
0
 10
190
 11
161.31
 20
48.25
 21
48.25
  0
LINE
  8
0
 10
161.31
 11
162.594
 20
48.25
 21
52.202
  0
LINE
  8
0
 10
162.594
 11
165.219
 20
52.202
 21
56.75
  0
LINE
  8
0
 10
165.219
 11
190
 20
56.75
 21
56.75
  0
LINE
  8
0
 10
190
 11
190
 20
56.75
 21
60.75
  0
LINE
  8
0
 10
190
 11
168.535
 20
60.75
 21
60.75
  0
LINE
  8
0
 10
168.535
 11
169.926
 20
60.75
 21
62.294
  0
LINE
  8
0
 10
169.926
 11
175
 20
62.294
 21
65.981
  0
LINE
  8
0
 10
175
 11
180.729
 20
65.981
 21
68.532
  0
LINE
  8
0
 10
180.729
 11
186.864
 20
68.532
 21
69.836
  0
LINE
  8
0
 10
186.864
 11
193.136
 20
69.836
 21
69.836
  0
LINE
  8
0
 10
193.136
 11
199.271
 20
69.836
 21
68.532
  0
LINE
  8
0
 10
199.271
 11
205
 20
68.532
 21
65.981
  0
LINE
  8
0
 10
205
 11
210.074
 20
65.981
 21
62.294
  0
LINE
  8
0
 10
210.074
 11
214.271
 20
62.294
 21
57.634
  0
LINE
  8
0
 10
214.271
 11
217.406
 20
57.634
 21
52.202
  0
LINE
  8
0
 10
217.406
 11
219.344
 20
52.202
 21
46.237
  0
LINE
  8
0
 10
219.344
 11
220
 20
46.237
 21
40
  0
LINE
  8
0
 10
220
 11
219.344
 20
40
 21
33.763
  0
LINE
  8
0
 10
219.344
 11
217.406
 20
33.763
 21
27.798
  0
LINE
  8
0
 10
217.406
 11
214.271
 20
27.798
 21
22.366
  0
LINE
  8
0
 10
214.271
 11
210.074
 20
22.366
 21
17.706
  0
LINE
  8
0
 10
210.074
 11
205
 20
17.706
 21
14.019
  0
LINE
  8
0
 10
205
 11
199.271
 20
14.019
 21
11.468
  0
LINE
  8
0
 10
199.271
 11
193.136
 20
11.468
 21
10.164
  0
LINE
  8
0
 10
193.136
 11
186.864
 20
10.164
 21
10.164
  0
LINE
  8
0
 10
186.864
 11
180.729
 20
10.164
 21
11.468
  0
LINE
  8
0
 10
180.729
 11
175
 20
11.468
 21
14.019
  0
LINE
  8
0
 10
175
 11
169.926
 20
14.019
 21
17.706
  0
LINE
  8
0
 10
169.926
 11
168.535
 20
17.706
 21
19.25
  0
LINE
  8
0
 10
168.535
 11
190
 20
19.25
 21
19.25
  0
LINE
  8
0
 10
190
 11
190
 20
19.25
 21
23.25
  0
LINE
  8
0
 10
190
 11
165.219
 20
23.25
 21
23.25
  0
LINE
  8
0
 10
165.219
 11
162.594
 20
23.25
 21
27.798
  0
LINE
  8
0
 10
162.594
 11
161.31
 20
27.798
 21
31.75
  0
LINE
  8
0
 10
161.31
 11
190
 20
31.75
 21
31.75
  0
LINE
  8
0
 10
190
 11
190
 20
31.75
 21
35.75
  0
LINE
  8
0
 10
190
 11
160.447
 20
35.75
 21
35.75
  0
LINE
  8
0
 10
160.447
 11
160
 20
35.75
 21
40
  0
LINE
  8
0
 10
180
 11
180.437
 20
-10
 21
-5.842
  0
LINE
  8
0
 10
180.437
 11
180.467
 20
-5.842
 21
-5.75
  0
LINE
  8
0
 10
180.467
 11
200
 20
-5.75
 21
-5.75
  0
LINE
  8
0
 10
200
 11
200
 20
-5.75
 21
-1.75
  0
LINE
  8
0
 10
200
 11
181.795
 20
-1.75
 21
-1.75
  0
LINE
  8
0
 10
181.795
 11
183.82
 20
-1.75
 21
1.756
  0
LINE
  8
0
 10
183.82
 11
186.617
 20
1.756
 21
4.863
  0
LINE
  8
0
 10
186.617
 11
190
 20
4.863
 21
7.321
  0
LINE
  8
0
 10
190
 11
193.82
 20
7.321
 21
9.021
  0
LINE
  8
0
 10
193.82
 11
197.909
 20
9.021
 21
9.89
  0
LINE
  8
0
 10
197.909
 11
202.091
 20
9.89
 21
9.89
  0
LINE
  8
0
 10
202.091
 11
206.18
 20
9.89
 21
9.021
  0
LINE
  8
0
 10
206.18
 11
210
 20
9.021
 21
7.321
  0
LINE
  8
0
 10
210
 11
213.383
 20
7.321
 21
4.863
  0
LINE
  8
0
 10
213.383
 11
216.18
 20
4.863
 21
1.756
  0
LINE
  8
0
 10
216.18
 11
218.271
 20
1.756
 21
-1.865
  0
LINE
  8
0
 10
218.271
 11
219.563
 20
-1.865
 21
-5.842
  0
LINE
  8
0
 10
219.563
 11
220
 20
-5.842
 21
-10
  0
LINE
  8
0
 10
220
 11
219.563
 20
-10
 21
-14.158
  0
LINE
  8
0
 10
219.563
 11
218.271
 20
-14.158
 21
-18.135
  0
LINE
  8
0
 10
218.271
 11
216.18
 20
-18.135
 21
-21.756
  0
LINE
  8
0
 10
216.18
 11
213.383
 20
-21.756
 21
-24.863
  0
LINE
  8
0
 10
213.383
 11
210
 20
-24.863
 21
-27.321
  0
LINE
  8
0
 10
210
 11
206.18
 20
-27.321
 21
-29.021
  0
LINE
  8
0
 10
206.18
 11
202.091
 20
-29.021
 21
-29.89
  0
LINE
  8
0
 10
202.091
 11
197.909
 20
-29.89
 21
-29.89
  0
LINE
  8
0
 10
197.909
 11
193.82
 20
-29.89
 21
-29.021
  0
LINE
  8
0
 10
193.82
 11
190
 20
-29.021
 21
-27.321
  0
LINE
  8
0
 10
190
 11
186.617
 20
-27.321
 21
-24.863
  0
LINE
  8
0
 10
186.617
 11
183.82
 20
-24.863
 21
-21.756
  0
LINE
  8
0
 10
183.82
 11
181.795
 20
-21.756
 21
-18.25
  0
LINE
  8
0
 10
181.795
 11
200
 20
-18.25
 21
-18.25
  0
LINE
  8
0
 10
200
 11
200
 20
-18.25
 21
-14.25
  0
LINE
  8
0
 10
200
 11
180.467
 20
-14.25
 21
-14.25
  0
LINE
  8
0
 10
180.467
 11
180.437
 20
-14.25
 21
-14.158
  0
LINE
  8
0
 10
180.437
 11
180
 20
-14.158
 21
-10
  0
ENDSEC
  0
SECTION
  2
OBJECTS
  0
DICTIONARY
  0
ENDSEC
  0
EOF
