  0
SECTION
  2
BLOCKS
  0
ENDSEC
  0
SECTION
  2
ENTITIES
  0
LINE
  8
0
 10
-50
 11
-48.907
 20
-5
 21
5.396
  0
LINE
  8
0
 10
-48.907
 11
-45.677
 20
5.396
 21
15.337
  0
LINE
  8
0
 10
-45.677
 11
-40.451
 20
15.337
 21
24.389
  0
LINE
  8
0
 10
-40.451
 11
-33.457
 20
24.389
 21
32.157
  0
LINE
  8
0
 10
-33.457
 11
-25
 20
32.157
 21
38.301
  0
LINE
  8
0
 10
-25
 11
-15.451
 20
38.301
 21
42.553
  0
LINE
  8
0
 10
-15.451
 11
-5.226
 20
42.553
 21
44.726
  0
LINE
  8
0
 10
-5.226
 11
5.226
 20
44.726
 21
44.726
  0
LINE
  8
0
 10
5.226
 11
15.451
 20
44.726
 21
42.553
  0
LINE
  8
0
 10
15.451
 11
19.5
 20
42.553
 21
40.75
  0
LINE
  8
0
 10
19.5
 11
0
 20
40.75
 21
40.75
  0
LINE
  8
0
 10
0
 11
0
 20
40.75
 21
36.75
  0
LINE
  8
0
 10
0
 11
27.135
 20
36.75
 21
36.75
  0
LINE
  8
0
 10
27.135
 11
33.457
 20
36.75
 21
32.157
  0
LINE
  8
0
 10
33.457
 11
36.975
 20
32.157
 21
28.25
  0
LINE
  8
0
 10
36.975
 11
0
 20
28.25
 21
28.25
  0
LINE
  8
0
 10
0
 11
0
 20
28.25
 21
24.25
  0
LINE
  8
0
 10
0
 11
40.531
 20
24.25
 21
24.25
  0
LINE
  8
0
 10
40.531
 11
45.439
 20
24.25
 21
15.75
  0
LINE
  8
0
 10
45.439
 11
0
 20
15.75
 21
15.75
  0
LINE
  8
0
 10
0
 11
0
 20
15.75
 21
11.75
  0
LINE
  8
0
 10
0
 11
46.842
 20
11.75
 21
11.75
  0
LINE
  8
0
 10
46.842
 11
48.907
 20
11.75
 21
5.396
  0
LINE
  8
0
 10
48.907
 11
49.133
 20
5.396
 21
3.25
  0
LINE
  8
0
 10
49.133
 11
0
 20
3.25
 21
3.25
  0
LINE
  8
0
 10
0
 11
0
 20
3.25
 21
-0.75
  0
LINE
  8
0
 10
0
 11
49.553
 20
-0.75
 21
-0.75
  0
LINE
  8
0
 10
49.553
 11
50
 20
-0.75
 21
-5
  0
LINE
  8
0
 10
50
 11
49.553
 20
-5
 21
-9.25
  0
LINE
  8
0
 10
49.553
 11
0
 20
-9.25
 21
-9.25
  0
LINE
  8
0
 10
0
 11
0
 20
-9.25
 21
-13.25
  0
LINE
  8
0
 10
0
 11
49.133
 20
-13.25
 21
-13.25
  0
LINE
  8
0
 10
49.133
 11
48.907
 20
-13.25
 21
-15.396
  0
LINE
  8
0
 10
48.907
 11
46.842
 20
-15.396
 21
-21.75
  0
LINE
  8
0
 10
46.842
 11
0
 20
-21.75
 21
-21.75
  0
LINE
  8
0
 10
0
 11
0
 20
-21.75
 21
-25.75
  0
LINE
  8
0
 10
0
 11
45.439
 20
-25.75
 21
-25.75
  0
LINE
  8
0
 10
45.439
 11
40.531
 20
-25.75
 21
-34.25
  0
LINE
  8
0
 10
40.531
 11
0
 20
-34.25
 21
-34.25
  0
LINE
  8
0
 10
0
 11
0
 20
-34.25
 21
-38.25
  0
LINE
  8
0
 10
0
 11
36.975
 20
-38.25
 21
-38.25
  0
LINE
  8
0
 10
36.975
 11
33.457
 20
-38.25
 21
-42.157
  0
LINE
  8
0
 10
33.457
 11
27.135
 20
-42.157
 21
-46.75
  0
LINE
  8
0
 10
27.135
 11
0
 20
-46.75
 21
-46.75
  0
LINE
  8
0
 10
0
 11
0
 20
-46.75
 21
-50.75
  0
LINE
  8
0
 10
0
 11
19.5
 20
-50.75
 21
-50.75
  0
LINE
  8
0
 10
19.5
 11
15.451
 20
-50.75
 21
-52.553
  0
LINE
  8
0
 10
15.451
 11
5.226
 20
-52.553
 21
-54.726
  0
LINE
  8
0
 10
5.226
 11
-5.226
 20
-54.726
 21
-54.726
  0
LINE
  8
0
 10
-5.226
 11
-15.451
 20
-54.726
 21
-52.553
  0
LINE
  8
0
 10
-15.451
 11
-25
 20
-52.553
 21
-48.301
  0
LINE
  8
0
 10
-25
 11
-33.457
 20
-48.301
 21
-42.157
  0
LINE
  8
0
 10
-33.457
 11
-40.451
 20
-42.157
 21
-34.389
  0
LINE
  8
0
 10
-40.451
 11
-45.677
 20
-34.389
 21
-25.337
  0
LINE
  8
0
 10
-45.677
 11
-48.907
 20
-25.337
 21
-15.396
  0
LINE
  8
0
 10
-48.907
 11
-50
 20
-15.396
 21
-5
  0
LINE
  8
0
 10
-48
 11
-47.553
 20
94
 21
98.25
  0
LINE
  8
0
 10
-47.553
 11
0
 20
98.25
 21
98.25
  0
LINE
  8
0
 10
0
 11
0
 20
98.25
 21
102.25
  0
LINE
  8
0
 10
0
 11
-47.133
 20
102.25
 21
102.25
  0
LINE
  8
0
 10
-47.133
 11
-46.951
 20
102.25
 21
103.98
  0
LINE
  8
0
 10
-46.951
 11
-44.751
 20
103.98
 21
110.75
  0
LINE
  8
0
 10
-44.751
 11
0
 20
110.75
 21
110.75
  0
LINE
  8
0
 10
0
 11
0
 20
110.75
 21
114.75
  0
LINE
  8
0
 10
0
 11
-43.142
 20
114.75
 21
114.75
  0
LINE
  8
0
 10
-43.142
 11
-38.833
 20
114.75
 21
122.214
  0
LINE
  8
0
 10
-38.833
 11
-37.9
 20
122.214
 21
123.25
  0
LINE
  8
0
 10
-37.9
 11
0
 20
123.25
 21
123.25
  0
LINE
  8
0
 10
0
 11
0
 20
123.25
 21
127.25
  0
LINE
  8
0
 10
0
 11
-34.298
 20
127.25
 21
127.25
  0
LINE
  8
0
 10
-34.298
 11
-32.118
 20
127.25
 21
129.671
  0
LINE
  8
0
 10
-32.118
 11
-24
 20
129.671
 21
135.569
  0
LINE
  8
0
 10
-24
 11
-23.594
 20
135.569
 21
135.75
  0
LINE
  8
0
 10
-23.594
 11
0
 20
135.75
 21
135.75
  0
LINE
  8
0
 10
0
 11
0
 20
135.75
 21
139.75
  0
LINE
  8
0
 10
0
 11
-14.367
 20
139.75
 21
139.75
  0
LINE
  8
0
 10
-14.367
 11
-5.017
 20
139.75
 21
141.737
  0
LINE
  8
0
 10
-5.017
 11
5.017
 20
141.737
 21
141.737
  0
LINE
  8
0
 10
5.017
 11
14.833
 20
141.737
 21
139.651
  0
LINE
  8
0
 10
14.833
 11
24
 20
139.651
 21
135.569
  0
LINE
  8
0
 10
24
 11
32.118
 20
135.569
 21
129.671
  0
LINE
  8
0
 10
32.118
 11
38.833
 20
129.671
 21
122.214
  0
LINE
  8
0
 10
38.833
 11
43.85
 20
122.214
 21
113.523
  0
LINE
  8
0
 10
43.85
 11
46.951
 20
113.523
 21
103.98
  0
LINE
  8
0
 10
46.951
 11
48
 20
103.98
 21
94
  0
LINE
  8
0
 10
48
 11
46.951
 20
94
 21
84.02
  0
LINE
  8
0
 10
46.951
 11
43.85
 20
84.02
 21
74.477
  0
LINE
  8
0
 10
43.85
 11
38.833
 20
74.477
 21
65.786
  0
LINE
  8
0
 10
38.833
 11
32.118
 20
65.786
 21
58.329
  0
LINE
  8
0
 10
32.118
 11
24
 20
58.329
 21
52.431
  0
LINE
  8
0
 10
24
 11
14.833
 20
52.431
 21
48.349
  0
LINE
  8
0
 10
14.833
 11
5.017
 20
48.349
 21
46.263
  0
LINE
  8
0
 10
5.017
 11
-5.017
 20
46.263
 21
46.263
  0
LINE
  8
0
 10
-5.017
 11
-14.367
 20
46.263
 21
48.25
  0
LINE
  8
0
 10
-14.367
 11
0
 20
48.25
 21
48.25
  0
LINE
  8
0
 10
0
 11
0
 20
48.25
 21
52.25
  0
LINE
  8
0
 10
0
 11
-23.594
 20
52.25
 21
52.25
  0
LINE
  8
0
 10
-23.594
 11
-24
 20
52.25
 21
52.431
  0
LINE
  8
0
 10
-24
 11
-32.118
 20
52.431
 21
58.329
  0
LINE
  8
0
 10
-32.118
 11
-34.298
 20
58.329
 21
60.75
  0
LINE
  8
0
 10
-34.298
 11
0
 20
60.75
 21
60.75
  0
LINE
  8
0
 10
0
 11
0
 20
60.75
 21
64.75
  0
LINE
  8
0
 10
0
 11
-37.9
 20
64.75
 21
64.75
  0
LINE
  8
0
 10
-37.9
 11
-38.833
 20
64.75
 21
65.786
  0
LINE
  8
0
 10
-38.833
 11
-43.142
 20
65.786
 21
73.25
  0
LINE
  8
0
 10
-43.142
 11
0
 20
73.25
 21
73.25
  0
LINE
  8
0
 10
0
 11
0
 20
73.25
 21
77.25
  0
LINE
  8
0
 10
0
 11
-44.751
 20
77.25
 21
77.25
  0
LINE
  8
0
 10
-44.751
 11
-46.951
 20
77.25
 21
84.02
  0
LINE
  8
0
 10
-46.951
 11
-47.133
 20
84.02
 21
85.75
  0
LINE
  8
0
 10
-47.133
 11
0
 20
85.75
 21
85.75
  0
LINE
  8
0
 10
0
 11
0
 20
85.75
 21
89.75
  0
LINE
  8
0
 10
0
 11
-47.553
 20
89.75
 21
89.75
  0
LINE
  8
0
 10
-47.553
 11
-48
 20
89.75
 21
94
  0
LINE
  8
0
 10
34
 11
34.446
 20
43
 21
47.25
  0
LINE
  8
0
 10
34.446
 11
58
 20
47.25
 21
47.25
  0
LINE
  8
0
 10
58
 11
58
 20
47.25
 21
51.25
  0
LINE
  8
0
 10
58
 11
35.584
 20
51.25
 21
51.25
  0
LINE
  8
0
 10
35.584
 11
36.075
 20
51.25
 21
52.762
  0
LINE
  8
0
 10
36.075
 11
38.584
 20
52.762
 21
57.107
  0
LINE
  8
0
 10
38.584
 11
40.964
 20
57.107
 21
59.75
  0
LINE
  8
0
 10
40.964
 11
58
 20
59.75
 21
59.75
  0
LINE
  8
0
 10
58
 11
58
 20
59.75
 21
63.75
  0
LINE
  8
0
 10
58
 11
45.952
 20
63.75
 21
63.75
  0
LINE
  8
0
 10
45.952
 11
46
 20
63.75
 21
63.785
  0
LINE
  8
0
 10
46
 11
50.584
 20
63.785
 21
65.825
  0
LINE
  8
0
 10
50.584
 11
55.491
 20
65.825
 21
66.869
  0
LINE
  8
0
 10
55.491
 11
60.509
 20
66.869
 21
66.869
  0
LINE
  8
0
 10
60.509
 11
65.416
 20
66.869
 21
65.825
  0
LINE
  8
0
 10
65.416
 11
70
 20
65.825
 21
63.785
  0
LINE
  8
0
 10
70
 11
74.059
 20
63.785
 21
60.835
  0
LINE
  8
0
 10
74.059
 11
77.416
 20
60.835
 21
57.107
  0
LINE
  8
0
 10
77.416
 11
79.925
 20
57.107
 21
52.762
  0
LINE
  8
0
 10
79.925
 11
81.476
 20
52.762
 21
47.99
  0
LINE
  8
0
 10
81.476
 11
82
 20
47.99
 21
43
  0
LINE
  8
0
 10
82
 11
81.476
 20
43
 21
38.01
  0
LINE
  8
0
 10
81.476
 11
79.925
 20
38.01
 21
33.238
  0
LINE
  8
0
 10
79.925
 11
77.416
 20
33.238
 21
28.893
  0
LINE
  8
0
 10
77.416
 11
74.059
 20
28.893
 21
25.165
  0
LINE
  8
0
 10
74.059
 11
70
 20
25.165
 21
22.215
  0
LINE
  8
0
 10
70
 11
65.416
 20
22.215
 21
20.175
  0
LINE
  8
0
 10
65.416
 11
60.509
 20
20.175
 21
19.131
  0
LINE
  8
0
 10
60.509
 11
55.491
 20
19.131
 21
19.131
  0
LINE
  8
0
 10
55.491
 11
50.584
 20
19.131
 21
20.175
  0
LINE
  8
0
 10
50.584
 11
46
 20
20.175
 21
22.215
  0
LINE
  8
0
 10
46
 11
45.952
 20
22.215
 21
22.25
  0
LINE
  8
0
 10
45.952
 11
58
 20
22.25
 21
22.25
  0
LINE
  8
0
 10
58
 11
58
 20
22.25
 21
26.25
  0
LINE
  8
0
 10
58
 11
40.964
 20
26.25
 21
26.25
  0
LINE
  8
0
 10
40.964
 11
38.584
 20
26.25
 21
28.893
  0
LINE
  8
0
 10
38.584
 11
36.075
 20
28.893
 21
33.238
  0
LINE
  8
0
 10
36.075
 11
35.584
 20
33.238
 21
34.75
  0
LINE
  8
0
 10
35.584
 11
58
 20
34.75
 21
34.75
  0
LINE
  8
0
 10
58
 11
58
 20
34.75
 21
38.75
  0
LINE
  8
0
 10
58
 11
34.446
 20
38.75
 21
38.75
  0
LINE
  8
0
 10
34.446
 11
34
 20
38.75
 21
43
  0
LINE
  8
0
 10
50
 11
50.874
 20
-13
 21
-4.684
  0
LINE
  8
0
 10
50.874
 11
53.458
 20
-4.684
 21
3.269
  0
LINE
  8
0
 10
53.458
 11
57.639
 20
3.269
 21
10.511
  0
LINE
  8
0
 10
57.639
 11
63.235
 20
10.511
 21
16.726
  0
LINE
  8
0
 10
63.235
 11
70
 20
16.726
 21
21.641
  0
LINE
  8
0
 10
70
 11
77.639
 20
21.641
 21
25.042
  0
LINE
  8
0
 10
77.639
 11
85.819
 20
25.042
 21
26.781
  0
LINE
  8
0
 10
85.819
 11
94.181
 20
26.781
 21
26.781
  0
LINE
  8
0
 10
94.181
 11
102.361
 20
26.781
 21
25.042
  0
LINE
  8
0
 10
102.361
 11
110
 20
25.042
 21
21.641
  0
LINE
  8
0
 10
110
 11
111.915
 20
21.641
 21
20.25
  0
LINE
  8
0
 10
111.915
 11
90
 20
20.25
 21
20.25
  0
LINE
  8
0
 10
90
 11
90
 20
20.25
 21
16.25
  0
LINE
  8
0
 10
90
 11
117.194
 20
16.25
 21
16.25
  0
LINE
  8
0
 10
117.194
 11
122.361
 20
16.25
 21
10.511
  0
LINE
  8
0
 10
122.361
 11
123.955
 20
10.511
 21
7.75
  0
LINE
  8
0
 10
123.955
 11
90
 20
7.75
 21
7.75
  0
LINE
  8
0
 10
90
 11
90
 20
7.75
 21
3.75
  0
LINE
  8
0
 10
90
 11
126.264
 20
3.75
 21
3.75
  0
LINE
  8
0
 10
126.264
 11
126.542
 20
3.75
 21
3.269
  0
LINE
  8
0
 10
126.542
 11
129.126
 20
3.269
 21
-4.684
  0
LINE
  8
0
 10
129.126
 11
129.133
 20
-4.684
 21
-4.75
  0
LINE
  8
0
 10
129.133
 11
90
 20
-4.75
 21
-4.75
  0
LINE
  8
0
 10
90
 11
90
 20
-4.75
 21
-8.75
  0
LINE
  8
0
 10
90
 11
129.553
 20
-8.75
 21
-8.75
  0
LINE
  8
0
 10
129.553
 11
130
 20
-8.75
 21
-13
  0
LINE
  8
0
 10
130
 11
129.553
 20
-13
 21
-17.25
  0
LINE
  8
0
 10
129.553
 11
90
 20
-17.25
 21
-17.25
  0
LINE
  8
0
 10
90
 11
90
 20
-17.25
 21
-21.25
  0
LINE
  8
0
 10
90
 11
129.133
 20
-21.25
 21
-21.25
  0
LINE
  8
0
 10
129.133
 11
129.126
 20
-21.25
 21
-21.316
  0
LINE
  8
0
 10
129.126
 11
126.542
 20
-21.316
 21
-29.269
  0
LINE
  8
0
 10
126.542
 11
126.264
 20
-29.269
 21
-29.75
  0
LINE
  8
0
 10
126.264
 11
90
 20
-29.75
 21
-29.75
  0
LINE
  8
0
 10
90
 11
90
 20
-29.75
 21
-33.75
  0
LINE
  8
0
 10
90
 11
123.955
 20
-33.75
 21
-33.75
  0
LINE
  8
0
 10
123.955
 11
122.361
 20
-33.75
 21
-36.511
  0
LINE
  8
0
 10
122.361
 11
117.194
 20
-36.511
 21
-42.25
  0
LINE
  8
0
 10
117.194
 11
90
 20
-42.25
 21
-42.25
  0
LINE
  8
0
 10
90
 11
90
 20
-42.25
 21
-46.25
  0
LINE
  8
0
 10
90
 11
111.915
 20
-46.25
 21
-46.25
  0
LINE
  8
0
 10
111.915
 11
110
 20
-46.25
 21
-47.641
  0
LINE
  8
0
 10
110
 11
102.361
 20
-47.641
 21
-51.042
  0
LINE
  8
0
 10
102.361
 11
94.181
 20
-51.042
 21
-52.781
  0
LINE
  8
0
 10
94.181
 11
85.819
 20
-52.781
 21
-52.781
  0
LINE
  8
0
 10
85.819
 11
77.639
 20
-52.781
 21
-51.042
  0
LINE
  8
0
 10
77.639
 11
70
 20
-51.042
 21
-47.641
  0
LINE
  8
0
 10
70
 11
63.235
 20
-47.641
 21
-42.726
  0
LINE
  8
0
 10
63.235
 11
57.639
 20
-42.726
 21
-36.511
  0
LINE
  8
0
 10
57.639
 11
53.458
 20
-36.511
 21
-29.269
  0
LINE
  8
0
 10
53.458
 11
50.874
 20
-29.269
 21
-21.316
  0
LINE
  8
0
 10
50.874
 11
50
 20
-21.316
 21
-13
  0
LINE
  8
0
 10
50
 11
50.447
 20
100
 21
104.25
  0
LINE
  8
0
 10
50.447
 11
90
 20
104.25
 21
104.25
  0
LINE
  8
0
 10
90
 11
90
 20
104.25
 21
108.25
  0
LINE
  8
0
 10
90
 11
50.867
 20
108.25
 21
108.25
  0
LINE
  8
0
 10
50.867
 11
50.874
 20
108.25
 21
108.316
  0
LINE
  8
0
 10
50.874
 11
53.458
 20
108.316
 21
116.269
  0
LINE
  8
0
 10
53.458
 11
53.736
 20
116.269
 21
116.75
  0
LINE
  8
0
 10
53.736
 11
90
 20
116.75
 21
116.75
  0
LINE
  8
0
 10
90
 11
90
 20
116.75
 21
120.75
  0
LINE
  8
0
 10
90
 11
56.045
 20
120.75
 21
120.75
  0
LINE
  8
0
 10
56.045
 11
57.639
 20
120.75
 21
123.511
  0
LINE
  8
0
 10
57.639
 11
62.806
 20
123.511
 21
129.25
  0
LINE
  8
0
 10
62.806
 11
90
 20
129.25
 21
129.25
  0
LINE
  8
0
 10
90
 11
90
 20
129.25
 21
133.25
  0
LINE
  8
0
 10
90
 11
68.085
 20
133.25
 21
133.25
  0
LINE
  8
0
 10
68.085
 11
70
 20
133.25
 21
134.641
  0
LINE
  8
0
 10
70
 11
77.639
 20
134.641
 21
138.042
  0
LINE
  8
0
 10
77.639
 11
85.819
 20
138.042
 21
139.781
  0
LINE
  8
0
 10
85.819
 11
94.181
 20
139.781
 21
139.781
  0
LINE
  8
0
 10
94.181
 11
102.361
 20
139.781
 21
138.042
  0
LINE
  8
0
 10
102.361
 11
110
 20
138.042
 21
134.641
  0
LINE
  8
0
 10
110
 11
116.765
 20
134.641
 21
129.726
  0
LINE
  8
0
 10
116.765
 11
122.361
 20
129.726
 21
123.511
  0
LINE
  8
0
 10
122.361
 11
126.542
 20
123.511
 21
116.269
  0
LINE
  8
0
 10
126.542
 11
129.126
 20
116.269
 21
108.316
  0
LINE
  8
0
 10
129.126
 11
130
 20
108.316
 21
100
  0
LINE
  8
0
 10
130
 11
129.126
 20
100
 21
91.684
  0
LINE
  8
0
 10
129.126
 11
126.542
 20
91.684
 21
83.731
  0
LINE
  8
0
 10
126.542
 11
122.361
 20
83.731
 21
76.489
  0
LINE
  8
0
 10
122.361
 11
116.765
 20
76.489
 21
70.274
  0
LINE
  8
0
 10
116.765
 11
110
 20
70.274
 21
65.359
  0
LINE
  8
0
 10
110
 11
102.361
 20
65.359
 21
61.958
  0
LINE
  8
0
 10
102.361
 11
94.181
 20
61.958
 21
60.219
  0
LINE
  8
0
 10
94.181
 11
85.819
 20
60.219
 21
60.219
  0
LINE
  8
0
 10
85.819
 11
77.639
 20
60.219
 21
61.958
  0
LINE
  8
0
 10
77.639
 11
70
 20
61.958
 21
65.359
  0
LINE
  8
0
 10
70
 11
68.085
 20
65.359
 21
66.75
  0
LINE
  8
0
 10
68.085
 11
90
 20
66.75
 21
66.75
  0
LINE
  8
0
 10
90
 11
90
 20
66.75
 21
70.75
  0
LINE
  8
0
 10
90
 11
62.806
 20
70.75
 21
70.75
  0
LINE
  8
0
 10
62.806
 11
57.639
 20
70.75
 21
76.489
  0
LINE
  8
0
 10
57.639
 11
56.045
 20
76.489
 21
79.25
  0
LINE
  8
0
 10
56.045
 11
90
 20
79.25
 21
79.25
  0
LINE
  8
0
 10
90
 11
90
 20
79.25
 21
83.25
  0
LINE
  8
0
 10
90
 11
53.736
 20
83.25
 21
83.25
  0
LINE
  8
0
 10
53.736
 11
53.458
 20
83.25
 21
83.731
  0
LINE
  8
0
 10
53.458
 11
50.874
 20
83.731
 21
91.684
  0
LINE
  8
0
 10
50.874
 11
50.867
 20
91.684
 21
91.75
  0
LINE
  8
0
 10
50.867
 11
90
 20
91.75
 21
91.75
  0
LINE
  8
0
 10
90
 11
90
 20
91.75
 21
95.75
  0
LINE
  8
0
 10
90
 11
50.447
 20
95.75
 21
95.75
  0
LINE
  8
0
 10
50.447
 11
50
 20
95.75
 21
100
  0
LINE
  8
0
 10
98
 11
98.524
 20
44
 21
48.99
  0
LINE
  8
0
 10
98.524
 11
100.075
 20
48.99
 21
53.762
  0
LINE
  8
0
 10
100.075
 11
102.584
 20
53.762
 21
58.107
  0
LINE
  8
0
 10
102.584
 11
105.941
 20
58.107
 21
61.835
  0
LINE
  8
0
 10
105.941
 11
110
 20
61.835
 21
64.785
  0
LINE
  8
0
 10
110
 11
114.584
 20
64.785
 21
66.825
  0
LINE
  8
0
 10
114.584
 11
119.491
 20
66.825
 21
67.869
  0
LINE
  8
0
 10
119.491
 11
124.509
 20
67.869
 21
67.869
  0
LINE
  8
0
 10
124.509
 11
129.416
 20
67.869
 21
66.825
  0
LINE
  8
0
 10
129.416
 11
134
 20
66.825
 21
64.785
  0
LINE
  8
0
 10
134
 11
134.048
 20
64.785
 21
64.75
  0
LINE
  8
0
 10
134.048
 11
122
 20
64.75
 21
64.75
  0
LINE
  8
0
 10
122
 11
122
 20
64.75
 21
60.75
  0
LINE
  8
0
 10
122
 11
139.036
 20
60.75
 21
60.75
  0
LINE
  8
0
 10
139.036
 11
141.416
 20
60.75
 21
58.107
  0
LINE
  8
0
 10
141.416
 11
143.925
 20
58.107
 21
53.762
  0
LINE
  8
0
 10
143.925
 11
144.416
 20
53.762
 21
52.25
  0
LINE
  8
0
 10
144.416
 11
122
 20
52.25
 21
52.25
  0
LINE
  8
0
 10
122
 11
122
 20
52.25
 21
48.25
  0
LINE
  8
0
 10
122
 11
145.554
 20
48.25
 21
48.25
  0
LINE
  8
0
 10
145.554
 11
146
 20
48.25
 21
44
  0
LINE
  8
0
 10
146
 11
145.554
 20
44
 21
39.75
  0
LINE
  8
0
 10
145.554
 11
122
 20
39.75
 21
39.75
  0
LINE
  8
0
 10
122
 11
122
 20
39.75
 21
35.75
  0
LINE
  8
0
 10
122
 11
144.416
 20
35.75
 21
35.75
  0
LINE
  8
0
 10
144.416
 11
143.925
 20
35.75
 21
34.238
  0
LINE
  8
0
 10
143.925
 11
141.416
 20
34.238
 21
29.893
  0
LINE
  8
0
 10
141.416
 11
139.036
 20
29.893
 21
27.25
  0
LINE
  8
0
 10
139.036
 11
122
 20
27.25
 21
27.25
  0
LINE
  8
0
 10
122
 11
122
 20
27.25
 21
23.25
  0
LINE
  8
0
 10
122
 11
134.048
 20
23.25
 21
23.25
  0
LINE
  8
0
 10
134.048
 11
134
 20
23.25
 21
23.215
  0
LINE
  8
0
 10
134
 11
129.416
 20
23.215
 21
21.175
  0
LINE
  8
0
 10
129.416
 11
124.509
 20
21.175
 21
20.131
  0
LINE
  8
0
 10
124.509
 11
119.491
 20
20.131
 21
20.131
  0
LINE
  8
0
 10
119.491
 11
114.584
 20
20.131
 21
21.175
  0
LINE
  8
0
 10
114.584
 11
110
 20
21.175
 21
23.215
  0
LINE
  8
0
 10
110
 11
105.941
 20
23.215
 21
26.165
  0
LINE
  8
0
 10
105.941
 11
102.584
 20
26.165
 21
29.893
  0
LINE
  8
0
 10
102.584
 11
100.075
 20
29.893
 21
34.238
  0
LINE
  8
0
 10
100.075
 11
98.524
 20
34.238
 21
39.01
  0
LINE
  8
0
 10
98.524
 11
98
 20
39.01
 21
44
  0
LINE
  8
0
 10
130
 11
130.447
 20
92
 21
96.25
  0
LINE
  8
0
 10
130.447
 11
180
 20
96.25
 21
96.25
  0
LINE
  8
0
 10
180
 11
180
 20
96.25
 21
100.25
  0
LINE
  8
0
 10
180
 11
130.867
 20
100.25
 21
100.25
  0
LINE
  8
0
 10
130.867
 11
131.093
 20
100.25
 21
102.396
  0
LINE
  8
0
 10
131.093
 11
133.158
 20
102.396
 21
108.75
  0
LINE
  8
0
 10
133.158
 11
180
 20
108.75
 21
108.75
  0
LINE
  8
0
 10
180
 11
180
 20
108.75
 21
112.75
  0
LINE
  8
0
 10
180
 11
134.561
 20
112.75
 21
112.75
  0
LINE
  8
0
 10
134.561
 11
139.469
 20
112.75
 21
121.25
  0
LINE
  8
0
 10
139.469
 11
180
 20
121.25
 21
121.25
  0
LINE
  8
0
 10
180
 11
180
 20
121.25
 21
125.25
  0
LINE
  8
0
 10
180
 11
143.025
 20
125.25
 21
125.25
  0
LINE
  8
0
 10
143.025
 11
146.543
 20
125.25
 21
129.157
  0
LINE
  8
0
 10
146.543
 11
152.865
 20
129.157
 21
133.75
  0
LINE
  8
0
 10
152.865
 11
180
 20
133.75
 21
133.75
  0
LINE
  8
0
 10
180
 11
180
 20
133.75
 21
137.75
  0
LINE
  8
0
 10
180
 11
160.5
 20
137.75
 21
137.75
  0
LINE
  8
0
 10
160.5
 11
164.549
 20
137.75
 21
139.553
  0
LINE
  8
0
 10
164.549
 11
174.774
 20
139.553
 21
141.726
  0
LINE
  8
0
 10
174.774
 11
185.226
 20
141.726
 21
141.726
  0
LINE
  8
0
 10
185.226
 11
195.451
 20
141.726
 21
139.553
  0
LINE
  8
0
 10
195.451
 11
205
 20
139.553
 21
135.301
  0
LINE
  8
0
 10
205
 11
213.457
 20
135.301
 21
129.157
  0
LINE
  8
0
 10
213.457
 11
220.451
 20
129.157
 21
121.389
  0
LINE
  8
0
 10
220.451
 11
225.677
 20
121.389
 21
112.337
  0
LINE
  8
0
 10
225.677
 11
228.907
 20
112.337
 21
102.396
  0
LINE
  8
0
 10
228.907
 11
230
 20
102.396
 21
92
  0
LINE
  8
0
 10
230
 11
228.907
 20
92
 21
81.604
  0
LINE
  8
0
 10
228.907
 11
225.677
 20
81.604
 21
71.663
  0
LINE
  8
0
 10
225.677
 11
220.451
 20
71.663
 21
62.611
  0
LINE
  8
0
 10
220.451
 11
213.457
 20
62.611
 21
54.843
  0
LINE
  8
0
 10
213.457
 11
205
 20
54.843
 21
48.699
  0
LINE
  8
0
 10
205
 11
195.451
 20
48.699
 21
44.447
  0
LINE
  8
0
 10
195.451
 11
185.226
 20
44.447
 21
42.274
  0
LINE
  8
0
 10
185.226
 11
174.774
 20
42.274
 21
42.274
  0
LINE
  8
0
 10
174.774
 11
164.549
 20
42.274
 21
44.447
  0
LINE
  8
0
 10
164.549
 11
160.5
 20
44.447
 21
46.25
  0
LINE
  8
0
 10
160.5
 11
180
 20
46.25
 21
46.25
  0
LINE
  8
0
 10
180
 11
180
 20
46.25
 21
50.25
  0
LINE
  8
0
 10
180
 11
152.865
 20
50.25
 21
50.25
  0
LINE
  8
0
 10
152.865
 11
146.543
 20
50.25
 21
54.843
  0
LINE
  8
0
 10
146.543
 11
143.025
 20
54.843
 21
58.75
  0
LINE
  8
0
 10
143.025
 11
180
 20
58.75
 21
58.75
  0
LINE
  8
0
 10
180
 11
180
 20
58.75
 21
62.75
  0
LINE
  8
0
 10
180
 11
139.469
 20
62.75
 21
62.75
  0
LINE
  8
0
 10
139.469
 11
134.561
 20
62.75
 21
71.25
  0
LINE
  8
0
 10
134.561
 11
180
 20
71.25
 21
71.25
  0
LINE
  8
0
 10
180
 11
180
 20
71.25
 21
75.25
  0
LINE
  8
0
 10
180
 11
133.158
 20
75.25
 21
75.25
  0
LINE
  8
0
 10
133.158
 11
131.093
 20
75.25
 21
81.604
  0
LINE
  8
0
 10
131.093
 11
130.867
 20
81.604
 21
83.75
  0
LINE
  8
0
 10
130.867
 11
180
 20
83.75
 21
83.75
  0
LINE
  8
0
 10
180
 11
180
 20
83.75
 21
87.75
  0
LINE
  8
0
 10
180
 11
130.447
 20
87.75
 21
87.75
  0
LINE
  8
0
 10
130.447
 11
130
 20
87.75
 21
92
  0
LINE
  8
0
 10
132
 11
133.049
 20
-7
 21
2.98
  0
LINE
  8
0
 10
133.049
 11
136.15
 20
2.98
 21
12.523
  0
LINE
  8
0
 10
136.15
 11
141.167
 20
12.523
 21
21.214
  0
LINE
  8
0
 10
141.167
 11
147.882
 20
21.214
 21
28.671
  0
LINE
  8
0
 10
147.882
 11
156
 20
28.671
 21
34.569
  0
LINE
  8
0
 10
156
 11
165.167
 20
34.569
 21
38.651
  0
LINE
  8
0
 10
165.167
 11
174.983
 20
38.651
 21
40.737
  0
LINE
  8
0
 10
174.983
 11
185.017
 20
40.737
 21
40.737
  0
LINE
  8
0
 10
185.017
 11
194.367
 20
40.737
 21
38.75
  0
LINE
  8
0
 10
194.367
 11
180
 20
38.75
 21
38.75
  0
LINE
  8
0
 10
180
 11
180
 20
38.75
 21
34.75
  0
LINE
  8
0
 10
180
 11
203.594
 20
34.75
 21
34.75
  0
LINE
  8
0
 10
203.594
 11
204
 20
34.75
 21
34.569
  0
LINE
  8
0
 10
204
 11
212.118
 20
34.569
 21
28.671
  0
LINE
  8
0
 10
212.118
 11
214.298
 20
28.671
 21
26.25
  0
LINE
  8
0
 10
214.298
 11
180
 20
26.25
 21
26.25
  0
LINE
  8
0
 10
180
 11
180
 20
26.25
 21
22.25
  0
LINE
  8
0
 10
180
 11
217.9
 20
22.25
 21
22.25
  0
LINE
  8
0
 10
217.9
 11
218.833
 20
22.25
 21
21.214
  0
LINE
  8
0
 10
218.833
 11
223.142
 20
21.214
 21
13.75
  0
LINE
  8
0
 10
223.142
 11
180
 20
13.75
 21
13.75
  0
LINE
  8
0
 10
180
 11
180
 20
13.75
 21
9.75
  0
LINE
  8
0
 10
180
 11
224.751
 20
9.75
 21
9.75
  0
LINE
  8
0
 10
224.751
 11
226.951
 20
9.75
 21
2.98
  0
LINE
  8
0
 10
226.951
 11
227.133
 20
2.98
 21
1.25
  0
LINE
  8
0
 10
227.133
 11
180
 20
1.25
 21
1.25
  0
LINE
  8
0
 10
180
 11
180
 20
1.25
 21
-2.75
  0
LINE
  8
0
 10
180
 11
227.553
 20
-2.75
 21
-2.75
  0
LINE
  8
0
 10
227.553
 11
228
 20
-2.75
 21
-7
  0
LINE
  8
0
 10
228
 11
227.553
 20
-7
 21
-11.25
  0
LINE
  8
0
 10
227.553
 11
180
 20
-11.25
 21
-11.25
  0
LINE
  8
0
 10
180
 11
180
 20
-11.25
 21
-15.25
  0
LINE
  8
0
 10
180
 11
227.133
 20
-15.25
 21
-15.25
  0
LINE
  8
0
 10
227.133
 11
226.951
 20
-15.25
 21
-16.98
  0
LINE
  8
0
 10
226.951
 11
224.751
 20
-16.98
 21
-23.75
  0
LINE
  8
0
 10
224.751
 11
180
 20
-23.75
 21
-23.75
  0
LINE
  8
0
 10
180
 11
180
 20
-23.75
 21
-27.75
  0
LINE
  8
0
 10
180
 11
223.142
 20
-27.75
 21
-27.75
  0
LINE
  8
0
 10
223.142
 11
218.833
 20
-27.75
 21
-35.214
  0
LINE
  8
0
 10
218.833
 11
217.9
 20
-35.214
 21
-36.25
  0
LINE
  8
0
 10
217.9
 11
180
 20
-36.25
 21
-36.25
  0
LINE
  8
0
 10
180
 11
180
 20
-36.25
 21
-40.25
  0
LINE
  8
0
 10
180
 11
214.298
 20
-40.25
 21
-40.25
  0
LINE
  8
0
 10
214.298
 11
212.118
 20
-40.25
 21
-42.671
  0
LINE
  8
0
 10
212.118
 11
204
 20
-42.671
 21
-48.569
  0
LINE
  8
0
 10
204
 11
203.594
 20
-48.569
 21
-48.75
  0
LINE
  8
0
 10
203.594
 11
180
 20
-48.75
 21
-48.75
  0
LINE
  8
0
 10
180
 11
180
 20
-48.75
 21
-52.75
  0
LINE
  8
0
 10
180
 11
194.367
 20
-52.75
 21
-52.75
  0
LINE
  8
0
 10
194.367
 11
185.017
 20
-52.75
 21
-54.737
  0
LINE
  8
0
 10
185.017
 11
174.983
 20
-54.737
 21
-54.737
  0
LINE
  8
0
 10
174.983
 11
165.167
 20
-54.737
 21
-52.651
  0
LINE
  8
0
 10
165.167
 11
156
 20
-52.651
 21
-48.569
  0
LINE
  8
0
 10
156
 11
147.882
 20
-48.569
 21
-42.671
  0
LINE
  8
0
 10
147.882
 11
141.167
 20
-42.671
 21
-35.214
  0
LINE
  8
0
 10
141.167
 11
136.15
 20
-35.214
 21
-26.523
  0
LINE
  8
0
 10
136.15
 11
133.049
 20
-26.523
 21
-16.98
  0
LINE
  8
0
 10
133.049
 11
132
 20
-16.98
 21
-7
  0
ENDSEC
  0
SECTION
  2
OBJECTS
  0
DICTIONARY
  0
ENDSEC
  0
EOF
