  0
SECTION
  2
BLOCKS
  0
ENDSEC
  0
SECTION
  2
ENTITIES
  0
LINE
  8
0
 10
-50
 11
-48.907
 20
0
 21
10.396
  0
LINE
  8
0
 10
-48.907
 11
-45.677
 20
10.396
 21
20.337
  0
LINE
  8
0
 10
-45.677
 11
-40.451
 20
20.337
 21
29.389
  0
LINE
  8
0
 10
-40.451
 11
-33.457
 20
29.389
 21
37.157
  0
LINE
  8
0
 10
-33.457
 11
-25
 20
37.157
 21
43.301
  0
LINE
  8
0
 10
-25
 11
-15.451
 20
43.301
 21
47.553
  0
LINE
  8
0
 10
-15.451
 11
-5.226
 20
47.553
 21
49.726
  0
LINE
  8
0
 10
-5.226
 11
5.226
 20
49.726
 21
49.726
  0
LINE
  8
0
 10
5.226
 11
15.451
 20
49.726
 21
47.553
  0
LINE
  8
0
 10
15.451
 11
19.5
 20
47.553
 21
45.75
  0
LINE
  8
0
 10
19.5
 11
0
 20
45.75
 21
45.75
  0
LINE
  8
0
 10
0
 11
0
 20
45.75
 21
41.75
  0
LINE
  8
0
 10
0
 11
27.135
 20
41.75
 21
41.75
  0
LINE
  8
0
 10
27.135
 11
33.457
 20
41.75
 21
37.157
  0
LINE
  8
0
 10
33.457
 11
36.975
 20
37.157
 21
33.25
  0
LINE
  8
0
 10
36.975
 11
0
 20
33.25
 21
33.25
  0
LINE
  8
0
 10
0
 11
0
 20
33.25
 21
29.25
  0
LINE
  8
0
 10
0
 11
40.531
 20
29.25
 21
29.25
  0
LINE
  8
0
 10
40.531
 11
45.439
 20
29.25
 21
20.75
  0
LINE
  8
0
 10
45.439
 11
0
 20
20.75
 21
20.75
  0
LINE
  8
0
 10
0
 11
0
 20
20.75
 21
16.75
  0
LINE
  8
0
 10
0
 11
46.842
 20
16.75
 21
16.75
  0
LINE
  8
0
 10
46.842
 11
48.907
 20
16.75
 21
10.396
  0
LINE
  8
0
 10
48.907
 11
49.133
 20
10.396
 21
8.25
  0
LINE
  8
0
 10
49.133
 11
0
 20
8.25
 21
8.25
  0
LINE
  8
0
 10
0
 11
0
 20
8.25
 21
4.25
  0
LINE
  8
0
 10
0
 11
49.553
 20
4.25
 21
4.25
  0
LINE
  8
0
 10
49.553
 11
50
 20
4.25
 21
0
  0
LINE
  8
0
 10
50
 11
49.553
 20
0
 21
-4.25
  0
LINE
  8
0
 10
49.553
 11
0
 20
-4.25
 21
-4.25
  0
LINE
  8
0
 10
0
 11
0
 20
-4.25
 21
-8.25
  0
LINE
  8
0
 10
0
 11
49.133
 20
-8.25
 21
-8.25
  0
LINE
  8
0
 10
49.133
 11
48.907
 20
-8.25
 21
-10.396
  0
LINE
  8
0
 10
48.907
 11
46.842
 20
-10.396
 21
-16.75
  0
LINE
  8
0
 10
46.842
 11
0
 20
-16.75
 21
-16.75
  0
LINE
  8
0
 10
0
 11
0
 20
-16.75
 21
-20.75
  0
LINE
  8
0
 10
0
 11
45.439
 20
-20.75
 21
-20.75
  0
LINE
  8
0
 10
45.439
 11
40.531
 20
-20.75
 21
-29.25
  0
LINE
  8
0
 10
40.531
 11
0
 20
-29.25
 21
-29.25
  0
LINE
  8
0
 10
0
 11
0
 20
-29.25
 21
-33.25
  0
LINE
  8
0
 10
0
 11
36.975
 20
-33.25
 21
-33.25
  0
LINE
  8
0
 10
36.975
 11
33.457
 20
-33.25
 21
-37.157
  0
LINE
  8
0
 10
33.457
 11
27.135
 20
-37.157
 21
-41.75
  0
LINE
  8
0
 10
27.135
 11
0
 20
-41.75
 21
-41.75
  0
LINE
  8
0
 10
0
 11
0
 20
-41.75
 21
-45.75
  0
LINE
  8
0
 10
0
 11
19.5
 20
-45.75
 21
-45.75
  0
LINE
  8
0
 10
19.5
 11
15.451
 20
-45.75
 21
-47.553
  0
LINE
  8
0
 10
15.451
 11
5.226
 20
-47.553
 21
-49.726
  0
LINE
  8
0
 10
5.226
 11
-5.226
 20
-49.726
 21
-49.726
  0
LINE
  8
0
 10
-5.226
 11
-15.451
 20
-49.726
 21
-47.553
  0
LINE
  8
0
 10
-15.451
 11
-25
 20
-47.553
 21
-43.301
  0
LINE
  8
0
 10
-25
 11
-33.457
 20
-43.301
 21
-37.157
  0
LINE
  8
0
 10
-33.457
 11
-40.451
 20
-37.157
 21
-29.389
  0
LINE
  8
0
 10
-40.451
 11
-45.677
 20
-29.389
 21
-20.337
  0
LINE
  8
0
 10
-45.677
 11
-48.907
 20
-20.337
 21
-10.396
  0
LINE
  8
0
 10
-48.907
 11
-50
 20
-10.396
 21
0
  0
LINE
  8
0
 10
-11
 11
-10.553
 20
100
 21
104.25
  0
LINE
  8
0
 10
-10.553
 11
26
 20
104.25
 21
104.25
  0
LINE
  8
0
 10
26
 11
26
 20
104.25
 21
108.25
  0
LINE
  8
0
 10
26
 11
-10.01
 20
108.25
 21
108.25
  0
LINE
  8
0
 10
-10.01
 11
-7.801
 20
108.25
 21
115.049
  0
LINE
  8
0
 10
-7.801
 11
-6.819
 20
115.049
 21
116.75
  0
LINE
  8
0
 10
-6.819
 11
26
 20
116.75
 21
116.75
  0
LINE
  8
0
 10
26
 11
26
 20
116.75
 21
120.75
  0
LINE
  8
0
 10
26
 11
-4.51
 20
120.75
 21
120.75
  0
LINE
  8
0
 10
-4.51
 11
-3.934
 20
120.75
 21
121.748
  0
LINE
  8
0
 10
-3.934
 11
1.242
 20
121.748
 21
127.496
  0
LINE
  8
0
 10
1.242
 11
3.656
 20
127.496
 21
129.25
  0
LINE
  8
0
 10
3.656
 11
26
 20
129.25
 21
129.25
  0
LINE
  8
0
 10
26
 11
26
 20
129.25
 21
133.25
  0
LINE
  8
0
 10
26
 11
10.211
 20
133.25
 21
133.25
  0
LINE
  8
0
 10
10.211
 11
14.566
 20
133.25
 21
135.189
  0
LINE
  8
0
 10
14.566
 11
22.132
 20
135.189
 21
136.797
  0
LINE
  8
0
 10
22.132
 11
29.868
 20
136.797
 21
136.797
  0
LINE
  8
0
 10
29.868
 11
37.434
 20
136.797
 21
135.189
  0
LINE
  8
0
 10
37.434
 11
44.5
 20
135.189
 21
132.043
  0
LINE
  8
0
 10
44.5
 11
50.758
 20
132.043
 21
127.496
  0
LINE
  8
0
 10
50.758
 11
55.934
 20
127.496
 21
121.748
  0
LINE
  8
0
 10
55.934
 11
59.801
 20
121.748
 21
115.049
  0
LINE
  8
0
 10
59.801
 11
62.191
 20
115.049
 21
107.693
  0
LINE
  8
0
 10
62.191
 11
63
 20
107.693
 21
100
  0
LINE
  8
0
 10
63
 11
62.191
 20
100
 21
92.307
  0
LINE
  8
0
 10
62.191
 11
59.801
 20
92.307
 21
84.951
  0
LINE
  8
0
 10
59.801
 11
55.934
 20
84.951
 21
78.252
  0
LINE
  8
0
 10
55.934
 11
50.758
 20
78.252
 21
72.504
  0
LINE
  8
0
 10
50.758
 11
44.5
 20
72.504
 21
67.957
  0
LINE
  8
0
 10
44.5
 11
37.434
 20
67.957
 21
64.811
  0
LINE
  8
0
 10
37.434
 11
29.868
 20
64.811
 21
63.203
  0
LINE
  8
0
 10
29.868
 11
22.132
 20
63.203
 21
63.203
  0
LINE
  8
0
 10
22.132
 11
14.566
 20
63.203
 21
64.811
  0
LINE
  8
0
 10
14.566
 11
10.211
 20
64.811
 21
66.75
  0
LINE
  8
0
 10
10.211
 11
26
 20
66.75
 21
66.75
  0
LINE
  8
0
 10
26
 11
26
 20
66.75
 21
70.75
  0
LINE
  8
0
 10
26
 11
3.656
 20
70.75
 21
70.75
  0
LINE
  8
0
 10
3.656
 11
1.242
 20
70.75
 21
72.504
  0
LINE
  8
0
 10
1.242
 11
-3.934
 20
72.504
 21
78.252
  0
LINE
  8
0
 10
-3.934
 11
-4.51
 20
78.252
 21
79.25
  0
LINE
  8
0
 10
-4.51
 11
26
 20
79.25
 21
79.25
  0
LINE
  8
0
 10
26
 11
26
 20
79.25
 21
83.25
  0
LINE
  8
0
 10
26
 11
-6.819
 20
83.25
 21
83.25
  0
LINE
  8
0
 10
-6.819
 11
-7.801
 20
83.25
 21
84.951
  0
LINE
  8
0
 10
-7.801
 11
-10.01
 20
84.951
 21
91.75
  0
LINE
  8
0
 10
-10.01
 11
26
 20
91.75
 21
91.75
  0
LINE
  8
0
 10
26
 11
26
 20
91.75
 21
95.75
  0
LINE
  8
0
 10
26
 11
-10.553
 20
95.75
 21
95.75
  0
LINE
  8
0
 10
-10.553
 11
-11
 20
95.75
 21
100
  0
LINE
  8
0
 10
35
 11
35.437
 20
50
 21
54.158
  0
LINE
  8
0
 10
35.437
 11
35.467
 20
54.158
 21
54.25
  0
LINE
  8
0
 10
35.467
 11
55
 20
54.25
 21
54.25
  0
LINE
  8
0
 10
55
 11
55
 20
54.25
 21
58.25
  0
LINE
  8
0
 10
55
 11
36.795
 20
58.25
 21
58.25
  0
LINE
  8
0
 10
36.795
 11
38.82
 20
58.25
 21
61.756
  0
LINE
  8
0
 10
38.82
 11
41.617
 20
61.756
 21
64.863
  0
LINE
  8
0
 10
41.617
 11
44.214
 20
64.863
 21
66.75
  0
LINE
  8
0
 10
44.214
 11
55
 20
66.75
 21
66.75
  0
LINE
  8
0
 10
55
 11
55
 20
66.75
 21
69.89
  0
LINE
  8
0
 10
55
 11
57.091
 20
69.89
 21
69.89
  0
LINE
  8
0
 10
57.091
 11
61.18
 20
69.89
 21
69.021
  0
LINE
  8
0
 10
61.18
 11
65
 20
69.021
 21
67.321
  0
LINE
  8
0
 10
65
 11
68.383
 20
67.321
 21
64.863
  0
LINE
  8
0
 10
68.383
 11
71.18
 20
64.863
 21
61.756
  0
LINE
  8
0
 10
71.18
 11
73.271
 20
61.756
 21
58.135
  0
LINE
  8
0
 10
73.271
 11
74.563
 20
58.135
 21
54.158
  0
LINE
  8
0
 10
74.563
 11
75
 20
54.158
 21
50
  0
LINE
  8
0
 10
75
 11
74.563
 20
50
 21
45.842
  0
LINE
  8
0
 10
74.563
 11
73.271
 20
45.842
 21
41.865
  0
LINE
  8
0
 10
73.271
 11
71.18
 20
41.865
 21
38.244
  0
LINE
  8
0
 10
71.18
 11
68.383
 20
38.244
 21
35.137
  0
LINE
  8
0
 10
68.383
 11
65
 20
35.137
 21
32.679
  0
LINE
  8
0
 10
65
 11
61.18
 20
32.679
 21
30.979
  0
LINE
  8
0
 10
61.18
 11
57.091
 20
30.979
 21
30.11
  0
LINE
  8
0
 10
57.091
 11
55
 20
30.11
 21
30.11
  0
LINE
  8
0
 10
55
 11
55
 20
30.11
 21
33.25
  0
LINE
  8
0
 10
55
 11
44.214
 20
33.25
 21
33.25
  0
LINE
  8
0
 10
44.214
 11
41.617
 20
33.25
 21
35.137
  0
LINE
  8
0
 10
41.617
 11
38.82
 20
35.137
 21
38.244
  0
LINE
  8
0
 10
38.82
 11
36.795
 20
38.244
 21
41.75
  0
LINE
  8
0
 10
36.795
 11
55
 20
41.75
 21
41.75
  0
LINE
  8
0
 10
55
 11
55
 20
41.75
 21
45.75
  0
LINE
  8
0
 10
55
 11
35.467
 20
45.75
 21
45.75
  0
LINE
  8
0
 10
35.467
 11
35.437
 20
45.75
 21
45.842
  0
LINE
  8
0
 10
35.437
 11
35
 20
45.842
 21
50
  0
LINE
  8
0
 10
51
 11
51.962
 20
-10
 21
-0.852
  0
LINE
  8
0
 10
51.962
 11
54.804
 20
-0.852
 21
7.896
  0
LINE
  8
0
 10
54.804
 11
59.403
 20
7.896
 21
15.863
  0
LINE
  8
0
 10
59.403
 11
65.558
 20
15.863
 21
22.698
  0
LINE
  8
0
 10
65.558
 11
73
 20
22.698
 21
28.105
  0
LINE
  8
0
 10
73
 11
81.403
 20
28.105
 21
31.846
  0
LINE
  8
0
 10
81.403
 11
90.401
 20
31.846
 21
33.759
  0
LINE
  8
0
 10
90.401
 11
95
 20
33.759
 21
33.759
  0
LINE
  8
0
 10
95
 11
95
 20
33.759
 21
31.75
  0
LINE
  8
0
 10
95
 11
108.813
 20
31.75
 21
31.75
  0
LINE
  8
0
 10
108.813
 11
117
 20
31.75
 21
28.105
  0
LINE
  8
0
 10
117
 11
123.682
 20
28.105
 21
23.25
  0
LINE
  8
0
 10
123.682
 11
95
 20
23.25
 21
23.25
  0
LINE
  8
0
 10
95
 11
95
 20
23.25
 21
19.25
  0
LINE
  8
0
 10
95
 11
127.547
 20
19.25
 21
19.25
  0
LINE
  8
0
 10
127.547
 11
130.597
 20
19.25
 21
15.863
  0
LINE
  8
0
 10
130.597
 11
133.549
 20
15.863
 21
10.75
  0
LINE
  8
0
 10
133.549
 11
95
 20
10.75
 21
10.75
  0
LINE
  8
0
 10
95
 11
95
 20
10.75
 21
6.75
  0
LINE
  8
0
 10
95
 11
135.568
 20
6.75
 21
6.75
  0
LINE
  8
0
 10
135.568
 11
138.038
 20
6.75
 21
-0.852
  0
LINE
  8
0
 10
138.038
 11
138.132
 20
-0.852
 21
-1.75
  0
LINE
  8
0
 10
138.132
 11
95
 20
-1.75
 21
-1.75
  0
LINE
  8
0
 10
95
 11
95
 20
-1.75
 21
-5.75
  0
LINE
  8
0
 10
95
 11
138.553
 20
-5.75
 21
-5.75
  0
LINE
  8
0
 10
138.553
 11
139
 20
-5.75
 21
-10
  0
LINE
  8
0
 10
139
 11
138.553
 20
-10
 21
-14.25
  0
LINE
  8
0
 10
138.553
 11
95
 20
-14.25
 21
-14.25
  0
LINE
  8
0
 10
95
 11
95
 20
-14.25
 21
-18.25
  0
LINE
  8
0
 10
95
 11
138.132
 20
-18.25
 21
-18.25
  0
LINE
  8
0
 10
138.132
 11
138.038
 20
-18.25
 21
-19.148
  0
LINE
  8
0
 10
138.038
 11
135.568
 20
-19.148
 21
-26.75
  0
LINE
  8
0
 10
135.568
 11
95
 20
-26.75
 21
-26.75
  0
LINE
  8
0
 10
95
 11
95
 20
-26.75
 21
-30.75
  0
LINE
  8
0
 10
95
 11
133.549
 20
-30.75
 21
-30.75
  0
LINE
  8
0
 10
133.549
 11
130.597
 20
-30.75
 21
-35.863
  0
LINE
  8
0
 10
130.597
 11
127.547
 20
-35.863
 21
-39.25
  0
LINE
  8
0
 10
127.547
 11
95
 20
-39.25
 21
-39.25
  0
LINE
  8
0
 10
95
 11
95
 20
-39.25
 21
-43.25
  0
LINE
  8
0
 10
95
 11
123.682
 20
-43.25
 21
-43.25
  0
LINE
  8
0
 10
123.682
 11
117
 20
-43.25
 21
-48.105
  0
LINE
  8
0
 10
117
 11
108.813
 20
-48.105
 21
-51.75
  0
LINE
  8
0
 10
108.813
 11
95
 20
-51.75
 21
-51.75
  0
LINE
  8
0
 10
95
 11
95
 20
-51.75
 21
-53.759
  0
LINE
  8
0
 10
95
 11
90.401
 20
-53.759
 21
-53.759
  0
LINE
  8
0
 10
90.401
 11
81.403
 20
-53.759
 21
-51.846
  0
LINE
  8
0
 10
81.403
 11
73
 20
-51.846
 21
-48.105
  0
LINE
  8
0
 10
73
 11
65.558
 20
-48.105
 21
-42.698
  0
LINE
  8
0
 10
65.558
 11
59.403
 20
-42.698
 21
-35.863
  0
LINE
  8
0
 10
59.403
 11
54.804
 20
-35.863
 21
-27.896
  0
LINE
  8
0
 10
54.804
 11
51.962
 20
-27.896
 21
-19.148
  0
LINE
  8
0
 10
51.962
 11
51
 20
-19.148
 21
-10
  0
LINE
  8
0
 10
63
 11
63.447
 20
90
 21
94.25
  0
LINE
  8
0
 10
63.447
 11
107
 20
94.25
 21
94.25
  0
LINE
  8
0
 10
107
 11
107
 20
94.25
 21
98.25
  0
LINE
  8
0
 10
107
 11
63.868
 20
98.25
 21
98.25
  0
LINE
  8
0
 10
63.868
 11
63.962
 20
98.25
 21
99.148
  0
LINE
  8
0
 10
63.962
 11
66.432
 20
99.148
 21
106.75
  0
LINE
  8
0
 10
66.432
 11
107
 20
106.75
 21
106.75
  0
LINE
  8
0
 10
107
 11
107
 20
106.75
 21
110.75
  0
LINE
  8
0
 10
107
 11
68.451
 20
110.75
 21
110.75
  0
LINE
  8
0
 10
68.451
 11
71.403
 20
110.75
 21
115.863
  0
LINE
  8
0
 10
71.403
 11
74.453
 20
115.863
 21
119.25
  0
LINE
  8
0
 10
74.453
 11
107
 20
119.25
 21
119.25
  0
LINE
  8
0
 10
107
 11
107
 20
119.25
 21
123.25
  0
LINE
  8
0
 10
107
 11
78.318
 20
123.25
 21
123.25
  0
LINE
  8
0
 10
78.318
 11
85
 20
123.25
 21
128.105
  0
LINE
  8
0
 10
85
 11
93.187
 20
128.105
 21
131.75
  0
LINE
  8
0
 10
93.187
 11
107
 20
131.75
 21
131.75
  0
LINE
  8
0
 10
107
 11
107
 20
131.75
 21
133.759
  0
LINE
  8
0
 10
107
 11
111.599
 20
133.759
 21
133.759
  0
LINE
  8
0
 10
111.599
 11
120.597
 20
133.759
 21
131.846
  0
LINE
  8
0
 10
120.597
 11
129
 20
131.846
 21
128.105
  0
LINE
  8
0
 10
129
 11
136.442
 20
128.105
 21
122.698
  0
LINE
  8
0
 10
136.442
 11
142.597
 20
122.698
 21
115.863
  0
LINE
  8
0
 10
142.597
 11
147.196
 20
115.863
 21
107.896
  0
LINE
  8
0
 10
147.196
 11
150.038
 20
107.896
 21
99.148
  0
LINE
  8
0
 10
150.038
 11
151
 20
99.148
 21
90
  0
LINE
  8
0
 10
151
 11
150.038
 20
90
 21
80.852
  0
LINE
  8
0
 10
150.038
 11
147.196
 20
80.852
 21
72.104
  0
LINE
  8
0
 10
147.196
 11
142.597
 20
72.104
 21
64.137
  0
LINE
  8
0
 10
142.597
 11
136.442
 20
64.137
 21
57.302
  0
LINE
  8
0
 10
136.442
 11
129
 20
57.302
 21
51.895
  0
LINE
  8
0
 10
129
 11
120.597
 20
51.895
 21
48.154
  0
LINE
  8
0
 10
120.597
 11
111.599
 20
48.154
 21
46.241
  0
LINE
  8
0
 10
111.599
 11
107
 20
46.241
 21
46.241
  0
LINE
  8
0
 10
107
 11
107
 20
46.241
 21
48.25
  0
LINE
  8
0
 10
107
 11
93.187
 20
48.25
 21
48.25
  0
LINE
  8
0
 10
93.187
 11
85
 20
48.25
 21
51.895
  0
LINE
  8
0
 10
85
 11
78.318
 20
51.895
 21
56.75
  0
LINE
  8
0
 10
78.318
 11
107
 20
56.75
 21
56.75
  0
LINE
  8
0
 10
107
 11
107
 20
56.75
 21
60.75
  0
LINE
  8
0
 10
107
 11
74.453
 20
60.75
 21
60.75
  0
LINE
  8
0
 10
74.453
 11
71.403
 20
60.75
 21
64.137
  0
LINE
  8
0
 10
71.403
 11
68.451
 20
64.137
 21
69.25
  0
LINE
  8
0
 10
68.451
 11
107
 20
69.25
 21
69.25
  0
LINE
  8
0
 10
107
 11
107
 20
69.25
 21
73.25
  0
LINE
  8
0
 10
107
 11
66.432
 20
73.25
 21
73.25
  0
LINE
  8
0
 10
66.432
 11
63.962
 20
73.25
 21
80.852
  0
LINE
  8
0
 10
63.962
 11
63.868
 20
80.852
 21
81.75
  0
LINE
  8
0
 10
63.868
 11
107
 20
81.75
 21
81.75
  0
LINE
  8
0
 10
107
 11
107
 20
81.75
 21
85.75
  0
LINE
  8
0
 10
107
 11
63.447
 20
85.75
 21
85.75
  0
LINE
  8
0
 10
63.447
 11
63
 20
85.75
 21
90
  0
LINE
  8
0
 10
127
 11
127.437
 20
30
 21
34.158
  0
LINE
  8
0
 10
127.437
 11
128.729
 20
34.158
 21
38.135
  0
LINE
  8
0
 10
128.729
 11
130.82
 20
38.135
 21
41.756
  0
LINE
  8
0
 10
130.82
 11
133.617
 20
41.756
 21
44.863
  0
LINE
  8
0
 10
133.617
 11
137
 20
44.863
 21
47.321
  0
LINE
  8
0
 10
137
 11
140.82
 20
47.321
 21
49.021
  0
LINE
  8
0
 10
140.82
 11
144.909
 20
49.021
 21
49.89
  0
LINE
  8
0
 10
144.909
 11
147
 20
49.89
 21
49.89
  0
LINE
  8
0
 10
147
 11
147
 20
49.89
 21
46.75
  0
LINE
  8
0
 10
147
 11
157.786
 20
46.75
 21
46.75
  0
LINE
  8
0
 10
157.786
 11
160.383
 20
46.75
 21
44.863
  0
LINE
  8
0
 10
160.383
 11
163.18
 20
44.863
 21
41.756
  0
LINE
  8
0
 10
163.18
 11
165.205
 20
41.756
 21
38.25
  0
LINE
  8
0
 10
165.205
 11
147
 20
38.25
 21
38.25
  0
LINE
  8
0
 10
147
 11
147
 20
38.25
 21
34.25
  0
LINE
  8
0
 10
147
 11
166.533
 20
34.25
 21
34.25
  0
LINE
  8
0
 10
166.533
 11
166.563
 20
34.25
 21
34.158
  0
LINE
  8
0
 10
166.563
 11
167
 20
34.158
 21
30
  0
LINE
  8
0
 10
167
 11
166.563
 20
30
 21
25.842
  0
LINE
  8
0
 10
166.563
 11
166.533
 20
25.842
 21
25.75
  0
LINE
  8
0
 10
166.533
 11
147
 20
25.75
 21
25.75
  0
LINE
  8
0
 10
147
 11
147
 20
25.75
 21
21.75
  0
LINE
  8
0
 10
147
 11
165.205
 20
21.75
 21
21.75
  0
LINE
  8
0
 10
165.205
 11
163.18
 20
21.75
 21
18.244
  0
LINE
  8
0
 10
163.18
 11
160.383
 20
18.244
 21
15.137
  0
LINE
  8
0
 10
160.383
 11
157.786
 20
15.137
 21
13.25
  0
LINE
  8
0
 10
157.786
 11
147
 20
13.25
 21
13.25
  0
LINE
  8
0
 10
147
 11
147
 20
13.25
 21
10.11
  0
LINE
  8
0
 10
147
 11
144.909
 20
10.11
 21
10.11
  0
LINE
  8
0
 10
144.909
 11
140.82
 20
10.11
 21
10.979
  0
LINE
  8
0
 10
140.82
 11
137
 20
10.979
 21
12.679
  0
LINE
  8
0
 10
137
 11
133.617
 20
12.679
 21
15.137
  0
LINE
  8
0
 10
133.617
 11
130.82
 20
15.137
 21
18.244
  0
LINE
  8
0
 10
130.82
 11
128.729
 20
18.244
 21
21.865
  0
LINE
  8
0
 10
128.729
 11
127.437
 20
21.865
 21
25.842
  0
LINE
  8
0
 10
127.437
 11
127
 20
25.842
 21
30
  0
LINE
  8
0
 10
139
 11
139.809
 20
-20
 21
-12.307
  0
LINE
  8
0
 10
139.809
 11
142.199
 20
-12.307
 21
-4.951
  0
LINE
  8
0
 10
142.199
 11
146.066
 20
-4.951
 21
1.748
  0
LINE
  8
0
 10
146.066
 11
151.242
 20
1.748
 21
7.496
  0
LINE
  8
0
 10
151.242
 11
157.5
 20
7.496
 21
12.043
  0
LINE
  8
0
 10
157.5
 11
164.566
 20
12.043
 21
15.189
  0
LINE
  8
0
 10
164.566
 11
172.132
 20
15.189
 21
16.797
  0
LINE
  8
0
 10
172.132
 11
179.868
 20
16.797
 21
16.797
  0
LINE
  8
0
 10
179.868
 11
187.434
 20
16.797
 21
15.189
  0
LINE
  8
0
 10
187.434
 11
191.789
 20
15.189
 21
13.25
  0
LINE
  8
0
 10
191.789
 11
176
 20
13.25
 21
13.25
  0
LINE
  8
0
 10
176
 11
176
 20
13.25
 21
9.25
  0
LINE
  8
0
 10
176
 11
198.344
 20
9.25
 21
9.25
  0
LINE
  8
0
 10
198.344
 11
200.758
 20
9.25
 21
7.496
  0
LINE
  8
0
 10
200.758
 11
205.934
 20
7.496
 21
1.748
  0
LINE
  8
0
 10
205.934
 11
206.51
 20
1.748
 21
0.75
  0
LINE
  8
0
 10
206.51
 11
176
 20
0.75
 21
0.75
  0
LINE
  8
0
 10
176
 11
176
 20
0.75
 21
-3.25
  0
LINE
  8
0
 10
176
 11
208.819
 20
-3.25
 21
-3.25
  0
LINE
  8
0
 10
208.819
 11
209.801
 20
-3.25
 21
-4.951
  0
LINE
  8
0
 10
209.801
 11
212.01
 20
-4.951
 21
-11.75
  0
LINE
  8
0
 10
212.01
 11
176
 20
-11.75
 21
-11.75
  0
LINE
  8
0
 10
176
 11
176
 20
-11.75
 21
-15.75
  0
LINE
  8
0
 10
176
 11
212.553
 20
-15.75
 21
-15.75
  0
LINE
  8
0
 10
212.553
 11
213
 20
-15.75
 21
-20
  0
LINE
  8
0
 10
213
 11
212.553
 20
-20
 21
-24.25
  0
LINE
  8
0
 10
212.553
 11
176
 20
-24.25
 21
-24.25
  0
LINE
  8
0
 10
176
 11
176
 20
-24.25
 21
-28.25
  0
LINE
  8
0
 10
176
 11
212.01
 20
-28.25
 21
-28.25
  0
LINE
  8
0
 10
212.01
 11
209.801
 20
-28.25
 21
-35.049
  0
LINE
  8
0
 10
209.801
 11
208.819
 20
-35.049
 21
-36.75
  0
LINE
  8
0
 10
208.819
 11
176
 20
-36.75
 21
-36.75
  0
LINE
  8
0
 10
176
 11
176
 20
-36.75
 21
-40.75
  0
LINE
  8
0
 10
176
 11
206.51
 20
-40.75
 21
-40.75
  0
LINE
  8
0
 10
206.51
 11
205.934
 20
-40.75
 21
-41.748
  0
LINE
  8
0
 10
205.934
 11
200.758
 20
-41.748
 21
-47.496
  0
LINE
  8
0
 10
200.758
 11
198.344
 20
-47.496
 21
-49.25
  0
LINE
  8
0
 10
198.344
 11
176
 20
-49.25
 21
-49.25
  0
LINE
  8
0
 10
176
 11
176
 20
-49.25
 21
-53.25
  0
LINE
  8
0
 10
176
 11
191.789
 20
-53.25
 21
-53.25
  0
LINE
  8
0
 10
191.789
 11
187.434
 20
-53.25
 21
-55.189
  0
LINE
  8
0
 10
187.434
 11
179.868
 20
-55.189
 21
-56.797
  0
LINE
  8
0
 10
179.868
 11
172.132
 20
-56.797
 21
-56.797
  0
LINE
  8
0
 10
172.132
 11
164.566
 20
-56.797
 21
-55.189
  0
LINE
  8
0
 10
164.566
 11
157.5
 20
-55.189
 21
-52.043
  0
LINE
  8
0
 10
157.5
 11
151.242
 20
-52.043
 21
-47.496
  0
LINE
  8
0
 10
151.242
 11
146.066
 20
-47.496
 21
-41.748
  0
LINE
  8
0
 10
146.066
 11
142.199
 20
-41.748
 21
-35.049
  0
LINE
  8
0
 10
142.199
 11
139.809
 20
-35.049
 21
-27.693
  0
LINE
  8
0
 10
139.809
 11
139
 20
-27.693
 21
-20
  0
LINE
  8
0
 10
152
 11
152.447
 20
80
 21
84.25
  0
LINE
  8
0
 10
152.447
 11
202
 20
84.25
 21
84.25
  0
LINE
  8
0
 10
202
 11
202
 20
84.25
 21
88.25
  0
LINE
  8
0
 10
202
 11
152.867
 20
88.25
 21
88.25
  0
LINE
  8
0
 10
152.867
 11
153.093
 20
88.25
 21
90.396
  0
LINE
  8
0
 10
153.093
 11
155.158
 20
90.396
 21
96.75
  0
LINE
  8
0
 10
155.158
 11
202
 20
96.75
 21
96.75
  0
LINE
  8
0
 10
202
 11
202
 20
96.75
 21
100.75
  0
LINE
  8
0
 10
202
 11
156.561
 20
100.75
 21
100.75
  0
LINE
  8
0
 10
156.561
 11
161.469
 20
100.75
 21
109.25
  0
LINE
  8
0
 10
161.469
 11
202
 20
109.25
 21
109.25
  0
LINE
  8
0
 10
202
 11
202
 20
109.25
 21
113.25
  0
LINE
  8
0
 10
202
 11
165.025
 20
113.25
 21
113.25
  0
LINE
  8
0
 10
165.025
 11
168.543
 20
113.25
 21
117.157
  0
LINE
  8
0
 10
168.543
 11
174.865
 20
117.157
 21
121.75
  0
LINE
  8
0
 10
174.865
 11
202
 20
121.75
 21
121.75
  0
LINE
  8
0
 10
202
 11
202
 20
121.75
 21
125.75
  0
LINE
  8
0
 10
202
 11
182.5
 20
125.75
 21
125.75
  0
LINE
  8
0
 10
182.5
 11
186.549
 20
125.75
 21
127.553
  0
LINE
  8
0
 10
186.549
 11
196.774
 20
127.553
 21
129.726
  0
LINE
  8
0
 10
196.774
 11
207.226
 20
129.726
 21
129.726
  0
LINE
  8
0
 10
207.226
 11
217.451
 20
129.726
 21
127.553
  0
LINE
  8
0
 10
217.451
 11
227
 20
127.553
 21
123.301
  0
LINE
  8
0
 10
227
 11
235.457
 20
123.301
 21
117.157
  0
LINE
  8
0
 10
235.457
 11
242.451
 20
117.157
 21
109.389
  0
LINE
  8
0
 10
242.451
 11
247.677
 20
109.389
 21
100.337
  0
LINE
  8
0
 10
247.677
 11
250.907
 20
100.337
 21
90.396
  0
LINE
  8
0
 10
250.907
 11
252
 20
90.396
 21
80
  0
LINE
  8
0
 10
252
 11
250.907
 20
80
 21
69.604
  0
LINE
  8
0
 10
250.907
 11
247.677
 20
69.604
 21
59.663
  0
LINE
  8
0
 10
247.677
 11
242.451
 20
59.663
 21
50.611
  0
LINE
  8
0
 10
242.451
 11
235.457
 20
50.611
 21
42.843
  0
LINE
  8
0
 10
235.457
 11
227
 20
42.843
 21
36.699
  0
LINE
  8
0
 10
227
 11
217.451
 20
36.699
 21
32.447
  0
LINE
  8
0
 10
217.451
 11
207.226
 20
32.447
 21
30.274
  0
LINE
  8
0
 10
207.226
 11
196.774
 20
30.274
 21
30.274
  0
LINE
  8
0
 10
196.774
 11
186.549
 20
30.274
 21
32.447
  0
LINE
  8
0
 10
186.549
 11
182.5
 20
32.447
 21
34.25
  0
LINE
  8
0
 10
182.5
 11
202
 20
34.25
 21
34.25
  0
LINE
  8
0
 10
202
 11
202
 20
34.25
 21
38.25
  0
LINE
  8
0
 10
202
 11
174.865
 20
38.25
 21
38.25
  0
LINE
  8
0
 10
174.865
 11
168.543
 20
38.25
 21
42.843
  0
LINE
  8
0
 10
168.543
 11
165.025
 20
42.843
 21
46.75
  0
LINE
  8
0
 10
165.025
 11
202
 20
46.75
 21
46.75
  0
LINE
  8
0
 10
202
 11
202
 20
46.75
 21
50.75
  0
LINE
  8
0
 10
202
 11
161.469
 20
50.75
 21
50.75
  0
LINE
  8
0
 10
161.469
 11
156.561
 20
50.75
 21
59.25
  0
LINE
  8
0
 10
156.561
 11
202
 20
59.25
 21
59.25
  0
LINE
  8
0
 10
202
 11
202
 20
59.25
 21
63.25
  0
LINE
  8
0
 10
202
 11
155.158
 20
63.25
 21
63.25
  0
LINE
  8
0
 10
155.158
 11
153.093
 20
63.25
 21
69.604
  0
LINE
  8
0
 10
153.093
 11
152.867
 20
69.604
 21
71.75
  0
LINE
  8
0
 10
152.867
 11
202
 20
71.75
 21
71.75
  0
LINE
  8
0
 10
202
 11
202
 20
71.75
 21
75.75
  0
LINE
  8
0
 10
202
 11
152.447
 20
75.75
 21
75.75
  0
LINE
  8
0
 10
152.447
 11
152
 20
75.75
 21
80
  0
ENDSEC
  0
SECTION
  2
OBJECTS
  0
DICTIONARY
  0
ENDSEC
  0
EOF
