  0
SECTION
  2
BLOCKS
  0
ENDSEC
  0
SECTION
  2
ENTITIES
  0
LINE
  8
0
 10
-45
 11
-44.017
 20
-5
 21
4.356
  0
LINE
  8
0
 10
-44.017
 11
-41.11
 20
4.356
 21
13.303
  0
LINE
  8
0
 10
-41.11
 11
-36.406
 20
13.303
 21
21.45
  0
LINE
  8
0
 10
-36.406
 11
-30.111
 20
21.45
 21
28.442
  0
LINE
  8
0
 10
-30.111
 11
-22.5
 20
28.442
 21
33.971
  0
LINE
  8
0
 10
-22.5
 11
-13.906
 20
33.971
 21
37.798
  0
LINE
  8
0
 10
-13.906
 11
-4.704
 20
37.798
 21
39.753
  0
LINE
  8
0
 10
-4.704
 11
4.704
 20
39.753
 21
39.753
  0
LINE
  8
0
 10
4.704
 11
13.906
 20
39.753
 21
37.798
  0
LINE
  8
0
 10
13.906
 11
17.495
 20
37.798
 21
36.2
  0
LINE
  8
0
 10
17.495
 11
0
 20
36.2
 21
36.2
  0
LINE
  8
0
 10
0
 11
0
 20
36.2
 21
32.2
  0
LINE
  8
0
 10
0
 11
24.938
 20
32.2
 21
32.2
  0
LINE
  8
0
 10
24.938
 11
30.111
 20
32.2
 21
28.442
  0
LINE
  8
0
 10
30.111
 11
33.21
 20
28.442
 21
25
  0
LINE
  8
0
 10
33.21
 11
0
 20
25
 21
25
  0
LINE
  8
0
 10
0
 11
0
 20
25
 21
21
  0
LINE
  8
0
 10
0
 11
36.666
 20
21
 21
21
  0
LINE
  8
0
 10
36.666
 11
40.823
 20
21
 21
13.8
  0
LINE
  8
0
 10
40.823
 11
0
 20
13.8
 21
13.8
  0
LINE
  8
0
 10
0
 11
0
 20
13.8
 21
9.8
  0
LINE
  8
0
 10
0
 11
42.248
 20
9.8
 21
9.8
  0
LINE
  8
0
 10
42.248
 11
44.017
 20
9.8
 21
4.356
  0
LINE
  8
0
 10
44.017
 11
44.201
 20
4.356
 21
2.6
  0
LINE
  8
0
 10
44.201
 11
0
 20
2.6
 21
2.6
  0
LINE
  8
0
 10
0
 11
0
 20
2.6
 21
-1.4
  0
LINE
  8
0
 10
0
 11
44.622
 20
-1.4
 21
-1.4
  0
LINE
  8
0
 10
44.622
 11
45
 20
-1.4
 21
-5
  0
LINE
  8
0
 10
45
 11
44.622
 20
-5
 21
-8.6
  0
LINE
  8
0
 10
44.622
 11
0
 20
-8.6
 21
-8.6
  0
LINE
  8
0
 10
0
 11
0
 20
-8.6
 21
-12.6
  0
LINE
  8
0
 10
0
 11
44.201
 20
-12.6
 21
-12.6
  0
LINE
  8
0
 10
44.201
 11
44.017
 20
-12.6
 21
-14.356
  0
LINE
  8
0
 10
44.017
 11
42.248
 20
-14.356
 21
-19.8
  0
LINE
  8
0
 10
42.248
 11
0
 20
-19.8
 21
-19.8
  0
LINE
  8
0
 10
0
 11
0
 20
-19.8
 21
-23.8
  0
LINE
  8
0
 10
0
 11
40.823
 20
-23.8
 21
-23.8
  0
LINE
  8
0
 10
40.823
 11
36.666
 20
-23.8
 21
-31
  0
LINE
  8
0
 10
36.666
 11
0
 20
-31
 21
-31
  0
LINE
  8
0
 10
0
 11
0
 20
-31
 21
-35
  0
LINE
  8
0
 10
0
 11
33.21
 20
-35
 21
-35
  0
LINE
  8
0
 10
33.21
 11
30.111
 20
-35
 21
-38.442
  0
LINE
  8
0
 10
30.111
 11
24.938
 20
-38.442
 21
-42.2
  0
LINE
  8
0
 10
24.938
 11
0
 20
-42.2
 21
-42.2
  0
LINE
  8
0
 10
0
 11
0
 20
-42.2
 21
-46.2
  0
LINE
  8
0
 10
0
 11
17.495
 20
-46.2
 21
-46.2
  0
LINE
  8
0
 10
17.495
 11
13.906
 20
-46.2
 21
-47.798
  0
LINE
  8
0
 10
13.906
 11
4.704
 20
-47.798
 21
-49.753
  0
LINE
  8
0
 10
4.704
 11
-4.704
 20
-49.753
 21
-49.753
  0
LINE
  8
0
 10
-4.704
 11
-13.906
 20
-49.753
 21
-47.798
  0
LINE
  8
0
 10
-13.906
 11
-22.5
 20
-47.798
 21
-43.971
  0
LINE
  8
0
 10
-22.5
 11
-30.111
 20
-43.971
 21
-38.442
  0
LINE
  8
0
 10
-30.111
 11
-36.406
 20
-38.442
 21
-31.45
  0
LINE
  8
0
 10
-36.406
 11
-41.11
 20
-31.45
 21
-23.303
  0
LINE
  8
0
 10
-41.11
 11
-44.017
 20
-23.303
 21
-14.356
  0
LINE
  8
0
 10
-44.017
 11
-45
 20
-14.356
 21
-5
  0
LINE
  8
0
 10
-44
 11
-43.621
 20
86
 21
89.6
  0
LINE
  8
0
 10
-43.621
 11
0
 20
89.6
 21
89.6
  0
LINE
  8
0
 10
0
 11
0
 20
89.6
 21
93.6
  0
LINE
  8
0
 10
0
 11
-43.201
 20
93.6
 21
93.6
  0
LINE
  8
0
 10
-43.201
 11
-43.038
 20
93.6
 21
95.148
  0
LINE
  8
0
 10
-43.038
 11
-41.202
 20
95.148
 21
100.8
  0
LINE
  8
0
 10
-41.202
 11
0
 20
100.8
 21
100.8
  0
LINE
  8
0
 10
0
 11
0
 20
100.8
 21
104.8
  0
LINE
  8
0
 10
0
 11
-39.674
 20
104.8
 21
104.8
  0
LINE
  8
0
 10
-39.674
 11
-35.597
 20
104.8
 21
111.863
  0
LINE
  8
0
 10
-35.597
 11
-35.474
 20
111.863
 21
112
  0
LINE
  8
0
 10
-35.474
 11
0
 20
112
 21
112
  0
LINE
  8
0
 10
0
 11
0
 20
112
 21
116
  0
LINE
  8
0
 10
0
 11
-31.872
 20
116
 21
116
  0
LINE
  8
0
 10
-31.872
 11
-29.442
 20
116
 21
118.698
  0
LINE
  8
0
 10
-29.442
 11
-23.246
 20
118.698
 21
123.2
  0
LINE
  8
0
 10
-23.246
 11
0
 20
123.2
 21
123.2
  0
LINE
  8
0
 10
0
 11
0
 20
123.2
 21
127.2
  0
LINE
  8
0
 10
0
 11
-15.048
 20
127.2
 21
127.2
  0
LINE
  8
0
 10
-15.048
 11
-13.597
 20
127.2
 21
127.846
  0
LINE
  8
0
 10
-13.597
 11
-4.599
 20
127.846
 21
129.759
  0
LINE
  8
0
 10
-4.599
 11
4.599
 20
129.759
 21
129.759
  0
LINE
  8
0
 10
4.599
 11
13.597
 20
129.759
 21
127.846
  0
LINE
  8
0
 10
13.597
 11
22
 20
127.846
 21
124.105
  0
LINE
  8
0
 10
22
 11
29.442
 20
124.105
 21
118.698
  0
LINE
  8
0
 10
29.442
 11
35.597
 20
118.698
 21
111.863
  0
LINE
  8
0
 10
35.597
 11
40.196
 20
111.863
 21
103.896
  0
LINE
  8
0
 10
40.196
 11
43.038
 20
103.896
 21
95.148
  0
LINE
  8
0
 10
43.038
 11
44
 20
95.148
 21
86
  0
LINE
  8
0
 10
44
 11
43.038
 20
86
 21
76.852
  0
LINE
  8
0
 10
43.038
 11
40.196
 20
76.852
 21
68.104
  0
LINE
  8
0
 10
40.196
 11
35.597
 20
68.104
 21
60.137
  0
LINE
  8
0
 10
35.597
 11
29.442
 20
60.137
 21
53.302
  0
LINE
  8
0
 10
29.442
 11
22
 20
53.302
 21
47.895
  0
LINE
  8
0
 10
22
 11
13.597
 20
47.895
 21
44.154
  0
LINE
  8
0
 10
13.597
 11
4.599
 20
44.154
 21
42.241
  0
LINE
  8
0
 10
4.599
 11
-4.599
 20
42.241
 21
42.241
  0
LINE
  8
0
 10
-4.599
 11
-13.597
 20
42.241
 21
44.154
  0
LINE
  8
0
 10
-13.597
 11
-15.048
 20
44.154
 21
44.8
  0
LINE
  8
0
 10
-15.048
 11
0
 20
44.8
 21
44.8
  0
LINE
  8
0
 10
0
 11
0
 20
44.8
 21
48.8
  0
LINE
  8
0
 10
0
 11
-23.246
 20
48.8
 21
48.8
  0
LINE
  8
0
 10
-23.246
 11
-29.442
 20
48.8
 21
53.302
  0
LINE
  8
0
 10
-29.442
 11
-31.872
 20
53.302
 21
56
  0
LINE
  8
0
 10
-31.872
 11
0
 20
56
 21
56
  0
LINE
  8
0
 10
0
 11
0
 20
56
 21
60
  0
LINE
  8
0
 10
0
 11
-35.474
 20
60
 21
60
  0
LINE
  8
0
 10
-35.474
 11
-35.597
 20
60
 21
60.137
  0
LINE
  8
0
 10
-35.597
 11
-39.674
 20
60.137
 21
67.2
  0
LINE
  8
0
 10
-39.674
 11
0
 20
67.2
 21
67.2
  0
LINE
  8
0
 10
0
 11
0
 20
67.2
 21
71.2
  0
LINE
  8
0
 10
0
 11
-41.202
 20
71.2
 21
71.2
  0
LINE
  8
0
 10
-41.202
 11
-43.038
 20
71.2
 21
76.852
  0
LINE
  8
0
 10
-43.038
 11
-43.201
 20
76.852
 21
78.4
  0
LINE
  8
0
 10
-43.201
 11
0
 20
78.4
 21
78.4
  0
LINE
  8
0
 10
0
 11
0
 20
78.4
 21
82.4
  0
LINE
  8
0
 10
0
 11
-43.621
 20
82.4
 21
82.4
  0
LINE
  8
0
 10
-43.621
 11
-44
 20
82.4
 21
86
  0
LINE
  8
0
 10
36
 11
36.379
 20
39
 21
42.6
  0
LINE
  8
0
 10
36.379
 11
58
 20
42.6
 21
42.6
  0
LINE
  8
0
 10
58
 11
58
 20
42.6
 21
46.6
  0
LINE
  8
0
 10
58
 11
37.464
 20
46.6
 21
46.6
  0
LINE
  8
0
 10
37.464
 11
37.902
 20
46.6
 21
47.948
  0
LINE
  8
0
 10
37.902
 11
40.202
 20
47.948
 21
51.931
  0
LINE
  8
0
 10
40.202
 11
41.885
 20
51.931
 21
53.8
  0
LINE
  8
0
 10
41.885
 11
58
 20
53.8
 21
53.8
  0
LINE
  8
0
 10
58
 11
58
 20
53.8
 21
57.8
  0
LINE
  8
0
 10
58
 11
46.652
 20
57.8
 21
57.8
  0
LINE
  8
0
 10
46.652
 11
47
 20
57.8
 21
58.053
  0
LINE
  8
0
 10
47
 11
51.202
 20
58.053
 21
59.923
  0
LINE
  8
0
 10
51.202
 11
55.7
 20
59.923
 21
60.879
  0
LINE
  8
0
 10
55.7
 11
60.3
 20
60.879
 21
60.879
  0
LINE
  8
0
 10
60.3
 11
64.798
 20
60.879
 21
59.923
  0
LINE
  8
0
 10
64.798
 11
69
 20
59.923
 21
58.053
  0
LINE
  8
0
 10
69
 11
72.721
 20
58.053
 21
55.349
  0
LINE
  8
0
 10
72.721
 11
75.798
 20
55.349
 21
51.931
  0
LINE
  8
0
 10
75.798
 11
78.098
 20
51.931
 21
47.948
  0
LINE
  8
0
 10
78.098
 11
79.519
 20
47.948
 21
43.574
  0
LINE
  8
0
 10
79.519
 11
80
 20
43.574
 21
39
  0
LINE
  8
0
 10
80
 11
79.519
 20
39
 21
34.426
  0
LINE
  8
0
 10
79.519
 11
78.098
 20
34.426
 21
30.052
  0
LINE
  8
0
 10
78.098
 11
75.798
 20
30.052
 21
26.069
  0
LINE
  8
0
 10
75.798
 11
72.721
 20
26.069
 21
22.651
  0
LINE
  8
0
 10
72.721
 11
69
 20
22.651
 21
19.947
  0
LINE
  8
0
 10
69
 11
64.798
 20
19.947
 21
18.077
  0
LINE
  8
0
 10
64.798
 11
60.3
 20
18.077
 21
17.121
  0
LINE
  8
0
 10
60.3
 11
55.7
 20
17.121
 21
17.121
  0
LINE
  8
0
 10
55.7
 11
51.202
 20
17.121
 21
18.077
  0
LINE
  8
0
 10
51.202
 11
47
 20
18.077
 21
19.947
  0
LINE
  8
0
 10
47
 11
46.652
 20
19.947
 21
20.2
  0
LINE
  8
0
 10
46.652
 11
58
 20
20.2
 21
20.2
  0
LINE
  8
0
 10
58
 11
58
 20
20.2
 21
24.2
  0
LINE
  8
0
 10
58
 11
41.885
 20
24.2
 21
24.2
  0
LINE
  8
0
 10
41.885
 11
40.202
 20
24.2
 21
26.069
  0
LINE
  8
0
 10
40.202
 11
37.902
 20
26.069
 21
30.052
  0
LINE
  8
0
 10
37.902
 11
37.464
 20
30.052
 21
31.4
  0
LINE
  8
0
 10
37.464
 11
58
 20
31.4
 21
31.4
  0
LINE
  8
0
 10
58
 11
58
 20
31.4
 21
35.4
  0
LINE
  8
0
 10
58
 11
36.379
 20
35.4
 21
35.4
  0
LINE
  8
0
 10
36.379
 11
36
 20
35.4
 21
39
  0
LINE
  8
0
 10
53
 11
53.809
 20
-13
 21
-5.307
  0
LINE
  8
0
 10
53.809
 11
56.199
 20
-5.307
 21
2.049
  0
LINE
  8
0
 10
56.199
 11
60.066
 20
2.049
 21
8.748
  0
LINE
  8
0
 10
60.066
 11
65.242
 20
8.748
 21
14.496
  0
LINE
  8
0
 10
65.242
 11
71.5
 20
14.496
 21
19.043
  0
LINE
  8
0
 10
71.5
 11
78.566
 20
19.043
 21
22.189
  0
LINE
  8
0
 10
78.566
 11
86.132
 20
22.189
 21
23.797
  0
LINE
  8
0
 10
86.132
 11
93.868
 20
23.797
 21
23.797
  0
LINE
  8
0
 10
93.868
 11
101.434
 20
23.797
 21
22.189
  0
LINE
  8
0
 10
101.434
 11
108.5
 20
22.189
 21
19.043
  0
LINE
  8
0
 10
108.5
 11
111.312
 20
19.043
 21
17
  0
LINE
  8
0
 10
111.312
 11
90
 20
17
 21
17
  0
LINE
  8
0
 10
90
 11
90
 20
17
 21
13
  0
LINE
  8
0
 10
90
 11
116.105
 20
13
 21
13
  0
LINE
  8
0
 10
116.105
 11
119.934
 20
13
 21
8.748
  0
LINE
  8
0
 10
119.934
 11
121.636
 20
8.748
 21
5.8
  0
LINE
  8
0
 10
121.636
 11
90
 20
5.8
 21
5.8
  0
LINE
  8
0
 10
90
 11
90
 20
5.8
 21
1.8
  0
LINE
  8
0
 10
90
 11
123.882
 20
1.8
 21
1.8
  0
LINE
  8
0
 10
123.882
 11
126.191
 20
1.8
 21
-5.307
  0
LINE
  8
0
 10
126.191
 11
126.201
 20
-5.307
 21
-5.4
  0
LINE
  8
0
 10
126.201
 11
90
 20
-5.4
 21
-5.4
  0
LINE
  8
0
 10
90
 11
90
 20
-5.4
 21
-9.4
  0
LINE
  8
0
 10
90
 11
126.621
 20
-9.4
 21
-9.4
  0
LINE
  8
0
 10
126.621
 11
127
 20
-9.4
 21
-13
  0
LINE
  8
0
 10
127
 11
126.621
 20
-13
 21
-16.6
  0
LINE
  8
0
 10
126.621
 11
90
 20
-16.6
 21
-16.6
  0
LINE
  8
0
 10
90
 11
90
 20
-16.6
 21
-20.6
  0
LINE
  8
0
 10
90
 11
126.201
 20
-20.6
 21
-20.6
  0
LINE
  8
0
 10
126.201
 11
126.191
 20
-20.6
 21
-20.693
  0
LINE
  8
0
 10
126.191
 11
123.882
 20
-20.693
 21
-27.8
  0
LINE
  8
0
 10
123.882
 11
90
 20
-27.8
 21
-27.8
  0
LINE
  8
0
 10
90
 11
90
 20
-27.8
 21
-31.8
  0
LINE
  8
0
 10
90
 11
121.636
 20
-31.8
 21
-31.8
  0
LINE
  8
0
 10
121.636
 11
119.934
 20
-31.8
 21
-34.748
  0
LINE
  8
0
 10
119.934
 11
116.105
 20
-34.748
 21
-39
  0
LINE
  8
0
 10
116.105
 11
90
 20
-39
 21
-39
  0
LINE
  8
0
 10
90
 11
90
 20
-39
 21
-43
  0
LINE
  8
0
 10
90
 11
111.312
 20
-43
 21
-43
  0
LINE
  8
0
 10
111.312
 11
108.5
 20
-43
 21
-45.043
  0
LINE
  8
0
 10
108.5
 11
101.434
 20
-45.043
 21
-48.189
  0
LINE
  8
0
 10
101.434
 11
93.868
 20
-48.189
 21
-49.797
  0
LINE
  8
0
 10
93.868
 11
86.132
 20
-49.797
 21
-49.797
  0
LINE
  8
0
 10
86.132
 11
78.566
 20
-49.797
 21
-48.189
  0
LINE
  8
0
 10
78.566
 11
71.5
 20
-48.189
 21
-45.043
  0
LINE
  8
0
 10
71.5
 11
65.242
 20
-45.043
 21
-40.496
  0
LINE
  8
0
 10
65.242
 11
60.066
 20
-40.496
 21
-34.748
  0
LINE
  8
0
 10
60.066
 11
56.199
 20
-34.748
 21
-28.049
  0
LINE
  8
0
 10
56.199
 11
53.809
 20
-28.049
 21
-20.693
  0
LINE
  8
0
 10
53.809
 11
53
 20
-20.693
 21
-13
  0
LINE
  8
0
 10
53
 11
53.379
 20
92
 21
95.6
  0
LINE
  8
0
 10
53.379
 11
90
 20
95.6
 21
95.6
  0
LINE
  8
0
 10
90
 11
90
 20
95.6
 21
99.6
  0
LINE
  8
0
 10
90
 11
53.799
 20
99.6
 21
99.6
  0
LINE
  8
0
 10
53.799
 11
53.809
 20
99.6
 21
99.693
  0
LINE
  8
0
 10
53.809
 11
56.118
 20
99.693
 21
106.8
  0
LINE
  8
0
 10
56.118
 11
90
 20
106.8
 21
106.8
  0
LINE
  8
0
 10
90
 11
90
 20
106.8
 21
110.8
  0
LINE
  8
0
 10
90
 11
58.364
 20
110.8
 21
110.8
  0
LINE
  8
0
 10
58.364
 11
60.066
 20
110.8
 21
113.748
  0
LINE
  8
0
 10
60.066
 11
63.895
 20
113.748
 21
118
  0
LINE
  8
0
 10
63.895
 11
90
 20
118
 21
118
  0
LINE
  8
0
 10
90
 11
90
 20
118
 21
122
  0
LINE
  8
0
 10
90
 11
68.688
 20
122
 21
122
  0
LINE
  8
0
 10
68.688
 11
71.5
 20
122
 21
124.043
  0
LINE
  8
0
 10
71.5
 11
78.566
 20
124.043
 21
127.189
  0
LINE
  8
0
 10
78.566
 11
86.132
 20
127.189
 21
128.797
  0
LINE
  8
0
 10
86.132
 11
93.868
 20
128.797
 21
128.797
  0
LINE
  8
0
 10
93.868
 11
101.434
 20
128.797
 21
127.189
  0
LINE
  8
0
 10
101.434
 11
108.5
 20
127.189
 21
124.043
  0
LINE
  8
0
 10
108.5
 11
114.758
 20
124.043
 21
119.496
  0
LINE
  8
0
 10
114.758
 11
119.934
 20
119.496
 21
113.748
  0
LINE
  8
0
 10
119.934
 11
123.801
 20
113.748
 21
107.049
  0
LINE
  8
0
 10
123.801
 11
126.191
 20
107.049
 21
99.693
  0
LINE
  8
0
 10
126.191
 11
127
 20
99.693
 21
92
  0
LINE
  8
0
 10
127
 11
126.191
 20
92
 21
84.307
  0
LINE
  8
0
 10
126.191
 11
123.801
 20
84.307
 21
76.951
  0
LINE
  8
0
 10
123.801
 11
119.934
 20
76.951
 21
70.252
  0
LINE
  8
0
 10
119.934
 11
114.758
 20
70.252
 21
64.504
  0
LINE
  8
0
 10
114.758
 11
108.5
 20
64.504
 21
59.957
  0
LINE
  8
0
 10
108.5
 11
101.434
 20
59.957
 21
56.811
  0
LINE
  8
0
 10
101.434
 11
93.868
 20
56.811
 21
55.203
  0
LINE
  8
0
 10
93.868
 11
86.132
 20
55.203
 21
55.203
  0
LINE
  8
0
 10
86.132
 11
78.566
 20
55.203
 21
56.811
  0
LINE
  8
0
 10
78.566
 11
71.5
 20
56.811
 21
59.957
  0
LINE
  8
0
 10
71.5
 11
68.688
 20
59.957
 21
62
  0
LINE
  8
0
 10
68.688
 11
90
 20
62
 21
62
  0
LINE
  8
0
 10
90
 11
90
 20
62
 21
66
  0
LINE
  8
0
 10
90
 11
63.895
 20
66
 21
66
  0
LINE
  8
0
 10
63.895
 11
60.066
 20
66
 21
70.252
  0
LINE
  8
0
 10
60.066
 11
58.364
 20
70.252
 21
73.2
  0
LINE
  8
0
 10
58.364
 11
90
 20
73.2
 21
73.2
  0
LINE
  8
0
 10
90
 11
90
 20
73.2
 21
77.2
  0
LINE
  8
0
 10
90
 11
56.118
 20
77.2
 21
77.2
  0
LINE
  8
0
 10
56.118
 11
53.809
 20
77.2
 21
84.307
  0
LINE
  8
0
 10
53.809
 11
53.799
 20
84.307
 21
84.4
  0
LINE
  8
0
 10
53.799
 11
90
 20
84.4
 21
84.4
  0
LINE
  8
0
 10
90
 11
90
 20
84.4
 21
88.4
  0
LINE
  8
0
 10
90
 11
53.379
 20
88.4
 21
88.4
  0
LINE
  8
0
 10
53.379
 11
53
 20
88.4
 21
92
  0
LINE
  8
0
 10
100
 11
100.481
 20
40
 21
44.574
  0
LINE
  8
0
 10
100.481
 11
101.902
 20
44.574
 21
48.948
  0
LINE
  8
0
 10
101.902
 11
104.202
 20
48.948
 21
52.931
  0
LINE
  8
0
 10
104.202
 11
107.279
 20
52.931
 21
56.349
  0
LINE
  8
0
 10
107.279
 11
111
 20
56.349
 21
59.053
  0
LINE
  8
0
 10
111
 11
115.202
 20
59.053
 21
60.923
  0
LINE
  8
0
 10
115.202
 11
119.7
 20
60.923
 21
61.879
  0
LINE
  8
0
 10
119.7
 11
124.3
 20
61.879
 21
61.879
  0
LINE
  8
0
 10
124.3
 11
128.798
 20
61.879
 21
60.923
  0
LINE
  8
0
 10
128.798
 11
133
 20
60.923
 21
59.053
  0
LINE
  8
0
 10
133
 11
133.348
 20
59.053
 21
58.8
  0
LINE
  8
0
 10
133.348
 11
122
 20
58.8
 21
58.8
  0
LINE
  8
0
 10
122
 11
122
 20
58.8
 21
54.8
  0
LINE
  8
0
 10
122
 11
138.115
 20
54.8
 21
54.8
  0
LINE
  8
0
 10
138.115
 11
139.798
 20
54.8
 21
52.931
  0
LINE
  8
0
 10
139.798
 11
142.098
 20
52.931
 21
48.948
  0
LINE
  8
0
 10
142.098
 11
142.536
 20
48.948
 21
47.6
  0
LINE
  8
0
 10
142.536
 11
122
 20
47.6
 21
47.6
  0
LINE
  8
0
 10
122
 11
122
 20
47.6
 21
43.6
  0
LINE
  8
0
 10
122
 11
143.621
 20
43.6
 21
43.6
  0
LINE
  8
0
 10
143.621
 11
144
 20
43.6
 21
40
  0
LINE
  8
0
 10
144
 11
143.621
 20
40
 21
36.4
  0
LINE
  8
0
 10
143.621
 11
122
 20
36.4
 21
36.4
  0
LINE
  8
0
 10
122
 11
122
 20
36.4
 21
32.4
  0
LINE
  8
0
 10
122
 11
142.536
 20
32.4
 21
32.4
  0
LINE
  8
0
 10
142.536
 11
142.098
 20
32.4
 21
31.052
  0
LINE
  8
0
 10
142.098
 11
139.798
 20
31.052
 21
27.069
  0
LINE
  8
0
 10
139.798
 11
138.115
 20
27.069
 21
25.2
  0
LINE
  8
0
 10
138.115
 11
122
 20
25.2
 21
25.2
  0
LINE
  8
0
 10
122
 11
122
 20
25.2
 21
21.2
  0
LINE
  8
0
 10
122
 11
133.348
 20
21.2
 21
21.2
  0
LINE
  8
0
 10
133.348
 11
133
 20
21.2
 21
20.947
  0
LINE
  8
0
 10
133
 11
128.798
 20
20.947
 21
19.077
  0
LINE
  8
0
 10
128.798
 11
124.3
 20
19.077
 21
18.121
  0
LINE
  8
0
 10
124.3
 11
119.7
 20
18.121
 21
18.121
  0
LINE
  8
0
 10
119.7
 11
115.202
 20
18.121
 21
19.077
  0
LINE
  8
0
 10
115.202
 11
111
 20
19.077
 21
20.947
  0
LINE
  8
0
 10
111
 11
107.279
 20
20.947
 21
23.651
  0
LINE
  8
0
 10
107.279
 11
104.202
 20
23.651
 21
27.069
  0
LINE
  8
0
 10
104.202
 11
101.902
 20
27.069
 21
31.052
  0
LINE
  8
0
 10
101.902
 11
100.481
 20
31.052
 21
35.426
  0
LINE
  8
0
 10
100.481
 11
100
 20
35.426
 21
40
  0
LINE
  8
0
 10
135
 11
135.378
 20
84
 21
87.6
  0
LINE
  8
0
 10
135.378
 11
180
 20
87.6
 21
87.6
  0
LINE
  8
0
 10
180
 11
180
 20
87.6
 21
91.6
  0
LINE
  8
0
 10
180
 11
135.799
 20
91.6
 21
91.6
  0
LINE
  8
0
 10
135.799
 11
135.983
 20
91.6
 21
93.356
  0
LINE
  8
0
 10
135.983
 11
137.752
 20
93.356
 21
98.8
  0
LINE
  8
0
 10
137.752
 11
180
 20
98.8
 21
98.8
  0
LINE
  8
0
 10
180
 11
180
 20
98.8
 21
102.8
  0
LINE
  8
0
 10
180
 11
139.177
 20
102.8
 21
102.8
  0
LINE
  8
0
 10
139.177
 11
143.334
 20
102.8
 21
110
  0
LINE
  8
0
 10
143.334
 11
180
 20
110
 21
110
  0
LINE
  8
0
 10
180
 11
180
 20
110
 21
114
  0
LINE
  8
0
 10
180
 11
146.79
 20
114
 21
114
  0
LINE
  8
0
 10
146.79
 11
149.889
 20
114
 21
117.442
  0
LINE
  8
0
 10
149.889
 11
155.062
 20
117.442
 21
121.2
  0
LINE
  8
0
 10
155.062
 11
180
 20
121.2
 21
121.2
  0
LINE
  8
0
 10
180
 11
180
 20
121.2
 21
125.2
  0
LINE
  8
0
 10
180
 11
162.505
 20
125.2
 21
125.2
  0
LINE
  8
0
 10
162.505
 11
166.094
 20
125.2
 21
126.798
  0
LINE
  8
0
 10
166.094
 11
175.296
 20
126.798
 21
128.753
  0
LINE
  8
0
 10
175.296
 11
184.704
 20
128.753
 21
128.753
  0
LINE
  8
0
 10
184.704
 11
193.906
 20
128.753
 21
126.798
  0
LINE
  8
0
 10
193.906
 11
202.5
 20
126.798
 21
122.971
  0
LINE
  8
0
 10
202.5
 11
210.111
 20
122.971
 21
117.442
  0
LINE
  8
0
 10
210.111
 11
216.406
 20
117.442
 21
110.45
  0
LINE
  8
0
 10
216.406
 11
221.11
 20
110.45
 21
102.303
  0
LINE
  8
0
 10
221.11
 11
224.017
 20
102.303
 21
93.356
  0
LINE
  8
0
 10
224.017
 11
225
 20
93.356
 21
84
  0
LINE
  8
0
 10
225
 11
224.017
 20
84
 21
74.644
  0
LINE
  8
0
 10
224.017
 11
221.11
 20
74.644
 21
65.697
  0
LINE
  8
0
 10
221.11
 11
216.406
 20
65.697
 21
57.55
  0
LINE
  8
0
 10
216.406
 11
210.111
 20
57.55
 21
50.558
  0
LINE
  8
0
 10
210.111
 11
202.5
 20
50.558
 21
45.029
  0
LINE
  8
0
 10
202.5
 11
193.906
 20
45.029
 21
41.202
  0
LINE
  8
0
 10
193.906
 11
184.704
 20
41.202
 21
39.247
  0
LINE
  8
0
 10
184.704
 11
175.296
 20
39.247
 21
39.247
  0
LINE
  8
0
 10
175.296
 11
166.094
 20
39.247
 21
41.202
  0
LINE
  8
0
 10
166.094
 11
162.505
 20
41.202
 21
42.8
  0
LINE
  8
0
 10
162.505
 11
180
 20
42.8
 21
42.8
  0
LINE
  8
0
 10
180
 11
180
 20
42.8
 21
46.8
  0
LINE
  8
0
 10
180
 11
155.062
 20
46.8
 21
46.8
  0
LINE
  8
0
 10
155.062
 11
149.889
 20
46.8
 21
50.558
  0
LINE
  8
0
 10
149.889
 11
146.79
 20
50.558
 21
54
  0
LINE
  8
0
 10
146.79
 11
180
 20
54
 21
54
  0
LINE
  8
0
 10
180
 11
180
 20
54
 21
58
  0
LINE
  8
0
 10
180
 11
143.334
 20
58
 21
58
  0
LINE
  8
0
 10
143.334
 11
139.177
 20
58
 21
65.2
  0
LINE
  8
0
 10
139.177
 11
180
 20
65.2
 21
65.2
  0
LINE
  8
0
 10
180
 11
180
 20
65.2
 21
69.2
  0
LINE
  8
0
 10
180
 11
137.752
 20
69.2
 21
69.2
  0
LINE
  8
0
 10
137.752
 11
135.983
 20
69.2
 21
74.644
  0
LINE
  8
0
 10
135.983
 11
135.799
 20
74.644
 21
76.4
  0
LINE
  8
0
 10
135.799
 11
180
 20
76.4
 21
76.4
  0
LINE
  8
0
 10
180
 11
180
 20
76.4
 21
80.4
  0
LINE
  8
0
 10
180
 11
135.378
 20
80.4
 21
80.4
  0
LINE
  8
0
 10
135.378
 11
135
 20
80.4
 21
84
  0
LINE
  8
0
 10
136
 11
136.962
 20
-7
 21
2.148
  0
LINE
  8
0
 10
136.962
 11
139.804
 20
2.148
 21
10.896
  0
LINE
  8
0
 10
139.804
 11
144.403
 20
10.896
 21
18.863
  0
LINE
  8
0
 10
144.403
 11
150.558
 20
18.863
 21
25.698
  0
LINE
  8
0
 10
150.558
 11
158
 20
25.698
 21
31.105
  0
LINE
  8
0
 10
158
 11
166.403
 20
31.105
 21
34.846
  0
LINE
  8
0
 10
166.403
 11
175.401
 20
34.846
 21
36.759
  0
LINE
  8
0
 10
175.401
 11
184.599
 20
36.759
 21
36.759
  0
LINE
  8
0
 10
184.599
 11
193.597
 20
36.759
 21
34.846
  0
LINE
  8
0
 10
193.597
 11
195.048
 20
34.846
 21
34.2
  0
LINE
  8
0
 10
195.048
 11
180
 20
34.2
 21
34.2
  0
LINE
  8
0
 10
180
 11
180
 20
34.2
 21
30.2
  0
LINE
  8
0
 10
180
 11
203.246
 20
30.2
 21
30.2
  0
LINE
  8
0
 10
203.246
 11
209.442
 20
30.2
 21
25.698
  0
LINE
  8
0
 10
209.442
 11
211.872
 20
25.698
 21
23
  0
LINE
  8
0
 10
211.872
 11
180
 20
23
 21
23
  0
LINE
  8
0
 10
180
 11
180
 20
23
 21
19
  0
LINE
  8
0
 10
180
 11
215.474
 20
19
 21
19
  0
LINE
  8
0
 10
215.474
 11
215.597
 20
19
 21
18.863
  0
LINE
  8
0
 10
215.597
 11
219.674
 20
18.863
 21
11.8
  0
LINE
  8
0
 10
219.674
 11
180
 20
11.8
 21
11.8
  0
LINE
  8
0
 10
180
 11
180
 20
11.8
 21
7.8
  0
LINE
  8
0
 10
180
 11
221.202
 20
7.8
 21
7.8
  0
LINE
  8
0
 10
221.202
 11
223.038
 20
7.8
 21
2.148
  0
LINE
  8
0
 10
223.038
 11
223.201
 20
2.148
 21
0.6
  0
LINE
  8
0
 10
223.201
 11
180
 20
0.6
 21
0.6
  0
LINE
  8
0
 10
180
 11
180
 20
0.6
 21
-3.4
  0
LINE
  8
0
 10
180
 11
223.621
 20
-3.4
 21
-3.4
  0
LINE
  8
0
 10
223.621
 11
224
 20
-3.4
 21
-7
  0
LINE
  8
0
 10
224
 11
223.621
 20
-7
 21
-10.6
  0
LINE
  8
0
 10
223.621
 11
180
 20
-10.6
 21
-10.6
  0
LINE
  8
0
 10
180
 11
180
 20
-10.6
 21
-14.6
  0
LINE
  8
0
 10
180
 11
223.201
 20
-14.6
 21
-14.6
  0
LINE
  8
0
 10
223.201
 11
223.038
 20
-14.6
 21
-16.148
  0
LINE
  8
0
 10
223.038
 11
221.202
 20
-16.148
 21
-21.8
  0
LINE
  8
0
 10
221.202
 11
180
 20
-21.8
 21
-21.8
  0
LINE
  8
0
 10
180
 11
180
 20
-21.8
 21
-25.8
  0
LINE
  8
0
 10
180
 11
219.674
 20
-25.8
 21
-25.8
  0
LINE
  8
0
 10
219.674
 11
215.597
 20
-25.8
 21
-32.863
  0
LINE
  8
0
 10
215.597
 11
215.474
 20
-32.863
 21
-33
  0
LINE
  8
0
 10
215.474
 11
180
 20
-33
 21
-33
  0
LINE
  8
0
 10
180
 11
180
 20
-33
 21
-37
  0
LINE
  8
0
 10
180
 11
211.872
 20
-37
 21
-37
  0
LINE
  8
0
 10
211.872
 11
209.442
 20
-37
 21
-39.698
  0
LINE
  8
0
 10
209.442
 11
203.246
 20
-39.698
 21
-44.2
  0
LINE
  8
0
 10
203.246
 11
180
 20
-44.2
 21
-44.2
  0
LINE
  8
0
 10
180
 11
180
 20
-44.2
 21
-48.2
  0
LINE
  8
0
 10
180
 11
195.048
 20
-48.2
 21
-48.2
  0
LINE
  8
0
 10
195.048
 11
193.597
 20
-48.2
 21
-48.846
  0
LINE
  8
0
 10
193.597
 11
184.599
 20
-48.846
 21
-50.759
  0
LINE
  8
0
 10
184.599
 11
175.401
 20
-50.759
 21
-50.759
  0
LINE
  8
0
 10
175.401
 11
166.403
 20
-50.759
 21
-48.846
  0
LINE
  8
0
 10
166.403
 11
158
 20
-48.846
 21
-45.105
  0
LINE
  8
0
 10
158
 11
150.558
 20
-45.105
 21
-39.698
  0
LINE
  8
0
 10
150.558
 11
144.403
 20
-39.698
 21
-32.863
  0
LINE
  8
0
 10
144.403
 11
139.804
 20
-32.863
 21
-24.896
  0
LINE
  8
0
 10
139.804
 11
136.962
 20
-24.896
 21
-16.148
  0
LINE
  8
0
 10
136.962
 11
136
 20
-16.148
 21
-7
  0
ENDSEC
  0
SECTION
  2
OBJECTS
  0
DICTIONARY
  0
ENDSEC
  0
EOF
