  0
SECTION
  2
BLOCKS
  0
ENDSEC
  0
SECTION
  2
ENTITIES
  0
LINE
  8
0
 10
-50
 11
-48.907
 20
0
 21
10.396
  0
LINE
  8
0
 10
-48.907
 11
-45.677
 20
10.396
 21
20.337
  0
LINE
  8
0
 10
-45.677
 11
-40.451
 20
20.337
 21
29.389
  0
LINE
  8
0
 10
-40.451
 11
-33.457
 20
29.389
 21
37.157
  0
LINE
  8
0
 10
-33.457
 11
-25
 20
37.157
 21
43.301
  0
LINE
  8
0
 10
-25
 11
-15.451
 20
43.301
 21
47.553
  0
LINE
  8
0
 10
-15.451
 11
-5.226
 20
47.553
 21
49.726
  0
LINE
  8
0
 10
-5.226
 11
5.226
 20
49.726
 21
49.726
  0
LINE
  8
0
 10
5.226
 11
15.451
 20
49.726
 21
47.553
  0
LINE
  8
0
 10
15.451
 11
19.5
 20
47.553
 21
45.75
  0
LINE
  8
0
 10
19.5
 11
0
 20
45.75
 21
45.75
  0
LINE
  8
0
 10
0
 11
0
 20
45.75
 21
41.75
  0
LINE
  8
0
 10
0
 11
27.135
 20
41.75
 21
41.75
  0
LINE
  8
0
 10
27.135
 11
33.457
 20
41.75
 21
37.157
  0
LINE
  8
0
 10
33.457
 11
36.975
 20
37.157
 21
33.25
  0
LINE
  8
0
 10
36.975
 11
0
 20
33.25
 21
33.25
  0
LINE
  8
0
 10
0
 11
0
 20
33.25
 21
29.25
  0
LINE
  8
0
 10
0
 11
40.531
 20
29.25
 21
29.25
  0
LINE
  8
0
 10
40.531
 11
45.439
 20
29.25
 21
20.75
  0
LINE
  8
0
 10
45.439
 11
0
 20
20.75
 21
20.75
  0
LINE
  8
0
 10
0
 11
0
 20
20.75
 21
16.75
  0
LINE
  8
0
 10
0
 11
46.842
 20
16.75
 21
16.75
  0
LINE
  8
0
 10
46.842
 11
48.907
 20
16.75
 21
10.396
  0
LINE
  8
0
 10
48.907
 11
49.133
 20
10.396
 21
8.25
  0
LINE
  8
0
 10
49.133
 11
0
 20
8.25
 21
8.25
  0
LINE
  8
0
 10
0
 11
0
 20
8.25
 21
4.25
  0
LINE
  8
0
 10
0
 11
49.553
 20
4.25
 21
4.25
  0
LINE
  8
0
 10
49.553
 11
50
 20
4.25
 21
0
  0
LINE
  8
0
 10
50
 11
49.553
 20
0
 21
-4.25
  0
LINE
  8
0
 10
49.553
 11
0
 20
-4.25
 21
-4.25
  0
LINE
  8
0
 10
0
 11
0
 20
-4.25
 21
-8.25
  0
LINE
  8
0
 10
0
 11
49.133
 20
-8.25
 21
-8.25
  0
LINE
  8
0
 10
49.133
 11
48.907
 20
-8.25
 21
-10.396
  0
LINE
  8
0
 10
48.907
 11
46.842
 20
-10.396
 21
-16.75
  0
LINE
  8
0
 10
46.842
 11
0
 20
-16.75
 21
-16.75
  0
LINE
  8
0
 10
0
 11
0
 20
-16.75
 21
-20.75
  0
LINE
  8
0
 10
0
 11
45.439
 20
-20.75
 21
-20.75
  0
LINE
  8
0
 10
45.439
 11
40.531
 20
-20.75
 21
-29.25
  0
LINE
  8
0
 10
40.531
 11
0
 20
-29.25
 21
-29.25
  0
LINE
  8
0
 10
0
 11
0
 20
-29.25
 21
-33.25
  0
LINE
  8
0
 10
0
 11
36.975
 20
-33.25
 21
-33.25
  0
LINE
  8
0
 10
36.975
 11
33.457
 20
-33.25
 21
-37.157
  0
LINE
  8
0
 10
33.457
 11
27.135
 20
-37.157
 21
-41.75
  0
LINE
  8
0
 10
27.135
 11
0
 20
-41.75
 21
-41.75
  0
LINE
  8
0
 10
0
 11
0
 20
-41.75
 21
-45.75
  0
LINE
  8
0
 10
0
 11
19.5
 20
-45.75
 21
-45.75
  0
LINE
  8
0
 10
19.5
 11
15.451
 20
-45.75
 21
-47.553
  0
LINE
  8
0
 10
15.451
 11
5.226
 20
-47.553
 21
-49.726
  0
LINE
  8
0
 10
5.226
 11
-5.226
 20
-49.726
 21
-49.726
  0
LINE
  8
0
 10
-5.226
 11
-15.451
 20
-49.726
 21
-47.553
  0
LINE
  8
0
 10
-15.451
 11
-25
 20
-47.553
 21
-43.301
  0
LINE
  8
0
 10
-25
 11
-33.457
 20
-43.301
 21
-37.157
  0
LINE
  8
0
 10
-33.457
 11
-40.451
 20
-37.157
 21
-29.389
  0
LINE
  8
0
 10
-40.451
 11
-45.677
 20
-29.389
 21
-20.337
  0
LINE
  8
0
 10
-45.677
 11
-48.907
 20
-20.337
 21
-10.396
  0
LINE
  8
0
 10
-48.907
 11
-50
 20
-10.396
 21
0
  0
LINE
  8
0
 10
-49
 11
-48.553
 20
95
 21
99.25
  0
LINE
  8
0
 10
-48.553
 11
-5
 20
99.25
 21
99.25
  0
LINE
  8
0
 10
-5
 11
-5
 20
99.25
 21
103.25
  0
LINE
  8
0
 10
-5
 11
-48.132
 20
103.25
 21
103.25
  0
LINE
  8
0
 10
-48.132
 11
-48.038
 20
103.25
 21
104.148
  0
LINE
  8
0
 10
-48.038
 11
-45.568
 20
104.148
 21
111.75
  0
LINE
  8
0
 10
-45.568
 11
-5
 20
111.75
 21
111.75
  0
LINE
  8
0
 10
-5
 11
-5
 20
111.75
 21
115.75
  0
LINE
  8
0
 10
-5
 11
-43.549
 20
115.75
 21
115.75
  0
LINE
  8
0
 10
-43.549
 11
-40.597
 20
115.75
 21
120.863
  0
LINE
  8
0
 10
-40.597
 11
-37.547
 20
120.863
 21
124.25
  0
LINE
  8
0
 10
-37.547
 11
-5
 20
124.25
 21
124.25
  0
LINE
  8
0
 10
-5
 11
-5
 20
124.25
 21
128.25
  0
LINE
  8
0
 10
-5
 11
-33.682
 20
128.25
 21
128.25
  0
LINE
  8
0
 10
-33.682
 11
-27
 20
128.25
 21
133.105
  0
LINE
  8
0
 10
-27
 11
-18.813
 20
133.105
 21
136.75
  0
LINE
  8
0
 10
-18.813
 11
-5
 20
136.75
 21
136.75
  0
LINE
  8
0
 10
-5
 11
-5
 20
136.75
 21
138.759
  0
LINE
  8
0
 10
-5
 11
-0.401
 20
138.759
 21
138.759
  0
LINE
  8
0
 10
-0.401
 11
8.597
 20
138.759
 21
136.846
  0
LINE
  8
0
 10
8.597
 11
17
 20
136.846
 21
133.105
  0
LINE
  8
0
 10
17
 11
24.442
 20
133.105
 21
127.698
  0
LINE
  8
0
 10
24.442
 11
30.597
 20
127.698
 21
120.863
  0
LINE
  8
0
 10
30.597
 11
35.196
 20
120.863
 21
112.896
  0
LINE
  8
0
 10
35.196
 11
38.038
 20
112.896
 21
104.148
  0
LINE
  8
0
 10
38.038
 11
39
 20
104.148
 21
95
  0
LINE
  8
0
 10
39
 11
38.038
 20
95
 21
85.852
  0
LINE
  8
0
 10
38.038
 11
35.196
 20
85.852
 21
77.104
  0
LINE
  8
0
 10
35.196
 11
30.597
 20
77.104
 21
69.137
  0
LINE
  8
0
 10
30.597
 11
24.442
 20
69.137
 21
62.302
  0
LINE
  8
0
 10
24.442
 11
17
 20
62.302
 21
56.895
  0
LINE
  8
0
 10
17
 11
8.597
 20
56.895
 21
53.154
  0
LINE
  8
0
 10
8.597
 11
-0.401
 20
53.154
 21
51.241
  0
LINE
  8
0
 10
-0.401
 11
-5
 20
51.241
 21
51.241
  0
LINE
  8
0
 10
-5
 11
-5
 20
51.241
 21
53.25
  0
LINE
  8
0
 10
-5
 11
-18.813
 20
53.25
 21
53.25
  0
LINE
  8
0
 10
-18.813
 11
-27
 20
53.25
 21
56.895
  0
LINE
  8
0
 10
-27
 11
-33.682
 20
56.895
 21
61.75
  0
LINE
  8
0
 10
-33.682
 11
-5
 20
61.75
 21
61.75
  0
LINE
  8
0
 10
-5
 11
-5
 20
61.75
 21
65.75
  0
LINE
  8
0
 10
-5
 11
-37.547
 20
65.75
 21
65.75
  0
LINE
  8
0
 10
-37.547
 11
-40.597
 20
65.75
 21
69.137
  0
LINE
  8
0
 10
-40.597
 11
-43.549
 20
69.137
 21
74.25
  0
LINE
  8
0
 10
-43.549
 11
-5
 20
74.25
 21
74.25
  0
LINE
  8
0
 10
-5
 11
-5
 20
74.25
 21
78.25
  0
LINE
  8
0
 10
-5
 11
-45.568
 20
78.25
 21
78.25
  0
LINE
  8
0
 10
-45.568
 11
-48.038
 20
78.25
 21
85.852
  0
LINE
  8
0
 10
-48.038
 11
-48.132
 20
85.852
 21
86.75
  0
LINE
  8
0
 10
-48.132
 11
-5
 20
86.75
 21
86.75
  0
LINE
  8
0
 10
-5
 11
-5
 20
86.75
 21
90.75
  0
LINE
  8
0
 10
-5
 11
-48.553
 20
90.75
 21
90.75
  0
LINE
  8
0
 10
-48.553
 11
-49
 20
90.75
 21
95
  0
LINE
  8
0
 10
30
 11
30.437
 20
55
 21
59.158
  0
LINE
  8
0
 10
30.437
 11
30.467
 20
59.158
 21
59.25
  0
LINE
  8
0
 10
30.467
 11
50
 20
59.25
 21
59.25
  0
LINE
  8
0
 10
50
 11
50
 20
59.25
 21
63.25
  0
LINE
  8
0
 10
50
 11
31.795
 20
63.25
 21
63.25
  0
LINE
  8
0
 10
31.795
 11
33.82
 20
63.25
 21
66.756
  0
LINE
  8
0
 10
33.82
 11
36.617
 20
66.756
 21
69.863
  0
LINE
  8
0
 10
36.617
 11
39.214
 20
69.863
 21
71.75
  0
LINE
  8
0
 10
39.214
 11
50
 20
71.75
 21
71.75
  0
LINE
  8
0
 10
50
 11
50
 20
71.75
 21
74.89
  0
LINE
  8
0
 10
50
 11
52.091
 20
74.89
 21
74.89
  0
LINE
  8
0
 10
52.091
 11
56.18
 20
74.89
 21
74.021
  0
LINE
  8
0
 10
56.18
 11
60
 20
74.021
 21
72.321
  0
LINE
  8
0
 10
60
 11
63.383
 20
72.321
 21
69.863
  0
LINE
  8
0
 10
63.383
 11
66.18
 20
69.863
 21
66.756
  0
LINE
  8
0
 10
66.18
 11
68.271
 20
66.756
 21
63.135
  0
LINE
  8
0
 10
68.271
 11
69.563
 20
63.135
 21
59.158
  0
LINE
  8
0
 10
69.563
 11
70
 20
59.158
 21
55
  0
LINE
  8
0
 10
70
 11
69.563
 20
55
 21
50.842
  0
LINE
  8
0
 10
69.563
 11
68.271
 20
50.842
 21
46.865
  0
LINE
  8
0
 10
68.271
 11
66.18
 20
46.865
 21
43.244
  0
LINE
  8
0
 10
66.18
 11
63.383
 20
43.244
 21
40.137
  0
LINE
  8
0
 10
63.383
 11
60
 20
40.137
 21
37.679
  0
LINE
  8
0
 10
60
 11
56.18
 20
37.679
 21
35.979
  0
LINE
  8
0
 10
56.18
 11
52.091
 20
35.979
 21
35.11
  0
LINE
  8
0
 10
52.091
 11
50
 20
35.11
 21
35.11
  0
LINE
  8
0
 10
50
 11
50
 20
35.11
 21
38.25
  0
LINE
  8
0
 10
50
 11
39.214
 20
38.25
 21
38.25
  0
LINE
  8
0
 10
39.214
 11
36.617
 20
38.25
 21
40.137
  0
LINE
  8
0
 10
36.617
 11
33.82
 20
40.137
 21
43.244
  0
LINE
  8
0
 10
33.82
 11
31.795
 20
43.244
 21
46.75
  0
LINE
  8
0
 10
31.795
 11
50
 20
46.75
 21
46.75
  0
LINE
  8
0
 10
50
 11
50
 20
46.75
 21
50.75
  0
LINE
  8
0
 10
50
 11
30.467
 20
50.75
 21
50.75
  0
LINE
  8
0
 10
30.467
 11
30.437
 20
50.75
 21
50.842
  0
LINE
  8
0
 10
30.437
 11
30
 20
50.842
 21
55
  0
LINE
  8
0
 10
53
 11
53.809
 20
-15
 21
-7.307
  0
LINE
  8
0
 10
53.809
 11
56.199
 20
-7.307
 21
0.049
  0
LINE
  8
0
 10
56.199
 11
60.066
 20
0.049
 21
6.748
  0
LINE
  8
0
 10
60.066
 11
65.242
 20
6.748
 21
12.496
  0
LINE
  8
0
 10
65.242
 11
71.5
 20
12.496
 21
17.043
  0
LINE
  8
0
 10
71.5
 11
78.566
 20
17.043
 21
20.189
  0
LINE
  8
0
 10
78.566
 11
86.132
 20
20.189
 21
21.797
  0
LINE
  8
0
 10
86.132
 11
93.868
 20
21.797
 21
21.797
  0
LINE
  8
0
 10
93.868
 11
101.434
 20
21.797
 21
20.189
  0
LINE
  8
0
 10
101.434
 11
105.789
 20
20.189
 21
18.25
  0
LINE
  8
0
 10
105.789
 11
90
 20
18.25
 21
18.25
  0
LINE
  8
0
 10
90
 11
90
 20
18.25
 21
14.25
  0
LINE
  8
0
 10
90
 11
112.344
 20
14.25
 21
14.25
  0
LINE
  8
0
 10
112.344
 11
114.758
 20
14.25
 21
12.496
  0
LINE
  8
0
 10
114.758
 11
119.934
 20
12.496
 21
6.748
  0
LINE
  8
0
 10
119.934
 11
120.51
 20
6.748
 21
5.75
  0
LINE
  8
0
 10
120.51
 11
90
 20
5.75
 21
5.75
  0
LINE
  8
0
 10
90
 11
90
 20
5.75
 21
1.75
  0
LINE
  8
0
 10
90
 11
122.819
 20
1.75
 21
1.75
  0
LINE
  8
0
 10
122.819
 11
123.801
 20
1.75
 21
0.049
  0
LINE
  8
0
 10
123.801
 11
126.01
 20
0.049
 21
-6.75
  0
LINE
  8
0
 10
126.01
 11
90
 20
-6.75
 21
-6.75
  0
LINE
  8
0
 10
90
 11
90
 20
-6.75
 21
-10.75
  0
LINE
  8
0
 10
90
 11
126.553
 20
-10.75
 21
-10.75
  0
LINE
  8
0
 10
126.553
 11
127
 20
-10.75
 21
-15
  0
LINE
  8
0
 10
127
 11
126.553
 20
-15
 21
-19.25
  0
LINE
  8
0
 10
126.553
 11
90
 20
-19.25
 21
-19.25
  0
LINE
  8
0
 10
90
 11
90
 20
-19.25
 21
-23.25
  0
LINE
  8
0
 10
90
 11
126.01
 20
-23.25
 21
-23.25
  0
LINE
  8
0
 10
126.01
 11
123.801
 20
-23.25
 21
-30.049
  0
LINE
  8
0
 10
123.801
 11
122.819
 20
-30.049
 21
-31.75
  0
LINE
  8
0
 10
122.819
 11
90
 20
-31.75
 21
-31.75
  0
LINE
  8
0
 10
90
 11
90
 20
-31.75
 21
-35.75
  0
LINE
  8
0
 10
90
 11
120.51
 20
-35.75
 21
-35.75
  0
LINE
  8
0
 10
120.51
 11
119.934
 20
-35.75
 21
-36.748
  0
LINE
  8
0
 10
119.934
 11
114.758
 20
-36.748
 21
-42.496
  0
LINE
  8
0
 10
114.758
 11
112.344
 20
-42.496
 21
-44.25
  0
LINE
  8
0
 10
112.344
 11
90
 20
-44.25
 21
-44.25
  0
LINE
  8
0
 10
90
 11
90
 20
-44.25
 21
-48.25
  0
LINE
  8
0
 10
90
 11
105.789
 20
-48.25
 21
-48.25
  0
LINE
  8
0
 10
105.789
 11
101.434
 20
-48.25
 21
-50.189
  0
LINE
  8
0
 10
101.434
 11
93.868
 20
-50.189
 21
-51.797
  0
LINE
  8
0
 10
93.868
 11
86.132
 20
-51.797
 21
-51.797
  0
LINE
  8
0
 10
86.132
 11
78.566
 20
-51.797
 21
-50.189
  0
LINE
  8
0
 10
78.566
 11
71.5
 20
-50.189
 21
-47.043
  0
LINE
  8
0
 10
71.5
 11
65.242
 20
-47.043
 21
-42.496
  0
LINE
  8
0
 10
65.242
 11
60.066
 20
-42.496
 21
-36.748
  0
LINE
  8
0
 10
60.066
 11
56.199
 20
-36.748
 21
-30.049
  0
LINE
  8
0
 10
56.199
 11
53.809
 20
-30.049
 21
-22.693
  0
LINE
  8
0
 10
53.809
 11
53
 20
-22.693
 21
-15
  0
LINE
  8
0
 10
53
 11
53.447
 20
100
 21
104.25
  0
LINE
  8
0
 10
53.447
 11
90
 20
104.25
 21
104.25
  0
LINE
  8
0
 10
90
 11
90
 20
104.25
 21
108.25
  0
LINE
  8
0
 10
90
 11
53.99
 20
108.25
 21
108.25
  0
LINE
  8
0
 10
53.99
 11
56.199
 20
108.25
 21
115.049
  0
LINE
  8
0
 10
56.199
 11
57.181
 20
115.049
 21
116.75
  0
LINE
  8
0
 10
57.181
 11
90
 20
116.75
 21
116.75
  0
LINE
  8
0
 10
90
 11
90
 20
116.75
 21
120.75
  0
LINE
  8
0
 10
90
 11
59.49
 20
120.75
 21
120.75
  0
LINE
  8
0
 10
59.49
 11
60.066
 20
120.75
 21
121.748
  0
LINE
  8
0
 10
60.066
 11
65.242
 20
121.748
 21
127.496
  0
LINE
  8
0
 10
65.242
 11
67.656
 20
127.496
 21
129.25
  0
LINE
  8
0
 10
67.656
 11
90
 20
129.25
 21
129.25
  0
LINE
  8
0
 10
90
 11
90
 20
129.25
 21
133.25
  0
LINE
  8
0
 10
90
 11
74.211
 20
133.25
 21
133.25
  0
LINE
  8
0
 10
74.211
 11
78.566
 20
133.25
 21
135.189
  0
LINE
  8
0
 10
78.566
 11
86.132
 20
135.189
 21
136.797
  0
LINE
  8
0
 10
86.132
 11
93.868
 20
136.797
 21
136.797
  0
LINE
  8
0
 10
93.868
 11
101.434
 20
136.797
 21
135.189
  0
LINE
  8
0
 10
101.434
 11
108.5
 20
135.189
 21
132.043
  0
LINE
  8
0
 10
108.5
 11
114.758
 20
132.043
 21
127.496
  0
LINE
  8
0
 10
114.758
 11
119.934
 20
127.496
 21
121.748
  0
LINE
  8
0
 10
119.934
 11
123.801
 20
121.748
 21
115.049
  0
LINE
  8
0
 10
123.801
 11
126.191
 20
115.049
 21
107.693
  0
LINE
  8
0
 10
126.191
 11
127
 20
107.693
 21
100
  0
LINE
  8
0
 10
127
 11
126.191
 20
100
 21
92.307
  0
LINE
  8
0
 10
126.191
 11
123.801
 20
92.307
 21
84.951
  0
LINE
  8
0
 10
123.801
 11
119.934
 20
84.951
 21
78.252
  0
LINE
  8
0
 10
119.934
 11
114.758
 20
78.252
 21
72.504
  0
LINE
  8
0
 10
114.758
 11
108.5
 20
72.504
 21
67.957
  0
LINE
  8
0
 10
108.5
 11
101.434
 20
67.957
 21
64.811
  0
LINE
  8
0
 10
101.434
 11
93.868
 20
64.811
 21
63.203
  0
LINE
  8
0
 10
93.868
 11
86.132
 20
63.203
 21
63.203
  0
LINE
  8
0
 10
86.132
 11
78.566
 20
63.203
 21
64.811
  0
LINE
  8
0
 10
78.566
 11
74.211
 20
64.811
 21
66.75
  0
LINE
  8
0
 10
74.211
 11
90
 20
66.75
 21
66.75
  0
LINE
  8
0
 10
90
 11
90
 20
66.75
 21
70.75
  0
LINE
  8
0
 10
90
 11
67.656
 20
70.75
 21
70.75
  0
LINE
  8
0
 10
67.656
 11
65.242
 20
70.75
 21
72.504
  0
LINE
  8
0
 10
65.242
 11
60.066
 20
72.504
 21
78.252
  0
LINE
  8
0
 10
60.066
 11
59.49
 20
78.252
 21
79.25
  0
LINE
  8
0
 10
59.49
 11
90
 20
79.25
 21
79.25
  0
LINE
  8
0
 10
90
 11
90
 20
79.25
 21
83.25
  0
LINE
  8
0
 10
90
 11
57.181
 20
83.25
 21
83.25
  0
LINE
  8
0
 10
57.181
 11
56.199
 20
83.25
 21
84.951
  0
LINE
  8
0
 10
56.199
 11
53.99
 20
84.951
 21
91.75
  0
LINE
  8
0
 10
53.99
 11
90
 20
91.75
 21
91.75
  0
LINE
  8
0
 10
90
 11
90
 20
91.75
 21
95.75
  0
LINE
  8
0
 10
90
 11
53.447
 20
95.75
 21
95.75
  0
LINE
  8
0
 10
53.447
 11
53
 20
95.75
 21
100
  0
LINE
  8
0
 10
110
 11
110.437
 20
30
 21
34.158
  0
LINE
  8
0
 10
110.437
 11
111.729
 20
34.158
 21
38.135
  0
LINE
  8
0
 10
111.729
 11
113.82
 20
38.135
 21
41.756
  0
LINE
  8
0
 10
113.82
 11
116.617
 20
41.756
 21
44.863
  0
LINE
  8
0
 10
116.617
 11
120
 20
44.863
 21
47.321
  0
LINE
  8
0
 10
120
 11
123.82
 20
47.321
 21
49.021
  0
LINE
  8
0
 10
123.82
 11
127.909
 20
49.021
 21
49.89
  0
LINE
  8
0
 10
127.909
 11
130
 20
49.89
 21
49.89
  0
LINE
  8
0
 10
130
 11
130
 20
49.89
 21
46.75
  0
LINE
  8
0
 10
130
 11
140.786
 20
46.75
 21
46.75
  0
LINE
  8
0
 10
140.786
 11
143.383
 20
46.75
 21
44.863
  0
LINE
  8
0
 10
143.383
 11
146.18
 20
44.863
 21
41.756
  0
LINE
  8
0
 10
146.18
 11
148.205
 20
41.756
 21
38.25
  0
LINE
  8
0
 10
148.205
 11
130
 20
38.25
 21
38.25
  0
LINE
  8
0
 10
130
 11
130
 20
38.25
 21
34.25
  0
LINE
  8
0
 10
130
 11
149.533
 20
34.25
 21
34.25
  0
LINE
  8
0
 10
149.533
 11
149.563
 20
34.25
 21
34.158
  0
LINE
  8
0
 10
149.563
 11
150
 20
34.158
 21
30
  0
LINE
  8
0
 10
150
 11
149.563
 20
30
 21
25.842
  0
LINE
  8
0
 10
149.563
 11
149.533
 20
25.842
 21
25.75
  0
LINE
  8
0
 10
149.533
 11
130
 20
25.75
 21
25.75
  0
LINE
  8
0
 10
130
 11
130
 20
25.75
 21
21.75
  0
LINE
  8
0
 10
130
 11
148.205
 20
21.75
 21
21.75
  0
LINE
  8
0
 10
148.205
 11
146.18
 20
21.75
 21
18.244
  0
LINE
  8
0
 10
146.18
 11
143.383
 20
18.244
 21
15.137
  0
LINE
  8
0
 10
143.383
 11
140.786
 20
15.137
 21
13.25
  0
LINE
  8
0
 10
140.786
 11
130
 20
13.25
 21
13.25
  0
LINE
  8
0
 10
130
 11
130
 20
13.25
 21
10.11
  0
LINE
  8
0
 10
130
 11
127.909
 20
10.11
 21
10.11
  0
LINE
  8
0
 10
127.909
 11
123.82
 20
10.11
 21
10.979
  0
LINE
  8
0
 10
123.82
 11
120
 20
10.979
 21
12.679
  0
LINE
  8
0
 10
120
 11
116.617
 20
12.679
 21
15.137
  0
LINE
  8
0
 10
116.617
 11
113.82
 20
15.137
 21
18.244
  0
LINE
  8
0
 10
113.82
 11
111.729
 20
18.244
 21
21.865
  0
LINE
  8
0
 10
111.729
 11
110.437
 20
21.865
 21
25.842
  0
LINE
  8
0
 10
110.437
 11
110
 20
25.842
 21
30
  0
LINE
  8
0
 10
130
 11
130.447
 20
85
 21
89.25
  0
LINE
  8
0
 10
130.447
 11
180
 20
89.25
 21
89.25
  0
LINE
  8
0
 10
180
 11
180
 20
89.25
 21
93.25
  0
LINE
  8
0
 10
180
 11
130.867
 20
93.25
 21
93.25
  0
LINE
  8
0
 10
130.867
 11
131.093
 20
93.25
 21
95.396
  0
LINE
  8
0
 10
131.093
 11
133.158
 20
95.396
 21
101.75
  0
LINE
  8
0
 10
133.158
 11
180
 20
101.75
 21
101.75
  0
LINE
  8
0
 10
180
 11
180
 20
101.75
 21
105.75
  0
LINE
  8
0
 10
180
 11
134.561
 20
105.75
 21
105.75
  0
LINE
  8
0
 10
134.561
 11
139.469
 20
105.75
 21
114.25
  0
LINE
  8
0
 10
139.469
 11
180
 20
114.25
 21
114.25
  0
LINE
  8
0
 10
180
 11
180
 20
114.25
 21
118.25
  0
LINE
  8
0
 10
180
 11
143.025
 20
118.25
 21
118.25
  0
LINE
  8
0
 10
143.025
 11
146.543
 20
118.25
 21
122.157
  0
LINE
  8
0
 10
146.543
 11
152.865
 20
122.157
 21
126.75
  0
LINE
  8
0
 10
152.865
 11
180
 20
126.75
 21
126.75
  0
LINE
  8
0
 10
180
 11
180
 20
126.75
 21
130.75
  0
LINE
  8
0
 10
180
 11
160.5
 20
130.75
 21
130.75
  0
LINE
  8
0
 10
160.5
 11
164.549
 20
130.75
 21
132.553
  0
LINE
  8
0
 10
164.549
 11
174.774
 20
132.553
 21
134.726
  0
LINE
  8
0
 10
174.774
 11
185.226
 20
134.726
 21
134.726
  0
LINE
  8
0
 10
185.226
 11
195.451
 20
134.726
 21
132.553
  0
LINE
  8
0
 10
195.451
 11
205
 20
132.553
 21
128.301
  0
LINE
  8
0
 10
205
 11
213.457
 20
128.301
 21
122.157
  0
LINE
  8
0
 10
213.457
 11
220.451
 20
122.157
 21
114.389
  0
LINE
  8
0
 10
220.451
 11
225.677
 20
114.389
 21
105.337
  0
LINE
  8
0
 10
225.677
 11
228.907
 20
105.337
 21
95.396
  0
LINE
  8
0
 10
228.907
 11
230
 20
95.396
 21
85
  0
LINE
  8
0
 10
230
 11
228.907
 20
85
 21
74.604
  0
LINE
  8
0
 10
228.907
 11
225.677
 20
74.604
 21
64.663
  0
LINE
  8
0
 10
225.677
 11
220.451
 20
64.663
 21
55.611
  0
LINE
  8
0
 10
220.451
 11
213.457
 20
55.611
 21
47.843
  0
LINE
  8
0
 10
213.457
 11
205
 20
47.843
 21
41.699
  0
LINE
  8
0
 10
205
 11
195.451
 20
41.699
 21
37.447
  0
LINE
  8
0
 10
195.451
 11
185.226
 20
37.447
 21
35.274
  0
LINE
  8
0
 10
185.226
 11
174.774
 20
35.274
 21
35.274
  0
LINE
  8
0
 10
174.774
 11
164.549
 20
35.274
 21
37.447
  0
LINE
  8
0
 10
164.549
 11
160.5
 20
37.447
 21
39.25
  0
LINE
  8
0
 10
160.5
 11
180
 20
39.25
 21
39.25
  0
LINE
  8
0
 10
180
 11
180
 20
39.25
 21
43.25
  0
LINE
  8
0
 10
180
 11
152.865
 20
43.25
 21
43.25
  0
LINE
  8
0
 10
152.865
 11
146.543
 20
43.25
 21
47.843
  0
LINE
  8
0
 10
146.543
 11
143.025
 20
47.843
 21
51.75
  0
LINE
  8
0
 10
143.025
 11
180
 20
51.75
 21
51.75
  0
LINE
  8
0
 10
180
 11
180
 20
51.75
 21
55.75
  0
LINE
  8
0
 10
180
 11
139.469
 20
55.75
 21
55.75
  0
LINE
  8
0
 10
139.469
 11
134.561
 20
55.75
 21
64.25
  0
LINE
  8
0
 10
134.561
 11
180
 20
64.25
 21
64.25
  0
LINE
  8
0
 10
180
 11
180
 20
64.25
 21
68.25
  0
LINE
  8
0
 10
180
 11
133.158
 20
68.25
 21
68.25
  0
LINE
  8
0
 10
133.158
 11
131.093
 20
68.25
 21
74.604
  0
LINE
  8
0
 10
131.093
 11
130.867
 20
74.604
 21
76.75
  0
LINE
  8
0
 10
130.867
 11
180
 20
76.75
 21
76.75
  0
LINE
  8
0
 10
180
 11
180
 20
76.75
 21
80.75
  0
LINE
  8
0
 10
180
 11
130.447
 20
80.75
 21
80.75
  0
LINE
  8
0
 10
130.447
 11
130
 20
80.75
 21
85
  0
LINE
  8
0
 10
141
 11
141.962
 20
-10
 21
-0.852
  0
LINE
  8
0
 10
141.962
 11
144.804
 20
-0.852
 21
7.896
  0
LINE
  8
0
 10
144.804
 11
149.403
 20
7.896
 21
15.863
  0
LINE
  8
0
 10
149.403
 11
155.558
 20
15.863
 21
22.698
  0
LINE
  8
0
 10
155.558
 11
163
 20
22.698
 21
28.105
  0
LINE
  8
0
 10
163
 11
171.403
 20
28.105
 21
31.846
  0
LINE
  8
0
 10
171.403
 11
180.401
 20
31.846
 21
33.759
  0
LINE
  8
0
 10
180.401
 11
185
 20
33.759
 21
33.759
  0
LINE
  8
0
 10
185
 11
185
 20
33.759
 21
31.75
  0
LINE
  8
0
 10
185
 11
198.813
 20
31.75
 21
31.75
  0
LINE
  8
0
 10
198.813
 11
207
 20
31.75
 21
28.105
  0
LINE
  8
0
 10
207
 11
213.682
 20
28.105
 21
23.25
  0
LINE
  8
0
 10
213.682
 11
185
 20
23.25
 21
23.25
  0
LINE
  8
0
 10
185
 11
185
 20
23.25
 21
19.25
  0
LINE
  8
0
 10
185
 11
217.547
 20
19.25
 21
19.25
  0
LINE
  8
0
 10
217.547
 11
220.597
 20
19.25
 21
15.863
  0
LINE
  8
0
 10
220.597
 11
223.549
 20
15.863
 21
10.75
  0
LINE
  8
0
 10
223.549
 11
185
 20
10.75
 21
10.75
  0
LINE
  8
0
 10
185
 11
185
 20
10.75
 21
6.75
  0
LINE
  8
0
 10
185
 11
225.568
 20
6.75
 21
6.75
  0
LINE
  8
0
 10
225.568
 11
228.038
 20
6.75
 21
-0.852
  0
LINE
  8
0
 10
228.038
 11
228.132
 20
-0.852
 21
-1.75
  0
LINE
  8
0
 10
228.132
 11
185
 20
-1.75
 21
-1.75
  0
LINE
  8
0
 10
185
 11
185
 20
-1.75
 21
-5.75
  0
LINE
  8
0
 10
185
 11
228.553
 20
-5.75
 21
-5.75
  0
LINE
  8
0
 10
228.553
 11
229
 20
-5.75
 21
-10
  0
LINE
  8
0
 10
229
 11
228.553
 20
-10
 21
-14.25
  0
LINE
  8
0
 10
228.553
 11
185
 20
-14.25
 21
-14.25
  0
LINE
  8
0
 10
185
 11
185
 20
-14.25
 21
-18.25
  0
LINE
  8
0
 10
185
 11
228.132
 20
-18.25
 21
-18.25
  0
LINE
  8
0
 10
228.132
 11
228.038
 20
-18.25
 21
-19.148
  0
LINE
  8
0
 10
228.038
 11
225.568
 20
-19.148
 21
-26.75
  0
LINE
  8
0
 10
225.568
 11
185
 20
-26.75
 21
-26.75
  0
LINE
  8
0
 10
185
 11
185
 20
-26.75
 21
-30.75
  0
LINE
  8
0
 10
185
 11
223.549
 20
-30.75
 21
-30.75
  0
LINE
  8
0
 10
223.549
 11
220.597
 20
-30.75
 21
-35.863
  0
LINE
  8
0
 10
220.597
 11
217.547
 20
-35.863
 21
-39.25
  0
LINE
  8
0
 10
217.547
 11
185
 20
-39.25
 21
-39.25
  0
LINE
  8
0
 10
185
 11
185
 20
-39.25
 21
-43.25
  0
LINE
  8
0
 10
185
 11
213.682
 20
-43.25
 21
-43.25
  0
LINE
  8
0
 10
213.682
 11
207
 20
-43.25
 21
-48.105
  0
LINE
  8
0
 10
207
 11
198.813
 20
-48.105
 21
-51.75
  0
LINE
  8
0
 10
198.813
 11
185
 20
-51.75
 21
-51.75
  0
LINE
  8
0
 10
185
 11
185
 20
-51.75
 21
-53.759
  0
LINE
  8
0
 10
185
 11
180.401
 20
-53.759
 21
-53.759
  0
LINE
  8
0
 10
180.401
 11
171.403
 20
-53.759
 21
-51.846
  0
LINE
  8
0
 10
171.403
 11
163
 20
-51.846
 21
-48.105
  0
LINE
  8
0
 10
163
 11
155.558
 20
-48.105
 21
-42.698
  0
LINE
  8
0
 10
155.558
 11
149.403
 20
-42.698
 21
-35.863
  0
LINE
  8
0
 10
149.403
 11
144.804
 20
-35.863
 21
-27.896
  0
LINE
  8
0
 10
144.804
 11
141.962
 20
-27.896
 21
-19.148
  0
LINE
  8
0
 10
141.962
 11
141
 20
-19.148
 21
-10
  0
ENDSEC
  0
SECTION
  2
OBJECTS
  0
DICTIONARY
  0
ENDSEC
  0
EOF
