  0
SECTION
  2
BLOCKS
  0
ENDSEC
  0
SECTION
  2
ENTITIES
  0
LINE
  8
0
 10
0
 11
0
 20
-19
 21
-10
  0
LINE
  8
0
 10
0
 11
50
 20
-10
 21
-10
  0
LINE
  8
0
 10
50
 11
50
 20
-10
 21
-19
  0
LINE
  8
0
 10
50
 11
48
 20
-19
 21
-19
  0
LINE
  8
0
 10
48
 11
48
 20
-19
 21
-15
  0
LINE
  8
0
 10
48
 11
46
 20
-15
 21
-15
  0
LINE
  8
0
 10
46
 11
46
 20
-15
 21
-19
  0
LINE
  8
0
 10
46
 11
44
 20
-19
 21
-19
  0
LINE
  8
0
 10
44
 11
44
 20
-19
 21
-15
  0
LINE
  8
0
 10
44
 11
42
 20
-15
 21
-15
  0
LINE
  8
0
 10
42
 11
42
 20
-15
 21
-19
  0
LINE
  8
0
 10
42
 11
40
 20
-19
 21
-19
  0
LINE
  8
0
 10
40
 11
40
 20
-19
 21
-15
  0
LINE
  8
0
 10
40
 11
38
 20
-15
 21
-15
  0
LINE
  8
0
 10
38
 11
38
 20
-15
 21
-19
  0
LINE
  8
0
 10
38
 11
36
 20
-19
 21
-19
  0
LINE
  8
0
 10
36
 11
36
 20
-19
 21
-15
  0
LINE
  8
0
 10
36
 11
34
 20
-15
 21
-15
  0
LINE
  8
0
 10
34
 11
34
 20
-15
 21
-19
  0
LINE
  8
0
 10
34
 11
32
 20
-19
 21
-19
  0
LINE
  8
0
 10
32
 11
32
 20
-19
 21
-15
  0
LINE
  8
0
 10
32
 11
30
 20
-15
 21
-15
  0
LINE
  8
0
 10
30
 11
30
 20
-15
 21
-19
  0
LINE
  8
0
 10
30
 11
28
 20
-19
 21
-19
  0
LINE
  8
0
 10
28
 11
28
 20
-19
 21
-15
  0
LINE
  8
0
 10
28
 11
26
 20
-15
 21
-15
  0
LINE
  8
0
 10
26
 11
26
 20
-15
 21
-19
  0
LINE
  8
0
 10
26
 11
24
 20
-19
 21
-19
  0
LINE
  8
0
 10
24
 11
24
 20
-19
 21
-15
  0
LINE
  8
0
 10
24
 11
22
 20
-15
 21
-15
  0
LINE
  8
0
 10
22
 11
22
 20
-15
 21
-19
  0
LINE
  8
0
 10
22
 11
20
 20
-19
 21
-19
  0
LINE
  8
0
 10
20
 11
20
 20
-19
 21
-15
  0
LINE
  8
0
 10
20
 11
18
 20
-15
 21
-15
  0
LINE
  8
0
 10
18
 11
18
 20
-15
 21
-19
  0
LINE
  8
0
 10
18
 11
16
 20
-19
 21
-19
  0
LINE
  8
0
 10
16
 11
16
 20
-19
 21
-15
  0
LINE
  8
0
 10
16
 11
14
 20
-15
 21
-15
  0
LINE
  8
0
 10
14
 11
14
 20
-15
 21
-19
  0
LINE
  8
0
 10
14
 11
12
 20
-19
 21
-19
  0
LINE
  8
0
 10
12
 11
12
 20
-19
 21
-15
  0
LINE
  8
0
 10
12
 11
10
 20
-15
 21
-15
  0
LINE
  8
0
 10
10
 11
10
 20
-15
 21
-19
  0
LINE
  8
0
 10
10
 11
8
 20
-19
 21
-19
  0
LINE
  8
0
 10
8
 11
8
 20
-19
 21
-15
  0
LINE
  8
0
 10
8
 11
6
 20
-15
 21
-15
  0
LINE
  8
0
 10
6
 11
6
 20
-15
 21
-19
  0
LINE
  8
0
 10
6
 11
4
 20
-19
 21
-19
  0
LINE
  8
0
 10
4
 11
4
 20
-19
 21
-15
  0
LINE
  8
0
 10
4
 11
2
 20
-15
 21
-15
  0
LINE
  8
0
 10
2
 11
2
 20
-15
 21
-19
  0
LINE
  8
0
 10
2
 11
0
 20
-19
 21
-19
  0
LINE
  8
0
 10
0
 11
0
 20
-9
 21
0
  0
LINE
  8
0
 10
0
 11
50
 20
0
 21
0
  0
LINE
  8
0
 10
50
 11
50
 20
0
 21
-9
  0
LINE
  8
0
 10
50
 11
48
 20
-9
 21
-9
  0
LINE
  8
0
 10
48
 11
48
 20
-9
 21
-5
  0
LINE
  8
0
 10
48
 11
46
 20
-5
 21
-5
  0
LINE
  8
0
 10
46
 11
46
 20
-5
 21
-9
  0
LINE
  8
0
 10
46
 11
44
 20
-9
 21
-9
  0
LINE
  8
0
 10
44
 11
44
 20
-9
 21
-5
  0
LINE
  8
0
 10
44
 11
42
 20
-5
 21
-5
  0
LINE
  8
0
 10
42
 11
42
 20
-5
 21
-9
  0
LINE
  8
0
 10
42
 11
40
 20
-9
 21
-9
  0
LINE
  8
0
 10
40
 11
40
 20
-9
 21
-5
  0
LINE
  8
0
 10
40
 11
38
 20
-5
 21
-5
  0
LINE
  8
0
 10
38
 11
38
 20
-5
 21
-9
  0
LINE
  8
0
 10
38
 11
36
 20
-9
 21
-9
  0
LINE
  8
0
 10
36
 11
36
 20
-9
 21
-5
  0
LINE
  8
0
 10
36
 11
34
 20
-5
 21
-5
  0
LINE
  8
0
 10
34
 11
34
 20
-5
 21
-9
  0
LINE
  8
0
 10
34
 11
32
 20
-9
 21
-9
  0
LINE
  8
0
 10
32
 11
32
 20
-9
 21
-5
  0
LINE
  8
0
 10
32
 11
30
 20
-5
 21
-5
  0
LINE
  8
0
 10
30
 11
30
 20
-5
 21
-9
  0
LINE
  8
0
 10
30
 11
28
 20
-9
 21
-9
  0
LINE
  8
0
 10
28
 11
28
 20
-9
 21
-5
  0
LINE
  8
0
 10
28
 11
26
 20
-5
 21
-5
  0
LINE
  8
0
 10
26
 11
26
 20
-5
 21
-9
  0
LINE
  8
0
 10
26
 11
24
 20
-9
 21
-9
  0
LINE
  8
0
 10
24
 11
24
 20
-9
 21
-5
  0
LINE
  8
0
 10
24
 11
22
 20
-5
 21
-5
  0
LINE
  8
0
 10
22
 11
22
 20
-5
 21
-9
  0
LINE
  8
0
 10
22
 11
20
 20
-9
 21
-9
  0
LINE
  8
0
 10
20
 11
20
 20
-9
 21
-5
  0
LINE
  8
0
 10
20
 11
18
 20
-5
 21
-5
  0
LINE
  8
0
 10
18
 11
18
 20
-5
 21
-9
  0
LINE
  8
0
 10
18
 11
16
 20
-9
 21
-9
  0
LINE
  8
0
 10
16
 11
16
 20
-9
 21
-5
  0
LINE
  8
0
 10
16
 11
14
 20
-5
 21
-5
  0
LINE
  8
0
 10
14
 11
14
 20
-5
 21
-9
  0
LINE
  8
0
 10
14
 11
12
 20
-9
 21
-9
  0
LINE
  8
0
 10
12
 11
12
 20
-9
 21
-5
  0
LINE
  8
0
 10
12
 11
10
 20
-5
 21
-5
  0
LINE
  8
0
 10
10
 11
10
 20
-5
 21
-9
  0
LINE
  8
0
 10
10
 11
8
 20
-9
 21
-9
  0
LINE
  8
0
 10
8
 11
8
 20
-9
 21
-5
  0
LINE
  8
0
 10
8
 11
6
 20
-5
 21
-5
  0
LINE
  8
0
 10
6
 11
6
 20
-5
 21
-9
  0
LINE
  8
0
 10
6
 11
4
 20
-9
 21
-9
  0
LINE
  8
0
 10
4
 11
4
 20
-9
 21
-5
  0
LINE
  8
0
 10
4
 11
2
 20
-5
 21
-5
  0
LINE
  8
0
 10
2
 11
2
 20
-5
 21
-9
  0
LINE
  8
0
 10
2
 11
0
 20
-9
 21
-9
  0
LINE
  8
0
 10
0
 11
0
 20
7
 21
17
  0
LINE
  8
0
 10
0
 11
18
 20
17
 21
17
  0
LINE
  8
0
 10
18
 11
18
 20
17
 21
15
  0
LINE
  8
0
 10
18
 11
22
 20
15
 21
15
  0
LINE
  8
0
 10
22
 11
22
 20
15
 21
17
  0
LINE
  8
0
 10
22
 11
30
 20
17
 21
17
  0
LINE
  8
0
 10
30
 11
30
 20
17
 21
1
  0
LINE
  8
0
 10
30
 11
28
 20
1
 21
1
  0
LINE
  8
0
 10
28
 11
28
 20
1
 21
3
  0
LINE
  8
0
 10
28
 11
24
 20
3
 21
3
  0
LINE
  8
0
 10
24
 11
24
 20
3
 21
1
  0
LINE
  8
0
 10
24
 11
14
 20
1
 21
1
  0
LINE
  8
0
 10
14
 11
14
 20
1
 21
7
  0
LINE
  8
0
 10
14
 11
0
 20
7
 21
7
  0
LINE
  8
0
 10
0
 11
0
 20
19
 21
36
  0
LINE
  8
0
 10
0
 11
4.51
 20
36
 21
36
  0
LINE
  8
0
 10
4.51
 11
4.006
 20
36
 21
35.652
  0
LINE
  8
0
 10
4.006
 11
3.116
 20
35.652
 21
33.957
  0
LINE
  8
0
 10
3.116
 11
3.116
 20
33.957
 21
32.043
  0
LINE
  8
0
 10
3.116
 11
4.006
 20
32.043
 21
30.348
  0
LINE
  8
0
 10
4.006
 11
5.582
 20
30.348
 21
29.26
  0
LINE
  8
0
 10
5.582
 11
7.482
 20
29.26
 21
29.029
  0
LINE
  8
0
 10
7.482
 11
9.272
 20
29.029
 21
29.708
  0
LINE
  8
0
 10
9.272
 11
10.542
 20
29.708
 21
31.141
  0
LINE
  8
0
 10
10.542
 11
11
 20
31.141
 21
33
  0
LINE
  8
0
 10
11
 11
10.542
 20
33
 21
34.859
  0
LINE
  8
0
 10
10.542
 11
9.531
 20
34.859
 21
36
  0
LINE
  8
0
 10
9.531
 11
17.01
 20
36
 21
36
  0
LINE
  8
0
 10
17.01
 11
16.506
 20
36
 21
35.652
  0
LINE
  8
0
 10
16.506
 11
15.616
 20
35.652
 21
33.957
  0
LINE
  8
0
 10
15.616
 11
15.616
 20
33.957
 21
32.043
  0
LINE
  8
0
 10
15.616
 11
16.506
 20
32.043
 21
30.348
  0
LINE
  8
0
 10
16.506
 11
18.082
 20
30.348
 21
29.26
  0
LINE
  8
0
 10
18.082
 11
19.982
 20
29.26
 21
29.029
  0
LINE
  8
0
 10
19.982
 11
21.772
 20
29.029
 21
29.708
  0
LINE
  8
0
 10
21.772
 11
23.042
 20
29.708
 21
31.141
  0
LINE
  8
0
 10
23.042
 11
23.5
 20
31.141
 21
33
  0
LINE
  8
0
 10
23.5
 11
23.042
 20
33
 21
34.859
  0
LINE
  8
0
 10
23.042
 11
22.031
 20
34.859
 21
36
  0
LINE
  8
0
 10
22.031
 11
29.51
 20
36
 21
36
  0
LINE
  8
0
 10
29.51
 11
29.006
 20
36
 21
35.652
  0
LINE
  8
0
 10
29.006
 11
28.116
 20
35.652
 21
33.957
  0
LINE
  8
0
 10
28.116
 11
28.116
 20
33.957
 21
32.043
  0
LINE
  8
0
 10
28.116
 11
29.006
 20
32.043
 21
30.348
  0
LINE
  8
0
 10
29.006
 11
30.582
 20
30.348
 21
29.26
  0
LINE
  8
0
 10
30.582
 11
32.482
 20
29.26
 21
29.029
  0
LINE
  8
0
 10
32.482
 11
34.272
 20
29.029
 21
29.708
  0
LINE
  8
0
 10
34.272
 11
35.542
 20
29.708
 21
31.141
  0
LINE
  8
0
 10
35.542
 11
36
 20
31.141
 21
33
  0
LINE
  8
0
 10
36
 11
35.542
 20
33
 21
34.859
  0
LINE
  8
0
 10
35.542
 11
34.531
 20
34.859
 21
36
  0
LINE
  8
0
 10
34.531
 11
44
 20
36
 21
36
  0
LINE
  8
0
 10
44
 11
44
 20
36
 21
34
  0
LINE
  8
0
 10
44
 11
48
 20
34
 21
34
  0
LINE
  8
0
 10
48
 11
48
 20
34
 21
36
  0
LINE
  8
0
 10
48
 11
50
 20
36
 21
36
  0
LINE
  8
0
 10
50
 11
50
 20
36
 21
4
  0
LINE
  8
0
 10
50
 11
42
 20
4
 21
4
  0
LINE
  8
0
 10
42
 11
42
 20
4
 21
6
  0
LINE
  8
0
 10
42
 11
38
 20
6
 21
6
  0
LINE
  8
0
 10
38
 11
38
 20
6
 21
4
  0
LINE
  8
0
 10
38
 11
34
 20
4
 21
4
  0
LINE
  8
0
 10
34
 11
34
 20
4
 21
19
  0
LINE
  8
0
 10
34
 11
0
 20
19
 21
19
  0
LINE
  8
0
 10
18
 11
18
 20
3
 21
5
  0
LINE
  8
0
 10
18
 11
22
 20
5
 21
5
  0
LINE
  8
0
 10
22
 11
22
 20
5
 21
3
  0
LINE
  8
0
 10
22
 11
18
 20
3
 21
3
  0
LINE
  8
0
 10
18
 11
18
 20
7
 21
9
  0
LINE
  8
0
 10
18
 11
22
 20
9
 21
9
  0
LINE
  8
0
 10
22
 11
22
 20
9
 21
7
  0
LINE
  8
0
 10
22
 11
18
 20
7
 21
7
  0
LINE
  8
0
 10
18
 11
18
 20
11
 21
13
  0
LINE
  8
0
 10
18
 11
22
 20
13
 21
13
  0
LINE
  8
0
 10
22
 11
22
 20
13
 21
11
  0
LINE
  8
0
 10
22
 11
18
 20
11
 21
11
  0
LINE
  8
0
 10
24
 11
24
 20
5
 21
7
  0
LINE
  8
0
 10
24
 11
28
 20
7
 21
7
  0
LINE
  8
0
 10
28
 11
28
 20
7
 21
5
  0
LINE
  8
0
 10
28
 11
24
 20
5
 21
5
  0
LINE
  8
0
 10
24
 11
24
 20
9
 21
11
  0
LINE
  8
0
 10
24
 11
28
 20
11
 21
11
  0
LINE
  8
0
 10
28
 11
28
 20
11
 21
9
  0
LINE
  8
0
 10
28
 11
24
 20
9
 21
9
  0
LINE
  8
0
 10
24
 11
24
 20
13
 21
15
  0
LINE
  8
0
 10
24
 11
28
 20
15
 21
15
  0
LINE
  8
0
 10
28
 11
28
 20
15
 21
13
  0
LINE
  8
0
 10
28
 11
24
 20
13
 21
13
  0
LINE
  8
0
 10
38
 11
38
 20
8
 21
10
  0
LINE
  8
0
 10
38
 11
42
 20
10
 21
10
  0
LINE
  8
0
 10
42
 11
42
 20
10
 21
8
  0
LINE
  8
0
 10
42
 11
38
 20
8
 21
8
  0
LINE
  8
0
 10
38
 11
38
 20
12
 21
14
  0
LINE
  8
0
 10
38
 11
42
 20
14
 21
14
  0
LINE
  8
0
 10
42
 11
42
 20
14
 21
12
  0
LINE
  8
0
 10
42
 11
38
 20
12
 21
12
  0
LINE
  8
0
 10
38
 11
38
 20
16
 21
18
  0
LINE
  8
0
 10
38
 11
42
 20
18
 21
18
  0
LINE
  8
0
 10
42
 11
42
 20
18
 21
16
  0
LINE
  8
0
 10
42
 11
38
 20
16
 21
16
  0
LINE
  8
0
 10
38
 11
38
 20
20
 21
22
  0
LINE
  8
0
 10
38
 11
42
 20
22
 21
22
  0
LINE
  8
0
 10
42
 11
42
 20
22
 21
20
  0
LINE
  8
0
 10
42
 11
38
 20
20
 21
20
  0
LINE
  8
0
 10
38
 11
38
 20
24
 21
26
  0
LINE
  8
0
 10
38
 11
42
 20
26
 21
26
  0
LINE
  8
0
 10
42
 11
42
 20
26
 21
24
  0
LINE
  8
0
 10
42
 11
38
 20
24
 21
24
  0
LINE
  8
0
 10
38
 11
38
 20
28
 21
30
  0
LINE
  8
0
 10
38
 11
42
 20
30
 21
30
  0
LINE
  8
0
 10
42
 11
42
 20
30
 21
28
  0
LINE
  8
0
 10
42
 11
38
 20
28
 21
28
  0
LINE
  8
0
 10
38
 11
38
 20
32
 21
34
  0
LINE
  8
0
 10
38
 11
42
 20
34
 21
34
  0
LINE
  8
0
 10
42
 11
42
 20
34
 21
32
  0
LINE
  8
0
 10
42
 11
38
 20
32
 21
32
  0
LINE
  8
0
 10
44
 11
44
 20
6
 21
8
  0
LINE
  8
0
 10
44
 11
48
 20
8
 21
8
  0
LINE
  8
0
 10
48
 11
48
 20
8
 21
6
  0
LINE
  8
0
 10
48
 11
44
 20
6
 21
6
  0
LINE
  8
0
 10
44
 11
44
 20
10
 21
12
  0
LINE
  8
0
 10
44
 11
48
 20
12
 21
12
  0
LINE
  8
0
 10
48
 11
48
 20
12
 21
10
  0
LINE
  8
0
 10
48
 11
44
 20
10
 21
10
  0
LINE
  8
0
 10
44
 11
44
 20
14
 21
16
  0
LINE
  8
0
 10
44
 11
48
 20
16
 21
16
  0
LINE
  8
0
 10
48
 11
48
 20
16
 21
14
  0
LINE
  8
0
 10
48
 11
44
 20
14
 21
14
  0
LINE
  8
0
 10
44
 11
44
 20
18
 21
20
  0
LINE
  8
0
 10
44
 11
48
 20
20
 21
20
  0
LINE
  8
0
 10
48
 11
48
 20
20
 21
18
  0
LINE
  8
0
 10
48
 11
44
 20
18
 21
18
  0
LINE
  8
0
 10
44
 11
44
 20
22
 21
24
  0
LINE
  8
0
 10
44
 11
48
 20
24
 21
24
  0
LINE
  8
0
 10
48
 11
48
 20
24
 21
22
  0
LINE
  8
0
 10
48
 11
44
 20
22
 21
22
  0
LINE
  8
0
 10
44
 11
44
 20
26
 21
28
  0
LINE
  8
0
 10
44
 11
48
 20
28
 21
28
  0
LINE
  8
0
 10
48
 11
48
 20
28
 21
26
  0
LINE
  8
0
 10
48
 11
44
 20
26
 21
26
  0
LINE
  8
0
 10
44
 11
44
 20
30
 21
32
  0
LINE
  8
0
 10
44
 11
48
 20
32
 21
32
  0
LINE
  8
0
 10
48
 11
48
 20
32
 21
30
  0
LINE
  8
0
 10
48
 11
44
 20
30
 21
30
  0
ENDSEC
  0
SECTION
  2
OBJECTS
  0
DICTIONARY
  0
ENDSEC
  0
EOF
