  0
SECTION
  2
BLOCKS
  0
ENDSEC
  0
SECTION
  2
ENTITIES
  0
LINE
  8
0
 10
0
 11
0
 20
0
 21
16
  0
LINE
  8
0
 10
0
 11
8
 20
16
 21
16
  0
LINE
  8
0
 10
8
 11
8
 20
16
 21
32
  0
LINE
  8
0
 10
8
 11
16
 20
32
 21
32
  0
LINE
  8
0
 10
16
 11
16
 20
32
 21
24
  0
LINE
  8
0
 10
16
 11
32
 20
24
 21
24
  0
LINE
  8
0
 10
32
 11
32
 20
24
 21
16
  0
LINE
  8
0
 10
32
 11
24
 20
16
 21
16
  0
LINE
  8
0
 10
24
 11
24
 20
16
 21
0
  0
LINE
  8
0
 10
24
 11
16
 20
0
 21
0
  0
LINE
  8
0
 10
16
 11
16
 20
0
 21
8
  0
LINE
  8
0
 10
16
 11
8
 20
8
 21
8
  0
LINE
  8
0
 10
8
 11
8
 20
8
 21
0
  0
LINE
  8
0
 10
8
 11
0
 20
0
 21
0
  0
LINE
  8
0
 10
33
 11
33
 20
16
 21
24
  0
LINE
  8
0
 10
33
 11
41
 20
24
 21
24
  0
LINE
  8
0
 10
41
 11
41
 20
24
 21
32
  0
LINE
  8
0
 10
41
 11
49
 20
32
 21
32
  0
LINE
  8
0
 10
49
 11
49
 20
32
 21
24
  0
LINE
  8
0
 10
49
 11
65
 20
24
 21
24
  0
LINE
  8
0
 10
65
 11
65
 20
24
 21
0
  0
LINE
  8
0
 10
65
 11
57
 20
0
 21
0
  0
LINE
  8
0
 10
57
 11
57
 20
0
 21
8
  0
LINE
  8
0
 10
57
 11
49
 20
8
 21
8
  0
LINE
  8
0
 10
49
 11
49
 20
8
 21
0
  0
LINE
  8
0
 10
49
 11
41
 20
0
 21
0
  0
LINE
  8
0
 10
41
 11
41
 20
0
 21
16
  0
LINE
  8
0
 10
41
 11
33
 20
16
 21
16
  0
LINE
  8
0
 10
67
 11
67
 20
16
 21
24
  0
LINE
  8
0
 10
67
 11
83
 20
24
 21
24
  0
LINE
  8
0
 10
83
 11
83
 20
24
 21
32
  0
LINE
  8
0
 10
83
 11
91
 20
32
 21
32
  0
LINE
  8
0
 10
91
 11
91
 20
32
 21
24
  0
LINE
  8
0
 10
91
 11
99
 20
24
 21
24
  0
LINE
  8
0
 10
99
 11
99
 20
24
 21
16
  0
LINE
  8
0
 10
99
 11
91
 20
16
 21
16
  0
LINE
  8
0
 10
91
 11
91
 20
16
 21
0
  0
LINE
  8
0
 10
91
 11
75
 20
0
 21
0
  0
LINE
  8
0
 10
75
 11
75
 20
0
 21
16
  0
LINE
  8
0
 10
75
 11
67
 20
16
 21
16
  0
LINE
  8
0
 10
100
 11
100
 20
0
 21
16
  0
LINE
  8
0
 10
100
 11
108
 20
16
 21
16
  0
LINE
  8
0
 10
108
 11
108
 20
16
 21
24
  0
LINE
  8
0
 10
108
 11
100
 20
24
 21
24
  0
LINE
  8
0
 10
100
 11
100
 20
24
 21
32
  0
LINE
  8
0
 10
100
 11
116
 20
32
 21
32
  0
LINE
  8
0
 10
116
 11
116
 20
32
 21
24
  0
LINE
  8
0
 10
116
 11
124
 20
24
 21
24
  0
LINE
  8
0
 10
124
 11
124
 20
24
 21
0
  0
LINE
  8
0
 10
124
 11
116
 20
0
 21
0
  0
LINE
  8
0
 10
116
 11
116
 20
0
 21
8
  0
LINE
  8
0
 10
116
 11
108
 20
8
 21
8
  0
LINE
  8
0
 10
108
 11
108
 20
8
 21
0
  0
LINE
  8
0
 10
108
 11
100
 20
0
 21
0
  0
LINE
  8
0
 10
133
 11
133
 20
0
 21
32
  0
LINE
  8
0
 10
133
 11
141
 20
32
 21
32
  0
LINE
  8
0
 10
141
 11
141
 20
32
 21
24
  0
LINE
  8
0
 10
141
 11
149
 20
24
 21
24
  0
LINE
  8
0
 10
149
 11
149
 20
24
 21
32
  0
LINE
  8
0
 10
149
 11
157
 20
32
 21
32
  0
LINE
  8
0
 10
157
 11
157
 20
32
 21
8
  0
LINE
  8
0
 10
157
 11
165
 20
8
 21
8
  0
LINE
  8
0
 10
165
 11
165
 20
8
 21
0
  0
LINE
  8
0
 10
165
 11
149
 20
0
 21
0
  0
LINE
  8
0
 10
149
 11
149
 20
0
 21
8
  0
LINE
  8
0
 10
149
 11
141
 20
8
 21
8
  0
LINE
  8
0
 10
141
 11
141
 20
8
 21
0
  0
LINE
  8
0
 10
141
 11
133
 20
0
 21
0
  0
LINE
  8
0
 10
166
 11
166
 20
8
 21
16
  0
LINE
  8
0
 10
166
 11
174
 20
16
 21
16
  0
LINE
  8
0
 10
174
 11
174
 20
16
 21
24
  0
LINE
  8
0
 10
174
 11
182
 20
24
 21
24
  0
LINE
  8
0
 10
182
 11
182
 20
24
 21
32
  0
LINE
  8
0
 10
182
 11
198
 20
32
 21
32
  0
LINE
  8
0
 10
198
 11
198
 20
32
 21
24
  0
LINE
  8
0
 10
198
 11
190
 20
24
 21
24
  0
LINE
  8
0
 10
190
 11
190
 20
24
 21
0
  0
LINE
  8
0
 10
190
 11
182
 20
0
 21
0
  0
LINE
  8
0
 10
182
 11
182
 20
0
 21
8
  0
LINE
  8
0
 10
182
 11
166
 20
8
 21
8
  0
ENDSEC
  0
SECTION
  2
OBJECTS
  0
DICTIONARY
  0
ENDSEC
  0
EOF
