  0
SECTION
  2
BLOCKS
  0
ENDSEC
  0
SECTION
  2
ENTITIES
  0
LINE
  8
0
 10
0
 11
0
 20
0
 21
4
  0
LINE
  8
0
 10
0
 11
2
 20
4
 21
4
  0
LINE
  8
0
 10
2
 11
2
 20
4
 21
8
  0
LINE
  8
0
 10
2
 11
4
 20
8
 21
8
  0
LINE
  8
0
 10
4
 11
4
 20
8
 21
6
  0
LINE
  8
0
 10
4
 11
8
 20
6
 21
6
  0
LINE
  8
0
 10
8
 11
8
 20
6
 21
4
  0
LINE
  8
0
 10
8
 11
6
 20
4
 21
4
  0
LINE
  8
0
 10
6
 11
6
 20
4
 21
0
  0
LINE
  8
0
 10
6
 11
4
 20
0
 21
0
  0
LINE
  8
0
 10
4
 11
4
 20
0
 21
2
  0
LINE
  8
0
 10
4
 11
2
 20
2
 21
2
  0
LINE
  8
0
 10
2
 11
2
 20
2
 21
0
  0
LINE
  8
0
 10
2
 11
0
 20
0
 21
0
  0
LINE
  8
0
 10
9
 11
9
 20
4
 21
6
  0
LINE
  8
0
 10
9
 11
11
 20
6
 21
6
  0
LINE
  8
0
 10
11
 11
11
 20
6
 21
8
  0
LINE
  8
0
 10
11
 11
13
 20
8
 21
8
  0
LINE
  8
0
 10
13
 11
13
 20
8
 21
6
  0
LINE
  8
0
 10
13
 11
17
 20
6
 21
6
  0
LINE
  8
0
 10
17
 11
17
 20
6
 21
0
  0
LINE
  8
0
 10
17
 11
15
 20
0
 21
0
  0
LINE
  8
0
 10
15
 11
15
 20
0
 21
2
  0
LINE
  8
0
 10
15
 11
13
 20
2
 21
2
  0
LINE
  8
0
 10
13
 11
13
 20
2
 21
0
  0
LINE
  8
0
 10
13
 11
11
 20
0
 21
0
  0
LINE
  8
0
 10
11
 11
11
 20
0
 21
4
  0
LINE
  8
0
 10
11
 11
9
 20
4
 21
4
  0
LINE
  8
0
 10
19
 11
19
 20
4
 21
6
  0
LINE
  8
0
 10
19
 11
23
 20
6
 21
6
  0
LINE
  8
0
 10
23
 11
23
 20
6
 21
8
  0
LINE
  8
0
 10
23
 11
25
 20
8
 21
8
  0
LINE
  8
0
 10
25
 11
25
 20
8
 21
6
  0
LINE
  8
0
 10
25
 11
27
 20
6
 21
6
  0
LINE
  8
0
 10
27
 11
27
 20
6
 21
4
  0
LINE
  8
0
 10
27
 11
25
 20
4
 21
4
  0
LINE
  8
0
 10
25
 11
25
 20
4
 21
0
  0
LINE
  8
0
 10
25
 11
21
 20
0
 21
0
  0
LINE
  8
0
 10
21
 11
21
 20
0
 21
4
  0
LINE
  8
0
 10
21
 11
19
 20
4
 21
4
  0
LINE
  8
0
 10
28
 11
28
 20
0
 21
4
  0
LINE
  8
0
 10
28
 11
30
 20
4
 21
4
  0
LINE
  8
0
 10
30
 11
30
 20
4
 21
6
  0
LINE
  8
0
 10
30
 11
28
 20
6
 21
6
  0
LINE
  8
0
 10
28
 11
28
 20
6
 21
8
  0
LINE
  8
0
 10
28
 11
32
 20
8
 21
8
  0
LINE
  8
0
 10
32
 11
32
 20
8
 21
6
  0
LINE
  8
0
 10
32
 11
34
 20
6
 21
6
  0
LINE
  8
0
 10
34
 11
34
 20
6
 21
0
  0
LINE
  8
0
 10
34
 11
32
 20
0
 21
0
  0
LINE
  8
0
 10
32
 11
32
 20
0
 21
2
  0
LINE
  8
0
 10
32
 11
30
 20
2
 21
2
  0
LINE
  8
0
 10
30
 11
30
 20
2
 21
0
  0
LINE
  8
0
 10
30
 11
28
 20
0
 21
0
  0
LINE
  8
0
 10
37
 11
37
 20
0
 21
8
  0
LINE
  8
0
 10
37
 11
39
 20
8
 21
8
  0
LINE
  8
0
 10
39
 11
39
 20
8
 21
6
  0
LINE
  8
0
 10
39
 11
41
 20
6
 21
6
  0
LINE
  8
0
 10
41
 11
41
 20
6
 21
8
  0
LINE
  8
0
 10
41
 11
43
 20
8
 21
8
  0
LINE
  8
0
 10
43
 11
43
 20
8
 21
2
  0
LINE
  8
0
 10
43
 11
45
 20
2
 21
2
  0
LINE
  8
0
 10
45
 11
45
 20
2
 21
0
  0
LINE
  8
0
 10
45
 11
41
 20
0
 21
0
  0
LINE
  8
0
 10
41
 11
41
 20
0
 21
2
  0
LINE
  8
0
 10
41
 11
39
 20
2
 21
2
  0
LINE
  8
0
 10
39
 11
39
 20
2
 21
0
  0
LINE
  8
0
 10
39
 11
37
 20
0
 21
0
  0
LINE
  8
0
 10
46
 11
46
 20
2
 21
4
  0
LINE
  8
0
 10
46
 11
48
 20
4
 21
4
  0
LINE
  8
0
 10
48
 11
48
 20
4
 21
6
  0
LINE
  8
0
 10
48
 11
50
 20
6
 21
6
  0
LINE
  8
0
 10
50
 11
50
 20
6
 21
8
  0
LINE
  8
0
 10
50
 11
54
 20
8
 21
8
  0
LINE
  8
0
 10
54
 11
54
 20
8
 21
6
  0
LINE
  8
0
 10
54
 11
52
 20
6
 21
6
  0
LINE
  8
0
 10
52
 11
52
 20
6
 21
0
  0
LINE
  8
0
 10
52
 11
50
 20
0
 21
0
  0
LINE
  8
0
 10
50
 11
50
 20
0
 21
2
  0
LINE
  8
0
 10
50
 11
46
 20
2
 21
2
  0
ENDSEC
  0
SECTION
  2
OBJECTS
  0
DICTIONARY
  0
ENDSEC
  0
EOF
