  0
SECTION
  2
BLOCKS
  0
ENDSEC
  0
SECTION
  2
ENTITIES
  0
LINE
  8
0
 10
0
 11
0
 20
0
 21
8
  0
LINE
  8
0
 10
0
 11
4
 20
8
 21
8
  0
LINE
  8
0
 10
4
 11
4
 20
8
 21
16
  0
LINE
  8
0
 10
4
 11
8
 20
16
 21
16
  0
LINE
  8
0
 10
8
 11
8
 20
16
 21
12
  0
LINE
  8
0
 10
8
 11
16
 20
12
 21
12
  0
LINE
  8
0
 10
16
 11
16
 20
12
 21
8
  0
LINE
  8
0
 10
16
 11
12
 20
8
 21
8
  0
LINE
  8
0
 10
12
 11
12
 20
8
 21
0
  0
LINE
  8
0
 10
12
 11
8
 20
0
 21
0
  0
LINE
  8
0
 10
8
 11
8
 20
0
 21
4
  0
LINE
  8
0
 10
8
 11
4
 20
4
 21
4
  0
LINE
  8
0
 10
4
 11
4
 20
4
 21
0
  0
LINE
  8
0
 10
4
 11
0
 20
0
 21
0
  0
LINE
  8
0
 10
17
 11
17
 20
8
 21
12
  0
LINE
  8
0
 10
17
 11
21
 20
12
 21
12
  0
LINE
  8
0
 10
21
 11
21
 20
12
 21
16
  0
LINE
  8
0
 10
21
 11
25
 20
16
 21
16
  0
LINE
  8
0
 10
25
 11
25
 20
16
 21
12
  0
LINE
  8
0
 10
25
 11
33
 20
12
 21
12
  0
LINE
  8
0
 10
33
 11
33
 20
12
 21
0
  0
LINE
  8
0
 10
33
 11
29
 20
0
 21
0
  0
LINE
  8
0
 10
29
 11
29
 20
0
 21
4
  0
LINE
  8
0
 10
29
 11
25
 20
4
 21
4
  0
LINE
  8
0
 10
25
 11
25
 20
4
 21
0
  0
LINE
  8
0
 10
25
 11
21
 20
0
 21
0
  0
LINE
  8
0
 10
21
 11
21
 20
0
 21
8
  0
LINE
  8
0
 10
21
 11
17
 20
8
 21
8
  0
LINE
  8
0
 10
35
 11
35
 20
8
 21
12
  0
LINE
  8
0
 10
35
 11
43
 20
12
 21
12
  0
LINE
  8
0
 10
43
 11
43
 20
12
 21
16
  0
LINE
  8
0
 10
43
 11
47
 20
16
 21
16
  0
LINE
  8
0
 10
47
 11
47
 20
16
 21
12
  0
LINE
  8
0
 10
47
 11
51
 20
12
 21
12
  0
LINE
  8
0
 10
51
 11
51
 20
12
 21
8
  0
LINE
  8
0
 10
51
 11
47
 20
8
 21
8
  0
LINE
  8
0
 10
47
 11
47
 20
8
 21
0
  0
LINE
  8
0
 10
47
 11
39
 20
0
 21
0
  0
LINE
  8
0
 10
39
 11
39
 20
0
 21
8
  0
LINE
  8
0
 10
39
 11
35
 20
8
 21
8
  0
LINE
  8
0
 10
52
 11
52
 20
0
 21
8
  0
LINE
  8
0
 10
52
 11
56
 20
8
 21
8
  0
LINE
  8
0
 10
56
 11
56
 20
8
 21
12
  0
LINE
  8
0
 10
56
 11
52
 20
12
 21
12
  0
LINE
  8
0
 10
52
 11
52
 20
12
 21
16
  0
LINE
  8
0
 10
52
 11
60
 20
16
 21
16
  0
LINE
  8
0
 10
60
 11
60
 20
16
 21
12
  0
LINE
  8
0
 10
60
 11
64
 20
12
 21
12
  0
LINE
  8
0
 10
64
 11
64
 20
12
 21
0
  0
LINE
  8
0
 10
64
 11
60
 20
0
 21
0
  0
LINE
  8
0
 10
60
 11
60
 20
0
 21
4
  0
LINE
  8
0
 10
60
 11
56
 20
4
 21
4
  0
LINE
  8
0
 10
56
 11
56
 20
4
 21
0
  0
LINE
  8
0
 10
56
 11
52
 20
0
 21
0
  0
LINE
  8
0
 10
69
 11
69
 20
0
 21
16
  0
LINE
  8
0
 10
69
 11
73
 20
16
 21
16
  0
LINE
  8
0
 10
73
 11
73
 20
16
 21
12
  0
LINE
  8
0
 10
73
 11
77
 20
12
 21
12
  0
LINE
  8
0
 10
77
 11
77
 20
12
 21
16
  0
LINE
  8
0
 10
77
 11
81
 20
16
 21
16
  0
LINE
  8
0
 10
81
 11
81
 20
16
 21
4
  0
LINE
  8
0
 10
81
 11
85
 20
4
 21
4
  0
LINE
  8
0
 10
85
 11
85
 20
4
 21
0
  0
LINE
  8
0
 10
85
 11
77
 20
0
 21
0
  0
LINE
  8
0
 10
77
 11
77
 20
0
 21
4
  0
LINE
  8
0
 10
77
 11
73
 20
4
 21
4
  0
LINE
  8
0
 10
73
 11
73
 20
4
 21
0
  0
LINE
  8
0
 10
73
 11
69
 20
0
 21
0
  0
LINE
  8
0
 10
86
 11
86
 20
4
 21
8
  0
LINE
  8
0
 10
86
 11
90
 20
8
 21
8
  0
LINE
  8
0
 10
90
 11
90
 20
8
 21
12
  0
LINE
  8
0
 10
90
 11
94
 20
12
 21
12
  0
LINE
  8
0
 10
94
 11
94
 20
12
 21
16
  0
LINE
  8
0
 10
94
 11
102
 20
16
 21
16
  0
LINE
  8
0
 10
102
 11
102
 20
16
 21
12
  0
LINE
  8
0
 10
102
 11
98
 20
12
 21
12
  0
LINE
  8
0
 10
98
 11
98
 20
12
 21
0
  0
LINE
  8
0
 10
98
 11
94
 20
0
 21
0
  0
LINE
  8
0
 10
94
 11
94
 20
0
 21
4
  0
LINE
  8
0
 10
94
 11
86
 20
4
 21
4
  0
ENDSEC
  0
SECTION
  2
OBJECTS
  0
DICTIONARY
  0
ENDSEC
  0
EOF
