  0
SECTION
  2
BLOCKS
  0
ENDSEC
  0
SECTION
  2
ENTITIES
  0
LINE
  8
0
 10
-93.6
 11
-93.6
 20
-21.1
 21
25
  0
LINE
  8
0
 10
-93.6
 11
-89.6
 20
25
 21
25
  0
LINE
  8
0
 10
-89.6
 11
-89.6
 20
25
 21
21.1
  0
LINE
  8
0
 10
-89.6
 11
-85.6
 20
21.1
 21
21.1
  0
LINE
  8
0
 10
-85.6
 11
-85.6
 20
21.1
 21
25
  0
LINE
  8
0
 10
-85.6
 11
-81.6
 20
25
 21
25
  0
LINE
  8
0
 10
-81.6
 11
-81.6
 20
25
 21
21.1
  0
LINE
  8
0
 10
-81.6
 11
-77.6
 20
21.1
 21
21.1
  0
LINE
  8
0
 10
-77.6
 11
-77.6
 20
21.1
 21
25
  0
LINE
  8
0
 10
-77.6
 11
-73.6
 20
25
 21
25
  0
LINE
  8
0
 10
-73.6
 11
-73.6
 20
25
 21
21.1
  0
LINE
  8
0
 10
-73.6
 11
-69.6
 20
21.1
 21
21.1
  0
LINE
  8
0
 10
-69.6
 11
-69.6
 20
21.1
 21
25
  0
LINE
  8
0
 10
-69.6
 11
-65.6
 20
25
 21
25
  0
LINE
  8
0
 10
-65.6
 11
-65.6
 20
25
 21
21.1
  0
LINE
  8
0
 10
-65.6
 11
-61.6
 20
21.1
 21
21.1
  0
LINE
  8
0
 10
-61.6
 11
-61.6
 20
21.1
 21
25
  0
LINE
  8
0
 10
-61.6
 11
-57.6
 20
25
 21
25
  0
LINE
  8
0
 10
-57.6
 11
-57.6
 20
25
 21
21.1
  0
LINE
  8
0
 10
-57.6
 11
-53.6
 20
21.1
 21
21.1
  0
LINE
  8
0
 10
-53.6
 11
-53.6
 20
21.1
 21
25
  0
LINE
  8
0
 10
-53.6
 11
-49.6
 20
25
 21
25
  0
LINE
  8
0
 10
-49.6
 11
-49.6
 20
25
 21
21.1
  0
LINE
  8
0
 10
-49.6
 11
-45.6
 20
21.1
 21
21.1
  0
LINE
  8
0
 10
-45.6
 11
-45.6
 20
21.1
 21
25
  0
LINE
  8
0
 10
-45.6
 11
-45.5
 20
25
 21
25
  0
LINE
  8
0
 10
-45.5
 11
-45.5
 20
25
 21
22
  0
LINE
  8
0
 10
-45.5
 11
-41.6
 20
22
 21
22
  0
LINE
  8
0
 10
-41.6
 11
-41.6
 20
22
 21
18
  0
LINE
  8
0
 10
-41.6
 11
-45.5
 20
18
 21
18
  0
LINE
  8
0
 10
-45.5
 11
-45.5
 20
18
 21
14
  0
LINE
  8
0
 10
-45.5
 11
-41.6
 20
14
 21
14
  0
LINE
  8
0
 10
-41.6
 11
-41.6
 20
14
 21
10
  0
LINE
  8
0
 10
-41.6
 11
-45.5
 20
10
 21
10
  0
LINE
  8
0
 10
-45.5
 11
-45.5
 20
10
 21
6
  0
LINE
  8
0
 10
-45.5
 11
-41.6
 20
6
 21
6
  0
LINE
  8
0
 10
-41.6
 11
-41.6
 20
6
 21
2
  0
LINE
  8
0
 10
-41.6
 11
-45.5
 20
2
 21
2
  0
LINE
  8
0
 10
-45.5
 11
-45.5
 20
2
 21
-2
  0
LINE
  8
0
 10
-45.5
 11
-41.6
 20
-2
 21
-2
  0
LINE
  8
0
 10
-41.6
 11
-41.6
 20
-2
 21
-6
  0
LINE
  8
0
 10
-41.6
 11
-45.5
 20
-6
 21
-6
  0
LINE
  8
0
 10
-45.5
 11
-45.5
 20
-6
 21
-10
  0
LINE
  8
0
 10
-45.5
 11
-41.6
 20
-10
 21
-10
  0
LINE
  8
0
 10
-41.6
 11
-41.6
 20
-10
 21
-14
  0
LINE
  8
0
 10
-41.6
 11
-45.5
 20
-14
 21
-14
  0
LINE
  8
0
 10
-45.5
 11
-45.5
 20
-14
 21
-18
  0
LINE
  8
0
 10
-45.5
 11
-41.6
 20
-18
 21
-18
  0
LINE
  8
0
 10
-41.6
 11
-41.6
 20
-18
 21
-21.1
  0
LINE
  8
0
 10
-41.6
 11
-45.6
 20
-21.1
 21
-21.1
  0
LINE
  8
0
 10
-45.6
 11
-45.6
 20
-21.1
 21
-25
  0
LINE
  8
0
 10
-45.6
 11
-49.6
 20
-25
 21
-25
  0
LINE
  8
0
 10
-49.6
 11
-49.6
 20
-25
 21
-21.1
  0
LINE
  8
0
 10
-49.6
 11
-53.6
 20
-21.1
 21
-21.1
  0
LINE
  8
0
 10
-53.6
 11
-53.6
 20
-21.1
 21
-25
  0
LINE
  8
0
 10
-53.6
 11
-57.6
 20
-25
 21
-25
  0
LINE
  8
0
 10
-57.6
 11
-57.6
 20
-25
 21
-21.1
  0
LINE
  8
0
 10
-57.6
 11
-61.6
 20
-21.1
 21
-21.1
  0
LINE
  8
0
 10
-61.6
 11
-61.6
 20
-21.1
 21
-25
  0
LINE
  8
0
 10
-61.6
 11
-65.6
 20
-25
 21
-25
  0
LINE
  8
0
 10
-65.6
 11
-65.6
 20
-25
 21
-21.1
  0
LINE
  8
0
 10
-65.6
 11
-69.6
 20
-21.1
 21
-21.1
  0
LINE
  8
0
 10
-69.6
 11
-69.6
 20
-21.1
 21
-25
  0
LINE
  8
0
 10
-69.6
 11
-73.6
 20
-25
 21
-25
  0
LINE
  8
0
 10
-73.6
 11
-73.6
 20
-25
 21
-21.1
  0
LINE
  8
0
 10
-73.6
 11
-77.6
 20
-21.1
 21
-21.1
  0
LINE
  8
0
 10
-77.6
 11
-77.6
 20
-21.1
 21
-25
  0
LINE
  8
0
 10
-77.6
 11
-81.6
 20
-25
 21
-25
  0
LINE
  8
0
 10
-81.6
 11
-81.6
 20
-25
 21
-21.1
  0
LINE
  8
0
 10
-81.6
 11
-85.6
 20
-21.1
 21
-21.1
  0
LINE
  8
0
 10
-85.6
 11
-85.6
 20
-21.1
 21
-25
  0
LINE
  8
0
 10
-85.6
 11
-89.6
 20
-25
 21
-25
  0
LINE
  8
0
 10
-89.6
 11
-89.6
 20
-25
 21
-21.1
  0
LINE
  8
0
 10
-89.6
 11
-93.6
 20
-21.1
 21
-21.1
  0
LINE
  8
0
 10
-26.1
 11
-26.1
 20
-105
 21
-101
  0
LINE
  8
0
 10
-26.1
 11
-22.1
 20
-101
 21
-101
  0
LINE
  8
0
 10
-22.1
 11
-22.1
 20
-101
 21
-105
  0
LINE
  8
0
 10
-22.1
 11
-26.1
 20
-105
 21
-105
  0
LINE
  8
0
 10
-26.1
 11
-26.1
 20
-97
 21
-93
  0
LINE
  8
0
 10
-26.1
 11
-22.1
 20
-93
 21
-93
  0
LINE
  8
0
 10
-22.1
 11
-22.1
 20
-93
 21
-97
  0
LINE
  8
0
 10
-22.1
 11
-26.1
 20
-97
 21
-97
  0
LINE
  8
0
 10
-26.1
 11
-26.1
 20
-89
 21
-85
  0
LINE
  8
0
 10
-26.1
 11
-22.1
 20
-85
 21
-85
  0
LINE
  8
0
 10
-22.1
 11
-22.1
 20
-85
 21
-89
  0
LINE
  8
0
 10
-22.1
 11
-26.1
 20
-89
 21
-89
  0
LINE
  8
0
 10
-26.1
 11
-26.1
 20
-81
 21
-77
  0
LINE
  8
0
 10
-26.1
 11
-22.1
 20
-77
 21
-77
  0
LINE
  8
0
 10
-22.1
 11
-22.1
 20
-77
 21
-81
  0
LINE
  8
0
 10
-22.1
 11
-26.1
 20
-81
 21
-81
  0
LINE
  8
0
 10
-26.1
 11
-26.1
 20
-73
 21
-69
  0
LINE
  8
0
 10
-26.1
 11
-22.1
 20
-69
 21
-69
  0
LINE
  8
0
 10
-22.1
 11
-22.1
 20
-69
 21
-73
  0
LINE
  8
0
 10
-22.1
 11
-26.1
 20
-73
 21
-73
  0
LINE
  8
0
 10
-26.1
 11
-26.1
 20
-65
 21
-61
  0
LINE
  8
0
 10
-26.1
 11
-22.1
 20
-61
 21
-61
  0
LINE
  8
0
 10
-22.1
 11
-22.1
 20
-61
 21
-65
  0
LINE
  8
0
 10
-22.1
 11
-26.1
 20
-65
 21
-65
  0
LINE
  8
0
 10
-26.1
 11
-26.1
 20
-57
 21
-53
  0
LINE
  8
0
 10
-26.1
 11
-22.1
 20
-53
 21
-53
  0
LINE
  8
0
 10
-22.1
 11
-22.1
 20
-53
 21
-57
  0
LINE
  8
0
 10
-22.1
 11
-26.1
 20
-57
 21
-57
  0
LINE
  8
0
 10
-26
 11
-26
 20
-52.9
 21
-48.9
  0
LINE
  8
0
 10
-26
 11
-22
 20
-48.9
 21
-48.9
  0
LINE
  8
0
 10
-22
 11
-22
 20
-48.9
 21
-52.9
  0
LINE
  8
0
 10
-22
 11
-26
 20
-52.9
 21
-52.9
  0
LINE
  8
0
 10
-18
 11
-18
 20
-52.9
 21
-48.9
  0
LINE
  8
0
 10
-18
 11
-14
 20
-48.9
 21
-48.9
  0
LINE
  8
0
 10
-14
 11
-14
 20
-48.9
 21
-52.9
  0
LINE
  8
0
 10
-14
 11
-18
 20
-52.9
 21
-52.9
  0
LINE
  8
0
 10
-10
 11
-10
 20
-52.9
 21
-48.9
  0
LINE
  8
0
 10
-10
 11
-6
 20
-48.9
 21
-48.9
  0
LINE
  8
0
 10
-6
 11
-6
 20
-48.9
 21
-52.9
  0
LINE
  8
0
 10
-6
 11
-10
 20
-52.9
 21
-52.9
  0
LINE
  8
0
 10
-26
 11
-26
 20
-25
 21
-22
  0
LINE
  8
0
 10
-26
 11
-22.1
 20
-22
 21
-22
  0
LINE
  8
0
 10
-22.1
 11
-22.1
 20
-22
 21
-18
  0
LINE
  8
0
 10
-22.1
 11
-26
 20
-18
 21
-18
  0
LINE
  8
0
 10
-26
 11
-26
 20
-18
 21
-14
  0
LINE
  8
0
 10
-26
 11
-22.1
 20
-14
 21
-14
  0
LINE
  8
0
 10
-22.1
 11
-22.1
 20
-14
 21
-10
  0
LINE
  8
0
 10
-22.1
 11
-26
 20
-10
 21
-10
  0
LINE
  8
0
 10
-26
 11
-26
 20
-10
 21
-6
  0
LINE
  8
0
 10
-26
 11
-22.1
 20
-6
 21
-6
  0
LINE
  8
0
 10
-22.1
 11
-22.1
 20
-6
 21
-2
  0
LINE
  8
0
 10
-22.1
 11
-26
 20
-2
 21
-2
  0
LINE
  8
0
 10
-26
 11
-26
 20
-2
 21
2
  0
LINE
  8
0
 10
-26
 11
-22.1
 20
2
 21
2
  0
LINE
  8
0
 10
-22.1
 11
-22.1
 20
2
 21
6
  0
LINE
  8
0
 10
-22.1
 11
-26
 20
6
 21
6
  0
LINE
  8
0
 10
-26
 11
-26
 20
6
 21
10
  0
LINE
  8
0
 10
-26
 11
-22.1
 20
10
 21
10
  0
LINE
  8
0
 10
-22.1
 11
-22.1
 20
10
 21
14
  0
LINE
  8
0
 10
-22.1
 11
-26
 20
14
 21
14
  0
LINE
  8
0
 10
-26
 11
-26
 20
14
 21
18
  0
LINE
  8
0
 10
-26
 11
-22.1
 20
18
 21
18
  0
LINE
  8
0
 10
-22.1
 11
-22.1
 20
18
 21
22
  0
LINE
  8
0
 10
-22.1
 11
-26
 20
22
 21
22
  0
LINE
  8
0
 10
-26
 11
-26
 20
22
 21
25
  0
LINE
  8
0
 10
-26
 11
-22
 20
25
 21
25
  0
LINE
  8
0
 10
-22
 11
-22
 20
25
 21
21.1
  0
LINE
  8
0
 10
-22
 11
-18
 20
21.1
 21
21.1
  0
LINE
  8
0
 10
-18
 11
-18
 20
21.1
 21
25
  0
LINE
  8
0
 10
-18
 11
-14
 20
25
 21
25
  0
LINE
  8
0
 10
-14
 11
-14
 20
25
 21
21.1
  0
LINE
  8
0
 10
-14
 11
-10
 20
21.1
 21
21.1
  0
LINE
  8
0
 10
-10
 11
-10
 20
21.1
 21
25
  0
LINE
  8
0
 10
-10
 11
-6
 20
25
 21
25
  0
LINE
  8
0
 10
-6
 11
-6
 20
25
 21
21.1
  0
LINE
  8
0
 10
-6
 11
-2
 20
21.1
 21
21.1
  0
LINE
  8
0
 10
-2
 11
-2
 20
21.1
 21
25
  0
LINE
  8
0
 10
-2
 11
2
 20
25
 21
25
  0
LINE
  8
0
 10
2
 11
2
 20
25
 21
21.1
  0
LINE
  8
0
 10
2
 11
6
 20
21.1
 21
21.1
  0
LINE
  8
0
 10
6
 11
6
 20
21.1
 21
25
  0
LINE
  8
0
 10
6
 11
10
 20
25
 21
25
  0
LINE
  8
0
 10
10
 11
10
 20
25
 21
21.1
  0
LINE
  8
0
 10
10
 11
14
 20
21.1
 21
21.1
  0
LINE
  8
0
 10
14
 11
14
 20
21.1
 21
25
  0
LINE
  8
0
 10
14
 11
18
 20
25
 21
25
  0
LINE
  8
0
 10
18
 11
18
 20
25
 21
21.1
  0
LINE
  8
0
 10
18
 11
22
 20
21.1
 21
21.1
  0
LINE
  8
0
 10
22
 11
22
 20
21.1
 21
25
  0
LINE
  8
0
 10
22
 11
26
 20
25
 21
25
  0
LINE
  8
0
 10
26
 11
26
 20
25
 21
22
  0
LINE
  8
0
 10
26
 11
22.1
 20
22
 21
22
  0
LINE
  8
0
 10
22.1
 11
22.1
 20
22
 21
18
  0
LINE
  8
0
 10
22.1
 11
26
 20
18
 21
18
  0
LINE
  8
0
 10
26
 11
26
 20
18
 21
14
  0
LINE
  8
0
 10
26
 11
22.1
 20
14
 21
14
  0
LINE
  8
0
 10
22.1
 11
22.1
 20
14
 21
10
  0
LINE
  8
0
 10
22.1
 11
26
 20
10
 21
10
  0
LINE
  8
0
 10
26
 11
26
 20
10
 21
6
  0
LINE
  8
0
 10
26
 11
22.1
 20
6
 21
6
  0
LINE
  8
0
 10
22.1
 11
22.1
 20
6
 21
2
  0
LINE
  8
0
 10
22.1
 11
26
 20
2
 21
2
  0
LINE
  8
0
 10
26
 11
26
 20
2
 21
-2
  0
LINE
  8
0
 10
26
 11
22.1
 20
-2
 21
-2
  0
LINE
  8
0
 10
22.1
 11
22.1
 20
-2
 21
-6
  0
LINE
  8
0
 10
22.1
 11
26
 20
-6
 21
-6
  0
LINE
  8
0
 10
26
 11
26
 20
-6
 21
-10
  0
LINE
  8
0
 10
26
 11
22.1
 20
-10
 21
-10
  0
LINE
  8
0
 10
22.1
 11
22.1
 20
-10
 21
-14
  0
LINE
  8
0
 10
22.1
 11
26
 20
-14
 21
-14
  0
LINE
  8
0
 10
26
 11
26
 20
-14
 21
-18
  0
LINE
  8
0
 10
26
 11
22.1
 20
-18
 21
-18
  0
LINE
  8
0
 10
22.1
 11
22.1
 20
-18
 21
-22
  0
LINE
  8
0
 10
22.1
 11
26
 20
-22
 21
-22
  0
LINE
  8
0
 10
26
 11
26
 20
-22
 21
-23
  0
LINE
  8
0
 10
26
 11
52
 20
-23
 21
-23
  0
LINE
  8
0
 10
52
 11
52
 20
-23
 21
-75
  0
LINE
  8
0
 10
52
 11
26.1
 20
-75
 21
-75
  0
LINE
  8
0
 10
26.1
 11
26.1
 20
-75
 21
-77
  0
LINE
  8
0
 10
26.1
 11
22.1
 20
-77
 21
-77
  0
LINE
  8
0
 10
22.1
 11
22.1
 20
-77
 21
-75
  0
LINE
  8
0
 10
22.1
 11
0
 20
-75
 21
-75
  0
LINE
  8
0
 10
0
 11
0
 20
-75
 21
-52.9
  0
LINE
  8
0
 10
0
 11
-2
 20
-52.9
 21
-52.9
  0
LINE
  8
0
 10
-2
 11
-2
 20
-52.9
 21
-48.9
  0
LINE
  8
0
 10
-2
 11
0
 20
-48.9
 21
-48.9
  0
LINE
  8
0
 10
0
 11
0
 20
-48.9
 21
-25
  0
LINE
  8
0
 10
0
 11
-2
 20
-25
 21
-25
  0
LINE
  8
0
 10
-2
 11
-2
 20
-25
 21
-21.1
  0
LINE
  8
0
 10
-2
 11
-6
 20
-21.1
 21
-21.1
  0
LINE
  8
0
 10
-6
 11
-6
 20
-21.1
 21
-25
  0
LINE
  8
0
 10
-6
 11
-10
 20
-25
 21
-25
  0
LINE
  8
0
 10
-10
 11
-10
 20
-25
 21
-21.1
  0
LINE
  8
0
 10
-10
 11
-14
 20
-21.1
 21
-21.1
  0
LINE
  8
0
 10
-14
 11
-14
 20
-21.1
 21
-25
  0
LINE
  8
0
 10
-14
 11
-18
 20
-25
 21
-25
  0
LINE
  8
0
 10
-18
 11
-18
 20
-25
 21
-21.1
  0
LINE
  8
0
 10
-18
 11
-22
 20
-21.1
 21
-21.1
  0
LINE
  8
0
 10
-22
 11
-22
 20
-21.1
 21
-25
  0
LINE
  8
0
 10
-22
 11
-26
 20
-25
 21
-25
  0
LINE
  8
0
 10
2
 11
2
 20
-23
 21
-21.1
  0
LINE
  8
0
 10
2
 11
6
 20
-21.1
 21
-21.1
  0
LINE
  8
0
 10
6
 11
6
 20
-21.1
 21
-23
  0
LINE
  8
0
 10
6
 11
2
 20
-23
 21
-23
  0
LINE
  8
0
 10
10
 11
10
 20
-23
 21
-21.1
  0
LINE
  8
0
 10
10
 11
14
 20
-21.1
 21
-21.1
  0
LINE
  8
0
 10
14
 11
14
 20
-21.1
 21
-23
  0
LINE
  8
0
 10
14
 11
10
 20
-23
 21
-23
  0
LINE
  8
0
 10
18
 11
18
 20
-23
 21
-21.1
  0
LINE
  8
0
 10
18
 11
22
 20
-21.1
 21
-21.1
  0
LINE
  8
0
 10
22
 11
22
 20
-21.1
 21
-23
  0
LINE
  8
0
 10
22
 11
18
 20
-23
 21
-23
  0
LINE
  8
0
 10
22.1
 11
22.1
 20
-101
 21
-97
  0
LINE
  8
0
 10
22.1
 11
26.1
 20
-97
 21
-97
  0
LINE
  8
0
 10
26.1
 11
26.1
 20
-97
 21
-101
  0
LINE
  8
0
 10
26.1
 11
22.1
 20
-101
 21
-101
  0
LINE
  8
0
 10
22.1
 11
22.1
 20
-93
 21
-89
  0
LINE
  8
0
 10
22.1
 11
26.1
 20
-89
 21
-89
  0
LINE
  8
0
 10
26.1
 11
26.1
 20
-89
 21
-93
  0
LINE
  8
0
 10
26.1
 11
22.1
 20
-93
 21
-93
  0
LINE
  8
0
 10
22.1
 11
22.1
 20
-85
 21
-81
  0
LINE
  8
0
 10
22.1
 11
26.1
 20
-81
 21
-81
  0
LINE
  8
0
 10
26.1
 11
26.1
 20
-81
 21
-85
  0
LINE
  8
0
 10
26.1
 11
22.1
 20
-85
 21
-85
  0
ENDSEC
  0
SECTION
  2
OBJECTS
  0
DICTIONARY
  0
ENDSEC
  0
EOF
