  0
SECTION
  2
BLOCKS
  0
ENDSEC
  0
SECTION
  2
ENTITIES
  0
LINE
  8
0
 10
-37.2
 11
-37.2
 20
0
 21
4
  0
LINE
  8
0
 10
-37.2
 11
-33.2
 20
4
 21
4
  0
LINE
  8
0
 10
-33.2
 11
-33.2
 20
4
 21
8
  0
LINE
  8
0
 10
-33.2
 11
-37.2
 20
8
 21
8
  0
LINE
  8
0
 10
-37.2
 11
-37.2
 20
8
 21
12
  0
LINE
  8
0
 10
-37.2
 11
-33.2
 20
12
 21
12
  0
LINE
  8
0
 10
-33.2
 11
-33.2
 20
12
 21
16
  0
LINE
  8
0
 10
-33.2
 11
-37.2
 20
16
 21
16
  0
LINE
  8
0
 10
-37.2
 11
-37.2
 20
16
 21
20
  0
LINE
  8
0
 10
-37.2
 11
-33.2
 20
20
 21
20
  0
LINE
  8
0
 10
-33.2
 11
-33.2
 20
20
 21
24
  0
LINE
  8
0
 10
-33.2
 11
-37.2
 20
24
 21
24
  0
LINE
  8
0
 10
-37.2
 11
-37.2
 20
24
 21
28
  0
LINE
  8
0
 10
-37.2
 11
-33.2
 20
28
 21
28
  0
LINE
  8
0
 10
-33.2
 11
-33.2
 20
28
 21
32
  0
LINE
  8
0
 10
-33.2
 11
-37.2
 20
32
 21
32
  0
LINE
  8
0
 10
-37.2
 11
-37.2
 20
32
 21
36
  0
LINE
  8
0
 10
-37.2
 11
-33.2
 20
36
 21
36
  0
LINE
  8
0
 10
-33.2
 11
-33.2
 20
36
 21
40
  0
LINE
  8
0
 10
-33.2
 11
-37.2
 20
40
 21
40
  0
LINE
  8
0
 10
-37.2
 11
-37.2
 20
40
 21
44
  0
LINE
  8
0
 10
-37.2
 11
-33.2
 20
44
 21
44
  0
LINE
  8
0
 10
-33.2
 11
-33.2
 20
44
 21
52
  0
LINE
  8
0
 10
-33.2
 11
-29.2
 20
52
 21
52
  0
LINE
  8
0
 10
-29.2
 11
-29.2
 20
52
 21
48
  0
LINE
  8
0
 10
-29.2
 11
-25.2
 20
48
 21
48
  0
LINE
  8
0
 10
-25.2
 11
-25.2
 20
48
 21
52
  0
LINE
  8
0
 10
-25.2
 11
-21.2
 20
52
 21
52
  0
LINE
  8
0
 10
-21.2
 11
-21.2
 20
52
 21
48
  0
LINE
  8
0
 10
-21.2
 11
-17.2
 20
48
 21
48
  0
LINE
  8
0
 10
-17.2
 11
-17.2
 20
48
 21
52
  0
LINE
  8
0
 10
-17.2
 11
-13.2
 20
52
 21
52
  0
LINE
  8
0
 10
-13.2
 11
-13.2
 20
52
 21
48
  0
LINE
  8
0
 10
-13.2
 11
-5.2
 20
48
 21
48
  0
LINE
  8
0
 10
-5.2
 11
-5.2
 20
48
 21
44
  0
LINE
  8
0
 10
-5.2
 11
-9.2
 20
44
 21
44
  0
LINE
  8
0
 10
-9.2
 11
-9.2
 20
44
 21
40
  0
LINE
  8
0
 10
-9.2
 11
-5.2
 20
40
 21
40
  0
LINE
  8
0
 10
-5.2
 11
-5.2
 20
40
 21
36
  0
LINE
  8
0
 10
-5.2
 11
-9.2
 20
36
 21
36
  0
LINE
  8
0
 10
-9.2
 11
-9.2
 20
36
 21
32
  0
LINE
  8
0
 10
-9.2
 11
-5.2
 20
32
 21
32
  0
LINE
  8
0
 10
-5.2
 11
-5.2
 20
32
 21
28
  0
LINE
  8
0
 10
-5.2
 11
-9.2
 20
28
 21
28
  0
LINE
  8
0
 10
-9.2
 11
-9.2
 20
28
 21
24
  0
LINE
  8
0
 10
-9.2
 11
-5.2
 20
24
 21
24
  0
LINE
  8
0
 10
-5.2
 11
-5.2
 20
24
 21
20
  0
LINE
  8
0
 10
-5.2
 11
-9.2
 20
20
 21
20
  0
LINE
  8
0
 10
-9.2
 11
-9.2
 20
20
 21
16
  0
LINE
  8
0
 10
-9.2
 11
-5.2
 20
16
 21
16
  0
LINE
  8
0
 10
-5.2
 11
-5.2
 20
16
 21
12
  0
LINE
  8
0
 10
-5.2
 11
-9.2
 20
12
 21
12
  0
LINE
  8
0
 10
-9.2
 11
-9.2
 20
12
 21
8
  0
LINE
  8
0
 10
-9.2
 11
-5.2
 20
8
 21
8
  0
LINE
  8
0
 10
-5.2
 11
-5.2
 20
8
 21
4
  0
LINE
  8
0
 10
-5.2
 11
-9.2
 20
4
 21
4
  0
LINE
  8
0
 10
-9.2
 11
-9.2
 20
4
 21
-4
  0
LINE
  8
0
 10
-9.2
 11
-13.2
 20
-4
 21
-4
  0
LINE
  8
0
 10
-13.2
 11
-13.2
 20
-4
 21
0
  0
LINE
  8
0
 10
-13.2
 11
-17.2
 20
0
 21
0
  0
LINE
  8
0
 10
-17.2
 11
-17.2
 20
0
 21
-4
  0
LINE
  8
0
 10
-17.2
 11
-21.2
 20
-4
 21
-4
  0
LINE
  8
0
 10
-21.2
 11
-21.2
 20
-4
 21
0
  0
LINE
  8
0
 10
-21.2
 11
-25.2
 20
0
 21
0
  0
LINE
  8
0
 10
-25.2
 11
-25.2
 20
0
 21
-4
  0
LINE
  8
0
 10
-25.2
 11
-29.2
 20
-4
 21
-4
  0
LINE
  8
0
 10
-29.2
 11
-29.2
 20
-4
 21
0
  0
LINE
  8
0
 10
-29.2
 11
-37.2
 20
0
 21
0
  0
LINE
  8
0
 10
-37.2
 11
-37.2
 20
57.2
 21
61.2
  0
LINE
  8
0
 10
-37.2
 11
-33.2
 20
61.2
 21
61.2
  0
LINE
  8
0
 10
-33.2
 11
-33.2
 20
61.2
 21
65.2
  0
LINE
  8
0
 10
-33.2
 11
-37.2
 20
65.2
 21
65.2
  0
LINE
  8
0
 10
-37.2
 11
-37.2
 20
65.2
 21
69.2
  0
LINE
  8
0
 10
-37.2
 11
-33.2
 20
69.2
 21
69.2
  0
LINE
  8
0
 10
-33.2
 11
-33.2
 20
69.2
 21
73.2
  0
LINE
  8
0
 10
-33.2
 11
-37.2
 20
73.2
 21
73.2
  0
LINE
  8
0
 10
-37.2
 11
-37.2
 20
73.2
 21
77.2
  0
LINE
  8
0
 10
-37.2
 11
-33.2
 20
77.2
 21
77.2
  0
LINE
  8
0
 10
-33.2
 11
-33.2
 20
77.2
 21
81.2
  0
LINE
  8
0
 10
-33.2
 11
-37.2
 20
81.2
 21
81.2
  0
LINE
  8
0
 10
-37.2
 11
-37.2
 20
81.2
 21
85.2
  0
LINE
  8
0
 10
-37.2
 11
-33.2
 20
85.2
 21
85.2
  0
LINE
  8
0
 10
-33.2
 11
-33.2
 20
85.2
 21
89.2
  0
LINE
  8
0
 10
-33.2
 11
-37.2
 20
89.2
 21
89.2
  0
LINE
  8
0
 10
-37.2
 11
-37.2
 20
89.2
 21
93.2
  0
LINE
  8
0
 10
-37.2
 11
-33.2
 20
93.2
 21
93.2
  0
LINE
  8
0
 10
-33.2
 11
-33.2
 20
93.2
 21
97.2
  0
LINE
  8
0
 10
-33.2
 11
-37.2
 20
97.2
 21
97.2
  0
LINE
  8
0
 10
-37.2
 11
-37.2
 20
97.2
 21
101.2
  0
LINE
  8
0
 10
-37.2
 11
-33.2
 20
101.2
 21
101.2
  0
LINE
  8
0
 10
-33.2
 11
-33.2
 20
101.2
 21
109.2
  0
LINE
  8
0
 10
-33.2
 11
-29.2
 20
109.2
 21
109.2
  0
LINE
  8
0
 10
-29.2
 11
-29.2
 20
109.2
 21
105.2
  0
LINE
  8
0
 10
-29.2
 11
-25.2
 20
105.2
 21
105.2
  0
LINE
  8
0
 10
-25.2
 11
-25.2
 20
105.2
 21
109.2
  0
LINE
  8
0
 10
-25.2
 11
-21.2
 20
109.2
 21
109.2
  0
LINE
  8
0
 10
-21.2
 11
-21.2
 20
109.2
 21
105.2
  0
LINE
  8
0
 10
-21.2
 11
-17.2
 20
105.2
 21
105.2
  0
LINE
  8
0
 10
-17.2
 11
-17.2
 20
105.2
 21
109.2
  0
LINE
  8
0
 10
-17.2
 11
-13.2
 20
109.2
 21
109.2
  0
LINE
  8
0
 10
-13.2
 11
-13.2
 20
109.2
 21
105.2
  0
LINE
  8
0
 10
-13.2
 11
-5.2
 20
105.2
 21
105.2
  0
LINE
  8
0
 10
-5.2
 11
-5.2
 20
105.2
 21
101.2
  0
LINE
  8
0
 10
-5.2
 11
-9.2
 20
101.2
 21
101.2
  0
LINE
  8
0
 10
-9.2
 11
-9.2
 20
101.2
 21
97.2
  0
LINE
  8
0
 10
-9.2
 11
-5.2
 20
97.2
 21
97.2
  0
LINE
  8
0
 10
-5.2
 11
-5.2
 20
97.2
 21
93.2
  0
LINE
  8
0
 10
-5.2
 11
-9.2
 20
93.2
 21
93.2
  0
LINE
  8
0
 10
-9.2
 11
-9.2
 20
93.2
 21
89.2
  0
LINE
  8
0
 10
-9.2
 11
-5.2
 20
89.2
 21
89.2
  0
LINE
  8
0
 10
-5.2
 11
-5.2
 20
89.2
 21
85.2
  0
LINE
  8
0
 10
-5.2
 11
-9.2
 20
85.2
 21
85.2
  0
LINE
  8
0
 10
-9.2
 11
-9.2
 20
85.2
 21
81.2
  0
LINE
  8
0
 10
-9.2
 11
-5.2
 20
81.2
 21
81.2
  0
LINE
  8
0
 10
-5.2
 11
-5.2
 20
81.2
 21
77.2
  0
LINE
  8
0
 10
-5.2
 11
-9.2
 20
77.2
 21
77.2
  0
LINE
  8
0
 10
-9.2
 11
-9.2
 20
77.2
 21
73.2
  0
LINE
  8
0
 10
-9.2
 11
-5.2
 20
73.2
 21
73.2
  0
LINE
  8
0
 10
-5.2
 11
-5.2
 20
73.2
 21
69.2
  0
LINE
  8
0
 10
-5.2
 11
-9.2
 20
69.2
 21
69.2
  0
LINE
  8
0
 10
-9.2
 11
-9.2
 20
69.2
 21
65.2
  0
LINE
  8
0
 10
-9.2
 11
-5.2
 20
65.2
 21
65.2
  0
LINE
  8
0
 10
-5.2
 11
-5.2
 20
65.2
 21
61.2
  0
LINE
  8
0
 10
-5.2
 11
-9.2
 20
61.2
 21
61.2
  0
LINE
  8
0
 10
-9.2
 11
-9.2
 20
61.2
 21
53.2
  0
LINE
  8
0
 10
-9.2
 11
-13.2
 20
53.2
 21
53.2
  0
LINE
  8
0
 10
-13.2
 11
-13.2
 20
53.2
 21
57.2
  0
LINE
  8
0
 10
-13.2
 11
-17.2
 20
57.2
 21
57.2
  0
LINE
  8
0
 10
-17.2
 11
-17.2
 20
57.2
 21
53.2
  0
LINE
  8
0
 10
-17.2
 11
-21.2
 20
53.2
 21
53.2
  0
LINE
  8
0
 10
-21.2
 11
-21.2
 20
53.2
 21
57.2
  0
LINE
  8
0
 10
-21.2
 11
-25.2
 20
57.2
 21
57.2
  0
LINE
  8
0
 10
-25.2
 11
-25.2
 20
57.2
 21
53.2
  0
LINE
  8
0
 10
-25.2
 11
-29.2
 20
53.2
 21
53.2
  0
LINE
  8
0
 10
-29.2
 11
-29.2
 20
53.2
 21
57.2
  0
LINE
  8
0
 10
-29.2
 11
-37.2
 20
57.2
 21
57.2
  0
LINE
  8
0
 10
-4
 11
-4
 20
-4
 21
4
  0
LINE
  8
0
 10
-4
 11
0
 20
4
 21
4
  0
LINE
  8
0
 10
0
 11
0
 20
4
 21
8
  0
LINE
  8
0
 10
0
 11
-4
 20
8
 21
8
  0
LINE
  8
0
 10
-4
 11
-4
 20
8
 21
12
  0
LINE
  8
0
 10
-4
 11
0
 20
12
 21
12
  0
LINE
  8
0
 10
0
 11
0
 20
12
 21
16
  0
LINE
  8
0
 10
0
 11
-4
 20
16
 21
16
  0
LINE
  8
0
 10
-4
 11
-4
 20
16
 21
20
  0
LINE
  8
0
 10
-4
 11
0
 20
20
 21
20
  0
LINE
  8
0
 10
0
 11
0
 20
20
 21
24
  0
LINE
  8
0
 10
0
 11
-4
 20
24
 21
24
  0
LINE
  8
0
 10
-4
 11
-4
 20
24
 21
28
  0
LINE
  8
0
 10
-4
 11
0
 20
28
 21
28
  0
LINE
  8
0
 10
0
 11
0
 20
28
 21
32
  0
LINE
  8
0
 10
0
 11
-4
 20
32
 21
32
  0
LINE
  8
0
 10
-4
 11
-4
 20
32
 21
36
  0
LINE
  8
0
 10
-4
 11
0
 20
36
 21
36
  0
LINE
  8
0
 10
0
 11
0
 20
36
 21
40
  0
LINE
  8
0
 10
0
 11
-4
 20
40
 21
40
  0
LINE
  8
0
 10
-4
 11
-4
 20
40
 21
44
  0
LINE
  8
0
 10
-4
 11
0
 20
44
 21
44
  0
LINE
  8
0
 10
0
 11
0
 20
44
 21
48
  0
LINE
  8
0
 10
0
 11
-4
 20
48
 21
48
  0
LINE
  8
0
 10
-4
 11
-4
 20
48
 21
52
  0
LINE
  8
0
 10
-4
 11
4
 20
52
 21
52
  0
LINE
  8
0
 10
4
 11
4
 20
52
 21
48
  0
LINE
  8
0
 10
4
 11
8
 20
48
 21
48
  0
LINE
  8
0
 10
8
 11
8
 20
48
 21
52
  0
LINE
  8
0
 10
8
 11
12
 20
52
 21
52
  0
LINE
  8
0
 10
12
 11
12
 20
52
 21
48
  0
LINE
  8
0
 10
12
 11
16
 20
48
 21
48
  0
LINE
  8
0
 10
16
 11
16
 20
48
 21
52
  0
LINE
  8
0
 10
16
 11
20
 20
52
 21
52
  0
LINE
  8
0
 10
20
 11
20
 20
52
 21
48
  0
LINE
  8
0
 10
20
 11
24
 20
48
 21
48
  0
LINE
  8
0
 10
24
 11
24
 20
48
 21
52
  0
LINE
  8
0
 10
24
 11
28
 20
52
 21
52
  0
LINE
  8
0
 10
28
 11
28
 20
52
 21
48
  0
LINE
  8
0
 10
28
 11
32
 20
48
 21
48
  0
LINE
  8
0
 10
32
 11
32
 20
48
 21
52
  0
LINE
  8
0
 10
32
 11
36
 20
52
 21
52
  0
LINE
  8
0
 10
36
 11
36
 20
52
 21
48
  0
LINE
  8
0
 10
36
 11
40
 20
48
 21
48
  0
LINE
  8
0
 10
40
 11
40
 20
48
 21
52
  0
LINE
  8
0
 10
40
 11
44
 20
52
 21
52
  0
LINE
  8
0
 10
44
 11
44
 20
52
 21
48
  0
LINE
  8
0
 10
44
 11
48
 20
48
 21
48
  0
LINE
  8
0
 10
48
 11
48
 20
48
 21
52
  0
LINE
  8
0
 10
48
 11
52
 20
52
 21
52
  0
LINE
  8
0
 10
52
 11
52
 20
52
 21
48
  0
LINE
  8
0
 10
52
 11
56
 20
48
 21
48
  0
LINE
  8
0
 10
56
 11
56
 20
48
 21
52
  0
LINE
  8
0
 10
56
 11
60
 20
52
 21
52
  0
LINE
  8
0
 10
60
 11
60
 20
52
 21
48
  0
LINE
  8
0
 10
60
 11
64
 20
48
 21
48
  0
LINE
  8
0
 10
64
 11
64
 20
48
 21
52
  0
LINE
  8
0
 10
64
 11
68
 20
52
 21
52
  0
LINE
  8
0
 10
68
 11
68
 20
52
 21
48
  0
LINE
  8
0
 10
68
 11
72
 20
48
 21
48
  0
LINE
  8
0
 10
72
 11
72
 20
48
 21
52
  0
LINE
  8
0
 10
72
 11
76
 20
52
 21
52
  0
LINE
  8
0
 10
76
 11
76
 20
52
 21
48
  0
LINE
  8
0
 10
76
 11
80
 20
48
 21
48
  0
LINE
  8
0
 10
80
 11
80
 20
48
 21
52
  0
LINE
  8
0
 10
80
 11
84
 20
52
 21
52
  0
LINE
  8
0
 10
84
 11
84
 20
52
 21
48
  0
LINE
  8
0
 10
84
 11
88
 20
48
 21
48
  0
LINE
  8
0
 10
88
 11
88
 20
48
 21
52
  0
LINE
  8
0
 10
88
 11
92
 20
52
 21
52
  0
LINE
  8
0
 10
92
 11
92
 20
52
 21
48
  0
LINE
  8
0
 10
92
 11
96
 20
48
 21
48
  0
LINE
  8
0
 10
96
 11
96
 20
48
 21
52
  0
LINE
  8
0
 10
96
 11
100
 20
52
 21
52
  0
LINE
  8
0
 10
100
 11
100
 20
52
 21
48
  0
LINE
  8
0
 10
100
 11
104
 20
48
 21
48
  0
LINE
  8
0
 10
104
 11
104
 20
48
 21
52
  0
LINE
  8
0
 10
104
 11
108
 20
52
 21
52
  0
LINE
  8
0
 10
108
 11
108
 20
52
 21
48
  0
LINE
  8
0
 10
108
 11
112
 20
48
 21
48
  0
LINE
  8
0
 10
112
 11
112
 20
48
 21
52
  0
LINE
  8
0
 10
112
 11
116
 20
52
 21
52
  0
LINE
  8
0
 10
116
 11
116
 20
52
 21
48
  0
LINE
  8
0
 10
116
 11
120
 20
48
 21
48
  0
LINE
  8
0
 10
120
 11
120
 20
48
 21
52
  0
LINE
  8
0
 10
120
 11
124
 20
52
 21
52
  0
LINE
  8
0
 10
124
 11
124
 20
52
 21
48
  0
LINE
  8
0
 10
124
 11
128
 20
48
 21
48
  0
LINE
  8
0
 10
128
 11
128
 20
48
 21
52
  0
LINE
  8
0
 10
128
 11
132
 20
52
 21
52
  0
LINE
  8
0
 10
132
 11
132
 20
52
 21
48
  0
LINE
  8
0
 10
132
 11
136
 20
48
 21
48
  0
LINE
  8
0
 10
136
 11
136
 20
48
 21
52
  0
LINE
  8
0
 10
136
 11
140
 20
52
 21
52
  0
LINE
  8
0
 10
140
 11
140
 20
52
 21
48
  0
LINE
  8
0
 10
140
 11
144
 20
48
 21
48
  0
LINE
  8
0
 10
144
 11
144
 20
48
 21
52
  0
LINE
  8
0
 10
144
 11
148
 20
52
 21
52
  0
LINE
  8
0
 10
148
 11
148
 20
52
 21
48
  0
LINE
  8
0
 10
148
 11
152
 20
48
 21
48
  0
LINE
  8
0
 10
152
 11
152
 20
48
 21
52
  0
LINE
  8
0
 10
152
 11
156
 20
52
 21
52
  0
LINE
  8
0
 10
156
 11
156
 20
52
 21
48
  0
LINE
  8
0
 10
156
 11
160
 20
48
 21
48
  0
LINE
  8
0
 10
160
 11
160
 20
48
 21
52
  0
LINE
  8
0
 10
160
 11
164
 20
52
 21
52
  0
LINE
  8
0
 10
164
 11
164
 20
52
 21
48
  0
LINE
  8
0
 10
164
 11
168
 20
48
 21
48
  0
LINE
  8
0
 10
168
 11
168
 20
48
 21
52
  0
LINE
  8
0
 10
168
 11
172
 20
52
 21
52
  0
LINE
  8
0
 10
172
 11
172
 20
52
 21
48
  0
LINE
  8
0
 10
172
 11
176
 20
48
 21
48
  0
LINE
  8
0
 10
176
 11
176
 20
48
 21
52
  0
LINE
  8
0
 10
176
 11
180
 20
52
 21
52
  0
LINE
  8
0
 10
180
 11
180
 20
52
 21
48
  0
LINE
  8
0
 10
180
 11
184
 20
48
 21
48
  0
LINE
  8
0
 10
184
 11
184
 20
48
 21
52
  0
LINE
  8
0
 10
184
 11
188
 20
52
 21
52
  0
LINE
  8
0
 10
188
 11
188
 20
52
 21
48
  0
LINE
  8
0
 10
188
 11
192
 20
48
 21
48
  0
LINE
  8
0
 10
192
 11
192
 20
48
 21
52
  0
LINE
  8
0
 10
192
 11
196
 20
52
 21
52
  0
LINE
  8
0
 10
196
 11
196
 20
52
 21
48
  0
LINE
  8
0
 10
196
 11
200
 20
48
 21
48
  0
LINE
  8
0
 10
200
 11
200
 20
48
 21
52
  0
LINE
  8
0
 10
200
 11
204
 20
52
 21
52
  0
LINE
  8
0
 10
204
 11
204
 20
52
 21
48
  0
LINE
  8
0
 10
204
 11
208
 20
48
 21
48
  0
LINE
  8
0
 10
208
 11
208
 20
48
 21
52
  0
LINE
  8
0
 10
208
 11
212
 20
52
 21
52
  0
LINE
  8
0
 10
212
 11
212
 20
52
 21
48
  0
LINE
  8
0
 10
212
 11
216
 20
48
 21
48
  0
LINE
  8
0
 10
216
 11
216
 20
48
 21
52
  0
LINE
  8
0
 10
216
 11
220
 20
52
 21
52
  0
LINE
  8
0
 10
220
 11
220
 20
52
 21
48
  0
LINE
  8
0
 10
220
 11
224
 20
48
 21
48
  0
LINE
  8
0
 10
224
 11
224
 20
48
 21
52
  0
LINE
  8
0
 10
224
 11
228
 20
52
 21
52
  0
LINE
  8
0
 10
228
 11
228
 20
52
 21
48
  0
LINE
  8
0
 10
228
 11
232
 20
48
 21
48
  0
LINE
  8
0
 10
232
 11
232
 20
48
 21
52
  0
LINE
  8
0
 10
232
 11
236
 20
52
 21
52
  0
LINE
  8
0
 10
236
 11
236
 20
52
 21
48
  0
LINE
  8
0
 10
236
 11
240
 20
48
 21
48
  0
LINE
  8
0
 10
240
 11
240
 20
48
 21
52
  0
LINE
  8
0
 10
240
 11
244
 20
52
 21
52
  0
LINE
  8
0
 10
244
 11
244
 20
52
 21
44
  0
LINE
  8
0
 10
244
 11
240
 20
44
 21
44
  0
LINE
  8
0
 10
240
 11
240
 20
44
 21
40
  0
LINE
  8
0
 10
240
 11
244
 20
40
 21
40
  0
LINE
  8
0
 10
244
 11
244
 20
40
 21
36
  0
LINE
  8
0
 10
244
 11
240
 20
36
 21
36
  0
LINE
  8
0
 10
240
 11
240
 20
36
 21
32
  0
LINE
  8
0
 10
240
 11
244
 20
32
 21
32
  0
LINE
  8
0
 10
244
 11
244
 20
32
 21
28
  0
LINE
  8
0
 10
244
 11
240
 20
28
 21
28
  0
LINE
  8
0
 10
240
 11
240
 20
28
 21
24
  0
LINE
  8
0
 10
240
 11
244
 20
24
 21
24
  0
LINE
  8
0
 10
244
 11
244
 20
24
 21
20
  0
LINE
  8
0
 10
244
 11
240
 20
20
 21
20
  0
LINE
  8
0
 10
240
 11
240
 20
20
 21
16
  0
LINE
  8
0
 10
240
 11
244
 20
16
 21
16
  0
LINE
  8
0
 10
244
 11
244
 20
16
 21
12
  0
LINE
  8
0
 10
244
 11
240
 20
12
 21
12
  0
LINE
  8
0
 10
240
 11
240
 20
12
 21
8
  0
LINE
  8
0
 10
240
 11
244
 20
8
 21
8
  0
LINE
  8
0
 10
244
 11
244
 20
8
 21
4
  0
LINE
  8
0
 10
244
 11
240
 20
4
 21
4
  0
LINE
  8
0
 10
240
 11
240
 20
4
 21
0
  0
LINE
  8
0
 10
240
 11
244
 20
0
 21
0
  0
LINE
  8
0
 10
244
 11
244
 20
0
 21
-4
  0
LINE
  8
0
 10
244
 11
236
 20
-4
 21
-4
  0
LINE
  8
0
 10
236
 11
236
 20
-4
 21
0
  0
LINE
  8
0
 10
236
 11
232
 20
0
 21
0
  0
LINE
  8
0
 10
232
 11
232
 20
0
 21
-4
  0
LINE
  8
0
 10
232
 11
228
 20
-4
 21
-4
  0
LINE
  8
0
 10
228
 11
228
 20
-4
 21
0
  0
LINE
  8
0
 10
228
 11
224
 20
0
 21
0
  0
LINE
  8
0
 10
224
 11
224
 20
0
 21
-4
  0
LINE
  8
0
 10
224
 11
220
 20
-4
 21
-4
  0
LINE
  8
0
 10
220
 11
220
 20
-4
 21
0
  0
LINE
  8
0
 10
220
 11
216
 20
0
 21
0
  0
LINE
  8
0
 10
216
 11
216
 20
0
 21
-4
  0
LINE
  8
0
 10
216
 11
212
 20
-4
 21
-4
  0
LINE
  8
0
 10
212
 11
212
 20
-4
 21
0
  0
LINE
  8
0
 10
212
 11
208
 20
0
 21
0
  0
LINE
  8
0
 10
208
 11
208
 20
0
 21
-4
  0
LINE
  8
0
 10
208
 11
204
 20
-4
 21
-4
  0
LINE
  8
0
 10
204
 11
204
 20
-4
 21
0
  0
LINE
  8
0
 10
204
 11
200
 20
0
 21
0
  0
LINE
  8
0
 10
200
 11
200
 20
0
 21
-4
  0
LINE
  8
0
 10
200
 11
196
 20
-4
 21
-4
  0
LINE
  8
0
 10
196
 11
196
 20
-4
 21
0
  0
LINE
  8
0
 10
196
 11
192
 20
0
 21
0
  0
LINE
  8
0
 10
192
 11
192
 20
0
 21
-4
  0
LINE
  8
0
 10
192
 11
188
 20
-4
 21
-4
  0
LINE
  8
0
 10
188
 11
188
 20
-4
 21
0
  0
LINE
  8
0
 10
188
 11
184
 20
0
 21
0
  0
LINE
  8
0
 10
184
 11
184
 20
0
 21
-4
  0
LINE
  8
0
 10
184
 11
180
 20
-4
 21
-4
  0
LINE
  8
0
 10
180
 11
180
 20
-4
 21
0
  0
LINE
  8
0
 10
180
 11
176
 20
0
 21
0
  0
LINE
  8
0
 10
176
 11
176
 20
0
 21
-4
  0
LINE
  8
0
 10
176
 11
172
 20
-4
 21
-4
  0
LINE
  8
0
 10
172
 11
172
 20
-4
 21
0
  0
LINE
  8
0
 10
172
 11
168
 20
0
 21
0
  0
LINE
  8
0
 10
168
 11
168
 20
0
 21
-4
  0
LINE
  8
0
 10
168
 11
164
 20
-4
 21
-4
  0
LINE
  8
0
 10
164
 11
164
 20
-4
 21
0
  0
LINE
  8
0
 10
164
 11
160
 20
0
 21
0
  0
LINE
  8
0
 10
160
 11
160
 20
0
 21
-4
  0
LINE
  8
0
 10
160
 11
156
 20
-4
 21
-4
  0
LINE
  8
0
 10
156
 11
156
 20
-4
 21
0
  0
LINE
  8
0
 10
156
 11
152
 20
0
 21
0
  0
LINE
  8
0
 10
152
 11
152
 20
0
 21
-4
  0
LINE
  8
0
 10
152
 11
148
 20
-4
 21
-4
  0
LINE
  8
0
 10
148
 11
148
 20
-4
 21
0
  0
LINE
  8
0
 10
148
 11
144
 20
0
 21
0
  0
LINE
  8
0
 10
144
 11
144
 20
0
 21
-4
  0
LINE
  8
0
 10
144
 11
140
 20
-4
 21
-4
  0
LINE
  8
0
 10
140
 11
140
 20
-4
 21
0
  0
LINE
  8
0
 10
140
 11
136
 20
0
 21
0
  0
LINE
  8
0
 10
136
 11
136
 20
0
 21
-4
  0
LINE
  8
0
 10
136
 11
132
 20
-4
 21
-4
  0
LINE
  8
0
 10
132
 11
132
 20
-4
 21
0
  0
LINE
  8
0
 10
132
 11
128
 20
0
 21
0
  0
LINE
  8
0
 10
128
 11
128
 20
0
 21
-4
  0
LINE
  8
0
 10
128
 11
124
 20
-4
 21
-4
  0
LINE
  8
0
 10
124
 11
124
 20
-4
 21
0
  0
LINE
  8
0
 10
124
 11
120
 20
0
 21
0
  0
LINE
  8
0
 10
120
 11
120
 20
0
 21
-4
  0
LINE
  8
0
 10
120
 11
116
 20
-4
 21
-4
  0
LINE
  8
0
 10
116
 11
116
 20
-4
 21
0
  0
LINE
  8
0
 10
116
 11
112
 20
0
 21
0
  0
LINE
  8
0
 10
112
 11
112
 20
0
 21
-4
  0
LINE
  8
0
 10
112
 11
108
 20
-4
 21
-4
  0
LINE
  8
0
 10
108
 11
108
 20
-4
 21
0
  0
LINE
  8
0
 10
108
 11
104
 20
0
 21
0
  0
LINE
  8
0
 10
104
 11
104
 20
0
 21
-4
  0
LINE
  8
0
 10
104
 11
100
 20
-4
 21
-4
  0
LINE
  8
0
 10
100
 11
100
 20
-4
 21
0
  0
LINE
  8
0
 10
100
 11
96
 20
0
 21
0
  0
LINE
  8
0
 10
96
 11
96
 20
0
 21
-4
  0
LINE
  8
0
 10
96
 11
92
 20
-4
 21
-4
  0
LINE
  8
0
 10
92
 11
92
 20
-4
 21
0
  0
LINE
  8
0
 10
92
 11
88
 20
0
 21
0
  0
LINE
  8
0
 10
88
 11
88
 20
0
 21
-4
  0
LINE
  8
0
 10
88
 11
84
 20
-4
 21
-4
  0
LINE
  8
0
 10
84
 11
84
 20
-4
 21
0
  0
LINE
  8
0
 10
84
 11
80
 20
0
 21
0
  0
LINE
  8
0
 10
80
 11
80
 20
0
 21
-4
  0
LINE
  8
0
 10
80
 11
76
 20
-4
 21
-4
  0
LINE
  8
0
 10
76
 11
76
 20
-4
 21
0
  0
LINE
  8
0
 10
76
 11
72
 20
0
 21
0
  0
LINE
  8
0
 10
72
 11
72
 20
0
 21
-4
  0
LINE
  8
0
 10
72
 11
68
 20
-4
 21
-4
  0
LINE
  8
0
 10
68
 11
68
 20
-4
 21
0
  0
LINE
  8
0
 10
68
 11
64
 20
0
 21
0
  0
LINE
  8
0
 10
64
 11
64
 20
0
 21
-4
  0
LINE
  8
0
 10
64
 11
60
 20
-4
 21
-4
  0
LINE
  8
0
 10
60
 11
60
 20
-4
 21
0
  0
LINE
  8
0
 10
60
 11
56
 20
0
 21
0
  0
LINE
  8
0
 10
56
 11
56
 20
0
 21
-4
  0
LINE
  8
0
 10
56
 11
52
 20
-4
 21
-4
  0
LINE
  8
0
 10
52
 11
52
 20
-4
 21
0
  0
LINE
  8
0
 10
52
 11
48
 20
0
 21
0
  0
LINE
  8
0
 10
48
 11
48
 20
0
 21
-4
  0
LINE
  8
0
 10
48
 11
44
 20
-4
 21
-4
  0
LINE
  8
0
 10
44
 11
44
 20
-4
 21
0
  0
LINE
  8
0
 10
44
 11
40
 20
0
 21
0
  0
LINE
  8
0
 10
40
 11
40
 20
0
 21
-4
  0
LINE
  8
0
 10
40
 11
36
 20
-4
 21
-4
  0
LINE
  8
0
 10
36
 11
36
 20
-4
 21
0
  0
LINE
  8
0
 10
36
 11
32
 20
0
 21
0
  0
LINE
  8
0
 10
32
 11
32
 20
0
 21
-4
  0
LINE
  8
0
 10
32
 11
28
 20
-4
 21
-4
  0
LINE
  8
0
 10
28
 11
28
 20
-4
 21
0
  0
LINE
  8
0
 10
28
 11
24
 20
0
 21
0
  0
LINE
  8
0
 10
24
 11
24
 20
0
 21
-4
  0
LINE
  8
0
 10
24
 11
20
 20
-4
 21
-4
  0
LINE
  8
0
 10
20
 11
20
 20
-4
 21
0
  0
LINE
  8
0
 10
20
 11
16
 20
0
 21
0
  0
LINE
  8
0
 10
16
 11
16
 20
0
 21
-4
  0
LINE
  8
0
 10
16
 11
12
 20
-4
 21
-4
  0
LINE
  8
0
 10
12
 11
12
 20
-4
 21
0
  0
LINE
  8
0
 10
12
 11
8
 20
0
 21
0
  0
LINE
  8
0
 10
8
 11
8
 20
0
 21
-4
  0
LINE
  8
0
 10
8
 11
4
 20
-4
 21
-4
  0
LINE
  8
0
 10
4
 11
4
 20
-4
 21
0
  0
LINE
  8
0
 10
4
 11
0
 20
0
 21
0
  0
LINE
  8
0
 10
0
 11
0
 20
0
 21
-4
  0
LINE
  8
0
 10
0
 11
-4
 20
-4
 21
-4
  0
LINE
  8
0
 10
-4
 11
-4
 20
53.2
 21
61.2
  0
LINE
  8
0
 10
-4
 11
0
 20
61.2
 21
61.2
  0
LINE
  8
0
 10
0
 11
0
 20
61.2
 21
65.2
  0
LINE
  8
0
 10
0
 11
-4
 20
65.2
 21
65.2
  0
LINE
  8
0
 10
-4
 11
-4
 20
65.2
 21
69.2
  0
LINE
  8
0
 10
-4
 11
0
 20
69.2
 21
69.2
  0
LINE
  8
0
 10
0
 11
0
 20
69.2
 21
73.2
  0
LINE
  8
0
 10
0
 11
-4
 20
73.2
 21
73.2
  0
LINE
  8
0
 10
-4
 11
-4
 20
73.2
 21
77.2
  0
LINE
  8
0
 10
-4
 11
0
 20
77.2
 21
77.2
  0
LINE
  8
0
 10
0
 11
0
 20
77.2
 21
81.2
  0
LINE
  8
0
 10
0
 11
-4
 20
81.2
 21
81.2
  0
LINE
  8
0
 10
-4
 11
-4
 20
81.2
 21
85.2
  0
LINE
  8
0
 10
-4
 11
0
 20
85.2
 21
85.2
  0
LINE
  8
0
 10
0
 11
0
 20
85.2
 21
89.2
  0
LINE
  8
0
 10
0
 11
-4
 20
89.2
 21
89.2
  0
LINE
  8
0
 10
-4
 11
-4
 20
89.2
 21
93.2
  0
LINE
  8
0
 10
-4
 11
0
 20
93.2
 21
93.2
  0
LINE
  8
0
 10
0
 11
0
 20
93.2
 21
97.2
  0
LINE
  8
0
 10
0
 11
-4
 20
97.2
 21
97.2
  0
LINE
  8
0
 10
-4
 11
-4
 20
97.2
 21
101.2
  0
LINE
  8
0
 10
-4
 11
0
 20
101.2
 21
101.2
  0
LINE
  8
0
 10
0
 11
0
 20
101.2
 21
105.2
  0
LINE
  8
0
 10
0
 11
-4
 20
105.2
 21
105.2
  0
LINE
  8
0
 10
-4
 11
-4
 20
105.2
 21
109.2
  0
LINE
  8
0
 10
-4
 11
4
 20
109.2
 21
109.2
  0
LINE
  8
0
 10
4
 11
4
 20
109.2
 21
105.2
  0
LINE
  8
0
 10
4
 11
8
 20
105.2
 21
105.2
  0
LINE
  8
0
 10
8
 11
8
 20
105.2
 21
109.2
  0
LINE
  8
0
 10
8
 11
12
 20
109.2
 21
109.2
  0
LINE
  8
0
 10
12
 11
12
 20
109.2
 21
105.2
  0
LINE
  8
0
 10
12
 11
16
 20
105.2
 21
105.2
  0
LINE
  8
0
 10
16
 11
16
 20
105.2
 21
109.2
  0
LINE
  8
0
 10
16
 11
20
 20
109.2
 21
109.2
  0
LINE
  8
0
 10
20
 11
20
 20
109.2
 21
105.2
  0
LINE
  8
0
 10
20
 11
24
 20
105.2
 21
105.2
  0
LINE
  8
0
 10
24
 11
24
 20
105.2
 21
109.2
  0
LINE
  8
0
 10
24
 11
28
 20
109.2
 21
109.2
  0
LINE
  8
0
 10
28
 11
28
 20
109.2
 21
105.2
  0
LINE
  8
0
 10
28
 11
32
 20
105.2
 21
105.2
  0
LINE
  8
0
 10
32
 11
32
 20
105.2
 21
109.2
  0
LINE
  8
0
 10
32
 11
36
 20
109.2
 21
109.2
  0
LINE
  8
0
 10
36
 11
36
 20
109.2
 21
105.2
  0
LINE
  8
0
 10
36
 11
40
 20
105.2
 21
105.2
  0
LINE
  8
0
 10
40
 11
40
 20
105.2
 21
109.2
  0
LINE
  8
0
 10
40
 11
44
 20
109.2
 21
109.2
  0
LINE
  8
0
 10
44
 11
44
 20
109.2
 21
105.2
  0
LINE
  8
0
 10
44
 11
48
 20
105.2
 21
105.2
  0
LINE
  8
0
 10
48
 11
48
 20
105.2
 21
109.2
  0
LINE
  8
0
 10
48
 11
52
 20
109.2
 21
109.2
  0
LINE
  8
0
 10
52
 11
52
 20
109.2
 21
105.2
  0
LINE
  8
0
 10
52
 11
56
 20
105.2
 21
105.2
  0
LINE
  8
0
 10
56
 11
56
 20
105.2
 21
109.2
  0
LINE
  8
0
 10
56
 11
60
 20
109.2
 21
109.2
  0
LINE
  8
0
 10
60
 11
60
 20
109.2
 21
105.2
  0
LINE
  8
0
 10
60
 11
64
 20
105.2
 21
105.2
  0
LINE
  8
0
 10
64
 11
64
 20
105.2
 21
109.2
  0
LINE
  8
0
 10
64
 11
68
 20
109.2
 21
109.2
  0
LINE
  8
0
 10
68
 11
68
 20
109.2
 21
105.2
  0
LINE
  8
0
 10
68
 11
72
 20
105.2
 21
105.2
  0
LINE
  8
0
 10
72
 11
72
 20
105.2
 21
109.2
  0
LINE
  8
0
 10
72
 11
76
 20
109.2
 21
109.2
  0
LINE
  8
0
 10
76
 11
76
 20
109.2
 21
105.2
  0
LINE
  8
0
 10
76
 11
80
 20
105.2
 21
105.2
  0
LINE
  8
0
 10
80
 11
80
 20
105.2
 21
109.2
  0
LINE
  8
0
 10
80
 11
84
 20
109.2
 21
109.2
  0
LINE
  8
0
 10
84
 11
84
 20
109.2
 21
105.2
  0
LINE
  8
0
 10
84
 11
88
 20
105.2
 21
105.2
  0
LINE
  8
0
 10
88
 11
88
 20
105.2
 21
109.2
  0
LINE
  8
0
 10
88
 11
92
 20
109.2
 21
109.2
  0
LINE
  8
0
 10
92
 11
92
 20
109.2
 21
105.2
  0
LINE
  8
0
 10
92
 11
96
 20
105.2
 21
105.2
  0
LINE
  8
0
 10
96
 11
96
 20
105.2
 21
109.2
  0
LINE
  8
0
 10
96
 11
100
 20
109.2
 21
109.2
  0
LINE
  8
0
 10
100
 11
100
 20
109.2
 21
105.2
  0
LINE
  8
0
 10
100
 11
104
 20
105.2
 21
105.2
  0
LINE
  8
0
 10
104
 11
104
 20
105.2
 21
109.2
  0
LINE
  8
0
 10
104
 11
108
 20
109.2
 21
109.2
  0
LINE
  8
0
 10
108
 11
108
 20
109.2
 21
105.2
  0
LINE
  8
0
 10
108
 11
112
 20
105.2
 21
105.2
  0
LINE
  8
0
 10
112
 11
112
 20
105.2
 21
109.2
  0
LINE
  8
0
 10
112
 11
116
 20
109.2
 21
109.2
  0
LINE
  8
0
 10
116
 11
116
 20
109.2
 21
105.2
  0
LINE
  8
0
 10
116
 11
120
 20
105.2
 21
105.2
  0
LINE
  8
0
 10
120
 11
120
 20
105.2
 21
109.2
  0
LINE
  8
0
 10
120
 11
124
 20
109.2
 21
109.2
  0
LINE
  8
0
 10
124
 11
124
 20
109.2
 21
105.2
  0
LINE
  8
0
 10
124
 11
128
 20
105.2
 21
105.2
  0
LINE
  8
0
 10
128
 11
128
 20
105.2
 21
109.2
  0
LINE
  8
0
 10
128
 11
132
 20
109.2
 21
109.2
  0
LINE
  8
0
 10
132
 11
132
 20
109.2
 21
105.2
  0
LINE
  8
0
 10
132
 11
136
 20
105.2
 21
105.2
  0
LINE
  8
0
 10
136
 11
136
 20
105.2
 21
109.2
  0
LINE
  8
0
 10
136
 11
140
 20
109.2
 21
109.2
  0
LINE
  8
0
 10
140
 11
140
 20
109.2
 21
105.2
  0
LINE
  8
0
 10
140
 11
144
 20
105.2
 21
105.2
  0
LINE
  8
0
 10
144
 11
144
 20
105.2
 21
109.2
  0
LINE
  8
0
 10
144
 11
148
 20
109.2
 21
109.2
  0
LINE
  8
0
 10
148
 11
148
 20
109.2
 21
105.2
  0
LINE
  8
0
 10
148
 11
152
 20
105.2
 21
105.2
  0
LINE
  8
0
 10
152
 11
152
 20
105.2
 21
109.2
  0
LINE
  8
0
 10
152
 11
156
 20
109.2
 21
109.2
  0
LINE
  8
0
 10
156
 11
156
 20
109.2
 21
105.2
  0
LINE
  8
0
 10
156
 11
160
 20
105.2
 21
105.2
  0
LINE
  8
0
 10
160
 11
160
 20
105.2
 21
109.2
  0
LINE
  8
0
 10
160
 11
164
 20
109.2
 21
109.2
  0
LINE
  8
0
 10
164
 11
164
 20
109.2
 21
105.2
  0
LINE
  8
0
 10
164
 11
168
 20
105.2
 21
105.2
  0
LINE
  8
0
 10
168
 11
168
 20
105.2
 21
109.2
  0
LINE
  8
0
 10
168
 11
172
 20
109.2
 21
109.2
  0
LINE
  8
0
 10
172
 11
172
 20
109.2
 21
105.2
  0
LINE
  8
0
 10
172
 11
176
 20
105.2
 21
105.2
  0
LINE
  8
0
 10
176
 11
176
 20
105.2
 21
109.2
  0
LINE
  8
0
 10
176
 11
180
 20
109.2
 21
109.2
  0
LINE
  8
0
 10
180
 11
180
 20
109.2
 21
105.2
  0
LINE
  8
0
 10
180
 11
184
 20
105.2
 21
105.2
  0
LINE
  8
0
 10
184
 11
184
 20
105.2
 21
109.2
  0
LINE
  8
0
 10
184
 11
188
 20
109.2
 21
109.2
  0
LINE
  8
0
 10
188
 11
188
 20
109.2
 21
105.2
  0
LINE
  8
0
 10
188
 11
192
 20
105.2
 21
105.2
  0
LINE
  8
0
 10
192
 11
192
 20
105.2
 21
109.2
  0
LINE
  8
0
 10
192
 11
196
 20
109.2
 21
109.2
  0
LINE
  8
0
 10
196
 11
196
 20
109.2
 21
105.2
  0
LINE
  8
0
 10
196
 11
200
 20
105.2
 21
105.2
  0
LINE
  8
0
 10
200
 11
200
 20
105.2
 21
109.2
  0
LINE
  8
0
 10
200
 11
204
 20
109.2
 21
109.2
  0
LINE
  8
0
 10
204
 11
204
 20
109.2
 21
105.2
  0
LINE
  8
0
 10
204
 11
208
 20
105.2
 21
105.2
  0
LINE
  8
0
 10
208
 11
208
 20
105.2
 21
109.2
  0
LINE
  8
0
 10
208
 11
212
 20
109.2
 21
109.2
  0
LINE
  8
0
 10
212
 11
212
 20
109.2
 21
105.2
  0
LINE
  8
0
 10
212
 11
216
 20
105.2
 21
105.2
  0
LINE
  8
0
 10
216
 11
216
 20
105.2
 21
109.2
  0
LINE
  8
0
 10
216
 11
220
 20
109.2
 21
109.2
  0
LINE
  8
0
 10
220
 11
220
 20
109.2
 21
105.2
  0
LINE
  8
0
 10
220
 11
224
 20
105.2
 21
105.2
  0
LINE
  8
0
 10
224
 11
224
 20
105.2
 21
109.2
  0
LINE
  8
0
 10
224
 11
228
 20
109.2
 21
109.2
  0
LINE
  8
0
 10
228
 11
228
 20
109.2
 21
105.2
  0
LINE
  8
0
 10
228
 11
232
 20
105.2
 21
105.2
  0
LINE
  8
0
 10
232
 11
232
 20
105.2
 21
109.2
  0
LINE
  8
0
 10
232
 11
236
 20
109.2
 21
109.2
  0
LINE
  8
0
 10
236
 11
236
 20
109.2
 21
105.2
  0
LINE
  8
0
 10
236
 11
240
 20
105.2
 21
105.2
  0
LINE
  8
0
 10
240
 11
240
 20
105.2
 21
109.2
  0
LINE
  8
0
 10
240
 11
244
 20
109.2
 21
109.2
  0
LINE
  8
0
 10
244
 11
244
 20
109.2
 21
101.2
  0
LINE
  8
0
 10
244
 11
240
 20
101.2
 21
101.2
  0
LINE
  8
0
 10
240
 11
240
 20
101.2
 21
97.2
  0
LINE
  8
0
 10
240
 11
244
 20
97.2
 21
97.2
  0
LINE
  8
0
 10
244
 11
244
 20
97.2
 21
93.2
  0
LINE
  8
0
 10
244
 11
240
 20
93.2
 21
93.2
  0
LINE
  8
0
 10
240
 11
240
 20
93.2
 21
89.2
  0
LINE
  8
0
 10
240
 11
244
 20
89.2
 21
89.2
  0
LINE
  8
0
 10
244
 11
244
 20
89.2
 21
85.2
  0
LINE
  8
0
 10
244
 11
240
 20
85.2
 21
85.2
  0
LINE
  8
0
 10
240
 11
240
 20
85.2
 21
81.2
  0
LINE
  8
0
 10
240
 11
244
 20
81.2
 21
81.2
  0
LINE
  8
0
 10
244
 11
244
 20
81.2
 21
77.2
  0
LINE
  8
0
 10
244
 11
240
 20
77.2
 21
77.2
  0
LINE
  8
0
 10
240
 11
240
 20
77.2
 21
73.2
  0
LINE
  8
0
 10
240
 11
244
 20
73.2
 21
73.2
  0
LINE
  8
0
 10
244
 11
244
 20
73.2
 21
69.2
  0
LINE
  8
0
 10
244
 11
240
 20
69.2
 21
69.2
  0
LINE
  8
0
 10
240
 11
240
 20
69.2
 21
65.2
  0
LINE
  8
0
 10
240
 11
244
 20
65.2
 21
65.2
  0
LINE
  8
0
 10
244
 11
244
 20
65.2
 21
61.2
  0
LINE
  8
0
 10
244
 11
240
 20
61.2
 21
61.2
  0
LINE
  8
0
 10
240
 11
240
 20
61.2
 21
57.2
  0
LINE
  8
0
 10
240
 11
244
 20
57.2
 21
57.2
  0
LINE
  8
0
 10
244
 11
244
 20
57.2
 21
53.2
  0
LINE
  8
0
 10
244
 11
236
 20
53.2
 21
53.2
  0
LINE
  8
0
 10
236
 11
236
 20
53.2
 21
57.2
  0
LINE
  8
0
 10
236
 11
232
 20
57.2
 21
57.2
  0
LINE
  8
0
 10
232
 11
232
 20
57.2
 21
53.2
  0
LINE
  8
0
 10
232
 11
228
 20
53.2
 21
53.2
  0
LINE
  8
0
 10
228
 11
228
 20
53.2
 21
57.2
  0
LINE
  8
0
 10
228
 11
224
 20
57.2
 21
57.2
  0
LINE
  8
0
 10
224
 11
224
 20
57.2
 21
53.2
  0
LINE
  8
0
 10
224
 11
220
 20
53.2
 21
53.2
  0
LINE
  8
0
 10
220
 11
220
 20
53.2
 21
57.2
  0
LINE
  8
0
 10
220
 11
216
 20
57.2
 21
57.2
  0
LINE
  8
0
 10
216
 11
216
 20
57.2
 21
53.2
  0
LINE
  8
0
 10
216
 11
212
 20
53.2
 21
53.2
  0
LINE
  8
0
 10
212
 11
212
 20
53.2
 21
57.2
  0
LINE
  8
0
 10
212
 11
208
 20
57.2
 21
57.2
  0
LINE
  8
0
 10
208
 11
208
 20
57.2
 21
53.2
  0
LINE
  8
0
 10
208
 11
204
 20
53.2
 21
53.2
  0
LINE
  8
0
 10
204
 11
204
 20
53.2
 21
57.2
  0
LINE
  8
0
 10
204
 11
200
 20
57.2
 21
57.2
  0
LINE
  8
0
 10
200
 11
200
 20
57.2
 21
53.2
  0
LINE
  8
0
 10
200
 11
196
 20
53.2
 21
53.2
  0
LINE
  8
0
 10
196
 11
196
 20
53.2
 21
57.2
  0
LINE
  8
0
 10
196
 11
192
 20
57.2
 21
57.2
  0
LINE
  8
0
 10
192
 11
192
 20
57.2
 21
53.2
  0
LINE
  8
0
 10
192
 11
188
 20
53.2
 21
53.2
  0
LINE
  8
0
 10
188
 11
188
 20
53.2
 21
57.2
  0
LINE
  8
0
 10
188
 11
184
 20
57.2
 21
57.2
  0
LINE
  8
0
 10
184
 11
184
 20
57.2
 21
53.2
  0
LINE
  8
0
 10
184
 11
180
 20
53.2
 21
53.2
  0
LINE
  8
0
 10
180
 11
180
 20
53.2
 21
57.2
  0
LINE
  8
0
 10
180
 11
176
 20
57.2
 21
57.2
  0
LINE
  8
0
 10
176
 11
176
 20
57.2
 21
53.2
  0
LINE
  8
0
 10
176
 11
172
 20
53.2
 21
53.2
  0
LINE
  8
0
 10
172
 11
172
 20
53.2
 21
57.2
  0
LINE
  8
0
 10
172
 11
168
 20
57.2
 21
57.2
  0
LINE
  8
0
 10
168
 11
168
 20
57.2
 21
53.2
  0
LINE
  8
0
 10
168
 11
164
 20
53.2
 21
53.2
  0
LINE
  8
0
 10
164
 11
164
 20
53.2
 21
57.2
  0
LINE
  8
0
 10
164
 11
160
 20
57.2
 21
57.2
  0
LINE
  8
0
 10
160
 11
160
 20
57.2
 21
53.2
  0
LINE
  8
0
 10
160
 11
156
 20
53.2
 21
53.2
  0
LINE
  8
0
 10
156
 11
156
 20
53.2
 21
57.2
  0
LINE
  8
0
 10
156
 11
152
 20
57.2
 21
57.2
  0
LINE
  8
0
 10
152
 11
152
 20
57.2
 21
53.2
  0
LINE
  8
0
 10
152
 11
148
 20
53.2
 21
53.2
  0
LINE
  8
0
 10
148
 11
148
 20
53.2
 21
57.2
  0
LINE
  8
0
 10
148
 11
144
 20
57.2
 21
57.2
  0
LINE
  8
0
 10
144
 11
144
 20
57.2
 21
53.2
  0
LINE
  8
0
 10
144
 11
140
 20
53.2
 21
53.2
  0
LINE
  8
0
 10
140
 11
140
 20
53.2
 21
57.2
  0
LINE
  8
0
 10
140
 11
136
 20
57.2
 21
57.2
  0
LINE
  8
0
 10
136
 11
136
 20
57.2
 21
53.2
  0
LINE
  8
0
 10
136
 11
132
 20
53.2
 21
53.2
  0
LINE
  8
0
 10
132
 11
132
 20
53.2
 21
57.2
  0
LINE
  8
0
 10
132
 11
128
 20
57.2
 21
57.2
  0
LINE
  8
0
 10
128
 11
128
 20
57.2
 21
53.2
  0
LINE
  8
0
 10
128
 11
124
 20
53.2
 21
53.2
  0
LINE
  8
0
 10
124
 11
124
 20
53.2
 21
57.2
  0
LINE
  8
0
 10
124
 11
120
 20
57.2
 21
57.2
  0
LINE
  8
0
 10
120
 11
120
 20
57.2
 21
53.2
  0
LINE
  8
0
 10
120
 11
116
 20
53.2
 21
53.2
  0
LINE
  8
0
 10
116
 11
116
 20
53.2
 21
57.2
  0
LINE
  8
0
 10
116
 11
112
 20
57.2
 21
57.2
  0
LINE
  8
0
 10
112
 11
112
 20
57.2
 21
53.2
  0
LINE
  8
0
 10
112
 11
108
 20
53.2
 21
53.2
  0
LINE
  8
0
 10
108
 11
108
 20
53.2
 21
57.2
  0
LINE
  8
0
 10
108
 11
104
 20
57.2
 21
57.2
  0
LINE
  8
0
 10
104
 11
104
 20
57.2
 21
53.2
  0
LINE
  8
0
 10
104
 11
100
 20
53.2
 21
53.2
  0
LINE
  8
0
 10
100
 11
100
 20
53.2
 21
57.2
  0
LINE
  8
0
 10
100
 11
96
 20
57.2
 21
57.2
  0
LINE
  8
0
 10
96
 11
96
 20
57.2
 21
53.2
  0
LINE
  8
0
 10
96
 11
92
 20
53.2
 21
53.2
  0
LINE
  8
0
 10
92
 11
92
 20
53.2
 21
57.2
  0
LINE
  8
0
 10
92
 11
88
 20
57.2
 21
57.2
  0
LINE
  8
0
 10
88
 11
88
 20
57.2
 21
53.2
  0
LINE
  8
0
 10
88
 11
84
 20
53.2
 21
53.2
  0
LINE
  8
0
 10
84
 11
84
 20
53.2
 21
57.2
  0
LINE
  8
0
 10
84
 11
80
 20
57.2
 21
57.2
  0
LINE
  8
0
 10
80
 11
80
 20
57.2
 21
53.2
  0
LINE
  8
0
 10
80
 11
76
 20
53.2
 21
53.2
  0
LINE
  8
0
 10
76
 11
76
 20
53.2
 21
57.2
  0
LINE
  8
0
 10
76
 11
72
 20
57.2
 21
57.2
  0
LINE
  8
0
 10
72
 11
72
 20
57.2
 21
53.2
  0
LINE
  8
0
 10
72
 11
68
 20
53.2
 21
53.2
  0
LINE
  8
0
 10
68
 11
68
 20
53.2
 21
57.2
  0
LINE
  8
0
 10
68
 11
64
 20
57.2
 21
57.2
  0
LINE
  8
0
 10
64
 11
64
 20
57.2
 21
53.2
  0
LINE
  8
0
 10
64
 11
60
 20
53.2
 21
53.2
  0
LINE
  8
0
 10
60
 11
60
 20
53.2
 21
57.2
  0
LINE
  8
0
 10
60
 11
56
 20
57.2
 21
57.2
  0
LINE
  8
0
 10
56
 11
56
 20
57.2
 21
53.2
  0
LINE
  8
0
 10
56
 11
52
 20
53.2
 21
53.2
  0
LINE
  8
0
 10
52
 11
52
 20
53.2
 21
57.2
  0
LINE
  8
0
 10
52
 11
48
 20
57.2
 21
57.2
  0
LINE
  8
0
 10
48
 11
48
 20
57.2
 21
53.2
  0
LINE
  8
0
 10
48
 11
44
 20
53.2
 21
53.2
  0
LINE
  8
0
 10
44
 11
44
 20
53.2
 21
57.2
  0
LINE
  8
0
 10
44
 11
40
 20
57.2
 21
57.2
  0
LINE
  8
0
 10
40
 11
40
 20
57.2
 21
53.2
  0
LINE
  8
0
 10
40
 11
36
 20
53.2
 21
53.2
  0
LINE
  8
0
 10
36
 11
36
 20
53.2
 21
57.2
  0
LINE
  8
0
 10
36
 11
32
 20
57.2
 21
57.2
  0
LINE
  8
0
 10
32
 11
32
 20
57.2
 21
53.2
  0
LINE
  8
0
 10
32
 11
28
 20
53.2
 21
53.2
  0
LINE
  8
0
 10
28
 11
28
 20
53.2
 21
57.2
  0
LINE
  8
0
 10
28
 11
24
 20
57.2
 21
57.2
  0
LINE
  8
0
 10
24
 11
24
 20
57.2
 21
53.2
  0
LINE
  8
0
 10
24
 11
20
 20
53.2
 21
53.2
  0
LINE
  8
0
 10
20
 11
20
 20
53.2
 21
57.2
  0
LINE
  8
0
 10
20
 11
16
 20
57.2
 21
57.2
  0
LINE
  8
0
 10
16
 11
16
 20
57.2
 21
53.2
  0
LINE
  8
0
 10
16
 11
12
 20
53.2
 21
53.2
  0
LINE
  8
0
 10
12
 11
12
 20
53.2
 21
57.2
  0
LINE
  8
0
 10
12
 11
8
 20
57.2
 21
57.2
  0
LINE
  8
0
 10
8
 11
8
 20
57.2
 21
53.2
  0
LINE
  8
0
 10
8
 11
4
 20
53.2
 21
53.2
  0
LINE
  8
0
 10
4
 11
4
 20
53.2
 21
57.2
  0
LINE
  8
0
 10
4
 11
0
 20
57.2
 21
57.2
  0
LINE
  8
0
 10
0
 11
0
 20
57.2
 21
53.2
  0
LINE
  8
0
 10
0
 11
-4
 20
53.2
 21
53.2
  0
LINE
  8
0
 10
-4
 11
-4
 20
114.4
 21
118.4
  0
LINE
  8
0
 10
-4
 11
0
 20
118.4
 21
118.4
  0
LINE
  8
0
 10
0
 11
0
 20
118.4
 21
122.4
  0
LINE
  8
0
 10
0
 11
-4
 20
122.4
 21
122.4
  0
LINE
  8
0
 10
-4
 11
-4
 20
122.4
 21
126.4
  0
LINE
  8
0
 10
-4
 11
0
 20
126.4
 21
126.4
  0
LINE
  8
0
 10
0
 11
0
 20
126.4
 21
130.4
  0
LINE
  8
0
 10
0
 11
-4
 20
130.4
 21
130.4
  0
LINE
  8
0
 10
-4
 11
-4
 20
130.4
 21
134.4
  0
LINE
  8
0
 10
-4
 11
0
 20
134.4
 21
134.4
  0
LINE
  8
0
 10
0
 11
0
 20
134.4
 21
142.4
  0
LINE
  8
0
 10
0
 11
4
 20
142.4
 21
142.4
  0
LINE
  8
0
 10
4
 11
4
 20
142.4
 21
138.4
  0
LINE
  8
0
 10
4
 11
8
 20
138.4
 21
138.4
  0
LINE
  8
0
 10
8
 11
8
 20
138.4
 21
142.4
  0
LINE
  8
0
 10
8
 11
12
 20
142.4
 21
142.4
  0
LINE
  8
0
 10
12
 11
12
 20
142.4
 21
138.4
  0
LINE
  8
0
 10
12
 11
16
 20
138.4
 21
138.4
  0
LINE
  8
0
 10
16
 11
16
 20
138.4
 21
142.4
  0
LINE
  8
0
 10
16
 11
20
 20
142.4
 21
142.4
  0
LINE
  8
0
 10
20
 11
20
 20
142.4
 21
138.4
  0
LINE
  8
0
 10
20
 11
24
 20
138.4
 21
138.4
  0
LINE
  8
0
 10
24
 11
24
 20
138.4
 21
142.4
  0
LINE
  8
0
 10
24
 11
28
 20
142.4
 21
142.4
  0
LINE
  8
0
 10
28
 11
28
 20
142.4
 21
138.4
  0
LINE
  8
0
 10
28
 11
32
 20
138.4
 21
138.4
  0
LINE
  8
0
 10
32
 11
32
 20
138.4
 21
142.4
  0
LINE
  8
0
 10
32
 11
36
 20
142.4
 21
142.4
  0
LINE
  8
0
 10
36
 11
36
 20
142.4
 21
138.4
  0
LINE
  8
0
 10
36
 11
40
 20
138.4
 21
138.4
  0
LINE
  8
0
 10
40
 11
40
 20
138.4
 21
142.4
  0
LINE
  8
0
 10
40
 11
44
 20
142.4
 21
142.4
  0
LINE
  8
0
 10
44
 11
44
 20
142.4
 21
138.4
  0
LINE
  8
0
 10
44
 11
48
 20
138.4
 21
138.4
  0
LINE
  8
0
 10
48
 11
48
 20
138.4
 21
142.4
  0
LINE
  8
0
 10
48
 11
52
 20
142.4
 21
142.4
  0
LINE
  8
0
 10
52
 11
52
 20
142.4
 21
138.4
  0
LINE
  8
0
 10
52
 11
56
 20
138.4
 21
138.4
  0
LINE
  8
0
 10
56
 11
56
 20
138.4
 21
142.4
  0
LINE
  8
0
 10
56
 11
60
 20
142.4
 21
142.4
  0
LINE
  8
0
 10
60
 11
60
 20
142.4
 21
138.4
  0
LINE
  8
0
 10
60
 11
64
 20
138.4
 21
138.4
  0
LINE
  8
0
 10
64
 11
64
 20
138.4
 21
142.4
  0
LINE
  8
0
 10
64
 11
68
 20
142.4
 21
142.4
  0
LINE
  8
0
 10
68
 11
68
 20
142.4
 21
138.4
  0
LINE
  8
0
 10
68
 11
72
 20
138.4
 21
138.4
  0
LINE
  8
0
 10
72
 11
72
 20
138.4
 21
142.4
  0
LINE
  8
0
 10
72
 11
76
 20
142.4
 21
142.4
  0
LINE
  8
0
 10
76
 11
76
 20
142.4
 21
138.4
  0
LINE
  8
0
 10
76
 11
80
 20
138.4
 21
138.4
  0
LINE
  8
0
 10
80
 11
80
 20
138.4
 21
142.4
  0
LINE
  8
0
 10
80
 11
84
 20
142.4
 21
142.4
  0
LINE
  8
0
 10
84
 11
84
 20
142.4
 21
138.4
  0
LINE
  8
0
 10
84
 11
88
 20
138.4
 21
138.4
  0
LINE
  8
0
 10
88
 11
88
 20
138.4
 21
142.4
  0
LINE
  8
0
 10
88
 11
92
 20
142.4
 21
142.4
  0
LINE
  8
0
 10
92
 11
92
 20
142.4
 21
138.4
  0
LINE
  8
0
 10
92
 11
96
 20
138.4
 21
138.4
  0
LINE
  8
0
 10
96
 11
96
 20
138.4
 21
142.4
  0
LINE
  8
0
 10
96
 11
100
 20
142.4
 21
142.4
  0
LINE
  8
0
 10
100
 11
100
 20
142.4
 21
138.4
  0
LINE
  8
0
 10
100
 11
104
 20
138.4
 21
138.4
  0
LINE
  8
0
 10
104
 11
104
 20
138.4
 21
142.4
  0
LINE
  8
0
 10
104
 11
108
 20
142.4
 21
142.4
  0
LINE
  8
0
 10
108
 11
108
 20
142.4
 21
138.4
  0
LINE
  8
0
 10
108
 11
112
 20
138.4
 21
138.4
  0
LINE
  8
0
 10
112
 11
112
 20
138.4
 21
142.4
  0
LINE
  8
0
 10
112
 11
116
 20
142.4
 21
142.4
  0
LINE
  8
0
 10
116
 11
116
 20
142.4
 21
138.4
  0
LINE
  8
0
 10
116
 11
120
 20
138.4
 21
138.4
  0
LINE
  8
0
 10
120
 11
120
 20
138.4
 21
142.4
  0
LINE
  8
0
 10
120
 11
124
 20
142.4
 21
142.4
  0
LINE
  8
0
 10
124
 11
124
 20
142.4
 21
138.4
  0
LINE
  8
0
 10
124
 11
128
 20
138.4
 21
138.4
  0
LINE
  8
0
 10
128
 11
128
 20
138.4
 21
142.4
  0
LINE
  8
0
 10
128
 11
132
 20
142.4
 21
142.4
  0
LINE
  8
0
 10
132
 11
132
 20
142.4
 21
138.4
  0
LINE
  8
0
 10
132
 11
136
 20
138.4
 21
138.4
  0
LINE
  8
0
 10
136
 11
136
 20
138.4
 21
142.4
  0
LINE
  8
0
 10
136
 11
140
 20
142.4
 21
142.4
  0
LINE
  8
0
 10
140
 11
140
 20
142.4
 21
138.4
  0
LINE
  8
0
 10
140
 11
144
 20
138.4
 21
138.4
  0
LINE
  8
0
 10
144
 11
144
 20
138.4
 21
142.4
  0
LINE
  8
0
 10
144
 11
148
 20
142.4
 21
142.4
  0
LINE
  8
0
 10
148
 11
148
 20
142.4
 21
138.4
  0
LINE
  8
0
 10
148
 11
152
 20
138.4
 21
138.4
  0
LINE
  8
0
 10
152
 11
152
 20
138.4
 21
142.4
  0
LINE
  8
0
 10
152
 11
156
 20
142.4
 21
142.4
  0
LINE
  8
0
 10
156
 11
156
 20
142.4
 21
138.4
  0
LINE
  8
0
 10
156
 11
160
 20
138.4
 21
138.4
  0
LINE
  8
0
 10
160
 11
160
 20
138.4
 21
142.4
  0
LINE
  8
0
 10
160
 11
164
 20
142.4
 21
142.4
  0
LINE
  8
0
 10
164
 11
164
 20
142.4
 21
138.4
  0
LINE
  8
0
 10
164
 11
168
 20
138.4
 21
138.4
  0
LINE
  8
0
 10
168
 11
168
 20
138.4
 21
142.4
  0
LINE
  8
0
 10
168
 11
172
 20
142.4
 21
142.4
  0
LINE
  8
0
 10
172
 11
172
 20
142.4
 21
138.4
  0
LINE
  8
0
 10
172
 11
176
 20
138.4
 21
138.4
  0
LINE
  8
0
 10
176
 11
176
 20
138.4
 21
142.4
  0
LINE
  8
0
 10
176
 11
180
 20
142.4
 21
142.4
  0
LINE
  8
0
 10
180
 11
180
 20
142.4
 21
138.4
  0
LINE
  8
0
 10
180
 11
184
 20
138.4
 21
138.4
  0
LINE
  8
0
 10
184
 11
184
 20
138.4
 21
142.4
  0
LINE
  8
0
 10
184
 11
188
 20
142.4
 21
142.4
  0
LINE
  8
0
 10
188
 11
188
 20
142.4
 21
138.4
  0
LINE
  8
0
 10
188
 11
192
 20
138.4
 21
138.4
  0
LINE
  8
0
 10
192
 11
192
 20
138.4
 21
142.4
  0
LINE
  8
0
 10
192
 11
196
 20
142.4
 21
142.4
  0
LINE
  8
0
 10
196
 11
196
 20
142.4
 21
138.4
  0
LINE
  8
0
 10
196
 11
200
 20
138.4
 21
138.4
  0
LINE
  8
0
 10
200
 11
200
 20
138.4
 21
142.4
  0
LINE
  8
0
 10
200
 11
204
 20
142.4
 21
142.4
  0
LINE
  8
0
 10
204
 11
204
 20
142.4
 21
138.4
  0
LINE
  8
0
 10
204
 11
208
 20
138.4
 21
138.4
  0
LINE
  8
0
 10
208
 11
208
 20
138.4
 21
142.4
  0
LINE
  8
0
 10
208
 11
212
 20
142.4
 21
142.4
  0
LINE
  8
0
 10
212
 11
212
 20
142.4
 21
138.4
  0
LINE
  8
0
 10
212
 11
216
 20
138.4
 21
138.4
  0
LINE
  8
0
 10
216
 11
216
 20
138.4
 21
142.4
  0
LINE
  8
0
 10
216
 11
220
 20
142.4
 21
142.4
  0
LINE
  8
0
 10
220
 11
220
 20
142.4
 21
138.4
  0
LINE
  8
0
 10
220
 11
224
 20
138.4
 21
138.4
  0
LINE
  8
0
 10
224
 11
224
 20
138.4
 21
142.4
  0
LINE
  8
0
 10
224
 11
228
 20
142.4
 21
142.4
  0
LINE
  8
0
 10
228
 11
228
 20
142.4
 21
138.4
  0
LINE
  8
0
 10
228
 11
232
 20
138.4
 21
138.4
  0
LINE
  8
0
 10
232
 11
232
 20
138.4
 21
142.4
  0
LINE
  8
0
 10
232
 11
236
 20
142.4
 21
142.4
  0
LINE
  8
0
 10
236
 11
236
 20
142.4
 21
138.4
  0
LINE
  8
0
 10
236
 11
244
 20
138.4
 21
138.4
  0
LINE
  8
0
 10
244
 11
244
 20
138.4
 21
134.4
  0
LINE
  8
0
 10
244
 11
240
 20
134.4
 21
134.4
  0
LINE
  8
0
 10
240
 11
240
 20
134.4
 21
130.4
  0
LINE
  8
0
 10
240
 11
244
 20
130.4
 21
130.4
  0
LINE
  8
0
 10
244
 11
244
 20
130.4
 21
126.4
  0
LINE
  8
0
 10
244
 11
240
 20
126.4
 21
126.4
  0
LINE
  8
0
 10
240
 11
240
 20
126.4
 21
122.4
  0
LINE
  8
0
 10
240
 11
244
 20
122.4
 21
122.4
  0
LINE
  8
0
 10
244
 11
244
 20
122.4
 21
118.4
  0
LINE
  8
0
 10
244
 11
240
 20
118.4
 21
118.4
  0
LINE
  8
0
 10
240
 11
240
 20
118.4
 21
110.4
  0
LINE
  8
0
 10
240
 11
236
 20
110.4
 21
110.4
  0
LINE
  8
0
 10
236
 11
236
 20
110.4
 21
114.4
  0
LINE
  8
0
 10
236
 11
232
 20
114.4
 21
114.4
  0
LINE
  8
0
 10
232
 11
232
 20
114.4
 21
110.4
  0
LINE
  8
0
 10
232
 11
228
 20
110.4
 21
110.4
  0
LINE
  8
0
 10
228
 11
228
 20
110.4
 21
114.4
  0
LINE
  8
0
 10
228
 11
224
 20
114.4
 21
114.4
  0
LINE
  8
0
 10
224
 11
224
 20
114.4
 21
110.4
  0
LINE
  8
0
 10
224
 11
220
 20
110.4
 21
110.4
  0
LINE
  8
0
 10
220
 11
220
 20
110.4
 21
114.4
  0
LINE
  8
0
 10
220
 11
216
 20
114.4
 21
114.4
  0
LINE
  8
0
 10
216
 11
216
 20
114.4
 21
110.4
  0
LINE
  8
0
 10
216
 11
212
 20
110.4
 21
110.4
  0
LINE
  8
0
 10
212
 11
212
 20
110.4
 21
114.4
  0
LINE
  8
0
 10
212
 11
208
 20
114.4
 21
114.4
  0
LINE
  8
0
 10
208
 11
208
 20
114.4
 21
110.4
  0
LINE
  8
0
 10
208
 11
204
 20
110.4
 21
110.4
  0
LINE
  8
0
 10
204
 11
204
 20
110.4
 21
114.4
  0
LINE
  8
0
 10
204
 11
200
 20
114.4
 21
114.4
  0
LINE
  8
0
 10
200
 11
200
 20
114.4
 21
110.4
  0
LINE
  8
0
 10
200
 11
196
 20
110.4
 21
110.4
  0
LINE
  8
0
 10
196
 11
196
 20
110.4
 21
114.4
  0
LINE
  8
0
 10
196
 11
192
 20
114.4
 21
114.4
  0
LINE
  8
0
 10
192
 11
192
 20
114.4
 21
110.4
  0
LINE
  8
0
 10
192
 11
188
 20
110.4
 21
110.4
  0
LINE
  8
0
 10
188
 11
188
 20
110.4
 21
114.4
  0
LINE
  8
0
 10
188
 11
184
 20
114.4
 21
114.4
  0
LINE
  8
0
 10
184
 11
184
 20
114.4
 21
110.4
  0
LINE
  8
0
 10
184
 11
180
 20
110.4
 21
110.4
  0
LINE
  8
0
 10
180
 11
180
 20
110.4
 21
114.4
  0
LINE
  8
0
 10
180
 11
176
 20
114.4
 21
114.4
  0
LINE
  8
0
 10
176
 11
176
 20
114.4
 21
110.4
  0
LINE
  8
0
 10
176
 11
172
 20
110.4
 21
110.4
  0
LINE
  8
0
 10
172
 11
172
 20
110.4
 21
114.4
  0
LINE
  8
0
 10
172
 11
168
 20
114.4
 21
114.4
  0
LINE
  8
0
 10
168
 11
168
 20
114.4
 21
110.4
  0
LINE
  8
0
 10
168
 11
164
 20
110.4
 21
110.4
  0
LINE
  8
0
 10
164
 11
164
 20
110.4
 21
114.4
  0
LINE
  8
0
 10
164
 11
160
 20
114.4
 21
114.4
  0
LINE
  8
0
 10
160
 11
160
 20
114.4
 21
110.4
  0
LINE
  8
0
 10
160
 11
156
 20
110.4
 21
110.4
  0
LINE
  8
0
 10
156
 11
156
 20
110.4
 21
114.4
  0
LINE
  8
0
 10
156
 11
152
 20
114.4
 21
114.4
  0
LINE
  8
0
 10
152
 11
152
 20
114.4
 21
110.4
  0
LINE
  8
0
 10
152
 11
148
 20
110.4
 21
110.4
  0
LINE
  8
0
 10
148
 11
148
 20
110.4
 21
114.4
  0
LINE
  8
0
 10
148
 11
144
 20
114.4
 21
114.4
  0
LINE
  8
0
 10
144
 11
144
 20
114.4
 21
110.4
  0
LINE
  8
0
 10
144
 11
140
 20
110.4
 21
110.4
  0
LINE
  8
0
 10
140
 11
140
 20
110.4
 21
114.4
  0
LINE
  8
0
 10
140
 11
136
 20
114.4
 21
114.4
  0
LINE
  8
0
 10
136
 11
136
 20
114.4
 21
110.4
  0
LINE
  8
0
 10
136
 11
132
 20
110.4
 21
110.4
  0
LINE
  8
0
 10
132
 11
132
 20
110.4
 21
114.4
  0
LINE
  8
0
 10
132
 11
128
 20
114.4
 21
114.4
  0
LINE
  8
0
 10
128
 11
128
 20
114.4
 21
110.4
  0
LINE
  8
0
 10
128
 11
124
 20
110.4
 21
110.4
  0
LINE
  8
0
 10
124
 11
124
 20
110.4
 21
114.4
  0
LINE
  8
0
 10
124
 11
120
 20
114.4
 21
114.4
  0
LINE
  8
0
 10
120
 11
120
 20
114.4
 21
110.4
  0
LINE
  8
0
 10
120
 11
116
 20
110.4
 21
110.4
  0
LINE
  8
0
 10
116
 11
116
 20
110.4
 21
114.4
  0
LINE
  8
0
 10
116
 11
112
 20
114.4
 21
114.4
  0
LINE
  8
0
 10
112
 11
112
 20
114.4
 21
110.4
  0
LINE
  8
0
 10
112
 11
108
 20
110.4
 21
110.4
  0
LINE
  8
0
 10
108
 11
108
 20
110.4
 21
114.4
  0
LINE
  8
0
 10
108
 11
104
 20
114.4
 21
114.4
  0
LINE
  8
0
 10
104
 11
104
 20
114.4
 21
110.4
  0
LINE
  8
0
 10
104
 11
100
 20
110.4
 21
110.4
  0
LINE
  8
0
 10
100
 11
100
 20
110.4
 21
114.4
  0
LINE
  8
0
 10
100
 11
96
 20
114.4
 21
114.4
  0
LINE
  8
0
 10
96
 11
96
 20
114.4
 21
110.4
  0
LINE
  8
0
 10
96
 11
92
 20
110.4
 21
110.4
  0
LINE
  8
0
 10
92
 11
92
 20
110.4
 21
114.4
  0
LINE
  8
0
 10
92
 11
88
 20
114.4
 21
114.4
  0
LINE
  8
0
 10
88
 11
88
 20
114.4
 21
110.4
  0
LINE
  8
0
 10
88
 11
84
 20
110.4
 21
110.4
  0
LINE
  8
0
 10
84
 11
84
 20
110.4
 21
114.4
  0
LINE
  8
0
 10
84
 11
80
 20
114.4
 21
114.4
  0
LINE
  8
0
 10
80
 11
80
 20
114.4
 21
110.4
  0
LINE
  8
0
 10
80
 11
76
 20
110.4
 21
110.4
  0
LINE
  8
0
 10
76
 11
76
 20
110.4
 21
114.4
  0
LINE
  8
0
 10
76
 11
72
 20
114.4
 21
114.4
  0
LINE
  8
0
 10
72
 11
72
 20
114.4
 21
110.4
  0
LINE
  8
0
 10
72
 11
68
 20
110.4
 21
110.4
  0
LINE
  8
0
 10
68
 11
68
 20
110.4
 21
114.4
  0
LINE
  8
0
 10
68
 11
64
 20
114.4
 21
114.4
  0
LINE
  8
0
 10
64
 11
64
 20
114.4
 21
110.4
  0
LINE
  8
0
 10
64
 11
60
 20
110.4
 21
110.4
  0
LINE
  8
0
 10
60
 11
60
 20
110.4
 21
114.4
  0
LINE
  8
0
 10
60
 11
56
 20
114.4
 21
114.4
  0
LINE
  8
0
 10
56
 11
56
 20
114.4
 21
110.4
  0
LINE
  8
0
 10
56
 11
52
 20
110.4
 21
110.4
  0
LINE
  8
0
 10
52
 11
52
 20
110.4
 21
114.4
  0
LINE
  8
0
 10
52
 11
48
 20
114.4
 21
114.4
  0
LINE
  8
0
 10
48
 11
48
 20
114.4
 21
110.4
  0
LINE
  8
0
 10
48
 11
44
 20
110.4
 21
110.4
  0
LINE
  8
0
 10
44
 11
44
 20
110.4
 21
114.4
  0
LINE
  8
0
 10
44
 11
40
 20
114.4
 21
114.4
  0
LINE
  8
0
 10
40
 11
40
 20
114.4
 21
110.4
  0
LINE
  8
0
 10
40
 11
36
 20
110.4
 21
110.4
  0
LINE
  8
0
 10
36
 11
36
 20
110.4
 21
114.4
  0
LINE
  8
0
 10
36
 11
32
 20
114.4
 21
114.4
  0
LINE
  8
0
 10
32
 11
32
 20
114.4
 21
110.4
  0
LINE
  8
0
 10
32
 11
28
 20
110.4
 21
110.4
  0
LINE
  8
0
 10
28
 11
28
 20
110.4
 21
114.4
  0
LINE
  8
0
 10
28
 11
24
 20
114.4
 21
114.4
  0
LINE
  8
0
 10
24
 11
24
 20
114.4
 21
110.4
  0
LINE
  8
0
 10
24
 11
20
 20
110.4
 21
110.4
  0
LINE
  8
0
 10
20
 11
20
 20
110.4
 21
114.4
  0
LINE
  8
0
 10
20
 11
16
 20
114.4
 21
114.4
  0
LINE
  8
0
 10
16
 11
16
 20
114.4
 21
110.4
  0
LINE
  8
0
 10
16
 11
12
 20
110.4
 21
110.4
  0
LINE
  8
0
 10
12
 11
12
 20
110.4
 21
114.4
  0
LINE
  8
0
 10
12
 11
8
 20
114.4
 21
114.4
  0
LINE
  8
0
 10
8
 11
8
 20
114.4
 21
110.4
  0
LINE
  8
0
 10
8
 11
4
 20
110.4
 21
110.4
  0
LINE
  8
0
 10
4
 11
4
 20
110.4
 21
114.4
  0
LINE
  8
0
 10
4
 11
-4
 20
114.4
 21
114.4
  0
LINE
  8
0
 10
-4
 11
-4
 20
148
 21
152
  0
LINE
  8
0
 10
-4
 11
0
 20
152
 21
152
  0
LINE
  8
0
 10
0
 11
0
 20
152
 21
156
  0
LINE
  8
0
 10
0
 11
-4
 20
156
 21
156
  0
LINE
  8
0
 10
-4
 11
-4
 20
156
 21
160
  0
LINE
  8
0
 10
-4
 11
0
 20
160
 21
160
  0
LINE
  8
0
 10
0
 11
0
 20
160
 21
164
  0
LINE
  8
0
 10
0
 11
-4
 20
164
 21
164
  0
LINE
  8
0
 10
-4
 11
-4
 20
164
 21
168
  0
LINE
  8
0
 10
-4
 11
0
 20
168
 21
168
  0
LINE
  8
0
 10
0
 11
0
 20
168
 21
176
  0
LINE
  8
0
 10
0
 11
4
 20
176
 21
176
  0
LINE
  8
0
 10
4
 11
4
 20
176
 21
172
  0
LINE
  8
0
 10
4
 11
8
 20
172
 21
172
  0
LINE
  8
0
 10
8
 11
8
 20
172
 21
176
  0
LINE
  8
0
 10
8
 11
12
 20
176
 21
176
  0
LINE
  8
0
 10
12
 11
12
 20
176
 21
172
  0
LINE
  8
0
 10
12
 11
16
 20
172
 21
172
  0
LINE
  8
0
 10
16
 11
16
 20
172
 21
176
  0
LINE
  8
0
 10
16
 11
20
 20
176
 21
176
  0
LINE
  8
0
 10
20
 11
20
 20
176
 21
172
  0
LINE
  8
0
 10
20
 11
24
 20
172
 21
172
  0
LINE
  8
0
 10
24
 11
24
 20
172
 21
176
  0
LINE
  8
0
 10
24
 11
28
 20
176
 21
176
  0
LINE
  8
0
 10
28
 11
28
 20
176
 21
172
  0
LINE
  8
0
 10
28
 11
32
 20
172
 21
172
  0
LINE
  8
0
 10
32
 11
32
 20
172
 21
176
  0
LINE
  8
0
 10
32
 11
36
 20
176
 21
176
  0
LINE
  8
0
 10
36
 11
36
 20
176
 21
172
  0
LINE
  8
0
 10
36
 11
40
 20
172
 21
172
  0
LINE
  8
0
 10
40
 11
40
 20
172
 21
176
  0
LINE
  8
0
 10
40
 11
44
 20
176
 21
176
  0
LINE
  8
0
 10
44
 11
44
 20
176
 21
172
  0
LINE
  8
0
 10
44
 11
48
 20
172
 21
172
  0
LINE
  8
0
 10
48
 11
48
 20
172
 21
176
  0
LINE
  8
0
 10
48
 11
52
 20
176
 21
176
  0
LINE
  8
0
 10
52
 11
52
 20
176
 21
172
  0
LINE
  8
0
 10
52
 11
56
 20
172
 21
172
  0
LINE
  8
0
 10
56
 11
56
 20
172
 21
176
  0
LINE
  8
0
 10
56
 11
60
 20
176
 21
176
  0
LINE
  8
0
 10
60
 11
60
 20
176
 21
172
  0
LINE
  8
0
 10
60
 11
64
 20
172
 21
172
  0
LINE
  8
0
 10
64
 11
64
 20
172
 21
176
  0
LINE
  8
0
 10
64
 11
68
 20
176
 21
176
  0
LINE
  8
0
 10
68
 11
68
 20
176
 21
172
  0
LINE
  8
0
 10
68
 11
72
 20
172
 21
172
  0
LINE
  8
0
 10
72
 11
72
 20
172
 21
176
  0
LINE
  8
0
 10
72
 11
76
 20
176
 21
176
  0
LINE
  8
0
 10
76
 11
76
 20
176
 21
172
  0
LINE
  8
0
 10
76
 11
80
 20
172
 21
172
  0
LINE
  8
0
 10
80
 11
80
 20
172
 21
176
  0
LINE
  8
0
 10
80
 11
84
 20
176
 21
176
  0
LINE
  8
0
 10
84
 11
84
 20
176
 21
172
  0
LINE
  8
0
 10
84
 11
88
 20
172
 21
172
  0
LINE
  8
0
 10
88
 11
88
 20
172
 21
176
  0
LINE
  8
0
 10
88
 11
92
 20
176
 21
176
  0
LINE
  8
0
 10
92
 11
92
 20
176
 21
172
  0
LINE
  8
0
 10
92
 11
96
 20
172
 21
172
  0
LINE
  8
0
 10
96
 11
96
 20
172
 21
176
  0
LINE
  8
0
 10
96
 11
100
 20
176
 21
176
  0
LINE
  8
0
 10
100
 11
100
 20
176
 21
172
  0
LINE
  8
0
 10
100
 11
104
 20
172
 21
172
  0
LINE
  8
0
 10
104
 11
104
 20
172
 21
176
  0
LINE
  8
0
 10
104
 11
108
 20
176
 21
176
  0
LINE
  8
0
 10
108
 11
108
 20
176
 21
172
  0
LINE
  8
0
 10
108
 11
112
 20
172
 21
172
  0
LINE
  8
0
 10
112
 11
112
 20
172
 21
176
  0
LINE
  8
0
 10
112
 11
116
 20
176
 21
176
  0
LINE
  8
0
 10
116
 11
116
 20
176
 21
172
  0
LINE
  8
0
 10
116
 11
120
 20
172
 21
172
  0
LINE
  8
0
 10
120
 11
120
 20
172
 21
176
  0
LINE
  8
0
 10
120
 11
124
 20
176
 21
176
  0
LINE
  8
0
 10
124
 11
124
 20
176
 21
172
  0
LINE
  8
0
 10
124
 11
128
 20
172
 21
172
  0
LINE
  8
0
 10
128
 11
128
 20
172
 21
176
  0
LINE
  8
0
 10
128
 11
132
 20
176
 21
176
  0
LINE
  8
0
 10
132
 11
132
 20
176
 21
172
  0
LINE
  8
0
 10
132
 11
136
 20
172
 21
172
  0
LINE
  8
0
 10
136
 11
136
 20
172
 21
176
  0
LINE
  8
0
 10
136
 11
140
 20
176
 21
176
  0
LINE
  8
0
 10
140
 11
140
 20
176
 21
172
  0
LINE
  8
0
 10
140
 11
144
 20
172
 21
172
  0
LINE
  8
0
 10
144
 11
144
 20
172
 21
176
  0
LINE
  8
0
 10
144
 11
148
 20
176
 21
176
  0
LINE
  8
0
 10
148
 11
148
 20
176
 21
172
  0
LINE
  8
0
 10
148
 11
152
 20
172
 21
172
  0
LINE
  8
0
 10
152
 11
152
 20
172
 21
176
  0
LINE
  8
0
 10
152
 11
156
 20
176
 21
176
  0
LINE
  8
0
 10
156
 11
156
 20
176
 21
172
  0
LINE
  8
0
 10
156
 11
160
 20
172
 21
172
  0
LINE
  8
0
 10
160
 11
160
 20
172
 21
176
  0
LINE
  8
0
 10
160
 11
164
 20
176
 21
176
  0
LINE
  8
0
 10
164
 11
164
 20
176
 21
172
  0
LINE
  8
0
 10
164
 11
168
 20
172
 21
172
  0
LINE
  8
0
 10
168
 11
168
 20
172
 21
176
  0
LINE
  8
0
 10
168
 11
172
 20
176
 21
176
  0
LINE
  8
0
 10
172
 11
172
 20
176
 21
172
  0
LINE
  8
0
 10
172
 11
176
 20
172
 21
172
  0
LINE
  8
0
 10
176
 11
176
 20
172
 21
176
  0
LINE
  8
0
 10
176
 11
180
 20
176
 21
176
  0
LINE
  8
0
 10
180
 11
180
 20
176
 21
172
  0
LINE
  8
0
 10
180
 11
184
 20
172
 21
172
  0
LINE
  8
0
 10
184
 11
184
 20
172
 21
176
  0
LINE
  8
0
 10
184
 11
188
 20
176
 21
176
  0
LINE
  8
0
 10
188
 11
188
 20
176
 21
172
  0
LINE
  8
0
 10
188
 11
192
 20
172
 21
172
  0
LINE
  8
0
 10
192
 11
192
 20
172
 21
176
  0
LINE
  8
0
 10
192
 11
196
 20
176
 21
176
  0
LINE
  8
0
 10
196
 11
196
 20
176
 21
172
  0
LINE
  8
0
 10
196
 11
200
 20
172
 21
172
  0
LINE
  8
0
 10
200
 11
200
 20
172
 21
176
  0
LINE
  8
0
 10
200
 11
204
 20
176
 21
176
  0
LINE
  8
0
 10
204
 11
204
 20
176
 21
172
  0
LINE
  8
0
 10
204
 11
208
 20
172
 21
172
  0
LINE
  8
0
 10
208
 11
208
 20
172
 21
176
  0
LINE
  8
0
 10
208
 11
212
 20
176
 21
176
  0
LINE
  8
0
 10
212
 11
212
 20
176
 21
172
  0
LINE
  8
0
 10
212
 11
216
 20
172
 21
172
  0
LINE
  8
0
 10
216
 11
216
 20
172
 21
176
  0
LINE
  8
0
 10
216
 11
220
 20
176
 21
176
  0
LINE
  8
0
 10
220
 11
220
 20
176
 21
172
  0
LINE
  8
0
 10
220
 11
224
 20
172
 21
172
  0
LINE
  8
0
 10
224
 11
224
 20
172
 21
176
  0
LINE
  8
0
 10
224
 11
228
 20
176
 21
176
  0
LINE
  8
0
 10
228
 11
228
 20
176
 21
172
  0
LINE
  8
0
 10
228
 11
232
 20
172
 21
172
  0
LINE
  8
0
 10
232
 11
232
 20
172
 21
176
  0
LINE
  8
0
 10
232
 11
236
 20
176
 21
176
  0
LINE
  8
0
 10
236
 11
236
 20
176
 21
172
  0
LINE
  8
0
 10
236
 11
244
 20
172
 21
172
  0
LINE
  8
0
 10
244
 11
244
 20
172
 21
168
  0
LINE
  8
0
 10
244
 11
240
 20
168
 21
168
  0
LINE
  8
0
 10
240
 11
240
 20
168
 21
164
  0
LINE
  8
0
 10
240
 11
244
 20
164
 21
164
  0
LINE
  8
0
 10
244
 11
244
 20
164
 21
160
  0
LINE
  8
0
 10
244
 11
240
 20
160
 21
160
  0
LINE
  8
0
 10
240
 11
240
 20
160
 21
156
  0
LINE
  8
0
 10
240
 11
244
 20
156
 21
156
  0
LINE
  8
0
 10
244
 11
244
 20
156
 21
152
  0
LINE
  8
0
 10
244
 11
240
 20
152
 21
152
  0
LINE
  8
0
 10
240
 11
240
 20
152
 21
144
  0
LINE
  8
0
 10
240
 11
236
 20
144
 21
144
  0
LINE
  8
0
 10
236
 11
236
 20
144
 21
148
  0
LINE
  8
0
 10
236
 11
232
 20
148
 21
148
  0
LINE
  8
0
 10
232
 11
232
 20
148
 21
144
  0
LINE
  8
0
 10
232
 11
228
 20
144
 21
144
  0
LINE
  8
0
 10
228
 11
228
 20
144
 21
148
  0
LINE
  8
0
 10
228
 11
224
 20
148
 21
148
  0
LINE
  8
0
 10
224
 11
224
 20
148
 21
144
  0
LINE
  8
0
 10
224
 11
220
 20
144
 21
144
  0
LINE
  8
0
 10
220
 11
220
 20
144
 21
148
  0
LINE
  8
0
 10
220
 11
216
 20
148
 21
148
  0
LINE
  8
0
 10
216
 11
216
 20
148
 21
144
  0
LINE
  8
0
 10
216
 11
212
 20
144
 21
144
  0
LINE
  8
0
 10
212
 11
212
 20
144
 21
148
  0
LINE
  8
0
 10
212
 11
208
 20
148
 21
148
  0
LINE
  8
0
 10
208
 11
208
 20
148
 21
144
  0
LINE
  8
0
 10
208
 11
204
 20
144
 21
144
  0
LINE
  8
0
 10
204
 11
204
 20
144
 21
148
  0
LINE
  8
0
 10
204
 11
200
 20
148
 21
148
  0
LINE
  8
0
 10
200
 11
200
 20
148
 21
144
  0
LINE
  8
0
 10
200
 11
196
 20
144
 21
144
  0
LINE
  8
0
 10
196
 11
196
 20
144
 21
148
  0
LINE
  8
0
 10
196
 11
192
 20
148
 21
148
  0
LINE
  8
0
 10
192
 11
192
 20
148
 21
144
  0
LINE
  8
0
 10
192
 11
188
 20
144
 21
144
  0
LINE
  8
0
 10
188
 11
188
 20
144
 21
148
  0
LINE
  8
0
 10
188
 11
184
 20
148
 21
148
  0
LINE
  8
0
 10
184
 11
184
 20
148
 21
144
  0
LINE
  8
0
 10
184
 11
180
 20
144
 21
144
  0
LINE
  8
0
 10
180
 11
180
 20
144
 21
148
  0
LINE
  8
0
 10
180
 11
176
 20
148
 21
148
  0
LINE
  8
0
 10
176
 11
176
 20
148
 21
144
  0
LINE
  8
0
 10
176
 11
172
 20
144
 21
144
  0
LINE
  8
0
 10
172
 11
172
 20
144
 21
148
  0
LINE
  8
0
 10
172
 11
168
 20
148
 21
148
  0
LINE
  8
0
 10
168
 11
168
 20
148
 21
144
  0
LINE
  8
0
 10
168
 11
164
 20
144
 21
144
  0
LINE
  8
0
 10
164
 11
164
 20
144
 21
148
  0
LINE
  8
0
 10
164
 11
160
 20
148
 21
148
  0
LINE
  8
0
 10
160
 11
160
 20
148
 21
144
  0
LINE
  8
0
 10
160
 11
156
 20
144
 21
144
  0
LINE
  8
0
 10
156
 11
156
 20
144
 21
148
  0
LINE
  8
0
 10
156
 11
152
 20
148
 21
148
  0
LINE
  8
0
 10
152
 11
152
 20
148
 21
144
  0
LINE
  8
0
 10
152
 11
148
 20
144
 21
144
  0
LINE
  8
0
 10
148
 11
148
 20
144
 21
148
  0
LINE
  8
0
 10
148
 11
144
 20
148
 21
148
  0
LINE
  8
0
 10
144
 11
144
 20
148
 21
144
  0
LINE
  8
0
 10
144
 11
140
 20
144
 21
144
  0
LINE
  8
0
 10
140
 11
140
 20
144
 21
148
  0
LINE
  8
0
 10
140
 11
136
 20
148
 21
148
  0
LINE
  8
0
 10
136
 11
136
 20
148
 21
144
  0
LINE
  8
0
 10
136
 11
132
 20
144
 21
144
  0
LINE
  8
0
 10
132
 11
132
 20
144
 21
148
  0
LINE
  8
0
 10
132
 11
128
 20
148
 21
148
  0
LINE
  8
0
 10
128
 11
128
 20
148
 21
144
  0
LINE
  8
0
 10
128
 11
124
 20
144
 21
144
  0
LINE
  8
0
 10
124
 11
124
 20
144
 21
148
  0
LINE
  8
0
 10
124
 11
120
 20
148
 21
148
  0
LINE
  8
0
 10
120
 11
120
 20
148
 21
144
  0
LINE
  8
0
 10
120
 11
116
 20
144
 21
144
  0
LINE
  8
0
 10
116
 11
116
 20
144
 21
148
  0
LINE
  8
0
 10
116
 11
112
 20
148
 21
148
  0
LINE
  8
0
 10
112
 11
112
 20
148
 21
144
  0
LINE
  8
0
 10
112
 11
108
 20
144
 21
144
  0
LINE
  8
0
 10
108
 11
108
 20
144
 21
148
  0
LINE
  8
0
 10
108
 11
104
 20
148
 21
148
  0
LINE
  8
0
 10
104
 11
104
 20
148
 21
144
  0
LINE
  8
0
 10
104
 11
100
 20
144
 21
144
  0
LINE
  8
0
 10
100
 11
100
 20
144
 21
148
  0
LINE
  8
0
 10
100
 11
96
 20
148
 21
148
  0
LINE
  8
0
 10
96
 11
96
 20
148
 21
144
  0
LINE
  8
0
 10
96
 11
92
 20
144
 21
144
  0
LINE
  8
0
 10
92
 11
92
 20
144
 21
148
  0
LINE
  8
0
 10
92
 11
88
 20
148
 21
148
  0
LINE
  8
0
 10
88
 11
88
 20
148
 21
144
  0
LINE
  8
0
 10
88
 11
84
 20
144
 21
144
  0
LINE
  8
0
 10
84
 11
84
 20
144
 21
148
  0
LINE
  8
0
 10
84
 11
80
 20
148
 21
148
  0
LINE
  8
0
 10
80
 11
80
 20
148
 21
144
  0
LINE
  8
0
 10
80
 11
76
 20
144
 21
144
  0
LINE
  8
0
 10
76
 11
76
 20
144
 21
148
  0
LINE
  8
0
 10
76
 11
72
 20
148
 21
148
  0
LINE
  8
0
 10
72
 11
72
 20
148
 21
144
  0
LINE
  8
0
 10
72
 11
68
 20
144
 21
144
  0
LINE
  8
0
 10
68
 11
68
 20
144
 21
148
  0
LINE
  8
0
 10
68
 11
64
 20
148
 21
148
  0
LINE
  8
0
 10
64
 11
64
 20
148
 21
144
  0
LINE
  8
0
 10
64
 11
60
 20
144
 21
144
  0
LINE
  8
0
 10
60
 11
60
 20
144
 21
148
  0
LINE
  8
0
 10
60
 11
56
 20
148
 21
148
  0
LINE
  8
0
 10
56
 11
56
 20
148
 21
144
  0
LINE
  8
0
 10
56
 11
52
 20
144
 21
144
  0
LINE
  8
0
 10
52
 11
52
 20
144
 21
148
  0
LINE
  8
0
 10
52
 11
48
 20
148
 21
148
  0
LINE
  8
0
 10
48
 11
48
 20
148
 21
144
  0
LINE
  8
0
 10
48
 11
44
 20
144
 21
144
  0
LINE
  8
0
 10
44
 11
44
 20
144
 21
148
  0
LINE
  8
0
 10
44
 11
40
 20
148
 21
148
  0
LINE
  8
0
 10
40
 11
40
 20
148
 21
144
  0
LINE
  8
0
 10
40
 11
36
 20
144
 21
144
  0
LINE
  8
0
 10
36
 11
36
 20
144
 21
148
  0
LINE
  8
0
 10
36
 11
32
 20
148
 21
148
  0
LINE
  8
0
 10
32
 11
32
 20
148
 21
144
  0
LINE
  8
0
 10
32
 11
28
 20
144
 21
144
  0
LINE
  8
0
 10
28
 11
28
 20
144
 21
148
  0
LINE
  8
0
 10
28
 11
24
 20
148
 21
148
  0
LINE
  8
0
 10
24
 11
24
 20
148
 21
144
  0
LINE
  8
0
 10
24
 11
20
 20
144
 21
144
  0
LINE
  8
0
 10
20
 11
20
 20
144
 21
148
  0
LINE
  8
0
 10
20
 11
16
 20
148
 21
148
  0
LINE
  8
0
 10
16
 11
16
 20
148
 21
144
  0
LINE
  8
0
 10
16
 11
12
 20
144
 21
144
  0
LINE
  8
0
 10
12
 11
12
 20
144
 21
148
  0
LINE
  8
0
 10
12
 11
8
 20
148
 21
148
  0
LINE
  8
0
 10
8
 11
8
 20
148
 21
144
  0
LINE
  8
0
 10
8
 11
4
 20
144
 21
144
  0
LINE
  8
0
 10
4
 11
4
 20
144
 21
148
  0
LINE
  8
0
 10
4
 11
-4
 20
148
 21
148
  0
ENDSEC
  0
SECTION
  2
OBJECTS
  0
DICTIONARY
  0
ENDSEC
  0
EOF
