<?xml version="1.0" encoding="UTF-8" standalone="no"?>
<!-- Created with Inkscape (http://www.inkscape.org/) -->

<svg
   xmlns:dc="http://purl.org/dc/elements/1.1/"
   xmlns:cc="http://creativecommons.org/ns#"
   xmlns:rdf="http://www.w3.org/1999/02/22-rdf-syntax-ns#"
   xmlns:svg="http://www.w3.org/2000/svg"
   xmlns="http://www.w3.org/2000/svg"
   xmlns:xlink="http://www.w3.org/1999/xlink"
   xmlns:sodipodi="http://sodipodi.sourceforge.net/DTD/sodipodi-0.dtd"
   xmlns:inkscape="http://www.inkscape.org/namespaces/inkscape"
   width="1633.9369"
   height="929.49194"
   id="svg2"
   version="1.1"
   inkscape:version="0.48.3.1 r9886"
   sodipodi:docname="MakerSapceldn-sleutel-tig.svg">
  <defs
     id="defs4">
    <linearGradient
       inkscape:collect="always"
       id="linearGradient3335">
      <stop
         style="stop-color:#000000;stop-opacity:1;"
         offset="0"
         id="stop3337" />
      <stop
         style="stop-color:#000000;stop-opacity:0;"
         offset="1"
         id="stop3339" />
    </linearGradient>
    <filter
       inkscape:collect="always"
       id="filter3776-0"
       color-interpolation-filters="sRGB">
      <feGaussianBlur
         inkscape:collect="always"
         stdDeviation="0.13384521"
         id="feGaussianBlur3778-8" />
    </filter>
    <linearGradient
       inkscape:collect="always"
       xlink:href="#linearGradient3335"
       id="linearGradient3341"
       x1="-536.4024"
       y1="299.83618"
       x2="-210.55822"
       y2="299.83618"
       gradientUnits="userSpaceOnUse" />
    <linearGradient
       inkscape:collect="always"
       xlink:href="#linearGradient3335"
       id="linearGradient3372"
       gradientUnits="userSpaceOnUse"
       x1="-536.4024"
       y1="299.83618"
       x2="-210.55822"
       y2="299.83618" />
  </defs>
  <sodipodi:namedview
     id="base"
     pagecolor="#ffffff"
     bordercolor="#666666"
     borderopacity="1.0"
     inkscape:pageopacity="0.0"
     inkscape:pageshadow="2"
     inkscape:zoom="0.98994949"
     inkscape:cx="782.11415"
     inkscape:cy="1401.6315"
     inkscape:document-units="px"
     inkscape:current-layer="layer1"
     showgrid="false"
     inkscape:window-width="1301"
     inkscape:window-height="744"
     inkscape:window-x="65"
     inkscape:window-y="24"
     inkscape:window-maximized="1"
     fit-margin-top="0"
     fit-margin-left="0"
     fit-margin-right="0"
     fit-margin-bottom="0" />
  <metadata
     id="metadata7">
    <rdf:RDF>
      <cc:Work
         rdf:about="">
        <dc:format>image/svg+xml</dc:format>
        <dc:type
           rdf:resource="http://purl.org/dc/dcmitype/StillImage" />
        <dc:title></dc:title>
      </cc:Work>
    </rdf:RDF>
  </metadata>
  <g
     inkscape:label="Layer 1"
     inkscape:groupmode="layer"
     id="layer1"
     transform="translate(593.57757,-41.83436)">
    <path
       sodipodi:type="arc"
       style="fill:none;stroke:#000000;stroke-width:1.19799995;stroke-linecap:round;stroke-miterlimit:4;stroke-opacity:1;stroke-dasharray:none;stroke-dashoffset:0"
       id="path2985-0"
       sodipodi:cx="388.57144"
       sodipodi:cy="218.07646"
       sodipodi:rx="142.85715"
       sodipodi:ry="125.71429"
       d="m 531.42859,218.07646 c 0,69.43009 -63.95932,125.71429 -142.85715,125.71429 -78.89782,0 -142.85715,-56.2842 -142.85715,-125.71429 0,-69.43008 63.95933,-125.714285 142.85715,-125.714285 78.89783,0 142.85715,56.284205 142.85715,125.714285 z"
       transform="matrix(1.4011369,0,0,0.39293177,-933.55419,211.46323)" />
    <flowRoot
       xml:space="preserve"
       id="flowRoot2987-2"
       style="font-size:28px;font-style:normal;font-variant:normal;font-weight:normal;font-stretch:normal;line-height:125%;letter-spacing:0px;word-spacing:0px;fill:#000000;fill-opacity:1;stroke:none;font-family:Arial;-inkscape-font-specification:Arial"
       transform="matrix(2.8177781,0,0,2.4939486,-1198.2016,-926.75807)"><flowRegion
         id="flowRegion2989-0"><rect
           id="rect2991-1"
           width="348.57144"
           height="562.85712"
           x="242.85715"
           y="478.07648"
           style="font-size:28px" /></flowRegion><flowPara
         id="flowPara2997-5"
         style="font-size:7.54454136px;font-style:normal;font-variant:normal;font-weight:normal;font-stretch:normal;fill:#ff0000;font-family:Comic Sans MS;-inkscape-font-specification:Comic Sans MS">Marten Vijn</flowPara><flowPara
         style="font-size:7.54454136px;font-style:normal;font-variant:normal;font-weight:normal;font-stretch:normal;fill:#ff0000;font-family:Comic Sans MS;-inkscape-font-specification:Comic Sans MS"
         id="flowPara3368">info@martenvijn.nl</flowPara><flowPara
         style="font-size:7.54454136px;font-style:normal;font-variant:normal;font-weight:normal;font-stretch:normal;fill:#ff0000;font-family:Comic Sans MS;-inkscape-font-specification:Comic Sans MS"
         id="flowPara3366">+316 52476794</flowPara></flowRoot>    <path
       sodipodi:type="arc"
       style="fill:none;stroke:#000000;stroke-width:1.19799995;stroke-linecap:round;stroke-miterlimit:4;stroke-opacity:1;stroke-dasharray:none;stroke-dashoffset:0;filter:url(#filter3776-0)"
       id="path3003-5"
       sodipodi:cx="12.626906"
       sodipodi:cy="344.24524"
       sodipodi:rx="12.626906"
       sodipodi:ry="14.142136"
       d="m 25.253813,344.24524 c 0,7.81049 -5.653259,14.14213 -12.626907,14.14213 C 5.6532586,358.38737 0,352.05573 0,344.24524 0,336.43475 5.6532586,330.1031 12.626906,330.1031 c 6.973648,0 12.626907,6.33165 12.626907,14.14214 z"
       transform="matrix(0.96457207,0,0,0.98786754,-570.24143,-41.092377)" />
    <use
       x="0"
       y="0"
       xlink:href="#path2985-0"
       id="use4013"
       transform="translate(-3.8582883,100.76249)"
       width="415.93906"
       height="100.91824" />
    <use
       x="0"
       y="0"
       xlink:href="#flowRoot2987-2"
       id="use4015"
       transform="translate(18.293497,98.742189)"
       width="415.93906"
       height="100.91824" />
    <use
       x="0"
       y="0"
       xlink:href="#path3003-5"
       id="use4017"
       transform="translate(-3.8582883,100.76249)"
       width="415.93906"
       height="100.91824" />
    <use
       x="0"
       y="0"
       xlink:href="#path2985-0"
       id="use4032"
       transform="translate(0,-205.47645)"
       width="415.93906"
       height="100.91824" />
    <use
       x="0"
       y="0"
       xlink:href="#flowRoot2987-2"
       id="use4034"
       transform="translate(9.091373,-206.4866)"
       width="415.93906"
       height="100.91824"
       style="fill:url(#linearGradient3372)" />
    <use
       x="0"
       y="0"
       xlink:href="#path3003-5"
       id="use4036"
       transform="translate(0,-205.47645)"
       width="415.93906"
       height="100.91824" />
    <use
       x="0"
       y="0"
       xlink:href="#use4032"
       id="use4038"
       transform="translate(0,102.73822)"
       width="415.93906"
       height="100.91824" />
    <use
       x="0"
       y="0"
       xlink:href="#use4034"
       id="use4040"
       transform="translate(-3.030458,99.707762)"
       width="415.93906"
       height="100.91824" />
    <use
       x="0"
       y="0"
       xlink:href="#use4036"
       id="use4042"
       transform="translate(0,102.73822)"
       width="415.93906"
       height="100.91824" />
    <use
       x="0"
       y="0"
       xlink:href="#use4013"
       id="use4057"
       transform="translate(0,104.71396)"
       width="415.93906"
       height="100.91824" />
    <use
       x="0"
       y="0"
       xlink:href="#use4015"
       id="use4059"
       transform="translate(-4.0406102,96.632739)"
       width="415.93906"
       height="100.91824" />
    <use
       x="0"
       y="0"
       xlink:href="#use4017"
       id="use4061"
       transform="translate(0,104.71396)"
       width="415.93906"
       height="100.91824" />
    <use
       x="0"
       y="0"
       xlink:href="#use4057"
       id="use4063"
       transform="translate(0,104.71396)"
       width="415.93906"
       height="100.91824" />
    <use
       x="0"
       y="0"
       xlink:href="#use4059"
       id="use4065"
       transform="translate(7.0710676,111.78503)"
       width="415.93906"
       height="100.91824" />
    <use
       x="0"
       y="0"
       xlink:href="#use4061"
       id="use4067"
       transform="translate(0,104.71396)"
       width="415.93906"
       height="100.91824" />
    <use
       x="0"
       y="0"
       xlink:href="#use4063"
       id="use4069"
       transform="translate(0,102.73822)"
       width="415.93906"
       height="100.91824" />
    <use
       x="0"
       y="0"
       xlink:href="#use4065"
       id="use4071"
       transform="translate(-3.030458,101.72806)"
       width="415.93906"
       height="100.91824" />
    <use
       x="0"
       y="0"
       xlink:href="#use4067"
       id="use4073"
       transform="translate(0,102.73822)"
       width="415.93906"
       height="100.91824" />
    <use
       x="0"
       y="0"
       xlink:href="#path2985-0"
       id="use4081"
       transform="translate(407.04941,0)"
       width="415.93906"
       height="100.91824" />
    <use
       x="0"
       y="0"
       xlink:href="#flowRoot2987-2"
       id="use4083"
       transform="translate(427.25246,-6.0609151)"
       width="415.93906"
       height="100.91824" />
    <use
       x="0"
       y="0"
       xlink:href="#path3003-5"
       id="use4085"
       transform="translate(407.04941,0)"
       width="415.93906"
       height="100.91824" />
    <use
       x="0"
       y="0"
       xlink:href="#use4013"
       id="use4087"
       transform="translate(407.04941,0)"
       width="415.93906"
       height="100.91824" />
    <use
       x="0"
       y="0"
       xlink:href="#use4015"
       id="use4089"
       transform="translate(405.02911,-3.0304575)"
       width="415.93906"
       height="100.91824" />
    <use
       x="0"
       y="0"
       xlink:href="#use4017"
       id="use4091"
       transform="translate(407.04941,0)"
       width="415.93906"
       height="100.91824" />
    <use
       x="0"
       y="0"
       xlink:href="#use4032"
       id="use4093"
       transform="translate(407.04941,0)"
       width="415.93906"
       height="100.91824" />
    <use
       x="0"
       y="0"
       xlink:href="#use4034"
       id="use4095"
       transform="translate(418.16109,-2.0203055)"
       width="415.93906"
       height="100.91824" />
    <use
       x="0"
       y="0"
       xlink:href="#use4036"
       id="use4097"
       transform="translate(407.04941,0)"
       width="415.93906"
       height="100.91824" />
    <use
       x="0"
       y="0"
       xlink:href="#use4038"
       id="use4099"
       transform="translate(407.04941,0)"
       width="415.93906"
       height="100.91824" />
    <use
       x="0"
       y="0"
       xlink:href="#use4040"
       id="use4101"
       transform="translate(418.14078,0)"
       width="415.93906"
       height="100.91824" />
    <use
       x="0"
       y="0"
       xlink:href="#use4042"
       id="use4103"
       transform="translate(407.04941,0)"
       width="415.93906"
       height="100.91824" />
    <use
       x="0"
       y="0"
       xlink:href="#use4057"
       id="use4105"
       transform="translate(407.04941,0)"
       width="415.93906"
       height="100.91824" />
    <use
       x="0"
       y="0"
       xlink:href="#use4059"
       id="use4107"
       transform="translate(417.15094,3.0304574)"
       width="415.93906"
       height="100.91824" />
    <use
       x="0"
       y="0"
       xlink:href="#use4061"
       id="use4109"
       transform="translate(407.04941,0)"
       width="415.93906"
       height="100.91824" />
    <use
       x="0"
       y="0"
       xlink:href="#use4063"
       id="use4111"
       transform="translate(407.04941,0)"
       width="415.93906"
       height="100.91824" />
    <use
       x="0"
       y="0"
       xlink:href="#use4065"
       id="use4113"
       transform="translate(407.04941,-2.0203055)"
       width="415.93906"
       height="100.91824" />
    <use
       x="0"
       y="0"
       xlink:href="#use4067"
       id="use4115"
       transform="translate(407.04941,0)"
       width="415.93906"
       height="100.91824" />
    <use
       x="0"
       y="0"
       xlink:href="#use4069"
       id="use4117"
       transform="translate(407.04941,0)"
       width="415.93906"
       height="100.91824" />
    <use
       x="0"
       y="0"
       xlink:href="#use4071"
       id="use4119"
       transform="translate(406.03926,2.0203051)"
       width="415.93906"
       height="100.91824" />
    <use
       x="0"
       y="0"
       xlink:href="#use4073"
       id="use4121"
       transform="translate(407.04941,0)"
       width="415.93906"
       height="100.91824" />
    <use
       x="0"
       y="0"
       xlink:href="#use4081"
       id="use4127"
       transform="translate(407.04941,1.9757351)"
       width="415.93906"
       height="100.91824" />
    <use
       x="0"
       y="0"
       xlink:href="#use4083"
       id="use4129"
       transform="translate(412.10017,5.0061925)"
       width="415.93906"
       height="100.91824" />
    <use
       x="0"
       y="0"
       xlink:href="#use4085"
       id="use4131"
       transform="translate(407.04941,1.9757351)"
       width="415.93906"
       height="100.91824" />
    <use
       x="0"
       y="0"
       xlink:href="#use4087"
       id="use4133"
       transform="translate(407.04941,1.9757351)"
       width="415.93906"
       height="100.91824" />
    <use
       x="0"
       y="0"
       xlink:href="#use4089"
       id="use4135"
       transform="translate(410.07986,2.985888)"
       width="415.93906"
       height="100.91824" />
    <use
       x="0"
       y="0"
       xlink:href="#use4091"
       id="use4137"
       transform="translate(407.04941,1.9757351)"
       width="415.93906"
       height="100.91824" />
    <use
       x="0"
       y="0"
       xlink:href="#use4093"
       id="use4139"
       transform="translate(407.04941,1.9757351)"
       width="415.93906"
       height="100.91824" />
    <use
       x="0"
       y="0"
       xlink:href="#use4095"
       id="use4141"
       transform="translate(412.10017,-3.0750272)"
       width="415.93906"
       height="100.91824" />
    <use
       x="0"
       y="0"
       xlink:href="#use4097"
       id="use4143"
       transform="translate(407.04941,1.9757351)"
       width="415.93906"
       height="100.91824" />
    <use
       x="0"
       y="0"
       xlink:href="#use4099"
       id="use4145"
       transform="translate(407.04941,1.9757351)"
       width="415.93906"
       height="100.91824" />
    <use
       x="0"
       y="0"
       xlink:href="#use4101"
       id="use4147"
       transform="translate(406.05956,-0.04457009)"
       width="415.93906"
       height="100.91824" />
    <use
       x="0"
       y="0"
       xlink:href="#use4103"
       id="use4149"
       transform="translate(407.04941,1.9757351)"
       width="415.93906"
       height="100.91824" />
    <use
       x="0"
       y="0"
       xlink:href="#use4105"
       id="use4151"
       transform="translate(407.04941,1.9757351)"
       width="415.93906"
       height="100.91824" />
    <use
       x="0"
       y="0"
       xlink:href="#use4107"
       id="use4153"
       transform="translate(408.05956,0.96558282)"
       width="415.93906"
       height="100.91824" />
    <use
       x="0"
       y="0"
       xlink:href="#use4109"
       id="use4155"
       transform="translate(407.04941,1.9757351)"
       width="415.93906"
       height="100.91824" />
    <use
       x="0"
       y="0"
       xlink:href="#use4111"
       id="use4157"
       transform="translate(407.04941,1.9757351)"
       width="415.93906"
       height="100.91824" />
    <use
       x="0"
       y="0"
       xlink:href="#use4113"
       id="use4159"
       transform="translate(413.11032,2.9858875)"
       width="415.93906"
       height="100.91824" />
    <use
       x="0"
       y="0"
       xlink:href="#use4115"
       id="use4161"
       transform="translate(407.04941,1.9757351)"
       width="415.93906"
       height="100.91824" />
    <use
       x="0"
       y="0"
       xlink:href="#use4117"
       id="use4163"
       transform="translate(407.04941,1.9757351)"
       width="415.93906"
       height="100.91824" />
    <use
       x="0"
       y="0"
       xlink:href="#use4119"
       id="use4165"
       transform="translate(415.13063,-1.0547221)"
       width="415.93906"
       height="100.91824" />
    <use
       x="0"
       y="0"
       xlink:href="#use4121"
       id="use4167"
       transform="translate(407.04941,1.9757351)"
       width="415.93906"
       height="100.91824" />
    <path
       transform="matrix(0.96457207,0,0,0.98786754,239.9991,476.55021)"
       d="m 25.253813,344.24524 c 0,7.81049 -5.653259,14.14213 -12.626907,14.14213 C 5.6532586,358.38737 0,352.05573 0,344.24524 0,336.43475 5.6532586,330.1031 12.626906,330.1031 c 6.973648,0 12.626907,6.33165 12.626907,14.14214 z"
       sodipodi:ry="14.142136"
       sodipodi:rx="12.626906"
       sodipodi:cy="344.24524"
       sodipodi:cx="12.626906"
       id="use4171"
       style="fill:none;stroke:#000000;stroke-width:1.19799995;stroke-linecap:round;stroke-miterlimit:4;stroke-opacity:1;stroke-dasharray:none;stroke-dashoffset:0;filter:url(#filter3776-0)"
       sodipodi:type="arc" />
    <use
       x="0"
       y="0"
       xlink:href="#use4127"
       id="use4173"
       transform="translate(414.76599,0)"
       width="415.93906"
       height="100.91824" />
    <use
       x="0"
       y="0"
       xlink:href="#use4129"
       id="use4175"
       transform="translate(365.26852,21.213203)"
       width="415.93906"
       height="100.91824" />
    <use
       x="0"
       y="0"
       xlink:href="#use4131"
       id="use4177"
       transform="translate(414.76599,0)"
       width="415.93906"
       height="100.91824" />
    <use
       x="0"
       y="0"
       xlink:href="#use4133"
       id="use4179"
       transform="translate(414.76599,0)"
       width="415.93906"
       height="100.91824" />
    <use
       x="0"
       y="0"
       xlink:href="#use4135"
       id="use4181"
       transform="translate(410.72538,0)"
       width="415.93906"
       height="100.91824" />
    <use
       x="0"
       y="0"
       xlink:href="#use4137"
       id="use4183"
       transform="translate(414.76599,0)"
       width="415.93906"
       height="100.91824" />
    <use
       x="0"
       y="0"
       xlink:href="#use4139"
       id="use4185"
       transform="translate(414.76599,0)"
       width="415.93906"
       height="100.91824" />
    <use
       x="0"
       y="0"
       xlink:href="#use4141"
       id="use4187"
       transform="translate(416.7863,4.0406102)"
       width="415.93906"
       height="100.91824" />
    <use
       x="0"
       y="0"
       xlink:href="#use4143"
       id="use4189"
       transform="translate(414.76599,0)"
       width="415.93906"
       height="100.91824" />
    <use
       x="0"
       y="0"
       xlink:href="#use4145"
       id="use4191"
       transform="translate(414.76599,0)"
       width="415.93906"
       height="100.91824" />
    <use
       x="0"
       y="0"
       xlink:href="#use4147"
       id="use4193"
       transform="translate(425.87767,-8.8440856e-8)"
       width="415.93906"
       height="100.91824" />
    <use
       x="0"
       y="0"
       xlink:href="#use4149"
       id="use4195"
       transform="translate(414.76599,0)"
       width="415.93906"
       height="100.91824" />
    <use
       x="0"
       y="0"
       xlink:href="#use4151"
       id="use4197"
       transform="translate(414.76599,0)"
       width="415.93906"
       height="100.91824" />
    <use
       x="0"
       y="0"
       xlink:href="#use4153"
       id="use4199"
       transform="translate(416.78629,4.04061)"
       width="415.93906"
       height="100.91824" />
    <use
       x="0"
       y="0"
       xlink:href="#use4155"
       id="use4201"
       transform="translate(414.76599,0)"
       width="415.93906"
       height="100.91824" />
    <use
       x="0"
       y="0"
       xlink:href="#use4157"
       id="use4203"
       transform="translate(414.76599,0)"
       width="415.93906"
       height="100.91824" />
    <use
       x="0"
       y="0"
       xlink:href="#use4159"
       id="use4205"
       transform="translate(405.67462,-1.010153)"
       width="415.93906"
       height="100.91824" />
    <use
       x="0"
       y="0"
       xlink:href="#use4161"
       id="use4207"
       transform="translate(414.76599,0)"
       width="415.93906"
       height="100.91824" />
    <use
       x="0"
       y="0"
       xlink:href="#use4163"
       id="use4209"
       transform="translate(414.76599,0)"
       width="415.93906"
       height="100.91824" />
    <use
       x="0"
       y="0"
       xlink:href="#use4165"
       id="use4211"
       transform="translate(408.70507,-4.5691085e-7)"
       width="415.93906"
       height="100.91824" />
    <use
       x="0"
       y="0"
       xlink:href="#use4167"
       id="use4213"
       transform="translate(414.76599,0)"
       width="415.93906"
       height="100.91824" />
    <use
       x="0"
       y="0"
       xlink:href="#use4171"
       id="use4217"
       transform="translate(414.76599,0)"
       width="415.93906"
       height="100.91824" />
    <use
       x="0"
       y="0"
       xlink:href="#use4063"
       id="use4256"
       transform="translate(0,209.42792)"
       width="415.93906"
       height="100.91824" />
    <use
       x="0"
       y="0"
       xlink:href="#use4065"
       id="use4258"
       transform="translate(-5.0507631,206.39746)"
       width="415.93906"
       height="100.91824" />
    <use
       x="0"
       y="0"
       xlink:href="#use4067"
       id="use4260"
       transform="translate(0,209.42792)"
       width="415.93906"
       height="100.91824" />
    <use
       x="0"
       y="0"
       xlink:href="#use4069"
       id="use4262"
       transform="translate(0,209.42792)"
       width="415.93906"
       height="100.91824" />
    <use
       x="0"
       y="0"
       xlink:href="#use4071"
       id="use4264"
       transform="translate(4.0406102,204.37716)"
       width="415.93906"
       height="100.91824" />
    <use
       x="0"
       y="0"
       xlink:href="#use4073"
       id="use4266"
       transform="translate(0,209.42792)"
       width="415.93906"
       height="100.91824" />
    <use
       x="0"
       y="0"
       xlink:href="#use4111"
       id="use4268"
       transform="translate(0,209.42792)"
       width="415.93906"
       height="100.91824" />
    <use
       x="0"
       y="0"
       xlink:href="#use4113"
       id="use4270"
       transform="translate(-5.0507626,212.45838)"
       width="415.93906"
       height="100.91824" />
    <use
       x="0"
       y="0"
       xlink:href="#use4115"
       id="use4272"
       transform="translate(0,209.42792)"
       width="415.93906"
       height="100.91824" />
    <use
       x="0"
       y="0"
       xlink:href="#use4117"
       id="use4274"
       transform="translate(0,209.42792)"
       width="415.93906"
       height="100.91824" />
    <use
       x="0"
       y="0"
       xlink:href="#use4119"
       id="use4276"
       transform="translate(5.0507625,206.39746)"
       width="415.93906"
       height="100.91824" />
    <use
       x="0"
       y="0"
       xlink:href="#use4121"
       id="use4278"
       transform="translate(0,209.42792)"
       width="415.93906"
       height="100.91824" />
    <use
       x="0"
       y="0"
       xlink:href="#use4157"
       id="use4280"
       transform="translate(0,209.42792)"
       width="415.93906"
       height="100.91824" />
    <use
       x="0"
       y="0"
       xlink:href="#use4159"
       id="use4282"
       transform="translate(-11.111678,206.39747)"
       width="415.93906"
       height="100.91824" />
    <use
       x="0"
       y="0"
       xlink:href="#use4163"
       id="use4286"
       transform="translate(0,209.42792)"
       width="415.93906"
       height="100.91824" />
    <use
       x="0"
       y="0"
       xlink:href="#use4165"
       id="use4288"
       transform="translate(-25.253814,212.45838)"
       width="415.93906"
       height="100.91824" />
    <use
       x="0"
       y="0"
       xlink:href="#use4167"
       id="use4290"
       transform="translate(0,209.42792)"
       width="415.93906"
       height="100.91824" />
    <use
       x="0"
       y="0"
       xlink:href="#use4203"
       id="use4292"
       transform="translate(0,209.42792)"
       width="415.93906"
       height="100.91824" />
    <use
       x="0"
       y="0"
       xlink:href="#use4205"
       id="use4294"
       transform="translate(4.04061,206.39746)"
       width="415.93906"
       height="100.91824" />
    <use
       x="0"
       y="0"
       xlink:href="#use4209"
       id="use4298"
       transform="translate(0,209.42792)"
       width="415.93906"
       height="100.91824" />
    <use
       x="0"
       y="0"
       xlink:href="#use4211"
       id="use4300"
       transform="translate(4.0406105,208.41777)"
       width="415.93906"
       height="100.91824" />
    <use
       x="0"
       y="0"
       xlink:href="#use4213"
       id="use4302"
       transform="translate(0,209.42792)"
       width="415.93906"
       height="100.91824" />
  </g>
</svg>
