  0
SECTION
  2
BLOCKS
  0
ENDSEC
  0
SECTION
  2
ENTITIES
  0
LINE
  8
0
 10
47.9
 20
56
 11
44
 21
56
  0
LINE
  8
0
 10
44
 20
56
 11
44
 21
60
  0
LINE
  8
0
 10
44
 20
60
 11
47.9
 21
60
  0
LINE
  8
0
 10
47.9
 20
60
 11
47.9
 21
64
  0
LINE
  8
0
 10
47.9
 20
64
 11
44
 21
64
  0
LINE
  8
0
 10
44
 20
64
 11
44
 21
68
  0
LINE
  8
0
 10
44
 20
68
 11
47.9
 21
68
  0
LINE
  8
0
 10
47.9
 20
68
 11
47.9
 21
72
  0
LINE
  8
0
 10
47.9
 20
72
 11
44
 21
72
  0
LINE
  8
0
 10
44
 20
72
 11
44
 21
76
  0
LINE
  8
0
 10
44
 20
76
 11
47.9
 21
76
  0
LINE
  8
0
 10
47.9
 20
76
 11
47.9
 21
80
  0
LINE
  8
0
 10
47.9
 20
80
 11
44
 21
80
  0
LINE
  8
0
 10
44
 20
80
 11
44
 21
84
  0
LINE
  8
0
 10
44
 20
84
 11
47.9
 21
84
  0
LINE
  8
0
 10
47.9
 20
84
 11
47.9
 21
88
  0
LINE
  8
0
 10
47.9
 20
88
 11
44
 21
88
  0
LINE
  8
0
 10
44
 20
88
 11
44
 21
92
  0
LINE
  8
0
 10
44
 20
92
 11
47.9
 21
92
  0
LINE
  8
0
 10
47.9
 20
92
 11
47.9
 21
96
  0
LINE
  8
0
 10
47.9
 20
96
 11
44
 21
96
  0
LINE
  8
0
 10
44
 20
96
 11
44
 21
100
  0
LINE
  8
0
 10
44
 20
100
 11
47.9
 21
100
  0
LINE
  8
0
 10
47.9
 20
100
 11
47.9
 21
104
  0
LINE
  8
0
 10
47.9
 20
104
 11
44
 21
104
  0
LINE
  8
0
 10
44
 20
104
 11
44
 21
108
  0
LINE
  8
0
 10
44
 20
108
 11
47.9
 21
108
  0
LINE
  8
0
 10
47.9
 20
108
 11
47.9
 21
112
  0
LINE
  8
0
 10
47.9
 20
112
 11
44
 21
112
  0
LINE
  8
0
 10
44
 20
112
 11
44
 21
116
  0
LINE
  8
0
 10
44
 20
116
 11
47.9
 21
116
  0
LINE
  8
0
 10
47.9
 20
116
 11
47.9
 21
120
  0
LINE
  8
0
 10
47.9
 20
120
 11
44
 21
120
  0
LINE
  8
0
 10
44
 20
120
 11
44
 21
124
  0
LINE
  8
0
 10
44
 20
124
 11
47.9
 21
124
  0
LINE
  8
0
 10
47.9
 20
124
 11
47.9
 21
128
  0
LINE
  8
0
 10
47.9
 20
128
 11
44
 21
128
  0
LINE
  8
0
 10
44
 20
128
 11
44
 21
132
  0
LINE
  8
0
 10
44
 20
132
 11
47.9
 21
132
  0
LINE
  8
0
 10
47.9
 20
132
 11
47.9
 21
136
  0
LINE
  8
0
 10
47.9
 20
136
 11
44
 21
136
  0
LINE
  8
0
 10
44
 20
136
 11
44
 21
140
  0
LINE
  8
0
 10
44
 20
140
 11
47.9
 21
140
  0
LINE
  8
0
 10
47.9
 20
140
 11
47.9
 21
143.9
  0
LINE
  8
0
 10
47.9
 20
143.9
 11
48
 21
143.9
  0
LINE
  8
0
 10
48
 20
143.9
 11
48
 21
147.9
  0
LINE
  8
0
 10
48
 20
147.9
 11
44
 21
147.9
  0
LINE
  8
0
 10
44
 20
147.9
 11
44
 21
144
  0
LINE
  8
0
 10
44
 20
144
 11
40
 21
144
  0
LINE
  8
0
 10
40
 20
144
 11
40
 21
147.9
  0
LINE
  8
0
 10
40
 20
147.9
 11
36
 21
147.9
  0
LINE
  8
0
 10
36
 20
147.9
 11
36
 21
144
  0
LINE
  8
0
 10
36
 20
144
 11
32
 21
144
  0
LINE
  8
0
 10
32
 20
144
 11
32
 21
147.9
  0
LINE
  8
0
 10
32
 20
147.9
 11
28
 21
147.9
  0
LINE
  8
0
 10
28
 20
147.9
 11
28
 21
144
  0
LINE
  8
0
 10
28
 20
144
 11
24
 21
144
  0
LINE
  8
0
 10
24
 20
144
 11
24
 21
147.9
  0
LINE
  8
0
 10
24
 20
147.9
 11
20
 21
147.9
  0
LINE
  8
0
 10
20
 20
147.9
 11
20
 21
144
  0
LINE
  8
0
 10
20
 20
144
 11
16
 21
144
  0
LINE
  8
0
 10
16
 20
144
 11
16
 21
147.9
  0
LINE
  8
0
 10
16
 20
147.9
 11
12
 21
147.9
  0
LINE
  8
0
 10
12
 20
147.9
 11
12
 21
144
  0
LINE
  8
0
 10
12
 20
144
 11
8
 21
144
  0
LINE
  8
0
 10
8
 20
144
 11
8
 21
147.9
  0
LINE
  8
0
 10
8
 20
147.9
 11
4
 21
147.9
  0
LINE
  8
0
 10
4
 20
147.9
 11
4
 21
144
  0
LINE
  8
0
 10
4
 20
144
 11
0
 21
144
  0
LINE
  8
0
 10
0
 20
144
 11
0
 21
147.9
  0
LINE
  8
0
 10
0
 20
147.9
 11
-4
 21
147.9
  0
LINE
  8
0
 10
-4
 20
147.9
 11
-4
 21
144
  0
LINE
  8
0
 10
-4
 20
144
 11
-8
 21
144
  0
LINE
  8
0
 10
-8
 20
144
 11
-8
 21
147.9
  0
LINE
  8
0
 10
-8
 20
147.9
 11
-12
 21
147.9
  0
LINE
  8
0
 10
-12
 20
147.9
 11
-12
 21
144
  0
LINE
  8
0
 10
-12
 20
144
 11
-16
 21
144
  0
LINE
  8
0
 10
-16
 20
144
 11
-16
 21
147.9
  0
LINE
  8
0
 10
-16
 20
147.9
 11
-20
 21
147.9
  0
LINE
  8
0
 10
-20
 20
147.9
 11
-20
 21
144
  0
LINE
  8
0
 10
-20
 20
144
 11
-24
 21
144
  0
LINE
  8
0
 10
-24
 20
144
 11
-24
 21
147.9
  0
LINE
  8
0
 10
-24
 20
147.9
 11
-28
 21
147.9
  0
LINE
  8
0
 10
-28
 20
147.9
 11
-28
 21
144
  0
LINE
  8
0
 10
-28
 20
144
 11
-32
 21
144
  0
LINE
  8
0
 10
-32
 20
144
 11
-32
 21
147.9
  0
LINE
  8
0
 10
-32
 20
147.9
 11
-36
 21
147.9
  0
LINE
  8
0
 10
-36
 20
147.9
 11
-36
 21
144
  0
LINE
  8
0
 10
-36
 20
144
 11
-40
 21
144
  0
LINE
  8
0
 10
-40
 20
144
 11
-40
 21
147.9
  0
LINE
  8
0
 10
-40
 20
147.9
 11
-43.9
 21
147.9
  0
LINE
  8
0
 10
-43.9
 20
147.9
 11
-43.9
 21
148
  0
LINE
  8
0
 10
-43.9
 20
148
 11
-47.9
 21
148
  0
LINE
  8
0
 10
-47.9
 20
148
 11
-47.9
 21
144
  0
LINE
  8
0
 10
-47.9
 20
144
 11
-44
 21
144
  0
LINE
  8
0
 10
-44
 20
144
 11
-44
 21
140
  0
LINE
  8
0
 10
-44
 20
140
 11
-47.9
 21
140
  0
LINE
  8
0
 10
-47.9
 20
140
 11
-47.9
 21
136
  0
LINE
  8
0
 10
-47.9
 20
136
 11
-44
 21
136
  0
LINE
  8
0
 10
-44
 20
136
 11
-44
 21
132
  0
LINE
  8
0
 10
-44
 20
132
 11
-47.9
 21
132
  0
LINE
  8
0
 10
-47.9
 20
132
 11
-47.9
 21
128
  0
LINE
  8
0
 10
-47.9
 20
128
 11
-44
 21
128
  0
LINE
  8
0
 10
-44
 20
128
 11
-44
 21
124
  0
LINE
  8
0
 10
-44
 20
124
 11
-47.9
 21
124
  0
LINE
  8
0
 10
-47.9
 20
124
 11
-47.9
 21
120
  0
LINE
  8
0
 10
-47.9
 20
120
 11
-44
 21
120
  0
LINE
  8
0
 10
-44
 20
120
 11
-44
 21
116
  0
LINE
  8
0
 10
-44
 20
116
 11
-47.9
 21
116
  0
LINE
  8
0
 10
-47.9
 20
116
 11
-47.9
 21
112
  0
LINE
  8
0
 10
-47.9
 20
112
 11
-44
 21
112
  0
LINE
  8
0
 10
-44
 20
112
 11
-44
 21
108
  0
LINE
  8
0
 10
-44
 20
108
 11
-47.9
 21
108
  0
LINE
  8
0
 10
-47.9
 20
108
 11
-47.9
 21
104
  0
LINE
  8
0
 10
-47.9
 20
104
 11
-44
 21
104
  0
LINE
  8
0
 10
-44
 20
104
 11
-44
 21
100
  0
LINE
  8
0
 10
-44
 20
100
 11
-47.9
 21
100
  0
LINE
  8
0
 10
-47.9
 20
100
 11
-47.9
 21
96
  0
LINE
  8
0
 10
-47.9
 20
96
 11
-44
 21
96
  0
LINE
  8
0
 10
-44
 20
96
 11
-44
 21
92
  0
LINE
  8
0
 10
-44
 20
92
 11
-47.9
 21
92
  0
LINE
  8
0
 10
-47.9
 20
92
 11
-47.9
 21
88
  0
LINE
  8
0
 10
-47.9
 20
88
 11
-44
 21
88
  0
LINE
  8
0
 10
-44
 20
88
 11
-44
 21
84
  0
LINE
  8
0
 10
-44
 20
84
 11
-47.9
 21
84
  0
LINE
  8
0
 10
-47.9
 20
84
 11
-47.9
 21
80
  0
LINE
  8
0
 10
-47.9
 20
80
 11
-44
 21
80
  0
LINE
  8
0
 10
-44
 20
80
 11
-44
 21
76
  0
LINE
  8
0
 10
-44
 20
76
 11
-47.9
 21
76
  0
LINE
  8
0
 10
-47.9
 20
76
 11
-47.9
 21
72
  0
LINE
  8
0
 10
-47.9
 20
72
 11
-44
 21
72
  0
LINE
  8
0
 10
-44
 20
72
 11
-44
 21
68
  0
LINE
  8
0
 10
-44
 20
68
 11
-47.9
 21
68
  0
LINE
  8
0
 10
-47.9
 20
68
 11
-47.9
 21
64
  0
LINE
  8
0
 10
-47.9
 20
64
 11
-44
 21
64
  0
LINE
  8
0
 10
-44
 20
64
 11
-44
 21
60
  0
LINE
  8
0
 10
-44
 20
60
 11
-47.9
 21
60
  0
LINE
  8
0
 10
-47.9
 20
60
 11
-47.9
 21
56.1
  0
LINE
  8
0
 10
-47.9
 20
56.1
 11
-48
 21
56.1
  0
LINE
  8
0
 10
-48
 20
56.1
 11
-48
 21
52.1
  0
LINE
  8
0
 10
-48
 20
52.1
 11
-44
 21
52.1
  0
LINE
  8
0
 10
-44
 20
52.1
 11
-44
 21
56
  0
LINE
  8
0
 10
-44
 20
56
 11
-40
 21
56
  0
LINE
  8
0
 10
-40
 20
56
 11
-40
 21
52.1
  0
LINE
  8
0
 10
-40
 20
52.1
 11
-36
 21
52.1
  0
LINE
  8
0
 10
-36
 20
52.1
 11
-36
 21
56
  0
LINE
  8
0
 10
-36
 20
56
 11
-32
 21
56
  0
LINE
  8
0
 10
-32
 20
56
 11
-32
 21
52.1
  0
LINE
  8
0
 10
-32
 20
52.1
 11
-28
 21
52.1
  0
LINE
  8
0
 10
-28
 20
52.1
 11
-28
 21
56
  0
LINE
  8
0
 10
-28
 20
56
 11
-24
 21
56
  0
LINE
  8
0
 10
-24
 20
56
 11
-24
 21
52.1
  0
LINE
  8
0
 10
-24
 20
52.1
 11
-20
 21
52.1
  0
LINE
  8
0
 10
-20
 20
52.1
 11
-20
 21
56
  0
LINE
  8
0
 10
-20
 20
56
 11
-16
 21
56
  0
LINE
  8
0
 10
-16
 20
56
 11
-16
 21
52.1
  0
LINE
  8
0
 10
-16
 20
52.1
 11
-12
 21
52.1
  0
LINE
  8
0
 10
-12
 20
52.1
 11
-12
 21
56
  0
LINE
  8
0
 10
-12
 20
56
 11
-8
 21
56
  0
LINE
  8
0
 10
-8
 20
56
 11
-8
 21
52.1
  0
LINE
  8
0
 10
-8
 20
52.1
 11
-4
 21
52.1
  0
LINE
  8
0
 10
-4
 20
52.1
 11
-4
 21
56
  0
LINE
  8
0
 10
-4
 20
56
 11
0
 21
56
  0
LINE
  8
0
 10
0
 20
56
 11
0
 21
52.1
  0
LINE
  8
0
 10
0
 20
52.1
 11
3.99998
 21
52.1
  0
LINE
  8
0
 10
3.99998
 20
52.1
 11
3.99998
 21
56
  0
LINE
  8
0
 10
3.99998
 20
56
 11
7.99998
 21
56
  0
LINE
  8
0
 10
7.99998
 20
56
 11
7.99998
 21
52.1
  0
LINE
  8
0
 10
7.99998
 20
52.1
 11
12
 21
52.1
  0
LINE
  8
0
 10
12
 20
52.1
 11
12
 21
56
  0
LINE
  8
0
 10
12
 20
56
 11
16
 21
56
  0
LINE
  8
0
 10
16
 20
56
 11
16
 21
52.1
  0
LINE
  8
0
 10
16
 20
52.1
 11
20
 21
52.1
  0
LINE
  8
0
 10
20
 20
52.1
 11
20
 21
56
  0
LINE
  8
0
 10
20
 20
56
 11
24
 21
56
  0
LINE
  8
0
 10
24
 20
56
 11
24
 21
52.1
  0
LINE
  8
0
 10
24
 20
52.1
 11
28
 21
52.1
  0
LINE
  8
0
 10
28
 20
52.1
 11
28
 21
56
  0
LINE
  8
0
 10
28
 20
56
 11
32
 21
56
  0
LINE
  8
0
 10
32
 20
56
 11
32
 21
52.1
  0
LINE
  8
0
 10
32
 20
52.1
 11
36
 21
52.1
  0
LINE
  8
0
 10
36
 20
52.1
 11
36
 21
56
  0
LINE
  8
0
 10
36
 20
56
 11
40
 21
56
  0
LINE
  8
0
 10
40
 20
56
 11
40
 21
52.1
  0
LINE
  8
0
 10
40
 20
52.1
 11
43.9
 21
52.1
  0
LINE
  8
0
 10
43.9
 20
52.1
 11
43.9
 21
52
  0
LINE
  8
0
 10
43.9
 20
52
 11
47.9
 21
52
  0
LINE
  8
0
 10
47.9
 20
52
 11
47.9
 21
56
  0
LINE
  8
0
 10
164
 20
56
 11
168
 21
56
  0
LINE
  8
0
 10
168
 20
56
 11
168
 21
52.1
  0
LINE
  8
0
 10
168
 20
52.1
 11
172
 21
52.1
  0
LINE
  8
0
 10
172
 20
52.1
 11
172
 21
56
  0
LINE
  8
0
 10
172
 20
56
 11
176
 21
56
  0
LINE
  8
0
 10
176
 20
56
 11
176
 21
52.1
  0
LINE
  8
0
 10
176
 20
52.1
 11
180
 21
52.1
  0
LINE
  8
0
 10
180
 20
52.1
 11
180
 21
56
  0
LINE
  8
0
 10
180
 20
56
 11
184
 21
56
  0
LINE
  8
0
 10
184
 20
56
 11
184
 21
52.1
  0
LINE
  8
0
 10
184
 20
52.1
 11
188
 21
52.1
  0
LINE
  8
0
 10
188
 20
52.1
 11
188
 21
56
  0
LINE
  8
0
 10
188
 20
56
 11
192
 21
56
  0
LINE
  8
0
 10
192
 20
56
 11
192
 21
52.1
  0
LINE
  8
0
 10
192
 20
52.1
 11
196
 21
52.1
  0
LINE
  8
0
 10
196
 20
52.1
 11
196
 21
56
  0
LINE
  8
0
 10
196
 20
56
 11
200
 21
56
  0
LINE
  8
0
 10
200
 20
56
 11
200
 21
52.1
  0
LINE
  8
0
 10
200
 20
52.1
 11
204
 21
52.1
  0
LINE
  8
0
 10
204
 20
52.1
 11
204
 21
56
  0
LINE
  8
0
 10
204
 20
56
 11
208
 21
56
  0
LINE
  8
0
 10
208
 20
56
 11
208
 21
52.1
  0
LINE
  8
0
 10
208
 20
52.1
 11
212
 21
52.1
  0
LINE
  8
0
 10
212
 20
52.1
 11
212
 21
56
  0
LINE
  8
0
 10
212
 20
56
 11
216
 21
56
  0
LINE
  8
0
 10
216
 20
56
 11
216
 21
52.1
  0
LINE
  8
0
 10
216
 20
52.1
 11
220
 21
52.1
  0
LINE
  8
0
 10
220
 20
52.1
 11
220
 21
56
  0
LINE
  8
0
 10
220
 20
56
 11
224
 21
56
  0
LINE
  8
0
 10
224
 20
56
 11
224
 21
52.1
  0
LINE
  8
0
 10
224
 20
52.1
 11
228
 21
52.1
  0
LINE
  8
0
 10
228
 20
52.1
 11
228
 21
56
  0
LINE
  8
0
 10
228
 20
56
 11
232
 21
56
  0
LINE
  8
0
 10
232
 20
56
 11
232
 21
52.1
  0
LINE
  8
0
 10
232
 20
52.1
 11
236
 21
52.1
  0
LINE
  8
0
 10
236
 20
52.1
 11
236
 21
56
  0
LINE
  8
0
 10
236
 20
56
 11
240
 21
56
  0
LINE
  8
0
 10
240
 20
56
 11
240
 21
52.1
  0
LINE
  8
0
 10
240
 20
52.1
 11
244
 21
52.1
  0
LINE
  8
0
 10
244
 20
52.1
 11
244
 21
60
  0
LINE
  8
0
 10
244
 20
60
 11
247.9
 21
60
  0
LINE
  8
0
 10
247.9
 20
60
 11
247.9
 21
64
  0
LINE
  8
0
 10
247.9
 20
64
 11
244
 21
64
  0
LINE
  8
0
 10
244
 20
64
 11
244
 21
68
  0
LINE
  8
0
 10
244
 20
68
 11
247.9
 21
68
  0
LINE
  8
0
 10
247.9
 20
68
 11
247.9
 21
72
  0
LINE
  8
0
 10
247.9
 20
72
 11
244
 21
72
  0
LINE
  8
0
 10
244
 20
72
 11
244
 21
76
  0
LINE
  8
0
 10
244
 20
76
 11
247.9
 21
76
  0
LINE
  8
0
 10
247.9
 20
76
 11
247.9
 21
80
  0
LINE
  8
0
 10
247.9
 20
80
 11
244
 21
80
  0
LINE
  8
0
 10
244
 20
80
 11
244
 21
84
  0
LINE
  8
0
 10
244
 20
84
 11
247.9
 21
84
  0
LINE
  8
0
 10
247.9
 20
84
 11
247.9
 21
88
  0
LINE
  8
0
 10
247.9
 20
88
 11
244
 21
88
  0
LINE
  8
0
 10
244
 20
88
 11
244
 21
92
  0
LINE
  8
0
 10
244
 20
92
 11
247.9
 21
92
  0
LINE
  8
0
 10
247.9
 20
92
 11
247.9
 21
96
  0
LINE
  8
0
 10
247.9
 20
96
 11
244
 21
96
  0
LINE
  8
0
 10
244
 20
96
 11
244
 21
100
  0
LINE
  8
0
 10
244
 20
100
 11
247.9
 21
100
  0
LINE
  8
0
 10
247.9
 20
100
 11
247.9
 21
104
  0
LINE
  8
0
 10
247.9
 20
104
 11
244
 21
104
  0
LINE
  8
0
 10
244
 20
104
 11
244
 21
108
  0
LINE
  8
0
 10
244
 20
108
 11
247.9
 21
108
  0
LINE
  8
0
 10
247.9
 20
108
 11
247.9
 21
112
  0
LINE
  8
0
 10
247.9
 20
112
 11
244
 21
112
  0
LINE
  8
0
 10
244
 20
112
 11
244
 21
116
  0
LINE
  8
0
 10
244
 20
116
 11
247.9
 21
116
  0
LINE
  8
0
 10
247.9
 20
116
 11
247.9
 21
120
  0
LINE
  8
0
 10
247.9
 20
120
 11
244
 21
120
  0
LINE
  8
0
 10
244
 20
120
 11
244
 21
124
  0
LINE
  8
0
 10
244
 20
124
 11
247.9
 21
124
  0
LINE
  8
0
 10
247.9
 20
124
 11
247.9
 21
128
  0
LINE
  8
0
 10
247.9
 20
128
 11
244
 21
128
  0
LINE
  8
0
 10
244
 20
128
 11
244
 21
132
  0
LINE
  8
0
 10
244
 20
132
 11
247.9
 21
132
  0
LINE
  8
0
 10
247.9
 20
132
 11
247.9
 21
136
  0
LINE
  8
0
 10
247.9
 20
136
 11
244
 21
136
  0
LINE
  8
0
 10
244
 20
136
 11
244
 21
140
  0
LINE
  8
0
 10
244
 20
140
 11
247.9
 21
140
  0
LINE
  8
0
 10
247.9
 20
140
 11
247.9
 21
144
  0
LINE
  8
0
 10
247.9
 20
144
 11
240
 21
144
  0
LINE
  8
0
 10
240
 20
144
 11
240
 21
147.9
  0
LINE
  8
0
 10
240
 20
147.9
 11
236
 21
147.9
  0
LINE
  8
0
 10
236
 20
147.9
 11
236
 21
144
  0
LINE
  8
0
 10
236
 20
144
 11
232
 21
144
  0
LINE
  8
0
 10
232
 20
144
 11
232
 21
147.9
  0
LINE
  8
0
 10
232
 20
147.9
 11
228
 21
147.9
  0
LINE
  8
0
 10
228
 20
147.9
 11
228
 21
144
  0
LINE
  8
0
 10
228
 20
144
 11
224
 21
144
  0
LINE
  8
0
 10
224
 20
144
 11
224
 21
147.9
  0
LINE
  8
0
 10
224
 20
147.9
 11
220
 21
147.9
  0
LINE
  8
0
 10
220
 20
147.9
 11
220
 21
144
  0
LINE
  8
0
 10
220
 20
144
 11
216
 21
144
  0
LINE
  8
0
 10
216
 20
144
 11
216
 21
147.9
  0
LINE
  8
0
 10
216
 20
147.9
 11
212
 21
147.9
  0
LINE
  8
0
 10
212
 20
147.9
 11
212
 21
144
  0
LINE
  8
0
 10
212
 20
144
 11
208
 21
144
  0
LINE
  8
0
 10
208
 20
144
 11
208
 21
147.9
  0
LINE
  8
0
 10
208
 20
147.9
 11
204
 21
147.9
  0
LINE
  8
0
 10
204
 20
147.9
 11
204
 21
144
  0
LINE
  8
0
 10
204
 20
144
 11
200
 21
144
  0
LINE
  8
0
 10
200
 20
144
 11
200
 21
147.9
  0
LINE
  8
0
 10
200
 20
147.9
 11
196
 21
147.9
  0
LINE
  8
0
 10
196
 20
147.9
 11
196
 21
144
  0
LINE
  8
0
 10
196
 20
144
 11
192
 21
144
  0
LINE
  8
0
 10
192
 20
144
 11
192
 21
147.9
  0
LINE
  8
0
 10
192
 20
147.9
 11
188
 21
147.9
  0
LINE
  8
0
 10
188
 20
147.9
 11
188
 21
144
  0
LINE
  8
0
 10
188
 20
144
 11
184
 21
144
  0
LINE
  8
0
 10
184
 20
144
 11
184
 21
147.9
  0
LINE
  8
0
 10
184
 20
147.9
 11
180
 21
147.9
  0
LINE
  8
0
 10
180
 20
147.9
 11
180
 21
144
  0
LINE
  8
0
 10
180
 20
144
 11
176
 21
144
  0
LINE
  8
0
 10
176
 20
144
 11
176
 21
147.9
  0
LINE
  8
0
 10
176
 20
147.9
 11
172
 21
147.9
  0
LINE
  8
0
 10
172
 20
147.9
 11
172
 21
144
  0
LINE
  8
0
 10
172
 20
144
 11
168
 21
144
  0
LINE
  8
0
 10
168
 20
144
 11
168
 21
147.9
  0
LINE
  8
0
 10
168
 20
147.9
 11
164
 21
147.9
  0
LINE
  8
0
 10
164
 20
147.9
 11
164
 21
144
  0
LINE
  8
0
 10
164
 20
144
 11
160
 21
144
  0
LINE
  8
0
 10
160
 20
144
 11
160
 21
147.9
  0
LINE
  8
0
 10
160
 20
147.9
 11
156
 21
147.9
  0
LINE
  8
0
 10
156
 20
147.9
 11
156
 21
140
  0
LINE
  8
0
 10
156
 20
140
 11
152.1
 21
140
  0
LINE
  8
0
 10
152.1
 20
140
 11
152.1
 21
136
  0
LINE
  8
0
 10
152.1
 20
136
 11
156
 21
136
  0
LINE
  8
0
 10
156
 20
136
 11
156
 21
132
  0
LINE
  8
0
 10
156
 20
132
 11
152.1
 21
132
  0
LINE
  8
0
 10
152.1
 20
132
 11
152.1
 21
128
  0
LINE
  8
0
 10
152.1
 20
128
 11
156
 21
128
  0
LINE
  8
0
 10
156
 20
128
 11
156
 21
124
  0
LINE
  8
0
 10
156
 20
124
 11
152.1
 21
124
  0
LINE
  8
0
 10
152.1
 20
124
 11
152.1
 21
120
  0
LINE
  8
0
 10
152.1
 20
120
 11
156
 21
120
  0
LINE
  8
0
 10
156
 20
120
 11
156
 21
116
  0
LINE
  8
0
 10
156
 20
116
 11
152.1
 21
116
  0
LINE
  8
0
 10
152.1
 20
116
 11
152.1
 21
112
  0
LINE
  8
0
 10
152.1
 20
112
 11
156
 21
112
  0
LINE
  8
0
 10
156
 20
112
 11
156
 21
108
  0
LINE
  8
0
 10
156
 20
108
 11
152.1
 21
108
  0
LINE
  8
0
 10
152.1
 20
108
 11
152.1
 21
104
  0
LINE
  8
0
 10
152.1
 20
104
 11
156
 21
104
  0
LINE
  8
0
 10
156
 20
104
 11
156
 21
100
  0
LINE
  8
0
 10
156
 20
100
 11
152.1
 21
100
  0
LINE
  8
0
 10
152.1
 20
100
 11
152.1
 21
96
  0
LINE
  8
0
 10
152.1
 20
96
 11
156
 21
96
  0
LINE
  8
0
 10
156
 20
96
 11
156
 21
92
  0
LINE
  8
0
 10
156
 20
92
 11
152.1
 21
92
  0
LINE
  8
0
 10
152.1
 20
92
 11
152.1
 21
88
  0
LINE
  8
0
 10
152.1
 20
88
 11
156
 21
88
  0
LINE
  8
0
 10
156
 20
88
 11
156
 21
84
  0
LINE
  8
0
 10
156
 20
84
 11
152.1
 21
84
  0
LINE
  8
0
 10
152.1
 20
84
 11
152.1
 21
80
  0
LINE
  8
0
 10
152.1
 20
80
 11
156
 21
80
  0
LINE
  8
0
 10
156
 20
80
 11
156
 21
76
  0
LINE
  8
0
 10
156
 20
76
 11
152.1
 21
76
  0
LINE
  8
0
 10
152.1
 20
76
 11
152.1
 21
72
  0
LINE
  8
0
 10
152.1
 20
72
 11
156
 21
72
  0
LINE
  8
0
 10
156
 20
72
 11
156
 21
68
  0
LINE
  8
0
 10
156
 20
68
 11
152.1
 21
68
  0
LINE
  8
0
 10
152.1
 20
68
 11
152.1
 21
64
  0
LINE
  8
0
 10
152.1
 20
64
 11
156
 21
64
  0
LINE
  8
0
 10
156
 20
64
 11
156
 21
60
  0
LINE
  8
0
 10
156
 20
60
 11
152.1
 21
60
  0
LINE
  8
0
 10
152.1
 20
60
 11
152.1
 21
56
  0
LINE
  8
0
 10
152.1
 20
56
 11
160
 21
56
  0
LINE
  8
0
 10
160
 20
56
 11
160
 21
52.1
  0
LINE
  8
0
 10
160
 20
52.1
 11
164
 21
52.1
  0
LINE
  8
0
 10
164
 20
52.1
 11
164
 21
56
  0
LINE
  8
0
 10
64
 20
56
 11
68
 21
56
  0
LINE
  8
0
 10
68
 20
56
 11
68
 21
52.1
  0
LINE
  8
0
 10
68
 20
52.1
 11
72
 21
52.1
  0
LINE
  8
0
 10
72
 20
52.1
 11
72
 21
56
  0
LINE
  8
0
 10
72
 20
56
 11
76
 21
56
  0
LINE
  8
0
 10
76
 20
56
 11
76
 21
52.1
  0
LINE
  8
0
 10
76
 20
52.1
 11
80
 21
52.1
  0
LINE
  8
0
 10
80
 20
52.1
 11
80
 21
56
  0
LINE
  8
0
 10
80
 20
56
 11
84
 21
56
  0
LINE
  8
0
 10
84
 20
56
 11
84
 21
52.1
  0
LINE
  8
0
 10
84
 20
52.1
 11
88
 21
52.1
  0
LINE
  8
0
 10
88
 20
52.1
 11
88
 21
56
  0
LINE
  8
0
 10
88
 20
56
 11
92
 21
56
  0
LINE
  8
0
 10
92
 20
56
 11
92
 21
52.1
  0
LINE
  8
0
 10
92
 20
52.1
 11
96
 21
52.1
  0
LINE
  8
0
 10
96
 20
52.1
 11
96
 21
56
  0
LINE
  8
0
 10
96
 20
56
 11
100
 21
56
  0
LINE
  8
0
 10
100
 20
56
 11
100
 21
52.1
  0
LINE
  8
0
 10
100
 20
52.1
 11
104
 21
52.1
  0
LINE
  8
0
 10
104
 20
52.1
 11
104
 21
56
  0
LINE
  8
0
 10
104
 20
56
 11
108
 21
56
  0
LINE
  8
0
 10
108
 20
56
 11
108
 21
52.1
  0
LINE
  8
0
 10
108
 20
52.1
 11
112
 21
52.1
  0
LINE
  8
0
 10
112
 20
52.1
 11
112
 21
56
  0
LINE
  8
0
 10
112
 20
56
 11
116
 21
56
  0
LINE
  8
0
 10
116
 20
56
 11
116
 21
52.1
  0
LINE
  8
0
 10
116
 20
52.1
 11
120
 21
52.1
  0
LINE
  8
0
 10
120
 20
52.1
 11
120
 21
56
  0
LINE
  8
0
 10
120
 20
56
 11
124
 21
56
  0
LINE
  8
0
 10
124
 20
56
 11
124
 21
52.1
  0
LINE
  8
0
 10
124
 20
52.1
 11
128
 21
52.1
  0
LINE
  8
0
 10
128
 20
52.1
 11
128
 21
56
  0
LINE
  8
0
 10
128
 20
56
 11
132
 21
56
  0
LINE
  8
0
 10
132
 20
56
 11
132
 21
52.1
  0
LINE
  8
0
 10
132
 20
52.1
 11
136
 21
52.1
  0
LINE
  8
0
 10
136
 20
52.1
 11
136
 21
56
  0
LINE
  8
0
 10
136
 20
56
 11
140
 21
56
  0
LINE
  8
0
 10
140
 20
56
 11
140
 21
52.1
  0
LINE
  8
0
 10
140
 20
52.1
 11
144
 21
52.1
  0
LINE
  8
0
 10
144
 20
52.1
 11
144
 21
60
  0
LINE
  8
0
 10
144
 20
60
 11
147.9
 21
60
  0
LINE
  8
0
 10
147.9
 20
60
 11
147.9
 21
64
  0
LINE
  8
0
 10
147.9
 20
64
 11
144
 21
64
  0
LINE
  8
0
 10
144
 20
64
 11
144
 21
68
  0
LINE
  8
0
 10
144
 20
68
 11
147.9
 21
68
  0
LINE
  8
0
 10
147.9
 20
68
 11
147.9
 21
72
  0
LINE
  8
0
 10
147.9
 20
72
 11
144
 21
72
  0
LINE
  8
0
 10
144
 20
72
 11
144
 21
76
  0
LINE
  8
0
 10
144
 20
76
 11
147.9
 21
76
  0
LINE
  8
0
 10
147.9
 20
76
 11
147.9
 21
80
  0
LINE
  8
0
 10
147.9
 20
80
 11
144
 21
80
  0
LINE
  8
0
 10
144
 20
80
 11
144
 21
84
  0
LINE
  8
0
 10
144
 20
84
 11
147.9
 21
84
  0
LINE
  8
0
 10
147.9
 20
84
 11
147.9
 21
88
  0
LINE
  8
0
 10
147.9
 20
88
 11
144
 21
88
  0
LINE
  8
0
 10
144
 20
88
 11
144
 21
92
  0
LINE
  8
0
 10
144
 20
92
 11
147.9
 21
92
  0
LINE
  8
0
 10
147.9
 20
92
 11
147.9
 21
96
  0
LINE
  8
0
 10
147.9
 20
96
 11
144
 21
96
  0
LINE
  8
0
 10
144
 20
96
 11
144
 21
100
  0
LINE
  8
0
 10
144
 20
100
 11
147.9
 21
100
  0
LINE
  8
0
 10
147.9
 20
100
 11
147.9
 21
104
  0
LINE
  8
0
 10
147.9
 20
104
 11
144
 21
104
  0
LINE
  8
0
 10
144
 20
104
 11
144
 21
108
  0
LINE
  8
0
 10
144
 20
108
 11
147.9
 21
108
  0
LINE
  8
0
 10
147.9
 20
108
 11
147.9
 21
112
  0
LINE
  8
0
 10
147.9
 20
112
 11
144
 21
112
  0
LINE
  8
0
 10
144
 20
112
 11
144
 21
116
  0
LINE
  8
0
 10
144
 20
116
 11
147.9
 21
116
  0
LINE
  8
0
 10
147.9
 20
116
 11
147.9
 21
120
  0
LINE
  8
0
 10
147.9
 20
120
 11
144
 21
120
  0
LINE
  8
0
 10
144
 20
120
 11
144
 21
124
  0
LINE
  8
0
 10
144
 20
124
 11
147.9
 21
124
  0
LINE
  8
0
 10
147.9
 20
124
 11
147.9
 21
128
  0
LINE
  8
0
 10
147.9
 20
128
 11
144
 21
128
  0
LINE
  8
0
 10
144
 20
128
 11
144
 21
132
  0
LINE
  8
0
 10
144
 20
132
 11
147.9
 21
132
  0
LINE
  8
0
 10
147.9
 20
132
 11
147.9
 21
136
  0
LINE
  8
0
 10
147.9
 20
136
 11
144
 21
136
  0
LINE
  8
0
 10
144
 20
136
 11
144
 21
140
  0
LINE
  8
0
 10
144
 20
140
 11
147.9
 21
140
  0
LINE
  8
0
 10
147.9
 20
140
 11
147.9
 21
144
  0
LINE
  8
0
 10
147.9
 20
144
 11
140
 21
144
  0
LINE
  8
0
 10
140
 20
144
 11
140
 21
147.9
  0
LINE
  8
0
 10
140
 20
147.9
 11
136
 21
147.9
  0
LINE
  8
0
 10
136
 20
147.9
 11
136
 21
144
  0
LINE
  8
0
 10
136
 20
144
 11
132
 21
144
  0
LINE
  8
0
 10
132
 20
144
 11
132
 21
147.9
  0
LINE
  8
0
 10
132
 20
147.9
 11
128
 21
147.9
  0
LINE
  8
0
 10
128
 20
147.9
 11
128
 21
144
  0
LINE
  8
0
 10
128
 20
144
 11
124
 21
144
  0
LINE
  8
0
 10
124
 20
144
 11
124
 21
147.9
  0
LINE
  8
0
 10
124
 20
147.9
 11
120
 21
147.9
  0
LINE
  8
0
 10
120
 20
147.9
 11
120
 21
144
  0
LINE
  8
0
 10
120
 20
144
 11
116
 21
144
  0
LINE
  8
0
 10
116
 20
144
 11
116
 21
147.9
  0
LINE
  8
0
 10
116
 20
147.9
 11
112
 21
147.9
  0
LINE
  8
0
 10
112
 20
147.9
 11
112
 21
144
  0
LINE
  8
0
 10
112
 20
144
 11
108
 21
144
  0
LINE
  8
0
 10
108
 20
144
 11
108
 21
147.9
  0
LINE
  8
0
 10
108
 20
147.9
 11
104
 21
147.9
  0
LINE
  8
0
 10
104
 20
147.9
 11
104
 21
144
  0
LINE
  8
0
 10
104
 20
144
 11
100
 21
144
  0
LINE
  8
0
 10
100
 20
144
 11
100
 21
147.9
  0
LINE
  8
0
 10
100
 20
147.9
 11
96
 21
147.9
  0
LINE
  8
0
 10
96
 20
147.9
 11
96
 21
144
  0
LINE
  8
0
 10
96
 20
144
 11
92
 21
144
  0
LINE
  8
0
 10
92
 20
144
 11
92
 21
147.9
  0
LINE
  8
0
 10
92
 20
147.9
 11
88
 21
147.9
  0
LINE
  8
0
 10
88
 20
147.9
 11
88
 21
144
  0
LINE
  8
0
 10
88
 20
144
 11
84
 21
144
  0
LINE
  8
0
 10
84
 20
144
 11
84
 21
147.9
  0
LINE
  8
0
 10
84
 20
147.9
 11
80
 21
147.9
  0
LINE
  8
0
 10
80
 20
147.9
 11
80
 21
144
  0
LINE
  8
0
 10
80
 20
144
 11
76
 21
144
  0
LINE
  8
0
 10
76
 20
144
 11
76
 21
147.9
  0
LINE
  8
0
 10
76
 20
147.9
 11
72
 21
147.9
  0
LINE
  8
0
 10
72
 20
147.9
 11
72
 21
144
  0
LINE
  8
0
 10
72
 20
144
 11
68
 21
144
  0
LINE
  8
0
 10
68
 20
144
 11
68
 21
147.9
  0
LINE
  8
0
 10
68
 20
147.9
 11
64
 21
147.9
  0
LINE
  8
0
 10
64
 20
147.9
 11
64
 21
144
  0
LINE
  8
0
 10
64
 20
144
 11
60
 21
144
  0
LINE
  8
0
 10
60
 20
144
 11
60
 21
147.9
  0
LINE
  8
0
 10
60
 20
147.9
 11
56
 21
147.9
  0
LINE
  8
0
 10
56
 20
147.9
 11
56
 21
140
  0
LINE
  8
0
 10
56
 20
140
 11
52.1
 21
140
  0
LINE
  8
0
 10
52.1
 20
140
 11
52.1
 21
136
  0
LINE
  8
0
 10
52.1
 20
136
 11
56
 21
136
  0
LINE
  8
0
 10
56
 20
136
 11
56
 21
132
  0
LINE
  8
0
 10
56
 20
132
 11
52.1
 21
132
  0
LINE
  8
0
 10
52.1
 20
132
 11
52.1
 21
128
  0
LINE
  8
0
 10
52.1
 20
128
 11
56
 21
128
  0
LINE
  8
0
 10
56
 20
128
 11
56
 21
124
  0
LINE
  8
0
 10
56
 20
124
 11
52.1
 21
124
  0
LINE
  8
0
 10
52.1
 20
124
 11
52.1
 21
120
  0
LINE
  8
0
 10
52.1
 20
120
 11
56
 21
120
  0
LINE
  8
0
 10
56
 20
120
 11
56
 21
116
  0
LINE
  8
0
 10
56
 20
116
 11
52.1
 21
116
  0
LINE
  8
0
 10
52.1
 20
116
 11
52.1
 21
112
  0
LINE
  8
0
 10
52.1
 20
112
 11
56
 21
112
  0
LINE
  8
0
 10
56
 20
112
 11
56
 21
108
  0
LINE
  8
0
 10
56
 20
108
 11
52.1
 21
108
  0
LINE
  8
0
 10
52.1
 20
108
 11
52.1
 21
104
  0
LINE
  8
0
 10
52.1
 20
104
 11
56
 21
104
  0
LINE
  8
0
 10
56
 20
104
 11
56
 21
100
  0
LINE
  8
0
 10
56
 20
100
 11
52.1
 21
100
  0
LINE
  8
0
 10
52.1
 20
100
 11
52.1
 21
96
  0
LINE
  8
0
 10
52.1
 20
96
 11
56
 21
96
  0
LINE
  8
0
 10
56
 20
96
 11
56
 21
92
  0
LINE
  8
0
 10
56
 20
92
 11
52.1
 21
92
  0
LINE
  8
0
 10
52.1
 20
92
 11
52.1
 21
88
  0
LINE
  8
0
 10
52.1
 20
88
 11
56
 21
88
  0
LINE
  8
0
 10
56
 20
88
 11
56
 21
84
  0
LINE
  8
0
 10
56
 20
84
 11
52.1
 21
84
  0
LINE
  8
0
 10
52.1
 20
84
 11
52.1
 21
80
  0
LINE
  8
0
 10
52.1
 20
80
 11
56
 21
80
  0
LINE
  8
0
 10
56
 20
80
 11
56
 21
76
  0
LINE
  8
0
 10
56
 20
76
 11
52.1
 21
76
  0
LINE
  8
0
 10
52.1
 20
76
 11
52.1
 21
72
  0
LINE
  8
0
 10
52.1
 20
72
 11
56
 21
72
  0
LINE
  8
0
 10
56
 20
72
 11
56
 21
68
  0
LINE
  8
0
 10
56
 20
68
 11
52.1
 21
68
  0
LINE
  8
0
 10
52.1
 20
68
 11
52.1
 21
64
  0
LINE
  8
0
 10
52.1
 20
64
 11
56
 21
64
  0
LINE
  8
0
 10
56
 20
64
 11
56
 21
60
  0
LINE
  8
0
 10
56
 20
60
 11
52.1
 21
60
  0
LINE
  8
0
 10
52.1
 20
60
 11
52.1
 21
56
  0
LINE
  8
0
 10
52.1
 20
56
 11
60
 21
56
  0
LINE
  8
0
 10
60
 20
56
 11
60
 21
52.1
  0
LINE
  8
0
 10
60
 20
52.1
 11
64
 21
52.1
  0
LINE
  8
0
 10
64
 20
52.1
 11
64
 21
56
  0
LINE
  8
0
 10
47.9
 20
-44
 11
44
 21
-44
  0
LINE
  8
0
 10
44
 20
-44
 11
44
 21
-40
  0
LINE
  8
0
 10
44
 20
-40
 11
47.9
 21
-40
  0
LINE
  8
0
 10
47.9
 20
-40
 11
47.9
 21
-36
  0
LINE
  8
0
 10
47.9
 20
-36
 11
44
 21
-36
  0
LINE
  8
0
 10
44
 20
-36
 11
44
 21
-32
  0
LINE
  8
0
 10
44
 20
-32
 11
47.9
 21
-32
  0
LINE
  8
0
 10
47.9
 20
-32
 11
47.9
 21
-28
  0
LINE
  8
0
 10
47.9
 20
-28
 11
44
 21
-28
  0
LINE
  8
0
 10
44
 20
-28
 11
44
 21
-24
  0
LINE
  8
0
 10
44
 20
-24
 11
47.9
 21
-24
  0
LINE
  8
0
 10
47.9
 20
-24
 11
47.9
 21
-20
  0
LINE
  8
0
 10
47.9
 20
-20
 11
44
 21
-20
  0
LINE
  8
0
 10
44
 20
-20
 11
44
 21
-16
  0
LINE
  8
0
 10
44
 20
-16
 11
47.9
 21
-16
  0
LINE
  8
0
 10
47.9
 20
-16
 11
47.9
 21
-12
  0
LINE
  8
0
 10
47.9
 20
-12
 11
44
 21
-12
  0
LINE
  8
0
 10
44
 20
-12
 11
44
 21
-8
  0
LINE
  8
0
 10
44
 20
-8
 11
47.9
 21
-8
  0
LINE
  8
0
 10
47.9
 20
-8
 11
47.9
 21
-4
  0
LINE
  8
0
 10
47.9
 20
-4
 11
44
 21
-4
  0
LINE
  8
0
 10
44
 20
-4
 11
44
 21
0
  0
LINE
  8
0
 10
44
 20
0
 11
47.9
 21
0
  0
LINE
  8
0
 10
47.9
 20
0
 11
47.9
 21
3.99998
  0
LINE
  8
0
 10
47.9
 20
3.99998
 11
44
 21
3.99998
  0
LINE
  8
0
 10
44
 20
3.99998
 11
44
 21
7.99998
  0
LINE
  8
0
 10
44
 20
7.99998
 11
47.9
 21
7.99998
  0
LINE
  8
0
 10
47.9
 20
7.99998
 11
47.9
 21
12
  0
LINE
  8
0
 10
47.9
 20
12
 11
44
 21
12
  0
LINE
  8
0
 10
44
 20
12
 11
44
 21
16
  0
LINE
  8
0
 10
44
 20
16
 11
47.9
 21
16
  0
LINE
  8
0
 10
47.9
 20
16
 11
47.9
 21
20
  0
LINE
  8
0
 10
47.9
 20
20
 11
44
 21
20
  0
LINE
  8
0
 10
44
 20
20
 11
44
 21
24
  0
LINE
  8
0
 10
44
 20
24
 11
47.9
 21
24
  0
LINE
  8
0
 10
47.9
 20
24
 11
47.9
 21
28
  0
LINE
  8
0
 10
47.9
 20
28
 11
44
 21
28
  0
LINE
  8
0
 10
44
 20
28
 11
44
 21
32
  0
LINE
  8
0
 10
44
 20
32
 11
47.9
 21
32
  0
LINE
  8
0
 10
47.9
 20
32
 11
47.9
 21
36
  0
LINE
  8
0
 10
47.9
 20
36
 11
44
 21
36
  0
LINE
  8
0
 10
44
 20
36
 11
44
 21
40
  0
LINE
  8
0
 10
44
 20
40
 11
47.9
 21
40
  0
LINE
  8
0
 10
47.9
 20
40
 11
47.9
 21
43.9
  0
LINE
  8
0
 10
47.9
 20
43.9
 11
48
 21
43.9
  0
LINE
  8
0
 10
48
 20
43.9
 11
48
 21
47.9
  0
LINE
  8
0
 10
48
 20
47.9
 11
44
 21
47.9
  0
LINE
  8
0
 10
44
 20
47.9
 11
44
 21
44
  0
LINE
  8
0
 10
44
 20
44
 11
40
 21
44
  0
LINE
  8
0
 10
40
 20
44
 11
40
 21
47.9
  0
LINE
  8
0
 10
40
 20
47.9
 11
36
 21
47.9
  0
LINE
  8
0
 10
36
 20
47.9
 11
36
 21
44
  0
LINE
  8
0
 10
36
 20
44
 11
32
 21
44
  0
LINE
  8
0
 10
32
 20
44
 11
32
 21
47.9
  0
LINE
  8
0
 10
32
 20
47.9
 11
28
 21
47.9
  0
LINE
  8
0
 10
28
 20
47.9
 11
28
 21
44
  0
LINE
  8
0
 10
28
 20
44
 11
24
 21
44
  0
LINE
  8
0
 10
24
 20
44
 11
24
 21
47.9
  0
LINE
  8
0
 10
24
 20
47.9
 11
20
 21
47.9
  0
LINE
  8
0
 10
20
 20
47.9
 11
20
 21
44
  0
LINE
  8
0
 10
20
 20
44
 11
16
 21
44
  0
LINE
  8
0
 10
16
 20
44
 11
16
 21
47.9
  0
LINE
  8
0
 10
16
 20
47.9
 11
12
 21
47.9
  0
LINE
  8
0
 10
12
 20
47.9
 11
12
 21
44
  0
LINE
  8
0
 10
12
 20
44
 11
8
 21
44
  0
LINE
  8
0
 10
8
 20
44
 11
8
 21
47.9
  0
LINE
  8
0
 10
8
 20
47.9
 11
4
 21
47.9
  0
LINE
  8
0
 10
4
 20
47.9
 11
4
 21
44
  0
LINE
  8
0
 10
4
 20
44
 11
0
 21
44
  0
LINE
  8
0
 10
0
 20
44
 11
0
 21
47.9
  0
LINE
  8
0
 10
0
 20
47.9
 11
-4
 21
47.9
  0
LINE
  8
0
 10
-4
 20
47.9
 11
-4
 21
44
  0
LINE
  8
0
 10
-4
 20
44
 11
-8
 21
44
  0
LINE
  8
0
 10
-8
 20
44
 11
-8
 21
47.9
  0
LINE
  8
0
 10
-8
 20
47.9
 11
-12
 21
47.9
  0
LINE
  8
0
 10
-12
 20
47.9
 11
-12
 21
44
  0
LINE
  8
0
 10
-12
 20
44
 11
-16
 21
44
  0
LINE
  8
0
 10
-16
 20
44
 11
-16
 21
47.9
  0
LINE
  8
0
 10
-16
 20
47.9
 11
-20
 21
47.9
  0
LINE
  8
0
 10
-20
 20
47.9
 11
-20
 21
44
  0
LINE
  8
0
 10
-20
 20
44
 11
-24
 21
44
  0
LINE
  8
0
 10
-24
 20
44
 11
-24
 21
47.9
  0
LINE
  8
0
 10
-24
 20
47.9
 11
-28
 21
47.9
  0
LINE
  8
0
 10
-28
 20
47.9
 11
-28
 21
44
  0
LINE
  8
0
 10
-28
 20
44
 11
-32
 21
44
  0
LINE
  8
0
 10
-32
 20
44
 11
-32
 21
47.9
  0
LINE
  8
0
 10
-32
 20
47.9
 11
-36
 21
47.9
  0
LINE
  8
0
 10
-36
 20
47.9
 11
-36
 21
44
  0
LINE
  8
0
 10
-36
 20
44
 11
-40
 21
44
  0
LINE
  8
0
 10
-40
 20
44
 11
-40
 21
47.9
  0
LINE
  8
0
 10
-40
 20
47.9
 11
-43.9
 21
47.9
  0
LINE
  8
0
 10
-43.9
 20
47.9
 11
-43.9
 21
48
  0
LINE
  8
0
 10
-43.9
 20
48
 11
-47.9
 21
48
  0
LINE
  8
0
 10
-47.9
 20
48
 11
-47.9
 21
44
  0
LINE
  8
0
 10
-47.9
 20
44
 11
-44
 21
44
  0
LINE
  8
0
 10
-44
 20
44
 11
-44
 21
40
  0
LINE
  8
0
 10
-44
 20
40
 11
-47.9
 21
40
  0
LINE
  8
0
 10
-47.9
 20
40
 11
-47.9
 21
36
  0
LINE
  8
0
 10
-47.9
 20
36
 11
-44
 21
36
  0
LINE
  8
0
 10
-44
 20
36
 11
-44
 21
32
  0
LINE
  8
0
 10
-44
 20
32
 11
-47.9
 21
32
  0
LINE
  8
0
 10
-47.9
 20
32
 11
-47.9
 21
28
  0
LINE
  8
0
 10
-47.9
 20
28
 11
-44
 21
28
  0
LINE
  8
0
 10
-44
 20
28
 11
-44
 21
24
  0
LINE
  8
0
 10
-44
 20
24
 11
-47.9
 21
24
  0
LINE
  8
0
 10
-47.9
 20
24
 11
-47.9
 21
20
  0
LINE
  8
0
 10
-47.9
 20
20
 11
-44
 21
20
  0
LINE
  8
0
 10
-44
 20
20
 11
-44
 21
16
  0
LINE
  8
0
 10
-44
 20
16
 11
-47.9
 21
16
  0
LINE
  8
0
 10
-47.9
 20
16
 11
-47.9
 21
12
  0
LINE
  8
0
 10
-47.9
 20
12
 11
-44
 21
12
  0
LINE
  8
0
 10
-44
 20
12
 11
-44
 21
8
  0
LINE
  8
0
 10
-44
 20
8
 11
-47.9
 21
8
  0
LINE
  8
0
 10
-47.9
 20
8
 11
-47.9
 21
4
  0
LINE
  8
0
 10
-47.9
 20
4
 11
-44
 21
4
  0
LINE
  8
0
 10
-44
 20
4
 11
-44
 21
0
  0
LINE
  8
0
 10
-44
 20
0
 11
-47.9
 21
0
  0
LINE
  8
0
 10
-47.9
 20
0
 11
-47.9
 21
-3.99998
  0
LINE
  8
0
 10
-47.9
 20
-3.99998
 11
-44
 21
-3.99998
  0
LINE
  8
0
 10
-44
 20
-3.99998
 11
-44
 21
-7.99998
  0
LINE
  8
0
 10
-44
 20
-7.99998
 11
-47.9
 21
-7.99998
  0
LINE
  8
0
 10
-47.9
 20
-7.99998
 11
-47.9
 21
-12
  0
LINE
  8
0
 10
-47.9
 20
-12
 11
-44
 21
-12
  0
LINE
  8
0
 10
-44
 20
-12
 11
-44
 21
-16
  0
LINE
  8
0
 10
-44
 20
-16
 11
-47.9
 21
-16
  0
LINE
  8
0
 10
-47.9
 20
-16
 11
-47.9
 21
-20
  0
LINE
  8
0
 10
-47.9
 20
-20
 11
-44
 21
-20
  0
LINE
  8
0
 10
-44
 20
-20
 11
-44
 21
-24
  0
LINE
  8
0
 10
-44
 20
-24
 11
-47.9
 21
-24
  0
LINE
  8
0
 10
-47.9
 20
-24
 11
-47.9
 21
-28
  0
LINE
  8
0
 10
-47.9
 20
-28
 11
-44
 21
-28
  0
LINE
  8
0
 10
-44
 20
-28
 11
-44
 21
-32
  0
LINE
  8
0
 10
-44
 20
-32
 11
-47.9
 21
-32
  0
LINE
  8
0
 10
-47.9
 20
-32
 11
-47.9
 21
-36
  0
LINE
  8
0
 10
-47.9
 20
-36
 11
-44
 21
-36
  0
LINE
  8
0
 10
-44
 20
-36
 11
-44
 21
-40
  0
LINE
  8
0
 10
-44
 20
-40
 11
-47.9
 21
-40
  0
LINE
  8
0
 10
-47.9
 20
-40
 11
-47.9
 21
-43.9
  0
LINE
  8
0
 10
-47.9
 20
-43.9
 11
-48
 21
-43.9
  0
LINE
  8
0
 10
-48
 20
-43.9
 11
-48
 21
-47.9
  0
LINE
  8
0
 10
-48
 20
-47.9
 11
-44
 21
-47.9
  0
LINE
  8
0
 10
-44
 20
-47.9
 11
-44
 21
-44
  0
LINE
  8
0
 10
-44
 20
-44
 11
-40
 21
-44
  0
LINE
  8
0
 10
-40
 20
-44
 11
-40
 21
-47.9
  0
LINE
  8
0
 10
-40
 20
-47.9
 11
-36
 21
-47.9
  0
LINE
  8
0
 10
-36
 20
-47.9
 11
-36
 21
-44
  0
LINE
  8
0
 10
-36
 20
-44
 11
-32
 21
-44
  0
LINE
  8
0
 10
-32
 20
-44
 11
-32
 21
-47.9
  0
LINE
  8
0
 10
-32
 20
-47.9
 11
-28
 21
-47.9
  0
LINE
  8
0
 10
-28
 20
-47.9
 11
-28
 21
-44
  0
LINE
  8
0
 10
-28
 20
-44
 11
-24
 21
-44
  0
LINE
  8
0
 10
-24
 20
-44
 11
-24
 21
-47.9
  0
LINE
  8
0
 10
-24
 20
-47.9
 11
-20
 21
-47.9
  0
LINE
  8
0
 10
-20
 20
-47.9
 11
-20
 21
-44
  0
LINE
  8
0
 10
-20
 20
-44
 11
-16
 21
-44
  0
LINE
  8
0
 10
-16
 20
-44
 11
-16
 21
-47.9
  0
LINE
  8
0
 10
-16
 20
-47.9
 11
-12
 21
-47.9
  0
LINE
  8
0
 10
-12
 20
-47.9
 11
-12
 21
-44
  0
LINE
  8
0
 10
-12
 20
-44
 11
-8
 21
-44
  0
LINE
  8
0
 10
-8
 20
-44
 11
-8
 21
-47.9
  0
LINE
  8
0
 10
-8
 20
-47.9
 11
-4
 21
-47.9
  0
LINE
  8
0
 10
-4
 20
-47.9
 11
-4
 21
-44
  0
LINE
  8
0
 10
-4
 20
-44
 11
0
 21
-44
  0
LINE
  8
0
 10
0
 20
-44
 11
0
 21
-47.9
  0
LINE
  8
0
 10
0
 20
-47.9
 11
3.99998
 21
-47.9
  0
LINE
  8
0
 10
3.99998
 20
-47.9
 11
3.99998
 21
-44
  0
LINE
  8
0
 10
3.99998
 20
-44
 11
7.99998
 21
-44
  0
LINE
  8
0
 10
7.99998
 20
-44
 11
7.99998
 21
-47.9
  0
LINE
  8
0
 10
7.99998
 20
-47.9
 11
12
 21
-47.9
  0
LINE
  8
0
 10
12
 20
-47.9
 11
12
 21
-44
  0
LINE
  8
0
 10
12
 20
-44
 11
16
 21
-44
  0
LINE
  8
0
 10
16
 20
-44
 11
16
 21
-47.9
  0
LINE
  8
0
 10
16
 20
-47.9
 11
20
 21
-47.9
  0
LINE
  8
0
 10
20
 20
-47.9
 11
20
 21
-44
  0
LINE
  8
0
 10
20
 20
-44
 11
24
 21
-44
  0
LINE
  8
0
 10
24
 20
-44
 11
24
 21
-47.9
  0
LINE
  8
0
 10
24
 20
-47.9
 11
28
 21
-47.9
  0
LINE
  8
0
 10
28
 20
-47.9
 11
28
 21
-44
  0
LINE
  8
0
 10
28
 20
-44
 11
32
 21
-44
  0
LINE
  8
0
 10
32
 20
-44
 11
32
 21
-47.9
  0
LINE
  8
0
 10
32
 20
-47.9
 11
36
 21
-47.9
  0
LINE
  8
0
 10
36
 20
-47.9
 11
36
 21
-44
  0
LINE
  8
0
 10
36
 20
-44
 11
40
 21
-44
  0
LINE
  8
0
 10
40
 20
-44
 11
40
 21
-47.9
  0
LINE
  8
0
 10
40
 20
-47.9
 11
43.9
 21
-47.9
  0
LINE
  8
0
 10
43.9
 20
-47.9
 11
43.9
 21
-48
  0
LINE
  8
0
 10
43.9
 20
-48
 11
47.9
 21
-48
  0
LINE
  8
0
 10
47.9
 20
-48
 11
47.9
 21
-44
  0
LINE
  8
0
 10
-1.46339
 20
-13.9233
 11
-4.32623
 21
-13.3148
  0
LINE
  8
0
 10
-4.32623
 20
-13.3148
 11
-7
 21
-12.1243
  0
LINE
  8
0
 10
-7
 20
-12.1243
 11
-9.36783
 21
-10.404
  0
LINE
  8
0
 10
-9.36783
 20
-10.404
 11
-11.3262
 21
-8.22899
  0
LINE
  8
0
 10
-11.3262
 20
-8.22899
 11
-12.7896
 21
-5.69431
  0
LINE
  8
0
 10
-12.7896
 20
-5.69431
 11
-13.6941
 21
-2.91075
  0
LINE
  8
0
 10
-13.6941
 20
-2.91075
 11
-14
 21
0
  0
LINE
  8
0
 10
-14
 20
0
 11
-13.6941
 21
2.91075
  0
LINE
  8
0
 10
-13.6941
 20
2.91075
 11
-12.7896
 21
5.69431
  0
LINE
  8
0
 10
-12.7896
 20
5.69431
 11
-11.3262
 21
8.22899
  0
LINE
  8
0
 10
-11.3262
 20
8.22899
 11
-9.36783
 21
10.404
  0
LINE
  8
0
 10
-9.36783
 20
10.404
 11
-6.99998
 21
12.1243
  0
LINE
  8
0
 10
-6.99998
 20
12.1243
 11
-4.32623
 21
13.3148
  0
LINE
  8
0
 10
-4.32623
 20
13.3148
 11
-1.46339
 21
13.9233
  0
LINE
  8
0
 10
-1.46339
 20
13.9233
 11
1.46339
 21
13.9233
  0
LINE
  8
0
 10
1.46339
 20
13.9233
 11
4.32623
 21
13.3148
  0
LINE
  8
0
 10
4.32623
 20
13.3148
 11
7
 21
12.1243
  0
LINE
  8
0
 10
7
 20
12.1243
 11
9.36783
 21
10.404
  0
LINE
  8
0
 10
9.36783
 20
10.404
 11
11.3262
 21
8.22899
  0
LINE
  8
0
 10
11.3262
 20
8.22899
 11
12.7896
 21
5.69431
  0
LINE
  8
0
 10
12.7896
 20
5.69431
 11
13.6941
 21
2.91075
  0
LINE
  8
0
 10
13.6941
 20
2.91075
 11
14
 21
0
  0
LINE
  8
0
 10
14
 20
0
 11
13.6941
 21
-2.91075
  0
LINE
  8
0
 10
13.6941
 20
-2.91075
 11
12.7896
 21
-5.69431
  0
LINE
  8
0
 10
12.7896
 20
-5.69431
 11
11.3262
 21
-8.22899
  0
LINE
  8
0
 10
11.3262
 20
-8.22899
 11
9.36783
 21
-10.404
  0
LINE
  8
0
 10
9.36783
 20
-10.404
 11
7
 21
-12.1243
  0
LINE
  8
0
 10
7
 20
-12.1243
 11
4.32623
 21
-13.3148
  0
LINE
  8
0
 10
4.32623
 20
-13.3148
 11
1.46339
 21
-13.9233
  0
LINE
  8
0
 10
1.46339
 20
-13.9233
 11
-1.46339
 21
-13.9233
  0
LINE
  8
0
 10
164
 20
-44
 11
168
 21
-44
  0
LINE
  8
0
 10
168
 20
-44
 11
168
 21
-47.9
  0
LINE
  8
0
 10
168
 20
-47.9
 11
172
 21
-47.9
  0
LINE
  8
0
 10
172
 20
-47.9
 11
172
 21
-44
  0
LINE
  8
0
 10
172
 20
-44
 11
176
 21
-44
  0
LINE
  8
0
 10
176
 20
-44
 11
176
 21
-47.9
  0
LINE
  8
0
 10
176
 20
-47.9
 11
180
 21
-47.9
  0
LINE
  8
0
 10
180
 20
-47.9
 11
180
 21
-44
  0
LINE
  8
0
 10
180
 20
-44
 11
184
 21
-44
  0
LINE
  8
0
 10
184
 20
-44
 11
184
 21
-47.9
  0
LINE
  8
0
 10
184
 20
-47.9
 11
188
 21
-47.9
  0
LINE
  8
0
 10
188
 20
-47.9
 11
188
 21
-44
  0
LINE
  8
0
 10
188
 20
-44
 11
192
 21
-44
  0
LINE
  8
0
 10
192
 20
-44
 11
192
 21
-47.9
  0
LINE
  8
0
 10
192
 20
-47.9
 11
196
 21
-47.9
  0
LINE
  8
0
 10
196
 20
-47.9
 11
196
 21
-44
  0
LINE
  8
0
 10
196
 20
-44
 11
200
 21
-44
  0
LINE
  8
0
 10
200
 20
-44
 11
200
 21
-47.9
  0
LINE
  8
0
 10
200
 20
-47.9
 11
204
 21
-47.9
  0
LINE
  8
0
 10
204
 20
-47.9
 11
204
 21
-44
  0
LINE
  8
0
 10
204
 20
-44
 11
208
 21
-44
  0
LINE
  8
0
 10
208
 20
-44
 11
208
 21
-47.9
  0
LINE
  8
0
 10
208
 20
-47.9
 11
212
 21
-47.9
  0
LINE
  8
0
 10
212
 20
-47.9
 11
212
 21
-44
  0
LINE
  8
0
 10
212
 20
-44
 11
216
 21
-44
  0
LINE
  8
0
 10
216
 20
-44
 11
216
 21
-47.9
  0
LINE
  8
0
 10
216
 20
-47.9
 11
220
 21
-47.9
  0
LINE
  8
0
 10
220
 20
-47.9
 11
220
 21
-44
  0
LINE
  8
0
 10
220
 20
-44
 11
224
 21
-44
  0
LINE
  8
0
 10
224
 20
-44
 11
224
 21
-47.9
  0
LINE
  8
0
 10
224
 20
-47.9
 11
228
 21
-47.9
  0
LINE
  8
0
 10
228
 20
-47.9
 11
228
 21
-44
  0
LINE
  8
0
 10
228
 20
-44
 11
232
 21
-44
  0
LINE
  8
0
 10
232
 20
-44
 11
232
 21
-47.9
  0
LINE
  8
0
 10
232
 20
-47.9
 11
236
 21
-47.9
  0
LINE
  8
0
 10
236
 20
-47.9
 11
236
 21
-44
  0
LINE
  8
0
 10
236
 20
-44
 11
240
 21
-44
  0
LINE
  8
0
 10
240
 20
-44
 11
240
 21
-47.9
  0
LINE
  8
0
 10
240
 20
-47.9
 11
244
 21
-47.9
  0
LINE
  8
0
 10
244
 20
-47.9
 11
244
 21
-40
  0
LINE
  8
0
 10
244
 20
-40
 11
247.9
 21
-40
  0
LINE
  8
0
 10
247.9
 20
-40
 11
247.9
 21
-36
  0
LINE
  8
0
 10
247.9
 20
-36
 11
244
 21
-36
  0
LINE
  8
0
 10
244
 20
-36
 11
244
 21
-32
  0
LINE
  8
0
 10
244
 20
-32
 11
247.9
 21
-32
  0
LINE
  8
0
 10
247.9
 20
-32
 11
247.9
 21
-28
  0
LINE
  8
0
 10
247.9
 20
-28
 11
244
 21
-28
  0
LINE
  8
0
 10
244
 20
-28
 11
244
 21
-24
  0
LINE
  8
0
 10
244
 20
-24
 11
247.9
 21
-24
  0
LINE
  8
0
 10
247.9
 20
-24
 11
247.9
 21
-20
  0
LINE
  8
0
 10
247.9
 20
-20
 11
244
 21
-20
  0
LINE
  8
0
 10
244
 20
-20
 11
244
 21
-16
  0
LINE
  8
0
 10
244
 20
-16
 11
247.9
 21
-16
  0
LINE
  8
0
 10
247.9
 20
-16
 11
247.9
 21
-12
  0
LINE
  8
0
 10
247.9
 20
-12
 11
244
 21
-12
  0
LINE
  8
0
 10
244
 20
-12
 11
244
 21
-8
  0
LINE
  8
0
 10
244
 20
-8
 11
247.9
 21
-8
  0
LINE
  8
0
 10
247.9
 20
-8
 11
247.9
 21
-4
  0
LINE
  8
0
 10
247.9
 20
-4
 11
244
 21
-4
  0
LINE
  8
0
 10
244
 20
-4
 11
244
 21
0
  0
LINE
  8
0
 10
244
 20
0
 11
247.9
 21
0
  0
LINE
  8
0
 10
247.9
 20
0
 11
247.9
 21
3.99998
  0
LINE
  8
0
 10
247.9
 20
3.99998
 11
244
 21
3.99998
  0
LINE
  8
0
 10
244
 20
3.99998
 11
244
 21
7.99998
  0
LINE
  8
0
 10
244
 20
7.99998
 11
247.9
 21
7.99998
  0
LINE
  8
0
 10
247.9
 20
7.99998
 11
247.9
 21
12
  0
LINE
  8
0
 10
247.9
 20
12
 11
244
 21
12
  0
LINE
  8
0
 10
244
 20
12
 11
244
 21
16
  0
LINE
  8
0
 10
244
 20
16
 11
247.9
 21
16
  0
LINE
  8
0
 10
247.9
 20
16
 11
247.9
 21
20
  0
LINE
  8
0
 10
247.9
 20
20
 11
244
 21
20
  0
LINE
  8
0
 10
244
 20
20
 11
244
 21
24
  0
LINE
  8
0
 10
244
 20
24
 11
247.9
 21
24
  0
LINE
  8
0
 10
247.9
 20
24
 11
247.9
 21
28
  0
LINE
  8
0
 10
247.9
 20
28
 11
244
 21
28
  0
LINE
  8
0
 10
244
 20
28
 11
244
 21
32
  0
LINE
  8
0
 10
244
 20
32
 11
247.9
 21
32
  0
LINE
  8
0
 10
247.9
 20
32
 11
247.9
 21
36
  0
LINE
  8
0
 10
247.9
 20
36
 11
244
 21
36
  0
LINE
  8
0
 10
244
 20
36
 11
244
 21
40
  0
LINE
  8
0
 10
244
 20
40
 11
247.9
 21
40
  0
LINE
  8
0
 10
247.9
 20
40
 11
247.9
 21
44
  0
LINE
  8
0
 10
247.9
 20
44
 11
240
 21
44
  0
LINE
  8
0
 10
240
 20
44
 11
240
 21
47.9
  0
LINE
  8
0
 10
240
 20
47.9
 11
236
 21
47.9
  0
LINE
  8
0
 10
236
 20
47.9
 11
236
 21
44
  0
LINE
  8
0
 10
236
 20
44
 11
232
 21
44
  0
LINE
  8
0
 10
232
 20
44
 11
232
 21
47.9
  0
LINE
  8
0
 10
232
 20
47.9
 11
228
 21
47.9
  0
LINE
  8
0
 10
228
 20
47.9
 11
228
 21
44
  0
LINE
  8
0
 10
228
 20
44
 11
224
 21
44
  0
LINE
  8
0
 10
224
 20
44
 11
224
 21
47.9
  0
LINE
  8
0
 10
224
 20
47.9
 11
220
 21
47.9
  0
LINE
  8
0
 10
220
 20
47.9
 11
220
 21
44
  0
LINE
  8
0
 10
220
 20
44
 11
216
 21
44
  0
LINE
  8
0
 10
216
 20
44
 11
216
 21
47.9
  0
LINE
  8
0
 10
216
 20
47.9
 11
212
 21
47.9
  0
LINE
  8
0
 10
212
 20
47.9
 11
212
 21
44
  0
LINE
  8
0
 10
212
 20
44
 11
208
 21
44
  0
LINE
  8
0
 10
208
 20
44
 11
208
 21
47.9
  0
LINE
  8
0
 10
208
 20
47.9
 11
204
 21
47.9
  0
LINE
  8
0
 10
204
 20
47.9
 11
204
 21
44
  0
LINE
  8
0
 10
204
 20
44
 11
200
 21
44
  0
LINE
  8
0
 10
200
 20
44
 11
200
 21
47.9
  0
LINE
  8
0
 10
200
 20
47.9
 11
196
 21
47.9
  0
LINE
  8
0
 10
196
 20
47.9
 11
196
 21
44
  0
LINE
  8
0
 10
196
 20
44
 11
192
 21
44
  0
LINE
  8
0
 10
192
 20
44
 11
192
 21
47.9
  0
LINE
  8
0
 10
192
 20
47.9
 11
188
 21
47.9
  0
LINE
  8
0
 10
188
 20
47.9
 11
188
 21
44
  0
LINE
  8
0
 10
188
 20
44
 11
184
 21
44
  0
LINE
  8
0
 10
184
 20
44
 11
184
 21
47.9
  0
LINE
  8
0
 10
184
 20
47.9
 11
180
 21
47.9
  0
LINE
  8
0
 10
180
 20
47.9
 11
180
 21
44
  0
LINE
  8
0
 10
180
 20
44
 11
176
 21
44
  0
LINE
  8
0
 10
176
 20
44
 11
176
 21
47.9
  0
LINE
  8
0
 10
176
 20
47.9
 11
172
 21
47.9
  0
LINE
  8
0
 10
172
 20
47.9
 11
172
 21
44
  0
LINE
  8
0
 10
172
 20
44
 11
168
 21
44
  0
LINE
  8
0
 10
168
 20
44
 11
168
 21
47.9
  0
LINE
  8
0
 10
168
 20
47.9
 11
164
 21
47.9
  0
LINE
  8
0
 10
164
 20
47.9
 11
164
 21
44
  0
LINE
  8
0
 10
164
 20
44
 11
160
 21
44
  0
LINE
  8
0
 10
160
 20
44
 11
160
 21
47.9
  0
LINE
  8
0
 10
160
 20
47.9
 11
156
 21
47.9
  0
LINE
  8
0
 10
156
 20
47.9
 11
156
 21
40
  0
LINE
  8
0
 10
156
 20
40
 11
152.1
 21
40
  0
LINE
  8
0
 10
152.1
 20
40
 11
152.1
 21
36
  0
LINE
  8
0
 10
152.1
 20
36
 11
156
 21
36
  0
LINE
  8
0
 10
156
 20
36
 11
156
 21
32
  0
LINE
  8
0
 10
156
 20
32
 11
152.1
 21
32
  0
LINE
  8
0
 10
152.1
 20
32
 11
152.1
 21
28
  0
LINE
  8
0
 10
152.1
 20
28
 11
156
 21
28
  0
LINE
  8
0
 10
156
 20
28
 11
156
 21
24
  0
LINE
  8
0
 10
156
 20
24
 11
152.1
 21
24
  0
LINE
  8
0
 10
152.1
 20
24
 11
152.1
 21
20
  0
LINE
  8
0
 10
152.1
 20
20
 11
156
 21
20
  0
LINE
  8
0
 10
156
 20
20
 11
156
 21
16
  0
LINE
  8
0
 10
156
 20
16
 11
152.1
 21
16
  0
LINE
  8
0
 10
152.1
 20
16
 11
152.1
 21
12
  0
LINE
  8
0
 10
152.1
 20
12
 11
156
 21
12
  0
LINE
  8
0
 10
156
 20
12
 11
156
 21
8
  0
LINE
  8
0
 10
156
 20
8
 11
152.1
 21
8
  0
LINE
  8
0
 10
152.1
 20
8
 11
152.1
 21
4
  0
LINE
  8
0
 10
152.1
 20
4
 11
156
 21
4
  0
LINE
  8
0
 10
156
 20
4
 11
156
 21
0
  0
LINE
  8
0
 10
156
 20
0
 11
152.1
 21
0
  0
LINE
  8
0
 10
152.1
 20
0
 11
152.1
 21
-3.99998
  0
LINE
  8
0
 10
152.1
 20
-3.99998
 11
156
 21
-3.99998
  0
LINE
  8
0
 10
156
 20
-3.99998
 11
156
 21
-7.99998
  0
LINE
  8
0
 10
156
 20
-7.99998
 11
152.1
 21
-7.99998
  0
LINE
  8
0
 10
152.1
 20
-7.99998
 11
152.1
 21
-12
  0
LINE
  8
0
 10
152.1
 20
-12
 11
156
 21
-12
  0
LINE
  8
0
 10
156
 20
-12
 11
156
 21
-16
  0
LINE
  8
0
 10
156
 20
-16
 11
152.1
 21
-16
  0
LINE
  8
0
 10
152.1
 20
-16
 11
152.1
 21
-20
  0
LINE
  8
0
 10
152.1
 20
-20
 11
156
 21
-20
  0
LINE
  8
0
 10
156
 20
-20
 11
156
 21
-24
  0
LINE
  8
0
 10
156
 20
-24
 11
152.1
 21
-24
  0
LINE
  8
0
 10
152.1
 20
-24
 11
152.1
 21
-28
  0
LINE
  8
0
 10
152.1
 20
-28
 11
156
 21
-28
  0
LINE
  8
0
 10
156
 20
-28
 11
156
 21
-32
  0
LINE
  8
0
 10
156
 20
-32
 11
152.1
 21
-32
  0
LINE
  8
0
 10
152.1
 20
-32
 11
152.1
 21
-36
  0
LINE
  8
0
 10
152.1
 20
-36
 11
156
 21
-36
  0
LINE
  8
0
 10
156
 20
-36
 11
156
 21
-40
  0
LINE
  8
0
 10
156
 20
-40
 11
152.1
 21
-40
  0
LINE
  8
0
 10
152.1
 20
-40
 11
152.1
 21
-44
  0
LINE
  8
0
 10
152.1
 20
-44
 11
160
 21
-44
  0
LINE
  8
0
 10
160
 20
-44
 11
160
 21
-47.9
  0
LINE
  8
0
 10
160
 20
-47.9
 11
164
 21
-47.9
  0
LINE
  8
0
 10
164
 20
-47.9
 11
164
 21
-44
  0
LINE
  8
0
 10
64
 20
-44
 11
68
 21
-44
  0
LINE
  8
0
 10
68
 20
-44
 11
68
 21
-47.9
  0
LINE
  8
0
 10
68
 20
-47.9
 11
72
 21
-47.9
  0
LINE
  8
0
 10
72
 20
-47.9
 11
72
 21
-44
  0
LINE
  8
0
 10
72
 20
-44
 11
76
 21
-44
  0
LINE
  8
0
 10
76
 20
-44
 11
76
 21
-47.9
  0
LINE
  8
0
 10
76
 20
-47.9
 11
80
 21
-47.9
  0
LINE
  8
0
 10
80
 20
-47.9
 11
80
 21
-44
  0
LINE
  8
0
 10
80
 20
-44
 11
84
 21
-44
  0
LINE
  8
0
 10
84
 20
-44
 11
84
 21
-47.9
  0
LINE
  8
0
 10
84
 20
-47.9
 11
88
 21
-47.9
  0
LINE
  8
0
 10
88
 20
-47.9
 11
88
 21
-44
  0
LINE
  8
0
 10
88
 20
-44
 11
92
 21
-44
  0
LINE
  8
0
 10
92
 20
-44
 11
92
 21
-47.9
  0
LINE
  8
0
 10
92
 20
-47.9
 11
96
 21
-47.9
  0
LINE
  8
0
 10
96
 20
-47.9
 11
96
 21
-44
  0
LINE
  8
0
 10
96
 20
-44
 11
100
 21
-44
  0
LINE
  8
0
 10
100
 20
-44
 11
100
 21
-47.9
  0
LINE
  8
0
 10
100
 20
-47.9
 11
104
 21
-47.9
  0
LINE
  8
0
 10
104
 20
-47.9
 11
104
 21
-44
  0
LINE
  8
0
 10
104
 20
-44
 11
108
 21
-44
  0
LINE
  8
0
 10
108
 20
-44
 11
108
 21
-47.9
  0
LINE
  8
0
 10
108
 20
-47.9
 11
112
 21
-47.9
  0
LINE
  8
0
 10
112
 20
-47.9
 11
112
 21
-44
  0
LINE
  8
0
 10
112
 20
-44
 11
116
 21
-44
  0
LINE
  8
0
 10
116
 20
-44
 11
116
 21
-47.9
  0
LINE
  8
0
 10
116
 20
-47.9
 11
120
 21
-47.9
  0
LINE
  8
0
 10
120
 20
-47.9
 11
120
 21
-44
  0
LINE
  8
0
 10
120
 20
-44
 11
124
 21
-44
  0
LINE
  8
0
 10
124
 20
-44
 11
124
 21
-47.9
  0
LINE
  8
0
 10
124
 20
-47.9
 11
128
 21
-47.9
  0
LINE
  8
0
 10
128
 20
-47.9
 11
128
 21
-44
  0
LINE
  8
0
 10
128
 20
-44
 11
132
 21
-44
  0
LINE
  8
0
 10
132
 20
-44
 11
132
 21
-47.9
  0
LINE
  8
0
 10
132
 20
-47.9
 11
136
 21
-47.9
  0
LINE
  8
0
 10
136
 20
-47.9
 11
136
 21
-44
  0
LINE
  8
0
 10
136
 20
-44
 11
140
 21
-44
  0
LINE
  8
0
 10
140
 20
-44
 11
140
 21
-47.9
  0
LINE
  8
0
 10
140
 20
-47.9
 11
144
 21
-47.9
  0
LINE
  8
0
 10
144
 20
-47.9
 11
144
 21
-40
  0
LINE
  8
0
 10
144
 20
-40
 11
147.9
 21
-40
  0
LINE
  8
0
 10
147.9
 20
-40
 11
147.9
 21
-36
  0
LINE
  8
0
 10
147.9
 20
-36
 11
144
 21
-36
  0
LINE
  8
0
 10
144
 20
-36
 11
144
 21
-32
  0
LINE
  8
0
 10
144
 20
-32
 11
147.9
 21
-32
  0
LINE
  8
0
 10
147.9
 20
-32
 11
147.9
 21
-28
  0
LINE
  8
0
 10
147.9
 20
-28
 11
144
 21
-28
  0
LINE
  8
0
 10
144
 20
-28
 11
144
 21
-24
  0
LINE
  8
0
 10
144
 20
-24
 11
147.9
 21
-24
  0
LINE
  8
0
 10
147.9
 20
-24
 11
147.9
 21
-20
  0
LINE
  8
0
 10
147.9
 20
-20
 11
144
 21
-20
  0
LINE
  8
0
 10
144
 20
-20
 11
144
 21
-16
  0
LINE
  8
0
 10
144
 20
-16
 11
147.9
 21
-16
  0
LINE
  8
0
 10
147.9
 20
-16
 11
147.9
 21
-12
  0
LINE
  8
0
 10
147.9
 20
-12
 11
144
 21
-12
  0
LINE
  8
0
 10
144
 20
-12
 11
144
 21
-8
  0
LINE
  8
0
 10
144
 20
-8
 11
147.9
 21
-8
  0
LINE
  8
0
 10
147.9
 20
-8
 11
147.9
 21
-4
  0
LINE
  8
0
 10
147.9
 20
-4
 11
144
 21
-4
  0
LINE
  8
0
 10
144
 20
-4
 11
144
 21
0
  0
LINE
  8
0
 10
144
 20
0
 11
147.9
 21
0
  0
LINE
  8
0
 10
147.9
 20
0
 11
147.9
 21
3.99998
  0
LINE
  8
0
 10
147.9
 20
3.99998
 11
144
 21
3.99998
  0
LINE
  8
0
 10
144
 20
3.99998
 11
144
 21
7.99998
  0
LINE
  8
0
 10
144
 20
7.99998
 11
147.9
 21
7.99998
  0
LINE
  8
0
 10
147.9
 20
7.99998
 11
147.9
 21
12
  0
LINE
  8
0
 10
147.9
 20
12
 11
144
 21
12
  0
LINE
  8
0
 10
144
 20
12
 11
144
 21
16
  0
LINE
  8
0
 10
144
 20
16
 11
147.9
 21
16
  0
LINE
  8
0
 10
147.9
 20
16
 11
147.9
 21
20
  0
LINE
  8
0
 10
147.9
 20
20
 11
144
 21
20
  0
LINE
  8
0
 10
144
 20
20
 11
144
 21
24
  0
LINE
  8
0
 10
144
 20
24
 11
147.9
 21
24
  0
LINE
  8
0
 10
147.9
 20
24
 11
147.9
 21
28
  0
LINE
  8
0
 10
147.9
 20
28
 11
144
 21
28
  0
LINE
  8
0
 10
144
 20
28
 11
144
 21
32
  0
LINE
  8
0
 10
144
 20
32
 11
147.9
 21
32
  0
LINE
  8
0
 10
147.9
 20
32
 11
147.9
 21
36
  0
LINE
  8
0
 10
147.9
 20
36
 11
144
 21
36
  0
LINE
  8
0
 10
144
 20
36
 11
144
 21
40
  0
LINE
  8
0
 10
144
 20
40
 11
147.9
 21
40
  0
LINE
  8
0
 10
147.9
 20
40
 11
147.9
 21
44
  0
LINE
  8
0
 10
147.9
 20
44
 11
140
 21
44
  0
LINE
  8
0
 10
140
 20
44
 11
140
 21
47.9
  0
LINE
  8
0
 10
140
 20
47.9
 11
136
 21
47.9
  0
LINE
  8
0
 10
136
 20
47.9
 11
136
 21
44
  0
LINE
  8
0
 10
136
 20
44
 11
132
 21
44
  0
LINE
  8
0
 10
132
 20
44
 11
132
 21
47.9
  0
LINE
  8
0
 10
132
 20
47.9
 11
128
 21
47.9
  0
LINE
  8
0
 10
128
 20
47.9
 11
128
 21
44
  0
LINE
  8
0
 10
128
 20
44
 11
124
 21
44
  0
LINE
  8
0
 10
124
 20
44
 11
124
 21
47.9
  0
LINE
  8
0
 10
124
 20
47.9
 11
120
 21
47.9
  0
LINE
  8
0
 10
120
 20
47.9
 11
120
 21
44
  0
LINE
  8
0
 10
120
 20
44
 11
116
 21
44
  0
LINE
  8
0
 10
116
 20
44
 11
116
 21
47.9
  0
LINE
  8
0
 10
116
 20
47.9
 11
112
 21
47.9
  0
LINE
  8
0
 10
112
 20
47.9
 11
112
 21
44
  0
LINE
  8
0
 10
112
 20
44
 11
108
 21
44
  0
LINE
  8
0
 10
108
 20
44
 11
108
 21
47.9
  0
LINE
  8
0
 10
108
 20
47.9
 11
104
 21
47.9
  0
LINE
  8
0
 10
104
 20
47.9
 11
104
 21
44
  0
LINE
  8
0
 10
104
 20
44
 11
100
 21
44
  0
LINE
  8
0
 10
100
 20
44
 11
100
 21
47.9
  0
LINE
  8
0
 10
100
 20
47.9
 11
96
 21
47.9
  0
LINE
  8
0
 10
96
 20
47.9
 11
96
 21
44
  0
LINE
  8
0
 10
96
 20
44
 11
92
 21
44
  0
LINE
  8
0
 10
92
 20
44
 11
92
 21
47.9
  0
LINE
  8
0
 10
92
 20
47.9
 11
88
 21
47.9
  0
LINE
  8
0
 10
88
 20
47.9
 11
88
 21
44
  0
LINE
  8
0
 10
88
 20
44
 11
84
 21
44
  0
LINE
  8
0
 10
84
 20
44
 11
84
 21
47.9
  0
LINE
  8
0
 10
84
 20
47.9
 11
80
 21
47.9
  0
LINE
  8
0
 10
80
 20
47.9
 11
80
 21
44
  0
LINE
  8
0
 10
80
 20
44
 11
76
 21
44
  0
LINE
  8
0
 10
76
 20
44
 11
76
 21
47.9
  0
LINE
  8
0
 10
76
 20
47.9
 11
72
 21
47.9
  0
LINE
  8
0
 10
72
 20
47.9
 11
72
 21
44
  0
LINE
  8
0
 10
72
 20
44
 11
68
 21
44
  0
LINE
  8
0
 10
68
 20
44
 11
68
 21
47.9
  0
LINE
  8
0
 10
68
 20
47.9
 11
64
 21
47.9
  0
LINE
  8
0
 10
64
 20
47.9
 11
64
 21
44
  0
LINE
  8
0
 10
64
 20
44
 11
60
 21
44
  0
LINE
  8
0
 10
60
 20
44
 11
60
 21
47.9
  0
LINE
  8
0
 10
60
 20
47.9
 11
56
 21
47.9
  0
LINE
  8
0
 10
56
 20
47.9
 11
56
 21
40
  0
LINE
  8
0
 10
56
 20
40
 11
52.1
 21
40
  0
LINE
  8
0
 10
52.1
 20
40
 11
52.1
 21
36
  0
LINE
  8
0
 10
52.1
 20
36
 11
56
 21
36
  0
LINE
  8
0
 10
56
 20
36
 11
56
 21
32
  0
LINE
  8
0
 10
56
 20
32
 11
52.1
 21
32
  0
LINE
  8
0
 10
52.1
 20
32
 11
52.1
 21
28
  0
LINE
  8
0
 10
52.1
 20
28
 11
56
 21
28
  0
LINE
  8
0
 10
56
 20
28
 11
56
 21
24
  0
LINE
  8
0
 10
56
 20
24
 11
52.1
 21
24
  0
LINE
  8
0
 10
52.1
 20
24
 11
52.1
 21
20
  0
LINE
  8
0
 10
52.1
 20
20
 11
56
 21
20
  0
LINE
  8
0
 10
56
 20
20
 11
56
 21
16
  0
LINE
  8
0
 10
56
 20
16
 11
52.1
 21
16
  0
LINE
  8
0
 10
52.1
 20
16
 11
52.1
 21
12
  0
LINE
  8
0
 10
52.1
 20
12
 11
56
 21
12
  0
LINE
  8
0
 10
56
 20
12
 11
56
 21
8
  0
LINE
  8
0
 10
56
 20
8
 11
52.1
 21
8
  0
LINE
  8
0
 10
52.1
 20
8
 11
52.1
 21
4
  0
LINE
  8
0
 10
52.1
 20
4
 11
56
 21
4
  0
LINE
  8
0
 10
56
 20
4
 11
56
 21
0
  0
LINE
  8
0
 10
56
 20
0
 11
52.1
 21
0
  0
LINE
  8
0
 10
52.1
 20
0
 11
52.1
 21
-3.99998
  0
LINE
  8
0
 10
52.1
 20
-3.99998
 11
56
 21
-3.99998
  0
LINE
  8
0
 10
56
 20
-3.99998
 11
56
 21
-7.99998
  0
LINE
  8
0
 10
56
 20
-7.99998
 11
52.1
 21
-7.99998
  0
LINE
  8
0
 10
52.1
 20
-7.99998
 11
52.1
 21
-12
  0
LINE
  8
0
 10
52.1
 20
-12
 11
56
 21
-12
  0
LINE
  8
0
 10
56
 20
-12
 11
56
 21
-16
  0
LINE
  8
0
 10
56
 20
-16
 11
52.1
 21
-16
  0
LINE
  8
0
 10
52.1
 20
-16
 11
52.1
 21
-20
  0
LINE
  8
0
 10
52.1
 20
-20
 11
56
 21
-20
  0
LINE
  8
0
 10
56
 20
-20
 11
56
 21
-24
  0
LINE
  8
0
 10
56
 20
-24
 11
52.1
 21
-24
  0
LINE
  8
0
 10
52.1
 20
-24
 11
52.1
 21
-28
  0
LINE
  8
0
 10
52.1
 20
-28
 11
56
 21
-28
  0
LINE
  8
0
 10
56
 20
-28
 11
56
 21
-32
  0
LINE
  8
0
 10
56
 20
-32
 11
52.1
 21
-32
  0
LINE
  8
0
 10
52.1
 20
-32
 11
52.1
 21
-36
  0
LINE
  8
0
 10
52.1
 20
-36
 11
56
 21
-36
  0
LINE
  8
0
 10
56
 20
-36
 11
56
 21
-40
  0
LINE
  8
0
 10
56
 20
-40
 11
52.1
 21
-40
  0
LINE
  8
0
 10
52.1
 20
-40
 11
52.1
 21
-44
  0
LINE
  8
0
 10
52.1
 20
-44
 11
60
 21
-44
  0
LINE
  8
0
 10
60
 20
-44
 11
60
 21
-47.9
  0
LINE
  8
0
 10
60
 20
-47.9
 11
64
 21
-47.9
  0
LINE
  8
0
 10
64
 20
-47.9
 11
64
 21
-44
  0
LINE
  8
0
 10
57.6322
 20
-0.767761
 11
56.9
 21
1
  0
LINE
  8
0
 10
56.9
 20
1
 11
57.6322
 21
2.76776
  0
LINE
  8
0
 10
57.6322
 20
2.76776
 11
59.4
 21
3.5
  0
LINE
  8
0
 10
59.4
 20
3.5
 11
61.1678
 21
2.76776
  0
LINE
  8
0
 10
61.1678
 20
2.76776
 11
61.9
 21
1
  0
LINE
  8
0
 10
61.9
 20
1
 11
61.1678
 21
-0.767761
  0
LINE
  8
0
 10
61.1678
 20
-0.767761
 11
59.4
 21
-1.5
  0
LINE
  8
0
 10
59.4
 20
-1.5
 11
57.6322
 21
-0.767761
  0
ENDSEC
  0
SECTION
  2
OBJECTS
  0
DICTIONARY
  0
ENDSEC
  0
EOF
