  0
SECTION
  2
BLOCKS
  0
ENDSEC
  0
SECTION
  2
ENTITIES
  0
LINE
  8
0
 10
732
 20
1222.8
 11
0
 21
1222.8
  0
LINE
  8
0
 10
0
 20
1222.8
 11
0
 21
1132.8
  0
LINE
  8
0
 10
0
 20
1132.8
 11
732
 21
1132.8
  0
LINE
  8
0
 10
732
 20
1132.8
 11
732
 21
1222.8
  0
LINE
  8
0
 10
1467.8
 20
1222.8
 11
735.8
 21
1222.8
  0
LINE
  8
0
 10
735.8
 20
1222.8
 11
735.8
 21
1132.8
  0
LINE
  8
0
 10
735.8
 20
1132.8
 11
1467.8
 21
1132.8
  0
LINE
  8
0
 10
1467.8
 20
1132.8
 11
1467.8
 21
1222.8
  0
LINE
  8
0
 10
732
 20
1129
 11
0
 21
1129
  0
LINE
  8
0
 10
0
 20
1129
 11
0
 21
1039
  0
LINE
  8
0
 10
0
 20
1039
 11
732
 21
1039
  0
LINE
  8
0
 10
732
 20
1039
 11
732
 21
1129
  0
LINE
  8
0
 10
1467.8
 20
1129
 11
735.8
 21
1129
  0
LINE
  8
0
 10
735.8
 20
1129
 11
735.8
 21
1039
  0
LINE
  8
0
 10
735.8
 20
1039
 11
1467.8
 21
1039
  0
LINE
  8
0
 10
1467.8
 20
1039
 11
1467.8
 21
1129
  0
LINE
  8
0
 10
2095.6
 20
1129
 11
1471.6
 21
1129
  0
LINE
  8
0
 10
1471.6
 20
1129
 11
1471.6
 21
1039
  0
LINE
  8
0
 10
1471.6
 20
1039
 11
2095.6
 21
1039
  0
LINE
  8
0
 10
2095.6
 20
1039
 11
2095.6
 21
1129
  0
LINE
  8
0
 10
732
 20
1035.2
 11
0
 21
1035.2
  0
LINE
  8
0
 10
0
 20
1035.2
 11
0
 21
945.2
  0
LINE
  8
0
 10
0
 20
945.2
 11
732
 21
945.2
  0
LINE
  8
0
 10
732
 20
945.2
 11
732
 21
1035.2
  0
LINE
  8
0
 10
1467.8
 20
1035.2
 11
735.8
 21
1035.2
  0
LINE
  8
0
 10
735.8
 20
1035.2
 11
735.8
 21
945.2
  0
LINE
  8
0
 10
735.8
 20
945.2
 11
1467.8
 21
945.2
  0
LINE
  8
0
 10
1467.8
 20
945.2
 11
1467.8
 21
1035.2
  0
LINE
  8
0
 10
2095.6
 20
1035.2
 11
1471.6
 21
1035.2
  0
LINE
  8
0
 10
1471.6
 20
1035.2
 11
1471.6
 21
945.2
  0
LINE
  8
0
 10
1471.6
 20
945.2
 11
2095.6
 21
945.2
  0
LINE
  8
0
 10
2095.6
 20
945.2
 11
2095.6
 21
1035.2
  0
LINE
  8
0
 10
732
 20
941.4
 11
0
 21
941.4
  0
LINE
  8
0
 10
0
 20
941.4
 11
0
 21
851.4
  0
LINE
  8
0
 10
0
 20
851.4
 11
732
 21
851.4
  0
LINE
  8
0
 10
732
 20
851.4
 11
732
 21
941.4
  0
LINE
  8
0
 10
1467.8
 20
941.4
 11
735.8
 21
941.4
  0
LINE
  8
0
 10
735.8
 20
941.4
 11
735.8
 21
851.4
  0
LINE
  8
0
 10
735.8
 20
851.4
 11
1467.8
 21
851.4
  0
LINE
  8
0
 10
1467.8
 20
851.4
 11
1467.8
 21
941.4
  0
LINE
  8
0
 10
2095.6
 20
941.4
 11
1471.6
 21
941.4
  0
LINE
  8
0
 10
1471.6
 20
941.4
 11
1471.6
 21
851.4
  0
LINE
  8
0
 10
1471.6
 20
851.4
 11
2095.6
 21
851.4
  0
LINE
  8
0
 10
2095.6
 20
851.4
 11
2095.6
 21
941.4
  0
LINE
  8
0
 10
2440
 20
847.6
 11
0
 21
847.6
  0
LINE
  8
0
 10
0
 20
847.6
 11
0
 21
757.6
  0
LINE
  8
0
 10
0
 20
757.6
 11
2440
 21
757.6
  0
LINE
  8
0
 10
2440
 20
757.6
 11
2440
 21
847.6
  0
LINE
  8
0
 10
2440
 20
753.8
 11
0
 21
753.8
  0
LINE
  8
0
 10
0
 20
753.8
 11
0
 21
663.8
  0
LINE
  8
0
 10
0
 20
663.8
 11
2440
 21
663.8
  0
LINE
  8
0
 10
2440
 20
663.8
 11
2440
 21
753.8
  0
LINE
  8
0
 10
2440
 20
660
 11
0
 21
660
  0
LINE
  8
0
 10
0
 20
660
 11
0
 21
0
  0
LINE
  8
0
 10
0
 20
0
 11
2440
 21
0
  0
LINE
  8
0
 10
2440
 20
0
 11
2440
 21
660
  0
ENDSEC
  0
SECTION
  2
OBJECTS
  0
DICTIONARY
  0
ENDSEC
  0
EOF
