  0
SECTION
  2
BLOCKS
  0
ENDSEC
  0
SECTION
  2
ENTITIES
  0
LINE
  8
0
 10
0
 11
0
 20
-130
 21
-82.8
  0
LINE
  8
0
 10
0
 11
25.2
 20
-82.8
 21
-82.8
  0
LINE
  8
0
 10
25.2
 11
25.2
 20
-82.8
 21
-130
  0
LINE
  8
0
 10
25.2
 11
0
 20
-130
 21
-130
  0
LINE
  8
0
 10
8.198
 11
8.198
 20
-107.336
 21
-105.464
  0
LINE
  8
0
 10
8.198
 11
8.959
 20
-105.464
 21
-103.755
  0
LINE
  8
0
 10
8.959
 11
10.35
 20
-103.755
 21
-102.503
  0
LINE
  8
0
 10
10.35
 11
12.13
 20
-102.503
 21
-101.925
  0
LINE
  8
0
 10
12.13
 11
13.991
 20
-101.925
 21
-102.12
  0
LINE
  8
0
 10
13.991
 11
15.611
 20
-102.12
 21
-103.056
  0
LINE
  8
0
 10
15.611
 11
16.711
 20
-103.056
 21
-104.57
  0
LINE
  8
0
 10
16.711
 11
17.1
 20
-104.57
 21
-106.4
  0
LINE
  8
0
 10
17.1
 11
16.711
 20
-106.4
 21
-108.23
  0
LINE
  8
0
 10
16.711
 11
15.611
 20
-108.23
 21
-109.744
  0
LINE
  8
0
 10
15.611
 11
13.991
 20
-109.744
 21
-110.68
  0
LINE
  8
0
 10
13.991
 11
12.13
 20
-110.68
 21
-110.875
  0
LINE
  8
0
 10
12.13
 11
10.35
 20
-110.875
 21
-110.297
  0
LINE
  8
0
 10
10.35
 11
8.959
 20
-110.297
 21
-109.045
  0
LINE
  8
0
 10
8.959
 11
8.198
 20
-109.045
 21
-107.336
  0
LINE
  8
0
 10
8.716
 11
8.716
 20
-120.357
 21
-118.443
  0
LINE
  8
0
 10
8.716
 11
9.606
 20
-118.443
 21
-116.748
  0
LINE
  8
0
 10
9.606
 11
11.182
 20
-116.748
 21
-115.66
  0
LINE
  8
0
 10
11.182
 11
13.082
 20
-115.66
 21
-115.429
  0
LINE
  8
0
 10
13.082
 11
14.872
 20
-115.429
 21
-116.108
  0
LINE
  8
0
 10
14.872
 11
16.142
 20
-116.108
 21
-117.541
  0
LINE
  8
0
 10
16.142
 11
16.6
 20
-117.541
 21
-119.4
  0
LINE
  8
0
 10
16.6
 11
16.142
 20
-119.4
 21
-121.259
  0
LINE
  8
0
 10
16.142
 11
14.872
 20
-121.259
 21
-122.692
  0
LINE
  8
0
 10
14.872
 11
13.082
 20
-122.692
 21
-123.371
  0
LINE
  8
0
 10
13.082
 11
11.182
 20
-123.371
 21
-123.14
  0
LINE
  8
0
 10
11.182
 11
9.606
 20
-123.14
 21
-122.052
  0
LINE
  8
0
 10
9.606
 11
8.716
 20
-122.052
 21
-120.357
  0
LINE
  8
0
 10
8.716
 11
8.716
 20
-94.357
 21
-92.443
  0
LINE
  8
0
 10
8.716
 11
9.606
 20
-92.443
 21
-90.748
  0
LINE
  8
0
 10
9.606
 11
11.182
 20
-90.748
 21
-89.66
  0
LINE
  8
0
 10
11.182
 11
13.082
 20
-89.66
 21
-89.429
  0
LINE
  8
0
 10
13.082
 11
14.872
 20
-89.429
 21
-90.108
  0
LINE
  8
0
 10
14.872
 11
16.142
 20
-90.108
 21
-91.541
  0
LINE
  8
0
 10
16.142
 11
16.6
 20
-91.541
 21
-93.4
  0
LINE
  8
0
 10
16.6
 11
16.142
 20
-93.4
 21
-95.259
  0
LINE
  8
0
 10
16.142
 11
14.872
 20
-95.259
 21
-96.692
  0
LINE
  8
0
 10
14.872
 11
13.082
 20
-96.692
 21
-97.371
  0
LINE
  8
0
 10
13.082
 11
11.182
 20
-97.371
 21
-97.14
  0
LINE
  8
0
 10
11.182
 11
9.606
 20
-97.14
 21
-96.052
  0
LINE
  8
0
 10
9.606
 11
8.716
 20
-96.052
 21
-94.357
  0
LINE
  8
0
 10
30
 11
30
 20
-130
 21
-82.8
  0
LINE
  8
0
 10
30
 11
55.2
 20
-82.8
 21
-82.8
  0
LINE
  8
0
 10
55.2
 11
55.2
 20
-82.8
 21
-130
  0
LINE
  8
0
 10
55.2
 11
30
 20
-130
 21
-130
  0
LINE
  8
0
 10
38.198
 11
38.198
 20
-107.336
 21
-105.464
  0
LINE
  8
0
 10
38.198
 11
38.959
 20
-105.464
 21
-103.755
  0
LINE
  8
0
 10
38.959
 11
40.35
 20
-103.755
 21
-102.503
  0
LINE
  8
0
 10
40.35
 11
42.13
 20
-102.503
 21
-101.925
  0
LINE
  8
0
 10
42.13
 11
43.991
 20
-101.925
 21
-102.12
  0
LINE
  8
0
 10
43.991
 11
45.611
 20
-102.12
 21
-103.056
  0
LINE
  8
0
 10
45.611
 11
46.711
 20
-103.056
 21
-104.57
  0
LINE
  8
0
 10
46.711
 11
47.1
 20
-104.57
 21
-106.4
  0
LINE
  8
0
 10
47.1
 11
46.711
 20
-106.4
 21
-108.23
  0
LINE
  8
0
 10
46.711
 11
45.611
 20
-108.23
 21
-109.744
  0
LINE
  8
0
 10
45.611
 11
43.991
 20
-109.744
 21
-110.68
  0
LINE
  8
0
 10
43.991
 11
42.13
 20
-110.68
 21
-110.875
  0
LINE
  8
0
 10
42.13
 11
40.35
 20
-110.875
 21
-110.297
  0
LINE
  8
0
 10
40.35
 11
38.959
 20
-110.297
 21
-109.045
  0
LINE
  8
0
 10
38.959
 11
38.198
 20
-109.045
 21
-107.336
  0
LINE
  8
0
 10
38.716
 11
38.716
 20
-120.357
 21
-118.443
  0
LINE
  8
0
 10
38.716
 11
39.606
 20
-118.443
 21
-116.748
  0
LINE
  8
0
 10
39.606
 11
41.182
 20
-116.748
 21
-115.66
  0
LINE
  8
0
 10
41.182
 11
43.082
 20
-115.66
 21
-115.429
  0
LINE
  8
0
 10
43.082
 11
44.872
 20
-115.429
 21
-116.108
  0
LINE
  8
0
 10
44.872
 11
46.142
 20
-116.108
 21
-117.541
  0
LINE
  8
0
 10
46.142
 11
46.6
 20
-117.541
 21
-119.4
  0
LINE
  8
0
 10
46.6
 11
46.142
 20
-119.4
 21
-121.259
  0
LINE
  8
0
 10
46.142
 11
44.872
 20
-121.259
 21
-122.692
  0
LINE
  8
0
 10
44.872
 11
43.082
 20
-122.692
 21
-123.371
  0
LINE
  8
0
 10
43.082
 11
41.182
 20
-123.371
 21
-123.14
  0
LINE
  8
0
 10
41.182
 11
39.606
 20
-123.14
 21
-122.052
  0
LINE
  8
0
 10
39.606
 11
38.716
 20
-122.052
 21
-120.357
  0
LINE
  8
0
 10
38.716
 11
38.716
 20
-94.357
 21
-92.443
  0
LINE
  8
0
 10
38.716
 11
39.606
 20
-92.443
 21
-90.748
  0
LINE
  8
0
 10
39.606
 11
41.182
 20
-90.748
 21
-89.66
  0
LINE
  8
0
 10
41.182
 11
43.082
 20
-89.66
 21
-89.429
  0
LINE
  8
0
 10
43.082
 11
44.872
 20
-89.429
 21
-90.108
  0
LINE
  8
0
 10
44.872
 11
46.142
 20
-90.108
 21
-91.541
  0
LINE
  8
0
 10
46.142
 11
46.6
 20
-91.541
 21
-93.4
  0
LINE
  8
0
 10
46.6
 11
46.142
 20
-93.4
 21
-95.259
  0
LINE
  8
0
 10
46.142
 11
44.872
 20
-95.259
 21
-96.692
  0
LINE
  8
0
 10
44.872
 11
43.082
 20
-96.692
 21
-97.371
  0
LINE
  8
0
 10
43.082
 11
41.182
 20
-97.371
 21
-97.14
  0
LINE
  8
0
 10
41.182
 11
39.606
 20
-97.14
 21
-96.052
  0
LINE
  8
0
 10
39.606
 11
38.716
 20
-96.052
 21
-94.357
  0
LINE
  8
0
 10
60
 11
60
 20
-130
 21
-82.8
  0
LINE
  8
0
 10
60
 11
85.2
 20
-82.8
 21
-82.8
  0
LINE
  8
0
 10
85.2
 11
85.2
 20
-82.8
 21
-130
  0
LINE
  8
0
 10
85.2
 11
60
 20
-130
 21
-130
  0
LINE
  8
0
 10
68.198
 11
68.198
 20
-107.336
 21
-105.464
  0
LINE
  8
0
 10
68.198
 11
68.959
 20
-105.464
 21
-103.755
  0
LINE
  8
0
 10
68.959
 11
70.35
 20
-103.755
 21
-102.503
  0
LINE
  8
0
 10
70.35
 11
72.13
 20
-102.503
 21
-101.925
  0
LINE
  8
0
 10
72.13
 11
73.991
 20
-101.925
 21
-102.12
  0
LINE
  8
0
 10
73.991
 11
75.611
 20
-102.12
 21
-103.056
  0
LINE
  8
0
 10
75.611
 11
76.711
 20
-103.056
 21
-104.57
  0
LINE
  8
0
 10
76.711
 11
77.1
 20
-104.57
 21
-106.4
  0
LINE
  8
0
 10
77.1
 11
76.711
 20
-106.4
 21
-108.23
  0
LINE
  8
0
 10
76.711
 11
75.611
 20
-108.23
 21
-109.744
  0
LINE
  8
0
 10
75.611
 11
73.991
 20
-109.744
 21
-110.68
  0
LINE
  8
0
 10
73.991
 11
72.13
 20
-110.68
 21
-110.875
  0
LINE
  8
0
 10
72.13
 11
70.35
 20
-110.875
 21
-110.297
  0
LINE
  8
0
 10
70.35
 11
68.959
 20
-110.297
 21
-109.045
  0
LINE
  8
0
 10
68.959
 11
68.198
 20
-109.045
 21
-107.336
  0
LINE
  8
0
 10
68.716
 11
68.716
 20
-120.357
 21
-118.443
  0
LINE
  8
0
 10
68.716
 11
69.606
 20
-118.443
 21
-116.748
  0
LINE
  8
0
 10
69.606
 11
71.182
 20
-116.748
 21
-115.66
  0
LINE
  8
0
 10
71.182
 11
73.082
 20
-115.66
 21
-115.429
  0
LINE
  8
0
 10
73.082
 11
74.872
 20
-115.429
 21
-116.108
  0
LINE
  8
0
 10
74.872
 11
76.142
 20
-116.108
 21
-117.541
  0
LINE
  8
0
 10
76.142
 11
76.6
 20
-117.541
 21
-119.4
  0
LINE
  8
0
 10
76.6
 11
76.142
 20
-119.4
 21
-121.259
  0
LINE
  8
0
 10
76.142
 11
74.872
 20
-121.259
 21
-122.692
  0
LINE
  8
0
 10
74.872
 11
73.082
 20
-122.692
 21
-123.371
  0
LINE
  8
0
 10
73.082
 11
71.182
 20
-123.371
 21
-123.14
  0
LINE
  8
0
 10
71.182
 11
69.606
 20
-123.14
 21
-122.052
  0
LINE
  8
0
 10
69.606
 11
68.716
 20
-122.052
 21
-120.357
  0
LINE
  8
0
 10
68.716
 11
68.716
 20
-94.357
 21
-92.443
  0
LINE
  8
0
 10
68.716
 11
69.606
 20
-92.443
 21
-90.748
  0
LINE
  8
0
 10
69.606
 11
71.182
 20
-90.748
 21
-89.66
  0
LINE
  8
0
 10
71.182
 11
73.082
 20
-89.66
 21
-89.429
  0
LINE
  8
0
 10
73.082
 11
74.872
 20
-89.429
 21
-90.108
  0
LINE
  8
0
 10
74.872
 11
76.142
 20
-90.108
 21
-91.541
  0
LINE
  8
0
 10
76.142
 11
76.6
 20
-91.541
 21
-93.4
  0
LINE
  8
0
 10
76.6
 11
76.142
 20
-93.4
 21
-95.259
  0
LINE
  8
0
 10
76.142
 11
74.872
 20
-95.259
 21
-96.692
  0
LINE
  8
0
 10
74.872
 11
73.082
 20
-96.692
 21
-97.371
  0
LINE
  8
0
 10
73.082
 11
71.182
 20
-97.371
 21
-97.14
  0
LINE
  8
0
 10
71.182
 11
69.606
 20
-97.14
 21
-96.052
  0
LINE
  8
0
 10
69.606
 11
68.716
 20
-96.052
 21
-94.357
  0
LINE
  8
0
 10
90
 11
90
 20
-130
 21
-82.8
  0
LINE
  8
0
 10
90
 11
120.4
 20
-82.8
 21
-82.8
  0
LINE
  8
0
 10
120.4
 11
120.4
 20
-82.8
 21
-130
  0
LINE
  8
0
 10
120.4
 11
90
 20
-130
 21
-130
  0
LINE
  8
0
 10
97.7
 11
101.45
 20
-106.4
 21
-99.905
  0
LINE
  8
0
 10
101.45
 11
108.95
 20
-99.905
 21
-99.905
  0
LINE
  8
0
 10
108.95
 11
112.7
 20
-99.905
 21
-106.4
  0
LINE
  8
0
 10
112.7
 11
108.95
 20
-106.4
 21
-112.895
  0
LINE
  8
0
 10
108.95
 11
101.45
 20
-112.895
 21
-112.895
  0
LINE
  8
0
 10
101.45
 11
97.7
 20
-112.895
 21
-106.4
  0
LINE
  8
0
 10
101.316
 11
101.316
 20
-120.357
 21
-118.443
  0
LINE
  8
0
 10
101.316
 11
102.206
 20
-118.443
 21
-116.748
  0
LINE
  8
0
 10
102.206
 11
103.782
 20
-116.748
 21
-115.66
  0
LINE
  8
0
 10
103.782
 11
105.682
 20
-115.66
 21
-115.429
  0
LINE
  8
0
 10
105.682
 11
107.472
 20
-115.429
 21
-116.108
  0
LINE
  8
0
 10
107.472
 11
108.742
 20
-116.108
 21
-117.541
  0
LINE
  8
0
 10
108.742
 11
109.2
 20
-117.541
 21
-119.4
  0
LINE
  8
0
 10
109.2
 11
108.742
 20
-119.4
 21
-121.259
  0
LINE
  8
0
 10
108.742
 11
107.472
 20
-121.259
 21
-122.692
  0
LINE
  8
0
 10
107.472
 11
105.682
 20
-122.692
 21
-123.371
  0
LINE
  8
0
 10
105.682
 11
103.782
 20
-123.371
 21
-123.14
  0
LINE
  8
0
 10
103.782
 11
102.206
 20
-123.14
 21
-122.052
  0
LINE
  8
0
 10
102.206
 11
101.316
 20
-122.052
 21
-120.357
  0
LINE
  8
0
 10
101.316
 11
101.316
 20
-94.357
 21
-92.443
  0
LINE
  8
0
 10
101.316
 11
102.206
 20
-92.443
 21
-90.748
  0
LINE
  8
0
 10
102.206
 11
103.782
 20
-90.748
 21
-89.66
  0
LINE
  8
0
 10
103.782
 11
105.682
 20
-89.66
 21
-89.429
  0
LINE
  8
0
 10
105.682
 11
107.472
 20
-89.429
 21
-90.108
  0
LINE
  8
0
 10
107.472
 11
108.742
 20
-90.108
 21
-91.541
  0
LINE
  8
0
 10
108.742
 11
109.2
 20
-91.541
 21
-93.4
  0
LINE
  8
0
 10
109.2
 11
108.742
 20
-93.4
 21
-95.259
  0
LINE
  8
0
 10
108.742
 11
107.472
 20
-95.259
 21
-96.692
  0
LINE
  8
0
 10
107.472
 11
105.682
 20
-96.692
 21
-97.371
  0
LINE
  8
0
 10
105.682
 11
103.782
 20
-97.371
 21
-97.14
  0
LINE
  8
0
 10
103.782
 11
102.206
 20
-97.14
 21
-96.052
  0
LINE
  8
0
 10
102.206
 11
101.316
 20
-96.052
 21
-94.357
  0
LINE
  8
0
 10
122
 11
122
 20
-130
 21
-82.8
  0
LINE
  8
0
 10
122
 11
152.4
 20
-82.8
 21
-82.8
  0
LINE
  8
0
 10
152.4
 11
152.4
 20
-82.8
 21
-130
  0
LINE
  8
0
 10
152.4
 11
122
 20
-130
 21
-130
  0
LINE
  8
0
 10
129.7
 11
133.45
 20
-106.4
 21
-99.905
  0
LINE
  8
0
 10
133.45
 11
140.95
 20
-99.905
 21
-99.905
  0
LINE
  8
0
 10
140.95
 11
144.7
 20
-99.905
 21
-106.4
  0
LINE
  8
0
 10
144.7
 11
140.95
 20
-106.4
 21
-112.895
  0
LINE
  8
0
 10
140.95
 11
133.45
 20
-112.895
 21
-112.895
  0
LINE
  8
0
 10
133.45
 11
129.7
 20
-112.895
 21
-106.4
  0
LINE
  8
0
 10
133.316
 11
133.316
 20
-120.357
 21
-118.443
  0
LINE
  8
0
 10
133.316
 11
134.206
 20
-118.443
 21
-116.748
  0
LINE
  8
0
 10
134.206
 11
135.782
 20
-116.748
 21
-115.66
  0
LINE
  8
0
 10
135.782
 11
137.682
 20
-115.66
 21
-115.429
  0
LINE
  8
0
 10
137.682
 11
139.472
 20
-115.429
 21
-116.108
  0
LINE
  8
0
 10
139.472
 11
140.742
 20
-116.108
 21
-117.541
  0
LINE
  8
0
 10
140.742
 11
141.2
 20
-117.541
 21
-119.4
  0
LINE
  8
0
 10
141.2
 11
140.742
 20
-119.4
 21
-121.259
  0
LINE
  8
0
 10
140.742
 11
139.472
 20
-121.259
 21
-122.692
  0
LINE
  8
0
 10
139.472
 11
137.682
 20
-122.692
 21
-123.371
  0
LINE
  8
0
 10
137.682
 11
135.782
 20
-123.371
 21
-123.14
  0
LINE
  8
0
 10
135.782
 11
134.206
 20
-123.14
 21
-122.052
  0
LINE
  8
0
 10
134.206
 11
133.316
 20
-122.052
 21
-120.357
  0
LINE
  8
0
 10
133.316
 11
133.316
 20
-94.357
 21
-92.443
  0
LINE
  8
0
 10
133.316
 11
134.206
 20
-92.443
 21
-90.748
  0
LINE
  8
0
 10
134.206
 11
135.782
 20
-90.748
 21
-89.66
  0
LINE
  8
0
 10
135.782
 11
137.682
 20
-89.66
 21
-89.429
  0
LINE
  8
0
 10
137.682
 11
139.472
 20
-89.429
 21
-90.108
  0
LINE
  8
0
 10
139.472
 11
140.742
 20
-90.108
 21
-91.541
  0
LINE
  8
0
 10
140.742
 11
141.2
 20
-91.541
 21
-93.4
  0
LINE
  8
0
 10
141.2
 11
140.742
 20
-93.4
 21
-95.259
  0
LINE
  8
0
 10
140.742
 11
139.472
 20
-95.259
 21
-96.692
  0
LINE
  8
0
 10
139.472
 11
137.682
 20
-96.692
 21
-97.371
  0
LINE
  8
0
 10
137.682
 11
135.782
 20
-97.371
 21
-97.14
  0
LINE
  8
0
 10
135.782
 11
134.206
 20
-97.14
 21
-96.052
  0
LINE
  8
0
 10
134.206
 11
133.316
 20
-96.052
 21
-94.357
  0
LINE
  8
0
 10
154
 11
154
 20
-130
 21
-82.8
  0
LINE
  8
0
 10
154
 11
184.4
 20
-82.8
 21
-82.8
  0
LINE
  8
0
 10
184.4
 11
184.4
 20
-82.8
 21
-130
  0
LINE
  8
0
 10
184.4
 11
154
 20
-130
 21
-130
  0
LINE
  8
0
 10
161.7
 11
165.45
 20
-106.4
 21
-99.905
  0
LINE
  8
0
 10
165.45
 11
172.95
 20
-99.905
 21
-99.905
  0
LINE
  8
0
 10
172.95
 11
176.7
 20
-99.905
 21
-106.4
  0
LINE
  8
0
 10
176.7
 11
172.95
 20
-106.4
 21
-112.895
  0
LINE
  8
0
 10
172.95
 11
165.45
 20
-112.895
 21
-112.895
  0
LINE
  8
0
 10
165.45
 11
161.7
 20
-112.895
 21
-106.4
  0
LINE
  8
0
 10
165.316
 11
165.316
 20
-120.357
 21
-118.443
  0
LINE
  8
0
 10
165.316
 11
166.206
 20
-118.443
 21
-116.748
  0
LINE
  8
0
 10
166.206
 11
167.782
 20
-116.748
 21
-115.66
  0
LINE
  8
0
 10
167.782
 11
169.682
 20
-115.66
 21
-115.429
  0
LINE
  8
0
 10
169.682
 11
171.472
 20
-115.429
 21
-116.108
  0
LINE
  8
0
 10
171.472
 11
172.742
 20
-116.108
 21
-117.541
  0
LINE
  8
0
 10
172.742
 11
173.2
 20
-117.541
 21
-119.4
  0
LINE
  8
0
 10
173.2
 11
172.742
 20
-119.4
 21
-121.259
  0
LINE
  8
0
 10
172.742
 11
171.472
 20
-121.259
 21
-122.692
  0
LINE
  8
0
 10
171.472
 11
169.682
 20
-122.692
 21
-123.371
  0
LINE
  8
0
 10
169.682
 11
167.782
 20
-123.371
 21
-123.14
  0
LINE
  8
0
 10
167.782
 11
166.206
 20
-123.14
 21
-122.052
  0
LINE
  8
0
 10
166.206
 11
165.316
 20
-122.052
 21
-120.357
  0
LINE
  8
0
 10
165.316
 11
165.316
 20
-94.357
 21
-92.443
  0
LINE
  8
0
 10
165.316
 11
166.206
 20
-92.443
 21
-90.748
  0
LINE
  8
0
 10
166.206
 11
167.782
 20
-90.748
 21
-89.66
  0
LINE
  8
0
 10
167.782
 11
169.682
 20
-89.66
 21
-89.429
  0
LINE
  8
0
 10
169.682
 11
171.472
 20
-89.429
 21
-90.108
  0
LINE
  8
0
 10
171.472
 11
172.742
 20
-90.108
 21
-91.541
  0
LINE
  8
0
 10
172.742
 11
173.2
 20
-91.541
 21
-93.4
  0
LINE
  8
0
 10
173.2
 11
172.742
 20
-93.4
 21
-95.259
  0
LINE
  8
0
 10
172.742
 11
171.472
 20
-95.259
 21
-96.692
  0
LINE
  8
0
 10
171.472
 11
169.682
 20
-96.692
 21
-97.371
  0
LINE
  8
0
 10
169.682
 11
167.782
 20
-97.371
 21
-97.14
  0
LINE
  8
0
 10
167.782
 11
166.206
 20
-97.14
 21
-96.052
  0
LINE
  8
0
 10
166.206
 11
165.316
 20
-96.052
 21
-94.357
  0
LINE
  8
0
 10
194.8
 11
194.8
 20
-125
 21
-117
  0
LINE
  8
0
 10
194.8
 11
202.8
 20
-117
 21
-117
  0
LINE
  8
0
 10
202.8
 11
202.8
 20
-117
 21
-93.6
  0
LINE
  8
0
 10
202.8
 11
194.8
 20
-93.6
 21
-93.6
  0
LINE
  8
0
 10
194.8
 11
194.8
 20
-93.6
 21
-85.6
  0
LINE
  8
0
 10
194.8
 11
202.8
 20
-85.6
 21
-85.6
  0
LINE
  8
0
 10
202.8
 11
202.8
 20
-85.6
 21
-81.6
  0
LINE
  8
0
 10
202.8
 11
252
 20
-81.6
 21
-81.6
  0
LINE
  8
0
 10
252
 11
252
 20
-81.6
 21
-85.6
  0
LINE
  8
0
 10
252
 11
260
 20
-85.6
 21
-85.6
  0
LINE
  8
0
 10
260
 11
260
 20
-85.6
 21
-93.6
  0
LINE
  8
0
 10
260
 11
252
 20
-93.6
 21
-93.6
  0
LINE
  8
0
 10
252
 11
252
 20
-93.6
 21
-117
  0
LINE
  8
0
 10
252
 11
260
 20
-117
 21
-117
  0
LINE
  8
0
 10
260
 11
260
 20
-117
 21
-125
  0
LINE
  8
0
 10
260
 11
252
 20
-125
 21
-125
  0
LINE
  8
0
 10
252
 11
252
 20
-125
 21
-130
  0
LINE
  8
0
 10
252
 11
202.8
 20
-130
 21
-130
  0
LINE
  8
0
 10
202.8
 11
202.8
 20
-130
 21
-125
  0
LINE
  8
0
 10
202.8
 11
194.8
 20
-125
 21
-125
  0
LINE
  8
0
 10
210.429
 11
211.108
 20
-105.318
 21
-103.528
  0
LINE
  8
0
 10
211.108
 11
212.541
 20
-103.528
 21
-102.258
  0
LINE
  8
0
 10
212.541
 11
214.4
 20
-102.258
 21
-101.8
  0
LINE
  8
0
 10
214.4
 11
216.259
 20
-101.8
 21
-102.258
  0
LINE
  8
0
 10
216.259
 11
217.692
 20
-102.258
 21
-103.528
  0
LINE
  8
0
 10
217.692
 11
218.371
 20
-103.528
 21
-105.318
  0
LINE
  8
0
 10
218.371
 11
218.14
 20
-105.318
 21
-107.218
  0
LINE
  8
0
 10
218.14
 11
217.052
 20
-107.218
 21
-108.794
  0
LINE
  8
0
 10
217.052
 11
215.357
 20
-108.794
 21
-109.684
  0
LINE
  8
0
 10
215.357
 11
213.443
 20
-109.684
 21
-109.684
  0
LINE
  8
0
 10
213.443
 11
211.748
 20
-109.684
 21
-108.794
  0
LINE
  8
0
 10
211.748
 11
210.66
 20
-108.794
 21
-107.218
  0
LINE
  8
0
 10
210.66
 11
210.429
 20
-107.218
 21
-105.318
  0
LINE
  8
0
 10
220.905
 11
220.905
 20
-109.55
 21
-102.05
  0
LINE
  8
0
 10
220.905
 11
227.4
 20
-102.05
 21
-98.3
  0
LINE
  8
0
 10
227.4
 11
233.895
 20
-98.3
 21
-102.05
  0
LINE
  8
0
 10
233.895
 11
233.895
 20
-102.05
 21
-109.55
  0
LINE
  8
0
 10
233.895
 11
227.4
 20
-109.55
 21
-113.3
  0
LINE
  8
0
 10
227.4
 11
220.905
 20
-113.3
 21
-109.55
  0
LINE
  8
0
 10
236.429
 11
237.108
 20
-105.318
 21
-103.528
  0
LINE
  8
0
 10
237.108
 11
238.541
 20
-103.528
 21
-102.258
  0
LINE
  8
0
 10
238.541
 11
240.4
 20
-102.258
 21
-101.8
  0
LINE
  8
0
 10
240.4
 11
242.259
 20
-101.8
 21
-102.258
  0
LINE
  8
0
 10
242.259
 11
243.692
 20
-102.258
 21
-103.528
  0
LINE
  8
0
 10
243.692
 11
244.371
 20
-103.528
 21
-105.318
  0
LINE
  8
0
 10
244.371
 11
244.14
 20
-105.318
 21
-107.218
  0
LINE
  8
0
 10
244.14
 11
243.052
 20
-107.218
 21
-108.794
  0
LINE
  8
0
 10
243.052
 11
241.357
 20
-108.794
 21
-109.684
  0
LINE
  8
0
 10
241.357
 11
239.443
 20
-109.684
 21
-109.684
  0
LINE
  8
0
 10
239.443
 11
237.748
 20
-109.684
 21
-108.794
  0
LINE
  8
0
 10
237.748
 11
236.66
 20
-108.794
 21
-107.218
  0
LINE
  8
0
 10
236.66
 11
236.429
 20
-107.218
 21
-105.318
  0
ENDSEC
  0
SECTION
  2
OBJECTS
  0
DICTIONARY
  0
ENDSEC
  0
EOF
