  0
SECTION
  2
BLOCKS
  0
ENDSEC
  0
SECTION
  2
ENTITIES
  0
LINE
  8
0
 10
-4.2
 11
-4.2
 20
-120
 21
-115.8
  0
LINE
  8
0
 10
-4.2
 11
0
 20
-115.8
 21
-115.8
  0
LINE
  8
0
 10
0
 11
0
 20
-115.8
 21
-111.6
  0
LINE
  8
0
 10
0
 11
-4.2
 20
-111.6
 21
-111.6
  0
LINE
  8
0
 10
-4.2
 11
-4.2
 20
-111.6
 21
-107.4
  0
LINE
  8
0
 10
-4.2
 11
0
 20
-107.4
 21
-107.4
  0
LINE
  8
0
 10
0
 11
0
 20
-107.4
 21
-103.2
  0
LINE
  8
0
 10
0
 11
-4.2
 20
-103.2
 21
-103.2
  0
LINE
  8
0
 10
-4.2
 11
-4.2
 20
-103.2
 21
-99
  0
LINE
  8
0
 10
-4.2
 11
0
 20
-99
 21
-99
  0
LINE
  8
0
 10
0
 11
0
 20
-99
 21
-94.8
  0
LINE
  8
0
 10
0
 11
-4.2
 20
-94.8
 21
-94.8
  0
LINE
  8
0
 10
-4.2
 11
-4.2
 20
-94.8
 21
-90.6
  0
LINE
  8
0
 10
-4.2
 11
0
 20
-90.6
 21
-90.6
  0
LINE
  8
0
 10
0
 11
0
 20
-90.6
 21
-86.4
  0
LINE
  8
0
 10
0
 11
-4.2
 20
-86.4
 21
-86.4
  0
LINE
  8
0
 10
-4.2
 11
-4.2
 20
-86.4
 21
-82.2
  0
LINE
  8
0
 10
-4.2
 11
0
 20
-82.2
 21
-82.2
  0
LINE
  8
0
 10
0
 11
0
 20
-82.2
 21
-78
  0
LINE
  8
0
 10
0
 11
-4.2
 20
-78
 21
-78
  0
LINE
  8
0
 10
-4.2
 11
-4.2
 20
-78
 21
-73.8
  0
LINE
  8
0
 10
-4.2
 11
0
 20
-73.8
 21
-73.8
  0
LINE
  8
0
 10
0
 11
0
 20
-73.8
 21
-65.4
  0
LINE
  8
0
 10
0
 11
4.2
 20
-65.4
 21
-65.4
  0
LINE
  8
0
 10
4.2
 11
4.2
 20
-65.4
 21
-69.6
  0
LINE
  8
0
 10
4.2
 11
8.4
 20
-69.6
 21
-69.6
  0
LINE
  8
0
 10
8.4
 11
8.4
 20
-69.6
 21
-65.4
  0
LINE
  8
0
 10
8.4
 11
12.6
 20
-65.4
 21
-65.4
  0
LINE
  8
0
 10
12.6
 11
12.6
 20
-65.4
 21
-69.6
  0
LINE
  8
0
 10
12.6
 11
16.8
 20
-69.6
 21
-69.6
  0
LINE
  8
0
 10
16.8
 11
16.8
 20
-69.6
 21
-65.4
  0
LINE
  8
0
 10
16.8
 11
21
 20
-65.4
 21
-65.4
  0
LINE
  8
0
 10
21
 11
21
 20
-65.4
 21
-69.6
  0
LINE
  8
0
 10
21
 11
25.2
 20
-69.6
 21
-69.6
  0
LINE
  8
0
 10
25.2
 11
25.2
 20
-69.6
 21
-65.4
  0
LINE
  8
0
 10
25.2
 11
29.4
 20
-65.4
 21
-65.4
  0
LINE
  8
0
 10
29.4
 11
29.4
 20
-65.4
 21
-69.6
  0
LINE
  8
0
 10
29.4
 11
33.6
 20
-69.6
 21
-69.6
  0
LINE
  8
0
 10
33.6
 11
33.6
 20
-69.6
 21
-65.4
  0
LINE
  8
0
 10
33.6
 11
37.8
 20
-65.4
 21
-65.4
  0
LINE
  8
0
 10
37.8
 11
37.8
 20
-65.4
 21
-69.6
  0
LINE
  8
0
 10
37.8
 11
42
 20
-69.6
 21
-69.6
  0
LINE
  8
0
 10
42
 11
42
 20
-69.6
 21
-65.4
  0
LINE
  8
0
 10
42
 11
46.2
 20
-65.4
 21
-65.4
  0
LINE
  8
0
 10
46.2
 11
46.2
 20
-65.4
 21
-69.6
  0
LINE
  8
0
 10
46.2
 11
50.4
 20
-69.6
 21
-69.6
  0
LINE
  8
0
 10
50.4
 11
50.4
 20
-69.6
 21
-65.4
  0
LINE
  8
0
 10
50.4
 11
54.6
 20
-65.4
 21
-65.4
  0
LINE
  8
0
 10
54.6
 11
54.6
 20
-65.4
 21
-69.6
  0
LINE
  8
0
 10
54.6
 11
58.8
 20
-69.6
 21
-69.6
  0
LINE
  8
0
 10
58.8
 11
58.8
 20
-69.6
 21
-65.4
  0
LINE
  8
0
 10
58.8
 11
63
 20
-65.4
 21
-65.4
  0
LINE
  8
0
 10
63
 11
63
 20
-65.4
 21
-69.6
  0
LINE
  8
0
 10
63
 11
71.4
 20
-69.6
 21
-69.6
  0
LINE
  8
0
 10
71.4
 11
71.4
 20
-69.6
 21
-73.8
  0
LINE
  8
0
 10
71.4
 11
67.2
 20
-73.8
 21
-73.8
  0
LINE
  8
0
 10
67.2
 11
67.2
 20
-73.8
 21
-78
  0
LINE
  8
0
 10
67.2
 11
71.4
 20
-78
 21
-78
  0
LINE
  8
0
 10
71.4
 11
71.4
 20
-78
 21
-82.2
  0
LINE
  8
0
 10
71.4
 11
67.2
 20
-82.2
 21
-82.2
  0
LINE
  8
0
 10
67.2
 11
67.2
 20
-82.2
 21
-86.4
  0
LINE
  8
0
 10
67.2
 11
71.4
 20
-86.4
 21
-86.4
  0
LINE
  8
0
 10
71.4
 11
71.4
 20
-86.4
 21
-90.6
  0
LINE
  8
0
 10
71.4
 11
67.2
 20
-90.6
 21
-90.6
  0
LINE
  8
0
 10
67.2
 11
67.2
 20
-90.6
 21
-94.8
  0
LINE
  8
0
 10
67.2
 11
71.4
 20
-94.8
 21
-94.8
  0
LINE
  8
0
 10
71.4
 11
71.4
 20
-94.8
 21
-99
  0
LINE
  8
0
 10
71.4
 11
67.2
 20
-99
 21
-99
  0
LINE
  8
0
 10
67.2
 11
67.2
 20
-99
 21
-103.2
  0
LINE
  8
0
 10
67.2
 11
71.4
 20
-103.2
 21
-103.2
  0
LINE
  8
0
 10
71.4
 11
71.4
 20
-103.2
 21
-107.4
  0
LINE
  8
0
 10
71.4
 11
67.2
 20
-107.4
 21
-107.4
  0
LINE
  8
0
 10
67.2
 11
67.2
 20
-107.4
 21
-111.6
  0
LINE
  8
0
 10
67.2
 11
71.4
 20
-111.6
 21
-111.6
  0
LINE
  8
0
 10
71.4
 11
71.4
 20
-111.6
 21
-115.8
  0
LINE
  8
0
 10
71.4
 11
67.2
 20
-115.8
 21
-115.8
  0
LINE
  8
0
 10
67.2
 11
67.2
 20
-115.8
 21
-124.2
  0
LINE
  8
0
 10
67.2
 11
63
 20
-124.2
 21
-124.2
  0
LINE
  8
0
 10
63
 11
63
 20
-124.2
 21
-120
  0
LINE
  8
0
 10
63
 11
58.8
 20
-120
 21
-120
  0
LINE
  8
0
 10
58.8
 11
58.8
 20
-120
 21
-124.2
  0
LINE
  8
0
 10
58.8
 11
54.6
 20
-124.2
 21
-124.2
  0
LINE
  8
0
 10
54.6
 11
54.6
 20
-124.2
 21
-120
  0
LINE
  8
0
 10
54.6
 11
50.4
 20
-120
 21
-120
  0
LINE
  8
0
 10
50.4
 11
50.4
 20
-120
 21
-124.2
  0
LINE
  8
0
 10
50.4
 11
46.2
 20
-124.2
 21
-124.2
  0
LINE
  8
0
 10
46.2
 11
46.2
 20
-124.2
 21
-120
  0
LINE
  8
0
 10
46.2
 11
42
 20
-120
 21
-120
  0
LINE
  8
0
 10
42
 11
42
 20
-120
 21
-124.2
  0
LINE
  8
0
 10
42
 11
37.8
 20
-124.2
 21
-124.2
  0
LINE
  8
0
 10
37.8
 11
37.8
 20
-124.2
 21
-120
  0
LINE
  8
0
 10
37.8
 11
33.6
 20
-120
 21
-120
  0
LINE
  8
0
 10
33.6
 11
33.6
 20
-120
 21
-124.2
  0
LINE
  8
0
 10
33.6
 11
29.4
 20
-124.2
 21
-124.2
  0
LINE
  8
0
 10
29.4
 11
29.4
 20
-124.2
 21
-120
  0
LINE
  8
0
 10
29.4
 11
25.2
 20
-120
 21
-120
  0
LINE
  8
0
 10
25.2
 11
25.2
 20
-120
 21
-124.2
  0
LINE
  8
0
 10
25.2
 11
21
 20
-124.2
 21
-124.2
  0
LINE
  8
0
 10
21
 11
21
 20
-124.2
 21
-120
  0
LINE
  8
0
 10
21
 11
16.8
 20
-120
 21
-120
  0
LINE
  8
0
 10
16.8
 11
16.8
 20
-120
 21
-124.2
  0
LINE
  8
0
 10
16.8
 11
12.6
 20
-124.2
 21
-124.2
  0
LINE
  8
0
 10
12.6
 11
12.6
 20
-124.2
 21
-120
  0
LINE
  8
0
 10
12.6
 11
8.4
 20
-120
 21
-120
  0
LINE
  8
0
 10
8.4
 11
8.4
 20
-120
 21
-124.2
  0
LINE
  8
0
 10
8.4
 11
4.2
 20
-124.2
 21
-124.2
  0
LINE
  8
0
 10
4.2
 11
4.2
 20
-124.2
 21
-120
  0
LINE
  8
0
 10
4.2
 11
-4.2
 20
-120
 21
-120
  0
LINE
  8
0
 10
-4.2
 11
-4.2
 20
-60
 21
-55.8
  0
LINE
  8
0
 10
-4.2
 11
0
 20
-55.8
 21
-55.8
  0
LINE
  8
0
 10
0
 11
0
 20
-55.8
 21
-51.6
  0
LINE
  8
0
 10
0
 11
-4.2
 20
-51.6
 21
-51.6
  0
LINE
  8
0
 10
-4.2
 11
-4.2
 20
-51.6
 21
-47.4
  0
LINE
  8
0
 10
-4.2
 11
0
 20
-47.4
 21
-47.4
  0
LINE
  8
0
 10
0
 11
0
 20
-47.4
 21
-43.2
  0
LINE
  8
0
 10
0
 11
-4.2
 20
-43.2
 21
-43.2
  0
LINE
  8
0
 10
-4.2
 11
-4.2
 20
-43.2
 21
-39
  0
LINE
  8
0
 10
-4.2
 11
0
 20
-39
 21
-39
  0
LINE
  8
0
 10
0
 11
0
 20
-39
 21
-34.8
  0
LINE
  8
0
 10
0
 11
-4.2
 20
-34.8
 21
-34.8
  0
LINE
  8
0
 10
-4.2
 11
-4.2
 20
-34.8
 21
-30.6
  0
LINE
  8
0
 10
-4.2
 11
0
 20
-30.6
 21
-30.6
  0
LINE
  8
0
 10
0
 11
0
 20
-30.6
 21
-26.4
  0
LINE
  8
0
 10
0
 11
-4.2
 20
-26.4
 21
-26.4
  0
LINE
  8
0
 10
-4.2
 11
-4.2
 20
-26.4
 21
-22.2
  0
LINE
  8
0
 10
-4.2
 11
0
 20
-22.2
 21
-22.2
  0
LINE
  8
0
 10
0
 11
0
 20
-22.2
 21
-18
  0
LINE
  8
0
 10
0
 11
-4.2
 20
-18
 21
-18
  0
LINE
  8
0
 10
-4.2
 11
-4.2
 20
-18
 21
-13.8
  0
LINE
  8
0
 10
-4.2
 11
0
 20
-13.8
 21
-13.8
  0
LINE
  8
0
 10
0
 11
0
 20
-13.8
 21
-5.4
  0
LINE
  8
0
 10
0
 11
4.2
 20
-5.4
 21
-5.4
  0
LINE
  8
0
 10
4.2
 11
4.2
 20
-5.4
 21
-9.6
  0
LINE
  8
0
 10
4.2
 11
8.4
 20
-9.6
 21
-9.6
  0
LINE
  8
0
 10
8.4
 11
8.4
 20
-9.6
 21
-5.4
  0
LINE
  8
0
 10
8.4
 11
12.6
 20
-5.4
 21
-5.4
  0
LINE
  8
0
 10
12.6
 11
12.6
 20
-5.4
 21
-9.6
  0
LINE
  8
0
 10
12.6
 11
16.8
 20
-9.6
 21
-9.6
  0
LINE
  8
0
 10
16.8
 11
16.8
 20
-9.6
 21
-5.4
  0
LINE
  8
0
 10
16.8
 11
21
 20
-5.4
 21
-5.4
  0
LINE
  8
0
 10
21
 11
21
 20
-5.4
 21
-9.6
  0
LINE
  8
0
 10
21
 11
25.2
 20
-9.6
 21
-9.6
  0
LINE
  8
0
 10
25.2
 11
25.2
 20
-9.6
 21
-5.4
  0
LINE
  8
0
 10
25.2
 11
29.4
 20
-5.4
 21
-5.4
  0
LINE
  8
0
 10
29.4
 11
29.4
 20
-5.4
 21
-9.6
  0
LINE
  8
0
 10
29.4
 11
33.6
 20
-9.6
 21
-9.6
  0
LINE
  8
0
 10
33.6
 11
33.6
 20
-9.6
 21
-5.4
  0
LINE
  8
0
 10
33.6
 11
37.8
 20
-5.4
 21
-5.4
  0
LINE
  8
0
 10
37.8
 11
37.8
 20
-5.4
 21
-9.6
  0
LINE
  8
0
 10
37.8
 11
42
 20
-9.6
 21
-9.6
  0
LINE
  8
0
 10
42
 11
42
 20
-9.6
 21
-5.4
  0
LINE
  8
0
 10
42
 11
46.2
 20
-5.4
 21
-5.4
  0
LINE
  8
0
 10
46.2
 11
46.2
 20
-5.4
 21
-9.6
  0
LINE
  8
0
 10
46.2
 11
50
 20
-9.6
 21
-9.6
  0
LINE
  8
0
 10
50
 11
50
 20
-9.6
 21
-13.8
  0
LINE
  8
0
 10
50
 11
54.2
 20
-13.8
 21
-13.8
  0
LINE
  8
0
 10
54.2
 11
54.2
 20
-13.8
 21
-9.6
  0
LINE
  8
0
 10
54.2
 11
50.4
 20
-9.6
 21
-9.6
  0
LINE
  8
0
 10
50.4
 11
50.4
 20
-9.6
 21
-5.4
  0
LINE
  8
0
 10
50.4
 11
54.6
 20
-5.4
 21
-5.4
  0
LINE
  8
0
 10
54.6
 11
54.6
 20
-5.4
 21
-9.6
  0
LINE
  8
0
 10
54.6
 11
58.8
 20
-9.6
 21
-9.6
  0
LINE
  8
0
 10
58.8
 11
58.8
 20
-9.6
 21
-5.4
  0
LINE
  8
0
 10
58.8
 11
63
 20
-5.4
 21
-5.4
  0
LINE
  8
0
 10
63
 11
63
 20
-5.4
 21
-9.6
  0
LINE
  8
0
 10
63
 11
67.2
 20
-9.6
 21
-9.6
  0
LINE
  8
0
 10
67.2
 11
67.2
 20
-9.6
 21
-5.4
  0
LINE
  8
0
 10
67.2
 11
71.4
 20
-5.4
 21
-5.4
  0
LINE
  8
0
 10
71.4
 11
71.4
 20
-5.4
 21
-9.6
  0
LINE
  8
0
 10
71.4
 11
75.6
 20
-9.6
 21
-9.6
  0
LINE
  8
0
 10
75.6
 11
75.6
 20
-9.6
 21
-5.4
  0
LINE
  8
0
 10
75.6
 11
79.8
 20
-5.4
 21
-5.4
  0
LINE
  8
0
 10
79.8
 11
79.8
 20
-5.4
 21
-9.6
  0
LINE
  8
0
 10
79.8
 11
84
 20
-9.6
 21
-9.6
  0
LINE
  8
0
 10
84
 11
84
 20
-9.6
 21
-5.4
  0
LINE
  8
0
 10
84
 11
88.2
 20
-5.4
 21
-5.4
  0
LINE
  8
0
 10
88.2
 11
88.2
 20
-5.4
 21
-9.6
  0
LINE
  8
0
 10
88.2
 11
92.4
 20
-9.6
 21
-9.6
  0
LINE
  8
0
 10
92.4
 11
92.4
 20
-9.6
 21
-5.4
  0
LINE
  8
0
 10
92.4
 11
96.6
 20
-5.4
 21
-5.4
  0
LINE
  8
0
 10
96.6
 11
96.6
 20
-5.4
 21
-9.6
  0
LINE
  8
0
 10
96.6
 11
100.8
 20
-9.6
 21
-9.6
  0
LINE
  8
0
 10
100.8
 11
100.8
 20
-9.6
 21
-5.4
  0
LINE
  8
0
 10
100.8
 11
105
 20
-5.4
 21
-5.4
  0
LINE
  8
0
 10
105
 11
105
 20
-5.4
 21
-9.6
  0
LINE
  8
0
 10
105
 11
109.2
 20
-9.6
 21
-9.6
  0
LINE
  8
0
 10
109.2
 11
109.2
 20
-9.6
 21
-5.4
  0
LINE
  8
0
 10
109.2
 11
113.4
 20
-5.4
 21
-5.4
  0
LINE
  8
0
 10
113.4
 11
113.4
 20
-5.4
 21
-9.6
  0
LINE
  8
0
 10
113.4
 11
117.6
 20
-9.6
 21
-9.6
  0
LINE
  8
0
 10
117.6
 11
117.6
 20
-9.6
 21
-5.4
  0
LINE
  8
0
 10
117.6
 11
121.8
 20
-5.4
 21
-5.4
  0
LINE
  8
0
 10
121.8
 11
121.8
 20
-5.4
 21
-9.6
  0
LINE
  8
0
 10
121.8
 11
126
 20
-9.6
 21
-9.6
  0
LINE
  8
0
 10
126
 11
126
 20
-9.6
 21
-5.4
  0
LINE
  8
0
 10
126
 11
130.2
 20
-5.4
 21
-5.4
  0
LINE
  8
0
 10
130.2
 11
130.2
 20
-5.4
 21
-9.6
  0
LINE
  8
0
 10
130.2
 11
134.4
 20
-9.6
 21
-9.6
  0
LINE
  8
0
 10
134.4
 11
134.4
 20
-9.6
 21
-5.4
  0
LINE
  8
0
 10
134.4
 11
138.6
 20
-5.4
 21
-5.4
  0
LINE
  8
0
 10
138.6
 11
138.6
 20
-5.4
 21
-9.6
  0
LINE
  8
0
 10
138.6
 11
142.8
 20
-9.6
 21
-9.6
  0
LINE
  8
0
 10
142.8
 11
142.8
 20
-9.6
 21
-5.4
  0
LINE
  8
0
 10
142.8
 11
147
 20
-5.4
 21
-5.4
  0
LINE
  8
0
 10
147
 11
147
 20
-5.4
 21
-9.6
  0
LINE
  8
0
 10
147
 11
151.2
 20
-9.6
 21
-9.6
  0
LINE
  8
0
 10
151.2
 11
151.2
 20
-9.6
 21
-5.4
  0
LINE
  8
0
 10
151.2
 11
155.4
 20
-5.4
 21
-5.4
  0
LINE
  8
0
 10
155.4
 11
155.4
 20
-5.4
 21
-9.6
  0
LINE
  8
0
 10
155.4
 11
159.6
 20
-9.6
 21
-9.6
  0
LINE
  8
0
 10
159.6
 11
159.6
 20
-9.6
 21
-5.4
  0
LINE
  8
0
 10
159.6
 11
163.8
 20
-5.4
 21
-5.4
  0
LINE
  8
0
 10
163.8
 11
163.8
 20
-5.4
 21
-9.6
  0
LINE
  8
0
 10
163.8
 11
168
 20
-9.6
 21
-9.6
  0
LINE
  8
0
 10
168
 11
168
 20
-9.6
 21
-5.4
  0
LINE
  8
0
 10
168
 11
172.2
 20
-5.4
 21
-5.4
  0
LINE
  8
0
 10
172.2
 11
172.2
 20
-5.4
 21
-9.6
  0
LINE
  8
0
 10
172.2
 11
176.4
 20
-9.6
 21
-9.6
  0
LINE
  8
0
 10
176.4
 11
176.4
 20
-9.6
 21
-5.4
  0
LINE
  8
0
 10
176.4
 11
180.6
 20
-5.4
 21
-5.4
  0
LINE
  8
0
 10
180.6
 11
180.6
 20
-5.4
 21
-9.6
  0
LINE
  8
0
 10
180.6
 11
184.8
 20
-9.6
 21
-9.6
  0
LINE
  8
0
 10
184.8
 11
184.8
 20
-9.6
 21
-5.4
  0
LINE
  8
0
 10
184.8
 11
189
 20
-5.4
 21
-5.4
  0
LINE
  8
0
 10
189
 11
189
 20
-5.4
 21
-9.6
  0
LINE
  8
0
 10
189
 11
193.2
 20
-9.6
 21
-9.6
  0
LINE
  8
0
 10
193.2
 11
193.2
 20
-9.6
 21
-5.4
  0
LINE
  8
0
 10
193.2
 11
197.4
 20
-5.4
 21
-5.4
  0
LINE
  8
0
 10
197.4
 11
197.4
 20
-5.4
 21
-9.6
  0
LINE
  8
0
 10
197.4
 11
201.6
 20
-9.6
 21
-9.6
  0
LINE
  8
0
 10
201.6
 11
201.6
 20
-9.6
 21
-5.4
  0
LINE
  8
0
 10
201.6
 11
205.8
 20
-5.4
 21
-5.4
  0
LINE
  8
0
 10
205.8
 11
205.8
 20
-5.4
 21
-9.6
  0
LINE
  8
0
 10
205.8
 11
210
 20
-9.6
 21
-9.6
  0
LINE
  8
0
 10
210
 11
210
 20
-9.6
 21
-5.4
  0
LINE
  8
0
 10
210
 11
214.2
 20
-5.4
 21
-5.4
  0
LINE
  8
0
 10
214.2
 11
214.2
 20
-5.4
 21
-9.6
  0
LINE
  8
0
 10
214.2
 11
218.4
 20
-9.6
 21
-9.6
  0
LINE
  8
0
 10
218.4
 11
218.4
 20
-9.6
 21
-5.4
  0
LINE
  8
0
 10
218.4
 11
222.6
 20
-5.4
 21
-5.4
  0
LINE
  8
0
 10
222.6
 11
222.6
 20
-5.4
 21
-9.6
  0
LINE
  8
0
 10
222.6
 11
226.8
 20
-9.6
 21
-9.6
  0
LINE
  8
0
 10
226.8
 11
226.8
 20
-9.6
 21
-5.4
  0
LINE
  8
0
 10
226.8
 11
231
 20
-5.4
 21
-5.4
  0
LINE
  8
0
 10
231
 11
231
 20
-5.4
 21
-9.6
  0
LINE
  8
0
 10
231
 11
235.2
 20
-9.6
 21
-9.6
  0
LINE
  8
0
 10
235.2
 11
235.2
 20
-9.6
 21
-5.4
  0
LINE
  8
0
 10
235.2
 11
239.4
 20
-5.4
 21
-5.4
  0
LINE
  8
0
 10
239.4
 11
239.4
 20
-5.4
 21
-9.6
  0
LINE
  8
0
 10
239.4
 11
243.6
 20
-9.6
 21
-9.6
  0
LINE
  8
0
 10
243.6
 11
243.6
 20
-9.6
 21
-5.4
  0
LINE
  8
0
 10
243.6
 11
247.8
 20
-5.4
 21
-5.4
  0
LINE
  8
0
 10
247.8
 11
247.8
 20
-5.4
 21
-9.6
  0
LINE
  8
0
 10
247.8
 11
252
 20
-9.6
 21
-9.6
  0
LINE
  8
0
 10
252
 11
252
 20
-9.6
 21
-5.4
  0
LINE
  8
0
 10
252
 11
256.2
 20
-5.4
 21
-5.4
  0
LINE
  8
0
 10
256.2
 11
256.2
 20
-5.4
 21
-9.6
  0
LINE
  8
0
 10
256.2
 11
260.4
 20
-9.6
 21
-9.6
  0
LINE
  8
0
 10
260.4
 11
260.4
 20
-9.6
 21
-5.4
  0
LINE
  8
0
 10
260.4
 11
264.6
 20
-5.4
 21
-5.4
  0
LINE
  8
0
 10
264.6
 11
264.6
 20
-5.4
 21
-9.6
  0
LINE
  8
0
 10
264.6
 11
273
 20
-9.6
 21
-9.6
  0
LINE
  8
0
 10
273
 11
273
 20
-9.6
 21
-13.8
  0
LINE
  8
0
 10
273
 11
268.8
 20
-13.8
 21
-13.8
  0
LINE
  8
0
 10
268.8
 11
268.8
 20
-13.8
 21
-18
  0
LINE
  8
0
 10
268.8
 11
273
 20
-18
 21
-18
  0
LINE
  8
0
 10
273
 11
273
 20
-18
 21
-22.2
  0
LINE
  8
0
 10
273
 11
268.8
 20
-22.2
 21
-22.2
  0
LINE
  8
0
 10
268.8
 11
268.8
 20
-22.2
 21
-26.4
  0
LINE
  8
0
 10
268.8
 11
273
 20
-26.4
 21
-26.4
  0
LINE
  8
0
 10
273
 11
273
 20
-26.4
 21
-30.6
  0
LINE
  8
0
 10
273
 11
268.8
 20
-30.6
 21
-30.6
  0
LINE
  8
0
 10
268.8
 11
268.8
 20
-30.6
 21
-34.8
  0
LINE
  8
0
 10
268.8
 11
273
 20
-34.8
 21
-34.8
  0
LINE
  8
0
 10
273
 11
273
 20
-34.8
 21
-39
  0
LINE
  8
0
 10
273
 11
268.8
 20
-39
 21
-39
  0
LINE
  8
0
 10
268.8
 11
268.8
 20
-39
 21
-43.2
  0
LINE
  8
0
 10
268.8
 11
273
 20
-43.2
 21
-43.2
  0
LINE
  8
0
 10
273
 11
273
 20
-43.2
 21
-47.4
  0
LINE
  8
0
 10
273
 11
268.8
 20
-47.4
 21
-47.4
  0
LINE
  8
0
 10
268.8
 11
268.8
 20
-47.4
 21
-51.6
  0
LINE
  8
0
 10
268.8
 11
273
 20
-51.6
 21
-51.6
  0
LINE
  8
0
 10
273
 11
273
 20
-51.6
 21
-55.8
  0
LINE
  8
0
 10
273
 11
268.8
 20
-55.8
 21
-55.8
  0
LINE
  8
0
 10
268.8
 11
268.8
 20
-55.8
 21
-64.2
  0
LINE
  8
0
 10
268.8
 11
264.6
 20
-64.2
 21
-64.2
  0
LINE
  8
0
 10
264.6
 11
264.6
 20
-64.2
 21
-60
  0
LINE
  8
0
 10
264.6
 11
260.4
 20
-60
 21
-60
  0
LINE
  8
0
 10
260.4
 11
260.4
 20
-60
 21
-64.2
  0
LINE
  8
0
 10
260.4
 11
256.2
 20
-64.2
 21
-64.2
  0
LINE
  8
0
 10
256.2
 11
256.2
 20
-64.2
 21
-60
  0
LINE
  8
0
 10
256.2
 11
252
 20
-60
 21
-60
  0
LINE
  8
0
 10
252
 11
252
 20
-60
 21
-64.2
  0
LINE
  8
0
 10
252
 11
247.8
 20
-64.2
 21
-64.2
  0
LINE
  8
0
 10
247.8
 11
247.8
 20
-64.2
 21
-60
  0
LINE
  8
0
 10
247.8
 11
243.6
 20
-60
 21
-60
  0
LINE
  8
0
 10
243.6
 11
243.6
 20
-60
 21
-64.2
  0
LINE
  8
0
 10
243.6
 11
239.4
 20
-64.2
 21
-64.2
  0
LINE
  8
0
 10
239.4
 11
239.4
 20
-64.2
 21
-60
  0
LINE
  8
0
 10
239.4
 11
235.2
 20
-60
 21
-60
  0
LINE
  8
0
 10
235.2
 11
235.2
 20
-60
 21
-64.2
  0
LINE
  8
0
 10
235.2
 11
231
 20
-64.2
 21
-64.2
  0
LINE
  8
0
 10
231
 11
231
 20
-64.2
 21
-60
  0
LINE
  8
0
 10
231
 11
226.8
 20
-60
 21
-60
  0
LINE
  8
0
 10
226.8
 11
226.8
 20
-60
 21
-64.2
  0
LINE
  8
0
 10
226.8
 11
222.6
 20
-64.2
 21
-64.2
  0
LINE
  8
0
 10
222.6
 11
222.6
 20
-64.2
 21
-60
  0
LINE
  8
0
 10
222.6
 11
218.4
 20
-60
 21
-60
  0
LINE
  8
0
 10
218.4
 11
218.4
 20
-60
 21
-64.2
  0
LINE
  8
0
 10
218.4
 11
214.2
 20
-64.2
 21
-64.2
  0
LINE
  8
0
 10
214.2
 11
214.2
 20
-64.2
 21
-60
  0
LINE
  8
0
 10
214.2
 11
210
 20
-60
 21
-60
  0
LINE
  8
0
 10
210
 11
210
 20
-60
 21
-64.2
  0
LINE
  8
0
 10
210
 11
205.8
 20
-64.2
 21
-64.2
  0
LINE
  8
0
 10
205.8
 11
205.8
 20
-64.2
 21
-60
  0
LINE
  8
0
 10
205.8
 11
201.6
 20
-60
 21
-60
  0
LINE
  8
0
 10
201.6
 11
201.6
 20
-60
 21
-64.2
  0
LINE
  8
0
 10
201.6
 11
197.4
 20
-64.2
 21
-64.2
  0
LINE
  8
0
 10
197.4
 11
197.4
 20
-64.2
 21
-60
  0
LINE
  8
0
 10
197.4
 11
193.2
 20
-60
 21
-60
  0
LINE
  8
0
 10
193.2
 11
193.2
 20
-60
 21
-64.2
  0
LINE
  8
0
 10
193.2
 11
189
 20
-64.2
 21
-64.2
  0
LINE
  8
0
 10
189
 11
189
 20
-64.2
 21
-60
  0
LINE
  8
0
 10
189
 11
184.8
 20
-60
 21
-60
  0
LINE
  8
0
 10
184.8
 11
184.8
 20
-60
 21
-64.2
  0
LINE
  8
0
 10
184.8
 11
180.6
 20
-64.2
 21
-64.2
  0
LINE
  8
0
 10
180.6
 11
180.6
 20
-64.2
 21
-60
  0
LINE
  8
0
 10
180.6
 11
176.4
 20
-60
 21
-60
  0
LINE
  8
0
 10
176.4
 11
176.4
 20
-60
 21
-64.2
  0
LINE
  8
0
 10
176.4
 11
172.2
 20
-64.2
 21
-64.2
  0
LINE
  8
0
 10
172.2
 11
172.2
 20
-64.2
 21
-60
  0
LINE
  8
0
 10
172.2
 11
168
 20
-60
 21
-60
  0
LINE
  8
0
 10
168
 11
168
 20
-60
 21
-64.2
  0
LINE
  8
0
 10
168
 11
163.8
 20
-64.2
 21
-64.2
  0
LINE
  8
0
 10
163.8
 11
163.8
 20
-64.2
 21
-60
  0
LINE
  8
0
 10
163.8
 11
159.6
 20
-60
 21
-60
  0
LINE
  8
0
 10
159.6
 11
159.6
 20
-60
 21
-64.2
  0
LINE
  8
0
 10
159.6
 11
155.4
 20
-64.2
 21
-64.2
  0
LINE
  8
0
 10
155.4
 11
155.4
 20
-64.2
 21
-60
  0
LINE
  8
0
 10
155.4
 11
151.2
 20
-60
 21
-60
  0
LINE
  8
0
 10
151.2
 11
151.2
 20
-60
 21
-64.2
  0
LINE
  8
0
 10
151.2
 11
147
 20
-64.2
 21
-64.2
  0
LINE
  8
0
 10
147
 11
147
 20
-64.2
 21
-60
  0
LINE
  8
0
 10
147
 11
142.8
 20
-60
 21
-60
  0
LINE
  8
0
 10
142.8
 11
142.8
 20
-60
 21
-64.2
  0
LINE
  8
0
 10
142.8
 11
138.6
 20
-64.2
 21
-64.2
  0
LINE
  8
0
 10
138.6
 11
138.6
 20
-64.2
 21
-60
  0
LINE
  8
0
 10
138.6
 11
134.4
 20
-60
 21
-60
  0
LINE
  8
0
 10
134.4
 11
134.4
 20
-60
 21
-64.2
  0
LINE
  8
0
 10
134.4
 11
130.2
 20
-64.2
 21
-64.2
  0
LINE
  8
0
 10
130.2
 11
130.2
 20
-64.2
 21
-60
  0
LINE
  8
0
 10
130.2
 11
126
 20
-60
 21
-60
  0
LINE
  8
0
 10
126
 11
126
 20
-60
 21
-64.2
  0
LINE
  8
0
 10
126
 11
121.8
 20
-64.2
 21
-64.2
  0
LINE
  8
0
 10
121.8
 11
121.8
 20
-64.2
 21
-60
  0
LINE
  8
0
 10
121.8
 11
117.6
 20
-60
 21
-60
  0
LINE
  8
0
 10
117.6
 11
117.6
 20
-60
 21
-64.2
  0
LINE
  8
0
 10
117.6
 11
113.4
 20
-64.2
 21
-64.2
  0
LINE
  8
0
 10
113.4
 11
113.4
 20
-64.2
 21
-60
  0
LINE
  8
0
 10
113.4
 11
109.2
 20
-60
 21
-60
  0
LINE
  8
0
 10
109.2
 11
109.2
 20
-60
 21
-64.2
  0
LINE
  8
0
 10
109.2
 11
105
 20
-64.2
 21
-64.2
  0
LINE
  8
0
 10
105
 11
105
 20
-64.2
 21
-60
  0
LINE
  8
0
 10
105
 11
100.8
 20
-60
 21
-60
  0
LINE
  8
0
 10
100.8
 11
100.8
 20
-60
 21
-64.2
  0
LINE
  8
0
 10
100.8
 11
96.6
 20
-64.2
 21
-64.2
  0
LINE
  8
0
 10
96.6
 11
96.6
 20
-64.2
 21
-60
  0
LINE
  8
0
 10
96.6
 11
92.4
 20
-60
 21
-60
  0
LINE
  8
0
 10
92.4
 11
92.4
 20
-60
 21
-64.2
  0
LINE
  8
0
 10
92.4
 11
88.2
 20
-64.2
 21
-64.2
  0
LINE
  8
0
 10
88.2
 11
88.2
 20
-64.2
 21
-60
  0
LINE
  8
0
 10
88.2
 11
84
 20
-60
 21
-60
  0
LINE
  8
0
 10
84
 11
84
 20
-60
 21
-64.2
  0
LINE
  8
0
 10
84
 11
79.8
 20
-64.2
 21
-64.2
  0
LINE
  8
0
 10
79.8
 11
79.8
 20
-64.2
 21
-60
  0
LINE
  8
0
 10
79.8
 11
75.6
 20
-60
 21
-60
  0
LINE
  8
0
 10
75.6
 11
75.6
 20
-60
 21
-64.2
  0
LINE
  8
0
 10
75.6
 11
71.4
 20
-64.2
 21
-64.2
  0
LINE
  8
0
 10
71.4
 11
71.4
 20
-64.2
 21
-60
  0
LINE
  8
0
 10
71.4
 11
67.2
 20
-60
 21
-60
  0
LINE
  8
0
 10
67.2
 11
67.2
 20
-60
 21
-64.2
  0
LINE
  8
0
 10
67.2
 11
63
 20
-64.2
 21
-64.2
  0
LINE
  8
0
 10
63
 11
63
 20
-64.2
 21
-60
  0
LINE
  8
0
 10
63
 11
58.8
 20
-60
 21
-60
  0
LINE
  8
0
 10
58.8
 11
58.8
 20
-60
 21
-64.2
  0
LINE
  8
0
 10
58.8
 11
54.6
 20
-64.2
 21
-64.2
  0
LINE
  8
0
 10
54.6
 11
54.6
 20
-64.2
 21
-60
  0
LINE
  8
0
 10
54.6
 11
50.4
 20
-60
 21
-60
  0
LINE
  8
0
 10
50.4
 11
50.4
 20
-60
 21
-64.2
  0
LINE
  8
0
 10
50.4
 11
46.2
 20
-64.2
 21
-64.2
  0
LINE
  8
0
 10
46.2
 11
46.2
 20
-64.2
 21
-60
  0
LINE
  8
0
 10
46.2
 11
42
 20
-60
 21
-60
  0
LINE
  8
0
 10
42
 11
42
 20
-60
 21
-64.2
  0
LINE
  8
0
 10
42
 11
37.8
 20
-64.2
 21
-64.2
  0
LINE
  8
0
 10
37.8
 11
37.8
 20
-64.2
 21
-60
  0
LINE
  8
0
 10
37.8
 11
33.6
 20
-60
 21
-60
  0
LINE
  8
0
 10
33.6
 11
33.6
 20
-60
 21
-64.2
  0
LINE
  8
0
 10
33.6
 11
29.4
 20
-64.2
 21
-64.2
  0
LINE
  8
0
 10
29.4
 11
29.4
 20
-64.2
 21
-60
  0
LINE
  8
0
 10
29.4
 11
25.2
 20
-60
 21
-60
  0
LINE
  8
0
 10
25.2
 11
25.2
 20
-60
 21
-64.2
  0
LINE
  8
0
 10
25.2
 11
21
 20
-64.2
 21
-64.2
  0
LINE
  8
0
 10
21
 11
21
 20
-64.2
 21
-60
  0
LINE
  8
0
 10
21
 11
16.8
 20
-60
 21
-60
  0
LINE
  8
0
 10
16.8
 11
16.8
 20
-60
 21
-64.2
  0
LINE
  8
0
 10
16.8
 11
12.6
 20
-64.2
 21
-64.2
  0
LINE
  8
0
 10
12.6
 11
12.6
 20
-64.2
 21
-60
  0
LINE
  8
0
 10
12.6
 11
8.4
 20
-60
 21
-60
  0
LINE
  8
0
 10
8.4
 11
8.4
 20
-60
 21
-64.2
  0
LINE
  8
0
 10
8.4
 11
4.2
 20
-64.2
 21
-64.2
  0
LINE
  8
0
 10
4.2
 11
4.2
 20
-64.2
 21
-60
  0
LINE
  8
0
 10
4.2
 11
-4.2
 20
-60
 21
-60
  0
LINE
  8
0
 10
-4.2
 11
-4.2
 20
0
 21
4.2
  0
LINE
  8
0
 10
-4.2
 11
0
 20
4.2
 21
4.2
  0
LINE
  8
0
 10
0
 11
0
 20
4.2
 21
8.4
  0
LINE
  8
0
 10
0
 11
-4.2
 20
8.4
 21
8.4
  0
LINE
  8
0
 10
-4.2
 11
-4.2
 20
8.4
 21
12.6
  0
LINE
  8
0
 10
-4.2
 11
0
 20
12.6
 21
12.6
  0
LINE
  8
0
 10
0
 11
0
 20
12.6
 21
16.8
  0
LINE
  8
0
 10
0
 11
-4.2
 20
16.8
 21
16.8
  0
LINE
  8
0
 10
-4.2
 11
-4.2
 20
16.8
 21
21
  0
LINE
  8
0
 10
-4.2
 11
0
 20
21
 21
21
  0
LINE
  8
0
 10
0
 11
0
 20
21
 21
25.2
  0
LINE
  8
0
 10
0
 11
-4.2
 20
25.2
 21
25.2
  0
LINE
  8
0
 10
-4.2
 11
-4.2
 20
25.2
 21
29.4
  0
LINE
  8
0
 10
-4.2
 11
0
 20
29.4
 21
29.4
  0
LINE
  8
0
 10
0
 11
0
 20
29.4
 21
33.6
  0
LINE
  8
0
 10
0
 11
-4.2
 20
33.6
 21
33.6
  0
LINE
  8
0
 10
-4.2
 11
-4.2
 20
33.6
 21
37.8
  0
LINE
  8
0
 10
-4.2
 11
0
 20
37.8
 21
37.8
  0
LINE
  8
0
 10
0
 11
0
 20
37.8
 21
42
  0
LINE
  8
0
 10
0
 11
-4.2
 20
42
 21
42
  0
LINE
  8
0
 10
-4.2
 11
-4.2
 20
42
 21
46.2
  0
LINE
  8
0
 10
-4.2
 11
0
 20
46.2
 21
46.2
  0
LINE
  8
0
 10
0
 11
0
 20
46.2
 21
54.6
  0
LINE
  8
0
 10
0
 11
4.2
 20
54.6
 21
54.6
  0
LINE
  8
0
 10
4.2
 11
4.2
 20
54.6
 21
50.4
  0
LINE
  8
0
 10
4.2
 11
8.4
 20
50.4
 21
50.4
  0
LINE
  8
0
 10
8.4
 11
8.4
 20
50.4
 21
54.6
  0
LINE
  8
0
 10
8.4
 11
12.6
 20
54.6
 21
54.6
  0
LINE
  8
0
 10
12.6
 11
12.6
 20
54.6
 21
50.4
  0
LINE
  8
0
 10
12.6
 11
16.8
 20
50.4
 21
50.4
  0
LINE
  8
0
 10
16.8
 11
16.8
 20
50.4
 21
54.6
  0
LINE
  8
0
 10
16.8
 11
21
 20
54.6
 21
54.6
  0
LINE
  8
0
 10
21
 11
21
 20
54.6
 21
50.4
  0
LINE
  8
0
 10
21
 11
25.2
 20
50.4
 21
50.4
  0
LINE
  8
0
 10
25.2
 11
25.2
 20
50.4
 21
54.6
  0
LINE
  8
0
 10
25.2
 11
29.4
 20
54.6
 21
54.6
  0
LINE
  8
0
 10
29.4
 11
29.4
 20
54.6
 21
50.4
  0
LINE
  8
0
 10
29.4
 11
33.6
 20
50.4
 21
50.4
  0
LINE
  8
0
 10
33.6
 11
33.6
 20
50.4
 21
54.6
  0
LINE
  8
0
 10
33.6
 11
37.8
 20
54.6
 21
54.6
  0
LINE
  8
0
 10
37.8
 11
37.8
 20
54.6
 21
50.4
  0
LINE
  8
0
 10
37.8
 11
42
 20
50.4
 21
50.4
  0
LINE
  8
0
 10
42
 11
42
 20
50.4
 21
54.6
  0
LINE
  8
0
 10
42
 11
46.2
 20
54.6
 21
54.6
  0
LINE
  8
0
 10
46.2
 11
46.2
 20
54.6
 21
50.4
  0
LINE
  8
0
 10
46.2
 11
50
 20
50.4
 21
50.4
  0
LINE
  8
0
 10
50
 11
50
 20
50.4
 21
46.2
  0
LINE
  8
0
 10
50
 11
54.2
 20
46.2
 21
46.2
  0
LINE
  8
0
 10
54.2
 11
54.2
 20
46.2
 21
50.4
  0
LINE
  8
0
 10
54.2
 11
50.4
 20
50.4
 21
50.4
  0
LINE
  8
0
 10
50.4
 11
50.4
 20
50.4
 21
54.6
  0
LINE
  8
0
 10
50.4
 11
54.6
 20
54.6
 21
54.6
  0
LINE
  8
0
 10
54.6
 11
54.6
 20
54.6
 21
50.4
  0
LINE
  8
0
 10
54.6
 11
58.8
 20
50.4
 21
50.4
  0
LINE
  8
0
 10
58.8
 11
58.8
 20
50.4
 21
54.6
  0
LINE
  8
0
 10
58.8
 11
63
 20
54.6
 21
54.6
  0
LINE
  8
0
 10
63
 11
63
 20
54.6
 21
50.4
  0
LINE
  8
0
 10
63
 11
67.2
 20
50.4
 21
50.4
  0
LINE
  8
0
 10
67.2
 11
67.2
 20
50.4
 21
54.6
  0
LINE
  8
0
 10
67.2
 11
71.4
 20
54.6
 21
54.6
  0
LINE
  8
0
 10
71.4
 11
71.4
 20
54.6
 21
50.4
  0
LINE
  8
0
 10
71.4
 11
75.6
 20
50.4
 21
50.4
  0
LINE
  8
0
 10
75.6
 11
75.6
 20
50.4
 21
54.6
  0
LINE
  8
0
 10
75.6
 11
79.8
 20
54.6
 21
54.6
  0
LINE
  8
0
 10
79.8
 11
79.8
 20
54.6
 21
50.4
  0
LINE
  8
0
 10
79.8
 11
84
 20
50.4
 21
50.4
  0
LINE
  8
0
 10
84
 11
84
 20
50.4
 21
54.6
  0
LINE
  8
0
 10
84
 11
88.2
 20
54.6
 21
54.6
  0
LINE
  8
0
 10
88.2
 11
88.2
 20
54.6
 21
50.4
  0
LINE
  8
0
 10
88.2
 11
92.4
 20
50.4
 21
50.4
  0
LINE
  8
0
 10
92.4
 11
92.4
 20
50.4
 21
54.6
  0
LINE
  8
0
 10
92.4
 11
96.6
 20
54.6
 21
54.6
  0
LINE
  8
0
 10
96.6
 11
96.6
 20
54.6
 21
50.4
  0
LINE
  8
0
 10
96.6
 11
100.8
 20
50.4
 21
50.4
  0
LINE
  8
0
 10
100.8
 11
100.8
 20
50.4
 21
54.6
  0
LINE
  8
0
 10
100.8
 11
105
 20
54.6
 21
54.6
  0
LINE
  8
0
 10
105
 11
105
 20
54.6
 21
50.4
  0
LINE
  8
0
 10
105
 11
109.2
 20
50.4
 21
50.4
  0
LINE
  8
0
 10
109.2
 11
109.2
 20
50.4
 21
54.6
  0
LINE
  8
0
 10
109.2
 11
113.4
 20
54.6
 21
54.6
  0
LINE
  8
0
 10
113.4
 11
113.4
 20
54.6
 21
50.4
  0
LINE
  8
0
 10
113.4
 11
117.6
 20
50.4
 21
50.4
  0
LINE
  8
0
 10
117.6
 11
117.6
 20
50.4
 21
54.6
  0
LINE
  8
0
 10
117.6
 11
121.8
 20
54.6
 21
54.6
  0
LINE
  8
0
 10
121.8
 11
121.8
 20
54.6
 21
50.4
  0
LINE
  8
0
 10
121.8
 11
126
 20
50.4
 21
50.4
  0
LINE
  8
0
 10
126
 11
126
 20
50.4
 21
54.6
  0
LINE
  8
0
 10
126
 11
130.2
 20
54.6
 21
54.6
  0
LINE
  8
0
 10
130.2
 11
130.2
 20
54.6
 21
50.4
  0
LINE
  8
0
 10
130.2
 11
134.4
 20
50.4
 21
50.4
  0
LINE
  8
0
 10
134.4
 11
134.4
 20
50.4
 21
54.6
  0
LINE
  8
0
 10
134.4
 11
138.6
 20
54.6
 21
54.6
  0
LINE
  8
0
 10
138.6
 11
138.6
 20
54.6
 21
50.4
  0
LINE
  8
0
 10
138.6
 11
142.8
 20
50.4
 21
50.4
  0
LINE
  8
0
 10
142.8
 11
142.8
 20
50.4
 21
54.6
  0
LINE
  8
0
 10
142.8
 11
147
 20
54.6
 21
54.6
  0
LINE
  8
0
 10
147
 11
147
 20
54.6
 21
50.4
  0
LINE
  8
0
 10
147
 11
151.2
 20
50.4
 21
50.4
  0
LINE
  8
0
 10
151.2
 11
151.2
 20
50.4
 21
54.6
  0
LINE
  8
0
 10
151.2
 11
155.4
 20
54.6
 21
54.6
  0
LINE
  8
0
 10
155.4
 11
155.4
 20
54.6
 21
50.4
  0
LINE
  8
0
 10
155.4
 11
159.6
 20
50.4
 21
50.4
  0
LINE
  8
0
 10
159.6
 11
159.6
 20
50.4
 21
54.6
  0
LINE
  8
0
 10
159.6
 11
163.8
 20
54.6
 21
54.6
  0
LINE
  8
0
 10
163.8
 11
163.8
 20
54.6
 21
50.4
  0
LINE
  8
0
 10
163.8
 11
168
 20
50.4
 21
50.4
  0
LINE
  8
0
 10
168
 11
168
 20
50.4
 21
54.6
  0
LINE
  8
0
 10
168
 11
172.2
 20
54.6
 21
54.6
  0
LINE
  8
0
 10
172.2
 11
172.2
 20
54.6
 21
50.4
  0
LINE
  8
0
 10
172.2
 11
176.4
 20
50.4
 21
50.4
  0
LINE
  8
0
 10
176.4
 11
176.4
 20
50.4
 21
54.6
  0
LINE
  8
0
 10
176.4
 11
180.6
 20
54.6
 21
54.6
  0
LINE
  8
0
 10
180.6
 11
180.6
 20
54.6
 21
50.4
  0
LINE
  8
0
 10
180.6
 11
184.8
 20
50.4
 21
50.4
  0
LINE
  8
0
 10
184.8
 11
184.8
 20
50.4
 21
54.6
  0
LINE
  8
0
 10
184.8
 11
189
 20
54.6
 21
54.6
  0
LINE
  8
0
 10
189
 11
189
 20
54.6
 21
50.4
  0
LINE
  8
0
 10
189
 11
193.2
 20
50.4
 21
50.4
  0
LINE
  8
0
 10
193.2
 11
193.2
 20
50.4
 21
54.6
  0
LINE
  8
0
 10
193.2
 11
197.4
 20
54.6
 21
54.6
  0
LINE
  8
0
 10
197.4
 11
197.4
 20
54.6
 21
50.4
  0
LINE
  8
0
 10
197.4
 11
201.6
 20
50.4
 21
50.4
  0
LINE
  8
0
 10
201.6
 11
201.6
 20
50.4
 21
54.6
  0
LINE
  8
0
 10
201.6
 11
205.8
 20
54.6
 21
54.6
  0
LINE
  8
0
 10
205.8
 11
205.8
 20
54.6
 21
50.4
  0
LINE
  8
0
 10
205.8
 11
210
 20
50.4
 21
50.4
  0
LINE
  8
0
 10
210
 11
210
 20
50.4
 21
54.6
  0
LINE
  8
0
 10
210
 11
214.2
 20
54.6
 21
54.6
  0
LINE
  8
0
 10
214.2
 11
214.2
 20
54.6
 21
50.4
  0
LINE
  8
0
 10
214.2
 11
218.4
 20
50.4
 21
50.4
  0
LINE
  8
0
 10
218.4
 11
218.4
 20
50.4
 21
54.6
  0
LINE
  8
0
 10
218.4
 11
222.6
 20
54.6
 21
54.6
  0
LINE
  8
0
 10
222.6
 11
222.6
 20
54.6
 21
50.4
  0
LINE
  8
0
 10
222.6
 11
226.8
 20
50.4
 21
50.4
  0
LINE
  8
0
 10
226.8
 11
226.8
 20
50.4
 21
54.6
  0
LINE
  8
0
 10
226.8
 11
231
 20
54.6
 21
54.6
  0
LINE
  8
0
 10
231
 11
231
 20
54.6
 21
50.4
  0
LINE
  8
0
 10
231
 11
235.2
 20
50.4
 21
50.4
  0
LINE
  8
0
 10
235.2
 11
235.2
 20
50.4
 21
54.6
  0
LINE
  8
0
 10
235.2
 11
239.4
 20
54.6
 21
54.6
  0
LINE
  8
0
 10
239.4
 11
239.4
 20
54.6
 21
50.4
  0
LINE
  8
0
 10
239.4
 11
243.6
 20
50.4
 21
50.4
  0
LINE
  8
0
 10
243.6
 11
243.6
 20
50.4
 21
54.6
  0
LINE
  8
0
 10
243.6
 11
247.8
 20
54.6
 21
54.6
  0
LINE
  8
0
 10
247.8
 11
247.8
 20
54.6
 21
50.4
  0
LINE
  8
0
 10
247.8
 11
252
 20
50.4
 21
50.4
  0
LINE
  8
0
 10
252
 11
252
 20
50.4
 21
54.6
  0
LINE
  8
0
 10
252
 11
256.2
 20
54.6
 21
54.6
  0
LINE
  8
0
 10
256.2
 11
256.2
 20
54.6
 21
50.4
  0
LINE
  8
0
 10
256.2
 11
260.4
 20
50.4
 21
50.4
  0
LINE
  8
0
 10
260.4
 11
260.4
 20
50.4
 21
54.6
  0
LINE
  8
0
 10
260.4
 11
264.6
 20
54.6
 21
54.6
  0
LINE
  8
0
 10
264.6
 11
264.6
 20
54.6
 21
50.4
  0
LINE
  8
0
 10
264.6
 11
273
 20
50.4
 21
50.4
  0
LINE
  8
0
 10
273
 11
273
 20
50.4
 21
46.2
  0
LINE
  8
0
 10
273
 11
268.8
 20
46.2
 21
46.2
  0
LINE
  8
0
 10
268.8
 11
268.8
 20
46.2
 21
42
  0
LINE
  8
0
 10
268.8
 11
273
 20
42
 21
42
  0
LINE
  8
0
 10
273
 11
273
 20
42
 21
37.8
  0
LINE
  8
0
 10
273
 11
268.8
 20
37.8
 21
37.8
  0
LINE
  8
0
 10
268.8
 11
268.8
 20
37.8
 21
33.6
  0
LINE
  8
0
 10
268.8
 11
273
 20
33.6
 21
33.6
  0
LINE
  8
0
 10
273
 11
273
 20
33.6
 21
29.4
  0
LINE
  8
0
 10
273
 11
268.8
 20
29.4
 21
29.4
  0
LINE
  8
0
 10
268.8
 11
268.8
 20
29.4
 21
25.2
  0
LINE
  8
0
 10
268.8
 11
273
 20
25.2
 21
25.2
  0
LINE
  8
0
 10
273
 11
273
 20
25.2
 21
21
  0
LINE
  8
0
 10
273
 11
268.8
 20
21
 21
21
  0
LINE
  8
0
 10
268.8
 11
268.8
 20
21
 21
16.8
  0
LINE
  8
0
 10
268.8
 11
273
 20
16.8
 21
16.8
  0
LINE
  8
0
 10
273
 11
273
 20
16.8
 21
12.6
  0
LINE
  8
0
 10
273
 11
268.8
 20
12.6
 21
12.6
  0
LINE
  8
0
 10
268.8
 11
268.8
 20
12.6
 21
8.4
  0
LINE
  8
0
 10
268.8
 11
273
 20
8.4
 21
8.4
  0
LINE
  8
0
 10
273
 11
273
 20
8.4
 21
4.2
  0
LINE
  8
0
 10
273
 11
268.8
 20
4.2
 21
4.2
  0
LINE
  8
0
 10
268.8
 11
268.8
 20
4.2
 21
-4.2
  0
LINE
  8
0
 10
268.8
 11
264.6
 20
-4.2
 21
-4.2
  0
LINE
  8
0
 10
264.6
 11
264.6
 20
-4.2
 21
0
  0
LINE
  8
0
 10
264.6
 11
260.4
 20
0
 21
0
  0
LINE
  8
0
 10
260.4
 11
260.4
 20
0
 21
-4.2
  0
LINE
  8
0
 10
260.4
 11
256.2
 20
-4.2
 21
-4.2
  0
LINE
  8
0
 10
256.2
 11
256.2
 20
-4.2
 21
0
  0
LINE
  8
0
 10
256.2
 11
252
 20
0
 21
0
  0
LINE
  8
0
 10
252
 11
252
 20
0
 21
-4.2
  0
LINE
  8
0
 10
252
 11
247.8
 20
-4.2
 21
-4.2
  0
LINE
  8
0
 10
247.8
 11
247.8
 20
-4.2
 21
0
  0
LINE
  8
0
 10
247.8
 11
243.6
 20
0
 21
0
  0
LINE
  8
0
 10
243.6
 11
243.6
 20
0
 21
-4.2
  0
LINE
  8
0
 10
243.6
 11
239.4
 20
-4.2
 21
-4.2
  0
LINE
  8
0
 10
239.4
 11
239.4
 20
-4.2
 21
0
  0
LINE
  8
0
 10
239.4
 11
235.2
 20
0
 21
0
  0
LINE
  8
0
 10
235.2
 11
235.2
 20
0
 21
-4.2
  0
LINE
  8
0
 10
235.2
 11
231
 20
-4.2
 21
-4.2
  0
LINE
  8
0
 10
231
 11
231
 20
-4.2
 21
0
  0
LINE
  8
0
 10
231
 11
226.8
 20
0
 21
0
  0
LINE
  8
0
 10
226.8
 11
226.8
 20
0
 21
-4.2
  0
LINE
  8
0
 10
226.8
 11
222.6
 20
-4.2
 21
-4.2
  0
LINE
  8
0
 10
222.6
 11
222.6
 20
-4.2
 21
0
  0
LINE
  8
0
 10
222.6
 11
218.4
 20
0
 21
0
  0
LINE
  8
0
 10
218.4
 11
218.4
 20
0
 21
-4.2
  0
LINE
  8
0
 10
218.4
 11
214.2
 20
-4.2
 21
-4.2
  0
LINE
  8
0
 10
214.2
 11
214.2
 20
-4.2
 21
0
  0
LINE
  8
0
 10
214.2
 11
210
 20
0
 21
0
  0
LINE
  8
0
 10
210
 11
210
 20
0
 21
-4.2
  0
LINE
  8
0
 10
210
 11
205.8
 20
-4.2
 21
-4.2
  0
LINE
  8
0
 10
205.8
 11
205.8
 20
-4.2
 21
0
  0
LINE
  8
0
 10
205.8
 11
201.6
 20
0
 21
0
  0
LINE
  8
0
 10
201.6
 11
201.6
 20
0
 21
-4.2
  0
LINE
  8
0
 10
201.6
 11
197.4
 20
-4.2
 21
-4.2
  0
LINE
  8
0
 10
197.4
 11
197.4
 20
-4.2
 21
0
  0
LINE
  8
0
 10
197.4
 11
193.2
 20
0
 21
0
  0
LINE
  8
0
 10
193.2
 11
193.2
 20
0
 21
-4.2
  0
LINE
  8
0
 10
193.2
 11
189
 20
-4.2
 21
-4.2
  0
LINE
  8
0
 10
189
 11
189
 20
-4.2
 21
0
  0
LINE
  8
0
 10
189
 11
184.8
 20
0
 21
0
  0
LINE
  8
0
 10
184.8
 11
184.8
 20
0
 21
-4.2
  0
LINE
  8
0
 10
184.8
 11
180.6
 20
-4.2
 21
-4.2
  0
LINE
  8
0
 10
180.6
 11
180.6
 20
-4.2
 21
0
  0
LINE
  8
0
 10
180.6
 11
176.4
 20
0
 21
0
  0
LINE
  8
0
 10
176.4
 11
176.4
 20
0
 21
-4.2
  0
LINE
  8
0
 10
176.4
 11
172.2
 20
-4.2
 21
-4.2
  0
LINE
  8
0
 10
172.2
 11
172.2
 20
-4.2
 21
0
  0
LINE
  8
0
 10
172.2
 11
168
 20
0
 21
0
  0
LINE
  8
0
 10
168
 11
168
 20
0
 21
-4.2
  0
LINE
  8
0
 10
168
 11
163.8
 20
-4.2
 21
-4.2
  0
LINE
  8
0
 10
163.8
 11
163.8
 20
-4.2
 21
0
  0
LINE
  8
0
 10
163.8
 11
159.6
 20
0
 21
0
  0
LINE
  8
0
 10
159.6
 11
159.6
 20
0
 21
-4.2
  0
LINE
  8
0
 10
159.6
 11
155.4
 20
-4.2
 21
-4.2
  0
LINE
  8
0
 10
155.4
 11
155.4
 20
-4.2
 21
0
  0
LINE
  8
0
 10
155.4
 11
151.2
 20
0
 21
0
  0
LINE
  8
0
 10
151.2
 11
151.2
 20
0
 21
-4.2
  0
LINE
  8
0
 10
151.2
 11
147
 20
-4.2
 21
-4.2
  0
LINE
  8
0
 10
147
 11
147
 20
-4.2
 21
0
  0
LINE
  8
0
 10
147
 11
142.8
 20
0
 21
0
  0
LINE
  8
0
 10
142.8
 11
142.8
 20
0
 21
-4.2
  0
LINE
  8
0
 10
142.8
 11
138.6
 20
-4.2
 21
-4.2
  0
LINE
  8
0
 10
138.6
 11
138.6
 20
-4.2
 21
0
  0
LINE
  8
0
 10
138.6
 11
134.4
 20
0
 21
0
  0
LINE
  8
0
 10
134.4
 11
134.4
 20
0
 21
-4.2
  0
LINE
  8
0
 10
134.4
 11
130.2
 20
-4.2
 21
-4.2
  0
LINE
  8
0
 10
130.2
 11
130.2
 20
-4.2
 21
0
  0
LINE
  8
0
 10
130.2
 11
126
 20
0
 21
0
  0
LINE
  8
0
 10
126
 11
126
 20
0
 21
-4.2
  0
LINE
  8
0
 10
126
 11
121.8
 20
-4.2
 21
-4.2
  0
LINE
  8
0
 10
121.8
 11
121.8
 20
-4.2
 21
0
  0
LINE
  8
0
 10
121.8
 11
117.6
 20
0
 21
0
  0
LINE
  8
0
 10
117.6
 11
117.6
 20
0
 21
-4.2
  0
LINE
  8
0
 10
117.6
 11
113.4
 20
-4.2
 21
-4.2
  0
LINE
  8
0
 10
113.4
 11
113.4
 20
-4.2
 21
0
  0
LINE
  8
0
 10
113.4
 11
109.2
 20
0
 21
0
  0
LINE
  8
0
 10
109.2
 11
109.2
 20
0
 21
-4.2
  0
LINE
  8
0
 10
109.2
 11
105
 20
-4.2
 21
-4.2
  0
LINE
  8
0
 10
105
 11
105
 20
-4.2
 21
0
  0
LINE
  8
0
 10
105
 11
100.8
 20
0
 21
0
  0
LINE
  8
0
 10
100.8
 11
100.8
 20
0
 21
-4.2
  0
LINE
  8
0
 10
100.8
 11
96.6
 20
-4.2
 21
-4.2
  0
LINE
  8
0
 10
96.6
 11
96.6
 20
-4.2
 21
0
  0
LINE
  8
0
 10
96.6
 11
92.4
 20
0
 21
0
  0
LINE
  8
0
 10
92.4
 11
92.4
 20
0
 21
-4.2
  0
LINE
  8
0
 10
92.4
 11
88.2
 20
-4.2
 21
-4.2
  0
LINE
  8
0
 10
88.2
 11
88.2
 20
-4.2
 21
0
  0
LINE
  8
0
 10
88.2
 11
84
 20
0
 21
0
  0
LINE
  8
0
 10
84
 11
84
 20
0
 21
-4.2
  0
LINE
  8
0
 10
84
 11
79.8
 20
-4.2
 21
-4.2
  0
LINE
  8
0
 10
79.8
 11
79.8
 20
-4.2
 21
0
  0
LINE
  8
0
 10
79.8
 11
75.6
 20
0
 21
0
  0
LINE
  8
0
 10
75.6
 11
75.6
 20
0
 21
-4.2
  0
LINE
  8
0
 10
75.6
 11
71.4
 20
-4.2
 21
-4.2
  0
LINE
  8
0
 10
71.4
 11
71.4
 20
-4.2
 21
0
  0
LINE
  8
0
 10
71.4
 11
67.2
 20
0
 21
0
  0
LINE
  8
0
 10
67.2
 11
67.2
 20
0
 21
-4.2
  0
LINE
  8
0
 10
67.2
 11
63
 20
-4.2
 21
-4.2
  0
LINE
  8
0
 10
63
 11
63
 20
-4.2
 21
0
  0
LINE
  8
0
 10
63
 11
58.8
 20
0
 21
0
  0
LINE
  8
0
 10
58.8
 11
58.8
 20
0
 21
-4.2
  0
LINE
  8
0
 10
58.8
 11
54.6
 20
-4.2
 21
-4.2
  0
LINE
  8
0
 10
54.6
 11
54.6
 20
-4.2
 21
0
  0
LINE
  8
0
 10
54.6
 11
50.4
 20
0
 21
0
  0
LINE
  8
0
 10
50.4
 11
50.4
 20
0
 21
-4.2
  0
LINE
  8
0
 10
50.4
 11
46.2
 20
-4.2
 21
-4.2
  0
LINE
  8
0
 10
46.2
 11
46.2
 20
-4.2
 21
0
  0
LINE
  8
0
 10
46.2
 11
42
 20
0
 21
0
  0
LINE
  8
0
 10
42
 11
42
 20
0
 21
-4.2
  0
LINE
  8
0
 10
42
 11
37.8
 20
-4.2
 21
-4.2
  0
LINE
  8
0
 10
37.8
 11
37.8
 20
-4.2
 21
0
  0
LINE
  8
0
 10
37.8
 11
33.6
 20
0
 21
0
  0
LINE
  8
0
 10
33.6
 11
33.6
 20
0
 21
-4.2
  0
LINE
  8
0
 10
33.6
 11
29.4
 20
-4.2
 21
-4.2
  0
LINE
  8
0
 10
29.4
 11
29.4
 20
-4.2
 21
0
  0
LINE
  8
0
 10
29.4
 11
25.2
 20
0
 21
0
  0
LINE
  8
0
 10
25.2
 11
25.2
 20
0
 21
-4.2
  0
LINE
  8
0
 10
25.2
 11
21
 20
-4.2
 21
-4.2
  0
LINE
  8
0
 10
21
 11
21
 20
-4.2
 21
0
  0
LINE
  8
0
 10
21
 11
16.8
 20
0
 21
0
  0
LINE
  8
0
 10
16.8
 11
16.8
 20
0
 21
-4.2
  0
LINE
  8
0
 10
16.8
 11
12.6
 20
-4.2
 21
-4.2
  0
LINE
  8
0
 10
12.6
 11
12.6
 20
-4.2
 21
0
  0
LINE
  8
0
 10
12.6
 11
8.4
 20
0
 21
0
  0
LINE
  8
0
 10
8.4
 11
8.4
 20
0
 21
-4.2
  0
LINE
  8
0
 10
8.4
 11
4.2
 20
-4.2
 21
-4.2
  0
LINE
  8
0
 10
4.2
 11
4.2
 20
-4.2
 21
0
  0
LINE
  8
0
 10
4.2
 11
-4.2
 20
0
 21
0
  0
LINE
  8
0
 10
8.2
 11
8.773
 20
-94.8
 21
-93.037
  0
LINE
  8
0
 10
8.773
 11
10.273
 20
-93.037
 21
-91.947
  0
LINE
  8
0
 10
10.273
 11
12.127
 20
-91.947
 21
-91.947
  0
LINE
  8
0
 10
12.127
 11
13.627
 20
-91.947
 21
-93.037
  0
LINE
  8
0
 10
13.627
 11
14.2
 20
-93.037
 21
-94.8
  0
LINE
  8
0
 10
14.2
 11
13.627
 20
-94.8
 21
-96.563
  0
LINE
  8
0
 10
13.627
 11
12.127
 20
-96.563
 21
-97.653
  0
LINE
  8
0
 10
12.127
 11
10.273
 20
-97.653
 21
-97.653
  0
LINE
  8
0
 10
10.273
 11
8.773
 20
-97.653
 21
-96.563
  0
LINE
  8
0
 10
8.773
 11
8.2
 20
-96.563
 21
-94.8
  0
LINE
  8
0
 10
12.386
 11
12.386
 20
-115.682
 21
-113.918
  0
LINE
  8
0
 10
12.386
 11
14.064
 20
-113.918
 21
-113.373
  0
LINE
  8
0
 10
14.064
 11
15.1
 20
-113.373
 21
-114.8
  0
LINE
  8
0
 10
15.1
 11
14.064
 20
-114.8
 21
-116.227
  0
LINE
  8
0
 10
14.064
 11
12.386
 20
-116.227
 21
-115.682
  0
LINE
  8
0
 10
12.386
 11
12.386
 20
-75.682
 21
-73.918
  0
LINE
  8
0
 10
12.386
 11
14.064
 20
-73.918
 21
-73.373
  0
LINE
  8
0
 10
14.064
 11
15.1
 20
-73.373
 21
-74.8
  0
LINE
  8
0
 10
15.1
 11
14.064
 20
-74.8
 21
-76.227
  0
LINE
  8
0
 10
14.064
 11
12.386
 20
-76.227
 21
-75.682
  0
LINE
  8
0
 10
22.6
 11
22.84
 20
-94.8
 21
-92.513
  0
LINE
  8
0
 10
22.84
 11
23.551
 20
-92.513
 21
-90.326
  0
LINE
  8
0
 10
23.551
 11
24.701
 20
-90.326
 21
-88.334
  0
LINE
  8
0
 10
24.701
 11
26.24
 20
-88.334
 21
-86.625
  0
LINE
  8
0
 10
26.24
 11
28.1
 20
-86.625
 21
-85.274
  0
LINE
  8
0
 10
28.1
 11
30.201
 20
-85.274
 21
-84.338
  0
LINE
  8
0
 10
30.201
 11
32.45
 20
-84.338
 21
-83.86
  0
LINE
  8
0
 10
32.45
 11
34.75
 20
-83.86
 21
-83.86
  0
LINE
  8
0
 10
34.75
 11
36.999
 20
-83.86
 21
-84.338
  0
LINE
  8
0
 10
36.999
 11
39.1
 20
-84.338
 21
-85.274
  0
LINE
  8
0
 10
39.1
 11
40.96
 20
-85.274
 21
-86.625
  0
LINE
  8
0
 10
40.96
 11
42.499
 20
-86.625
 21
-88.334
  0
LINE
  8
0
 10
42.499
 11
43.649
 20
-88.334
 21
-90.326
  0
LINE
  8
0
 10
43.649
 11
44.36
 20
-90.326
 21
-92.513
  0
LINE
  8
0
 10
44.36
 11
44.6
 20
-92.513
 21
-94.8
  0
LINE
  8
0
 10
44.6
 11
44.36
 20
-94.8
 21
-97.087
  0
LINE
  8
0
 10
44.36
 11
43.649
 20
-97.087
 21
-99.274
  0
LINE
  8
0
 10
43.649
 11
42.499
 20
-99.274
 21
-101.266
  0
LINE
  8
0
 10
42.499
 11
40.96
 20
-101.266
 21
-102.975
  0
LINE
  8
0
 10
40.96
 11
39.1
 20
-102.975
 21
-104.326
  0
LINE
  8
0
 10
39.1
 11
36.999
 20
-104.326
 21
-105.262
  0
LINE
  8
0
 10
36.999
 11
34.75
 20
-105.262
 21
-105.74
  0
LINE
  8
0
 10
34.75
 11
32.45
 20
-105.74
 21
-105.74
  0
LINE
  8
0
 10
32.45
 11
30.201
 20
-105.74
 21
-105.262
  0
LINE
  8
0
 10
30.201
 11
28.1
 20
-105.262
 21
-104.326
  0
LINE
  8
0
 10
28.1
 11
26.24
 20
-104.326
 21
-102.975
  0
LINE
  8
0
 10
26.24
 11
24.701
 20
-102.975
 21
-101.266
  0
LINE
  8
0
 10
24.701
 11
23.551
 20
-101.266
 21
-99.274
  0
LINE
  8
0
 10
23.551
 11
22.84
 20
-99.274
 21
-97.087
  0
LINE
  8
0
 10
22.84
 11
22.6
 20
-97.087
 21
-94.8
  0
LINE
  8
0
 10
50
 11
50
 20
-55.8
 21
-51.6
  0
LINE
  8
0
 10
50
 11
54.2
 20
-51.6
 21
-51.6
  0
LINE
  8
0
 10
54.2
 11
54.2
 20
-51.6
 21
-55.8
  0
LINE
  8
0
 10
54.2
 11
50
 20
-55.8
 21
-55.8
  0
LINE
  8
0
 10
50
 11
50
 20
-47.4
 21
-43.2
  0
LINE
  8
0
 10
50
 11
54.2
 20
-43.2
 21
-43.2
  0
LINE
  8
0
 10
54.2
 11
54.2
 20
-43.2
 21
-47.4
  0
LINE
  8
0
 10
54.2
 11
50
 20
-47.4
 21
-47.4
  0
LINE
  8
0
 10
50
 11
50
 20
-39
 21
-34.8
  0
LINE
  8
0
 10
50
 11
54.2
 20
-34.8
 21
-34.8
  0
LINE
  8
0
 10
54.2
 11
54.2
 20
-34.8
 21
-39
  0
LINE
  8
0
 10
54.2
 11
50
 20
-39
 21
-39
  0
LINE
  8
0
 10
50
 11
50
 20
-30.6
 21
-26.4
  0
LINE
  8
0
 10
50
 11
54.2
 20
-26.4
 21
-26.4
  0
LINE
  8
0
 10
54.2
 11
54.2
 20
-26.4
 21
-30.6
  0
LINE
  8
0
 10
54.2
 11
50
 20
-30.6
 21
-30.6
  0
LINE
  8
0
 10
50
 11
50
 20
-22.2
 21
-18
  0
LINE
  8
0
 10
50
 11
54.2
 20
-18
 21
-18
  0
LINE
  8
0
 10
54.2
 11
54.2
 20
-18
 21
-22.2
  0
LINE
  8
0
 10
54.2
 11
50
 20
-22.2
 21
-22.2
  0
LINE
  8
0
 10
50
 11
50
 20
4.2
 21
8.4
  0
LINE
  8
0
 10
50
 11
54.2
 20
8.4
 21
8.4
  0
LINE
  8
0
 10
54.2
 11
54.2
 20
8.4
 21
4.2
  0
LINE
  8
0
 10
54.2
 11
50
 20
4.2
 21
4.2
  0
LINE
  8
0
 10
50
 11
50
 20
12.6
 21
16.8
  0
LINE
  8
0
 10
50
 11
54.2
 20
16.8
 21
16.8
  0
LINE
  8
0
 10
54.2
 11
54.2
 20
16.8
 21
12.6
  0
LINE
  8
0
 10
54.2
 11
50
 20
12.6
 21
12.6
  0
LINE
  8
0
 10
50
 11
50
 20
21
 21
25.2
  0
LINE
  8
0
 10
50
 11
54.2
 20
25.2
 21
25.2
  0
LINE
  8
0
 10
54.2
 11
54.2
 20
25.2
 21
21
  0
LINE
  8
0
 10
54.2
 11
50
 20
21
 21
21
  0
LINE
  8
0
 10
50
 11
50
 20
29.4
 21
33.6
  0
LINE
  8
0
 10
50
 11
54.2
 20
33.6
 21
33.6
  0
LINE
  8
0
 10
54.2
 11
54.2
 20
33.6
 21
29.4
  0
LINE
  8
0
 10
54.2
 11
50
 20
29.4
 21
29.4
  0
LINE
  8
0
 10
50
 11
50
 20
37.8
 21
42
  0
LINE
  8
0
 10
50
 11
54.2
 20
42
 21
42
  0
LINE
  8
0
 10
54.2
 11
54.2
 20
42
 21
37.8
  0
LINE
  8
0
 10
54.2
 11
50
 20
37.8
 21
37.8
  0
LINE
  8
0
 10
52.386
 11
52.386
 20
-115.682
 21
-113.918
  0
LINE
  8
0
 10
52.386
 11
54.064
 20
-113.918
 21
-113.373
  0
LINE
  8
0
 10
54.064
 11
55.1
 20
-113.373
 21
-114.8
  0
LINE
  8
0
 10
55.1
 11
54.064
 20
-114.8
 21
-116.227
  0
LINE
  8
0
 10
54.064
 11
52.386
 20
-116.227
 21
-115.682
  0
LINE
  8
0
 10
52.386
 11
52.386
 20
-75.682
 21
-73.918
  0
LINE
  8
0
 10
52.386
 11
54.064
 20
-73.918
 21
-73.373
  0
LINE
  8
0
 10
54.064
 11
55.1
 20
-73.373
 21
-74.8
  0
LINE
  8
0
 10
55.1
 11
54.064
 20
-74.8
 21
-76.227
  0
LINE
  8
0
 10
54.064
 11
52.386
 20
-76.227
 21
-75.682
  0
LINE
  8
0
 10
75.8
 11
75.8
 20
-120
 21
-115.8
  0
LINE
  8
0
 10
75.8
 11
80
 20
-115.8
 21
-115.8
  0
LINE
  8
0
 10
80
 11
80
 20
-115.8
 21
-111.6
  0
LINE
  8
0
 10
80
 11
75.8
 20
-111.6
 21
-111.6
  0
LINE
  8
0
 10
75.8
 11
75.8
 20
-111.6
 21
-107.4
  0
LINE
  8
0
 10
75.8
 11
80
 20
-107.4
 21
-107.4
  0
LINE
  8
0
 10
80
 11
80
 20
-107.4
 21
-103.2
  0
LINE
  8
0
 10
80
 11
75.8
 20
-103.2
 21
-103.2
  0
LINE
  8
0
 10
75.8
 11
75.8
 20
-103.2
 21
-99
  0
LINE
  8
0
 10
75.8
 11
80
 20
-99
 21
-99
  0
LINE
  8
0
 10
80
 11
80
 20
-99
 21
-94.8
  0
LINE
  8
0
 10
80
 11
75.8
 20
-94.8
 21
-94.8
  0
LINE
  8
0
 10
75.8
 11
75.8
 20
-94.8
 21
-90.6
  0
LINE
  8
0
 10
75.8
 11
80
 20
-90.6
 21
-90.6
  0
LINE
  8
0
 10
80
 11
80
 20
-90.6
 21
-86.4
  0
LINE
  8
0
 10
80
 11
75.8
 20
-86.4
 21
-86.4
  0
LINE
  8
0
 10
75.8
 11
75.8
 20
-86.4
 21
-82.2
  0
LINE
  8
0
 10
75.8
 11
80
 20
-82.2
 21
-82.2
  0
LINE
  8
0
 10
80
 11
80
 20
-82.2
 21
-78
  0
LINE
  8
0
 10
80
 11
75.8
 20
-78
 21
-78
  0
LINE
  8
0
 10
75.8
 11
75.8
 20
-78
 21
-73.8
  0
LINE
  8
0
 10
75.8
 11
80
 20
-73.8
 21
-73.8
  0
LINE
  8
0
 10
80
 11
80
 20
-73.8
 21
-65.4
  0
LINE
  8
0
 10
80
 11
84.2
 20
-65.4
 21
-65.4
  0
LINE
  8
0
 10
84.2
 11
84.2
 20
-65.4
 21
-69.6
  0
LINE
  8
0
 10
84.2
 11
88.4
 20
-69.6
 21
-69.6
  0
LINE
  8
0
 10
88.4
 11
88.4
 20
-69.6
 21
-65.4
  0
LINE
  8
0
 10
88.4
 11
92.6
 20
-65.4
 21
-65.4
  0
LINE
  8
0
 10
92.6
 11
92.6
 20
-65.4
 21
-69.6
  0
LINE
  8
0
 10
92.6
 11
96.8
 20
-69.6
 21
-69.6
  0
LINE
  8
0
 10
96.8
 11
96.8
 20
-69.6
 21
-65.4
  0
LINE
  8
0
 10
96.8
 11
101
 20
-65.4
 21
-65.4
  0
LINE
  8
0
 10
101
 11
101
 20
-65.4
 21
-69.6
  0
LINE
  8
0
 10
101
 11
105.2
 20
-69.6
 21
-69.6
  0
LINE
  8
0
 10
105.2
 11
105.2
 20
-69.6
 21
-65.4
  0
LINE
  8
0
 10
105.2
 11
109.4
 20
-65.4
 21
-65.4
  0
LINE
  8
0
 10
109.4
 11
109.4
 20
-65.4
 21
-69.6
  0
LINE
  8
0
 10
109.4
 11
113.6
 20
-69.6
 21
-69.6
  0
LINE
  8
0
 10
113.6
 11
113.6
 20
-69.6
 21
-65.4
  0
LINE
  8
0
 10
113.6
 11
117.8
 20
-65.4
 21
-65.4
  0
LINE
  8
0
 10
117.8
 11
117.8
 20
-65.4
 21
-69.6
  0
LINE
  8
0
 10
117.8
 11
122
 20
-69.6
 21
-69.6
  0
LINE
  8
0
 10
122
 11
122
 20
-69.6
 21
-65.4
  0
LINE
  8
0
 10
122
 11
126.2
 20
-65.4
 21
-65.4
  0
LINE
  8
0
 10
126.2
 11
126.2
 20
-65.4
 21
-69.6
  0
LINE
  8
0
 10
126.2
 11
130.4
 20
-69.6
 21
-69.6
  0
LINE
  8
0
 10
130.4
 11
130.4
 20
-69.6
 21
-65.4
  0
LINE
  8
0
 10
130.4
 11
134.6
 20
-65.4
 21
-65.4
  0
LINE
  8
0
 10
134.6
 11
134.6
 20
-65.4
 21
-69.6
  0
LINE
  8
0
 10
134.6
 11
138.8
 20
-69.6
 21
-69.6
  0
LINE
  8
0
 10
138.8
 11
138.8
 20
-69.6
 21
-65.4
  0
LINE
  8
0
 10
138.8
 11
143
 20
-65.4
 21
-65.4
  0
LINE
  8
0
 10
143
 11
143
 20
-65.4
 21
-69.6
  0
LINE
  8
0
 10
143
 11
151.4
 20
-69.6
 21
-69.6
  0
LINE
  8
0
 10
151.4
 11
151.4
 20
-69.6
 21
-73.8
  0
LINE
  8
0
 10
151.4
 11
147.2
 20
-73.8
 21
-73.8
  0
LINE
  8
0
 10
147.2
 11
147.2
 20
-73.8
 21
-78
  0
LINE
  8
0
 10
147.2
 11
151.4
 20
-78
 21
-78
  0
LINE
  8
0
 10
151.4
 11
151.4
 20
-78
 21
-82.2
  0
LINE
  8
0
 10
151.4
 11
147.2
 20
-82.2
 21
-82.2
  0
LINE
  8
0
 10
147.2
 11
147.2
 20
-82.2
 21
-86.4
  0
LINE
  8
0
 10
147.2
 11
151.4
 20
-86.4
 21
-86.4
  0
LINE
  8
0
 10
151.4
 11
151.4
 20
-86.4
 21
-90.6
  0
LINE
  8
0
 10
151.4
 11
147.2
 20
-90.6
 21
-90.6
  0
LINE
  8
0
 10
147.2
 11
147.2
 20
-90.6
 21
-94.8
  0
LINE
  8
0
 10
147.2
 11
151.4
 20
-94.8
 21
-94.8
  0
LINE
  8
0
 10
151.4
 11
151.4
 20
-94.8
 21
-99
  0
LINE
  8
0
 10
151.4
 11
147.2
 20
-99
 21
-99
  0
LINE
  8
0
 10
147.2
 11
147.2
 20
-99
 21
-103.2
  0
LINE
  8
0
 10
147.2
 11
151.4
 20
-103.2
 21
-103.2
  0
LINE
  8
0
 10
151.4
 11
151.4
 20
-103.2
 21
-107.4
  0
LINE
  8
0
 10
151.4
 11
147.2
 20
-107.4
 21
-107.4
  0
LINE
  8
0
 10
147.2
 11
147.2
 20
-107.4
 21
-111.6
  0
LINE
  8
0
 10
147.2
 11
151.4
 20
-111.6
 21
-111.6
  0
LINE
  8
0
 10
151.4
 11
151.4
 20
-111.6
 21
-115.8
  0
LINE
  8
0
 10
151.4
 11
147.2
 20
-115.8
 21
-115.8
  0
LINE
  8
0
 10
147.2
 11
147.2
 20
-115.8
 21
-124.2
  0
LINE
  8
0
 10
147.2
 11
143
 20
-124.2
 21
-124.2
  0
LINE
  8
0
 10
143
 11
143
 20
-124.2
 21
-120
  0
LINE
  8
0
 10
143
 11
138.8
 20
-120
 21
-120
  0
LINE
  8
0
 10
138.8
 11
138.8
 20
-120
 21
-124.2
  0
LINE
  8
0
 10
138.8
 11
134.6
 20
-124.2
 21
-124.2
  0
LINE
  8
0
 10
134.6
 11
134.6
 20
-124.2
 21
-120
  0
LINE
  8
0
 10
134.6
 11
130.4
 20
-120
 21
-120
  0
LINE
  8
0
 10
130.4
 11
130.4
 20
-120
 21
-124.2
  0
LINE
  8
0
 10
130.4
 11
126.2
 20
-124.2
 21
-124.2
  0
LINE
  8
0
 10
126.2
 11
126.2
 20
-124.2
 21
-120
  0
LINE
  8
0
 10
126.2
 11
122
 20
-120
 21
-120
  0
LINE
  8
0
 10
122
 11
122
 20
-120
 21
-124.2
  0
LINE
  8
0
 10
122
 11
117.8
 20
-124.2
 21
-124.2
  0
LINE
  8
0
 10
117.8
 11
117.8
 20
-124.2
 21
-120
  0
LINE
  8
0
 10
117.8
 11
113.6
 20
-120
 21
-120
  0
LINE
  8
0
 10
113.6
 11
113.6
 20
-120
 21
-124.2
  0
LINE
  8
0
 10
113.6
 11
109.4
 20
-124.2
 21
-124.2
  0
LINE
  8
0
 10
109.4
 11
109.4
 20
-124.2
 21
-120
  0
LINE
  8
0
 10
109.4
 11
105.2
 20
-120
 21
-120
  0
LINE
  8
0
 10
105.2
 11
105.2
 20
-120
 21
-124.2
  0
LINE
  8
0
 10
105.2
 11
101
 20
-124.2
 21
-124.2
  0
LINE
  8
0
 10
101
 11
101
 20
-124.2
 21
-120
  0
LINE
  8
0
 10
101
 11
96.8
 20
-120
 21
-120
  0
LINE
  8
0
 10
96.8
 11
96.8
 20
-120
 21
-124.2
  0
LINE
  8
0
 10
96.8
 11
92.6
 20
-124.2
 21
-124.2
  0
LINE
  8
0
 10
92.6
 11
92.6
 20
-124.2
 21
-120
  0
LINE
  8
0
 10
92.6
 11
88.4
 20
-120
 21
-120
  0
LINE
  8
0
 10
88.4
 11
88.4
 20
-120
 21
-124.2
  0
LINE
  8
0
 10
88.4
 11
84.2
 20
-124.2
 21
-124.2
  0
LINE
  8
0
 10
84.2
 11
84.2
 20
-124.2
 21
-120
  0
LINE
  8
0
 10
84.2
 11
75.8
 20
-120
 21
-120
  0
LINE
  8
0
 10
99.716
 11
99.716
 20
-95.757
 21
-93.843
  0
LINE
  8
0
 10
99.716
 11
100.606
 20
-93.843
 21
-92.148
  0
LINE
  8
0
 10
100.606
 11
102.182
 20
-92.148
 21
-91.06
  0
LINE
  8
0
 10
102.182
 11
104.082
 20
-91.06
 21
-90.829
  0
LINE
  8
0
 10
104.082
 11
105.872
 20
-90.829
 21
-91.508
  0
LINE
  8
0
 10
105.872
 11
107.142
 20
-91.508
 21
-92.941
  0
LINE
  8
0
 10
107.142
 11
107.6
 20
-92.941
 21
-94.8
  0
LINE
  8
0
 10
107.6
 11
107.142
 20
-94.8
 21
-96.659
  0
LINE
  8
0
 10
107.142
 11
105.872
 20
-96.659
 21
-98.092
  0
LINE
  8
0
 10
105.872
 11
104.082
 20
-98.092
 21
-98.771
  0
LINE
  8
0
 10
104.082
 11
102.182
 20
-98.771
 21
-98.54
  0
LINE
  8
0
 10
102.182
 11
100.606
 20
-98.54
 21
-97.452
  0
LINE
  8
0
 10
100.606
 11
99.716
 20
-97.452
 21
-95.757
  0
LINE
  8
0
 10
119.716
 11
119.716
 20
-95.757
 21
-93.843
  0
LINE
  8
0
 10
119.716
 11
120.606
 20
-93.843
 21
-92.148
  0
LINE
  8
0
 10
120.606
 11
122.182
 20
-92.148
 21
-91.06
  0
LINE
  8
0
 10
122.182
 11
124.082
 20
-91.06
 21
-90.829
  0
LINE
  8
0
 10
124.082
 11
125.872
 20
-90.829
 21
-91.508
  0
LINE
  8
0
 10
125.872
 11
127.142
 20
-91.508
 21
-92.941
  0
LINE
  8
0
 10
127.142
 11
127.6
 20
-92.941
 21
-94.8
  0
LINE
  8
0
 10
127.6
 11
127.142
 20
-94.8
 21
-96.659
  0
LINE
  8
0
 10
127.142
 11
125.872
 20
-96.659
 21
-98.092
  0
LINE
  8
0
 10
125.872
 11
124.082
 20
-98.092
 21
-98.771
  0
LINE
  8
0
 10
124.082
 11
122.182
 20
-98.771
 21
-98.54
  0
LINE
  8
0
 10
122.182
 11
120.606
 20
-98.54
 21
-97.452
  0
LINE
  8
0
 10
120.606
 11
119.716
 20
-97.452
 21
-95.757
  0
LINE
  8
0
 10
155.8
 11
155.8
 20
-120
 21
-115.8
  0
LINE
  8
0
 10
155.8
 11
160
 20
-115.8
 21
-115.8
  0
LINE
  8
0
 10
160
 11
160
 20
-115.8
 21
-111.6
  0
LINE
  8
0
 10
160
 11
155.8
 20
-111.6
 21
-111.6
  0
LINE
  8
0
 10
155.8
 11
155.8
 20
-111.6
 21
-107.4
  0
LINE
  8
0
 10
155.8
 11
160
 20
-107.4
 21
-107.4
  0
LINE
  8
0
 10
160
 11
160
 20
-107.4
 21
-103.2
  0
LINE
  8
0
 10
160
 11
155.8
 20
-103.2
 21
-103.2
  0
LINE
  8
0
 10
155.8
 11
155.8
 20
-103.2
 21
-99
  0
LINE
  8
0
 10
155.8
 11
160
 20
-99
 21
-99
  0
LINE
  8
0
 10
160
 11
160
 20
-99
 21
-94.8
  0
LINE
  8
0
 10
160
 11
155.8
 20
-94.8
 21
-94.8
  0
LINE
  8
0
 10
155.8
 11
155.8
 20
-94.8
 21
-90.6
  0
LINE
  8
0
 10
155.8
 11
160
 20
-90.6
 21
-90.6
  0
LINE
  8
0
 10
160
 11
160
 20
-90.6
 21
-86.4
  0
LINE
  8
0
 10
160
 11
155.8
 20
-86.4
 21
-86.4
  0
LINE
  8
0
 10
155.8
 11
155.8
 20
-86.4
 21
-82.2
  0
LINE
  8
0
 10
155.8
 11
160
 20
-82.2
 21
-82.2
  0
LINE
  8
0
 10
160
 11
160
 20
-82.2
 21
-78
  0
LINE
  8
0
 10
160
 11
155.8
 20
-78
 21
-78
  0
LINE
  8
0
 10
155.8
 11
155.8
 20
-78
 21
-73.8
  0
LINE
  8
0
 10
155.8
 11
160
 20
-73.8
 21
-73.8
  0
LINE
  8
0
 10
160
 11
160
 20
-73.8
 21
-65.4
  0
LINE
  8
0
 10
160
 11
164.2
 20
-65.4
 21
-65.4
  0
LINE
  8
0
 10
164.2
 11
164.2
 20
-65.4
 21
-69.6
  0
LINE
  8
0
 10
164.2
 11
168.4
 20
-69.6
 21
-69.6
  0
LINE
  8
0
 10
168.4
 11
168.4
 20
-69.6
 21
-65.4
  0
LINE
  8
0
 10
168.4
 11
172.6
 20
-65.4
 21
-65.4
  0
LINE
  8
0
 10
172.6
 11
172.6
 20
-65.4
 21
-69.6
  0
LINE
  8
0
 10
172.6
 11
176.8
 20
-69.6
 21
-69.6
  0
LINE
  8
0
 10
176.8
 11
176.8
 20
-69.6
 21
-65.4
  0
LINE
  8
0
 10
176.8
 11
181
 20
-65.4
 21
-65.4
  0
LINE
  8
0
 10
181
 11
181
 20
-65.4
 21
-69.6
  0
LINE
  8
0
 10
181
 11
185.2
 20
-69.6
 21
-69.6
  0
LINE
  8
0
 10
185.2
 11
185.2
 20
-69.6
 21
-65.4
  0
LINE
  8
0
 10
185.2
 11
189.4
 20
-65.4
 21
-65.4
  0
LINE
  8
0
 10
189.4
 11
189.4
 20
-65.4
 21
-69.6
  0
LINE
  8
0
 10
189.4
 11
193.6
 20
-69.6
 21
-69.6
  0
LINE
  8
0
 10
193.6
 11
193.6
 20
-69.6
 21
-65.4
  0
LINE
  8
0
 10
193.6
 11
197.8
 20
-65.4
 21
-65.4
  0
LINE
  8
0
 10
197.8
 11
197.8
 20
-65.4
 21
-69.6
  0
LINE
  8
0
 10
197.8
 11
202
 20
-69.6
 21
-69.6
  0
LINE
  8
0
 10
202
 11
202
 20
-69.6
 21
-65.4
  0
LINE
  8
0
 10
202
 11
206.2
 20
-65.4
 21
-65.4
  0
LINE
  8
0
 10
206.2
 11
206.2
 20
-65.4
 21
-69.6
  0
LINE
  8
0
 10
206.2
 11
210.4
 20
-69.6
 21
-69.6
  0
LINE
  8
0
 10
210.4
 11
210.4
 20
-69.6
 21
-65.4
  0
LINE
  8
0
 10
210.4
 11
214.6
 20
-65.4
 21
-65.4
  0
LINE
  8
0
 10
214.6
 11
214.6
 20
-65.4
 21
-69.6
  0
LINE
  8
0
 10
214.6
 11
218.8
 20
-69.6
 21
-69.6
  0
LINE
  8
0
 10
218.8
 11
218.8
 20
-69.6
 21
-65.4
  0
LINE
  8
0
 10
218.8
 11
223
 20
-65.4
 21
-65.4
  0
LINE
  8
0
 10
223
 11
223
 20
-65.4
 21
-69.6
  0
LINE
  8
0
 10
223
 11
231.4
 20
-69.6
 21
-69.6
  0
LINE
  8
0
 10
231.4
 11
231.4
 20
-69.6
 21
-73.8
  0
LINE
  8
0
 10
231.4
 11
227.2
 20
-73.8
 21
-73.8
  0
LINE
  8
0
 10
227.2
 11
227.2
 20
-73.8
 21
-78
  0
LINE
  8
0
 10
227.2
 11
231.4
 20
-78
 21
-78
  0
LINE
  8
0
 10
231.4
 11
231.4
 20
-78
 21
-82.2
  0
LINE
  8
0
 10
231.4
 11
227.2
 20
-82.2
 21
-82.2
  0
LINE
  8
0
 10
227.2
 11
227.2
 20
-82.2
 21
-86.4
  0
LINE
  8
0
 10
227.2
 11
231.4
 20
-86.4
 21
-86.4
  0
LINE
  8
0
 10
231.4
 11
231.4
 20
-86.4
 21
-90.6
  0
LINE
  8
0
 10
231.4
 11
227.2
 20
-90.6
 21
-90.6
  0
LINE
  8
0
 10
227.2
 11
227.2
 20
-90.6
 21
-94.8
  0
LINE
  8
0
 10
227.2
 11
231.4
 20
-94.8
 21
-94.8
  0
LINE
  8
0
 10
231.4
 11
231.4
 20
-94.8
 21
-99
  0
LINE
  8
0
 10
231.4
 11
227.2
 20
-99
 21
-99
  0
LINE
  8
0
 10
227.2
 11
227.2
 20
-99
 21
-103.2
  0
LINE
  8
0
 10
227.2
 11
231.4
 20
-103.2
 21
-103.2
  0
LINE
  8
0
 10
231.4
 11
231.4
 20
-103.2
 21
-107.4
  0
LINE
  8
0
 10
231.4
 11
227.2
 20
-107.4
 21
-107.4
  0
LINE
  8
0
 10
227.2
 11
227.2
 20
-107.4
 21
-111.6
  0
LINE
  8
0
 10
227.2
 11
231.4
 20
-111.6
 21
-111.6
  0
LINE
  8
0
 10
231.4
 11
231.4
 20
-111.6
 21
-115.8
  0
LINE
  8
0
 10
231.4
 11
227.2
 20
-115.8
 21
-115.8
  0
LINE
  8
0
 10
227.2
 11
227.2
 20
-115.8
 21
-124.2
  0
LINE
  8
0
 10
227.2
 11
223
 20
-124.2
 21
-124.2
  0
LINE
  8
0
 10
223
 11
223
 20
-124.2
 21
-120
  0
LINE
  8
0
 10
223
 11
218.8
 20
-120
 21
-120
  0
LINE
  8
0
 10
218.8
 11
218.8
 20
-120
 21
-124.2
  0
LINE
  8
0
 10
218.8
 11
214.6
 20
-124.2
 21
-124.2
  0
LINE
  8
0
 10
214.6
 11
214.6
 20
-124.2
 21
-120
  0
LINE
  8
0
 10
214.6
 11
210.4
 20
-120
 21
-120
  0
LINE
  8
0
 10
210.4
 11
210.4
 20
-120
 21
-124.2
  0
LINE
  8
0
 10
210.4
 11
206.2
 20
-124.2
 21
-124.2
  0
LINE
  8
0
 10
206.2
 11
206.2
 20
-124.2
 21
-120
  0
LINE
  8
0
 10
206.2
 11
202
 20
-120
 21
-120
  0
LINE
  8
0
 10
202
 11
202
 20
-120
 21
-124.2
  0
LINE
  8
0
 10
202
 11
197.8
 20
-124.2
 21
-124.2
  0
LINE
  8
0
 10
197.8
 11
197.8
 20
-124.2
 21
-120
  0
LINE
  8
0
 10
197.8
 11
193.6
 20
-120
 21
-120
  0
LINE
  8
0
 10
193.6
 11
193.6
 20
-120
 21
-124.2
  0
LINE
  8
0
 10
193.6
 11
189.4
 20
-124.2
 21
-124.2
  0
LINE
  8
0
 10
189.4
 11
189.4
 20
-124.2
 21
-120
  0
LINE
  8
0
 10
189.4
 11
185.2
 20
-120
 21
-120
  0
LINE
  8
0
 10
185.2
 11
185.2
 20
-120
 21
-124.2
  0
LINE
  8
0
 10
185.2
 11
181
 20
-124.2
 21
-124.2
  0
LINE
  8
0
 10
181
 11
181
 20
-124.2
 21
-120
  0
LINE
  8
0
 10
181
 11
176.8
 20
-120
 21
-120
  0
LINE
  8
0
 10
176.8
 11
176.8
 20
-120
 21
-124.2
  0
LINE
  8
0
 10
176.8
 11
172.6
 20
-124.2
 21
-124.2
  0
LINE
  8
0
 10
172.6
 11
172.6
 20
-124.2
 21
-120
  0
LINE
  8
0
 10
172.6
 11
168.4
 20
-120
 21
-120
  0
LINE
  8
0
 10
168.4
 11
168.4
 20
-120
 21
-124.2
  0
LINE
  8
0
 10
168.4
 11
164.2
 20
-124.2
 21
-124.2
  0
LINE
  8
0
 10
164.2
 11
164.2
 20
-124.2
 21
-120
  0
LINE
  8
0
 10
164.2
 11
155.8
 20
-120
 21
-120
  0
LINE
  8
0
 10
173.8
 11
174.373
 20
-98.8
 21
-97.037
  0
LINE
  8
0
 10
174.373
 11
175.873
 20
-97.037
 21
-95.947
  0
LINE
  8
0
 10
175.873
 11
177.727
 20
-95.947
 21
-95.947
  0
LINE
  8
0
 10
177.727
 11
179.227
 20
-95.947
 21
-97.037
  0
LINE
  8
0
 10
179.227
 11
179.8
 20
-97.037
 21
-98.8
  0
LINE
  8
0
 10
179.8
 11
179.227
 20
-98.8
 21
-100.563
  0
LINE
  8
0
 10
179.227
 11
177.727
 20
-100.563
 21
-101.653
  0
LINE
  8
0
 10
177.727
 11
175.873
 20
-101.653
 21
-101.653
  0
LINE
  8
0
 10
175.873
 11
174.373
 20
-101.653
 21
-100.563
  0
LINE
  8
0
 10
174.373
 11
173.8
 20
-100.563
 21
-98.8
  0
LINE
  8
0
 10
173.8
 11
174.373
 20
-90.8
 21
-89.037
  0
LINE
  8
0
 10
174.373
 11
175.873
 20
-89.037
 21
-87.947
  0
LINE
  8
0
 10
175.873
 11
177.727
 20
-87.947
 21
-87.947
  0
LINE
  8
0
 10
177.727
 11
179.227
 20
-87.947
 21
-89.037
  0
LINE
  8
0
 10
179.227
 11
179.8
 20
-89.037
 21
-90.8
  0
LINE
  8
0
 10
179.8
 11
179.227
 20
-90.8
 21
-92.563
  0
LINE
  8
0
 10
179.227
 11
177.727
 20
-92.563
 21
-93.653
  0
LINE
  8
0
 10
177.727
 11
175.873
 20
-93.653
 21
-93.653
  0
LINE
  8
0
 10
175.873
 11
174.373
 20
-93.653
 21
-92.563
  0
LINE
  8
0
 10
174.373
 11
173.8
 20
-92.563
 21
-90.8
  0
LINE
  8
0
 10
189.716
 11
189.716
 20
-95.757
 21
-93.843
  0
LINE
  8
0
 10
189.716
 11
190.606
 20
-93.843
 21
-92.148
  0
LINE
  8
0
 10
190.606
 11
192.182
 20
-92.148
 21
-91.06
  0
LINE
  8
0
 10
192.182
 11
194.082
 20
-91.06
 21
-90.829
  0
LINE
  8
0
 10
194.082
 11
195.872
 20
-90.829
 21
-91.508
  0
LINE
  8
0
 10
195.872
 11
197.142
 20
-91.508
 21
-92.941
  0
LINE
  8
0
 10
197.142
 11
197.6
 20
-92.941
 21
-94.8
  0
LINE
  8
0
 10
197.6
 11
197.142
 20
-94.8
 21
-96.659
  0
LINE
  8
0
 10
197.142
 11
195.872
 20
-96.659
 21
-98.092
  0
LINE
  8
0
 10
195.872
 11
194.082
 20
-98.092
 21
-98.771
  0
LINE
  8
0
 10
194.082
 11
192.182
 20
-98.771
 21
-98.54
  0
LINE
  8
0
 10
192.182
 11
190.606
 20
-98.54
 21
-97.452
  0
LINE
  8
0
 10
190.606
 11
189.716
 20
-97.452
 21
-95.757
  0
ENDSEC
  0
SECTION
  2
OBJECTS
  0
DICTIONARY
  0
ENDSEC
  0
EOF
