  0
SECTION
  2
BLOCKS
  0
ENDSEC
  0
SECTION
  2
ENTITIES
  0
LINE
  8
0
 10
-4.2
 11
-4.2
 20
-120
 21
-115.8
  0
LINE
  8
0
 10
-4.2
 11
0
 20
-115.8
 21
-115.8
  0
LINE
  8
0
 10
0
 11
0
 20
-115.8
 21
-111.6
  0
LINE
  8
0
 10
0
 11
-4.2
 20
-111.6
 21
-111.6
  0
LINE
  8
0
 10
-4.2
 11
-4.2
 20
-111.6
 21
-107.4
  0
LINE
  8
0
 10
-4.2
 11
0
 20
-107.4
 21
-107.4
  0
LINE
  8
0
 10
0
 11
0
 20
-107.4
 21
-103.2
  0
LINE
  8
0
 10
0
 11
-4.2
 20
-103.2
 21
-103.2
  0
LINE
  8
0
 10
-4.2
 11
-4.2
 20
-103.2
 21
-99
  0
LINE
  8
0
 10
-4.2
 11
0
 20
-99
 21
-99
  0
LINE
  8
0
 10
0
 11
0
 20
-99
 21
-94.8
  0
LINE
  8
0
 10
0
 11
-4.2
 20
-94.8
 21
-94.8
  0
LINE
  8
0
 10
-4.2
 11
-4.2
 20
-94.8
 21
-90.6
  0
LINE
  8
0
 10
-4.2
 11
0
 20
-90.6
 21
-90.6
  0
LINE
  8
0
 10
0
 11
0
 20
-90.6
 21
-86.4
  0
LINE
  8
0
 10
0
 11
-4.2
 20
-86.4
 21
-86.4
  0
LINE
  8
0
 10
-4.2
 11
-4.2
 20
-86.4
 21
-82.2
  0
LINE
  8
0
 10
-4.2
 11
0
 20
-82.2
 21
-82.2
  0
LINE
  8
0
 10
0
 11
0
 20
-82.2
 21
-78
  0
LINE
  8
0
 10
0
 11
-4.2
 20
-78
 21
-78
  0
LINE
  8
0
 10
-4.2
 11
-4.2
 20
-78
 21
-73.8
  0
LINE
  8
0
 10
-4.2
 11
0
 20
-73.8
 21
-73.8
  0
LINE
  8
0
 10
0
 11
0
 20
-73.8
 21
-65.4
  0
LINE
  8
0
 10
0
 11
4.2
 20
-65.4
 21
-65.4
  0
LINE
  8
0
 10
4.2
 11
4.2
 20
-65.4
 21
-69.6
  0
LINE
  8
0
 10
4.2
 11
8.4
 20
-69.6
 21
-69.6
  0
LINE
  8
0
 10
8.4
 11
8.4
 20
-69.6
 21
-65.4
  0
LINE
  8
0
 10
8.4
 11
12.6
 20
-65.4
 21
-65.4
  0
LINE
  8
0
 10
12.6
 11
12.6
 20
-65.4
 21
-69.6
  0
LINE
  8
0
 10
12.6
 11
16.8
 20
-69.6
 21
-69.6
  0
LINE
  8
0
 10
16.8
 11
16.8
 20
-69.6
 21
-65.4
  0
LINE
  8
0
 10
16.8
 11
21
 20
-65.4
 21
-65.4
  0
LINE
  8
0
 10
21
 11
21
 20
-65.4
 21
-69.6
  0
LINE
  8
0
 10
21
 11
25.2
 20
-69.6
 21
-69.6
  0
LINE
  8
0
 10
25.2
 11
25.2
 20
-69.6
 21
-65.4
  0
LINE
  8
0
 10
25.2
 11
29.4
 20
-65.4
 21
-65.4
  0
LINE
  8
0
 10
29.4
 11
29.4
 20
-65.4
 21
-69.6
  0
LINE
  8
0
 10
29.4
 11
33.6
 20
-69.6
 21
-69.6
  0
LINE
  8
0
 10
33.6
 11
33.6
 20
-69.6
 21
-65.4
  0
LINE
  8
0
 10
33.6
 11
37.8
 20
-65.4
 21
-65.4
  0
LINE
  8
0
 10
37.8
 11
37.8
 20
-65.4
 21
-69.6
  0
LINE
  8
0
 10
37.8
 11
42
 20
-69.6
 21
-69.6
  0
LINE
  8
0
 10
42
 11
42
 20
-69.6
 21
-65.4
  0
LINE
  8
0
 10
42
 11
46.2
 20
-65.4
 21
-65.4
  0
LINE
  8
0
 10
46.2
 11
46.2
 20
-65.4
 21
-69.6
  0
LINE
  8
0
 10
46.2
 11
50.4
 20
-69.6
 21
-69.6
  0
LINE
  8
0
 10
50.4
 11
50.4
 20
-69.6
 21
-65.4
  0
LINE
  8
0
 10
50.4
 11
54.6
 20
-65.4
 21
-65.4
  0
LINE
  8
0
 10
54.6
 11
54.6
 20
-65.4
 21
-69.6
  0
LINE
  8
0
 10
54.6
 11
58.8
 20
-69.6
 21
-69.6
  0
LINE
  8
0
 10
58.8
 11
58.8
 20
-69.6
 21
-65.4
  0
LINE
  8
0
 10
58.8
 11
63
 20
-65.4
 21
-65.4
  0
LINE
  8
0
 10
63
 11
63
 20
-65.4
 21
-69.6
  0
LINE
  8
0
 10
63
 11
71.4
 20
-69.6
 21
-69.6
  0
LINE
  8
0
 10
71.4
 11
71.4
 20
-69.6
 21
-73.8
  0
LINE
  8
0
 10
71.4
 11
67.2
 20
-73.8
 21
-73.8
  0
LINE
  8
0
 10
67.2
 11
67.2
 20
-73.8
 21
-78
  0
LINE
  8
0
 10
67.2
 11
71.4
 20
-78
 21
-78
  0
LINE
  8
0
 10
71.4
 11
71.4
 20
-78
 21
-82.2
  0
LINE
  8
0
 10
71.4
 11
67.2
 20
-82.2
 21
-82.2
  0
LINE
  8
0
 10
67.2
 11
67.2
 20
-82.2
 21
-86.4
  0
LINE
  8
0
 10
67.2
 11
71.4
 20
-86.4
 21
-86.4
  0
LINE
  8
0
 10
71.4
 11
71.4
 20
-86.4
 21
-90.6
  0
LINE
  8
0
 10
71.4
 11
67.2
 20
-90.6
 21
-90.6
  0
LINE
  8
0
 10
67.2
 11
67.2
 20
-90.6
 21
-94.8
  0
LINE
  8
0
 10
67.2
 11
71.4
 20
-94.8
 21
-94.8
  0
LINE
  8
0
 10
71.4
 11
71.4
 20
-94.8
 21
-99
  0
LINE
  8
0
 10
71.4
 11
67.2
 20
-99
 21
-99
  0
LINE
  8
0
 10
67.2
 11
67.2
 20
-99
 21
-103.2
  0
LINE
  8
0
 10
67.2
 11
71.4
 20
-103.2
 21
-103.2
  0
LINE
  8
0
 10
71.4
 11
71.4
 20
-103.2
 21
-107.4
  0
LINE
  8
0
 10
71.4
 11
67.2
 20
-107.4
 21
-107.4
  0
LINE
  8
0
 10
67.2
 11
67.2
 20
-107.4
 21
-111.6
  0
LINE
  8
0
 10
67.2
 11
71.4
 20
-111.6
 21
-111.6
  0
LINE
  8
0
 10
71.4
 11
71.4
 20
-111.6
 21
-115.8
  0
LINE
  8
0
 10
71.4
 11
67.2
 20
-115.8
 21
-115.8
  0
LINE
  8
0
 10
67.2
 11
67.2
 20
-115.8
 21
-124.2
  0
LINE
  8
0
 10
67.2
 11
63
 20
-124.2
 21
-124.2
  0
LINE
  8
0
 10
63
 11
63
 20
-124.2
 21
-120
  0
LINE
  8
0
 10
63
 11
58.8
 20
-120
 21
-120
  0
LINE
  8
0
 10
58.8
 11
58.8
 20
-120
 21
-124.2
  0
LINE
  8
0
 10
58.8
 11
54.6
 20
-124.2
 21
-124.2
  0
LINE
  8
0
 10
54.6
 11
54.6
 20
-124.2
 21
-120
  0
LINE
  8
0
 10
54.6
 11
50.4
 20
-120
 21
-120
  0
LINE
  8
0
 10
50.4
 11
50.4
 20
-120
 21
-124.2
  0
LINE
  8
0
 10
50.4
 11
46.2
 20
-124.2
 21
-124.2
  0
LINE
  8
0
 10
46.2
 11
46.2
 20
-124.2
 21
-120
  0
LINE
  8
0
 10
46.2
 11
42
 20
-120
 21
-120
  0
LINE
  8
0
 10
42
 11
42
 20
-120
 21
-124.2
  0
LINE
  8
0
 10
42
 11
37.8
 20
-124.2
 21
-124.2
  0
LINE
  8
0
 10
37.8
 11
37.8
 20
-124.2
 21
-120
  0
LINE
  8
0
 10
37.8
 11
33.6
 20
-120
 21
-120
  0
LINE
  8
0
 10
33.6
 11
33.6
 20
-120
 21
-124.2
  0
LINE
  8
0
 10
33.6
 11
29.4
 20
-124.2
 21
-124.2
  0
LINE
  8
0
 10
29.4
 11
29.4
 20
-124.2
 21
-120
  0
LINE
  8
0
 10
29.4
 11
25.2
 20
-120
 21
-120
  0
LINE
  8
0
 10
25.2
 11
25.2
 20
-120
 21
-124.2
  0
LINE
  8
0
 10
25.2
 11
21
 20
-124.2
 21
-124.2
  0
LINE
  8
0
 10
21
 11
21
 20
-124.2
 21
-120
  0
LINE
  8
0
 10
21
 11
16.8
 20
-120
 21
-120
  0
LINE
  8
0
 10
16.8
 11
16.8
 20
-120
 21
-124.2
  0
LINE
  8
0
 10
16.8
 11
12.6
 20
-124.2
 21
-124.2
  0
LINE
  8
0
 10
12.6
 11
12.6
 20
-124.2
 21
-120
  0
LINE
  8
0
 10
12.6
 11
8.4
 20
-120
 21
-120
  0
LINE
  8
0
 10
8.4
 11
8.4
 20
-120
 21
-124.2
  0
LINE
  8
0
 10
8.4
 11
4.2
 20
-124.2
 21
-124.2
  0
LINE
  8
0
 10
4.2
 11
4.2
 20
-124.2
 21
-120
  0
LINE
  8
0
 10
4.2
 11
-4.2
 20
-120
 21
-120
  0
LINE
  8
0
 10
-4.2
 11
-4.2
 20
-60
 21
-55.8
  0
LINE
  8
0
 10
-4.2
 11
0
 20
-55.8
 21
-55.8
  0
LINE
  8
0
 10
0
 11
0
 20
-55.8
 21
-51.6
  0
LINE
  8
0
 10
0
 11
-4.2
 20
-51.6
 21
-51.6
  0
LINE
  8
0
 10
-4.2
 11
-4.2
 20
-51.6
 21
-47.4
  0
LINE
  8
0
 10
-4.2
 11
0
 20
-47.4
 21
-47.4
  0
LINE
  8
0
 10
0
 11
0
 20
-47.4
 21
-43.2
  0
LINE
  8
0
 10
0
 11
-4.2
 20
-43.2
 21
-43.2
  0
LINE
  8
0
 10
-4.2
 11
-4.2
 20
-43.2
 21
-39
  0
LINE
  8
0
 10
-4.2
 11
0
 20
-39
 21
-39
  0
LINE
  8
0
 10
0
 11
0
 20
-39
 21
-34.8
  0
LINE
  8
0
 10
0
 11
-4.2
 20
-34.8
 21
-34.8
  0
LINE
  8
0
 10
-4.2
 11
-4.2
 20
-34.8
 21
-30.6
  0
LINE
  8
0
 10
-4.2
 11
0
 20
-30.6
 21
-30.6
  0
LINE
  8
0
 10
0
 11
0
 20
-30.6
 21
-26.4
  0
LINE
  8
0
 10
0
 11
-4.2
 20
-26.4
 21
-26.4
  0
LINE
  8
0
 10
-4.2
 11
-4.2
 20
-26.4
 21
-22.2
  0
LINE
  8
0
 10
-4.2
 11
0
 20
-22.2
 21
-22.2
  0
LINE
  8
0
 10
0
 11
0
 20
-22.2
 21
-18
  0
LINE
  8
0
 10
0
 11
-4.2
 20
-18
 21
-18
  0
LINE
  8
0
 10
-4.2
 11
-4.2
 20
-18
 21
-13.8
  0
LINE
  8
0
 10
-4.2
 11
0
 20
-13.8
 21
-13.8
  0
LINE
  8
0
 10
0
 11
0
 20
-13.8
 21
-5.4
  0
LINE
  8
0
 10
0
 11
4.2
 20
-5.4
 21
-5.4
  0
LINE
  8
0
 10
4.2
 11
4.2
 20
-5.4
 21
-9.6
  0
LINE
  8
0
 10
4.2
 11
8.4
 20
-9.6
 21
-9.6
  0
LINE
  8
0
 10
8.4
 11
8.4
 20
-9.6
 21
-5.4
  0
LINE
  8
0
 10
8.4
 11
12.6
 20
-5.4
 21
-5.4
  0
LINE
  8
0
 10
12.6
 11
12.6
 20
-5.4
 21
-9.6
  0
LINE
  8
0
 10
12.6
 11
16.8
 20
-9.6
 21
-9.6
  0
LINE
  8
0
 10
16.8
 11
16.8
 20
-9.6
 21
-5.4
  0
LINE
  8
0
 10
16.8
 11
21
 20
-5.4
 21
-5.4
  0
LINE
  8
0
 10
21
 11
21
 20
-5.4
 21
-9.6
  0
LINE
  8
0
 10
21
 11
25.2
 20
-9.6
 21
-9.6
  0
LINE
  8
0
 10
25.2
 11
25.2
 20
-9.6
 21
-5.4
  0
LINE
  8
0
 10
25.2
 11
29.4
 20
-5.4
 21
-5.4
  0
LINE
  8
0
 10
29.4
 11
29.4
 20
-5.4
 21
-9.6
  0
LINE
  8
0
 10
29.4
 11
33.6
 20
-9.6
 21
-9.6
  0
LINE
  8
0
 10
33.6
 11
33.6
 20
-9.6
 21
-5.4
  0
LINE
  8
0
 10
33.6
 11
37.8
 20
-5.4
 21
-5.4
  0
LINE
  8
0
 10
37.8
 11
37.8
 20
-5.4
 21
-9.6
  0
LINE
  8
0
 10
37.8
 11
42
 20
-9.6
 21
-9.6
  0
LINE
  8
0
 10
42
 11
42
 20
-9.6
 21
-5.4
  0
LINE
  8
0
 10
42
 11
46.2
 20
-5.4
 21
-5.4
  0
LINE
  8
0
 10
46.2
 11
46.2
 20
-5.4
 21
-9.6
  0
LINE
  8
0
 10
46.2
 11
50.4
 20
-9.6
 21
-9.6
  0
LINE
  8
0
 10
50.4
 11
50.4
 20
-9.6
 21
-5.4
  0
LINE
  8
0
 10
50.4
 11
54.6
 20
-5.4
 21
-5.4
  0
LINE
  8
0
 10
54.6
 11
54.6
 20
-5.4
 21
-9.6
  0
LINE
  8
0
 10
54.6
 11
58.8
 20
-9.6
 21
-9.6
  0
LINE
  8
0
 10
58.8
 11
58.8
 20
-9.6
 21
-5.4
  0
LINE
  8
0
 10
58.8
 11
63
 20
-5.4
 21
-5.4
  0
LINE
  8
0
 10
63
 11
63
 20
-5.4
 21
-9.6
  0
LINE
  8
0
 10
63
 11
67.2
 20
-9.6
 21
-9.6
  0
LINE
  8
0
 10
67.2
 11
67.2
 20
-9.6
 21
-5.4
  0
LINE
  8
0
 10
67.2
 11
71.4
 20
-5.4
 21
-5.4
  0
LINE
  8
0
 10
71.4
 11
71.4
 20
-5.4
 21
-9.6
  0
LINE
  8
0
 10
71.4
 11
75.6
 20
-9.6
 21
-9.6
  0
LINE
  8
0
 10
75.6
 11
75.6
 20
-9.6
 21
-5.4
  0
LINE
  8
0
 10
75.6
 11
79.8
 20
-5.4
 21
-5.4
  0
LINE
  8
0
 10
79.8
 11
79.8
 20
-5.4
 21
-9.6
  0
LINE
  8
0
 10
79.8
 11
84
 20
-9.6
 21
-9.6
  0
LINE
  8
0
 10
84
 11
84
 20
-9.6
 21
-5.4
  0
LINE
  8
0
 10
84
 11
88.2
 20
-5.4
 21
-5.4
  0
LINE
  8
0
 10
88.2
 11
88.2
 20
-5.4
 21
-9.6
  0
LINE
  8
0
 10
88.2
 11
92.4
 20
-9.6
 21
-9.6
  0
LINE
  8
0
 10
92.4
 11
92.4
 20
-9.6
 21
-5.4
  0
LINE
  8
0
 10
92.4
 11
96.6
 20
-5.4
 21
-5.4
  0
LINE
  8
0
 10
96.6
 11
96.6
 20
-5.4
 21
-9.6
  0
LINE
  8
0
 10
96.6
 11
100.8
 20
-9.6
 21
-9.6
  0
LINE
  8
0
 10
100.8
 11
100.8
 20
-9.6
 21
-5.4
  0
LINE
  8
0
 10
100.8
 11
105
 20
-5.4
 21
-5.4
  0
LINE
  8
0
 10
105
 11
105
 20
-5.4
 21
-9.6
  0
LINE
  8
0
 10
105
 11
109.2
 20
-9.6
 21
-9.6
  0
LINE
  8
0
 10
109.2
 11
109.2
 20
-9.6
 21
-5.4
  0
LINE
  8
0
 10
109.2
 11
113.4
 20
-5.4
 21
-5.4
  0
LINE
  8
0
 10
113.4
 11
113.4
 20
-5.4
 21
-9.6
  0
LINE
  8
0
 10
113.4
 11
117.6
 20
-9.6
 21
-9.6
  0
LINE
  8
0
 10
117.6
 11
117.6
 20
-9.6
 21
-5.4
  0
LINE
  8
0
 10
117.6
 11
121.8
 20
-5.4
 21
-5.4
  0
LINE
  8
0
 10
121.8
 11
121.8
 20
-5.4
 21
-9.6
  0
LINE
  8
0
 10
121.8
 11
126
 20
-9.6
 21
-9.6
  0
LINE
  8
0
 10
126
 11
126
 20
-9.6
 21
-5.4
  0
LINE
  8
0
 10
126
 11
130.2
 20
-5.4
 21
-5.4
  0
LINE
  8
0
 10
130.2
 11
130.2
 20
-5.4
 21
-9.6
  0
LINE
  8
0
 10
130.2
 11
134.4
 20
-9.6
 21
-9.6
  0
LINE
  8
0
 10
134.4
 11
134.4
 20
-9.6
 21
-5.4
  0
LINE
  8
0
 10
134.4
 11
138.6
 20
-5.4
 21
-5.4
  0
LINE
  8
0
 10
138.6
 11
138.6
 20
-5.4
 21
-9.6
  0
LINE
  8
0
 10
138.6
 11
142.8
 20
-9.6
 21
-9.6
  0
LINE
  8
0
 10
142.8
 11
142.8
 20
-9.6
 21
-5.4
  0
LINE
  8
0
 10
142.8
 11
147
 20
-5.4
 21
-5.4
  0
LINE
  8
0
 10
147
 11
147
 20
-5.4
 21
-9.6
  0
LINE
  8
0
 10
147
 11
151.2
 20
-9.6
 21
-9.6
  0
LINE
  8
0
 10
151.2
 11
151.2
 20
-9.6
 21
-5.4
  0
LINE
  8
0
 10
151.2
 11
155.4
 20
-5.4
 21
-5.4
  0
LINE
  8
0
 10
155.4
 11
155.4
 20
-5.4
 21
-9.6
  0
LINE
  8
0
 10
155.4
 11
159.6
 20
-9.6
 21
-9.6
  0
LINE
  8
0
 10
159.6
 11
159.6
 20
-9.6
 21
-5.4
  0
LINE
  8
0
 10
159.6
 11
163.8
 20
-5.4
 21
-5.4
  0
LINE
  8
0
 10
163.8
 11
163.8
 20
-5.4
 21
-9.6
  0
LINE
  8
0
 10
163.8
 11
168
 20
-9.6
 21
-9.6
  0
LINE
  8
0
 10
168
 11
168
 20
-9.6
 21
-5.4
  0
LINE
  8
0
 10
168
 11
172.2
 20
-5.4
 21
-5.4
  0
LINE
  8
0
 10
172.2
 11
172.2
 20
-5.4
 21
-9.6
  0
LINE
  8
0
 10
172.2
 11
176.4
 20
-9.6
 21
-9.6
  0
LINE
  8
0
 10
176.4
 11
176.4
 20
-9.6
 21
-5.4
  0
LINE
  8
0
 10
176.4
 11
180.6
 20
-5.4
 21
-5.4
  0
LINE
  8
0
 10
180.6
 11
180.6
 20
-5.4
 21
-9.6
  0
LINE
  8
0
 10
180.6
 11
184.8
 20
-9.6
 21
-9.6
  0
LINE
  8
0
 10
184.8
 11
184.8
 20
-9.6
 21
-5.4
  0
LINE
  8
0
 10
184.8
 11
189
 20
-5.4
 21
-5.4
  0
LINE
  8
0
 10
189
 11
189
 20
-5.4
 21
-9.6
  0
LINE
  8
0
 10
189
 11
193.2
 20
-9.6
 21
-9.6
  0
LINE
  8
0
 10
193.2
 11
193.2
 20
-9.6
 21
-5.4
  0
LINE
  8
0
 10
193.2
 11
197.4
 20
-5.4
 21
-5.4
  0
LINE
  8
0
 10
197.4
 11
197.4
 20
-5.4
 21
-9.6
  0
LINE
  8
0
 10
197.4
 11
201.6
 20
-9.6
 21
-9.6
  0
LINE
  8
0
 10
201.6
 11
201.6
 20
-9.6
 21
-5.4
  0
LINE
  8
0
 10
201.6
 11
205.8
 20
-5.4
 21
-5.4
  0
LINE
  8
0
 10
205.8
 11
205.8
 20
-5.4
 21
-9.6
  0
LINE
  8
0
 10
205.8
 11
210
 20
-9.6
 21
-9.6
  0
LINE
  8
0
 10
210
 11
210
 20
-9.6
 21
-5.4
  0
LINE
  8
0
 10
210
 11
214.2
 20
-5.4
 21
-5.4
  0
LINE
  8
0
 10
214.2
 11
214.2
 20
-5.4
 21
-9.6
  0
LINE
  8
0
 10
214.2
 11
218.4
 20
-9.6
 21
-9.6
  0
LINE
  8
0
 10
218.4
 11
218.4
 20
-9.6
 21
-5.4
  0
LINE
  8
0
 10
218.4
 11
222.6
 20
-5.4
 21
-5.4
  0
LINE
  8
0
 10
222.6
 11
222.6
 20
-5.4
 21
-9.6
  0
LINE
  8
0
 10
222.6
 11
226.8
 20
-9.6
 21
-9.6
  0
LINE
  8
0
 10
226.8
 11
226.8
 20
-9.6
 21
-5.4
  0
LINE
  8
0
 10
226.8
 11
231
 20
-5.4
 21
-5.4
  0
LINE
  8
0
 10
231
 11
231
 20
-5.4
 21
-9.6
  0
LINE
  8
0
 10
231
 11
235.2
 20
-9.6
 21
-9.6
  0
LINE
  8
0
 10
235.2
 11
235.2
 20
-9.6
 21
-5.4
  0
LINE
  8
0
 10
235.2
 11
239.4
 20
-5.4
 21
-5.4
  0
LINE
  8
0
 10
239.4
 11
239.4
 20
-5.4
 21
-9.6
  0
LINE
  8
0
 10
239.4
 11
243.6
 20
-9.6
 21
-9.6
  0
LINE
  8
0
 10
243.6
 11
243.6
 20
-9.6
 21
-5.4
  0
LINE
  8
0
 10
243.6
 11
247.8
 20
-5.4
 21
-5.4
  0
LINE
  8
0
 10
247.8
 11
247.8
 20
-5.4
 21
-9.6
  0
LINE
  8
0
 10
247.8
 11
252
 20
-9.6
 21
-9.6
  0
LINE
  8
0
 10
252
 11
252
 20
-9.6
 21
-5.4
  0
LINE
  8
0
 10
252
 11
256.2
 20
-5.4
 21
-5.4
  0
LINE
  8
0
 10
256.2
 11
256.2
 20
-5.4
 21
-9.6
  0
LINE
  8
0
 10
256.2
 11
260.4
 20
-9.6
 21
-9.6
  0
LINE
  8
0
 10
260.4
 11
260.4
 20
-9.6
 21
-5.4
  0
LINE
  8
0
 10
260.4
 11
264.6
 20
-5.4
 21
-5.4
  0
LINE
  8
0
 10
264.6
 11
264.6
 20
-5.4
 21
-9.6
  0
LINE
  8
0
 10
264.6
 11
273
 20
-9.6
 21
-9.6
  0
LINE
  8
0
 10
273
 11
273
 20
-9.6
 21
-13.8
  0
LINE
  8
0
 10
273
 11
268.8
 20
-13.8
 21
-13.8
  0
LINE
  8
0
 10
268.8
 11
268.8
 20
-13.8
 21
-18
  0
LINE
  8
0
 10
268.8
 11
273
 20
-18
 21
-18
  0
LINE
  8
0
 10
273
 11
273
 20
-18
 21
-22.2
  0
LINE
  8
0
 10
273
 11
268.8
 20
-22.2
 21
-22.2
  0
LINE
  8
0
 10
268.8
 11
268.8
 20
-22.2
 21
-26.4
  0
LINE
  8
0
 10
268.8
 11
273
 20
-26.4
 21
-26.4
  0
LINE
  8
0
 10
273
 11
273
 20
-26.4
 21
-30.6
  0
LINE
  8
0
 10
273
 11
268.8
 20
-30.6
 21
-30.6
  0
LINE
  8
0
 10
268.8
 11
268.8
 20
-30.6
 21
-34.8
  0
LINE
  8
0
 10
268.8
 11
273
 20
-34.8
 21
-34.8
  0
LINE
  8
0
 10
273
 11
273
 20
-34.8
 21
-39
  0
LINE
  8
0
 10
273
 11
268.8
 20
-39
 21
-39
  0
LINE
  8
0
 10
268.8
 11
268.8
 20
-39
 21
-43.2
  0
LINE
  8
0
 10
268.8
 11
273
 20
-43.2
 21
-43.2
  0
LINE
  8
0
 10
273
 11
273
 20
-43.2
 21
-47.4
  0
LINE
  8
0
 10
273
 11
268.8
 20
-47.4
 21
-47.4
  0
LINE
  8
0
 10
268.8
 11
268.8
 20
-47.4
 21
-51.6
  0
LINE
  8
0
 10
268.8
 11
273
 20
-51.6
 21
-51.6
  0
LINE
  8
0
 10
273
 11
273
 20
-51.6
 21
-55.8
  0
LINE
  8
0
 10
273
 11
268.8
 20
-55.8
 21
-55.8
  0
LINE
  8
0
 10
268.8
 11
268.8
 20
-55.8
 21
-64.2
  0
LINE
  8
0
 10
268.8
 11
264.6
 20
-64.2
 21
-64.2
  0
LINE
  8
0
 10
264.6
 11
264.6
 20
-64.2
 21
-60
  0
LINE
  8
0
 10
264.6
 11
260.4
 20
-60
 21
-60
  0
LINE
  8
0
 10
260.4
 11
260.4
 20
-60
 21
-64.2
  0
LINE
  8
0
 10
260.4
 11
256.2
 20
-64.2
 21
-64.2
  0
LINE
  8
0
 10
256.2
 11
256.2
 20
-64.2
 21
-60
  0
LINE
  8
0
 10
256.2
 11
252
 20
-60
 21
-60
  0
LINE
  8
0
 10
252
 11
252
 20
-60
 21
-64.2
  0
LINE
  8
0
 10
252
 11
247.8
 20
-64.2
 21
-64.2
  0
LINE
  8
0
 10
247.8
 11
247.8
 20
-64.2
 21
-60
  0
LINE
  8
0
 10
247.8
 11
243.6
 20
-60
 21
-60
  0
LINE
  8
0
 10
243.6
 11
243.6
 20
-60
 21
-64.2
  0
LINE
  8
0
 10
243.6
 11
239.4
 20
-64.2
 21
-64.2
  0
LINE
  8
0
 10
239.4
 11
239.4
 20
-64.2
 21
-60
  0
LINE
  8
0
 10
239.4
 11
235.2
 20
-60
 21
-60
  0
LINE
  8
0
 10
235.2
 11
235.2
 20
-60
 21
-64.2
  0
LINE
  8
0
 10
235.2
 11
231
 20
-64.2
 21
-64.2
  0
LINE
  8
0
 10
231
 11
231
 20
-64.2
 21
-60
  0
LINE
  8
0
 10
231
 11
226.8
 20
-60
 21
-60
  0
LINE
  8
0
 10
226.8
 11
226.8
 20
-60
 21
-64.2
  0
LINE
  8
0
 10
226.8
 11
222.6
 20
-64.2
 21
-64.2
  0
LINE
  8
0
 10
222.6
 11
222.6
 20
-64.2
 21
-60
  0
LINE
  8
0
 10
222.6
 11
218.4
 20
-60
 21
-60
  0
LINE
  8
0
 10
218.4
 11
218.4
 20
-60
 21
-64.2
  0
LINE
  8
0
 10
218.4
 11
214.2
 20
-64.2
 21
-64.2
  0
LINE
  8
0
 10
214.2
 11
214.2
 20
-64.2
 21
-60
  0
LINE
  8
0
 10
214.2
 11
210
 20
-60
 21
-60
  0
LINE
  8
0
 10
210
 11
210
 20
-60
 21
-64.2
  0
LINE
  8
0
 10
210
 11
205.8
 20
-64.2
 21
-64.2
  0
LINE
  8
0
 10
205.8
 11
205.8
 20
-64.2
 21
-60
  0
LINE
  8
0
 10
205.8
 11
201.6
 20
-60
 21
-60
  0
LINE
  8
0
 10
201.6
 11
201.6
 20
-60
 21
-64.2
  0
LINE
  8
0
 10
201.6
 11
197.4
 20
-64.2
 21
-64.2
  0
LINE
  8
0
 10
197.4
 11
197.4
 20
-64.2
 21
-60
  0
LINE
  8
0
 10
197.4
 11
193.2
 20
-60
 21
-60
  0
LINE
  8
0
 10
193.2
 11
193.2
 20
-60
 21
-64.2
  0
LINE
  8
0
 10
193.2
 11
189
 20
-64.2
 21
-64.2
  0
LINE
  8
0
 10
189
 11
189
 20
-64.2
 21
-60
  0
LINE
  8
0
 10
189
 11
184.8
 20
-60
 21
-60
  0
LINE
  8
0
 10
184.8
 11
184.8
 20
-60
 21
-64.2
  0
LINE
  8
0
 10
184.8
 11
180.6
 20
-64.2
 21
-64.2
  0
LINE
  8
0
 10
180.6
 11
180.6
 20
-64.2
 21
-60
  0
LINE
  8
0
 10
180.6
 11
176.4
 20
-60
 21
-60
  0
LINE
  8
0
 10
176.4
 11
176.4
 20
-60
 21
-64.2
  0
LINE
  8
0
 10
176.4
 11
172.2
 20
-64.2
 21
-64.2
  0
LINE
  8
0
 10
172.2
 11
172.2
 20
-64.2
 21
-60
  0
LINE
  8
0
 10
172.2
 11
168
 20
-60
 21
-60
  0
LINE
  8
0
 10
168
 11
168
 20
-60
 21
-64.2
  0
LINE
  8
0
 10
168
 11
163.8
 20
-64.2
 21
-64.2
  0
LINE
  8
0
 10
163.8
 11
163.8
 20
-64.2
 21
-60
  0
LINE
  8
0
 10
163.8
 11
159.6
 20
-60
 21
-60
  0
LINE
  8
0
 10
159.6
 11
159.6
 20
-60
 21
-64.2
  0
LINE
  8
0
 10
159.6
 11
155.4
 20
-64.2
 21
-64.2
  0
LINE
  8
0
 10
155.4
 11
155.4
 20
-64.2
 21
-60
  0
LINE
  8
0
 10
155.4
 11
151.2
 20
-60
 21
-60
  0
LINE
  8
0
 10
151.2
 11
151.2
 20
-60
 21
-64.2
  0
LINE
  8
0
 10
151.2
 11
147
 20
-64.2
 21
-64.2
  0
LINE
  8
0
 10
147
 11
147
 20
-64.2
 21
-60
  0
LINE
  8
0
 10
147
 11
142.8
 20
-60
 21
-60
  0
LINE
  8
0
 10
142.8
 11
142.8
 20
-60
 21
-64.2
  0
LINE
  8
0
 10
142.8
 11
138.6
 20
-64.2
 21
-64.2
  0
LINE
  8
0
 10
138.6
 11
138.6
 20
-64.2
 21
-60
  0
LINE
  8
0
 10
138.6
 11
134.4
 20
-60
 21
-60
  0
LINE
  8
0
 10
134.4
 11
134.4
 20
-60
 21
-64.2
  0
LINE
  8
0
 10
134.4
 11
130.2
 20
-64.2
 21
-64.2
  0
LINE
  8
0
 10
130.2
 11
130.2
 20
-64.2
 21
-60
  0
LINE
  8
0
 10
130.2
 11
126
 20
-60
 21
-60
  0
LINE
  8
0
 10
126
 11
126
 20
-60
 21
-64.2
  0
LINE
  8
0
 10
126
 11
121.8
 20
-64.2
 21
-64.2
  0
LINE
  8
0
 10
121.8
 11
121.8
 20
-64.2
 21
-60
  0
LINE
  8
0
 10
121.8
 11
117.6
 20
-60
 21
-60
  0
LINE
  8
0
 10
117.6
 11
117.6
 20
-60
 21
-64.2
  0
LINE
  8
0
 10
117.6
 11
113.4
 20
-64.2
 21
-64.2
  0
LINE
  8
0
 10
113.4
 11
113.4
 20
-64.2
 21
-60
  0
LINE
  8
0
 10
113.4
 11
109.2
 20
-60
 21
-60
  0
LINE
  8
0
 10
109.2
 11
109.2
 20
-60
 21
-64.2
  0
LINE
  8
0
 10
109.2
 11
105
 20
-64.2
 21
-64.2
  0
LINE
  8
0
 10
105
 11
105
 20
-64.2
 21
-60
  0
LINE
  8
0
 10
105
 11
100.8
 20
-60
 21
-60
  0
LINE
  8
0
 10
100.8
 11
100.8
 20
-60
 21
-64.2
  0
LINE
  8
0
 10
100.8
 11
96.6
 20
-64.2
 21
-64.2
  0
LINE
  8
0
 10
96.6
 11
96.6
 20
-64.2
 21
-60
  0
LINE
  8
0
 10
96.6
 11
92.4
 20
-60
 21
-60
  0
LINE
  8
0
 10
92.4
 11
92.4
 20
-60
 21
-64.2
  0
LINE
  8
0
 10
92.4
 11
88.2
 20
-64.2
 21
-64.2
  0
LINE
  8
0
 10
88.2
 11
88.2
 20
-64.2
 21
-60
  0
LINE
  8
0
 10
88.2
 11
84
 20
-60
 21
-60
  0
LINE
  8
0
 10
84
 11
84
 20
-60
 21
-64.2
  0
LINE
  8
0
 10
84
 11
79.8
 20
-64.2
 21
-64.2
  0
LINE
  8
0
 10
79.8
 11
79.8
 20
-64.2
 21
-60
  0
LINE
  8
0
 10
79.8
 11
75.6
 20
-60
 21
-60
  0
LINE
  8
0
 10
75.6
 11
75.6
 20
-60
 21
-64.2
  0
LINE
  8
0
 10
75.6
 11
71.4
 20
-64.2
 21
-64.2
  0
LINE
  8
0
 10
71.4
 11
71.4
 20
-64.2
 21
-60
  0
LINE
  8
0
 10
71.4
 11
67.2
 20
-60
 21
-60
  0
LINE
  8
0
 10
67.2
 11
67.2
 20
-60
 21
-64.2
  0
LINE
  8
0
 10
67.2
 11
63
 20
-64.2
 21
-64.2
  0
LINE
  8
0
 10
63
 11
63
 20
-64.2
 21
-60
  0
LINE
  8
0
 10
63
 11
58.8
 20
-60
 21
-60
  0
LINE
  8
0
 10
58.8
 11
58.8
 20
-60
 21
-64.2
  0
LINE
  8
0
 10
58.8
 11
54.6
 20
-64.2
 21
-64.2
  0
LINE
  8
0
 10
54.6
 11
54.6
 20
-64.2
 21
-60
  0
LINE
  8
0
 10
54.6
 11
50.4
 20
-60
 21
-60
  0
LINE
  8
0
 10
50.4
 11
50.4
 20
-60
 21
-64.2
  0
LINE
  8
0
 10
50.4
 11
46.2
 20
-64.2
 21
-64.2
  0
LINE
  8
0
 10
46.2
 11
46.2
 20
-64.2
 21
-60
  0
LINE
  8
0
 10
46.2
 11
42
 20
-60
 21
-60
  0
LINE
  8
0
 10
42
 11
42
 20
-60
 21
-64.2
  0
LINE
  8
0
 10
42
 11
37.8
 20
-64.2
 21
-64.2
  0
LINE
  8
0
 10
37.8
 11
37.8
 20
-64.2
 21
-60
  0
LINE
  8
0
 10
37.8
 11
33.6
 20
-60
 21
-60
  0
LINE
  8
0
 10
33.6
 11
33.6
 20
-60
 21
-64.2
  0
LINE
  8
0
 10
33.6
 11
29.4
 20
-64.2
 21
-64.2
  0
LINE
  8
0
 10
29.4
 11
29.4
 20
-64.2
 21
-60
  0
LINE
  8
0
 10
29.4
 11
25.2
 20
-60
 21
-60
  0
LINE
  8
0
 10
25.2
 11
25.2
 20
-60
 21
-64.2
  0
LINE
  8
0
 10
25.2
 11
21
 20
-64.2
 21
-64.2
  0
LINE
  8
0
 10
21
 11
21
 20
-64.2
 21
-60
  0
LINE
  8
0
 10
21
 11
16.8
 20
-60
 21
-60
  0
LINE
  8
0
 10
16.8
 11
16.8
 20
-60
 21
-64.2
  0
LINE
  8
0
 10
16.8
 11
12.6
 20
-64.2
 21
-64.2
  0
LINE
  8
0
 10
12.6
 11
12.6
 20
-64.2
 21
-60
  0
LINE
  8
0
 10
12.6
 11
8.4
 20
-60
 21
-60
  0
LINE
  8
0
 10
8.4
 11
8.4
 20
-60
 21
-64.2
  0
LINE
  8
0
 10
8.4
 11
4.2
 20
-64.2
 21
-64.2
  0
LINE
  8
0
 10
4.2
 11
4.2
 20
-64.2
 21
-60
  0
LINE
  8
0
 10
4.2
 11
-4.2
 20
-60
 21
-60
  0
LINE
  8
0
 10
-4.2
 11
-4.2
 20
0
 21
4.2
  0
LINE
  8
0
 10
-4.2
 11
0
 20
4.2
 21
4.2
  0
LINE
  8
0
 10
0
 11
0
 20
4.2
 21
8.4
  0
LINE
  8
0
 10
0
 11
-4.2
 20
8.4
 21
8.4
  0
LINE
  8
0
 10
-4.2
 11
-4.2
 20
8.4
 21
12.6
  0
LINE
  8
0
 10
-4.2
 11
0
 20
12.6
 21
12.6
  0
LINE
  8
0
 10
0
 11
0
 20
12.6
 21
16.8
  0
LINE
  8
0
 10
0
 11
-4.2
 20
16.8
 21
16.8
  0
LINE
  8
0
 10
-4.2
 11
-4.2
 20
16.8
 21
21
  0
LINE
  8
0
 10
-4.2
 11
0
 20
21
 21
21
  0
LINE
  8
0
 10
0
 11
0
 20
21
 21
25.2
  0
LINE
  8
0
 10
0
 11
-4.2
 20
25.2
 21
25.2
  0
LINE
  8
0
 10
-4.2
 11
-4.2
 20
25.2
 21
29.4
  0
LINE
  8
0
 10
-4.2
 11
0
 20
29.4
 21
29.4
  0
LINE
  8
0
 10
0
 11
0
 20
29.4
 21
33.6
  0
LINE
  8
0
 10
0
 11
-4.2
 20
33.6
 21
33.6
  0
LINE
  8
0
 10
-4.2
 11
-4.2
 20
33.6
 21
37.8
  0
LINE
  8
0
 10
-4.2
 11
0
 20
37.8
 21
37.8
  0
LINE
  8
0
 10
0
 11
0
 20
37.8
 21
42
  0
LINE
  8
0
 10
0
 11
-4.2
 20
42
 21
42
  0
LINE
  8
0
 10
-4.2
 11
-4.2
 20
42
 21
46.2
  0
LINE
  8
0
 10
-4.2
 11
0
 20
46.2
 21
46.2
  0
LINE
  8
0
 10
0
 11
0
 20
46.2
 21
54.6
  0
LINE
  8
0
 10
0
 11
4.2
 20
54.6
 21
54.6
  0
LINE
  8
0
 10
4.2
 11
4.2
 20
54.6
 21
50.4
  0
LINE
  8
0
 10
4.2
 11
8.4
 20
50.4
 21
50.4
  0
LINE
  8
0
 10
8.4
 11
8.4
 20
50.4
 21
54.6
  0
LINE
  8
0
 10
8.4
 11
12.6
 20
54.6
 21
54.6
  0
LINE
  8
0
 10
12.6
 11
12.6
 20
54.6
 21
50.4
  0
LINE
  8
0
 10
12.6
 11
16.8
 20
50.4
 21
50.4
  0
LINE
  8
0
 10
16.8
 11
16.8
 20
50.4
 21
54.6
  0
LINE
  8
0
 10
16.8
 11
21
 20
54.6
 21
54.6
  0
LINE
  8
0
 10
21
 11
21
 20
54.6
 21
50.4
  0
LINE
  8
0
 10
21
 11
25.2
 20
50.4
 21
50.4
  0
LINE
  8
0
 10
25.2
 11
25.2
 20
50.4
 21
54.6
  0
LINE
  8
0
 10
25.2
 11
29.4
 20
54.6
 21
54.6
  0
LINE
  8
0
 10
29.4
 11
29.4
 20
54.6
 21
50.4
  0
LINE
  8
0
 10
29.4
 11
33.6
 20
50.4
 21
50.4
  0
LINE
  8
0
 10
33.6
 11
33.6
 20
50.4
 21
54.6
  0
LINE
  8
0
 10
33.6
 11
37.8
 20
54.6
 21
54.6
  0
LINE
  8
0
 10
37.8
 11
37.8
 20
54.6
 21
50.4
  0
LINE
  8
0
 10
37.8
 11
42
 20
50.4
 21
50.4
  0
LINE
  8
0
 10
42
 11
42
 20
50.4
 21
54.6
  0
LINE
  8
0
 10
42
 11
46.2
 20
54.6
 21
54.6
  0
LINE
  8
0
 10
46.2
 11
46.2
 20
54.6
 21
50.4
  0
LINE
  8
0
 10
46.2
 11
50.4
 20
50.4
 21
50.4
  0
LINE
  8
0
 10
50.4
 11
50.4
 20
50.4
 21
54.6
  0
LINE
  8
0
 10
50.4
 11
54.6
 20
54.6
 21
54.6
  0
LINE
  8
0
 10
54.6
 11
54.6
 20
54.6
 21
50.4
  0
LINE
  8
0
 10
54.6
 11
58.8
 20
50.4
 21
50.4
  0
LINE
  8
0
 10
58.8
 11
58.8
 20
50.4
 21
54.6
  0
LINE
  8
0
 10
58.8
 11
63
 20
54.6
 21
54.6
  0
LINE
  8
0
 10
63
 11
63
 20
54.6
 21
50.4
  0
LINE
  8
0
 10
63
 11
67.2
 20
50.4
 21
50.4
  0
LINE
  8
0
 10
67.2
 11
67.2
 20
50.4
 21
54.6
  0
LINE
  8
0
 10
67.2
 11
71.4
 20
54.6
 21
54.6
  0
LINE
  8
0
 10
71.4
 11
71.4
 20
54.6
 21
50.4
  0
LINE
  8
0
 10
71.4
 11
75.6
 20
50.4
 21
50.4
  0
LINE
  8
0
 10
75.6
 11
75.6
 20
50.4
 21
54.6
  0
LINE
  8
0
 10
75.6
 11
79.8
 20
54.6
 21
54.6
  0
LINE
  8
0
 10
79.8
 11
79.8
 20
54.6
 21
50.4
  0
LINE
  8
0
 10
79.8
 11
84
 20
50.4
 21
50.4
  0
LINE
  8
0
 10
84
 11
84
 20
50.4
 21
54.6
  0
LINE
  8
0
 10
84
 11
88.2
 20
54.6
 21
54.6
  0
LINE
  8
0
 10
88.2
 11
88.2
 20
54.6
 21
50.4
  0
LINE
  8
0
 10
88.2
 11
92.4
 20
50.4
 21
50.4
  0
LINE
  8
0
 10
92.4
 11
92.4
 20
50.4
 21
54.6
  0
LINE
  8
0
 10
92.4
 11
96.6
 20
54.6
 21
54.6
  0
LINE
  8
0
 10
96.6
 11
96.6
 20
54.6
 21
50.4
  0
LINE
  8
0
 10
96.6
 11
100.8
 20
50.4
 21
50.4
  0
LINE
  8
0
 10
100.8
 11
100.8
 20
50.4
 21
54.6
  0
LINE
  8
0
 10
100.8
 11
105
 20
54.6
 21
54.6
  0
LINE
  8
0
 10
105
 11
105
 20
54.6
 21
50.4
  0
LINE
  8
0
 10
105
 11
109.2
 20
50.4
 21
50.4
  0
LINE
  8
0
 10
109.2
 11
109.2
 20
50.4
 21
54.6
  0
LINE
  8
0
 10
109.2
 11
113.4
 20
54.6
 21
54.6
  0
LINE
  8
0
 10
113.4
 11
113.4
 20
54.6
 21
50.4
  0
LINE
  8
0
 10
113.4
 11
117.6
 20
50.4
 21
50.4
  0
LINE
  8
0
 10
117.6
 11
117.6
 20
50.4
 21
54.6
  0
LINE
  8
0
 10
117.6
 11
121.8
 20
54.6
 21
54.6
  0
LINE
  8
0
 10
121.8
 11
121.8
 20
54.6
 21
50.4
  0
LINE
  8
0
 10
121.8
 11
126
 20
50.4
 21
50.4
  0
LINE
  8
0
 10
126
 11
126
 20
50.4
 21
54.6
  0
LINE
  8
0
 10
126
 11
130.2
 20
54.6
 21
54.6
  0
LINE
  8
0
 10
130.2
 11
130.2
 20
54.6
 21
50.4
  0
LINE
  8
0
 10
130.2
 11
134.4
 20
50.4
 21
50.4
  0
LINE
  8
0
 10
134.4
 11
134.4
 20
50.4
 21
54.6
  0
LINE
  8
0
 10
134.4
 11
138.6
 20
54.6
 21
54.6
  0
LINE
  8
0
 10
138.6
 11
138.6
 20
54.6
 21
50.4
  0
LINE
  8
0
 10
138.6
 11
142.8
 20
50.4
 21
50.4
  0
LINE
  8
0
 10
142.8
 11
142.8
 20
50.4
 21
54.6
  0
LINE
  8
0
 10
142.8
 11
147
 20
54.6
 21
54.6
  0
LINE
  8
0
 10
147
 11
147
 20
54.6
 21
50.4
  0
LINE
  8
0
 10
147
 11
151.2
 20
50.4
 21
50.4
  0
LINE
  8
0
 10
151.2
 11
151.2
 20
50.4
 21
54.6
  0
LINE
  8
0
 10
151.2
 11
155.4
 20
54.6
 21
54.6
  0
LINE
  8
0
 10
155.4
 11
155.4
 20
54.6
 21
50.4
  0
LINE
  8
0
 10
155.4
 11
159.6
 20
50.4
 21
50.4
  0
LINE
  8
0
 10
159.6
 11
159.6
 20
50.4
 21
54.6
  0
LINE
  8
0
 10
159.6
 11
163.8
 20
54.6
 21
54.6
  0
LINE
  8
0
 10
163.8
 11
163.8
 20
54.6
 21
50.4
  0
LINE
  8
0
 10
163.8
 11
168
 20
50.4
 21
50.4
  0
LINE
  8
0
 10
168
 11
168
 20
50.4
 21
54.6
  0
LINE
  8
0
 10
168
 11
172.2
 20
54.6
 21
54.6
  0
LINE
  8
0
 10
172.2
 11
172.2
 20
54.6
 21
50.4
  0
LINE
  8
0
 10
172.2
 11
176.4
 20
50.4
 21
50.4
  0
LINE
  8
0
 10
176.4
 11
176.4
 20
50.4
 21
54.6
  0
LINE
  8
0
 10
176.4
 11
180.6
 20
54.6
 21
54.6
  0
LINE
  8
0
 10
180.6
 11
180.6
 20
54.6
 21
50.4
  0
LINE
  8
0
 10
180.6
 11
184.8
 20
50.4
 21
50.4
  0
LINE
  8
0
 10
184.8
 11
184.8
 20
50.4
 21
54.6
  0
LINE
  8
0
 10
184.8
 11
189
 20
54.6
 21
54.6
  0
LINE
  8
0
 10
189
 11
189
 20
54.6
 21
50.4
  0
LINE
  8
0
 10
189
 11
193.2
 20
50.4
 21
50.4
  0
LINE
  8
0
 10
193.2
 11
193.2
 20
50.4
 21
54.6
  0
LINE
  8
0
 10
193.2
 11
197.4
 20
54.6
 21
54.6
  0
LINE
  8
0
 10
197.4
 11
197.4
 20
54.6
 21
50.4
  0
LINE
  8
0
 10
197.4
 11
201.6
 20
50.4
 21
50.4
  0
LINE
  8
0
 10
201.6
 11
201.6
 20
50.4
 21
54.6
  0
LINE
  8
0
 10
201.6
 11
205.8
 20
54.6
 21
54.6
  0
LINE
  8
0
 10
205.8
 11
205.8
 20
54.6
 21
50.4
  0
LINE
  8
0
 10
205.8
 11
210
 20
50.4
 21
50.4
  0
LINE
  8
0
 10
210
 11
210
 20
50.4
 21
54.6
  0
LINE
  8
0
 10
210
 11
214.2
 20
54.6
 21
54.6
  0
LINE
  8
0
 10
214.2
 11
214.2
 20
54.6
 21
50.4
  0
LINE
  8
0
 10
214.2
 11
218.4
 20
50.4
 21
50.4
  0
LINE
  8
0
 10
218.4
 11
218.4
 20
50.4
 21
54.6
  0
LINE
  8
0
 10
218.4
 11
222.6
 20
54.6
 21
54.6
  0
LINE
  8
0
 10
222.6
 11
222.6
 20
54.6
 21
50.4
  0
LINE
  8
0
 10
222.6
 11
226.8
 20
50.4
 21
50.4
  0
LINE
  8
0
 10
226.8
 11
226.8
 20
50.4
 21
54.6
  0
LINE
  8
0
 10
226.8
 11
231
 20
54.6
 21
54.6
  0
LINE
  8
0
 10
231
 11
231
 20
54.6
 21
50.4
  0
LINE
  8
0
 10
231
 11
235.2
 20
50.4
 21
50.4
  0
LINE
  8
0
 10
235.2
 11
235.2
 20
50.4
 21
54.6
  0
LINE
  8
0
 10
235.2
 11
239.4
 20
54.6
 21
54.6
  0
LINE
  8
0
 10
239.4
 11
239.4
 20
54.6
 21
50.4
  0
LINE
  8
0
 10
239.4
 11
243.6
 20
50.4
 21
50.4
  0
LINE
  8
0
 10
243.6
 11
243.6
 20
50.4
 21
54.6
  0
LINE
  8
0
 10
243.6
 11
247.8
 20
54.6
 21
54.6
  0
LINE
  8
0
 10
247.8
 11
247.8
 20
54.6
 21
50.4
  0
LINE
  8
0
 10
247.8
 11
252
 20
50.4
 21
50.4
  0
LINE
  8
0
 10
252
 11
252
 20
50.4
 21
54.6
  0
LINE
  8
0
 10
252
 11
256.2
 20
54.6
 21
54.6
  0
LINE
  8
0
 10
256.2
 11
256.2
 20
54.6
 21
50.4
  0
LINE
  8
0
 10
256.2
 11
260.4
 20
50.4
 21
50.4
  0
LINE
  8
0
 10
260.4
 11
260.4
 20
50.4
 21
54.6
  0
LINE
  8
0
 10
260.4
 11
264.6
 20
54.6
 21
54.6
  0
LINE
  8
0
 10
264.6
 11
264.6
 20
54.6
 21
50.4
  0
LINE
  8
0
 10
264.6
 11
273
 20
50.4
 21
50.4
  0
LINE
  8
0
 10
273
 11
273
 20
50.4
 21
46.2
  0
LINE
  8
0
 10
273
 11
268.8
 20
46.2
 21
46.2
  0
LINE
  8
0
 10
268.8
 11
268.8
 20
46.2
 21
42
  0
LINE
  8
0
 10
268.8
 11
273
 20
42
 21
42
  0
LINE
  8
0
 10
273
 11
273
 20
42
 21
37.8
  0
LINE
  8
0
 10
273
 11
268.8
 20
37.8
 21
37.8
  0
LINE
  8
0
 10
268.8
 11
268.8
 20
37.8
 21
33.6
  0
LINE
  8
0
 10
268.8
 11
273
 20
33.6
 21
33.6
  0
LINE
  8
0
 10
273
 11
273
 20
33.6
 21
29.4
  0
LINE
  8
0
 10
273
 11
268.8
 20
29.4
 21
29.4
  0
LINE
  8
0
 10
268.8
 11
268.8
 20
29.4
 21
25.2
  0
LINE
  8
0
 10
268.8
 11
273
 20
25.2
 21
25.2
  0
LINE
  8
0
 10
273
 11
273
 20
25.2
 21
21
  0
LINE
  8
0
 10
273
 11
268.8
 20
21
 21
21
  0
LINE
  8
0
 10
268.8
 11
268.8
 20
21
 21
16.8
  0
LINE
  8
0
 10
268.8
 11
273
 20
16.8
 21
16.8
  0
LINE
  8
0
 10
273
 11
273
 20
16.8
 21
12.6
  0
LINE
  8
0
 10
273
 11
268.8
 20
12.6
 21
12.6
  0
LINE
  8
0
 10
268.8
 11
268.8
 20
12.6
 21
8.4
  0
LINE
  8
0
 10
268.8
 11
273
 20
8.4
 21
8.4
  0
LINE
  8
0
 10
273
 11
273
 20
8.4
 21
4.2
  0
LINE
  8
0
 10
273
 11
268.8
 20
4.2
 21
4.2
  0
LINE
  8
0
 10
268.8
 11
268.8
 20
4.2
 21
-4.2
  0
LINE
  8
0
 10
268.8
 11
264.6
 20
-4.2
 21
-4.2
  0
LINE
  8
0
 10
264.6
 11
264.6
 20
-4.2
 21
0
  0
LINE
  8
0
 10
264.6
 11
260.4
 20
0
 21
0
  0
LINE
  8
0
 10
260.4
 11
260.4
 20
0
 21
-4.2
  0
LINE
  8
0
 10
260.4
 11
256.2
 20
-4.2
 21
-4.2
  0
LINE
  8
0
 10
256.2
 11
256.2
 20
-4.2
 21
0
  0
LINE
  8
0
 10
256.2
 11
252
 20
0
 21
0
  0
LINE
  8
0
 10
252
 11
252
 20
0
 21
-4.2
  0
LINE
  8
0
 10
252
 11
247.8
 20
-4.2
 21
-4.2
  0
LINE
  8
0
 10
247.8
 11
247.8
 20
-4.2
 21
0
  0
LINE
  8
0
 10
247.8
 11
243.6
 20
0
 21
0
  0
LINE
  8
0
 10
243.6
 11
243.6
 20
0
 21
-4.2
  0
LINE
  8
0
 10
243.6
 11
239.4
 20
-4.2
 21
-4.2
  0
LINE
  8
0
 10
239.4
 11
239.4
 20
-4.2
 21
0
  0
LINE
  8
0
 10
239.4
 11
235.2
 20
0
 21
0
  0
LINE
  8
0
 10
235.2
 11
235.2
 20
0
 21
-4.2
  0
LINE
  8
0
 10
235.2
 11
231
 20
-4.2
 21
-4.2
  0
LINE
  8
0
 10
231
 11
231
 20
-4.2
 21
0
  0
LINE
  8
0
 10
231
 11
226.8
 20
0
 21
0
  0
LINE
  8
0
 10
226.8
 11
226.8
 20
0
 21
-4.2
  0
LINE
  8
0
 10
226.8
 11
222.6
 20
-4.2
 21
-4.2
  0
LINE
  8
0
 10
222.6
 11
222.6
 20
-4.2
 21
0
  0
LINE
  8
0
 10
222.6
 11
218.4
 20
0
 21
0
  0
LINE
  8
0
 10
218.4
 11
218.4
 20
0
 21
-4.2
  0
LINE
  8
0
 10
218.4
 11
214.2
 20
-4.2
 21
-4.2
  0
LINE
  8
0
 10
214.2
 11
214.2
 20
-4.2
 21
0
  0
LINE
  8
0
 10
214.2
 11
210
 20
0
 21
0
  0
LINE
  8
0
 10
210
 11
210
 20
0
 21
-4.2
  0
LINE
  8
0
 10
210
 11
205.8
 20
-4.2
 21
-4.2
  0
LINE
  8
0
 10
205.8
 11
205.8
 20
-4.2
 21
0
  0
LINE
  8
0
 10
205.8
 11
201.6
 20
0
 21
0
  0
LINE
  8
0
 10
201.6
 11
201.6
 20
0
 21
-4.2
  0
LINE
  8
0
 10
201.6
 11
197.4
 20
-4.2
 21
-4.2
  0
LINE
  8
0
 10
197.4
 11
197.4
 20
-4.2
 21
0
  0
LINE
  8
0
 10
197.4
 11
193.2
 20
0
 21
0
  0
LINE
  8
0
 10
193.2
 11
193.2
 20
0
 21
-4.2
  0
LINE
  8
0
 10
193.2
 11
189
 20
-4.2
 21
-4.2
  0
LINE
  8
0
 10
189
 11
189
 20
-4.2
 21
0
  0
LINE
  8
0
 10
189
 11
184.8
 20
0
 21
0
  0
LINE
  8
0
 10
184.8
 11
184.8
 20
0
 21
-4.2
  0
LINE
  8
0
 10
184.8
 11
180.6
 20
-4.2
 21
-4.2
  0
LINE
  8
0
 10
180.6
 11
180.6
 20
-4.2
 21
0
  0
LINE
  8
0
 10
180.6
 11
176.4
 20
0
 21
0
  0
LINE
  8
0
 10
176.4
 11
176.4
 20
0
 21
-4.2
  0
LINE
  8
0
 10
176.4
 11
172.2
 20
-4.2
 21
-4.2
  0
LINE
  8
0
 10
172.2
 11
172.2
 20
-4.2
 21
0
  0
LINE
  8
0
 10
172.2
 11
168
 20
0
 21
0
  0
LINE
  8
0
 10
168
 11
168
 20
0
 21
-4.2
  0
LINE
  8
0
 10
168
 11
163.8
 20
-4.2
 21
-4.2
  0
LINE
  8
0
 10
163.8
 11
163.8
 20
-4.2
 21
0
  0
LINE
  8
0
 10
163.8
 11
159.6
 20
0
 21
0
  0
LINE
  8
0
 10
159.6
 11
159.6
 20
0
 21
-4.2
  0
LINE
  8
0
 10
159.6
 11
155.4
 20
-4.2
 21
-4.2
  0
LINE
  8
0
 10
155.4
 11
155.4
 20
-4.2
 21
0
  0
LINE
  8
0
 10
155.4
 11
151.2
 20
0
 21
0
  0
LINE
  8
0
 10
151.2
 11
151.2
 20
0
 21
-4.2
  0
LINE
  8
0
 10
151.2
 11
147
 20
-4.2
 21
-4.2
  0
LINE
  8
0
 10
147
 11
147
 20
-4.2
 21
0
  0
LINE
  8
0
 10
147
 11
142.8
 20
0
 21
0
  0
LINE
  8
0
 10
142.8
 11
142.8
 20
0
 21
-4.2
  0
LINE
  8
0
 10
142.8
 11
138.6
 20
-4.2
 21
-4.2
  0
LINE
  8
0
 10
138.6
 11
138.6
 20
-4.2
 21
0
  0
LINE
  8
0
 10
138.6
 11
134.4
 20
0
 21
0
  0
LINE
  8
0
 10
134.4
 11
134.4
 20
0
 21
-4.2
  0
LINE
  8
0
 10
134.4
 11
130.2
 20
-4.2
 21
-4.2
  0
LINE
  8
0
 10
130.2
 11
130.2
 20
-4.2
 21
0
  0
LINE
  8
0
 10
130.2
 11
126
 20
0
 21
0
  0
LINE
  8
0
 10
126
 11
126
 20
0
 21
-4.2
  0
LINE
  8
0
 10
126
 11
121.8
 20
-4.2
 21
-4.2
  0
LINE
  8
0
 10
121.8
 11
121.8
 20
-4.2
 21
0
  0
LINE
  8
0
 10
121.8
 11
117.6
 20
0
 21
0
  0
LINE
  8
0
 10
117.6
 11
117.6
 20
0
 21
-4.2
  0
LINE
  8
0
 10
117.6
 11
113.4
 20
-4.2
 21
-4.2
  0
LINE
  8
0
 10
113.4
 11
113.4
 20
-4.2
 21
0
  0
LINE
  8
0
 10
113.4
 11
109.2
 20
0
 21
0
  0
LINE
  8
0
 10
109.2
 11
109.2
 20
0
 21
-4.2
  0
LINE
  8
0
 10
109.2
 11
105
 20
-4.2
 21
-4.2
  0
LINE
  8
0
 10
105
 11
105
 20
-4.2
 21
0
  0
LINE
  8
0
 10
105
 11
100.8
 20
0
 21
0
  0
LINE
  8
0
 10
100.8
 11
100.8
 20
0
 21
-4.2
  0
LINE
  8
0
 10
100.8
 11
96.6
 20
-4.2
 21
-4.2
  0
LINE
  8
0
 10
96.6
 11
96.6
 20
-4.2
 21
0
  0
LINE
  8
0
 10
96.6
 11
92.4
 20
0
 21
0
  0
LINE
  8
0
 10
92.4
 11
92.4
 20
0
 21
-4.2
  0
LINE
  8
0
 10
92.4
 11
88.2
 20
-4.2
 21
-4.2
  0
LINE
  8
0
 10
88.2
 11
88.2
 20
-4.2
 21
0
  0
LINE
  8
0
 10
88.2
 11
84
 20
0
 21
0
  0
LINE
  8
0
 10
84
 11
84
 20
0
 21
-4.2
  0
LINE
  8
0
 10
84
 11
79.8
 20
-4.2
 21
-4.2
  0
LINE
  8
0
 10
79.8
 11
79.8
 20
-4.2
 21
0
  0
LINE
  8
0
 10
79.8
 11
75.6
 20
0
 21
0
  0
LINE
  8
0
 10
75.6
 11
75.6
 20
0
 21
-4.2
  0
LINE
  8
0
 10
75.6
 11
71.4
 20
-4.2
 21
-4.2
  0
LINE
  8
0
 10
71.4
 11
71.4
 20
-4.2
 21
0
  0
LINE
  8
0
 10
71.4
 11
67.2
 20
0
 21
0
  0
LINE
  8
0
 10
67.2
 11
67.2
 20
0
 21
-4.2
  0
LINE
  8
0
 10
67.2
 11
63
 20
-4.2
 21
-4.2
  0
LINE
  8
0
 10
63
 11
63
 20
-4.2
 21
0
  0
LINE
  8
0
 10
63
 11
58.8
 20
0
 21
0
  0
LINE
  8
0
 10
58.8
 11
58.8
 20
0
 21
-4.2
  0
LINE
  8
0
 10
58.8
 11
54.6
 20
-4.2
 21
-4.2
  0
LINE
  8
0
 10
54.6
 11
54.6
 20
-4.2
 21
0
  0
LINE
  8
0
 10
54.6
 11
50.4
 20
0
 21
0
  0
LINE
  8
0
 10
50.4
 11
50.4
 20
0
 21
-4.2
  0
LINE
  8
0
 10
50.4
 11
46.2
 20
-4.2
 21
-4.2
  0
LINE
  8
0
 10
46.2
 11
46.2
 20
-4.2
 21
0
  0
LINE
  8
0
 10
46.2
 11
42
 20
0
 21
0
  0
LINE
  8
0
 10
42
 11
42
 20
0
 21
-4.2
  0
LINE
  8
0
 10
42
 11
37.8
 20
-4.2
 21
-4.2
  0
LINE
  8
0
 10
37.8
 11
37.8
 20
-4.2
 21
0
  0
LINE
  8
0
 10
37.8
 11
33.6
 20
0
 21
0
  0
LINE
  8
0
 10
33.6
 11
33.6
 20
0
 21
-4.2
  0
LINE
  8
0
 10
33.6
 11
29.4
 20
-4.2
 21
-4.2
  0
LINE
  8
0
 10
29.4
 11
29.4
 20
-4.2
 21
0
  0
LINE
  8
0
 10
29.4
 11
25.2
 20
0
 21
0
  0
LINE
  8
0
 10
25.2
 11
25.2
 20
0
 21
-4.2
  0
LINE
  8
0
 10
25.2
 11
21
 20
-4.2
 21
-4.2
  0
LINE
  8
0
 10
21
 11
21
 20
-4.2
 21
0
  0
LINE
  8
0
 10
21
 11
16.8
 20
0
 21
0
  0
LINE
  8
0
 10
16.8
 11
16.8
 20
0
 21
-4.2
  0
LINE
  8
0
 10
16.8
 11
12.6
 20
-4.2
 21
-4.2
  0
LINE
  8
0
 10
12.6
 11
12.6
 20
-4.2
 21
0
  0
LINE
  8
0
 10
12.6
 11
8.4
 20
0
 21
0
  0
LINE
  8
0
 10
8.4
 11
8.4
 20
0
 21
-4.2
  0
LINE
  8
0
 10
8.4
 11
4.2
 20
-4.2
 21
-4.2
  0
LINE
  8
0
 10
4.2
 11
4.2
 20
-4.2
 21
0
  0
LINE
  8
0
 10
4.2
 11
-4.2
 20
0
 21
0
  0
LINE
  8
0
 10
14.3
 11
15.032
 20
-94.8
 21
-93.032
  0
LINE
  8
0
 10
15.032
 11
16.8
 20
-93.032
 21
-92.3
  0
LINE
  8
0
 10
16.8
 11
18.568
 20
-92.3
 21
-93.032
  0
LINE
  8
0
 10
18.568
 11
19.3
 20
-93.032
 21
-94.8
  0
LINE
  8
0
 10
19.3
 11
18.568
 20
-94.8
 21
-96.568
  0
LINE
  8
0
 10
18.568
 11
16.8
 20
-96.568
 21
-97.3
  0
LINE
  8
0
 10
16.8
 11
15.032
 20
-97.3
 21
-96.568
  0
LINE
  8
0
 10
15.032
 11
14.3
 20
-96.568
 21
-94.8
  0
LINE
  8
0
 10
15.1
 11
15.832
 20
-78.8
 21
-77.032
  0
LINE
  8
0
 10
15.832
 11
17.6
 20
-77.032
 21
-76.3
  0
LINE
  8
0
 10
17.6
 11
19.368
 20
-76.3
 21
-77.032
  0
LINE
  8
0
 10
19.368
 11
20.1
 20
-77.032
 21
-78.8
  0
LINE
  8
0
 10
20.1
 11
19.368
 20
-78.8
 21
-80.568
  0
LINE
  8
0
 10
19.368
 11
17.6
 20
-80.568
 21
-81.3
  0
LINE
  8
0
 10
17.6
 11
15.832
 20
-81.3
 21
-80.568
  0
LINE
  8
0
 10
15.832
 11
15.1
 20
-80.568
 21
-78.8
  0
LINE
  8
0
 10
15.157
 11
15.157
 20
-111.689
 21
-109.911
  0
LINE
  8
0
 10
15.157
 11
16.3
 20
-109.911
 21
-108.548
  0
LINE
  8
0
 10
16.3
 11
18.051
 20
-108.548
 21
-108.24
  0
LINE
  8
0
 10
18.051
 11
19.592
 20
-108.24
 21
-109.129
  0
LINE
  8
0
 10
19.592
 11
20.2
 20
-109.129
 21
-110.8
  0
LINE
  8
0
 10
20.2
 11
19.592
 20
-110.8
 21
-112.471
  0
LINE
  8
0
 10
19.592
 11
18.051
 20
-112.471
 21
-113.36
  0
LINE
  8
0
 10
18.051
 11
16.3
 20
-113.36
 21
-113.052
  0
LINE
  8
0
 10
16.3
 11
15.157
 20
-113.052
 21
-111.689
  0
LINE
  8
0
 10
47.1
 11
47.832
 20
-110.8
 21
-109.032
  0
LINE
  8
0
 10
47.832
 11
49.6
 20
-109.032
 21
-108.3
  0
LINE
  8
0
 10
49.6
 11
51.368
 20
-108.3
 21
-109.032
  0
LINE
  8
0
 10
51.368
 11
52.1
 20
-109.032
 21
-110.8
  0
LINE
  8
0
 10
52.1
 11
51.368
 20
-110.8
 21
-112.568
  0
LINE
  8
0
 10
51.368
 11
49.6
 20
-112.568
 21
-113.3
  0
LINE
  8
0
 10
49.6
 11
47.832
 20
-113.3
 21
-112.568
  0
LINE
  8
0
 10
47.832
 11
47.1
 20
-112.568
 21
-110.8
  0
LINE
  8
0
 10
47.1
 11
47.832
 20
-78.8
 21
-77.032
  0
LINE
  8
0
 10
47.832
 11
49.6
 20
-77.032
 21
-76.3
  0
LINE
  8
0
 10
49.6
 11
51.368
 20
-76.3
 21
-77.032
  0
LINE
  8
0
 10
51.368
 11
52.1
 20
-77.032
 21
-78.8
  0
LINE
  8
0
 10
52.1
 11
51.368
 20
-78.8
 21
-80.568
  0
LINE
  8
0
 10
51.368
 11
49.6
 20
-80.568
 21
-81.3
  0
LINE
  8
0
 10
49.6
 11
47.832
 20
-81.3
 21
-80.568
  0
LINE
  8
0
 10
47.832
 11
47.1
 20
-80.568
 21
-78.8
  0
LINE
  8
0
 10
47.9
 11
48.632
 20
-94.8
 21
-93.032
  0
LINE
  8
0
 10
48.632
 11
50.4
 20
-93.032
 21
-92.3
  0
LINE
  8
0
 10
50.4
 11
52.168
 20
-92.3
 21
-93.032
  0
LINE
  8
0
 10
52.168
 11
52.9
 20
-93.032
 21
-94.8
  0
LINE
  8
0
 10
52.9
 11
52.168
 20
-94.8
 21
-96.568
  0
LINE
  8
0
 10
52.168
 11
50.4
 20
-96.568
 21
-97.3
  0
LINE
  8
0
 10
50.4
 11
48.632
 20
-97.3
 21
-96.568
  0
LINE
  8
0
 10
48.632
 11
47.9
 20
-96.568
 21
-94.8
  0
LINE
  8
0
 10
75.8
 11
75.8
 20
-120
 21
-115.8
  0
LINE
  8
0
 10
75.8
 11
80
 20
-115.8
 21
-115.8
  0
LINE
  8
0
 10
80
 11
80
 20
-115.8
 21
-111.6
  0
LINE
  8
0
 10
80
 11
75.8
 20
-111.6
 21
-111.6
  0
LINE
  8
0
 10
75.8
 11
75.8
 20
-111.6
 21
-107.4
  0
LINE
  8
0
 10
75.8
 11
80
 20
-107.4
 21
-107.4
  0
LINE
  8
0
 10
80
 11
80
 20
-107.4
 21
-103.2
  0
LINE
  8
0
 10
80
 11
75.8
 20
-103.2
 21
-103.2
  0
LINE
  8
0
 10
75.8
 11
75.8
 20
-103.2
 21
-99
  0
LINE
  8
0
 10
75.8
 11
80
 20
-99
 21
-99
  0
LINE
  8
0
 10
80
 11
80
 20
-99
 21
-94.8
  0
LINE
  8
0
 10
80
 11
75.8
 20
-94.8
 21
-94.8
  0
LINE
  8
0
 10
75.8
 11
75.8
 20
-94.8
 21
-90.6
  0
LINE
  8
0
 10
75.8
 11
80
 20
-90.6
 21
-90.6
  0
LINE
  8
0
 10
80
 11
80
 20
-90.6
 21
-86.4
  0
LINE
  8
0
 10
80
 11
75.8
 20
-86.4
 21
-86.4
  0
LINE
  8
0
 10
75.8
 11
75.8
 20
-86.4
 21
-82.2
  0
LINE
  8
0
 10
75.8
 11
80
 20
-82.2
 21
-82.2
  0
LINE
  8
0
 10
80
 11
80
 20
-82.2
 21
-78
  0
LINE
  8
0
 10
80
 11
75.8
 20
-78
 21
-78
  0
LINE
  8
0
 10
75.8
 11
75.8
 20
-78
 21
-73.8
  0
LINE
  8
0
 10
75.8
 11
80
 20
-73.8
 21
-73.8
  0
LINE
  8
0
 10
80
 11
80
 20
-73.8
 21
-65.4
  0
LINE
  8
0
 10
80
 11
84.2
 20
-65.4
 21
-65.4
  0
LINE
  8
0
 10
84.2
 11
84.2
 20
-65.4
 21
-69.6
  0
LINE
  8
0
 10
84.2
 11
88.4
 20
-69.6
 21
-69.6
  0
LINE
  8
0
 10
88.4
 11
88.4
 20
-69.6
 21
-65.4
  0
LINE
  8
0
 10
88.4
 11
92.6
 20
-65.4
 21
-65.4
  0
LINE
  8
0
 10
92.6
 11
92.6
 20
-65.4
 21
-69.6
  0
LINE
  8
0
 10
92.6
 11
96.8
 20
-69.6
 21
-69.6
  0
LINE
  8
0
 10
96.8
 11
96.8
 20
-69.6
 21
-65.4
  0
LINE
  8
0
 10
96.8
 11
101
 20
-65.4
 21
-65.4
  0
LINE
  8
0
 10
101
 11
101
 20
-65.4
 21
-69.6
  0
LINE
  8
0
 10
101
 11
105.2
 20
-69.6
 21
-69.6
  0
LINE
  8
0
 10
105.2
 11
105.2
 20
-69.6
 21
-65.4
  0
LINE
  8
0
 10
105.2
 11
109.4
 20
-65.4
 21
-65.4
  0
LINE
  8
0
 10
109.4
 11
109.4
 20
-65.4
 21
-69.6
  0
LINE
  8
0
 10
109.4
 11
113.6
 20
-69.6
 21
-69.6
  0
LINE
  8
0
 10
113.6
 11
113.6
 20
-69.6
 21
-65.4
  0
LINE
  8
0
 10
113.6
 11
117.8
 20
-65.4
 21
-65.4
  0
LINE
  8
0
 10
117.8
 11
117.8
 20
-65.4
 21
-69.6
  0
LINE
  8
0
 10
117.8
 11
122
 20
-69.6
 21
-69.6
  0
LINE
  8
0
 10
122
 11
122
 20
-69.6
 21
-65.4
  0
LINE
  8
0
 10
122
 11
126.2
 20
-65.4
 21
-65.4
  0
LINE
  8
0
 10
126.2
 11
126.2
 20
-65.4
 21
-69.6
  0
LINE
  8
0
 10
126.2
 11
130.4
 20
-69.6
 21
-69.6
  0
LINE
  8
0
 10
130.4
 11
130.4
 20
-69.6
 21
-65.4
  0
LINE
  8
0
 10
130.4
 11
134.6
 20
-65.4
 21
-65.4
  0
LINE
  8
0
 10
134.6
 11
134.6
 20
-65.4
 21
-69.6
  0
LINE
  8
0
 10
134.6
 11
138.8
 20
-69.6
 21
-69.6
  0
LINE
  8
0
 10
138.8
 11
138.8
 20
-69.6
 21
-65.4
  0
LINE
  8
0
 10
138.8
 11
143
 20
-65.4
 21
-65.4
  0
LINE
  8
0
 10
143
 11
143
 20
-65.4
 21
-69.6
  0
LINE
  8
0
 10
143
 11
151.4
 20
-69.6
 21
-69.6
  0
LINE
  8
0
 10
151.4
 11
151.4
 20
-69.6
 21
-73.8
  0
LINE
  8
0
 10
151.4
 11
147.2
 20
-73.8
 21
-73.8
  0
LINE
  8
0
 10
147.2
 11
147.2
 20
-73.8
 21
-78
  0
LINE
  8
0
 10
147.2
 11
151.4
 20
-78
 21
-78
  0
LINE
  8
0
 10
151.4
 11
151.4
 20
-78
 21
-82.2
  0
LINE
  8
0
 10
151.4
 11
147.2
 20
-82.2
 21
-82.2
  0
LINE
  8
0
 10
147.2
 11
147.2
 20
-82.2
 21
-86.4
  0
LINE
  8
0
 10
147.2
 11
151.4
 20
-86.4
 21
-86.4
  0
LINE
  8
0
 10
151.4
 11
151.4
 20
-86.4
 21
-90.6
  0
LINE
  8
0
 10
151.4
 11
147.2
 20
-90.6
 21
-90.6
  0
LINE
  8
0
 10
147.2
 11
147.2
 20
-90.6
 21
-94.8
  0
LINE
  8
0
 10
147.2
 11
151.4
 20
-94.8
 21
-94.8
  0
LINE
  8
0
 10
151.4
 11
151.4
 20
-94.8
 21
-99
  0
LINE
  8
0
 10
151.4
 11
147.2
 20
-99
 21
-99
  0
LINE
  8
0
 10
147.2
 11
147.2
 20
-99
 21
-103.2
  0
LINE
  8
0
 10
147.2
 11
151.4
 20
-103.2
 21
-103.2
  0
LINE
  8
0
 10
151.4
 11
151.4
 20
-103.2
 21
-107.4
  0
LINE
  8
0
 10
151.4
 11
147.2
 20
-107.4
 21
-107.4
  0
LINE
  8
0
 10
147.2
 11
147.2
 20
-107.4
 21
-111.6
  0
LINE
  8
0
 10
147.2
 11
151.4
 20
-111.6
 21
-111.6
  0
LINE
  8
0
 10
151.4
 11
151.4
 20
-111.6
 21
-115.8
  0
LINE
  8
0
 10
151.4
 11
147.2
 20
-115.8
 21
-115.8
  0
LINE
  8
0
 10
147.2
 11
147.2
 20
-115.8
 21
-124.2
  0
LINE
  8
0
 10
147.2
 11
143
 20
-124.2
 21
-124.2
  0
LINE
  8
0
 10
143
 11
143
 20
-124.2
 21
-120
  0
LINE
  8
0
 10
143
 11
138.8
 20
-120
 21
-120
  0
LINE
  8
0
 10
138.8
 11
138.8
 20
-120
 21
-124.2
  0
LINE
  8
0
 10
138.8
 11
134.6
 20
-124.2
 21
-124.2
  0
LINE
  8
0
 10
134.6
 11
134.6
 20
-124.2
 21
-120
  0
LINE
  8
0
 10
134.6
 11
130.4
 20
-120
 21
-120
  0
LINE
  8
0
 10
130.4
 11
130.4
 20
-120
 21
-124.2
  0
LINE
  8
0
 10
130.4
 11
126.2
 20
-124.2
 21
-124.2
  0
LINE
  8
0
 10
126.2
 11
126.2
 20
-124.2
 21
-120
  0
LINE
  8
0
 10
126.2
 11
122
 20
-120
 21
-120
  0
LINE
  8
0
 10
122
 11
122
 20
-120
 21
-124.2
  0
LINE
  8
0
 10
122
 11
117.8
 20
-124.2
 21
-124.2
  0
LINE
  8
0
 10
117.8
 11
117.8
 20
-124.2
 21
-120
  0
LINE
  8
0
 10
117.8
 11
113.6
 20
-120
 21
-120
  0
LINE
  8
0
 10
113.6
 11
113.6
 20
-120
 21
-124.2
  0
LINE
  8
0
 10
113.6
 11
109.4
 20
-124.2
 21
-124.2
  0
LINE
  8
0
 10
109.4
 11
109.4
 20
-124.2
 21
-120
  0
LINE
  8
0
 10
109.4
 11
105.2
 20
-120
 21
-120
  0
LINE
  8
0
 10
105.2
 11
105.2
 20
-120
 21
-124.2
  0
LINE
  8
0
 10
105.2
 11
101
 20
-124.2
 21
-124.2
  0
LINE
  8
0
 10
101
 11
101
 20
-124.2
 21
-120
  0
LINE
  8
0
 10
101
 11
96.8
 20
-120
 21
-120
  0
LINE
  8
0
 10
96.8
 11
96.8
 20
-120
 21
-124.2
  0
LINE
  8
0
 10
96.8
 11
92.6
 20
-124.2
 21
-124.2
  0
LINE
  8
0
 10
92.6
 11
92.6
 20
-124.2
 21
-120
  0
LINE
  8
0
 10
92.6
 11
88.4
 20
-120
 21
-120
  0
LINE
  8
0
 10
88.4
 11
88.4
 20
-120
 21
-124.2
  0
LINE
  8
0
 10
88.4
 11
84.2
 20
-124.2
 21
-124.2
  0
LINE
  8
0
 10
84.2
 11
84.2
 20
-124.2
 21
-120
  0
LINE
  8
0
 10
84.2
 11
75.8
 20
-120
 21
-120
  0
ENDSEC
  0
SECTION
  2
OBJECTS
  0
DICTIONARY
  0
ENDSEC
  0
EOF
