  0
SECTION
  2
BLOCKS
  0
ENDSEC
  0
SECTION
  2
ENTITIES
  0
LINE
  8
0
 10
-4.2
 11
-4.2
 20
-80.2
 21
-71.8
  0
LINE
  8
0
 10
-4.2
 11
0
 20
-71.8
 21
-71.8
  0
LINE
  8
0
 10
0
 11
0
 20
-71.8
 21
-67.6
  0
LINE
  8
0
 10
0
 11
-4.2
 20
-67.6
 21
-67.6
  0
LINE
  8
0
 10
-4.2
 11
-4.2
 20
-67.6
 21
-63.4
  0
LINE
  8
0
 10
-4.2
 11
0
 20
-63.4
 21
-63.4
  0
LINE
  8
0
 10
0
 11
0
 20
-63.4
 21
-59.2
  0
LINE
  8
0
 10
0
 11
-4.2
 20
-59.2
 21
-59.2
  0
LINE
  8
0
 10
-4.2
 11
-4.2
 20
-59.2
 21
-55
  0
LINE
  8
0
 10
-4.2
 11
0
 20
-55
 21
-55
  0
LINE
  8
0
 10
0
 11
0
 20
-55
 21
-50.8
  0
LINE
  8
0
 10
0
 11
-4.2
 20
-50.8
 21
-50.8
  0
LINE
  8
0
 10
-4.2
 11
-4.2
 20
-50.8
 21
-46.6
  0
LINE
  8
0
 10
-4.2
 11
0
 20
-46.6
 21
-46.6
  0
LINE
  8
0
 10
0
 11
0
 20
-46.6
 21
-42.4
  0
LINE
  8
0
 10
0
 11
-4.2
 20
-42.4
 21
-42.4
  0
LINE
  8
0
 10
-4.2
 11
-4.2
 20
-42.4
 21
-38.2
  0
LINE
  8
0
 10
-4.2
 11
0
 20
-38.2
 21
-38.2
  0
LINE
  8
0
 10
0
 11
0
 20
-38.2
 21
-34
  0
LINE
  8
0
 10
0
 11
-4.2
 20
-34
 21
-34
  0
LINE
  8
0
 10
-4.2
 11
-4.2
 20
-34
 21
-29.8
  0
LINE
  8
0
 10
-4.2
 11
0
 20
-29.8
 21
-29.8
  0
LINE
  8
0
 10
0
 11
0
 20
-29.8
 21
-25.6
  0
LINE
  8
0
 10
0
 11
-4.2
 20
-25.6
 21
-25.6
  0
LINE
  8
0
 10
-4.2
 11
-4.2
 20
-25.6
 21
-21.4
  0
LINE
  8
0
 10
-4.2
 11
0
 20
-21.4
 21
-21.4
  0
LINE
  8
0
 10
0
 11
0
 20
-21.4
 21
-17.2
  0
LINE
  8
0
 10
0
 11
-4.2
 20
-17.2
 21
-17.2
  0
LINE
  8
0
 10
-4.2
 11
-4.2
 20
-17.2
 21
-13
  0
LINE
  8
0
 10
-4.2
 11
0
 20
-13
 21
-13
  0
LINE
  8
0
 10
0
 11
0
 20
-13
 21
-8.8
  0
LINE
  8
0
 10
0
 11
-4.2
 20
-8.8
 21
-8.8
  0
LINE
  8
0
 10
-4.2
 11
-4.2
 20
-8.8
 21
-4.6
  0
LINE
  8
0
 10
-4.2
 11
4.2
 20
-4.6
 21
-4.6
  0
LINE
  8
0
 10
4.2
 11
4.2
 20
-4.6
 21
-8.8
  0
LINE
  8
0
 10
4.2
 11
8.4
 20
-8.8
 21
-8.8
  0
LINE
  8
0
 10
8.4
 11
8.4
 20
-8.8
 21
-4.6
  0
LINE
  8
0
 10
8.4
 11
12.6
 20
-4.6
 21
-4.6
  0
LINE
  8
0
 10
12.6
 11
12.6
 20
-4.6
 21
-8.8
  0
LINE
  8
0
 10
12.6
 11
16.8
 20
-8.8
 21
-8.8
  0
LINE
  8
0
 10
16.8
 11
16.8
 20
-8.8
 21
-4.6
  0
LINE
  8
0
 10
16.8
 11
21
 20
-4.6
 21
-4.6
  0
LINE
  8
0
 10
21
 11
21
 20
-4.6
 21
-8.8
  0
LINE
  8
0
 10
21
 11
25.2
 20
-8.8
 21
-8.8
  0
LINE
  8
0
 10
25.2
 11
25.2
 20
-8.8
 21
-4.6
  0
LINE
  8
0
 10
25.2
 11
29.4
 20
-4.6
 21
-4.6
  0
LINE
  8
0
 10
29.4
 11
29.4
 20
-4.6
 21
-8.8
  0
LINE
  8
0
 10
29.4
 11
33.6
 20
-8.8
 21
-8.8
  0
LINE
  8
0
 10
33.6
 11
33.6
 20
-8.8
 21
-4.6
  0
LINE
  8
0
 10
33.6
 11
37.8
 20
-4.6
 21
-4.6
  0
LINE
  8
0
 10
37.8
 11
37.8
 20
-4.6
 21
-8.8
  0
LINE
  8
0
 10
37.8
 11
42
 20
-8.8
 21
-8.8
  0
LINE
  8
0
 10
42
 11
42
 20
-8.8
 21
-4.6
  0
LINE
  8
0
 10
42
 11
46.2
 20
-4.6
 21
-4.6
  0
LINE
  8
0
 10
46.2
 11
46.2
 20
-4.6
 21
-8.8
  0
LINE
  8
0
 10
46.2
 11
50.4
 20
-8.8
 21
-8.8
  0
LINE
  8
0
 10
50.4
 11
50.4
 20
-8.8
 21
-4.6
  0
LINE
  8
0
 10
50.4
 11
54.6
 20
-4.6
 21
-4.6
  0
LINE
  8
0
 10
54.6
 11
54.6
 20
-4.6
 21
-8.8
  0
LINE
  8
0
 10
54.6
 11
58.8
 20
-8.8
 21
-8.8
  0
LINE
  8
0
 10
58.8
 11
58.8
 20
-8.8
 21
-4.6
  0
LINE
  8
0
 10
58.8
 11
63
 20
-4.6
 21
-4.6
  0
LINE
  8
0
 10
63
 11
63
 20
-4.6
 21
-8.8
  0
LINE
  8
0
 10
63
 11
67.2
 20
-8.8
 21
-8.8
  0
LINE
  8
0
 10
67.2
 11
67.2
 20
-8.8
 21
-4.6
  0
LINE
  8
0
 10
67.2
 11
71.4
 20
-4.6
 21
-4.6
  0
LINE
  8
0
 10
71.4
 11
71.4
 20
-4.6
 21
-8.8
  0
LINE
  8
0
 10
71.4
 11
75.6
 20
-8.8
 21
-8.8
  0
LINE
  8
0
 10
75.6
 11
75.6
 20
-8.8
 21
-4.6
  0
LINE
  8
0
 10
75.6
 11
79.8
 20
-4.6
 21
-4.6
  0
LINE
  8
0
 10
79.8
 11
79.8
 20
-4.6
 21
-8.8
  0
LINE
  8
0
 10
79.8
 11
84
 20
-8.8
 21
-8.8
  0
LINE
  8
0
 10
84
 11
84
 20
-8.8
 21
-4.6
  0
LINE
  8
0
 10
84
 11
88.2
 20
-4.6
 21
-4.6
  0
LINE
  8
0
 10
88.2
 11
88.2
 20
-4.6
 21
-8.8
  0
LINE
  8
0
 10
88.2
 11
92.4
 20
-8.8
 21
-8.8
  0
LINE
  8
0
 10
92.4
 11
92.4
 20
-8.8
 21
-4.6
  0
LINE
  8
0
 10
92.4
 11
96.6
 20
-4.6
 21
-4.6
  0
LINE
  8
0
 10
96.6
 11
96.6
 20
-4.6
 21
-8.8
  0
LINE
  8
0
 10
96.6
 11
100.8
 20
-8.8
 21
-8.8
  0
LINE
  8
0
 10
100.8
 11
100.8
 20
-8.8
 21
-4.6
  0
LINE
  8
0
 10
100.8
 11
105
 20
-4.6
 21
-4.6
  0
LINE
  8
0
 10
105
 11
105
 20
-4.6
 21
-8.8
  0
LINE
  8
0
 10
105
 11
109.2
 20
-8.8
 21
-8.8
  0
LINE
  8
0
 10
109.2
 11
109.2
 20
-8.8
 21
-4.6
  0
LINE
  8
0
 10
109.2
 11
113.4
 20
-4.6
 21
-4.6
  0
LINE
  8
0
 10
113.4
 11
113.4
 20
-4.6
 21
-8.8
  0
LINE
  8
0
 10
113.4
 11
117.6
 20
-8.8
 21
-8.8
  0
LINE
  8
0
 10
117.6
 11
117.6
 20
-8.8
 21
-4.6
  0
LINE
  8
0
 10
117.6
 11
121.8
 20
-4.6
 21
-4.6
  0
LINE
  8
0
 10
121.8
 11
121.8
 20
-4.6
 21
-8.8
  0
LINE
  8
0
 10
121.8
 11
126
 20
-8.8
 21
-8.8
  0
LINE
  8
0
 10
126
 11
126
 20
-8.8
 21
-4.6
  0
LINE
  8
0
 10
126
 11
130.2
 20
-4.6
 21
-4.6
  0
LINE
  8
0
 10
130.2
 11
130.2
 20
-4.6
 21
-8.8
  0
LINE
  8
0
 10
130.2
 11
134.4
 20
-8.8
 21
-8.8
  0
LINE
  8
0
 10
134.4
 11
134.4
 20
-8.8
 21
-4.6
  0
LINE
  8
0
 10
134.4
 11
138.6
 20
-4.6
 21
-4.6
  0
LINE
  8
0
 10
138.6
 11
138.6
 20
-4.6
 21
-8.8
  0
LINE
  8
0
 10
138.6
 11
142.8
 20
-8.8
 21
-8.8
  0
LINE
  8
0
 10
142.8
 11
142.8
 20
-8.8
 21
-4.6
  0
LINE
  8
0
 10
142.8
 11
147
 20
-4.6
 21
-4.6
  0
LINE
  8
0
 10
147
 11
147
 20
-4.6
 21
-8.8
  0
LINE
  8
0
 10
147
 11
151.2
 20
-8.8
 21
-8.8
  0
LINE
  8
0
 10
151.2
 11
151.2
 20
-8.8
 21
-4.6
  0
LINE
  8
0
 10
151.2
 11
155.4
 20
-4.6
 21
-4.6
  0
LINE
  8
0
 10
155.4
 11
155.4
 20
-4.6
 21
-8.8
  0
LINE
  8
0
 10
155.4
 11
159.6
 20
-8.8
 21
-8.8
  0
LINE
  8
0
 10
159.6
 11
159.6
 20
-8.8
 21
-4.6
  0
LINE
  8
0
 10
159.6
 11
163.8
 20
-4.6
 21
-4.6
  0
LINE
  8
0
 10
163.8
 11
163.8
 20
-4.6
 21
-8.8
  0
LINE
  8
0
 10
163.8
 11
168
 20
-8.8
 21
-8.8
  0
LINE
  8
0
 10
168
 11
168
 20
-8.8
 21
-4.6
  0
LINE
  8
0
 10
168
 11
172.2
 20
-4.6
 21
-4.6
  0
LINE
  8
0
 10
172.2
 11
172.2
 20
-4.6
 21
-8.8
  0
LINE
  8
0
 10
172.2
 11
176.4
 20
-8.8
 21
-8.8
  0
LINE
  8
0
 10
176.4
 11
176.4
 20
-8.8
 21
-4.6
  0
LINE
  8
0
 10
176.4
 11
180.6
 20
-4.6
 21
-4.6
  0
LINE
  8
0
 10
180.6
 11
180.6
 20
-4.6
 21
-8.8
  0
LINE
  8
0
 10
180.6
 11
184.8
 20
-8.8
 21
-8.8
  0
LINE
  8
0
 10
184.8
 11
184.8
 20
-8.8
 21
-4.6
  0
LINE
  8
0
 10
184.8
 11
189
 20
-4.6
 21
-4.6
  0
LINE
  8
0
 10
189
 11
189
 20
-4.6
 21
-8.8
  0
LINE
  8
0
 10
189
 11
193.2
 20
-8.8
 21
-8.8
  0
LINE
  8
0
 10
193.2
 11
193.2
 20
-8.8
 21
-4.6
  0
LINE
  8
0
 10
193.2
 11
197.4
 20
-4.6
 21
-4.6
  0
LINE
  8
0
 10
197.4
 11
197.4
 20
-4.6
 21
-8.8
  0
LINE
  8
0
 10
197.4
 11
201.6
 20
-8.8
 21
-8.8
  0
LINE
  8
0
 10
201.6
 11
201.6
 20
-8.8
 21
-4.6
  0
LINE
  8
0
 10
201.6
 11
205.8
 20
-4.6
 21
-4.6
  0
LINE
  8
0
 10
205.8
 11
205.8
 20
-4.6
 21
-8.8
  0
LINE
  8
0
 10
205.8
 11
210
 20
-8.8
 21
-8.8
  0
LINE
  8
0
 10
210
 11
210
 20
-8.8
 21
-4.6
  0
LINE
  8
0
 10
210
 11
214.2
 20
-4.6
 21
-4.6
  0
LINE
  8
0
 10
214.2
 11
214.2
 20
-4.6
 21
-8.8
  0
LINE
  8
0
 10
214.2
 11
218.4
 20
-8.8
 21
-8.8
  0
LINE
  8
0
 10
218.4
 11
218.4
 20
-8.8
 21
-4.6
  0
LINE
  8
0
 10
218.4
 11
222.6
 20
-4.6
 21
-4.6
  0
LINE
  8
0
 10
222.6
 11
222.6
 20
-4.6
 21
-8.8
  0
LINE
  8
0
 10
222.6
 11
226.8
 20
-8.8
 21
-8.8
  0
LINE
  8
0
 10
226.8
 11
226.8
 20
-8.8
 21
-4.6
  0
LINE
  8
0
 10
226.8
 11
231
 20
-4.6
 21
-4.6
  0
LINE
  8
0
 10
231
 11
231
 20
-4.6
 21
-8.8
  0
LINE
  8
0
 10
231
 11
235.2
 20
-8.8
 21
-8.8
  0
LINE
  8
0
 10
235.2
 11
235.2
 20
-8.8
 21
-4.6
  0
LINE
  8
0
 10
235.2
 11
239.4
 20
-4.6
 21
-4.6
  0
LINE
  8
0
 10
239.4
 11
239.4
 20
-4.6
 21
-8.8
  0
LINE
  8
0
 10
239.4
 11
243.6
 20
-8.8
 21
-8.8
  0
LINE
  8
0
 10
243.6
 11
243.6
 20
-8.8
 21
-4.6
  0
LINE
  8
0
 10
243.6
 11
247.8
 20
-4.6
 21
-4.6
  0
LINE
  8
0
 10
247.8
 11
247.8
 20
-4.6
 21
-8.8
  0
LINE
  8
0
 10
247.8
 11
252
 20
-8.8
 21
-8.8
  0
LINE
  8
0
 10
252
 11
252
 20
-8.8
 21
-4.6
  0
LINE
  8
0
 10
252
 11
256.2
 20
-4.6
 21
-4.6
  0
LINE
  8
0
 10
256.2
 11
256.2
 20
-4.6
 21
-8.8
  0
LINE
  8
0
 10
256.2
 11
260.4
 20
-8.8
 21
-8.8
  0
LINE
  8
0
 10
260.4
 11
260.4
 20
-8.8
 21
-4.6
  0
LINE
  8
0
 10
260.4
 11
264.6
 20
-4.6
 21
-4.6
  0
LINE
  8
0
 10
264.6
 11
264.6
 20
-4.6
 21
-8.8
  0
LINE
  8
0
 10
264.6
 11
268.8
 20
-8.8
 21
-8.8
  0
LINE
  8
0
 10
268.8
 11
268.8
 20
-8.8
 21
-4.6
  0
LINE
  8
0
 10
268.8
 11
273
 20
-4.6
 21
-4.6
  0
LINE
  8
0
 10
273
 11
273
 20
-4.6
 21
-13
  0
LINE
  8
0
 10
273
 11
268.8
 20
-13
 21
-13
  0
LINE
  8
0
 10
268.8
 11
268.8
 20
-13
 21
-17.2
  0
LINE
  8
0
 10
268.8
 11
273
 20
-17.2
 21
-17.2
  0
LINE
  8
0
 10
273
 11
273
 20
-17.2
 21
-21.4
  0
LINE
  8
0
 10
273
 11
268.8
 20
-21.4
 21
-21.4
  0
LINE
  8
0
 10
268.8
 11
268.8
 20
-21.4
 21
-25.6
  0
LINE
  8
0
 10
268.8
 11
273
 20
-25.6
 21
-25.6
  0
LINE
  8
0
 10
273
 11
273
 20
-25.6
 21
-29.8
  0
LINE
  8
0
 10
273
 11
268.8
 20
-29.8
 21
-29.8
  0
LINE
  8
0
 10
268.8
 11
268.8
 20
-29.8
 21
-34
  0
LINE
  8
0
 10
268.8
 11
273
 20
-34
 21
-34
  0
LINE
  8
0
 10
273
 11
273
 20
-34
 21
-38.2
  0
LINE
  8
0
 10
273
 11
268.8
 20
-38.2
 21
-38.2
  0
LINE
  8
0
 10
268.8
 11
268.8
 20
-38.2
 21
-42.4
  0
LINE
  8
0
 10
268.8
 11
273
 20
-42.4
 21
-42.4
  0
LINE
  8
0
 10
273
 11
273
 20
-42.4
 21
-46.6
  0
LINE
  8
0
 10
273
 11
268.8
 20
-46.6
 21
-46.6
  0
LINE
  8
0
 10
268.8
 11
268.8
 20
-46.6
 21
-50.8
  0
LINE
  8
0
 10
268.8
 11
273
 20
-50.8
 21
-50.8
  0
LINE
  8
0
 10
273
 11
273
 20
-50.8
 21
-55
  0
LINE
  8
0
 10
273
 11
268.8
 20
-55
 21
-55
  0
LINE
  8
0
 10
268.8
 11
268.8
 20
-55
 21
-59.2
  0
LINE
  8
0
 10
268.8
 11
273
 20
-59.2
 21
-59.2
  0
LINE
  8
0
 10
273
 11
273
 20
-59.2
 21
-63.4
  0
LINE
  8
0
 10
273
 11
268.8
 20
-63.4
 21
-63.4
  0
LINE
  8
0
 10
268.8
 11
268.8
 20
-63.4
 21
-67.6
  0
LINE
  8
0
 10
268.8
 11
273
 20
-67.6
 21
-67.6
  0
LINE
  8
0
 10
273
 11
273
 20
-67.6
 21
-71.8
  0
LINE
  8
0
 10
273
 11
268.8
 20
-71.8
 21
-71.8
  0
LINE
  8
0
 10
268.8
 11
268.8
 20
-71.8
 21
-76
  0
LINE
  8
0
 10
268.8
 11
273
 20
-76
 21
-76
  0
LINE
  8
0
 10
273
 11
273
 20
-76
 21
-80.2
  0
LINE
  8
0
 10
273
 11
264.6
 20
-80.2
 21
-80.2
  0
LINE
  8
0
 10
264.6
 11
264.6
 20
-80.2
 21
-76
  0
LINE
  8
0
 10
264.6
 11
260.4
 20
-76
 21
-76
  0
LINE
  8
0
 10
260.4
 11
260.4
 20
-76
 21
-80.2
  0
LINE
  8
0
 10
260.4
 11
256.2
 20
-80.2
 21
-80.2
  0
LINE
  8
0
 10
256.2
 11
256.2
 20
-80.2
 21
-76
  0
LINE
  8
0
 10
256.2
 11
252
 20
-76
 21
-76
  0
LINE
  8
0
 10
252
 11
252
 20
-76
 21
-80.2
  0
LINE
  8
0
 10
252
 11
247.8
 20
-80.2
 21
-80.2
  0
LINE
  8
0
 10
247.8
 11
247.8
 20
-80.2
 21
-76
  0
LINE
  8
0
 10
247.8
 11
243.6
 20
-76
 21
-76
  0
LINE
  8
0
 10
243.6
 11
243.6
 20
-76
 21
-80.2
  0
LINE
  8
0
 10
243.6
 11
239.4
 20
-80.2
 21
-80.2
  0
LINE
  8
0
 10
239.4
 11
239.4
 20
-80.2
 21
-76
  0
LINE
  8
0
 10
239.4
 11
235.2
 20
-76
 21
-76
  0
LINE
  8
0
 10
235.2
 11
235.2
 20
-76
 21
-80.2
  0
LINE
  8
0
 10
235.2
 11
231
 20
-80.2
 21
-80.2
  0
LINE
  8
0
 10
231
 11
231
 20
-80.2
 21
-76
  0
LINE
  8
0
 10
231
 11
226.8
 20
-76
 21
-76
  0
LINE
  8
0
 10
226.8
 11
226.8
 20
-76
 21
-80.2
  0
LINE
  8
0
 10
226.8
 11
222.6
 20
-80.2
 21
-80.2
  0
LINE
  8
0
 10
222.6
 11
222.6
 20
-80.2
 21
-76
  0
LINE
  8
0
 10
222.6
 11
218.4
 20
-76
 21
-76
  0
LINE
  8
0
 10
218.4
 11
218.4
 20
-76
 21
-80.2
  0
LINE
  8
0
 10
218.4
 11
214.2
 20
-80.2
 21
-80.2
  0
LINE
  8
0
 10
214.2
 11
214.2
 20
-80.2
 21
-76
  0
LINE
  8
0
 10
214.2
 11
210
 20
-76
 21
-76
  0
LINE
  8
0
 10
210
 11
210
 20
-76
 21
-80.2
  0
LINE
  8
0
 10
210
 11
205.8
 20
-80.2
 21
-80.2
  0
LINE
  8
0
 10
205.8
 11
205.8
 20
-80.2
 21
-76
  0
LINE
  8
0
 10
205.8
 11
201.6
 20
-76
 21
-76
  0
LINE
  8
0
 10
201.6
 11
201.6
 20
-76
 21
-80.2
  0
LINE
  8
0
 10
201.6
 11
197.4
 20
-80.2
 21
-80.2
  0
LINE
  8
0
 10
197.4
 11
197.4
 20
-80.2
 21
-76
  0
LINE
  8
0
 10
197.4
 11
193.2
 20
-76
 21
-76
  0
LINE
  8
0
 10
193.2
 11
193.2
 20
-76
 21
-80.2
  0
LINE
  8
0
 10
193.2
 11
189
 20
-80.2
 21
-80.2
  0
LINE
  8
0
 10
189
 11
189
 20
-80.2
 21
-76
  0
LINE
  8
0
 10
189
 11
184.8
 20
-76
 21
-76
  0
LINE
  8
0
 10
184.8
 11
184.8
 20
-76
 21
-80.2
  0
LINE
  8
0
 10
184.8
 11
180.6
 20
-80.2
 21
-80.2
  0
LINE
  8
0
 10
180.6
 11
180.6
 20
-80.2
 21
-76
  0
LINE
  8
0
 10
180.6
 11
176.4
 20
-76
 21
-76
  0
LINE
  8
0
 10
176.4
 11
176.4
 20
-76
 21
-80.2
  0
LINE
  8
0
 10
176.4
 11
172.2
 20
-80.2
 21
-80.2
  0
LINE
  8
0
 10
172.2
 11
172.2
 20
-80.2
 21
-76
  0
LINE
  8
0
 10
172.2
 11
168
 20
-76
 21
-76
  0
LINE
  8
0
 10
168
 11
168
 20
-76
 21
-80.2
  0
LINE
  8
0
 10
168
 11
163.8
 20
-80.2
 21
-80.2
  0
LINE
  8
0
 10
163.8
 11
163.8
 20
-80.2
 21
-76
  0
LINE
  8
0
 10
163.8
 11
159.6
 20
-76
 21
-76
  0
LINE
  8
0
 10
159.6
 11
159.6
 20
-76
 21
-80.2
  0
LINE
  8
0
 10
159.6
 11
155.4
 20
-80.2
 21
-80.2
  0
LINE
  8
0
 10
155.4
 11
155.4
 20
-80.2
 21
-76
  0
LINE
  8
0
 10
155.4
 11
151.2
 20
-76
 21
-76
  0
LINE
  8
0
 10
151.2
 11
151.2
 20
-76
 21
-80.2
  0
LINE
  8
0
 10
151.2
 11
147
 20
-80.2
 21
-80.2
  0
LINE
  8
0
 10
147
 11
147
 20
-80.2
 21
-76
  0
LINE
  8
0
 10
147
 11
142.8
 20
-76
 21
-76
  0
LINE
  8
0
 10
142.8
 11
142.8
 20
-76
 21
-80.2
  0
LINE
  8
0
 10
142.8
 11
138.6
 20
-80.2
 21
-80.2
  0
LINE
  8
0
 10
138.6
 11
138.6
 20
-80.2
 21
-76
  0
LINE
  8
0
 10
138.6
 11
134.4
 20
-76
 21
-76
  0
LINE
  8
0
 10
134.4
 11
134.4
 20
-76
 21
-80.2
  0
LINE
  8
0
 10
134.4
 11
130.2
 20
-80.2
 21
-80.2
  0
LINE
  8
0
 10
130.2
 11
130.2
 20
-80.2
 21
-76
  0
LINE
  8
0
 10
130.2
 11
126
 20
-76
 21
-76
  0
LINE
  8
0
 10
126
 11
126
 20
-76
 21
-80.2
  0
LINE
  8
0
 10
126
 11
121.8
 20
-80.2
 21
-80.2
  0
LINE
  8
0
 10
121.8
 11
121.8
 20
-80.2
 21
-76
  0
LINE
  8
0
 10
121.8
 11
117.6
 20
-76
 21
-76
  0
LINE
  8
0
 10
117.6
 11
117.6
 20
-76
 21
-80.2
  0
LINE
  8
0
 10
117.6
 11
113.4
 20
-80.2
 21
-80.2
  0
LINE
  8
0
 10
113.4
 11
113.4
 20
-80.2
 21
-76
  0
LINE
  8
0
 10
113.4
 11
109.2
 20
-76
 21
-76
  0
LINE
  8
0
 10
109.2
 11
109.2
 20
-76
 21
-80.2
  0
LINE
  8
0
 10
109.2
 11
105
 20
-80.2
 21
-80.2
  0
LINE
  8
0
 10
105
 11
105
 20
-80.2
 21
-76
  0
LINE
  8
0
 10
105
 11
100.8
 20
-76
 21
-76
  0
LINE
  8
0
 10
100.8
 11
100.8
 20
-76
 21
-80.2
  0
LINE
  8
0
 10
100.8
 11
96.6
 20
-80.2
 21
-80.2
  0
LINE
  8
0
 10
96.6
 11
96.6
 20
-80.2
 21
-76
  0
LINE
  8
0
 10
96.6
 11
92.4
 20
-76
 21
-76
  0
LINE
  8
0
 10
92.4
 11
92.4
 20
-76
 21
-80.2
  0
LINE
  8
0
 10
92.4
 11
88.2
 20
-80.2
 21
-80.2
  0
LINE
  8
0
 10
88.2
 11
88.2
 20
-80.2
 21
-76
  0
LINE
  8
0
 10
88.2
 11
84
 20
-76
 21
-76
  0
LINE
  8
0
 10
84
 11
84
 20
-76
 21
-80.2
  0
LINE
  8
0
 10
84
 11
79.8
 20
-80.2
 21
-80.2
  0
LINE
  8
0
 10
79.8
 11
79.8
 20
-80.2
 21
-76
  0
LINE
  8
0
 10
79.8
 11
75.6
 20
-76
 21
-76
  0
LINE
  8
0
 10
75.6
 11
75.6
 20
-76
 21
-80.2
  0
LINE
  8
0
 10
75.6
 11
71.4
 20
-80.2
 21
-80.2
  0
LINE
  8
0
 10
71.4
 11
71.4
 20
-80.2
 21
-76
  0
LINE
  8
0
 10
71.4
 11
67.2
 20
-76
 21
-76
  0
LINE
  8
0
 10
67.2
 11
67.2
 20
-76
 21
-80.2
  0
LINE
  8
0
 10
67.2
 11
63
 20
-80.2
 21
-80.2
  0
LINE
  8
0
 10
63
 11
63
 20
-80.2
 21
-76
  0
LINE
  8
0
 10
63
 11
58.8
 20
-76
 21
-76
  0
LINE
  8
0
 10
58.8
 11
58.8
 20
-76
 21
-80.2
  0
LINE
  8
0
 10
58.8
 11
54.6
 20
-80.2
 21
-80.2
  0
LINE
  8
0
 10
54.6
 11
54.6
 20
-80.2
 21
-76
  0
LINE
  8
0
 10
54.6
 11
50.4
 20
-76
 21
-76
  0
LINE
  8
0
 10
50.4
 11
50.4
 20
-76
 21
-80.2
  0
LINE
  8
0
 10
50.4
 11
46.2
 20
-80.2
 21
-80.2
  0
LINE
  8
0
 10
46.2
 11
46.2
 20
-80.2
 21
-76
  0
LINE
  8
0
 10
46.2
 11
42
 20
-76
 21
-76
  0
LINE
  8
0
 10
42
 11
42
 20
-76
 21
-80.2
  0
LINE
  8
0
 10
42
 11
37.8
 20
-80.2
 21
-80.2
  0
LINE
  8
0
 10
37.8
 11
37.8
 20
-80.2
 21
-76
  0
LINE
  8
0
 10
37.8
 11
33.6
 20
-76
 21
-76
  0
LINE
  8
0
 10
33.6
 11
33.6
 20
-76
 21
-80.2
  0
LINE
  8
0
 10
33.6
 11
29.4
 20
-80.2
 21
-80.2
  0
LINE
  8
0
 10
29.4
 11
29.4
 20
-80.2
 21
-76
  0
LINE
  8
0
 10
29.4
 11
25.2
 20
-76
 21
-76
  0
LINE
  8
0
 10
25.2
 11
25.2
 20
-76
 21
-80.2
  0
LINE
  8
0
 10
25.2
 11
21
 20
-80.2
 21
-80.2
  0
LINE
  8
0
 10
21
 11
21
 20
-80.2
 21
-76
  0
LINE
  8
0
 10
21
 11
16.8
 20
-76
 21
-76
  0
LINE
  8
0
 10
16.8
 11
16.8
 20
-76
 21
-80.2
  0
LINE
  8
0
 10
16.8
 11
12.6
 20
-80.2
 21
-80.2
  0
LINE
  8
0
 10
12.6
 11
12.6
 20
-80.2
 21
-76
  0
LINE
  8
0
 10
12.6
 11
8.4
 20
-76
 21
-76
  0
LINE
  8
0
 10
8.4
 11
8.4
 20
-76
 21
-80.2
  0
LINE
  8
0
 10
8.4
 11
4.2
 20
-80.2
 21
-80.2
  0
LINE
  8
0
 10
4.2
 11
4.2
 20
-80.2
 21
-76
  0
LINE
  8
0
 10
4.2
 11
0
 20
-76
 21
-76
  0
LINE
  8
0
 10
0
 11
0
 20
-76
 21
-80.2
  0
LINE
  8
0
 10
0
 11
-4.2
 20
-80.2
 21
-80.2
  0
LINE
  8
0
 10
-4.2
 11
-4.2
 20
-4.2
 21
4.2
  0
LINE
  8
0
 10
-4.2
 11
0
 20
4.2
 21
4.2
  0
LINE
  8
0
 10
0
 11
0
 20
4.2
 21
8.4
  0
LINE
  8
0
 10
0
 11
-4.2
 20
8.4
 21
8.4
  0
LINE
  8
0
 10
-4.2
 11
-4.2
 20
8.4
 21
12.6
  0
LINE
  8
0
 10
-4.2
 11
0
 20
12.6
 21
12.6
  0
LINE
  8
0
 10
0
 11
0
 20
12.6
 21
16.8
  0
LINE
  8
0
 10
0
 11
-4.2
 20
16.8
 21
16.8
  0
LINE
  8
0
 10
-4.2
 11
-4.2
 20
16.8
 21
21
  0
LINE
  8
0
 10
-4.2
 11
0
 20
21
 21
21
  0
LINE
  8
0
 10
0
 11
0
 20
21
 21
25.2
  0
LINE
  8
0
 10
0
 11
-4.2
 20
25.2
 21
25.2
  0
LINE
  8
0
 10
-4.2
 11
-4.2
 20
25.2
 21
29.4
  0
LINE
  8
0
 10
-4.2
 11
0
 20
29.4
 21
29.4
  0
LINE
  8
0
 10
0
 11
0
 20
29.4
 21
33.6
  0
LINE
  8
0
 10
0
 11
-4.2
 20
33.6
 21
33.6
  0
LINE
  8
0
 10
-4.2
 11
-4.2
 20
33.6
 21
37.8
  0
LINE
  8
0
 10
-4.2
 11
0
 20
37.8
 21
37.8
  0
LINE
  8
0
 10
0
 11
0
 20
37.8
 21
42
  0
LINE
  8
0
 10
0
 11
-4.2
 20
42
 21
42
  0
LINE
  8
0
 10
-4.2
 11
-4.2
 20
42
 21
46.2
  0
LINE
  8
0
 10
-4.2
 11
0
 20
46.2
 21
46.2
  0
LINE
  8
0
 10
0
 11
0
 20
46.2
 21
50.4
  0
LINE
  8
0
 10
0
 11
-4.2
 20
50.4
 21
50.4
  0
LINE
  8
0
 10
-4.2
 11
-4.2
 20
50.4
 21
54.6
  0
LINE
  8
0
 10
-4.2
 11
0
 20
54.6
 21
54.6
  0
LINE
  8
0
 10
0
 11
0
 20
54.6
 21
58.8
  0
LINE
  8
0
 10
0
 11
-4.2
 20
58.8
 21
58.8
  0
LINE
  8
0
 10
-4.2
 11
-4.2
 20
58.8
 21
63
  0
LINE
  8
0
 10
-4.2
 11
0
 20
63
 21
63
  0
LINE
  8
0
 10
0
 11
0
 20
63
 21
67.2
  0
LINE
  8
0
 10
0
 11
-4.2
 20
67.2
 21
67.2
  0
LINE
  8
0
 10
-4.2
 11
-4.2
 20
67.2
 21
71.4
  0
LINE
  8
0
 10
-4.2
 11
4.2
 20
71.4
 21
71.4
  0
LINE
  8
0
 10
4.2
 11
4.2
 20
71.4
 21
67.2
  0
LINE
  8
0
 10
4.2
 11
8.4
 20
67.2
 21
67.2
  0
LINE
  8
0
 10
8.4
 11
8.4
 20
67.2
 21
71.4
  0
LINE
  8
0
 10
8.4
 11
12.6
 20
71.4
 21
71.4
  0
LINE
  8
0
 10
12.6
 11
12.6
 20
71.4
 21
67.2
  0
LINE
  8
0
 10
12.6
 11
16.8
 20
67.2
 21
67.2
  0
LINE
  8
0
 10
16.8
 11
16.8
 20
67.2
 21
71.4
  0
LINE
  8
0
 10
16.8
 11
21
 20
71.4
 21
71.4
  0
LINE
  8
0
 10
21
 11
21
 20
71.4
 21
67.2
  0
LINE
  8
0
 10
21
 11
25.2
 20
67.2
 21
67.2
  0
LINE
  8
0
 10
25.2
 11
25.2
 20
67.2
 21
71.4
  0
LINE
  8
0
 10
25.2
 11
29.4
 20
71.4
 21
71.4
  0
LINE
  8
0
 10
29.4
 11
29.4
 20
71.4
 21
67.2
  0
LINE
  8
0
 10
29.4
 11
33.6
 20
67.2
 21
67.2
  0
LINE
  8
0
 10
33.6
 11
33.6
 20
67.2
 21
71.4
  0
LINE
  8
0
 10
33.6
 11
37.8
 20
71.4
 21
71.4
  0
LINE
  8
0
 10
37.8
 11
37.8
 20
71.4
 21
67.2
  0
LINE
  8
0
 10
37.8
 11
42
 20
67.2
 21
67.2
  0
LINE
  8
0
 10
42
 11
42
 20
67.2
 21
71.4
  0
LINE
  8
0
 10
42
 11
46.2
 20
71.4
 21
71.4
  0
LINE
  8
0
 10
46.2
 11
46.2
 20
71.4
 21
67.2
  0
LINE
  8
0
 10
46.2
 11
50.4
 20
67.2
 21
67.2
  0
LINE
  8
0
 10
50.4
 11
50.4
 20
67.2
 21
71.4
  0
LINE
  8
0
 10
50.4
 11
54.6
 20
71.4
 21
71.4
  0
LINE
  8
0
 10
54.6
 11
54.6
 20
71.4
 21
67.2
  0
LINE
  8
0
 10
54.6
 11
58.8
 20
67.2
 21
67.2
  0
LINE
  8
0
 10
58.8
 11
58.8
 20
67.2
 21
71.4
  0
LINE
  8
0
 10
58.8
 11
63
 20
71.4
 21
71.4
  0
LINE
  8
0
 10
63
 11
63
 20
71.4
 21
67.2
  0
LINE
  8
0
 10
63
 11
67.2
 20
67.2
 21
67.2
  0
LINE
  8
0
 10
67.2
 11
67.2
 20
67.2
 21
71.4
  0
LINE
  8
0
 10
67.2
 11
71.4
 20
71.4
 21
71.4
  0
LINE
  8
0
 10
71.4
 11
71.4
 20
71.4
 21
67.2
  0
LINE
  8
0
 10
71.4
 11
75.6
 20
67.2
 21
67.2
  0
LINE
  8
0
 10
75.6
 11
75.6
 20
67.2
 21
71.4
  0
LINE
  8
0
 10
75.6
 11
79.8
 20
71.4
 21
71.4
  0
LINE
  8
0
 10
79.8
 11
79.8
 20
71.4
 21
67.2
  0
LINE
  8
0
 10
79.8
 11
84
 20
67.2
 21
67.2
  0
LINE
  8
0
 10
84
 11
84
 20
67.2
 21
71.4
  0
LINE
  8
0
 10
84
 11
88.2
 20
71.4
 21
71.4
  0
LINE
  8
0
 10
88.2
 11
88.2
 20
71.4
 21
67.2
  0
LINE
  8
0
 10
88.2
 11
92.4
 20
67.2
 21
67.2
  0
LINE
  8
0
 10
92.4
 11
92.4
 20
67.2
 21
71.4
  0
LINE
  8
0
 10
92.4
 11
96.6
 20
71.4
 21
71.4
  0
LINE
  8
0
 10
96.6
 11
96.6
 20
71.4
 21
67.2
  0
LINE
  8
0
 10
96.6
 11
100.8
 20
67.2
 21
67.2
  0
LINE
  8
0
 10
100.8
 11
100.8
 20
67.2
 21
71.4
  0
LINE
  8
0
 10
100.8
 11
105
 20
71.4
 21
71.4
  0
LINE
  8
0
 10
105
 11
105
 20
71.4
 21
67.2
  0
LINE
  8
0
 10
105
 11
109.2
 20
67.2
 21
67.2
  0
LINE
  8
0
 10
109.2
 11
109.2
 20
67.2
 21
71.4
  0
LINE
  8
0
 10
109.2
 11
113.4
 20
71.4
 21
71.4
  0
LINE
  8
0
 10
113.4
 11
113.4
 20
71.4
 21
67.2
  0
LINE
  8
0
 10
113.4
 11
117.6
 20
67.2
 21
67.2
  0
LINE
  8
0
 10
117.6
 11
117.6
 20
67.2
 21
71.4
  0
LINE
  8
0
 10
117.6
 11
121.8
 20
71.4
 21
71.4
  0
LINE
  8
0
 10
121.8
 11
121.8
 20
71.4
 21
67.2
  0
LINE
  8
0
 10
121.8
 11
126
 20
67.2
 21
67.2
  0
LINE
  8
0
 10
126
 11
126
 20
67.2
 21
71.4
  0
LINE
  8
0
 10
126
 11
130.2
 20
71.4
 21
71.4
  0
LINE
  8
0
 10
130.2
 11
130.2
 20
71.4
 21
67.2
  0
LINE
  8
0
 10
130.2
 11
134.4
 20
67.2
 21
67.2
  0
LINE
  8
0
 10
134.4
 11
134.4
 20
67.2
 21
71.4
  0
LINE
  8
0
 10
134.4
 11
138.6
 20
71.4
 21
71.4
  0
LINE
  8
0
 10
138.6
 11
138.6
 20
71.4
 21
67.2
  0
LINE
  8
0
 10
138.6
 11
142.8
 20
67.2
 21
67.2
  0
LINE
  8
0
 10
142.8
 11
142.8
 20
67.2
 21
71.4
  0
LINE
  8
0
 10
142.8
 11
147
 20
71.4
 21
71.4
  0
LINE
  8
0
 10
147
 11
147
 20
71.4
 21
67.2
  0
LINE
  8
0
 10
147
 11
151.2
 20
67.2
 21
67.2
  0
LINE
  8
0
 10
151.2
 11
151.2
 20
67.2
 21
71.4
  0
LINE
  8
0
 10
151.2
 11
155.4
 20
71.4
 21
71.4
  0
LINE
  8
0
 10
155.4
 11
155.4
 20
71.4
 21
67.2
  0
LINE
  8
0
 10
155.4
 11
159.6
 20
67.2
 21
67.2
  0
LINE
  8
0
 10
159.6
 11
159.6
 20
67.2
 21
71.4
  0
LINE
  8
0
 10
159.6
 11
163.8
 20
71.4
 21
71.4
  0
LINE
  8
0
 10
163.8
 11
163.8
 20
71.4
 21
67.2
  0
LINE
  8
0
 10
163.8
 11
168
 20
67.2
 21
67.2
  0
LINE
  8
0
 10
168
 11
168
 20
67.2
 21
71.4
  0
LINE
  8
0
 10
168
 11
172.2
 20
71.4
 21
71.4
  0
LINE
  8
0
 10
172.2
 11
172.2
 20
71.4
 21
67.2
  0
LINE
  8
0
 10
172.2
 11
176.4
 20
67.2
 21
67.2
  0
LINE
  8
0
 10
176.4
 11
176.4
 20
67.2
 21
71.4
  0
LINE
  8
0
 10
176.4
 11
180.6
 20
71.4
 21
71.4
  0
LINE
  8
0
 10
180.6
 11
180.6
 20
71.4
 21
67.2
  0
LINE
  8
0
 10
180.6
 11
184.8
 20
67.2
 21
67.2
  0
LINE
  8
0
 10
184.8
 11
184.8
 20
67.2
 21
71.4
  0
LINE
  8
0
 10
184.8
 11
189
 20
71.4
 21
71.4
  0
LINE
  8
0
 10
189
 11
189
 20
71.4
 21
67.2
  0
LINE
  8
0
 10
189
 11
193.2
 20
67.2
 21
67.2
  0
LINE
  8
0
 10
193.2
 11
193.2
 20
67.2
 21
71.4
  0
LINE
  8
0
 10
193.2
 11
197.4
 20
71.4
 21
71.4
  0
LINE
  8
0
 10
197.4
 11
197.4
 20
71.4
 21
67.2
  0
LINE
  8
0
 10
197.4
 11
201.6
 20
67.2
 21
67.2
  0
LINE
  8
0
 10
201.6
 11
201.6
 20
67.2
 21
71.4
  0
LINE
  8
0
 10
201.6
 11
205.8
 20
71.4
 21
71.4
  0
LINE
  8
0
 10
205.8
 11
205.8
 20
71.4
 21
67.2
  0
LINE
  8
0
 10
205.8
 11
210
 20
67.2
 21
67.2
  0
LINE
  8
0
 10
210
 11
210
 20
67.2
 21
71.4
  0
LINE
  8
0
 10
210
 11
214.2
 20
71.4
 21
71.4
  0
LINE
  8
0
 10
214.2
 11
214.2
 20
71.4
 21
67.2
  0
LINE
  8
0
 10
214.2
 11
218.4
 20
67.2
 21
67.2
  0
LINE
  8
0
 10
218.4
 11
218.4
 20
67.2
 21
71.4
  0
LINE
  8
0
 10
218.4
 11
222.6
 20
71.4
 21
71.4
  0
LINE
  8
0
 10
222.6
 11
222.6
 20
71.4
 21
67.2
  0
LINE
  8
0
 10
222.6
 11
226.8
 20
67.2
 21
67.2
  0
LINE
  8
0
 10
226.8
 11
226.8
 20
67.2
 21
71.4
  0
LINE
  8
0
 10
226.8
 11
231
 20
71.4
 21
71.4
  0
LINE
  8
0
 10
231
 11
231
 20
71.4
 21
67.2
  0
LINE
  8
0
 10
231
 11
235.2
 20
67.2
 21
67.2
  0
LINE
  8
0
 10
235.2
 11
235.2
 20
67.2
 21
71.4
  0
LINE
  8
0
 10
235.2
 11
239.4
 20
71.4
 21
71.4
  0
LINE
  8
0
 10
239.4
 11
239.4
 20
71.4
 21
67.2
  0
LINE
  8
0
 10
239.4
 11
243.6
 20
67.2
 21
67.2
  0
LINE
  8
0
 10
243.6
 11
243.6
 20
67.2
 21
71.4
  0
LINE
  8
0
 10
243.6
 11
247.8
 20
71.4
 21
71.4
  0
LINE
  8
0
 10
247.8
 11
247.8
 20
71.4
 21
67.2
  0
LINE
  8
0
 10
247.8
 11
252
 20
67.2
 21
67.2
  0
LINE
  8
0
 10
252
 11
252
 20
67.2
 21
71.4
  0
LINE
  8
0
 10
252
 11
256.2
 20
71.4
 21
71.4
  0
LINE
  8
0
 10
256.2
 11
256.2
 20
71.4
 21
67.2
  0
LINE
  8
0
 10
256.2
 11
260.4
 20
67.2
 21
67.2
  0
LINE
  8
0
 10
260.4
 11
260.4
 20
67.2
 21
71.4
  0
LINE
  8
0
 10
260.4
 11
264.6
 20
71.4
 21
71.4
  0
LINE
  8
0
 10
264.6
 11
264.6
 20
71.4
 21
67.2
  0
LINE
  8
0
 10
264.6
 11
268.8
 20
67.2
 21
67.2
  0
LINE
  8
0
 10
268.8
 11
268.8
 20
67.2
 21
71.4
  0
LINE
  8
0
 10
268.8
 11
273
 20
71.4
 21
71.4
  0
LINE
  8
0
 10
273
 11
273
 20
71.4
 21
63
  0
LINE
  8
0
 10
273
 11
268.8
 20
63
 21
63
  0
LINE
  8
0
 10
268.8
 11
268.8
 20
63
 21
58.8
  0
LINE
  8
0
 10
268.8
 11
273
 20
58.8
 21
58.8
  0
LINE
  8
0
 10
273
 11
273
 20
58.8
 21
54.6
  0
LINE
  8
0
 10
273
 11
268.8
 20
54.6
 21
54.6
  0
LINE
  8
0
 10
268.8
 11
268.8
 20
54.6
 21
50.4
  0
LINE
  8
0
 10
268.8
 11
273
 20
50.4
 21
50.4
  0
LINE
  8
0
 10
273
 11
273
 20
50.4
 21
46.2
  0
LINE
  8
0
 10
273
 11
268.8
 20
46.2
 21
46.2
  0
LINE
  8
0
 10
268.8
 11
268.8
 20
46.2
 21
42
  0
LINE
  8
0
 10
268.8
 11
273
 20
42
 21
42
  0
LINE
  8
0
 10
273
 11
273
 20
42
 21
37.8
  0
LINE
  8
0
 10
273
 11
268.8
 20
37.8
 21
37.8
  0
LINE
  8
0
 10
268.8
 11
268.8
 20
37.8
 21
33.6
  0
LINE
  8
0
 10
268.8
 11
273
 20
33.6
 21
33.6
  0
LINE
  8
0
 10
273
 11
273
 20
33.6
 21
29.4
  0
LINE
  8
0
 10
273
 11
268.8
 20
29.4
 21
29.4
  0
LINE
  8
0
 10
268.8
 11
268.8
 20
29.4
 21
25.2
  0
LINE
  8
0
 10
268.8
 11
273
 20
25.2
 21
25.2
  0
LINE
  8
0
 10
273
 11
273
 20
25.2
 21
21
  0
LINE
  8
0
 10
273
 11
268.8
 20
21
 21
21
  0
LINE
  8
0
 10
268.8
 11
268.8
 20
21
 21
16.8
  0
LINE
  8
0
 10
268.8
 11
273
 20
16.8
 21
16.8
  0
LINE
  8
0
 10
273
 11
273
 20
16.8
 21
12.6
  0
LINE
  8
0
 10
273
 11
268.8
 20
12.6
 21
12.6
  0
LINE
  8
0
 10
268.8
 11
268.8
 20
12.6
 21
8.4
  0
LINE
  8
0
 10
268.8
 11
273
 20
8.4
 21
8.4
  0
LINE
  8
0
 10
273
 11
273
 20
8.4
 21
4.2
  0
LINE
  8
0
 10
273
 11
268.8
 20
4.2
 21
4.2
  0
LINE
  8
0
 10
268.8
 11
268.8
 20
4.2
 21
0
  0
LINE
  8
0
 10
268.8
 11
273
 20
0
 21
0
  0
LINE
  8
0
 10
273
 11
273
 20
0
 21
-4.2
  0
LINE
  8
0
 10
273
 11
264.6
 20
-4.2
 21
-4.2
  0
LINE
  8
0
 10
264.6
 11
264.6
 20
-4.2
 21
0
  0
LINE
  8
0
 10
264.6
 11
260.4
 20
0
 21
0
  0
LINE
  8
0
 10
260.4
 11
260.4
 20
0
 21
-4.2
  0
LINE
  8
0
 10
260.4
 11
256.2
 20
-4.2
 21
-4.2
  0
LINE
  8
0
 10
256.2
 11
256.2
 20
-4.2
 21
0
  0
LINE
  8
0
 10
256.2
 11
252
 20
0
 21
0
  0
LINE
  8
0
 10
252
 11
252
 20
0
 21
-4.2
  0
LINE
  8
0
 10
252
 11
247.8
 20
-4.2
 21
-4.2
  0
LINE
  8
0
 10
247.8
 11
247.8
 20
-4.2
 21
0
  0
LINE
  8
0
 10
247.8
 11
243.6
 20
0
 21
0
  0
LINE
  8
0
 10
243.6
 11
243.6
 20
0
 21
-4.2
  0
LINE
  8
0
 10
243.6
 11
239.4
 20
-4.2
 21
-4.2
  0
LINE
  8
0
 10
239.4
 11
239.4
 20
-4.2
 21
0
  0
LINE
  8
0
 10
239.4
 11
235.2
 20
0
 21
0
  0
LINE
  8
0
 10
235.2
 11
235.2
 20
0
 21
-4.2
  0
LINE
  8
0
 10
235.2
 11
231
 20
-4.2
 21
-4.2
  0
LINE
  8
0
 10
231
 11
231
 20
-4.2
 21
0
  0
LINE
  8
0
 10
231
 11
226.8
 20
0
 21
0
  0
LINE
  8
0
 10
226.8
 11
226.8
 20
0
 21
-4.2
  0
LINE
  8
0
 10
226.8
 11
222.6
 20
-4.2
 21
-4.2
  0
LINE
  8
0
 10
222.6
 11
222.6
 20
-4.2
 21
0
  0
LINE
  8
0
 10
222.6
 11
218.4
 20
0
 21
0
  0
LINE
  8
0
 10
218.4
 11
218.4
 20
0
 21
-4.2
  0
LINE
  8
0
 10
218.4
 11
214.2
 20
-4.2
 21
-4.2
  0
LINE
  8
0
 10
214.2
 11
214.2
 20
-4.2
 21
0
  0
LINE
  8
0
 10
214.2
 11
210
 20
0
 21
0
  0
LINE
  8
0
 10
210
 11
210
 20
0
 21
-4.2
  0
LINE
  8
0
 10
210
 11
205.8
 20
-4.2
 21
-4.2
  0
LINE
  8
0
 10
205.8
 11
205.8
 20
-4.2
 21
0
  0
LINE
  8
0
 10
205.8
 11
201.6
 20
0
 21
0
  0
LINE
  8
0
 10
201.6
 11
201.6
 20
0
 21
-4.2
  0
LINE
  8
0
 10
201.6
 11
197.4
 20
-4.2
 21
-4.2
  0
LINE
  8
0
 10
197.4
 11
197.4
 20
-4.2
 21
0
  0
LINE
  8
0
 10
197.4
 11
193.2
 20
0
 21
0
  0
LINE
  8
0
 10
193.2
 11
193.2
 20
0
 21
-4.2
  0
LINE
  8
0
 10
193.2
 11
189
 20
-4.2
 21
-4.2
  0
LINE
  8
0
 10
189
 11
189
 20
-4.2
 21
0
  0
LINE
  8
0
 10
189
 11
184.8
 20
0
 21
0
  0
LINE
  8
0
 10
184.8
 11
184.8
 20
0
 21
-4.2
  0
LINE
  8
0
 10
184.8
 11
180.6
 20
-4.2
 21
-4.2
  0
LINE
  8
0
 10
180.6
 11
180.6
 20
-4.2
 21
0
  0
LINE
  8
0
 10
180.6
 11
176.4
 20
0
 21
0
  0
LINE
  8
0
 10
176.4
 11
176.4
 20
0
 21
-4.2
  0
LINE
  8
0
 10
176.4
 11
172.2
 20
-4.2
 21
-4.2
  0
LINE
  8
0
 10
172.2
 11
172.2
 20
-4.2
 21
0
  0
LINE
  8
0
 10
172.2
 11
168
 20
0
 21
0
  0
LINE
  8
0
 10
168
 11
168
 20
0
 21
-4.2
  0
LINE
  8
0
 10
168
 11
163.8
 20
-4.2
 21
-4.2
  0
LINE
  8
0
 10
163.8
 11
163.8
 20
-4.2
 21
0
  0
LINE
  8
0
 10
163.8
 11
159.6
 20
0
 21
0
  0
LINE
  8
0
 10
159.6
 11
159.6
 20
0
 21
-4.2
  0
LINE
  8
0
 10
159.6
 11
155.4
 20
-4.2
 21
-4.2
  0
LINE
  8
0
 10
155.4
 11
155.4
 20
-4.2
 21
0
  0
LINE
  8
0
 10
155.4
 11
151.2
 20
0
 21
0
  0
LINE
  8
0
 10
151.2
 11
151.2
 20
0
 21
-4.2
  0
LINE
  8
0
 10
151.2
 11
147
 20
-4.2
 21
-4.2
  0
LINE
  8
0
 10
147
 11
147
 20
-4.2
 21
0
  0
LINE
  8
0
 10
147
 11
142.8
 20
0
 21
0
  0
LINE
  8
0
 10
142.8
 11
142.8
 20
0
 21
-4.2
  0
LINE
  8
0
 10
142.8
 11
138.6
 20
-4.2
 21
-4.2
  0
LINE
  8
0
 10
138.6
 11
138.6
 20
-4.2
 21
0
  0
LINE
  8
0
 10
138.6
 11
134.4
 20
0
 21
0
  0
LINE
  8
0
 10
134.4
 11
134.4
 20
0
 21
-4.2
  0
LINE
  8
0
 10
134.4
 11
130.2
 20
-4.2
 21
-4.2
  0
LINE
  8
0
 10
130.2
 11
130.2
 20
-4.2
 21
0
  0
LINE
  8
0
 10
130.2
 11
126
 20
0
 21
0
  0
LINE
  8
0
 10
126
 11
126
 20
0
 21
-4.2
  0
LINE
  8
0
 10
126
 11
121.8
 20
-4.2
 21
-4.2
  0
LINE
  8
0
 10
121.8
 11
121.8
 20
-4.2
 21
0
  0
LINE
  8
0
 10
121.8
 11
117.6
 20
0
 21
0
  0
LINE
  8
0
 10
117.6
 11
117.6
 20
0
 21
-4.2
  0
LINE
  8
0
 10
117.6
 11
113.4
 20
-4.2
 21
-4.2
  0
LINE
  8
0
 10
113.4
 11
113.4
 20
-4.2
 21
0
  0
LINE
  8
0
 10
113.4
 11
109.2
 20
0
 21
0
  0
LINE
  8
0
 10
109.2
 11
109.2
 20
0
 21
-4.2
  0
LINE
  8
0
 10
109.2
 11
105
 20
-4.2
 21
-4.2
  0
LINE
  8
0
 10
105
 11
105
 20
-4.2
 21
0
  0
LINE
  8
0
 10
105
 11
100.8
 20
0
 21
0
  0
LINE
  8
0
 10
100.8
 11
100.8
 20
0
 21
-4.2
  0
LINE
  8
0
 10
100.8
 11
96.6
 20
-4.2
 21
-4.2
  0
LINE
  8
0
 10
96.6
 11
96.6
 20
-4.2
 21
0
  0
LINE
  8
0
 10
96.6
 11
92.4
 20
0
 21
0
  0
LINE
  8
0
 10
92.4
 11
92.4
 20
0
 21
-4.2
  0
LINE
  8
0
 10
92.4
 11
88.2
 20
-4.2
 21
-4.2
  0
LINE
  8
0
 10
88.2
 11
88.2
 20
-4.2
 21
0
  0
LINE
  8
0
 10
88.2
 11
84
 20
0
 21
0
  0
LINE
  8
0
 10
84
 11
84
 20
0
 21
-4.2
  0
LINE
  8
0
 10
84
 11
79.8
 20
-4.2
 21
-4.2
  0
LINE
  8
0
 10
79.8
 11
79.8
 20
-4.2
 21
0
  0
LINE
  8
0
 10
79.8
 11
75.6
 20
0
 21
0
  0
LINE
  8
0
 10
75.6
 11
75.6
 20
0
 21
-4.2
  0
LINE
  8
0
 10
75.6
 11
71.4
 20
-4.2
 21
-4.2
  0
LINE
  8
0
 10
71.4
 11
71.4
 20
-4.2
 21
0
  0
LINE
  8
0
 10
71.4
 11
67.2
 20
0
 21
0
  0
LINE
  8
0
 10
67.2
 11
67.2
 20
0
 21
-4.2
  0
LINE
  8
0
 10
67.2
 11
63
 20
-4.2
 21
-4.2
  0
LINE
  8
0
 10
63
 11
63
 20
-4.2
 21
0
  0
LINE
  8
0
 10
63
 11
58.8
 20
0
 21
0
  0
LINE
  8
0
 10
58.8
 11
58.8
 20
0
 21
-4.2
  0
LINE
  8
0
 10
58.8
 11
54.6
 20
-4.2
 21
-4.2
  0
LINE
  8
0
 10
54.6
 11
54.6
 20
-4.2
 21
0
  0
LINE
  8
0
 10
54.6
 11
50.4
 20
0
 21
0
  0
LINE
  8
0
 10
50.4
 11
50.4
 20
0
 21
-4.2
  0
LINE
  8
0
 10
50.4
 11
46.2
 20
-4.2
 21
-4.2
  0
LINE
  8
0
 10
46.2
 11
46.2
 20
-4.2
 21
0
  0
LINE
  8
0
 10
46.2
 11
42
 20
0
 21
0
  0
LINE
  8
0
 10
42
 11
42
 20
0
 21
-4.2
  0
LINE
  8
0
 10
42
 11
37.8
 20
-4.2
 21
-4.2
  0
LINE
  8
0
 10
37.8
 11
37.8
 20
-4.2
 21
0
  0
LINE
  8
0
 10
37.8
 11
33.6
 20
0
 21
0
  0
LINE
  8
0
 10
33.6
 11
33.6
 20
0
 21
-4.2
  0
LINE
  8
0
 10
33.6
 11
29.4
 20
-4.2
 21
-4.2
  0
LINE
  8
0
 10
29.4
 11
29.4
 20
-4.2
 21
0
  0
LINE
  8
0
 10
29.4
 11
25.2
 20
0
 21
0
  0
LINE
  8
0
 10
25.2
 11
25.2
 20
0
 21
-4.2
  0
LINE
  8
0
 10
25.2
 11
21
 20
-4.2
 21
-4.2
  0
LINE
  8
0
 10
21
 11
21
 20
-4.2
 21
0
  0
LINE
  8
0
 10
21
 11
16.8
 20
0
 21
0
  0
LINE
  8
0
 10
16.8
 11
16.8
 20
0
 21
-4.2
  0
LINE
  8
0
 10
16.8
 11
12.6
 20
-4.2
 21
-4.2
  0
LINE
  8
0
 10
12.6
 11
12.6
 20
-4.2
 21
0
  0
LINE
  8
0
 10
12.6
 11
8.4
 20
0
 21
0
  0
LINE
  8
0
 10
8.4
 11
8.4
 20
0
 21
-4.2
  0
LINE
  8
0
 10
8.4
 11
4.2
 20
-4.2
 21
-4.2
  0
LINE
  8
0
 10
4.2
 11
4.2
 20
-4.2
 21
0
  0
LINE
  8
0
 10
4.2
 11
0
 20
0
 21
0
  0
LINE
  8
0
 10
0
 11
0
 20
0
 21
-4.2
  0
LINE
  8
0
 10
0
 11
-4.2
 20
-4.2
 21
-4.2
  0
LINE
  8
0
 10
8.198
 11
8.198
 20
-66.868
 21
-65.132
  0
LINE
  8
0
 10
8.198
 11
9.555
 20
-65.132
 21
-64.05
  0
LINE
  8
0
 10
9.555
 11
11.247
 20
-64.05
 21
-64.436
  0
LINE
  8
0
 10
11.247
 11
12
 20
-64.436
 21
-66
  0
LINE
  8
0
 10
12
 11
11.247
 20
-66
 21
-67.564
  0
LINE
  8
0
 10
11.247
 11
9.555
 20
-67.564
 21
-67.95
  0
LINE
  8
0
 10
9.555
 11
8.198
 20
-67.95
 21
-66.868
  0
LINE
  8
0
 10
8.198
 11
8.198
 20
-18.868
 21
-17.132
  0
LINE
  8
0
 10
8.198
 11
9.555
 20
-17.132
 21
-16.05
  0
LINE
  8
0
 10
9.555
 11
11.247
 20
-16.05
 21
-16.436
  0
LINE
  8
0
 10
11.247
 11
12
 20
-16.436
 21
-18
  0
LINE
  8
0
 10
12
 11
11.247
 20
-18
 21
-19.564
  0
LINE
  8
0
 10
11.247
 11
9.555
 20
-19.564
 21
-19.95
  0
LINE
  8
0
 10
9.555
 11
8.198
 20
-19.95
 21
-18.868
  0
LINE
  8
0
 10
258.198
 11
258.198
 20
-66.868
 21
-65.132
  0
LINE
  8
0
 10
258.198
 11
259.555
 20
-65.132
 21
-64.05
  0
LINE
  8
0
 10
259.555
 11
261.247
 20
-64.05
 21
-64.436
  0
LINE
  8
0
 10
261.247
 11
262
 20
-64.436
 21
-66
  0
LINE
  8
0
 10
262
 11
261.247
 20
-66
 21
-67.564
  0
LINE
  8
0
 10
261.247
 11
259.555
 20
-67.564
 21
-67.95
  0
LINE
  8
0
 10
259.555
 11
258.198
 20
-67.95
 21
-66.868
  0
LINE
  8
0
 10
258.198
 11
258.198
 20
-18.868
 21
-17.132
  0
LINE
  8
0
 10
258.198
 11
259.555
 20
-17.132
 21
-16.05
  0
LINE
  8
0
 10
259.555
 11
261.247
 20
-16.05
 21
-16.436
  0
LINE
  8
0
 10
261.247
 11
262
 20
-16.436
 21
-18
  0
LINE
  8
0
 10
262
 11
261.247
 20
-18
 21
-19.564
  0
LINE
  8
0
 10
261.247
 11
259.555
 20
-19.564
 21
-19.95
  0
LINE
  8
0
 10
259.555
 11
258.198
 20
-19.95
 21
-18.868
  0
ENDSEC
  0
SECTION
  2
OBJECTS
  0
DICTIONARY
  0
ENDSEC
  0
EOF
