  0
SECTION
  2
BLOCKS
  0
ENDSEC
  0
SECTION
  2
ENTITIES
  0
LINE
  8
0
 10
-45
 11
-45
 20
-14
 21
-10
  0
LINE
  8
0
 10
-45
 11
-41
 20
-10
 21
-10
  0
LINE
  8
0
 10
-41
 11
-41
 20
-10
 21
-6
  0
LINE
  8
0
 10
-41
 11
-45
 20
-6
 21
-6
  0
LINE
  8
0
 10
-45
 11
-45
 20
-6
 21
-2
  0
LINE
  8
0
 10
-45
 11
-41
 20
-2
 21
-2
  0
LINE
  8
0
 10
-41
 11
-41
 20
-2
 21
6
  0
LINE
  8
0
 10
-41
 11
-37
 20
6
 21
6
  0
LINE
  8
0
 10
-37
 11
-37
 20
6
 21
2
  0
LINE
  8
0
 10
-37
 11
-33
 20
2
 21
2
  0
LINE
  8
0
 10
-33
 11
-33
 20
2
 21
6
  0
LINE
  8
0
 10
-33
 11
-29
 20
6
 21
6
  0
LINE
  8
0
 10
-29
 11
-29
 20
6
 21
2
  0
LINE
  8
0
 10
-29
 11
-25
 20
2
 21
2
  0
LINE
  8
0
 10
-25
 11
-25
 20
2
 21
6
  0
LINE
  8
0
 10
-25
 11
-21
 20
6
 21
6
  0
LINE
  8
0
 10
-21
 11
-21
 20
6
 21
2
  0
LINE
  8
0
 10
-21
 11
-17
 20
2
 21
2
  0
LINE
  8
0
 10
-17
 11
-17
 20
2
 21
6
  0
LINE
  8
0
 10
-17
 11
-13
 20
6
 21
6
  0
LINE
  8
0
 10
-13
 11
-13
 20
6
 21
2
  0
LINE
  8
0
 10
-13
 11
-5
 20
2
 21
2
  0
LINE
  8
0
 10
-5
 11
-5
 20
2
 21
-2
  0
LINE
  8
0
 10
-5
 11
-9
 20
-2
 21
-2
  0
LINE
  8
0
 10
-9
 11
-9
 20
-2
 21
-6
  0
LINE
  8
0
 10
-9
 11
-5
 20
-6
 21
-6
  0
LINE
  8
0
 10
-5
 11
-5
 20
-6
 21
-10
  0
LINE
  8
0
 10
-5
 11
-9
 20
-10
 21
-10
  0
LINE
  8
0
 10
-9
 11
-9
 20
-10
 21
-18
  0
LINE
  8
0
 10
-9
 11
-13
 20
-18
 21
-18
  0
LINE
  8
0
 10
-13
 11
-13
 20
-18
 21
-14
  0
LINE
  8
0
 10
-13
 11
-17
 20
-14
 21
-14
  0
LINE
  8
0
 10
-17
 11
-17
 20
-14
 21
-18
  0
LINE
  8
0
 10
-17
 11
-21
 20
-18
 21
-18
  0
LINE
  8
0
 10
-21
 11
-21
 20
-18
 21
-14
  0
LINE
  8
0
 10
-21
 11
-19
 20
-14
 21
-14
  0
LINE
  8
0
 10
-19
 11
-19
 20
-14
 21
-4
  0
LINE
  8
0
 10
-19
 11
-31
 20
-4
 21
-4
  0
LINE
  8
0
 10
-31
 11
-31
 20
-4
 21
-14
  0
LINE
  8
0
 10
-31
 11
-33
 20
-14
 21
-14
  0
LINE
  8
0
 10
-33
 11
-33
 20
-14
 21
-18
  0
LINE
  8
0
 10
-33
 11
-37
 20
-18
 21
-18
  0
LINE
  8
0
 10
-37
 11
-37
 20
-18
 21
-14
  0
LINE
  8
0
 10
-37
 11
-45
 20
-14
 21
-14
  0
LINE
  8
0
 10
-45
 11
-45
 20
46
 21
50
  0
LINE
  8
0
 10
-45
 11
-41
 20
50
 21
50
  0
LINE
  8
0
 10
-41
 11
-41
 20
50
 21
54
  0
LINE
  8
0
 10
-41
 11
-45
 20
54
 21
54
  0
LINE
  8
0
 10
-45
 11
-45
 20
54
 21
58
  0
LINE
  8
0
 10
-45
 11
-41
 20
58
 21
58
  0
LINE
  8
0
 10
-41
 11
-41
 20
58
 21
66
  0
LINE
  8
0
 10
-41
 11
-37
 20
66
 21
66
  0
LINE
  8
0
 10
-37
 11
-37
 20
66
 21
62
  0
LINE
  8
0
 10
-37
 11
-33
 20
62
 21
62
  0
LINE
  8
0
 10
-33
 11
-33
 20
62
 21
66
  0
LINE
  8
0
 10
-33
 11
-29
 20
66
 21
66
  0
LINE
  8
0
 10
-29
 11
-29
 20
66
 21
62
  0
LINE
  8
0
 10
-29
 11
-25
 20
62
 21
62
  0
LINE
  8
0
 10
-25
 11
-25
 20
62
 21
66
  0
LINE
  8
0
 10
-25
 11
-21
 20
66
 21
66
  0
LINE
  8
0
 10
-21
 11
-21
 20
66
 21
62
  0
LINE
  8
0
 10
-21
 11
-17
 20
62
 21
62
  0
LINE
  8
0
 10
-17
 11
-17
 20
62
 21
66
  0
LINE
  8
0
 10
-17
 11
-13
 20
66
 21
66
  0
LINE
  8
0
 10
-13
 11
-13
 20
66
 21
62
  0
LINE
  8
0
 10
-13
 11
-5
 20
62
 21
62
  0
LINE
  8
0
 10
-5
 11
-5
 20
62
 21
58
  0
LINE
  8
0
 10
-5
 11
-9
 20
58
 21
58
  0
LINE
  8
0
 10
-9
 11
-9
 20
58
 21
54
  0
LINE
  8
0
 10
-9
 11
-5
 20
54
 21
54
  0
LINE
  8
0
 10
-5
 11
-5
 20
54
 21
50
  0
LINE
  8
0
 10
-5
 11
-9
 20
50
 21
50
  0
LINE
  8
0
 10
-9
 11
-9
 20
50
 21
42
  0
LINE
  8
0
 10
-9
 11
-13
 20
42
 21
42
  0
LINE
  8
0
 10
-13
 11
-13
 20
42
 21
46
  0
LINE
  8
0
 10
-13
 11
-17
 20
46
 21
46
  0
LINE
  8
0
 10
-17
 11
-17
 20
46
 21
42
  0
LINE
  8
0
 10
-17
 11
-21
 20
42
 21
42
  0
LINE
  8
0
 10
-21
 11
-21
 20
42
 21
46
  0
LINE
  8
0
 10
-21
 11
-25
 20
46
 21
46
  0
LINE
  8
0
 10
-25
 11
-25
 20
46
 21
42
  0
LINE
  8
0
 10
-25
 11
-29
 20
42
 21
42
  0
LINE
  8
0
 10
-29
 11
-29
 20
42
 21
46
  0
LINE
  8
0
 10
-29
 11
-33
 20
46
 21
46
  0
LINE
  8
0
 10
-33
 11
-33
 20
46
 21
42
  0
LINE
  8
0
 10
-33
 11
-37
 20
42
 21
42
  0
LINE
  8
0
 10
-37
 11
-37
 20
42
 21
46
  0
LINE
  8
0
 10
-37
 11
-45
 20
46
 21
46
  0
LINE
  8
0
 10
-29
 11
-29
 20
-18
 21
-14
  0
LINE
  8
0
 10
-29
 11
-25
 20
-14
 21
-14
  0
LINE
  8
0
 10
-25
 11
-25
 20
-14
 21
-18
  0
LINE
  8
0
 10
-25
 11
-29
 20
-18
 21
-18
  0
LINE
  8
0
 10
-4
 11
-4
 20
-30
 21
-22
  0
LINE
  8
0
 10
-4
 11
0
 20
-22
 21
-22
  0
LINE
  8
0
 10
0
 11
0
 20
-22
 21
-18
  0
LINE
  8
0
 10
0
 11
-4
 20
-18
 21
-18
  0
LINE
  8
0
 10
-4
 11
-4
 20
-18
 21
-6
  0
LINE
  8
0
 10
-4
 11
0
 20
-6
 21
-6
  0
LINE
  8
0
 10
0
 11
0
 20
-6
 21
-2
  0
LINE
  8
0
 10
0
 11
-4
 20
-2
 21
-2
  0
LINE
  8
0
 10
-4
 11
-4
 20
-2
 21
2
  0
LINE
  8
0
 10
-4
 11
0
 20
2
 21
2
  0
LINE
  8
0
 10
0
 11
0
 20
2
 21
6
  0
LINE
  8
0
 10
0
 11
-4
 20
6
 21
6
  0
LINE
  8
0
 10
-4
 11
-4
 20
6
 21
10
  0
LINE
  8
0
 10
-4
 11
4
 20
10
 21
10
  0
LINE
  8
0
 10
4
 11
4
 20
10
 21
6
  0
LINE
  8
0
 10
4
 11
8
 20
6
 21
6
  0
LINE
  8
0
 10
8
 11
8
 20
6
 21
10
  0
LINE
  8
0
 10
8
 11
12
 20
10
 21
10
  0
LINE
  8
0
 10
12
 11
12
 20
10
 21
6
  0
LINE
  8
0
 10
12
 11
16
 20
6
 21
6
  0
LINE
  8
0
 10
16
 11
16
 20
6
 21
10
  0
LINE
  8
0
 10
16
 11
20
 20
10
 21
10
  0
LINE
  8
0
 10
20
 11
20
 20
10
 21
6
  0
LINE
  8
0
 10
20
 11
24
 20
6
 21
6
  0
LINE
  8
0
 10
24
 11
24
 20
6
 21
10
  0
LINE
  8
0
 10
24
 11
28
 20
10
 21
10
  0
LINE
  8
0
 10
28
 11
28
 20
10
 21
6
  0
LINE
  8
0
 10
28
 11
32
 20
6
 21
6
  0
LINE
  8
0
 10
32
 11
32
 20
6
 21
10
  0
LINE
  8
0
 10
32
 11
36
 20
10
 21
10
  0
LINE
  8
0
 10
36
 11
36
 20
10
 21
6
  0
LINE
  8
0
 10
36
 11
40
 20
6
 21
6
  0
LINE
  8
0
 10
40
 11
40
 20
6
 21
10
  0
LINE
  8
0
 10
40
 11
44
 20
10
 21
10
  0
LINE
  8
0
 10
44
 11
44
 20
10
 21
2
  0
LINE
  8
0
 10
44
 11
40
 20
2
 21
2
  0
LINE
  8
0
 10
40
 11
40
 20
2
 21
-2
  0
LINE
  8
0
 10
40
 11
44
 20
-2
 21
-2
  0
LINE
  8
0
 10
44
 11
44
 20
-2
 21
-6
  0
LINE
  8
0
 10
44
 11
40
 20
-6
 21
-6
  0
LINE
  8
0
 10
40
 11
40
 20
-6
 21
-10
  0
LINE
  8
0
 10
40
 11
44
 20
-10
 21
-10
  0
LINE
  8
0
 10
44
 11
44
 20
-10
 21
-14
  0
LINE
  8
0
 10
44
 11
40
 20
-14
 21
-14
  0
LINE
  8
0
 10
40
 11
40
 20
-14
 21
-18
  0
LINE
  8
0
 10
40
 11
44
 20
-18
 21
-18
  0
LINE
  8
0
 10
44
 11
44
 20
-18
 21
-22
  0
LINE
  8
0
 10
44
 11
40
 20
-22
 21
-22
  0
LINE
  8
0
 10
40
 11
40
 20
-22
 21
-26
  0
LINE
  8
0
 10
40
 11
44
 20
-26
 21
-26
  0
LINE
  8
0
 10
44
 11
44
 20
-26
 21
-30
  0
LINE
  8
0
 10
44
 11
36
 20
-30
 21
-30
  0
LINE
  8
0
 10
36
 11
36
 20
-30
 21
-26
  0
LINE
  8
0
 10
36
 11
32
 20
-26
 21
-26
  0
LINE
  8
0
 10
32
 11
32
 20
-26
 21
-30
  0
LINE
  8
0
 10
32
 11
28
 20
-30
 21
-30
  0
LINE
  8
0
 10
28
 11
28
 20
-30
 21
-26
  0
LINE
  8
0
 10
28
 11
24
 20
-26
 21
-26
  0
LINE
  8
0
 10
24
 11
24
 20
-26
 21
-30
  0
LINE
  8
0
 10
24
 11
20
 20
-30
 21
-30
  0
LINE
  8
0
 10
20
 11
20
 20
-30
 21
-26
  0
LINE
  8
0
 10
20
 11
16
 20
-26
 21
-26
  0
LINE
  8
0
 10
16
 11
16
 20
-26
 21
-30
  0
LINE
  8
0
 10
16
 11
12
 20
-30
 21
-30
  0
LINE
  8
0
 10
12
 11
12
 20
-30
 21
-26
  0
LINE
  8
0
 10
12
 11
8
 20
-26
 21
-26
  0
LINE
  8
0
 10
8
 11
8
 20
-26
 21
-30
  0
LINE
  8
0
 10
8
 11
4
 20
-30
 21
-30
  0
LINE
  8
0
 10
4
 11
4
 20
-30
 21
-26
  0
LINE
  8
0
 10
4
 11
0
 20
-26
 21
-26
  0
LINE
  8
0
 10
0
 11
0
 20
-26
 21
-30
  0
LINE
  8
0
 10
0
 11
-4
 20
-30
 21
-30
  0
LINE
  8
0
 10
-4
 11
-4
 20
24
 21
32
  0
LINE
  8
0
 10
-4
 11
0
 20
32
 21
32
  0
LINE
  8
0
 10
0
 11
0
 20
32
 21
36
  0
LINE
  8
0
 10
0
 11
-4
 20
36
 21
36
  0
LINE
  8
0
 10
-4
 11
-4
 20
36
 21
40
  0
LINE
  8
0
 10
-4
 11
0
 20
40
 21
40
  0
LINE
  8
0
 10
0
 11
0
 20
40
 21
44
  0
LINE
  8
0
 10
0
 11
-4
 20
44
 21
44
  0
LINE
  8
0
 10
-4
 11
-4
 20
44
 21
48
  0
LINE
  8
0
 10
-4
 11
0
 20
48
 21
48
  0
LINE
  8
0
 10
0
 11
0
 20
48
 21
52
  0
LINE
  8
0
 10
0
 11
-4
 20
52
 21
52
  0
LINE
  8
0
 10
-4
 11
-4
 20
52
 21
56
  0
LINE
  8
0
 10
-4
 11
0
 20
56
 21
56
  0
LINE
  8
0
 10
0
 11
0
 20
56
 21
60
  0
LINE
  8
0
 10
0
 11
-4
 20
60
 21
60
  0
LINE
  8
0
 10
-4
 11
-4
 20
60
 21
64
  0
LINE
  8
0
 10
-4
 11
4
 20
64
 21
64
  0
LINE
  8
0
 10
4
 11
4
 20
64
 21
60
  0
LINE
  8
0
 10
4
 11
8
 20
60
 21
60
  0
LINE
  8
0
 10
8
 11
8
 20
60
 21
64
  0
LINE
  8
0
 10
8
 11
12
 20
64
 21
64
  0
LINE
  8
0
 10
12
 11
12
 20
64
 21
60
  0
LINE
  8
0
 10
12
 11
16
 20
60
 21
60
  0
LINE
  8
0
 10
16
 11
16
 20
60
 21
64
  0
LINE
  8
0
 10
16
 11
20
 20
64
 21
64
  0
LINE
  8
0
 10
20
 11
20
 20
64
 21
60
  0
LINE
  8
0
 10
20
 11
24
 20
60
 21
60
  0
LINE
  8
0
 10
24
 11
24
 20
60
 21
64
  0
LINE
  8
0
 10
24
 11
28
 20
64
 21
64
  0
LINE
  8
0
 10
28
 11
28
 20
64
 21
60
  0
LINE
  8
0
 10
28
 11
32
 20
60
 21
60
  0
LINE
  8
0
 10
32
 11
32
 20
60
 21
64
  0
LINE
  8
0
 10
32
 11
36
 20
64
 21
64
  0
LINE
  8
0
 10
36
 11
36
 20
64
 21
60
  0
LINE
  8
0
 10
36
 11
40
 20
60
 21
60
  0
LINE
  8
0
 10
40
 11
40
 20
60
 21
64
  0
LINE
  8
0
 10
40
 11
44
 20
64
 21
64
  0
LINE
  8
0
 10
44
 11
44
 20
64
 21
56
  0
LINE
  8
0
 10
44
 11
40
 20
56
 21
56
  0
LINE
  8
0
 10
40
 11
40
 20
56
 21
52
  0
LINE
  8
0
 10
40
 11
44
 20
52
 21
52
  0
LINE
  8
0
 10
44
 11
44
 20
52
 21
48
  0
LINE
  8
0
 10
44
 11
40
 20
48
 21
48
  0
LINE
  8
0
 10
40
 11
40
 20
48
 21
44
  0
LINE
  8
0
 10
40
 11
44
 20
44
 21
44
  0
LINE
  8
0
 10
44
 11
44
 20
44
 21
40
  0
LINE
  8
0
 10
44
 11
40
 20
40
 21
40
  0
LINE
  8
0
 10
40
 11
40
 20
40
 21
36
  0
LINE
  8
0
 10
40
 11
44
 20
36
 21
36
  0
LINE
  8
0
 10
44
 11
44
 20
36
 21
32
  0
LINE
  8
0
 10
44
 11
40
 20
32
 21
32
  0
LINE
  8
0
 10
40
 11
40
 20
32
 21
28
  0
LINE
  8
0
 10
40
 11
44
 20
28
 21
28
  0
LINE
  8
0
 10
44
 11
44
 20
28
 21
24
  0
LINE
  8
0
 10
44
 11
36
 20
24
 21
24
  0
LINE
  8
0
 10
36
 11
36
 20
24
 21
28
  0
LINE
  8
0
 10
36
 11
32
 20
28
 21
28
  0
LINE
  8
0
 10
32
 11
32
 20
28
 21
24
  0
LINE
  8
0
 10
32
 11
28
 20
24
 21
24
  0
LINE
  8
0
 10
28
 11
28
 20
24
 21
28
  0
LINE
  8
0
 10
28
 11
24
 20
28
 21
28
  0
LINE
  8
0
 10
24
 11
24
 20
28
 21
24
  0
LINE
  8
0
 10
24
 11
20
 20
24
 21
24
  0
LINE
  8
0
 10
20
 11
20
 20
24
 21
28
  0
LINE
  8
0
 10
20
 11
16
 20
28
 21
28
  0
LINE
  8
0
 10
16
 11
16
 20
28
 21
24
  0
LINE
  8
0
 10
16
 11
12
 20
24
 21
24
  0
LINE
  8
0
 10
12
 11
12
 20
24
 21
28
  0
LINE
  8
0
 10
12
 11
8
 20
28
 21
28
  0
LINE
  8
0
 10
8
 11
8
 20
28
 21
24
  0
LINE
  8
0
 10
8
 11
4
 20
24
 21
24
  0
LINE
  8
0
 10
4
 11
4
 20
24
 21
28
  0
LINE
  8
0
 10
4
 11
0
 20
28
 21
28
  0
LINE
  8
0
 10
0
 11
0
 20
28
 21
24
  0
LINE
  8
0
 10
0
 11
-4
 20
24
 21
24
  0
LINE
  8
0
 10
48
 11
48
 20
-30
 21
-26
  0
LINE
  8
0
 10
48
 11
52
 20
-26
 21
-26
  0
LINE
  8
0
 10
52
 11
52
 20
-26
 21
-22
  0
LINE
  8
0
 10
52
 11
48
 20
-22
 21
-22
  0
LINE
  8
0
 10
48
 11
48
 20
-22
 21
-18
  0
LINE
  8
0
 10
48
 11
52
 20
-18
 21
-18
  0
LINE
  8
0
 10
52
 11
52
 20
-18
 21
-10
  0
LINE
  8
0
 10
52
 11
56
 20
-10
 21
-10
  0
LINE
  8
0
 10
56
 11
56
 20
-10
 21
-14
  0
LINE
  8
0
 10
56
 11
60
 20
-14
 21
-14
  0
LINE
  8
0
 10
60
 11
60
 20
-14
 21
-10
  0
LINE
  8
0
 10
60
 11
64
 20
-10
 21
-10
  0
LINE
  8
0
 10
64
 11
64
 20
-10
 21
-14
  0
LINE
  8
0
 10
64
 11
68
 20
-14
 21
-14
  0
LINE
  8
0
 10
68
 11
68
 20
-14
 21
-10
  0
LINE
  8
0
 10
68
 11
72
 20
-10
 21
-10
  0
LINE
  8
0
 10
72
 11
72
 20
-10
 21
-14
  0
LINE
  8
0
 10
72
 11
76
 20
-14
 21
-14
  0
LINE
  8
0
 10
76
 11
76
 20
-14
 21
-10
  0
LINE
  8
0
 10
76
 11
80
 20
-10
 21
-10
  0
LINE
  8
0
 10
80
 11
80
 20
-10
 21
-14
  0
LINE
  8
0
 10
80
 11
84
 20
-14
 21
-14
  0
LINE
  8
0
 10
84
 11
84
 20
-14
 21
-10
  0
LINE
  8
0
 10
84
 11
88
 20
-10
 21
-10
  0
LINE
  8
0
 10
88
 11
88
 20
-10
 21
-14
  0
LINE
  8
0
 10
88
 11
96
 20
-14
 21
-14
  0
LINE
  8
0
 10
96
 11
96
 20
-14
 21
-18
  0
LINE
  8
0
 10
96
 11
92
 20
-18
 21
-18
  0
LINE
  8
0
 10
92
 11
92
 20
-18
 21
-22
  0
LINE
  8
0
 10
92
 11
96
 20
-22
 21
-22
  0
LINE
  8
0
 10
96
 11
96
 20
-22
 21
-26
  0
LINE
  8
0
 10
96
 11
92
 20
-26
 21
-26
  0
LINE
  8
0
 10
92
 11
92
 20
-26
 21
-34
  0
LINE
  8
0
 10
92
 11
88
 20
-34
 21
-34
  0
LINE
  8
0
 10
88
 11
88
 20
-34
 21
-30
  0
LINE
  8
0
 10
88
 11
84
 20
-30
 21
-30
  0
LINE
  8
0
 10
84
 11
84
 20
-30
 21
-34
  0
LINE
  8
0
 10
84
 11
80
 20
-34
 21
-34
  0
LINE
  8
0
 10
80
 11
80
 20
-34
 21
-30
  0
LINE
  8
0
 10
80
 11
76
 20
-30
 21
-30
  0
LINE
  8
0
 10
76
 11
76
 20
-30
 21
-34
  0
LINE
  8
0
 10
76
 11
72
 20
-34
 21
-34
  0
LINE
  8
0
 10
72
 11
72
 20
-34
 21
-30
  0
LINE
  8
0
 10
72
 11
68
 20
-30
 21
-30
  0
LINE
  8
0
 10
68
 11
68
 20
-30
 21
-34
  0
LINE
  8
0
 10
68
 11
64
 20
-34
 21
-34
  0
LINE
  8
0
 10
64
 11
64
 20
-34
 21
-30
  0
LINE
  8
0
 10
64
 11
60
 20
-30
 21
-30
  0
LINE
  8
0
 10
60
 11
60
 20
-30
 21
-34
  0
LINE
  8
0
 10
60
 11
56
 20
-34
 21
-34
  0
LINE
  8
0
 10
56
 11
56
 20
-34
 21
-30
  0
LINE
  8
0
 10
56
 11
48
 20
-30
 21
-30
  0
LINE
  8
0
 10
48
 11
48
 20
28
 21
32
  0
LINE
  8
0
 10
48
 11
52
 20
32
 21
32
  0
LINE
  8
0
 10
52
 11
52
 20
32
 21
36
  0
LINE
  8
0
 10
52
 11
48
 20
36
 21
36
  0
LINE
  8
0
 10
48
 11
48
 20
36
 21
40
  0
LINE
  8
0
 10
48
 11
52
 20
40
 21
40
  0
LINE
  8
0
 10
52
 11
52
 20
40
 21
48
  0
LINE
  8
0
 10
52
 11
56
 20
48
 21
48
  0
LINE
  8
0
 10
56
 11
56
 20
48
 21
44
  0
LINE
  8
0
 10
56
 11
60
 20
44
 21
44
  0
LINE
  8
0
 10
60
 11
60
 20
44
 21
48
  0
LINE
  8
0
 10
60
 11
64
 20
48
 21
48
  0
LINE
  8
0
 10
64
 11
64
 20
48
 21
44
  0
LINE
  8
0
 10
64
 11
68
 20
44
 21
44
  0
LINE
  8
0
 10
68
 11
68
 20
44
 21
48
  0
LINE
  8
0
 10
68
 11
72
 20
48
 21
48
  0
LINE
  8
0
 10
72
 11
72
 20
48
 21
44
  0
LINE
  8
0
 10
72
 11
76
 20
44
 21
44
  0
LINE
  8
0
 10
76
 11
76
 20
44
 21
48
  0
LINE
  8
0
 10
76
 11
80
 20
48
 21
48
  0
LINE
  8
0
 10
80
 11
80
 20
48
 21
44
  0
LINE
  8
0
 10
80
 11
84
 20
44
 21
44
  0
LINE
  8
0
 10
84
 11
84
 20
44
 21
48
  0
LINE
  8
0
 10
84
 11
88
 20
48
 21
48
  0
LINE
  8
0
 10
88
 11
88
 20
48
 21
44
  0
LINE
  8
0
 10
88
 11
96
 20
44
 21
44
  0
LINE
  8
0
 10
96
 11
96
 20
44
 21
40
  0
LINE
  8
0
 10
96
 11
92
 20
40
 21
40
  0
LINE
  8
0
 10
92
 11
92
 20
40
 21
36
  0
LINE
  8
0
 10
92
 11
96
 20
36
 21
36
  0
LINE
  8
0
 10
96
 11
96
 20
36
 21
32
  0
LINE
  8
0
 10
96
 11
92
 20
32
 21
32
  0
LINE
  8
0
 10
92
 11
92
 20
32
 21
24
  0
LINE
  8
0
 10
92
 11
88
 20
24
 21
24
  0
LINE
  8
0
 10
88
 11
88
 20
24
 21
28
  0
LINE
  8
0
 10
88
 11
84
 20
28
 21
28
  0
LINE
  8
0
 10
84
 11
84
 20
28
 21
24
  0
LINE
  8
0
 10
84
 11
80
 20
24
 21
24
  0
LINE
  8
0
 10
80
 11
80
 20
24
 21
28
  0
LINE
  8
0
 10
80
 11
76
 20
28
 21
28
  0
LINE
  8
0
 10
76
 11
76
 20
28
 21
24
  0
LINE
  8
0
 10
76
 11
72
 20
24
 21
24
  0
LINE
  8
0
 10
72
 11
72
 20
24
 21
28
  0
LINE
  8
0
 10
72
 11
68
 20
28
 21
28
  0
LINE
  8
0
 10
68
 11
68
 20
28
 21
24
  0
LINE
  8
0
 10
68
 11
64
 20
24
 21
24
  0
LINE
  8
0
 10
64
 11
64
 20
24
 21
28
  0
LINE
  8
0
 10
64
 11
60
 20
28
 21
28
  0
LINE
  8
0
 10
60
 11
60
 20
28
 21
24
  0
LINE
  8
0
 10
60
 11
56
 20
24
 21
24
  0
LINE
  8
0
 10
56
 11
56
 20
24
 21
28
  0
LINE
  8
0
 10
56
 11
48
 20
28
 21
28
  0
ENDSEC
  0
SECTION
  2
OBJECTS
  0
DICTIONARY
  0
ENDSEC
  0
EOF
