  0
SECTION
  2
BLOCKS
  0
ENDSEC
  0
SECTION
  2
ENTITIES
  0
LINE
  8
0
 10
-41
 20
46
 11
-37
 21
46
  0
LINE
  8
0
 10
-37
 20
46
 11
-37
 21
42
  0
LINE
  8
0
 10
-37
 20
42
 11
-33
 21
42
  0
LINE
  8
0
 10
-33
 20
42
 11
-33
 21
46
  0
LINE
  8
0
 10
-33
 20
46
 11
-29
 21
46
  0
LINE
  8
0
 10
-29
 20
46
 11
-29
 21
42
  0
LINE
  8
0
 10
-29
 20
42
 11
-25
 21
42
  0
LINE
  8
0
 10
-25
 20
42
 11
-25
 21
46
  0
LINE
  8
0
 10
-25
 20
46
 11
-21
 21
46
  0
LINE
  8
0
 10
-21
 20
46
 11
-21
 21
42
  0
LINE
  8
0
 10
-21
 20
42
 11
-17
 21
42
  0
LINE
  8
0
 10
-17
 20
42
 11
-17
 21
46
  0
LINE
  8
0
 10
-17
 20
46
 11
-13
 21
46
  0
LINE
  8
0
 10
-13
 20
46
 11
-13
 21
42
  0
LINE
  8
0
 10
-13
 20
42
 11
-9
 21
42
  0
LINE
  8
0
 10
-9
 20
42
 11
-9
 21
50
  0
LINE
  8
0
 10
-9
 20
50
 11
-5
 21
50
  0
LINE
  8
0
 10
-5
 20
50
 11
-5
 21
54
  0
LINE
  8
0
 10
-5
 20
54
 11
-9
 21
54
  0
LINE
  8
0
 10
-9
 20
54
 11
-9
 21
58
  0
LINE
  8
0
 10
-9
 20
58
 11
-5
 21
58
  0
LINE
  8
0
 10
-5
 20
58
 11
-5
 21
62
  0
LINE
  8
0
 10
-5
 20
62
 11
-9
 21
62
  0
LINE
  8
0
 10
-9
 20
62
 11
-9
 21
66
  0
LINE
  8
0
 10
-9
 20
66
 11
-5
 21
66
  0
LINE
  8
0
 10
-5
 20
66
 11
-5
 21
70
  0
LINE
  8
0
 10
-5
 20
70
 11
-9
 21
70
  0
LINE
  8
0
 10
-9
 20
70
 11
-9
 21
74
  0
LINE
  8
0
 10
-9
 20
74
 11
-5
 21
74
  0
LINE
  8
0
 10
-5
 20
74
 11
-5
 21
78
  0
LINE
  8
0
 10
-5
 20
78
 11
-9
 21
78
  0
LINE
  8
0
 10
-9
 20
78
 11
-9
 21
82
  0
LINE
  8
0
 10
-9
 20
82
 11
-5
 21
82
  0
LINE
  8
0
 10
-5
 20
82
 11
-5
 21
86
  0
LINE
  8
0
 10
-5
 20
86
 11
-9
 21
86
  0
LINE
  8
0
 10
-9
 20
86
 11
-9
 21
90
  0
LINE
  8
0
 10
-9
 20
90
 11
-5
 21
90
  0
LINE
  8
0
 10
-5
 20
90
 11
-5
 21
94
  0
LINE
  8
0
 10
-5
 20
94
 11
-13
 21
94
  0
LINE
  8
0
 10
-13
 20
94
 11
-13
 21
98
  0
LINE
  8
0
 10
-13
 20
98
 11
-17
 21
98
  0
LINE
  8
0
 10
-17
 20
98
 11
-17
 21
94
  0
LINE
  8
0
 10
-17
 20
94
 11
-21
 21
94
  0
LINE
  8
0
 10
-21
 20
94
 11
-21
 21
98
  0
LINE
  8
0
 10
-21
 20
98
 11
-25
 21
98
  0
LINE
  8
0
 10
-25
 20
98
 11
-25
 21
94
  0
LINE
  8
0
 10
-25
 20
94
 11
-29
 21
94
  0
LINE
  8
0
 10
-29
 20
94
 11
-29
 21
98
  0
LINE
  8
0
 10
-29
 20
98
 11
-33
 21
98
  0
LINE
  8
0
 10
-33
 20
98
 11
-33
 21
94
  0
LINE
  8
0
 10
-33
 20
94
 11
-37
 21
94
  0
LINE
  8
0
 10
-37
 20
94
 11
-37
 21
98
  0
LINE
  8
0
 10
-37
 20
98
 11
-41
 21
98
  0
LINE
  8
0
 10
-41
 20
98
 11
-41
 21
94
  0
LINE
  8
0
 10
-41
 20
94
 11
-45
 21
94
  0
LINE
  8
0
 10
-45
 20
94
 11
-45
 21
98
  0
LINE
  8
0
 10
-45
 20
98
 11
-49
 21
98
  0
LINE
  8
0
 10
-49
 20
98
 11
-49
 21
90
  0
LINE
  8
0
 10
-49
 20
90
 11
-53
 21
90
  0
LINE
  8
0
 10
-53
 20
90
 11
-53
 21
86
  0
LINE
  8
0
 10
-53
 20
86
 11
-49
 21
86
  0
LINE
  8
0
 10
-49
 20
86
 11
-49
 21
82
  0
LINE
  8
0
 10
-49
 20
82
 11
-53
 21
82
  0
LINE
  8
0
 10
-53
 20
82
 11
-53
 21
78
  0
LINE
  8
0
 10
-53
 20
78
 11
-49
 21
78
  0
LINE
  8
0
 10
-49
 20
78
 11
-49
 21
74
  0
LINE
  8
0
 10
-49
 20
74
 11
-53
 21
74
  0
LINE
  8
0
 10
-53
 20
74
 11
-53
 21
70
  0
LINE
  8
0
 10
-53
 20
70
 11
-49
 21
70
  0
LINE
  8
0
 10
-49
 20
70
 11
-49
 21
66
  0
LINE
  8
0
 10
-49
 20
66
 11
-53
 21
66
  0
LINE
  8
0
 10
-53
 20
66
 11
-53
 21
62
  0
LINE
  8
0
 10
-53
 20
62
 11
-49
 21
62
  0
LINE
  8
0
 10
-49
 20
62
 11
-49
 21
58
  0
LINE
  8
0
 10
-49
 20
58
 11
-53
 21
58
  0
LINE
  8
0
 10
-53
 20
58
 11
-53
 21
54
  0
LINE
  8
0
 10
-53
 20
54
 11
-49
 21
54
  0
LINE
  8
0
 10
-49
 20
54
 11
-49
 21
50
  0
LINE
  8
0
 10
-49
 20
50
 11
-53
 21
50
  0
LINE
  8
0
 10
-53
 20
50
 11
-53
 21
46
  0
LINE
  8
0
 10
-53
 20
46
 11
-45
 21
46
  0
LINE
  8
0
 10
-45
 20
46
 11
-45
 21
42
  0
LINE
  8
0
 10
-45
 20
42
 11
-41
 21
42
  0
LINE
  8
0
 10
-41
 20
42
 11
-41
 21
46
  0
LINE
  8
0
 10
58
 20
28
 11
62
 21
28
  0
LINE
  8
0
 10
62
 20
28
 11
62
 21
24
  0
LINE
  8
0
 10
62
 20
24
 11
66
 21
24
  0
LINE
  8
0
 10
66
 20
24
 11
66
 21
28
  0
LINE
  8
0
 10
66
 20
28
 11
70
 21
28
  0
LINE
  8
0
 10
70
 20
28
 11
70
 21
24
  0
LINE
  8
0
 10
70
 20
24
 11
74
 21
24
  0
LINE
  8
0
 10
74
 20
24
 11
74
 21
28
  0
LINE
  8
0
 10
74
 20
28
 11
78
 21
28
  0
LINE
  8
0
 10
78
 20
28
 11
78
 21
24
  0
LINE
  8
0
 10
78
 20
24
 11
82
 21
24
  0
LINE
  8
0
 10
82
 20
24
 11
82
 21
28
  0
LINE
  8
0
 10
82
 20
28
 11
86
 21
28
  0
LINE
  8
0
 10
86
 20
28
 11
86
 21
24
  0
LINE
  8
0
 10
86
 20
24
 11
90
 21
24
  0
LINE
  8
0
 10
90
 20
24
 11
90
 21
32
  0
LINE
  8
0
 10
90
 20
32
 11
94
 21
32
  0
LINE
  8
0
 10
94
 20
32
 11
94
 21
36
  0
LINE
  8
0
 10
94
 20
36
 11
90
 21
36
  0
LINE
  8
0
 10
90
 20
36
 11
90
 21
40
  0
LINE
  8
0
 10
90
 20
40
 11
94
 21
40
  0
LINE
  8
0
 10
94
 20
40
 11
94
 21
44
  0
LINE
  8
0
 10
94
 20
44
 11
90
 21
44
  0
LINE
  8
0
 10
90
 20
44
 11
90
 21
48
  0
LINE
  8
0
 10
90
 20
48
 11
94
 21
48
  0
LINE
  8
0
 10
94
 20
48
 11
94
 21
52
  0
LINE
  8
0
 10
94
 20
52
 11
90
 21
52
  0
LINE
  8
0
 10
90
 20
52
 11
90
 21
56
  0
LINE
  8
0
 10
90
 20
56
 11
94
 21
56
  0
LINE
  8
0
 10
94
 20
56
 11
94
 21
60
  0
LINE
  8
0
 10
94
 20
60
 11
90
 21
60
  0
LINE
  8
0
 10
90
 20
60
 11
90
 21
64
  0
LINE
  8
0
 10
90
 20
64
 11
94
 21
64
  0
LINE
  8
0
 10
94
 20
64
 11
94
 21
68
  0
LINE
  8
0
 10
94
 20
68
 11
90
 21
68
  0
LINE
  8
0
 10
90
 20
68
 11
90
 21
72
  0
LINE
  8
0
 10
90
 20
72
 11
94
 21
72
  0
LINE
  8
0
 10
94
 20
72
 11
94
 21
76
  0
LINE
  8
0
 10
94
 20
76
 11
86
 21
76
  0
LINE
  8
0
 10
86
 20
76
 11
86
 21
80
  0
LINE
  8
0
 10
86
 20
80
 11
82
 21
80
  0
LINE
  8
0
 10
82
 20
80
 11
82
 21
76
  0
LINE
  8
0
 10
82
 20
76
 11
78
 21
76
  0
LINE
  8
0
 10
78
 20
76
 11
78
 21
80
  0
LINE
  8
0
 10
78
 20
80
 11
74
 21
80
  0
LINE
  8
0
 10
74
 20
80
 11
74
 21
76
  0
LINE
  8
0
 10
74
 20
76
 11
70
 21
76
  0
LINE
  8
0
 10
70
 20
76
 11
70
 21
80
  0
LINE
  8
0
 10
70
 20
80
 11
66
 21
80
  0
LINE
  8
0
 10
66
 20
80
 11
66
 21
76
  0
LINE
  8
0
 10
66
 20
76
 11
62
 21
76
  0
LINE
  8
0
 10
62
 20
76
 11
62
 21
80
  0
LINE
  8
0
 10
62
 20
80
 11
58
 21
80
  0
LINE
  8
0
 10
58
 20
80
 11
58
 21
76
  0
LINE
  8
0
 10
58
 20
76
 11
54
 21
76
  0
LINE
  8
0
 10
54
 20
76
 11
54
 21
80
  0
LINE
  8
0
 10
54
 20
80
 11
50
 21
80
  0
LINE
  8
0
 10
50
 20
80
 11
50
 21
72
  0
LINE
  8
0
 10
50
 20
72
 11
46
 21
72
  0
LINE
  8
0
 10
46
 20
72
 11
46
 21
68
  0
LINE
  8
0
 10
46
 20
68
 11
50
 21
68
  0
LINE
  8
0
 10
50
 20
68
 11
50
 21
64
  0
LINE
  8
0
 10
50
 20
64
 11
46
 21
64
  0
LINE
  8
0
 10
46
 20
64
 11
46
 21
60
  0
LINE
  8
0
 10
46
 20
60
 11
50
 21
60
  0
LINE
  8
0
 10
50
 20
60
 11
50
 21
56
  0
LINE
  8
0
 10
50
 20
56
 11
46
 21
56
  0
LINE
  8
0
 10
46
 20
56
 11
46
 21
52
  0
LINE
  8
0
 10
46
 20
52
 11
50
 21
52
  0
LINE
  8
0
 10
50
 20
52
 11
50
 21
48
  0
LINE
  8
0
 10
50
 20
48
 11
46
 21
48
  0
LINE
  8
0
 10
46
 20
48
 11
46
 21
44
  0
LINE
  8
0
 10
46
 20
44
 11
50
 21
44
  0
LINE
  8
0
 10
50
 20
44
 11
50
 21
40
  0
LINE
  8
0
 10
50
 20
40
 11
46
 21
40
  0
LINE
  8
0
 10
46
 20
40
 11
46
 21
36
  0
LINE
  8
0
 10
46
 20
36
 11
50
 21
36
  0
LINE
  8
0
 10
50
 20
36
 11
50
 21
32
  0
LINE
  8
0
 10
50
 20
32
 11
46
 21
32
  0
LINE
  8
0
 10
46
 20
32
 11
46
 21
28
  0
LINE
  8
0
 10
46
 20
28
 11
54
 21
28
  0
LINE
  8
0
 10
54
 20
28
 11
54
 21
24
  0
LINE
  8
0
 10
54
 20
24
 11
58
 21
24
  0
LINE
  8
0
 10
58
 20
24
 11
58
 21
28
  0
LINE
  8
0
 10
12
 20
24
 11
16
 21
24
  0
LINE
  8
0
 10
16
 20
24
 11
16
 21
28
  0
LINE
  8
0
 10
16
 20
28
 11
20
 21
28
  0
LINE
  8
0
 10
20
 20
28
 11
20
 21
24
  0
LINE
  8
0
 10
20
 20
24
 11
24
 21
24
  0
LINE
  8
0
 10
24
 20
24
 11
24
 21
28
  0
LINE
  8
0
 10
24
 20
28
 11
28
 21
28
  0
LINE
  8
0
 10
28
 20
28
 11
28
 21
24
  0
LINE
  8
0
 10
28
 20
24
 11
32
 21
24
  0
LINE
  8
0
 10
32
 20
24
 11
32
 21
28
  0
LINE
  8
0
 10
32
 20
28
 11
36
 21
28
  0
LINE
  8
0
 10
36
 20
28
 11
36
 21
24
  0
LINE
  8
0
 10
36
 20
24
 11
44
 21
24
  0
LINE
  8
0
 10
44
 20
24
 11
44
 21
28
  0
LINE
  8
0
 10
44
 20
28
 11
40
 21
28
  0
LINE
  8
0
 10
40
 20
28
 11
40
 21
32
  0
LINE
  8
0
 10
40
 20
32
 11
44
 21
32
  0
LINE
  8
0
 10
44
 20
32
 11
44
 21
36
  0
LINE
  8
0
 10
44
 20
36
 11
40
 21
36
  0
LINE
  8
0
 10
40
 20
36
 11
40
 21
40
  0
LINE
  8
0
 10
40
 20
40
 11
44
 21
40
  0
LINE
  8
0
 10
44
 20
40
 11
44
 21
44
  0
LINE
  8
0
 10
44
 20
44
 11
40
 21
44
  0
LINE
  8
0
 10
40
 20
44
 11
40
 21
48
  0
LINE
  8
0
 10
40
 20
48
 11
44
 21
48
  0
LINE
  8
0
 10
44
 20
48
 11
44
 21
52
  0
LINE
  8
0
 10
44
 20
52
 11
40
 21
52
  0
LINE
  8
0
 10
40
 20
52
 11
40
 21
56
  0
LINE
  8
0
 10
40
 20
56
 11
44
 21
56
  0
LINE
  8
0
 10
44
 20
56
 11
44
 21
60
  0
LINE
  8
0
 10
44
 20
60
 11
40
 21
60
  0
LINE
  8
0
 10
40
 20
60
 11
40
 21
64
  0
LINE
  8
0
 10
40
 20
64
 11
44
 21
64
  0
LINE
  8
0
 10
44
 20
64
 11
44
 21
72
  0
LINE
  8
0
 10
44
 20
72
 11
40
 21
72
  0
LINE
  8
0
 10
40
 20
72
 11
40
 21
68
  0
LINE
  8
0
 10
40
 20
68
 11
36
 21
68
  0
LINE
  8
0
 10
36
 20
68
 11
36
 21
72
  0
LINE
  8
0
 10
36
 20
72
 11
32
 21
72
  0
LINE
  8
0
 10
32
 20
72
 11
32
 21
68
  0
LINE
  8
0
 10
32
 20
68
 11
28
 21
68
  0
LINE
  8
0
 10
28
 20
68
 11
28
 21
72
  0
LINE
  8
0
 10
28
 20
72
 11
24
 21
72
  0
LINE
  8
0
 10
24
 20
72
 11
24
 21
68
  0
LINE
  8
0
 10
24
 20
68
 11
20
 21
68
  0
LINE
  8
0
 10
20
 20
68
 11
20
 21
72
  0
LINE
  8
0
 10
20
 20
72
 11
16
 21
72
  0
LINE
  8
0
 10
16
 20
72
 11
16
 21
68
  0
LINE
  8
0
 10
16
 20
68
 11
12
 21
68
  0
LINE
  8
0
 10
12
 20
68
 11
12
 21
72
  0
LINE
  8
0
 10
12
 20
72
 11
8
 21
72
  0
LINE
  8
0
 10
8
 20
72
 11
8
 21
68
  0
LINE
  8
0
 10
8
 20
68
 11
4
 21
68
  0
LINE
  8
0
 10
4
 20
68
 11
4
 21
72
  0
LINE
  8
0
 10
4
 20
72
 11
-4
 21
72
  0
LINE
  8
0
 10
-4
 20
72
 11
-4
 21
68
  0
LINE
  8
0
 10
-4
 20
68
 11
0
 21
68
  0
LINE
  8
0
 10
0
 20
68
 11
0
 21
64
  0
LINE
  8
0
 10
0
 20
64
 11
-4
 21
64
  0
LINE
  8
0
 10
-4
 20
64
 11
-4
 21
60
  0
LINE
  8
0
 10
-4
 20
60
 11
0
 21
60
  0
LINE
  8
0
 10
0
 20
60
 11
0
 21
56
  0
LINE
  8
0
 10
0
 20
56
 11
-4
 21
56
  0
LINE
  8
0
 10
-4
 20
56
 11
-4
 21
52
  0
LINE
  8
0
 10
-4
 20
52
 11
0
 21
52
  0
LINE
  8
0
 10
0
 20
52
 11
0
 21
48
  0
LINE
  8
0
 10
0
 20
48
 11
-4
 21
48
  0
LINE
  8
0
 10
-4
 20
48
 11
-4
 21
44
  0
LINE
  8
0
 10
-4
 20
44
 11
0
 21
44
  0
LINE
  8
0
 10
0
 20
44
 11
0
 21
40
  0
LINE
  8
0
 10
0
 20
40
 11
-4
 21
40
  0
LINE
  8
0
 10
-4
 20
40
 11
-4
 21
36
  0
LINE
  8
0
 10
-4
 20
36
 11
0
 21
36
  0
LINE
  8
0
 10
0
 20
36
 11
0
 21
32
  0
LINE
  8
0
 10
0
 20
32
 11
-4
 21
32
  0
LINE
  8
0
 10
-4
 20
32
 11
-4
 21
24
  0
LINE
  8
0
 10
-4
 20
24
 11
0
 21
24
  0
LINE
  8
0
 10
0
 20
24
 11
0
 21
28
  0
LINE
  8
0
 10
0
 20
28
 11
4
 21
28
  0
LINE
  8
0
 10
4
 20
28
 11
4
 21
24
  0
LINE
  8
0
 10
4
 20
24
 11
8
 21
24
  0
LINE
  8
0
 10
8
 20
24
 11
8
 21
28
  0
LINE
  8
0
 10
8
 20
28
 11
12
 21
28
  0
LINE
  8
0
 10
12
 20
28
 11
12
 21
24
  0
LINE
  8
0
 10
-41
 20
-14
 11
-37
 21
-14
  0
LINE
  8
0
 10
-37
 20
-14
 11
-37
 21
-18
  0
LINE
  8
0
 10
-37
 20
-18
 11
-33
 21
-18
  0
LINE
  8
0
 10
-33
 20
-18
 11
-33
 21
-14
  0
LINE
  8
0
 10
-33
 20
-14
 11
-29
 21
-14
  0
LINE
  8
0
 10
-29
 20
-14
 11
-29
 21
-18
  0
LINE
  8
0
 10
-29
 20
-18
 11
-25
 21
-18
  0
LINE
  8
0
 10
-25
 20
-18
 11
-25
 21
-14
  0
LINE
  8
0
 10
-25
 20
-14
 11
-21
 21
-14
  0
LINE
  8
0
 10
-21
 20
-14
 11
-21
 21
-18
  0
LINE
  8
0
 10
-21
 20
-18
 11
-17
 21
-18
  0
LINE
  8
0
 10
-17
 20
-18
 11
-17
 21
-14
  0
LINE
  8
0
 10
-17
 20
-14
 11
-13
 21
-14
  0
LINE
  8
0
 10
-13
 20
-14
 11
-13
 21
-18
  0
LINE
  8
0
 10
-13
 20
-18
 11
-9
 21
-18
  0
LINE
  8
0
 10
-9
 20
-18
 11
-9
 21
-10
  0
LINE
  8
0
 10
-9
 20
-10
 11
-5
 21
-10
  0
LINE
  8
0
 10
-5
 20
-10
 11
-5
 21
-6
  0
LINE
  8
0
 10
-5
 20
-6
 11
-9
 21
-6
  0
LINE
  8
0
 10
-9
 20
-6
 11
-9
 21
-2
  0
LINE
  8
0
 10
-9
 20
-2
 11
-5
 21
-2
  0
LINE
  8
0
 10
-5
 20
-2
 11
-5
 21
2
  0
LINE
  8
0
 10
-5
 20
2
 11
-9
 21
2
  0
LINE
  8
0
 10
-9
 20
2
 11
-9
 21
6
  0
LINE
  8
0
 10
-9
 20
6
 11
-5
 21
6
  0
LINE
  8
0
 10
-5
 20
6
 11
-5
 21
10
  0
LINE
  8
0
 10
-5
 20
10
 11
-9
 21
10
  0
LINE
  8
0
 10
-9
 20
10
 11
-9
 21
14
  0
LINE
  8
0
 10
-9
 20
14
 11
-5
 21
14
  0
LINE
  8
0
 10
-5
 20
14
 11
-5
 21
18
  0
LINE
  8
0
 10
-5
 20
18
 11
-9
 21
18
  0
LINE
  8
0
 10
-9
 20
18
 11
-9
 21
22
  0
LINE
  8
0
 10
-9
 20
22
 11
-5
 21
22
  0
LINE
  8
0
 10
-5
 20
22
 11
-5
 21
26
  0
LINE
  8
0
 10
-5
 20
26
 11
-9
 21
26
  0
LINE
  8
0
 10
-9
 20
26
 11
-9
 21
30
  0
LINE
  8
0
 10
-9
 20
30
 11
-5
 21
30
  0
LINE
  8
0
 10
-5
 20
30
 11
-5
 21
34
  0
LINE
  8
0
 10
-5
 20
34
 11
-13
 21
34
  0
LINE
  8
0
 10
-13
 20
34
 11
-13
 21
38
  0
LINE
  8
0
 10
-13
 20
38
 11
-17
 21
38
  0
LINE
  8
0
 10
-17
 20
38
 11
-17
 21
34
  0
LINE
  8
0
 10
-17
 20
34
 11
-21
 21
34
  0
LINE
  8
0
 10
-21
 20
34
 11
-21
 21
38
  0
LINE
  8
0
 10
-21
 20
38
 11
-25
 21
38
  0
LINE
  8
0
 10
-25
 20
38
 11
-25
 21
34
  0
LINE
  8
0
 10
-25
 20
34
 11
-29
 21
34
  0
LINE
  8
0
 10
-29
 20
34
 11
-29
 21
38
  0
LINE
  8
0
 10
-29
 20
38
 11
-33
 21
38
  0
LINE
  8
0
 10
-33
 20
38
 11
-33
 21
34
  0
LINE
  8
0
 10
-33
 20
34
 11
-37
 21
34
  0
LINE
  8
0
 10
-37
 20
34
 11
-37
 21
38
  0
LINE
  8
0
 10
-37
 20
38
 11
-41
 21
38
  0
LINE
  8
0
 10
-41
 20
38
 11
-41
 21
34
  0
LINE
  8
0
 10
-41
 20
34
 11
-45
 21
34
  0
LINE
  8
0
 10
-45
 20
34
 11
-45
 21
38
  0
LINE
  8
0
 10
-45
 20
38
 11
-49
 21
38
  0
LINE
  8
0
 10
-49
 20
38
 11
-49
 21
30
  0
LINE
  8
0
 10
-49
 20
30
 11
-53
 21
30
  0
LINE
  8
0
 10
-53
 20
30
 11
-53
 21
26
  0
LINE
  8
0
 10
-53
 20
26
 11
-49
 21
26
  0
LINE
  8
0
 10
-49
 20
26
 11
-49
 21
22
  0
LINE
  8
0
 10
-49
 20
22
 11
-53
 21
22
  0
LINE
  8
0
 10
-53
 20
22
 11
-53
 21
18
  0
LINE
  8
0
 10
-53
 20
18
 11
-49
 21
18
  0
LINE
  8
0
 10
-49
 20
18
 11
-49
 21
14
  0
LINE
  8
0
 10
-49
 20
14
 11
-53
 21
14
  0
LINE
  8
0
 10
-53
 20
14
 11
-53
 21
10
  0
LINE
  8
0
 10
-53
 20
10
 11
-49
 21
10
  0
LINE
  8
0
 10
-49
 20
10
 11
-49
 21
6
  0
LINE
  8
0
 10
-49
 20
6
 11
-53
 21
6
  0
LINE
  8
0
 10
-53
 20
6
 11
-53
 21
2
  0
LINE
  8
0
 10
-53
 20
2
 11
-49
 21
2
  0
LINE
  8
0
 10
-49
 20
2
 11
-49
 21
-2
  0
LINE
  8
0
 10
-49
 20
-2
 11
-53
 21
-2
  0
LINE
  8
0
 10
-53
 20
-2
 11
-53
 21
-6
  0
LINE
  8
0
 10
-53
 20
-6
 11
-49
 21
-6
  0
LINE
  8
0
 10
-49
 20
-6
 11
-49
 21
-10
  0
LINE
  8
0
 10
-49
 20
-10
 11
-53
 21
-10
  0
LINE
  8
0
 10
-53
 20
-10
 11
-53
 21
-14
  0
LINE
  8
0
 10
-53
 20
-14
 11
-45
 21
-14
  0
LINE
  8
0
 10
-45
 20
-14
 11
-45
 21
-18
  0
LINE
  8
0
 10
-45
 20
-18
 11
-41
 21
-18
  0
LINE
  8
0
 10
-41
 20
-18
 11
-41
 21
-14
  0
LINE
  8
0
 10
58
 20
-30
 11
62
 21
-30
  0
LINE
  8
0
 10
62
 20
-30
 11
62
 21
-34
  0
LINE
  8
0
 10
62
 20
-34
 11
66
 21
-34
  0
LINE
  8
0
 10
66
 20
-34
 11
66
 21
-30
  0
LINE
  8
0
 10
66
 20
-30
 11
70
 21
-30
  0
LINE
  8
0
 10
70
 20
-30
 11
70
 21
-34
  0
LINE
  8
0
 10
70
 20
-34
 11
74
 21
-34
  0
LINE
  8
0
 10
74
 20
-34
 11
74
 21
-30
  0
LINE
  8
0
 10
74
 20
-30
 11
78
 21
-30
  0
LINE
  8
0
 10
78
 20
-30
 11
78
 21
-34
  0
LINE
  8
0
 10
78
 20
-34
 11
82
 21
-34
  0
LINE
  8
0
 10
82
 20
-34
 11
82
 21
-30
  0
LINE
  8
0
 10
82
 20
-30
 11
86
 21
-30
  0
LINE
  8
0
 10
86
 20
-30
 11
86
 21
-34
  0
LINE
  8
0
 10
86
 20
-34
 11
90
 21
-34
  0
LINE
  8
0
 10
90
 20
-34
 11
90
 21
-26
  0
LINE
  8
0
 10
90
 20
-26
 11
94
 21
-26
  0
LINE
  8
0
 10
94
 20
-26
 11
94
 21
-22
  0
LINE
  8
0
 10
94
 20
-22
 11
90
 21
-22
  0
LINE
  8
0
 10
90
 20
-22
 11
90
 21
-18
  0
LINE
  8
0
 10
90
 20
-18
 11
94
 21
-18
  0
LINE
  8
0
 10
94
 20
-18
 11
94
 21
-14
  0
LINE
  8
0
 10
94
 20
-14
 11
90
 21
-14
  0
LINE
  8
0
 10
90
 20
-14
 11
90
 21
-10
  0
LINE
  8
0
 10
90
 20
-10
 11
94
 21
-10
  0
LINE
  8
0
 10
94
 20
-10
 11
94
 21
-6
  0
LINE
  8
0
 10
94
 20
-6
 11
90
 21
-6
  0
LINE
  8
0
 10
90
 20
-6
 11
90
 21
-2
  0
LINE
  8
0
 10
90
 20
-2
 11
94
 21
-2
  0
LINE
  8
0
 10
94
 20
-2
 11
94
 21
2
  0
LINE
  8
0
 10
94
 20
2
 11
90
 21
2
  0
LINE
  8
0
 10
90
 20
2
 11
90
 21
6
  0
LINE
  8
0
 10
90
 20
6
 11
94
 21
6
  0
LINE
  8
0
 10
94
 20
6
 11
94
 21
10
  0
LINE
  8
0
 10
94
 20
10
 11
90
 21
10
  0
LINE
  8
0
 10
90
 20
10
 11
90
 21
14
  0
LINE
  8
0
 10
90
 20
14
 11
94
 21
14
  0
LINE
  8
0
 10
94
 20
14
 11
94
 21
18
  0
LINE
  8
0
 10
94
 20
18
 11
86
 21
18
  0
LINE
  8
0
 10
86
 20
18
 11
86
 21
22
  0
LINE
  8
0
 10
86
 20
22
 11
82
 21
22
  0
LINE
  8
0
 10
82
 20
22
 11
82
 21
18
  0
LINE
  8
0
 10
82
 20
18
 11
78
 21
18
  0
LINE
  8
0
 10
78
 20
18
 11
78
 21
22
  0
LINE
  8
0
 10
78
 20
22
 11
74
 21
22
  0
LINE
  8
0
 10
74
 20
22
 11
74
 21
18
  0
LINE
  8
0
 10
74
 20
18
 11
70
 21
18
  0
LINE
  8
0
 10
70
 20
18
 11
70
 21
22
  0
LINE
  8
0
 10
70
 20
22
 11
66
 21
22
  0
LINE
  8
0
 10
66
 20
22
 11
66
 21
18
  0
LINE
  8
0
 10
66
 20
18
 11
62
 21
18
  0
LINE
  8
0
 10
62
 20
18
 11
62
 21
22
  0
LINE
  8
0
 10
62
 20
22
 11
58
 21
22
  0
LINE
  8
0
 10
58
 20
22
 11
58
 21
18
  0
LINE
  8
0
 10
58
 20
18
 11
54
 21
18
  0
LINE
  8
0
 10
54
 20
18
 11
54
 21
22
  0
LINE
  8
0
 10
54
 20
22
 11
50
 21
22
  0
LINE
  8
0
 10
50
 20
22
 11
50
 21
14
  0
LINE
  8
0
 10
50
 20
14
 11
46
 21
14
  0
LINE
  8
0
 10
46
 20
14
 11
46
 21
10
  0
LINE
  8
0
 10
46
 20
10
 11
50
 21
10
  0
LINE
  8
0
 10
50
 20
10
 11
50
 21
6
  0
LINE
  8
0
 10
50
 20
6
 11
46
 21
6
  0
LINE
  8
0
 10
46
 20
6
 11
46
 21
2
  0
LINE
  8
0
 10
46
 20
2
 11
50
 21
2
  0
LINE
  8
0
 10
50
 20
2
 11
50
 21
-2
  0
LINE
  8
0
 10
50
 20
-2
 11
46
 21
-2
  0
LINE
  8
0
 10
46
 20
-2
 11
46
 21
-6
  0
LINE
  8
0
 10
46
 20
-6
 11
50
 21
-6
  0
LINE
  8
0
 10
50
 20
-6
 11
50
 21
-10
  0
LINE
  8
0
 10
50
 20
-10
 11
46
 21
-10
  0
LINE
  8
0
 10
46
 20
-10
 11
46
 21
-14
  0
LINE
  8
0
 10
46
 20
-14
 11
50
 21
-14
  0
LINE
  8
0
 10
50
 20
-14
 11
50
 21
-18
  0
LINE
  8
0
 10
50
 20
-18
 11
46
 21
-18
  0
LINE
  8
0
 10
46
 20
-18
 11
46
 21
-22
  0
LINE
  8
0
 10
46
 20
-22
 11
50
 21
-22
  0
LINE
  8
0
 10
50
 20
-22
 11
50
 21
-26
  0
LINE
  8
0
 10
50
 20
-26
 11
46
 21
-26
  0
LINE
  8
0
 10
46
 20
-26
 11
46
 21
-30
  0
LINE
  8
0
 10
46
 20
-30
 11
54
 21
-30
  0
LINE
  8
0
 10
54
 20
-30
 11
54
 21
-34
  0
LINE
  8
0
 10
54
 20
-34
 11
58
 21
-34
  0
LINE
  8
0
 10
58
 20
-34
 11
58
 21
-30
  0
LINE
  8
0
 10
12
 20
-30
 11
16
 21
-30
  0
LINE
  8
0
 10
16
 20
-30
 11
16
 21
-26
  0
LINE
  8
0
 10
16
 20
-26
 11
20
 21
-26
  0
LINE
  8
0
 10
20
 20
-26
 11
20
 21
-30
  0
LINE
  8
0
 10
20
 20
-30
 11
24
 21
-30
  0
LINE
  8
0
 10
24
 20
-30
 11
24
 21
-26
  0
LINE
  8
0
 10
24
 20
-26
 11
28
 21
-26
  0
LINE
  8
0
 10
28
 20
-26
 11
28
 21
-30
  0
LINE
  8
0
 10
28
 20
-30
 11
32
 21
-30
  0
LINE
  8
0
 10
32
 20
-30
 11
32
 21
-26
  0
LINE
  8
0
 10
32
 20
-26
 11
36
 21
-26
  0
LINE
  8
0
 10
36
 20
-26
 11
36
 21
-30
  0
LINE
  8
0
 10
36
 20
-30
 11
44
 21
-30
  0
LINE
  8
0
 10
44
 20
-30
 11
44
 21
-26
  0
LINE
  8
0
 10
44
 20
-26
 11
40
 21
-26
  0
LINE
  8
0
 10
40
 20
-26
 11
40
 21
-22
  0
LINE
  8
0
 10
40
 20
-22
 11
44
 21
-22
  0
LINE
  8
0
 10
44
 20
-22
 11
44
 21
-18
  0
LINE
  8
0
 10
44
 20
-18
 11
40
 21
-18
  0
LINE
  8
0
 10
40
 20
-18
 11
40
 21
-14
  0
LINE
  8
0
 10
40
 20
-14
 11
44
 21
-14
  0
LINE
  8
0
 10
44
 20
-14
 11
44
 21
-10
  0
LINE
  8
0
 10
44
 20
-10
 11
40
 21
-10
  0
LINE
  8
0
 10
40
 20
-10
 11
40
 21
-6
  0
LINE
  8
0
 10
40
 20
-6
 11
44
 21
-6
  0
LINE
  8
0
 10
44
 20
-6
 11
44
 21
-2
  0
LINE
  8
0
 10
44
 20
-2
 11
40
 21
-2
  0
LINE
  8
0
 10
40
 20
-2
 11
40
 21
2
  0
LINE
  8
0
 10
40
 20
2
 11
44
 21
2
  0
LINE
  8
0
 10
44
 20
2
 11
44
 21
6
  0
LINE
  8
0
 10
44
 20
6
 11
40
 21
6
  0
LINE
  8
0
 10
40
 20
6
 11
40
 21
10
  0
LINE
  8
0
 10
40
 20
10
 11
44
 21
10
  0
LINE
  8
0
 10
44
 20
10
 11
44
 21
18
  0
LINE
  8
0
 10
44
 20
18
 11
40
 21
18
  0
LINE
  8
0
 10
40
 20
18
 11
40
 21
14
  0
LINE
  8
0
 10
40
 20
14
 11
36
 21
14
  0
LINE
  8
0
 10
36
 20
14
 11
36
 21
18
  0
LINE
  8
0
 10
36
 20
18
 11
32
 21
18
  0
LINE
  8
0
 10
32
 20
18
 11
32
 21
14
  0
LINE
  8
0
 10
32
 20
14
 11
28
 21
14
  0
LINE
  8
0
 10
28
 20
14
 11
28
 21
18
  0
LINE
  8
0
 10
28
 20
18
 11
24
 21
18
  0
LINE
  8
0
 10
24
 20
18
 11
24
 21
14
  0
LINE
  8
0
 10
24
 20
14
 11
20
 21
14
  0
LINE
  8
0
 10
20
 20
14
 11
20
 21
18
  0
LINE
  8
0
 10
20
 20
18
 11
16
 21
18
  0
LINE
  8
0
 10
16
 20
18
 11
16
 21
14
  0
LINE
  8
0
 10
16
 20
14
 11
12
 21
14
  0
LINE
  8
0
 10
12
 20
14
 11
12
 21
18
  0
LINE
  8
0
 10
12
 20
18
 11
8
 21
18
  0
LINE
  8
0
 10
8
 20
18
 11
8
 21
14
  0
LINE
  8
0
 10
8
 20
14
 11
4
 21
14
  0
LINE
  8
0
 10
4
 20
14
 11
4
 21
18
  0
LINE
  8
0
 10
4
 20
18
 11
-4
 21
18
  0
LINE
  8
0
 10
-4
 20
18
 11
-4
 21
14
  0
LINE
  8
0
 10
-4
 20
14
 11
0
 21
14
  0
LINE
  8
0
 10
0
 20
14
 11
0
 21
10
  0
LINE
  8
0
 10
0
 20
10
 11
-4
 21
10
  0
LINE
  8
0
 10
-4
 20
10
 11
-4
 21
6
  0
LINE
  8
0
 10
-4
 20
6
 11
0
 21
6
  0
LINE
  8
0
 10
0
 20
6
 11
0
 21
2
  0
LINE
  8
0
 10
0
 20
2
 11
-4
 21
2
  0
LINE
  8
0
 10
-4
 20
2
 11
-4
 21
-2
  0
LINE
  8
0
 10
-4
 20
-2
 11
0
 21
-2
  0
LINE
  8
0
 10
0
 20
-2
 11
0
 21
-6
  0
LINE
  8
0
 10
0
 20
-6
 11
-4
 21
-6
  0
LINE
  8
0
 10
-4
 20
-6
 11
-4
 21
-10
  0
LINE
  8
0
 10
-4
 20
-10
 11
0
 21
-10
  0
LINE
  8
0
 10
0
 20
-10
 11
0
 21
-14
  0
LINE
  8
0
 10
0
 20
-14
 11
-4
 21
-14
  0
LINE
  8
0
 10
-4
 20
-14
 11
-4
 21
-18
  0
LINE
  8
0
 10
-4
 20
-18
 11
0
 21
-18
  0
LINE
  8
0
 10
0
 20
-18
 11
0
 21
-22
  0
LINE
  8
0
 10
0
 20
-22
 11
-4
 21
-22
  0
LINE
  8
0
 10
-4
 20
-22
 11
-4
 21
-30
  0
LINE
  8
0
 10
-4
 20
-30
 11
0
 21
-30
  0
LINE
  8
0
 10
0
 20
-30
 11
0
 21
-26
  0
LINE
  8
0
 10
0
 20
-26
 11
4
 21
-26
  0
LINE
  8
0
 10
4
 20
-26
 11
4
 21
-30
  0
LINE
  8
0
 10
4
 20
-30
 11
8
 21
-30
  0
LINE
  8
0
 10
8
 20
-30
 11
8
 21
-26
  0
LINE
  8
0
 10
8
 20
-26
 11
12
 21
-26
  0
LINE
  8
0
 10
12
 20
-26
 11
12
 21
-30
  0
ENDSEC
  0
SECTION
  2
OBJECTS
  0
DICTIONARY
  0
ENDSEC
  0
EOF
