  0
SECTION
  2
HEADER
  9
$ACADVER
  1
AC1014
  9
$HANDSEED
  5
FFFF
  9
$MEASUREMENT
 70
     1
  0
ENDSEC
  0
SECTION
  2
TABLES
  0
TABLE
  2
VPORT
  5
8
330
0
100
AcDbSymbolTable
 70
     4
  0
VPORT
  5
2E
330
8
100
AcDbSymbolTableRecord
100
AcDbViewportTableRecord
  2
*ACTIVE
 70
     0
 10
0.0
 20
0.0
 11
1.0
 21
1.0
 12
210.0
 22
148.5
 13
0.0
 23
0.0
 14
10.0
 24
10.0
 15
10.0
 25
10.0
 16
0.0
 26
0.0
 36
1.0
 17
0.0
 27
0.0
 37
0.0
 40
341.0
 41
1.24
 42
50.0
 43
0.0
 44
0.0
 50
0.0
 51
0.0
 71
     0
 72
   100
 73
     1
 74
     3
 75
     0
 76
     0
 77
     0
 78
     0
  0
ENDTAB
  0
TABLE
  2
LTYPE
  5
5
330
0
100
AcDbSymbolTable
 70
     1
  0
LTYPE
  5
14
330
5
100
AcDbSymbolTableRecord
100
AcDbLinetypeTableRecord
  2
BYBLOCK
 70
     0
  3

 72
    65
 73
     0
 40
0.0
  0
LTYPE
  5
15
330
5
100
AcDbSymbolTableRecord
100
AcDbLinetypeTableRecord
  2
BYLAYER
 70
     0
  3

 72
    65
 73
     0
 40
0.0
  0
LTYPE
  5
16
330
5
100
AcDbSymbolTableRecord
100
AcDbLinetypeTableRecord
  2
CONTINUOUS
 70
     0
  3
Solid line
 72
    65
 73
     0
 40
0.0
  0
ENDTAB
  0
TABLE
  2
LAYER
  5
2
100
AcDbSymbolTable
 70
1
  0
LAYER
  5
50
100
AcDbSymbolTableRecord
100
AcDbLayerTableRecord
  2
0
 70
0
  6
CONTINUOUS
  0
ENDTAB
  0
TABLE
  2
STYLE
  5
3
330
0
100
AcDbSymbolTable
 70
     1
  0
STYLE
  5
11
330
3
100
AcDbSymbolTableRecord
100
AcDbTextStyleTableRecord
  2
STANDARD
 70
     0
 40
0.0
 41
1.0
 50
0.0
 71
     0
 42
2.5
  3
txt
  4

  0
ENDTAB
  0
TABLE
  2
VIEW
  5
6
330
0
100
AcDbSymbolTable
 70
     0
  0
ENDTAB
  0
TABLE
  2
UCS
  5
7
330
0
100
AcDbSymbolTable
 70
     0
  0
ENDTAB
  0
TABLE
  2
APPID
  5
9
330
0
100
AcDbSymbolTable
 70
     2
  0
APPID
  5
12
330
9
100
AcDbSymbolTableRecord
100
AcDbRegAppTableRecord
  2
ACAD
 70
     0
  0
ENDTAB
  0
TABLE
  2
DIMSTYLE
  5
A
330
0
100
AcDbSymbolTable
 70
     1
  0
DIMSTYLE
105
27
330
A
100
AcDbSymbolTableRecord
100
AcDbDimStyleTableRecord
  2
ISO-25
 70
     0
  3

  4

  5

  6

  7

 40
1.0
 41
2.5
 42
0.625
 43
3.75
 44
1.25
 45
0.0
 46
0.0
 47
0.0
 48
0.0
140
2.5
141
2.5
142
0.0
143
0.03937007874016
144
1.0
145
0.0
146
1.0
147
0.625
 71
     0
 72
     0
 73
     0
 74
     0
 75
     0
 76
     0
 77
     1
 78
     8
170
     0
171
     3
172
     1
173
     0
174
     0
175
     0
176
     0
177
     0
178
     0
270
     2
271
     2
272
     2
273
     2
274
     3
340
11
275
     0
280
     0
281
     0
282
     0
283
     0
284
     8
285
     0
286
     0
287
     3
288
     0
  0
ENDTAB
  0
TABLE
  2
BLOCK_RECORD
  5
1
330
0
100
AcDbSymbolTable
 70
     1
  0
BLOCK_RECORD
  5
1F
330
1
100
AcDbSymbolTableRecord
100
AcDbBlockTableRecord
  2
*MODEL_SPACE
  0
BLOCK_RECORD
  5
1B
330
1
100
AcDbSymbolTableRecord
100
AcDbBlockTableRecord
  2
*PAPER_SPACE
  0
ENDTAB
  0
ENDSEC
  0
SECTION
  2
BLOCKS
  0
BLOCK
  5
20
330
1F
100
AcDbEntity
  8
0
100
AcDbBlockBegin
  2
*MODEL_SPACE
 70
     0
 10
0.0
 20
0.0
 30
0.0
  3
*MODEL_SPACE
  1

  0
ENDBLK
  5
21
330
1F
100
AcDbEntity
  8
0
100
AcDbBlockEnd
  0
BLOCK
  5
1C
330
1B
100
AcDbEntity
 67
     1
  8
0
100
AcDbBlockBegin
  2
*PAPER_SPACE
  1

  0
ENDBLK
  5
1D
330
1B
100
AcDbEntity
 67
     1
  8
0
100
AcDbBlockEnd
  0
ENDSEC
  0
SECTION
  2
ENTITIES
  0
LWPOLYLINE
  5
100
100
AcDbEntity
  8
0
 62
7
100
AcDbPolyline
 90
85
 70
0
 10
0.400000
 20
11.738568
 30
0.0
 10
0.400000
 20
23.077128
 30
0.0
 10
11.738584
 20
23.077128
 30
0.0
 10
11.738584
 20
34.415768
 30
0.0
 10
0.400000
 20
34.415768
 30
0.0
 10
0.400000
 20
45.754328
 30
0.0
 10
11.738584
 20
45.754328
 30
0.0
 10
11.738584
 20
57.092888
 30
0.0
 10
0.400000
 20
57.092888
 30
0.0
 10
0.400000
 20
68.431448
 30
0.0
 10
11.738584
 20
68.431448
 30
0.0
 10
11.738584
 20
79.770088
 30
0.0
 10
0.400000
 20
79.770088
 30
0.0
 10
0.400000
 20
91.108648
 30
0.0
 10
11.738584
 20
91.108648
 30
0.0
 10
11.738584
 20
102.447208
 30
0.0
 10
0.400000
 20
102.447208
 30
0.0
 10
0.400000
 20
113.785848
 30
0.0
 10
11.738584
 20
113.785848
 30
0.0
 10
11.738584
 20
125.124408
 30
0.0
 10
0.400000
 20
125.124408
 30
0.0
 10
0.400000
 20
136.462968
 30
0.0
 10
11.738584
 20
136.462968
 30
0.0
 10
11.738584
 20
147.801528
 30
0.0
 10
0.400000
 20
147.801528
 30
0.0
 10
0.400000
 20
159.140168
 30
0.0
 10
11.738584
 20
159.140168
 30
0.0
 10
11.738584
 20
181.817304
 30
0.0
 10
23.077168
 20
181.817304
 30
0.0
 10
23.077168
 20
170.478728
 30
0.0
 10
34.415752
 20
170.478728
 30
0.0
 10
34.415752
 20
181.817304
 30
0.0
 10
45.754336
 20
181.817304
 30
0.0
 10
45.754336
 20
170.478728
 30
0.0
 10
57.092917
 20
170.478728
 30
0.0
 10
57.092917
 20
181.817304
 30
0.0
 10
68.431499
 20
181.817304
 30
0.0
 10
68.431499
 20
170.478728
 30
0.0
 10
79.770082
 20
170.478728
 30
0.0
 10
79.770082
 20
181.817304
 30
0.0
 10
91.108665
 20
181.817304
 30
0.0
 10
91.108665
 20
170.478728
 30
0.0
 10
113.785830
 20
170.478728
 30
0.0
 10
113.785830
 20
159.140168
 30
0.0
 10
102.447247
 20
159.140168
 30
0.0
 10
102.447247
 20
147.801528
 30
0.0
 10
113.785830
 20
147.801528
 30
0.0
 10
113.785830
 20
136.462968
 30
0.0
 10
102.447247
 20
136.462968
 30
0.0
 10
102.447247
 20
125.124408
 30
0.0
 10
113.785830
 20
125.124408
 30
0.0
 10
113.785830
 20
113.785848
 30
0.0
 10
102.447247
 20
113.785848
 30
0.0
 10
102.447247
 20
102.447208
 30
0.0
 10
113.785830
 20
102.447208
 30
0.0
 10
113.785830
 20
91.108648
 30
0.0
 10
102.447247
 20
91.108648
 30
0.0
 10
102.447247
 20
79.770088
 30
0.0
 10
113.785830
 20
79.770088
 30
0.0
 10
113.785830
 20
68.431448
 30
0.0
 10
102.447247
 20
68.431448
 30
0.0
 10
102.447247
 20
57.092888
 30
0.0
 10
113.785830
 20
57.092888
 30
0.0
 10
113.785830
 20
45.754328
 30
0.0
 10
102.447247
 20
45.754328
 30
0.0
 10
102.447247
 20
34.415768
 30
0.0
 10
113.785830
 20
34.415768
 30
0.0
 10
113.785830
 20
23.077128
 30
0.0
 10
102.447247
 20
23.077128
 30
0.0
 10
102.447247
 20
0.400008
 30
0.0
 10
91.108665
 20
0.400008
 30
0.0
 10
91.108665
 20
11.738568
 30
0.0
 10
79.770082
 20
11.738568
 30
0.0
 10
79.770082
 20
0.400008
 30
0.0
 10
68.431499
 20
0.400008
 30
0.0
 10
68.431499
 20
11.738568
 30
0.0
 10
57.092917
 20
11.738568
 30
0.0
 10
57.092917
 20
0.400008
 30
0.0
 10
45.754336
 20
0.400008
 30
0.0
 10
45.754336
 20
11.738568
 30
0.0
 10
34.415752
 20
11.738568
 30
0.0
 10
34.415752
 20
0.400008
 30
0.0
 10
23.077168
 20
0.400008
 30
0.0
 10
23.077168
 20
11.738568
 30
0.0
 10
0.400000
 20
11.738568
 30
0.0
  0
LWPOLYLINE
  5
101
100
AcDbEntity
  8
0
 62
7
100
AcDbPolyline
 90
85
 70
0
 10
0.400000
 20
215.833056
 30
0.0
 10
0.400000
 20
227.171640
 30
0.0
 10
11.738584
 20
227.171640
 30
0.0
 10
11.738584
 20
238.510216
 30
0.0
 10
0.400000
 20
238.510216
 30
0.0
 10
0.400000
 20
249.848800
 30
0.0
 10
11.738584
 20
249.848800
 30
0.0
 10
11.738584
 20
261.187384
 30
0.0
 10
0.400000
 20
261.187384
 30
0.0
 10
0.400000
 20
272.525968
 30
0.0
 10
11.738584
 20
272.525968
 30
0.0
 10
11.738584
 20
283.864552
 30
0.0
 10
0.400000
 20
283.864552
 30
0.0
 10
0.400000
 20
295.203136
 30
0.0
 10
11.738584
 20
295.203136
 30
0.0
 10
11.738584
 20
306.541720
 30
0.0
 10
0.400000
 20
306.541720
 30
0.0
 10
0.400000
 20
317.880296
 30
0.0
 10
11.738584
 20
317.880296
 30
0.0
 10
11.738584
 20
329.218880
 30
0.0
 10
0.400000
 20
329.218880
 30
0.0
 10
0.400000
 20
340.557464
 30
0.0
 10
11.738584
 20
340.557464
 30
0.0
 10
11.738584
 20
351.896048
 30
0.0
 10
0.400000
 20
351.896048
 30
0.0
 10
0.400000
 20
363.234632
 30
0.0
 10
11.738584
 20
363.234632
 30
0.0
 10
11.738584
 20
385.911792
 30
0.0
 10
23.077168
 20
385.911792
 30
0.0
 10
23.077168
 20
374.573216
 30
0.0
 10
34.415752
 20
374.573216
 30
0.0
 10
34.415752
 20
385.911792
 30
0.0
 10
45.754336
 20
385.911792
 30
0.0
 10
45.754336
 20
374.573216
 30
0.0
 10
57.092917
 20
374.573216
 30
0.0
 10
57.092917
 20
385.911792
 30
0.0
 10
68.431499
 20
385.911792
 30
0.0
 10
68.431499
 20
374.573216
 30
0.0
 10
79.770082
 20
374.573216
 30
0.0
 10
79.770082
 20
385.911792
 30
0.0
 10
91.108665
 20
385.911792
 30
0.0
 10
91.108665
 20
374.573216
 30
0.0
 10
113.785830
 20
374.573216
 30
0.0
 10
113.785830
 20
363.234632
 30
0.0
 10
102.447247
 20
363.234632
 30
0.0
 10
102.447247
 20
351.896048
 30
0.0
 10
113.785830
 20
351.896048
 30
0.0
 10
113.785830
 20
340.557464
 30
0.0
 10
102.447247
 20
340.557464
 30
0.0
 10
102.447247
 20
329.218880
 30
0.0
 10
113.785830
 20
329.218880
 30
0.0
 10
113.785830
 20
317.880296
 30
0.0
 10
102.447247
 20
317.880296
 30
0.0
 10
102.447247
 20
306.541720
 30
0.0
 10
113.785830
 20
306.541720
 30
0.0
 10
113.785830
 20
295.203136
 30
0.0
 10
102.447247
 20
295.203136
 30
0.0
 10
102.447247
 20
283.864552
 30
0.0
 10
113.785830
 20
283.864552
 30
0.0
 10
113.785830
 20
272.525968
 30
0.0
 10
102.447247
 20
272.525968
 30
0.0
 10
102.447247
 20
261.187384
 30
0.0
 10
113.785830
 20
261.187384
 30
0.0
 10
113.785830
 20
249.848800
 30
0.0
 10
102.447247
 20
249.848800
 30
0.0
 10
102.447247
 20
238.510216
 30
0.0
 10
113.785830
 20
238.510216
 30
0.0
 10
113.785830
 20
227.171640
 30
0.0
 10
102.447247
 20
227.171640
 30
0.0
 10
102.447247
 20
204.494472
 30
0.0
 10
91.108665
 20
204.494472
 30
0.0
 10
91.108665
 20
215.833056
 30
0.0
 10
79.770082
 20
215.833056
 30
0.0
 10
79.770082
 20
204.494472
 30
0.0
 10
68.431499
 20
204.494472
 30
0.0
 10
68.431499
 20
215.833056
 30
0.0
 10
57.092917
 20
215.833056
 30
0.0
 10
57.092917
 20
204.494472
 30
0.0
 10
45.754336
 20
204.494472
 30
0.0
 10
45.754336
 20
215.833056
 30
0.0
 10
34.415752
 20
215.833056
 30
0.0
 10
34.415752
 20
204.494472
 30
0.0
 10
23.077168
 20
204.494472
 30
0.0
 10
23.077168
 20
215.833056
 30
0.0
 10
0.400000
 20
215.833056
 30
0.0
  0
LWPOLYLINE
  5
102
100
AcDbEntity
  8
0
 62
7
100
AcDbPolyline
 90
157
 70
0
 10
119.455122
 20
11.738568
 30
0.0
 10
119.455122
 20
34.415768
 30
0.0
 10
130.793704
 20
34.415768
 30
0.0
 10
130.793704
 20
45.754328
 30
0.0
 10
119.455122
 20
45.754328
 30
0.0
 10
119.455122
 20
57.092888
 30
0.0
 10
130.793704
 20
57.092888
 30
0.0
 10
130.793704
 20
68.431448
 30
0.0
 10
119.455122
 20
68.431448
 30
0.0
 10
119.455122
 20
79.770088
 30
0.0
 10
130.793704
 20
79.770088
 30
0.0
 10
130.793704
 20
91.108648
 30
0.0
 10
119.455122
 20
91.108648
 30
0.0
 10
119.455122
 20
102.447208
 30
0.0
 10
130.793704
 20
102.447208
 30
0.0
 10
130.793704
 20
113.785848
 30
0.0
 10
119.455122
 20
113.785848
 30
0.0
 10
119.455122
 20
125.124408
 30
0.0
 10
130.793704
 20
125.124408
 30
0.0
 10
130.793704
 20
136.462968
 30
0.0
 10
119.455122
 20
136.462968
 30
0.0
 10
119.455122
 20
147.801528
 30
0.0
 10
130.793704
 20
147.801528
 30
0.0
 10
130.793704
 20
159.140168
 30
0.0
 10
119.455122
 20
159.140168
 30
0.0
 10
119.455122
 20
170.478728
 30
0.0
 10
130.793704
 20
170.478728
 30
0.0
 10
130.793704
 20
181.817304
 30
0.0
 10
119.455122
 20
181.817304
 30
0.0
 10
119.455122
 20
193.155888
 30
0.0
 10
142.132286
 20
193.155888
 30
0.0
 10
142.132286
 20
181.817304
 30
0.0
 10
153.470870
 20
181.817304
 30
0.0
 10
153.470870
 20
193.155888
 30
0.0
 10
164.809452
 20
193.155888
 30
0.0
 10
164.809452
 20
181.817304
 30
0.0
 10
176.148034
 20
181.817304
 30
0.0
 10
176.148034
 20
193.155888
 30
0.0
 10
187.486618
 20
193.155888
 30
0.0
 10
187.486618
 20
181.817304
 30
0.0
 10
198.825200
 20
181.817304
 30
0.0
 10
198.825200
 20
193.155888
 30
0.0
 10
210.163782
 20
193.155888
 30
0.0
 10
210.163782
 20
181.817304
 30
0.0
 10
221.502368
 20
181.817304
 30
0.0
 10
221.502368
 20
193.155888
 30
0.0
 10
232.840952
 20
193.155888
 30
0.0
 10
232.840952
 20
181.817304
 30
0.0
 10
244.179528
 20
181.817304
 30
0.0
 10
244.179528
 20
193.155888
 30
0.0
 10
255.518112
 20
193.155888
 30
0.0
 10
255.518112
 20
181.817304
 30
0.0
 10
266.856696
 20
181.817304
 30
0.0
 10
266.856696
 20
193.155888
 30
0.0
 10
278.195280
 20
193.155888
 30
0.0
 10
278.195280
 20
181.817304
 30
0.0
 10
289.533864
 20
181.817304
 30
0.0
 10
289.533864
 20
193.155888
 30
0.0
 10
300.872440
 20
193.155888
 30
0.0
 10
300.872440
 20
181.817304
 30
0.0
 10
312.211024
 20
181.817304
 30
0.0
 10
312.211024
 20
193.155888
 30
0.0
 10
323.549608
 20
193.155888
 30
0.0
 10
323.549608
 20
181.817304
 30
0.0
 10
334.888192
 20
181.817304
 30
0.0
 10
334.888192
 20
193.155888
 30
0.0
 10
346.226776
 20
193.155888
 30
0.0
 10
346.226776
 20
181.817304
 30
0.0
 10
357.565360
 20
181.817304
 30
0.0
 10
357.565360
 20
193.155888
 30
0.0
 10
368.903936
 20
193.155888
 30
0.0
 10
368.903936
 20
181.817304
 30
0.0
 10
380.242520
 20
181.817304
 30
0.0
 10
380.242520
 20
193.155888
 30
0.0
 10
391.581104
 20
193.155888
 30
0.0
 10
391.581104
 20
181.817304
 30
0.0
 10
402.919688
 20
181.817304
 30
0.0
 10
402.919688
 20
193.155888
 30
0.0
 10
414.258272
 20
193.155888
 30
0.0
 10
414.258272
 20
170.478728
 30
0.0
 10
402.919688
 20
170.478728
 30
0.0
 10
402.919688
 20
159.140168
 30
0.0
 10
414.258272
 20
159.140168
 30
0.0
 10
414.258272
 20
147.801528
 30
0.0
 10
402.919688
 20
147.801528
 30
0.0
 10
402.919688
 20
136.462968
 30
0.0
 10
414.258272
 20
136.462968
 30
0.0
 10
414.258272
 20
125.124408
 30
0.0
 10
402.919688
 20
125.124408
 30
0.0
 10
402.919688
 20
113.785848
 30
0.0
 10
414.258272
 20
113.785848
 30
0.0
 10
414.258272
 20
102.447208
 30
0.0
 10
402.919688
 20
102.447208
 30
0.0
 10
402.919688
 20
91.108648
 30
0.0
 10
414.258272
 20
91.108648
 30
0.0
 10
414.258272
 20
79.770088
 30
0.0
 10
402.919688
 20
79.770088
 30
0.0
 10
402.919688
 20
68.431448
 30
0.0
 10
414.258272
 20
68.431448
 30
0.0
 10
414.258272
 20
57.092888
 30
0.0
 10
402.919688
 20
57.092888
 30
0.0
 10
402.919688
 20
45.754328
 30
0.0
 10
414.258272
 20
45.754328
 30
0.0
 10
414.258272
 20
34.415768
 30
0.0
 10
402.919688
 20
34.415768
 30
0.0
 10
402.919688
 20
23.077128
 30
0.0
 10
414.258272
 20
23.077128
 30
0.0
 10
414.258272
 20
11.738568
 30
0.0
 10
391.581104
 20
11.738568
 30
0.0
 10
391.581104
 20
23.077128
 30
0.0
 10
380.242520
 20
23.077128
 30
0.0
 10
380.242520
 20
11.738568
 30
0.0
 10
368.903936
 20
11.738568
 30
0.0
 10
368.903936
 20
23.077128
 30
0.0
 10
357.565360
 20
23.077128
 30
0.0
 10
357.565360
 20
11.738568
 30
0.0
 10
346.226776
 20
11.738568
 30
0.0
 10
346.226776
 20
23.077128
 30
0.0
 10
334.888192
 20
23.077128
 30
0.0
 10
334.888192
 20
11.738568
 30
0.0
 10
323.549608
 20
11.738568
 30
0.0
 10
323.549608
 20
23.077128
 30
0.0
 10
312.211024
 20
23.077128
 30
0.0
 10
312.211024
 20
11.738568
 30
0.0
 10
300.872440
 20
11.738568
 30
0.0
 10
300.872440
 20
23.077128
 30
0.0
 10
289.533864
 20
23.077128
 30
0.0
 10
289.533864
 20
11.738568
 30
0.0
 10
278.195280
 20
11.738568
 30
0.0
 10
278.195280
 20
23.077128
 30
0.0
 10
266.856696
 20
23.077128
 30
0.0
 10
266.856696
 20
11.738568
 30
0.0
 10
255.518112
 20
11.738568
 30
0.0
 10
255.518112
 20
23.077128
 30
0.0
 10
244.179528
 20
23.077128
 30
0.0
 10
244.179528
 20
11.738568
 30
0.0
 10
232.840952
 20
11.738568
 30
0.0
 10
232.840952
 20
23.077128
 30
0.0
 10
221.502368
 20
23.077128
 30
0.0
 10
221.502368
 20
11.738568
 30
0.0
 10
210.163782
 20
11.738568
 30
0.0
 10
210.163782
 20
23.077128
 30
0.0
 10
198.825200
 20
23.077128
 30
0.0
 10
198.825200
 20
11.738568
 30
0.0
 10
187.486618
 20
11.738568
 30
0.0
 10
187.486618
 20
23.077128
 30
0.0
 10
176.148034
 20
23.077128
 30
0.0
 10
176.148034
 20
11.738568
 30
0.0
 10
164.809452
 20
11.738568
 30
0.0
 10
164.809452
 20
23.077128
 30
0.0
 10
153.470870
 20
23.077128
 30
0.0
 10
153.470870
 20
11.738568
 30
0.0
 10
142.132286
 20
11.738568
 30
0.0
 10
142.132286
 20
23.077128
 30
0.0
 10
130.793704
 20
23.077128
 30
0.0
 10
130.793704
 20
11.738568
 30
0.0
 10
119.455122
 20
11.738568
 30
0.0
  0
LWPOLYLINE
  5
103
100
AcDbEntity
  8
0
 62
7
100
AcDbPolyline
 90
157
 70
0
 10
119.455122
 20
232.840928
 30
0.0
 10
119.455122
 20
255.518096
 30
0.0
 10
130.793704
 20
255.518096
 30
0.0
 10
130.793704
 20
266.856680
 30
0.0
 10
119.455122
 20
266.856680
 30
0.0
 10
119.455122
 20
278.195256
 30
0.0
 10
130.793704
 20
278.195256
 30
0.0
 10
130.793704
 20
289.533840
 30
0.0
 10
119.455122
 20
289.533840
 30
0.0
 10
119.455122
 20
300.872424
 30
0.0
 10
130.793704
 20
300.872424
 30
0.0
 10
130.793704
 20
312.211008
 30
0.0
 10
119.455122
 20
312.211008
 30
0.0
 10
119.455122
 20
323.549592
 30
0.0
 10
130.793704
 20
323.549592
 30
0.0
 10
130.793704
 20
334.888176
 30
0.0
 10
119.455122
 20
334.888176
 30
0.0
 10
119.455122
 20
346.226752
 30
0.0
 10
130.793704
 20
346.226752
 30
0.0
 10
130.793704
 20
357.565336
 30
0.0
 10
119.455122
 20
357.565336
 30
0.0
 10
119.455122
 20
368.903920
 30
0.0
 10
130.793704
 20
368.903920
 30
0.0
 10
130.793704
 20
380.242504
 30
0.0
 10
119.455122
 20
380.242504
 30
0.0
 10
119.455122
 20
391.581088
 30
0.0
 10
130.793704
 20
391.581088
 30
0.0
 10
130.793704
 20
402.919672
 30
0.0
 10
119.455122
 20
402.919672
 30
0.0
 10
119.455122
 20
414.258248
 30
0.0
 10
142.132286
 20
414.258248
 30
0.0
 10
142.132286
 20
402.919672
 30
0.0
 10
153.470870
 20
402.919672
 30
0.0
 10
153.470870
 20
414.258248
 30
0.0
 10
164.809452
 20
414.258248
 30
0.0
 10
164.809452
 20
402.919672
 30
0.0
 10
176.148034
 20
402.919672
 30
0.0
 10
176.148034
 20
414.258248
 30
0.0
 10
187.486618
 20
414.258248
 30
0.0
 10
187.486618
 20
402.919672
 30
0.0
 10
198.825200
 20
402.919672
 30
0.0
 10
198.825200
 20
414.258248
 30
0.0
 10
210.163782
 20
414.258248
 30
0.0
 10
210.163782
 20
402.919672
 30
0.0
 10
221.502368
 20
402.919672
 30
0.0
 10
221.502368
 20
414.258248
 30
0.0
 10
232.840952
 20
414.258248
 30
0.0
 10
232.840952
 20
402.919672
 30
0.0
 10
244.179528
 20
402.919672
 30
0.0
 10
244.179528
 20
414.258248
 30
0.0
 10
255.518112
 20
414.258248
 30
0.0
 10
255.518112
 20
402.919672
 30
0.0
 10
266.856696
 20
402.919672
 30
0.0
 10
266.856696
 20
414.258248
 30
0.0
 10
278.195280
 20
414.258248
 30
0.0
 10
278.195280
 20
402.919672
 30
0.0
 10
289.533864
 20
402.919672
 30
0.0
 10
289.533864
 20
414.258248
 30
0.0
 10
300.872440
 20
414.258248
 30
0.0
 10
300.872440
 20
402.919672
 30
0.0
 10
312.211024
 20
402.919672
 30
0.0
 10
312.211024
 20
414.258248
 30
0.0
 10
323.549608
 20
414.258248
 30
0.0
 10
323.549608
 20
402.919672
 30
0.0
 10
334.888192
 20
402.919672
 30
0.0
 10
334.888192
 20
414.258248
 30
0.0
 10
346.226776
 20
414.258248
 30
0.0
 10
346.226776
 20
402.919672
 30
0.0
 10
357.565360
 20
402.919672
 30
0.0
 10
357.565360
 20
414.258248
 30
0.0
 10
368.903936
 20
414.258248
 30
0.0
 10
368.903936
 20
402.919672
 30
0.0
 10
380.242520
 20
402.919672
 30
0.0
 10
380.242520
 20
414.258248
 30
0.0
 10
391.581104
 20
414.258248
 30
0.0
 10
391.581104
 20
402.919672
 30
0.0
 10
402.919688
 20
402.919672
 30
0.0
 10
402.919688
 20
414.258248
 30
0.0
 10
414.258272
 20
414.258248
 30
0.0
 10
414.258272
 20
391.581088
 30
0.0
 10
402.919688
 20
391.581088
 30
0.0
 10
402.919688
 20
380.242504
 30
0.0
 10
414.258272
 20
380.242504
 30
0.0
 10
414.258272
 20
368.903920
 30
0.0
 10
402.919688
 20
368.903920
 30
0.0
 10
402.919688
 20
357.565336
 30
0.0
 10
414.258272
 20
357.565336
 30
0.0
 10
414.258272
 20
346.226752
 30
0.0
 10
402.919688
 20
346.226752
 30
0.0
 10
402.919688
 20
334.888176
 30
0.0
 10
414.258272
 20
334.888176
 30
0.0
 10
414.258272
 20
323.549592
 30
0.0
 10
402.919688
 20
323.549592
 30
0.0
 10
402.919688
 20
312.211008
 30
0.0
 10
414.258272
 20
312.211008
 30
0.0
 10
414.258272
 20
300.872424
 30
0.0
 10
402.919688
 20
300.872424
 30
0.0
 10
402.919688
 20
289.533840
 30
0.0
 10
414.258272
 20
289.533840
 30
0.0
 10
414.258272
 20
278.195256
 30
0.0
 10
402.919688
 20
278.195256
 30
0.0
 10
402.919688
 20
266.856680
 30
0.0
 10
414.258272
 20
266.856680
 30
0.0
 10
414.258272
 20
255.518096
 30
0.0
 10
402.919688
 20
255.518096
 30
0.0
 10
402.919688
 20
244.179512
 30
0.0
 10
414.258272
 20
244.179512
 30
0.0
 10
414.258272
 20
232.840928
 30
0.0
 10
391.581104
 20
232.840928
 30
0.0
 10
391.581104
 20
244.179512
 30
0.0
 10
380.242520
 20
244.179512
 30
0.0
 10
380.242520
 20
232.840928
 30
0.0
 10
368.903936
 20
232.840928
 30
0.0
 10
368.903936
 20
244.179512
 30
0.0
 10
357.565360
 20
244.179512
 30
0.0
 10
357.565360
 20
232.840928
 30
0.0
 10
346.226776
 20
232.840928
 30
0.0
 10
346.226776
 20
244.179512
 30
0.0
 10
334.888192
 20
244.179512
 30
0.0
 10
334.888192
 20
232.840928
 30
0.0
 10
323.549608
 20
232.840928
 30
0.0
 10
323.549608
 20
244.179512
 30
0.0
 10
312.211024
 20
244.179512
 30
0.0
 10
312.211024
 20
232.840928
 30
0.0
 10
300.872440
 20
232.840928
 30
0.0
 10
300.872440
 20
244.179512
 30
0.0
 10
289.533864
 20
244.179512
 30
0.0
 10
289.533864
 20
232.840928
 30
0.0
 10
278.195280
 20
232.840928
 30
0.0
 10
278.195280
 20
244.179512
 30
0.0
 10
266.856696
 20
244.179512
 30
0.0
 10
266.856696
 20
232.840928
 30
0.0
 10
255.518112
 20
232.840928
 30
0.0
 10
255.518112
 20
244.179512
 30
0.0
 10
244.179528
 20
244.179512
 30
0.0
 10
244.179528
 20
232.840928
 30
0.0
 10
232.840952
 20
232.840928
 30
0.0
 10
232.840952
 20
244.179512
 30
0.0
 10
221.502368
 20
244.179512
 30
0.0
 10
221.502368
 20
232.840928
 30
0.0
 10
210.163782
 20
232.840928
 30
0.0
 10
210.163782
 20
244.179512
 30
0.0
 10
198.825200
 20
244.179512
 30
0.0
 10
198.825200
 20
232.840928
 30
0.0
 10
187.486618
 20
232.840928
 30
0.0
 10
187.486618
 20
244.179512
 30
0.0
 10
176.148034
 20
244.179512
 30
0.0
 10
176.148034
 20
232.840928
 30
0.0
 10
164.809452
 20
232.840928
 30
0.0
 10
164.809452
 20
244.179512
 30
0.0
 10
153.470870
 20
244.179512
 30
0.0
 10
153.470870
 20
232.840928
 30
0.0
 10
142.132286
 20
232.840928
 30
0.0
 10
142.132286
 20
244.179512
 30
0.0
 10
130.793704
 20
244.179512
 30
0.0
 10
130.793704
 20
232.840928
 30
0.0
 10
119.455122
 20
232.840928
 30
0.0
  0
LWPOLYLINE
  5
104
100
AcDbEntity
  8
0
 62
7
100
AcDbPolyline
 90
125
 70
0
 10
425.596856
 20
48.022008
 30
0.0
 10
425.596856
 20
59.360648
 30
0.0
 10
436.935432
 20
59.360648
 30
0.0
 10
436.935432
 20
70.699208
 30
0.0
 10
425.596856
 20
70.699208
 30
0.0
 10
425.596856
 20
82.037768
 30
0.0
 10
436.935432
 20
82.037768
 30
0.0
 10
436.935432
 20
93.376328
 30
0.0
 10
425.596856
 20
93.376328
 30
0.0
 10
425.596856
 20
104.714968
 30
0.0
 10
436.935432
 20
104.714968
 30
0.0
 10
436.935432
 20
116.053528
 30
0.0
 10
425.596856
 20
116.053528
 30
0.0
 10
425.596856
 20
127.392088
 30
0.0
 10
436.935432
 20
127.392088
 30
0.0
 10
436.935432
 20
138.730728
 30
0.0
 10
425.596856
 20
138.730728
 30
0.0
 10
425.596856
 20
150.069288
 30
0.0
 10
436.935432
 20
150.069288
 30
0.0
 10
436.935432
 20
161.407848
 30
0.0
 10
425.596856
 20
161.407848
 30
0.0
 10
425.596856
 20
172.746440
 30
0.0
 10
436.935432
 20
172.746440
 30
0.0
 10
436.935432
 20
184.085024
 30
0.0
 10
425.596856
 20
184.085024
 30
0.0
 10
425.596856
 20
195.423608
 30
0.0
 10
436.935432
 20
195.423608
 30
0.0
 10
436.935432
 20
206.762192
 30
0.0
 10
425.596856
 20
206.762192
 30
0.0
 10
425.596856
 20
218.100768
 30
0.0
 10
436.935432
 20
218.100768
 30
0.0
 10
436.935432
 20
229.439352
 30
0.0
 10
425.596856
 20
229.439352
 30
0.0
 10
425.596856
 20
240.777936
 30
0.0
 10
436.935432
 20
240.777936
 30
0.0
 10
436.935432
 20
252.116520
 30
0.0
 10
425.596856
 20
252.116520
 30
0.0
 10
425.596856
 20
263.455104
 30
0.0
 10
436.935432
 20
263.455104
 30
0.0
 10
436.935432
 20
274.793680
 30
0.0
 10
425.596856
 20
274.793680
 30
0.0
 10
425.596856
 20
286.132264
 30
0.0
 10
436.935432
 20
286.132264
 30
0.0
 10
436.935432
 20
297.470848
 30
0.0
 10
425.596856
 20
297.470848
 30
0.0
 10
425.596856
 20
308.809432
 30
0.0
 10
436.935432
 20
308.809432
 30
0.0
 10
436.935432
 20
331.486600
 30
0.0
 10
448.274016
 20
331.486600
 30
0.0
 10
448.274016
 20
320.148016
 30
0.0
 10
459.612600
 20
320.148016
 30
0.0
 10
459.612600
 20
331.486600
 30
0.0
 10
470.951184
 20
331.486600
 30
0.0
 10
470.951184
 20
320.148016
 30
0.0
 10
482.289768
 20
320.148016
 30
0.0
 10
482.289768
 20
331.486600
 30
0.0
 10
493.628352
 20
331.486600
 30
0.0
 10
493.628352
 20
320.148016
 30
0.0
 10
504.966936
 20
320.148016
 30
0.0
 10
504.966936
 20
331.486600
 30
0.0
 10
516.305512
 20
331.486600
 30
0.0
 10
516.305512
 20
320.148016
 30
0.0
 10
538.982680
 20
320.148016
 30
0.0
 10
538.982680
 20
308.809432
 30
0.0
 10
527.644096
 20
308.809432
 30
0.0
 10
527.644096
 20
297.470848
 30
0.0
 10
538.982680
 20
297.470848
 30
0.0
 10
538.982680
 20
286.132264
 30
0.0
 10
527.644096
 20
286.132264
 30
0.0
 10
527.644096
 20
274.793680
 30
0.0
 10
538.982680
 20
274.793680
 30
0.0
 10
538.982680
 20
263.455104
 30
0.0
 10
527.644096
 20
263.455104
 30
0.0
 10
527.644096
 20
252.116520
 30
0.0
 10
538.982680
 20
252.116520
 30
0.0
 10
538.982680
 20
240.777936
 30
0.0
 10
527.644096
 20
240.777936
 30
0.0
 10
527.644096
 20
229.439352
 30
0.0
 10
538.982680
 20
229.439352
 30
0.0
 10
538.982680
 20
218.100768
 30
0.0
 10
527.644096
 20
218.100768
 30
0.0
 10
527.644096
 20
206.762192
 30
0.0
 10
538.982680
 20
206.762192
 30
0.0
 10
538.982680
 20
195.423608
 30
0.0
 10
527.644096
 20
195.423608
 30
0.0
 10
527.644096
 20
184.085024
 30
0.0
 10
538.982680
 20
184.085024
 30
0.0
 10
538.982680
 20
172.746440
 30
0.0
 10
527.644096
 20
172.746440
 30
0.0
 10
527.644096
 20
161.407848
 30
0.0
 10
538.982680
 20
161.407848
 30
0.0
 10
538.982680
 20
150.069288
 30
0.0
 10
527.644096
 20
150.069288
 30
0.0
 10
527.644096
 20
138.730728
 30
0.0
 10
538.982680
 20
138.730728
 30
0.0
 10
538.982680
 20
127.392088
 30
0.0
 10
527.644096
 20
127.392088
 30
0.0
 10
527.644096
 20
116.053528
 30
0.0
 10
538.982680
 20
116.053528
 30
0.0
 10
538.982680
 20
104.714968
 30
0.0
 10
527.644096
 20
104.714968
 30
0.0
 10
527.644096
 20
93.376328
 30
0.0
 10
538.982680
 20
93.376328
 30
0.0
 10
538.982680
 20
82.037768
 30
0.0
 10
527.644096
 20
82.037768
 30
0.0
 10
527.644096
 20
70.699208
 30
0.0
 10
538.982680
 20
70.699208
 30
0.0
 10
538.982680
 20
59.360648
 30
0.0
 10
527.644096
 20
59.360648
 30
0.0
 10
527.644096
 20
36.683448
 30
0.0
 10
516.305512
 20
36.683448
 30
0.0
 10
516.305512
 20
48.022008
 30
0.0
 10
504.966936
 20
48.022008
 30
0.0
 10
504.966936
 20
36.683448
 30
0.0
 10
493.628352
 20
36.683448
 30
0.0
 10
493.628352
 20
48.022008
 30
0.0
 10
482.289768
 20
48.022008
 30
0.0
 10
482.289768
 20
36.683448
 30
0.0
 10
470.951184
 20
36.683448
 30
0.0
 10
470.951184
 20
48.022008
 30
0.0
 10
459.612600
 20
48.022008
 30
0.0
 10
459.612600
 20
36.683448
 30
0.0
 10
448.274016
 20
36.683448
 30
0.0
 10
448.274016
 20
48.022008
 30
0.0
 10
425.596856
 20
48.022008
 30
0.0
  0
LWPOLYLINE
  5
105
100
AcDbEntity
  8
0
 62
7
100
AcDbPolyline
 90
125
 70
0
 10
552.588976
 20
48.022008
 30
0.0
 10
552.588976
 20
59.360648
 30
0.0
 10
563.927560
 20
59.360648
 30
0.0
 10
563.927560
 20
70.699208
 30
0.0
 10
552.588976
 20
70.699208
 30
0.0
 10
552.588976
 20
82.037768
 30
0.0
 10
563.927560
 20
82.037768
 30
0.0
 10
563.927560
 20
93.376328
 30
0.0
 10
552.588976
 20
93.376328
 30
0.0
 10
552.588976
 20
104.714968
 30
0.0
 10
563.927560
 20
104.714968
 30
0.0
 10
563.927560
 20
116.053528
 30
0.0
 10
552.588976
 20
116.053528
 30
0.0
 10
552.588976
 20
127.392088
 30
0.0
 10
563.927560
 20
127.392088
 30
0.0
 10
563.927560
 20
138.730728
 30
0.0
 10
552.588976
 20
138.730728
 30
0.0
 10
552.588976
 20
150.069288
 30
0.0
 10
563.927560
 20
150.069288
 30
0.0
 10
563.927560
 20
161.407848
 30
0.0
 10
552.588976
 20
161.407848
 30
0.0
 10
552.588976
 20
172.746440
 30
0.0
 10
563.927560
 20
172.746440
 30
0.0
 10
563.927560
 20
184.085024
 30
0.0
 10
552.588976
 20
184.085024
 30
0.0
 10
552.588976
 20
195.423608
 30
0.0
 10
563.927560
 20
195.423608
 30
0.0
 10
563.927560
 20
206.762192
 30
0.0
 10
552.588976
 20
206.762192
 30
0.0
 10
552.588976
 20
218.100768
 30
0.0
 10
563.927560
 20
218.100768
 30
0.0
 10
563.927560
 20
229.439352
 30
0.0
 10
552.588976
 20
229.439352
 30
0.0
 10
552.588976
 20
240.777936
 30
0.0
 10
563.927560
 20
240.777936
 30
0.0
 10
563.927560
 20
252.116520
 30
0.0
 10
552.588976
 20
252.116520
 30
0.0
 10
552.588976
 20
263.455104
 30
0.0
 10
563.927560
 20
263.455104
 30
0.0
 10
563.927560
 20
274.793680
 30
0.0
 10
552.588976
 20
274.793680
 30
0.0
 10
552.588976
 20
286.132264
 30
0.0
 10
563.927560
 20
286.132264
 30
0.0
 10
563.927560
 20
297.470848
 30
0.0
 10
552.588976
 20
297.470848
 30
0.0
 10
552.588976
 20
308.809432
 30
0.0
 10
563.927560
 20
308.809432
 30
0.0
 10
563.927560
 20
331.486600
 30
0.0
 10
575.266144
 20
331.486600
 30
0.0
 10
575.266144
 20
320.148016
 30
0.0
 10
586.604728
 20
320.148016
 30
0.0
 10
586.604728
 20
331.486600
 30
0.0
 10
597.943312
 20
331.486600
 30
0.0
 10
597.943312
 20
320.148016
 30
0.0
 10
609.281896
 20
320.148016
 30
0.0
 10
609.281896
 20
331.486600
 30
0.0
 10
620.620472
 20
331.486600
 30
0.0
 10
620.620472
 20
320.148016
 30
0.0
 10
631.959056
 20
320.148016
 30
0.0
 10
631.959056
 20
331.486600
 30
0.0
 10
643.297640
 20
331.486600
 30
0.0
 10
643.297640
 20
320.148016
 30
0.0
 10
665.974808
 20
320.148016
 30
0.0
 10
665.974808
 20
308.809432
 30
0.0
 10
654.636224
 20
308.809432
 30
0.0
 10
654.636224
 20
297.470848
 30
0.0
 10
665.974808
 20
297.470848
 30
0.0
 10
665.974808
 20
286.132264
 30
0.0
 10
654.636224
 20
286.132264
 30
0.0
 10
654.636224
 20
274.793680
 30
0.0
 10
665.974808
 20
274.793680
 30
0.0
 10
665.974808
 20
263.455104
 30
0.0
 10
654.636224
 20
263.455104
 30
0.0
 10
654.636224
 20
252.116520
 30
0.0
 10
665.974808
 20
252.116520
 30
0.0
 10
665.974808
 20
240.777936
 30
0.0
 10
654.636224
 20
240.777936
 30
0.0
 10
654.636224
 20
229.439352
 30
0.0
 10
665.974808
 20
229.439352
 30
0.0
 10
665.974808
 20
218.100768
 30
0.0
 10
654.636224
 20
218.100768
 30
0.0
 10
654.636224
 20
206.762192
 30
0.0
 10
665.974808
 20
206.762192
 30
0.0
 10
665.974808
 20
195.423608
 30
0.0
 10
654.636224
 20
195.423608
 30
0.0
 10
654.636224
 20
184.085024
 30
0.0
 10
665.974808
 20
184.085024
 30
0.0
 10
665.974808
 20
172.746440
 30
0.0
 10
654.636224
 20
172.746440
 30
0.0
 10
654.636224
 20
161.407848
 30
0.0
 10
665.974808
 20
161.407848
 30
0.0
 10
665.974808
 20
150.069288
 30
0.0
 10
654.636224
 20
150.069288
 30
0.0
 10
654.636224
 20
138.730728
 30
0.0
 10
665.974808
 20
138.730728
 30
0.0
 10
665.974808
 20
127.392088
 30
0.0
 10
654.636224
 20
127.392088
 30
0.0
 10
654.636224
 20
116.053528
 30
0.0
 10
665.974808
 20
116.053528
 30
0.0
 10
665.974808
 20
104.714968
 30
0.0
 10
654.636224
 20
104.714968
 30
0.0
 10
654.636224
 20
93.376328
 30
0.0
 10
665.974808
 20
93.376328
 30
0.0
 10
665.974808
 20
82.037768
 30
0.0
 10
654.636224
 20
82.037768
 30
0.0
 10
654.636224
 20
70.699208
 30
0.0
 10
665.974808
 20
70.699208
 30
0.0
 10
665.974808
 20
59.360648
 30
0.0
 10
654.636224
 20
59.360648
 30
0.0
 10
654.636224
 20
36.683448
 30
0.0
 10
643.297640
 20
36.683448
 30
0.0
 10
643.297640
 20
48.022008
 30
0.0
 10
631.959056
 20
48.022008
 30
0.0
 10
631.959056
 20
36.683448
 30
0.0
 10
620.620472
 20
36.683448
 30
0.0
 10
620.620472
 20
48.022008
 30
0.0
 10
609.281896
 20
48.022008
 30
0.0
 10
609.281896
 20
36.683448
 30
0.0
 10
597.943312
 20
36.683448
 30
0.0
 10
597.943312
 20
48.022008
 30
0.0
 10
586.604728
 20
48.022008
 30
0.0
 10
586.604728
 20
36.683448
 30
0.0
 10
575.266144
 20
36.683448
 30
0.0
 10
575.266144
 20
48.022008
 30
0.0
 10
552.588976
 20
48.022008
 30
0.0
  0
ENDSEC
  0
SECTION
  2
OBJECTS
  0
DICTIONARY
  5
C
330
0
100
AcDbDictionary
  3
ACAD_GROUP
350
D
  3
ACAD_MLINESTYLE
350
17
  0
DICTIONARY
  5
D
330
C
100
AcDbDictionary
  0
DICTIONARY
  5
1A
330
C
100
AcDbDictionary
  0
DICTIONARY
  5
17
330
C
100
AcDbDictionary
  3
STANDARD
350
18
  0
DICTIONARY
  5
19
330
C
100
AcDbDictionary
  0
ENDSEC
  0
EOF
