<?xml version="1.0" encoding="UTF-8" standalone="no"?>
<!-- Created with Inkscape (http://www.inkscape.org/) -->

<svg
   xmlns:dc="http://purl.org/dc/elements/1.1/"
   xmlns:cc="http://creativecommons.org/ns#"
   xmlns:rdf="http://www.w3.org/1999/02/22-rdf-syntax-ns#"
   xmlns:svg="http://www.w3.org/2000/svg"
   xmlns="http://www.w3.org/2000/svg"
   xmlns:sodipodi="http://sodipodi.sourceforge.net/DTD/sodipodi-0.dtd"
   xmlns:inkscape="http://www.inkscape.org/namespaces/inkscape"
   width="2367.3372"
   height="2298.7659"
   id="svg2"
   version="1.1"
   inkscape:version="0.48.3.1 r9886"
   sodipodi:docname="New document 1">
  <defs
     id="defs4" />
  <sodipodi:namedview
     id="base"
     pagecolor="#ffffff"
     bordercolor="#666666"
     borderopacity="1.0"
     inkscape:pageopacity="0.0"
     inkscape:pageshadow="2"
     inkscape:zoom="0.175"
     inkscape:cx="1353.0356"
     inkscape:cy="1392.8201"
     inkscape:document-units="px"
     inkscape:current-layer="layer1"
     showgrid="false"
     fit-margin-top="0"
     fit-margin-left="0"
     fit-margin-right="0"
     fit-margin-bottom="0"
     inkscape:window-width="1301"
     inkscape:window-height="744"
     inkscape:window-x="65"
     inkscape:window-y="24"
     inkscape:window-maximized="1" />
  <metadata
     id="metadata7">
    <rdf:RDF>
      <cc:Work
         rdf:about="">
        <dc:format>image/svg+xml</dc:format>
        <dc:type
           rdf:resource="http://purl.org/dc/dcmitype/StillImage" />
        <dc:title></dc:title>
      </cc:Work>
    </rdf:RDF>
  </metadata>
  <g
     inkscape:label="Layer 1"
     inkscape:groupmode="layer"
     id="layer1"
     transform="translate(1998.5257,1185.0208)">
    <path
       sodipodi:type="spiral"
       style="fill:none;stroke:#000000;stroke-width:1.97107732;stroke-linecap:butt;stroke-linejoin:miter;stroke-miterlimit:4;stroke-opacity:1;stroke-dasharray:none"
       id="path2987"
       sodipodi:cx="-691.42859"
       sodipodi:cy="392.36218"
       sodipodi:expansion="1"
       sodipodi:revolution="11.721434"
       sodipodi:radius="1993.1348"
       sodipodi:argument="-19.177078"
       sodipodi:t0="0.053534865"
       d="m -786.38545,343.69439 c 16.35022,-71.36365 96.88322,-104.15702 163.01405,-84.12017 91.75844,27.80173 132.68249,133.25966 102.56186,220.23454 -38.86188,112.21573 -169.72453,161.38019 -277.45502,121.00357 -132.7158,-49.74093 -190.17166,-206.23479 -139.44527,-334.67551 60.52207,-153.24368 242.77189,-219.019697 391.896,-157.88698 173.79017,71.24446 247.90441,279.32637 176.32868,449.11649 -81.92888,194.34958 -315.89277,276.81426 -506.33698,194.77038 C -1090.7404,659.54934 -1181.5642,399.66897 -1089.0342,188.57925 -985.80685,-46.914596 -699.98512,-146.10385 -468.25626,-43.074538 -212.18162,70.779189 -104.62204,382.5608 -218.16077,634.9239 -342.6305,911.58341 -680.38616,1027.5171 -953.3797,903.46109 -1250.6273,768.3834 -1374.938,404.64261 -1240.3586,111.02167 -1094.6793,-206.81657 -704.94455,-339.5068 -390.69869,-194.39892 -52.267668,-38.123172 88.804029,377.61271 -66.836391,712.48148 -233.70441,1071.507 -675.44729,1220.9618 -1030.9373,1054.7855 -1413.858,875.78642 -1569.9486,412.87389 -1391.683,33.464103 -1202.0051,-370.23496 -713.35069,-534.62269 -313.14112,-345.7233 111.33724,-145.36902 284.0232,369.03078 84.487991,790.03905 -126.54052,1235.2976 -666.68883,1416.2826 -1108.4948,1206.1099 -1574.5342,984.40895 -1763.8192,418.50948 -1543.0074,-44.093469 -1310.6356,-530.9144 -718.9827,-728.49996 -235.58354,-497.04768 272.01948,-254.00655 477.90623,363.40188 235.81237,867.59662 -17.896962,1395.9822 -661.06266,1610.1707 -1186.0524,1357.4342 -1735.2211,1093.0578 -1957.7117,424.13325 -1694.3317,-121.65104 -1419.2891,-691.60313 -724.60435,-922.39633 -158.02597,-648.37206 432.70989,-362.66409 671.80605,357.78212 387.13675,945.15419 90.764203,1556.6742 -655.44458,1804.0736 -1263.61,1508.7586 -1895.9143,1201.7222 -2151.6174,429.74981 -1845.6561,-199.20861 -1527.9564,-852.29759 -730.21954,-1116.3045 -80.468401,-799.69645 593.40544,-471.33399 865.71646,352.16816 538.46114,1022.7118 199.43646,1717.3707 -649.83174,1997.986 -1341.1676,1660.083 -2056.6118,1310.3966 -2345.5317,435.36163 -1996.9805,-276.76618 -1636.6327,-1012.9958 -735.83044,-1310.2205 -2.9108291,-951.02083 754.10442,-580.01207 1059.634,346.55811 689.78552,1100.2693 308.11615,1878.0703 -644.22247,2191.9049 -1418.7251,1811.4074 -2217.312,1419.0777 -2539.4518,440.97019 -2148.3049,-354.32376 -1745.3152,-1173.6967 -741.43834,-1504.1418 74.646743,-1102.3452 914.80581,-688.69584 1253.5564,340.95083 841.1099,1177.8269 416.80107,2038.7722 -638.61575,2385.8284 -1496.2827,1962.7318 -2378.0144,1527.7637 -2733.3763,446.57639 -2299.6293,-431.88133 -1854.0022,-1334.3994 -747.04405,-1698.0671 152.20431,-1253.6696 1075.5089,-797.38372 1447.4826,335.34557 992.43428,1255.3845 525.4898,2199.4757 -633.01091,2579.7553 -1573.8403,2114.0561 c -964.8779,-477.6029 -1353.4636,-1661.87527 -877.1133,-2623.495 173.7979,-350.8502 452.1095,-645.8806 791.7273,-840.5978"
       transform="matrix(0.51415975,0,0,0.50692642,-469.53262,-208.25109)"
       inkscape:transform-center-x="-37.804176"
       inkscape:transform-center-y="-73.21597" />
    <path
       sodipodi:type="arc"
       style="fill:none;stroke:#180505;stroke-width:4.99399996;stroke-linecap:round;stroke-miterlimit:4;stroke-opacity:1;stroke-dasharray:none;stroke-dashoffset:0"
       id="path2989"
       sodipodi:cx="-807.14288"
       sodipodi:cy="98.076469"
       sodipodi:rx="110"
       sodipodi:ry="82.85714"
       d="m -697.14288,98.076469 a 110,82.85714 0 1 1 -220,0 110,82.85714 0 1 1 220,0 z"
       transform="matrix(0.66825251,0,0,0.8181973,-269.4819,-99.026571)" />
    <path
       sodipodi:type="arc"
       style="fill:none;stroke:#180505;stroke-width:1.62300003;stroke-linecap:round;stroke-miterlimit:4;stroke-opacity:1;stroke-dasharray:none;stroke-dashoffset:0"
       id="path3767"
       sodipodi:cx="1488.5714"
       sodipodi:cy="1253.0516"
       sodipodi:rx="1814.2858"
       sodipodi:ry="1674.2858"
       d="m 3302.8572,1253.0516 a 1814.2858,1674.2858 0 1 1 -3628.57156,0 1814.2858,1674.2858 0 1 1 3628.57156,0 z"
       transform="matrix(0.63981202,0,0,0.69504654,-1762.4308,-880.70931)" />
  </g>
</svg>
