  0
SECTION
  2
BLOCKS
  0
ENDSEC
  0
SECTION
  2
ENTITIES
  0
LINE
  8
0
 10
-47.8
 11
-47.8
 20
-44.4
 21
-40.2
  0
LINE
  8
0
 10
-47.8
 11
-43.6
 20
-40.2
 21
-40.2
  0
LINE
  8
0
 10
-43.6
 11
-43.6
 20
-40.2
 21
-36
  0
LINE
  8
0
 10
-43.6
 11
-47.8
 20
-36
 21
-36
  0
LINE
  8
0
 10
-47.8
 11
-47.8
 20
-36
 21
-31.8
  0
LINE
  8
0
 10
-47.8
 11
-43.6
 20
-31.8
 21
-31.8
  0
LINE
  8
0
 10
-43.6
 11
-43.6
 20
-31.8
 21
-27.6
  0
LINE
  8
0
 10
-43.6
 11
-47.8
 20
-27.6
 21
-27.6
  0
LINE
  8
0
 10
-47.8
 11
-47.8
 20
-27.6
 21
-23.4
  0
LINE
  8
0
 10
-47.8
 11
-43.6
 20
-23.4
 21
-23.4
  0
LINE
  8
0
 10
-43.6
 11
-43.6
 20
-23.4
 21
-19.2
  0
LINE
  8
0
 10
-43.6
 11
-47.8
 20
-19.2
 21
-19.2
  0
LINE
  8
0
 10
-47.8
 11
-47.8
 20
-19.2
 21
-15
  0
LINE
  8
0
 10
-47.8
 11
-43.6
 20
-15
 21
-15
  0
LINE
  8
0
 10
-43.6
 11
-43.6
 20
-15
 21
-10.8
  0
LINE
  8
0
 10
-43.6
 11
-47.8
 20
-10.8
 21
-10.8
  0
LINE
  8
0
 10
-47.8
 11
-47.8
 20
-10.8
 21
-6.6
  0
LINE
  8
0
 10
-47.8
 11
-43.6
 20
-6.6
 21
-6.6
  0
LINE
  8
0
 10
-43.6
 11
-43.6
 20
-6.6
 21
-2.4
  0
LINE
  8
0
 10
-43.6
 11
-47.8
 20
-2.4
 21
-2.4
  0
LINE
  8
0
 10
-47.8
 11
-47.8
 20
-2.4
 21
1.8
  0
LINE
  8
0
 10
-47.8
 11
-43.6
 20
1.8
 21
1.8
  0
LINE
  8
0
 10
-43.6
 11
-43.6
 20
1.8
 21
6
  0
LINE
  8
0
 10
-43.6
 11
-47.8
 20
6
 21
6
  0
LINE
  8
0
 10
-47.8
 11
-47.8
 20
6
 21
10.2
  0
LINE
  8
0
 10
-47.8
 11
-43.6
 20
10.2
 21
10.2
  0
LINE
  8
0
 10
-43.6
 11
-43.6
 20
10.2
 21
18.6
  0
LINE
  8
0
 10
-43.6
 11
-39.4
 20
18.6
 21
18.6
  0
LINE
  8
0
 10
-39.4
 11
-39.4
 20
18.6
 21
14.4
  0
LINE
  8
0
 10
-39.4
 11
-35.2
 20
14.4
 21
14.4
  0
LINE
  8
0
 10
-35.2
 11
-35.2
 20
14.4
 21
18.6
  0
LINE
  8
0
 10
-35.2
 11
-31
 20
18.6
 21
18.6
  0
LINE
  8
0
 10
-31
 11
-31
 20
18.6
 21
14.4
  0
LINE
  8
0
 10
-31
 11
-26.8
 20
14.4
 21
14.4
  0
LINE
  8
0
 10
-26.8
 11
-26.8
 20
14.4
 21
18.6
  0
LINE
  8
0
 10
-26.8
 11
-22.6
 20
18.6
 21
18.6
  0
LINE
  8
0
 10
-22.6
 11
-22.6
 20
18.6
 21
14.4
  0
LINE
  8
0
 10
-22.6
 11
-18.4
 20
14.4
 21
14.4
  0
LINE
  8
0
 10
-18.4
 11
-18.4
 20
14.4
 21
18.6
  0
LINE
  8
0
 10
-18.4
 11
-14.2
 20
18.6
 21
18.6
  0
LINE
  8
0
 10
-14.2
 11
-14.2
 20
18.6
 21
14.4
  0
LINE
  8
0
 10
-14.2
 11
-5.8
 20
14.4
 21
14.4
  0
LINE
  8
0
 10
-5.8
 11
-5.8
 20
14.4
 21
10.2
  0
LINE
  8
0
 10
-5.8
 11
-10
 20
10.2
 21
10.2
  0
LINE
  8
0
 10
-10
 11
-10
 20
10.2
 21
6
  0
LINE
  8
0
 10
-10
 11
-5.8
 20
6
 21
6
  0
LINE
  8
0
 10
-5.8
 11
-5.8
 20
6
 21
1.8
  0
LINE
  8
0
 10
-5.8
 11
-10
 20
1.8
 21
1.8
  0
LINE
  8
0
 10
-10
 11
-10
 20
1.8
 21
-2.4
  0
LINE
  8
0
 10
-10
 11
-5.8
 20
-2.4
 21
-2.4
  0
LINE
  8
0
 10
-5.8
 11
-5.8
 20
-2.4
 21
-6.6
  0
LINE
  8
0
 10
-5.8
 11
-10
 20
-6.6
 21
-6.6
  0
LINE
  8
0
 10
-10
 11
-10
 20
-6.6
 21
-10.8
  0
LINE
  8
0
 10
-10
 11
-5.8
 20
-10.8
 21
-10.8
  0
LINE
  8
0
 10
-5.8
 11
-5.8
 20
-10.8
 21
-15
  0
LINE
  8
0
 10
-5.8
 11
-10
 20
-15
 21
-15
  0
LINE
  8
0
 10
-10
 11
-10
 20
-15
 21
-19.2
  0
LINE
  8
0
 10
-10
 11
-5.8
 20
-19.2
 21
-19.2
  0
LINE
  8
0
 10
-5.8
 11
-5.8
 20
-19.2
 21
-23.4
  0
LINE
  8
0
 10
-5.8
 11
-10
 20
-23.4
 21
-23.4
  0
LINE
  8
0
 10
-10
 11
-10
 20
-23.4
 21
-27.6
  0
LINE
  8
0
 10
-10
 11
-5.8
 20
-27.6
 21
-27.6
  0
LINE
  8
0
 10
-5.8
 11
-5.8
 20
-27.6
 21
-31.8
  0
LINE
  8
0
 10
-5.8
 11
-10
 20
-31.8
 21
-31.8
  0
LINE
  8
0
 10
-10
 11
-10
 20
-31.8
 21
-36
  0
LINE
  8
0
 10
-10
 11
-5.8
 20
-36
 21
-36
  0
LINE
  8
0
 10
-5.8
 11
-5.8
 20
-36
 21
-40.2
  0
LINE
  8
0
 10
-5.8
 11
-10
 20
-40.2
 21
-40.2
  0
LINE
  8
0
 10
-10
 11
-10
 20
-40.2
 21
-48.6
  0
LINE
  8
0
 10
-10
 11
-14.2
 20
-48.6
 21
-48.6
  0
LINE
  8
0
 10
-14.2
 11
-14.2
 20
-48.6
 21
-44.4
  0
LINE
  8
0
 10
-14.2
 11
-18.4
 20
-44.4
 21
-44.4
  0
LINE
  8
0
 10
-18.4
 11
-18.4
 20
-44.4
 21
-48.6
  0
LINE
  8
0
 10
-18.4
 11
-22.6
 20
-48.6
 21
-48.6
  0
LINE
  8
0
 10
-22.6
 11
-22.6
 20
-48.6
 21
-44.4
  0
LINE
  8
0
 10
-22.6
 11
-26.8
 20
-44.4
 21
-44.4
  0
LINE
  8
0
 10
-26.8
 11
-26.8
 20
-44.4
 21
-48.6
  0
LINE
  8
0
 10
-26.8
 11
-31
 20
-48.6
 21
-48.6
  0
LINE
  8
0
 10
-31
 11
-31
 20
-48.6
 21
-44.4
  0
LINE
  8
0
 10
-31
 11
-35.2
 20
-44.4
 21
-44.4
  0
LINE
  8
0
 10
-35.2
 11
-35.2
 20
-44.4
 21
-48.6
  0
LINE
  8
0
 10
-35.2
 11
-39.4
 20
-48.6
 21
-48.6
  0
LINE
  8
0
 10
-39.4
 11
-39.4
 20
-48.6
 21
-44.4
  0
LINE
  8
0
 10
-39.4
 11
-47.8
 20
-44.4
 21
-44.4
  0
LINE
  8
0
 10
-47.8
 11
-47.8
 20
31.2
 21
35.4
  0
LINE
  8
0
 10
-47.8
 11
-43.6
 20
35.4
 21
35.4
  0
LINE
  8
0
 10
-43.6
 11
-43.6
 20
35.4
 21
39.6
  0
LINE
  8
0
 10
-43.6
 11
-47.8
 20
39.6
 21
39.6
  0
LINE
  8
0
 10
-47.8
 11
-47.8
 20
39.6
 21
43.8
  0
LINE
  8
0
 10
-47.8
 11
-43.6
 20
43.8
 21
43.8
  0
LINE
  8
0
 10
-43.6
 11
-43.6
 20
43.8
 21
48
  0
LINE
  8
0
 10
-43.6
 11
-47.8
 20
48
 21
48
  0
LINE
  8
0
 10
-47.8
 11
-47.8
 20
48
 21
52.2
  0
LINE
  8
0
 10
-47.8
 11
-43.6
 20
52.2
 21
52.2
  0
LINE
  8
0
 10
-43.6
 11
-43.6
 20
52.2
 21
56.4
  0
LINE
  8
0
 10
-43.6
 11
-47.8
 20
56.4
 21
56.4
  0
LINE
  8
0
 10
-47.8
 11
-47.8
 20
56.4
 21
60.6
  0
LINE
  8
0
 10
-47.8
 11
-43.6
 20
60.6
 21
60.6
  0
LINE
  8
0
 10
-43.6
 11
-43.6
 20
60.6
 21
64.8
  0
LINE
  8
0
 10
-43.6
 11
-47.8
 20
64.8
 21
64.8
  0
LINE
  8
0
 10
-47.8
 11
-47.8
 20
64.8
 21
69
  0
LINE
  8
0
 10
-47.8
 11
-43.6
 20
69
 21
69
  0
LINE
  8
0
 10
-43.6
 11
-43.6
 20
69
 21
73.2
  0
LINE
  8
0
 10
-43.6
 11
-47.8
 20
73.2
 21
73.2
  0
LINE
  8
0
 10
-47.8
 11
-47.8
 20
73.2
 21
77.4
  0
LINE
  8
0
 10
-47.8
 11
-43.6
 20
77.4
 21
77.4
  0
LINE
  8
0
 10
-43.6
 11
-43.6
 20
77.4
 21
81.6
  0
LINE
  8
0
 10
-43.6
 11
-47.8
 20
81.6
 21
81.6
  0
LINE
  8
0
 10
-47.8
 11
-47.8
 20
81.6
 21
85.8
  0
LINE
  8
0
 10
-47.8
 11
-43.6
 20
85.8
 21
85.8
  0
LINE
  8
0
 10
-43.6
 11
-43.6
 20
85.8
 21
94.2
  0
LINE
  8
0
 10
-43.6
 11
-39.4
 20
94.2
 21
94.2
  0
LINE
  8
0
 10
-39.4
 11
-39.4
 20
94.2
 21
90
  0
LINE
  8
0
 10
-39.4
 11
-35.2
 20
90
 21
90
  0
LINE
  8
0
 10
-35.2
 11
-35.2
 20
90
 21
94.2
  0
LINE
  8
0
 10
-35.2
 11
-31
 20
94.2
 21
94.2
  0
LINE
  8
0
 10
-31
 11
-31
 20
94.2
 21
90
  0
LINE
  8
0
 10
-31
 11
-26.8
 20
90
 21
90
  0
LINE
  8
0
 10
-26.8
 11
-26.8
 20
90
 21
94.2
  0
LINE
  8
0
 10
-26.8
 11
-22.6
 20
94.2
 21
94.2
  0
LINE
  8
0
 10
-22.6
 11
-22.6
 20
94.2
 21
90
  0
LINE
  8
0
 10
-22.6
 11
-18.4
 20
90
 21
90
  0
LINE
  8
0
 10
-18.4
 11
-18.4
 20
90
 21
94.2
  0
LINE
  8
0
 10
-18.4
 11
-14.2
 20
94.2
 21
94.2
  0
LINE
  8
0
 10
-14.2
 11
-14.2
 20
94.2
 21
90
  0
LINE
  8
0
 10
-14.2
 11
-5.8
 20
90
 21
90
  0
LINE
  8
0
 10
-5.8
 11
-5.8
 20
90
 21
85.8
  0
LINE
  8
0
 10
-5.8
 11
-10
 20
85.8
 21
85.8
  0
LINE
  8
0
 10
-10
 11
-10
 20
85.8
 21
81.6
  0
LINE
  8
0
 10
-10
 11
-5.8
 20
81.6
 21
81.6
  0
LINE
  8
0
 10
-5.8
 11
-5.8
 20
81.6
 21
77.4
  0
LINE
  8
0
 10
-5.8
 11
-10
 20
77.4
 21
77.4
  0
LINE
  8
0
 10
-10
 11
-10
 20
77.4
 21
73.2
  0
LINE
  8
0
 10
-10
 11
-5.8
 20
73.2
 21
73.2
  0
LINE
  8
0
 10
-5.8
 11
-5.8
 20
73.2
 21
69
  0
LINE
  8
0
 10
-5.8
 11
-10
 20
69
 21
69
  0
LINE
  8
0
 10
-10
 11
-10
 20
69
 21
64.8
  0
LINE
  8
0
 10
-10
 11
-5.8
 20
64.8
 21
64.8
  0
LINE
  8
0
 10
-5.8
 11
-5.8
 20
64.8
 21
60.6
  0
LINE
  8
0
 10
-5.8
 11
-10
 20
60.6
 21
60.6
  0
LINE
  8
0
 10
-10
 11
-10
 20
60.6
 21
56.4
  0
LINE
  8
0
 10
-10
 11
-5.8
 20
56.4
 21
56.4
  0
LINE
  8
0
 10
-5.8
 11
-5.8
 20
56.4
 21
52.2
  0
LINE
  8
0
 10
-5.8
 11
-10
 20
52.2
 21
52.2
  0
LINE
  8
0
 10
-10
 11
-10
 20
52.2
 21
48
  0
LINE
  8
0
 10
-10
 11
-5.8
 20
48
 21
48
  0
LINE
  8
0
 10
-5.8
 11
-5.8
 20
48
 21
43.8
  0
LINE
  8
0
 10
-5.8
 11
-10
 20
43.8
 21
43.8
  0
LINE
  8
0
 10
-10
 11
-10
 20
43.8
 21
39.6
  0
LINE
  8
0
 10
-10
 11
-5.8
 20
39.6
 21
39.6
  0
LINE
  8
0
 10
-5.8
 11
-5.8
 20
39.6
 21
35.4
  0
LINE
  8
0
 10
-5.8
 11
-10
 20
35.4
 21
35.4
  0
LINE
  8
0
 10
-10
 11
-10
 20
35.4
 21
27
  0
LINE
  8
0
 10
-10
 11
-14.2
 20
27
 21
27
  0
LINE
  8
0
 10
-14.2
 11
-14.2
 20
27
 21
31.2
  0
LINE
  8
0
 10
-14.2
 11
-18.4
 20
31.2
 21
31.2
  0
LINE
  8
0
 10
-18.4
 11
-18.4
 20
31.2
 21
27
  0
LINE
  8
0
 10
-18.4
 11
-22.6
 20
27
 21
27
  0
LINE
  8
0
 10
-22.6
 11
-22.6
 20
27
 21
31.2
  0
LINE
  8
0
 10
-22.6
 11
-26.8
 20
31.2
 21
31.2
  0
LINE
  8
0
 10
-26.8
 11
-26.8
 20
31.2
 21
27
  0
LINE
  8
0
 10
-26.8
 11
-31
 20
27
 21
27
  0
LINE
  8
0
 10
-31
 11
-31
 20
27
 21
31.2
  0
LINE
  8
0
 10
-31
 11
-35.2
 20
31.2
 21
31.2
  0
LINE
  8
0
 10
-35.2
 11
-35.2
 20
31.2
 21
27
  0
LINE
  8
0
 10
-35.2
 11
-39.4
 20
27
 21
27
  0
LINE
  8
0
 10
-39.4
 11
-39.4
 20
27
 21
31.2
  0
LINE
  8
0
 10
-39.4
 11
-47.8
 20
31.2
 21
31.2
  0
LINE
  8
0
 10
-4.2
 11
-4.2
 20
-43.8
 21
-35.4
  0
LINE
  8
0
 10
-4.2
 11
0
 20
-35.4
 21
-35.4
  0
LINE
  8
0
 10
0
 11
0
 20
-35.4
 21
-31.2
  0
LINE
  8
0
 10
0
 11
-4.2
 20
-31.2
 21
-31.2
  0
LINE
  8
0
 10
-4.2
 11
-4.2
 20
-31.2
 21
-27
  0
LINE
  8
0
 10
-4.2
 11
0
 20
-27
 21
-27
  0
LINE
  8
0
 10
0
 11
0
 20
-27
 21
-22.8
  0
LINE
  8
0
 10
0
 11
-4.2
 20
-22.8
 21
-22.8
  0
LINE
  8
0
 10
-4.2
 11
-4.2
 20
-22.8
 21
-18.6
  0
LINE
  8
0
 10
-4.2
 11
0
 20
-18.6
 21
-18.6
  0
LINE
  8
0
 10
0
 11
0
 20
-18.6
 21
-14.4
  0
LINE
  8
0
 10
0
 11
-4.2
 20
-14.4
 21
-14.4
  0
LINE
  8
0
 10
-4.2
 11
-4.2
 20
-14.4
 21
-10.2
  0
LINE
  8
0
 10
-4.2
 11
0
 20
-10.2
 21
-10.2
  0
LINE
  8
0
 10
0
 11
0
 20
-10.2
 21
-6
  0
LINE
  8
0
 10
0
 11
-4.2
 20
-6
 21
-6
  0
LINE
  8
0
 10
-4.2
 11
-4.2
 20
-6
 21
-1.8
  0
LINE
  8
0
 10
-4.2
 11
0
 20
-1.8
 21
-1.8
  0
LINE
  8
0
 10
0
 11
0
 20
-1.8
 21
2.4
  0
LINE
  8
0
 10
0
 11
-4.2
 20
2.4
 21
2.4
  0
LINE
  8
0
 10
-4.2
 11
-4.2
 20
2.4
 21
6.6
  0
LINE
  8
0
 10
-4.2
 11
0
 20
6.6
 21
6.6
  0
LINE
  8
0
 10
0
 11
0
 20
6.6
 21
10.8
  0
LINE
  8
0
 10
0
 11
-4.2
 20
10.8
 21
10.8
  0
LINE
  8
0
 10
-4.2
 11
-4.2
 20
10.8
 21
15
  0
LINE
  8
0
 10
-4.2
 11
0
 20
15
 21
15
  0
LINE
  8
0
 10
0
 11
0
 20
15
 21
19.2
  0
LINE
  8
0
 10
0
 11
-4.2
 20
19.2
 21
19.2
  0
LINE
  8
0
 10
-4.2
 11
-4.2
 20
19.2
 21
23.4
  0
LINE
  8
0
 10
-4.2
 11
4.2
 20
23.4
 21
23.4
  0
LINE
  8
0
 10
4.2
 11
4.2
 20
23.4
 21
19.2
  0
LINE
  8
0
 10
4.2
 11
8.4
 20
19.2
 21
19.2
  0
LINE
  8
0
 10
8.4
 11
8.4
 20
19.2
 21
23.4
  0
LINE
  8
0
 10
8.4
 11
12.6
 20
23.4
 21
23.4
  0
LINE
  8
0
 10
12.6
 11
12.6
 20
23.4
 21
19.2
  0
LINE
  8
0
 10
12.6
 11
16.8
 20
19.2
 21
19.2
  0
LINE
  8
0
 10
16.8
 11
16.8
 20
19.2
 21
23.4
  0
LINE
  8
0
 10
16.8
 11
21
 20
23.4
 21
23.4
  0
LINE
  8
0
 10
21
 11
21
 20
23.4
 21
19.2
  0
LINE
  8
0
 10
21
 11
25.2
 20
19.2
 21
19.2
  0
LINE
  8
0
 10
25.2
 11
25.2
 20
19.2
 21
23.4
  0
LINE
  8
0
 10
25.2
 11
29.4
 20
23.4
 21
23.4
  0
LINE
  8
0
 10
29.4
 11
29.4
 20
23.4
 21
19.2
  0
LINE
  8
0
 10
29.4
 11
33.6
 20
19.2
 21
19.2
  0
LINE
  8
0
 10
33.6
 11
33.6
 20
19.2
 21
23.4
  0
LINE
  8
0
 10
33.6
 11
37.8
 20
23.4
 21
23.4
  0
LINE
  8
0
 10
37.8
 11
37.8
 20
23.4
 21
19.2
  0
LINE
  8
0
 10
37.8
 11
42
 20
19.2
 21
19.2
  0
LINE
  8
0
 10
42
 11
42
 20
19.2
 21
23.4
  0
LINE
  8
0
 10
42
 11
46.2
 20
23.4
 21
23.4
  0
LINE
  8
0
 10
46.2
 11
46.2
 20
23.4
 21
19.2
  0
LINE
  8
0
 10
46.2
 11
50.4
 20
19.2
 21
19.2
  0
LINE
  8
0
 10
50.4
 11
50.4
 20
19.2
 21
23.4
  0
LINE
  8
0
 10
50.4
 11
54.6
 20
23.4
 21
23.4
  0
LINE
  8
0
 10
54.6
 11
54.6
 20
23.4
 21
19.2
  0
LINE
  8
0
 10
54.6
 11
58.8
 20
19.2
 21
19.2
  0
LINE
  8
0
 10
58.8
 11
58.8
 20
19.2
 21
23.4
  0
LINE
  8
0
 10
58.8
 11
63
 20
23.4
 21
23.4
  0
LINE
  8
0
 10
63
 11
63
 20
23.4
 21
19.2
  0
LINE
  8
0
 10
63
 11
67.2
 20
19.2
 21
19.2
  0
LINE
  8
0
 10
67.2
 11
67.2
 20
19.2
 21
23.4
  0
LINE
  8
0
 10
67.2
 11
71.4
 20
23.4
 21
23.4
  0
LINE
  8
0
 10
71.4
 11
71.4
 20
23.4
 21
19.2
  0
LINE
  8
0
 10
71.4
 11
75.6
 20
19.2
 21
19.2
  0
LINE
  8
0
 10
75.6
 11
75.6
 20
19.2
 21
23.4
  0
LINE
  8
0
 10
75.6
 11
79.8
 20
23.4
 21
23.4
  0
LINE
  8
0
 10
79.8
 11
79.8
 20
23.4
 21
19.2
  0
LINE
  8
0
 10
79.8
 11
84
 20
19.2
 21
19.2
  0
LINE
  8
0
 10
84
 11
84
 20
19.2
 21
23.4
  0
LINE
  8
0
 10
84
 11
88.2
 20
23.4
 21
23.4
  0
LINE
  8
0
 10
88.2
 11
88.2
 20
23.4
 21
19.2
  0
LINE
  8
0
 10
88.2
 11
92.4
 20
19.2
 21
19.2
  0
LINE
  8
0
 10
92.4
 11
92.4
 20
19.2
 21
23.4
  0
LINE
  8
0
 10
92.4
 11
96.6
 20
23.4
 21
23.4
  0
LINE
  8
0
 10
96.6
 11
96.6
 20
23.4
 21
19.2
  0
LINE
  8
0
 10
96.6
 11
100.8
 20
19.2
 21
19.2
  0
LINE
  8
0
 10
100.8
 11
100.8
 20
19.2
 21
23.4
  0
LINE
  8
0
 10
100.8
 11
105
 20
23.4
 21
23.4
  0
LINE
  8
0
 10
105
 11
105
 20
23.4
 21
15
  0
LINE
  8
0
 10
105
 11
100.8
 20
15
 21
15
  0
LINE
  8
0
 10
100.8
 11
100.8
 20
15
 21
10.8
  0
LINE
  8
0
 10
100.8
 11
105
 20
10.8
 21
10.8
  0
LINE
  8
0
 10
105
 11
105
 20
10.8
 21
6.6
  0
LINE
  8
0
 10
105
 11
100.8
 20
6.6
 21
6.6
  0
LINE
  8
0
 10
100.8
 11
100.8
 20
6.6
 21
2.4
  0
LINE
  8
0
 10
100.8
 11
105
 20
2.4
 21
2.4
  0
LINE
  8
0
 10
105
 11
105
 20
2.4
 21
-1.8
  0
LINE
  8
0
 10
105
 11
100.8
 20
-1.8
 21
-1.8
  0
LINE
  8
0
 10
100.8
 11
100.8
 20
-1.8
 21
-6
  0
LINE
  8
0
 10
100.8
 11
105
 20
-6
 21
-6
  0
LINE
  8
0
 10
105
 11
105
 20
-6
 21
-10.2
  0
LINE
  8
0
 10
105
 11
100.8
 20
-10.2
 21
-10.2
  0
LINE
  8
0
 10
100.8
 11
100.8
 20
-10.2
 21
-14.4
  0
LINE
  8
0
 10
100.8
 11
105
 20
-14.4
 21
-14.4
  0
LINE
  8
0
 10
105
 11
105
 20
-14.4
 21
-18.6
  0
LINE
  8
0
 10
105
 11
100.8
 20
-18.6
 21
-18.6
  0
LINE
  8
0
 10
100.8
 11
100.8
 20
-18.6
 21
-22.8
  0
LINE
  8
0
 10
100.8
 11
105
 20
-22.8
 21
-22.8
  0
LINE
  8
0
 10
105
 11
105
 20
-22.8
 21
-27
  0
LINE
  8
0
 10
105
 11
100.8
 20
-27
 21
-27
  0
LINE
  8
0
 10
100.8
 11
100.8
 20
-27
 21
-31.2
  0
LINE
  8
0
 10
100.8
 11
105
 20
-31.2
 21
-31.2
  0
LINE
  8
0
 10
105
 11
105
 20
-31.2
 21
-35.4
  0
LINE
  8
0
 10
105
 11
100.8
 20
-35.4
 21
-35.4
  0
LINE
  8
0
 10
100.8
 11
100.8
 20
-35.4
 21
-39.6
  0
LINE
  8
0
 10
100.8
 11
105
 20
-39.6
 21
-39.6
  0
LINE
  8
0
 10
105
 11
105
 20
-39.6
 21
-43.8
  0
LINE
  8
0
 10
105
 11
96.6
 20
-43.8
 21
-43.8
  0
LINE
  8
0
 10
96.6
 11
96.6
 20
-43.8
 21
-39.6
  0
LINE
  8
0
 10
96.6
 11
92.4
 20
-39.6
 21
-39.6
  0
LINE
  8
0
 10
92.4
 11
92.4
 20
-39.6
 21
-43.8
  0
LINE
  8
0
 10
92.4
 11
88.2
 20
-43.8
 21
-43.8
  0
LINE
  8
0
 10
88.2
 11
88.2
 20
-43.8
 21
-39.6
  0
LINE
  8
0
 10
88.2
 11
84
 20
-39.6
 21
-39.6
  0
LINE
  8
0
 10
84
 11
84
 20
-39.6
 21
-43.8
  0
LINE
  8
0
 10
84
 11
79.8
 20
-43.8
 21
-43.8
  0
LINE
  8
0
 10
79.8
 11
79.8
 20
-43.8
 21
-39.6
  0
LINE
  8
0
 10
79.8
 11
75.6
 20
-39.6
 21
-39.6
  0
LINE
  8
0
 10
75.6
 11
75.6
 20
-39.6
 21
-43.8
  0
LINE
  8
0
 10
75.6
 11
71.4
 20
-43.8
 21
-43.8
  0
LINE
  8
0
 10
71.4
 11
71.4
 20
-43.8
 21
-39.6
  0
LINE
  8
0
 10
71.4
 11
67.2
 20
-39.6
 21
-39.6
  0
LINE
  8
0
 10
67.2
 11
67.2
 20
-39.6
 21
-43.8
  0
LINE
  8
0
 10
67.2
 11
63
 20
-43.8
 21
-43.8
  0
LINE
  8
0
 10
63
 11
63
 20
-43.8
 21
-39.6
  0
LINE
  8
0
 10
63
 11
58.8
 20
-39.6
 21
-39.6
  0
LINE
  8
0
 10
58.8
 11
58.8
 20
-39.6
 21
-43.8
  0
LINE
  8
0
 10
58.8
 11
54.6
 20
-43.8
 21
-43.8
  0
LINE
  8
0
 10
54.6
 11
54.6
 20
-43.8
 21
-39.6
  0
LINE
  8
0
 10
54.6
 11
50.4
 20
-39.6
 21
-39.6
  0
LINE
  8
0
 10
50.4
 11
50.4
 20
-39.6
 21
-43.8
  0
LINE
  8
0
 10
50.4
 11
46.2
 20
-43.8
 21
-43.8
  0
LINE
  8
0
 10
46.2
 11
46.2
 20
-43.8
 21
-39.6
  0
LINE
  8
0
 10
46.2
 11
42
 20
-39.6
 21
-39.6
  0
LINE
  8
0
 10
42
 11
42
 20
-39.6
 21
-43.8
  0
LINE
  8
0
 10
42
 11
37.8
 20
-43.8
 21
-43.8
  0
LINE
  8
0
 10
37.8
 11
37.8
 20
-43.8
 21
-39.6
  0
LINE
  8
0
 10
37.8
 11
33.6
 20
-39.6
 21
-39.6
  0
LINE
  8
0
 10
33.6
 11
33.6
 20
-39.6
 21
-43.8
  0
LINE
  8
0
 10
33.6
 11
29.4
 20
-43.8
 21
-43.8
  0
LINE
  8
0
 10
29.4
 11
29.4
 20
-43.8
 21
-39.6
  0
LINE
  8
0
 10
29.4
 11
25.2
 20
-39.6
 21
-39.6
  0
LINE
  8
0
 10
25.2
 11
25.2
 20
-39.6
 21
-43.8
  0
LINE
  8
0
 10
25.2
 11
21
 20
-43.8
 21
-43.8
  0
LINE
  8
0
 10
21
 11
21
 20
-43.8
 21
-39.6
  0
LINE
  8
0
 10
21
 11
16.8
 20
-39.6
 21
-39.6
  0
LINE
  8
0
 10
16.8
 11
16.8
 20
-39.6
 21
-43.8
  0
LINE
  8
0
 10
16.8
 11
12.6
 20
-43.8
 21
-43.8
  0
LINE
  8
0
 10
12.6
 11
12.6
 20
-43.8
 21
-39.6
  0
LINE
  8
0
 10
12.6
 11
8.4
 20
-39.6
 21
-39.6
  0
LINE
  8
0
 10
8.4
 11
8.4
 20
-39.6
 21
-43.8
  0
LINE
  8
0
 10
8.4
 11
4.2
 20
-43.8
 21
-43.8
  0
LINE
  8
0
 10
4.2
 11
4.2
 20
-43.8
 21
-39.6
  0
LINE
  8
0
 10
4.2
 11
0
 20
-39.6
 21
-39.6
  0
LINE
  8
0
 10
0
 11
0
 20
-39.6
 21
-43.8
  0
LINE
  8
0
 10
0
 11
-4.2
 20
-43.8
 21
-43.8
  0
LINE
  8
0
 10
-4.2
 11
-4.2
 20
37.4
 21
45.8
  0
LINE
  8
0
 10
-4.2
 11
0
 20
45.8
 21
45.8
  0
LINE
  8
0
 10
0
 11
0
 20
45.8
 21
50
  0
LINE
  8
0
 10
0
 11
-4.2
 20
50
 21
50
  0
LINE
  8
0
 10
-4.2
 11
-4.2
 20
50
 21
54.2
  0
LINE
  8
0
 10
-4.2
 11
0
 20
54.2
 21
54.2
  0
LINE
  8
0
 10
0
 11
0
 20
54.2
 21
58.4
  0
LINE
  8
0
 10
0
 11
-4.2
 20
58.4
 21
58.4
  0
LINE
  8
0
 10
-4.2
 11
-4.2
 20
58.4
 21
62.6
  0
LINE
  8
0
 10
-4.2
 11
0
 20
62.6
 21
62.6
  0
LINE
  8
0
 10
0
 11
0
 20
62.6
 21
66.8
  0
LINE
  8
0
 10
0
 11
-4.2
 20
66.8
 21
66.8
  0
LINE
  8
0
 10
-4.2
 11
-4.2
 20
66.8
 21
71
  0
LINE
  8
0
 10
-4.2
 11
0
 20
71
 21
71
  0
LINE
  8
0
 10
0
 11
0
 20
71
 21
75.2
  0
LINE
  8
0
 10
0
 11
-4.2
 20
75.2
 21
75.2
  0
LINE
  8
0
 10
-4.2
 11
-4.2
 20
75.2
 21
79.4
  0
LINE
  8
0
 10
-4.2
 11
0
 20
79.4
 21
79.4
  0
LINE
  8
0
 10
0
 11
0
 20
79.4
 21
83.6
  0
LINE
  8
0
 10
0
 11
-4.2
 20
83.6
 21
83.6
  0
LINE
  8
0
 10
-4.2
 11
-4.2
 20
83.6
 21
87.8
  0
LINE
  8
0
 10
-4.2
 11
0
 20
87.8
 21
87.8
  0
LINE
  8
0
 10
0
 11
0
 20
87.8
 21
92
  0
LINE
  8
0
 10
0
 11
-4.2
 20
92
 21
92
  0
LINE
  8
0
 10
-4.2
 11
-4.2
 20
92
 21
96.2
  0
LINE
  8
0
 10
-4.2
 11
0
 20
96.2
 21
96.2
  0
LINE
  8
0
 10
0
 11
0
 20
96.2
 21
100.4
  0
LINE
  8
0
 10
0
 11
-4.2
 20
100.4
 21
100.4
  0
LINE
  8
0
 10
-4.2
 11
-4.2
 20
100.4
 21
104.6
  0
LINE
  8
0
 10
-4.2
 11
4.2
 20
104.6
 21
104.6
  0
LINE
  8
0
 10
4.2
 11
4.2
 20
104.6
 21
100.4
  0
LINE
  8
0
 10
4.2
 11
8.4
 20
100.4
 21
100.4
  0
LINE
  8
0
 10
8.4
 11
8.4
 20
100.4
 21
104.6
  0
LINE
  8
0
 10
8.4
 11
12.6
 20
104.6
 21
104.6
  0
LINE
  8
0
 10
12.6
 11
12.6
 20
104.6
 21
100.4
  0
LINE
  8
0
 10
12.6
 11
16.8
 20
100.4
 21
100.4
  0
LINE
  8
0
 10
16.8
 11
16.8
 20
100.4
 21
104.6
  0
LINE
  8
0
 10
16.8
 11
21
 20
104.6
 21
104.6
  0
LINE
  8
0
 10
21
 11
21
 20
104.6
 21
100.4
  0
LINE
  8
0
 10
21
 11
25.2
 20
100.4
 21
100.4
  0
LINE
  8
0
 10
25.2
 11
25.2
 20
100.4
 21
104.6
  0
LINE
  8
0
 10
25.2
 11
29.4
 20
104.6
 21
104.6
  0
LINE
  8
0
 10
29.4
 11
29.4
 20
104.6
 21
100.4
  0
LINE
  8
0
 10
29.4
 11
33.6
 20
100.4
 21
100.4
  0
LINE
  8
0
 10
33.6
 11
33.6
 20
100.4
 21
104.6
  0
LINE
  8
0
 10
33.6
 11
37.8
 20
104.6
 21
104.6
  0
LINE
  8
0
 10
37.8
 11
37.8
 20
104.6
 21
100.4
  0
LINE
  8
0
 10
37.8
 11
42
 20
100.4
 21
100.4
  0
LINE
  8
0
 10
42
 11
42
 20
100.4
 21
104.6
  0
LINE
  8
0
 10
42
 11
46.2
 20
104.6
 21
104.6
  0
LINE
  8
0
 10
46.2
 11
46.2
 20
104.6
 21
100.4
  0
LINE
  8
0
 10
46.2
 11
50.4
 20
100.4
 21
100.4
  0
LINE
  8
0
 10
50.4
 11
50.4
 20
100.4
 21
104.6
  0
LINE
  8
0
 10
50.4
 11
54.6
 20
104.6
 21
104.6
  0
LINE
  8
0
 10
54.6
 11
54.6
 20
104.6
 21
100.4
  0
LINE
  8
0
 10
54.6
 11
58.8
 20
100.4
 21
100.4
  0
LINE
  8
0
 10
58.8
 11
58.8
 20
100.4
 21
104.6
  0
LINE
  8
0
 10
58.8
 11
63
 20
104.6
 21
104.6
  0
LINE
  8
0
 10
63
 11
63
 20
104.6
 21
100.4
  0
LINE
  8
0
 10
63
 11
67.2
 20
100.4
 21
100.4
  0
LINE
  8
0
 10
67.2
 11
67.2
 20
100.4
 21
104.6
  0
LINE
  8
0
 10
67.2
 11
71.4
 20
104.6
 21
104.6
  0
LINE
  8
0
 10
71.4
 11
71.4
 20
104.6
 21
100.4
  0
LINE
  8
0
 10
71.4
 11
75.6
 20
100.4
 21
100.4
  0
LINE
  8
0
 10
75.6
 11
75.6
 20
100.4
 21
104.6
  0
LINE
  8
0
 10
75.6
 11
79.8
 20
104.6
 21
104.6
  0
LINE
  8
0
 10
79.8
 11
79.8
 20
104.6
 21
100.4
  0
LINE
  8
0
 10
79.8
 11
84
 20
100.4
 21
100.4
  0
LINE
  8
0
 10
84
 11
84
 20
100.4
 21
104.6
  0
LINE
  8
0
 10
84
 11
88.2
 20
104.6
 21
104.6
  0
LINE
  8
0
 10
88.2
 11
88.2
 20
104.6
 21
100.4
  0
LINE
  8
0
 10
88.2
 11
92.4
 20
100.4
 21
100.4
  0
LINE
  8
0
 10
92.4
 11
92.4
 20
100.4
 21
104.6
  0
LINE
  8
0
 10
92.4
 11
96.6
 20
104.6
 21
104.6
  0
LINE
  8
0
 10
96.6
 11
96.6
 20
104.6
 21
100.4
  0
LINE
  8
0
 10
96.6
 11
100.8
 20
100.4
 21
100.4
  0
LINE
  8
0
 10
100.8
 11
100.8
 20
100.4
 21
104.6
  0
LINE
  8
0
 10
100.8
 11
105
 20
104.6
 21
104.6
  0
LINE
  8
0
 10
105
 11
105
 20
104.6
 21
96.2
  0
LINE
  8
0
 10
105
 11
100.8
 20
96.2
 21
96.2
  0
LINE
  8
0
 10
100.8
 11
100.8
 20
96.2
 21
92
  0
LINE
  8
0
 10
100.8
 11
105
 20
92
 21
92
  0
LINE
  8
0
 10
105
 11
105
 20
92
 21
87.8
  0
LINE
  8
0
 10
105
 11
100.8
 20
87.8
 21
87.8
  0
LINE
  8
0
 10
100.8
 11
100.8
 20
87.8
 21
83.6
  0
LINE
  8
0
 10
100.8
 11
105
 20
83.6
 21
83.6
  0
LINE
  8
0
 10
105
 11
105
 20
83.6
 21
79.4
  0
LINE
  8
0
 10
105
 11
100.8
 20
79.4
 21
79.4
  0
LINE
  8
0
 10
100.8
 11
100.8
 20
79.4
 21
75.2
  0
LINE
  8
0
 10
100.8
 11
105
 20
75.2
 21
75.2
  0
LINE
  8
0
 10
105
 11
105
 20
75.2
 21
71
  0
LINE
  8
0
 10
105
 11
100.8
 20
71
 21
71
  0
LINE
  8
0
 10
100.8
 11
100.8
 20
71
 21
66.8
  0
LINE
  8
0
 10
100.8
 11
105
 20
66.8
 21
66.8
  0
LINE
  8
0
 10
105
 11
105
 20
66.8
 21
62.6
  0
LINE
  8
0
 10
105
 11
100.8
 20
62.6
 21
62.6
  0
LINE
  8
0
 10
100.8
 11
100.8
 20
62.6
 21
58.4
  0
LINE
  8
0
 10
100.8
 11
105
 20
58.4
 21
58.4
  0
LINE
  8
0
 10
105
 11
105
 20
58.4
 21
54.2
  0
LINE
  8
0
 10
105
 11
100.8
 20
54.2
 21
54.2
  0
LINE
  8
0
 10
100.8
 11
100.8
 20
54.2
 21
50
  0
LINE
  8
0
 10
100.8
 11
105
 20
50
 21
50
  0
LINE
  8
0
 10
105
 11
105
 20
50
 21
45.8
  0
LINE
  8
0
 10
105
 11
100.8
 20
45.8
 21
45.8
  0
LINE
  8
0
 10
100.8
 11
100.8
 20
45.8
 21
41.6
  0
LINE
  8
0
 10
100.8
 11
105
 20
41.6
 21
41.6
  0
LINE
  8
0
 10
105
 11
105
 20
41.6
 21
37.4
  0
LINE
  8
0
 10
105
 11
96.6
 20
37.4
 21
37.4
  0
LINE
  8
0
 10
96.6
 11
96.6
 20
37.4
 21
41.6
  0
LINE
  8
0
 10
96.6
 11
92.4
 20
41.6
 21
41.6
  0
LINE
  8
0
 10
92.4
 11
92.4
 20
41.6
 21
37.4
  0
LINE
  8
0
 10
92.4
 11
88.2
 20
37.4
 21
37.4
  0
LINE
  8
0
 10
88.2
 11
88.2
 20
37.4
 21
41.6
  0
LINE
  8
0
 10
88.2
 11
84
 20
41.6
 21
41.6
  0
LINE
  8
0
 10
84
 11
84
 20
41.6
 21
37.4
  0
LINE
  8
0
 10
84
 11
79.8
 20
37.4
 21
37.4
  0
LINE
  8
0
 10
79.8
 11
79.8
 20
37.4
 21
41.6
  0
LINE
  8
0
 10
79.8
 11
75.6
 20
41.6
 21
41.6
  0
LINE
  8
0
 10
75.6
 11
75.6
 20
41.6
 21
37.4
  0
LINE
  8
0
 10
75.6
 11
71.4
 20
37.4
 21
37.4
  0
LINE
  8
0
 10
71.4
 11
71.4
 20
37.4
 21
41.6
  0
LINE
  8
0
 10
71.4
 11
67.2
 20
41.6
 21
41.6
  0
LINE
  8
0
 10
67.2
 11
67.2
 20
41.6
 21
37.4
  0
LINE
  8
0
 10
67.2
 11
63
 20
37.4
 21
37.4
  0
LINE
  8
0
 10
63
 11
63
 20
37.4
 21
41.6
  0
LINE
  8
0
 10
63
 11
58.8
 20
41.6
 21
41.6
  0
LINE
  8
0
 10
58.8
 11
58.8
 20
41.6
 21
37.4
  0
LINE
  8
0
 10
58.8
 11
54.6
 20
37.4
 21
37.4
  0
LINE
  8
0
 10
54.6
 11
54.6
 20
37.4
 21
41.6
  0
LINE
  8
0
 10
54.6
 11
50.4
 20
41.6
 21
41.6
  0
LINE
  8
0
 10
50.4
 11
50.4
 20
41.6
 21
37.4
  0
LINE
  8
0
 10
50.4
 11
46.2
 20
37.4
 21
37.4
  0
LINE
  8
0
 10
46.2
 11
46.2
 20
37.4
 21
41.6
  0
LINE
  8
0
 10
46.2
 11
42
 20
41.6
 21
41.6
  0
LINE
  8
0
 10
42
 11
42
 20
41.6
 21
37.4
  0
LINE
  8
0
 10
42
 11
37.8
 20
37.4
 21
37.4
  0
LINE
  8
0
 10
37.8
 11
37.8
 20
37.4
 21
41.6
  0
LINE
  8
0
 10
37.8
 11
33.6
 20
41.6
 21
41.6
  0
LINE
  8
0
 10
33.6
 11
33.6
 20
41.6
 21
37.4
  0
LINE
  8
0
 10
33.6
 11
29.4
 20
37.4
 21
37.4
  0
LINE
  8
0
 10
29.4
 11
29.4
 20
37.4
 21
41.6
  0
LINE
  8
0
 10
29.4
 11
25.2
 20
41.6
 21
41.6
  0
LINE
  8
0
 10
25.2
 11
25.2
 20
41.6
 21
37.4
  0
LINE
  8
0
 10
25.2
 11
21
 20
37.4
 21
37.4
  0
LINE
  8
0
 10
21
 11
21
 20
37.4
 21
41.6
  0
LINE
  8
0
 10
21
 11
16.8
 20
41.6
 21
41.6
  0
LINE
  8
0
 10
16.8
 11
16.8
 20
41.6
 21
37.4
  0
LINE
  8
0
 10
16.8
 11
12.6
 20
37.4
 21
37.4
  0
LINE
  8
0
 10
12.6
 11
12.6
 20
37.4
 21
41.6
  0
LINE
  8
0
 10
12.6
 11
8.4
 20
41.6
 21
41.6
  0
LINE
  8
0
 10
8.4
 11
8.4
 20
41.6
 21
37.4
  0
LINE
  8
0
 10
8.4
 11
4.2
 20
37.4
 21
37.4
  0
LINE
  8
0
 10
4.2
 11
4.2
 20
37.4
 21
41.6
  0
LINE
  8
0
 10
4.2
 11
0
 20
41.6
 21
41.6
  0
LINE
  8
0
 10
0
 11
0
 20
41.6
 21
37.4
  0
LINE
  8
0
 10
0
 11
-4.2
 20
37.4
 21
37.4
  0
LINE
  8
0
 10
109.2
 11
109.2
 20
-30.16
 21
-25.96
  0
LINE
  8
0
 10
109.2
 11
113.4
 20
-25.96
 21
-25.96
  0
LINE
  8
0
 10
113.4
 11
113.4
 20
-25.96
 21
-21.76
  0
LINE
  8
0
 10
113.4
 11
109.2
 20
-21.76
 21
-21.76
  0
LINE
  8
0
 10
109.2
 11
109.2
 20
-21.76
 21
-17.56
  0
LINE
  8
0
 10
109.2
 11
113.4
 20
-17.56
 21
-17.56
  0
LINE
  8
0
 10
113.4
 11
113.4
 20
-17.56
 21
-13.36
  0
LINE
  8
0
 10
113.4
 11
109.2
 20
-13.36
 21
-13.36
  0
LINE
  8
0
 10
109.2
 11
109.2
 20
-13.36
 21
-9.16
  0
LINE
  8
0
 10
109.2
 11
113.4
 20
-9.16
 21
-9.16
  0
LINE
  8
0
 10
113.4
 11
113.4
 20
-9.16
 21
-4.96
  0
LINE
  8
0
 10
113.4
 11
109.2
 20
-4.96
 21
-4.96
  0
LINE
  8
0
 10
109.2
 11
109.2
 20
-4.96
 21
-0.76
  0
LINE
  8
0
 10
109.2
 11
113.4
 20
-0.76
 21
-0.76
  0
LINE
  8
0
 10
113.4
 11
113.4
 20
-0.76
 21
3.44
  0
LINE
  8
0
 10
113.4
 11
109.2
 20
3.44
 21
3.44
  0
LINE
  8
0
 10
109.2
 11
109.2
 20
3.44
 21
7.64
  0
LINE
  8
0
 10
109.2
 11
113.4
 20
7.64
 21
7.64
  0
LINE
  8
0
 10
113.4
 11
113.4
 20
7.64
 21
11.84
  0
LINE
  8
0
 10
113.4
 11
109.2
 20
11.84
 21
11.84
  0
LINE
  8
0
 10
109.2
 11
109.2
 20
11.84
 21
16.04
  0
LINE
  8
0
 10
109.2
 11
113.4
 20
16.04
 21
16.04
  0
LINE
  8
0
 10
113.4
 11
113.4
 20
16.04
 21
20.24
  0
LINE
  8
0
 10
113.4
 11
109.2
 20
20.24
 21
20.24
  0
LINE
  8
0
 10
109.2
 11
109.2
 20
20.24
 21
24.44
  0
LINE
  8
0
 10
109.2
 11
113.4
 20
24.44
 21
24.44
  0
LINE
  8
0
 10
113.4
 11
113.4
 20
24.44
 21
28.64
  0
LINE
  8
0
 10
113.4
 11
109.2
 20
28.64
 21
28.64
  0
LINE
  8
0
 10
109.2
 11
109.2
 20
28.64
 21
32.84
  0
LINE
  8
0
 10
109.2
 11
113.4
 20
32.84
 21
32.84
  0
LINE
  8
0
 10
113.4
 11
113.4
 20
32.84
 21
37.04
  0
LINE
  8
0
 10
113.4
 11
109.2
 20
37.04
 21
37.04
  0
LINE
  8
0
 10
109.2
 11
109.2
 20
37.04
 21
41.24
  0
LINE
  8
0
 10
109.2
 11
113.4
 20
41.24
 21
41.24
  0
LINE
  8
0
 10
113.4
 11
113.4
 20
41.24
 21
45.44
  0
LINE
  8
0
 10
113.4
 11
109.2
 20
45.44
 21
45.44
  0
LINE
  8
0
 10
109.2
 11
109.2
 20
45.44
 21
49.64
  0
LINE
  8
0
 10
109.2
 11
113.4
 20
49.64
 21
49.64
  0
LINE
  8
0
 10
113.4
 11
113.4
 20
49.64
 21
53.84
  0
LINE
  8
0
 10
113.4
 11
109.2
 20
53.84
 21
53.84
  0
LINE
  8
0
 10
109.2
 11
109.2
 20
53.84
 21
58.04
  0
LINE
  8
0
 10
109.2
 11
113.4
 20
58.04
 21
58.04
  0
LINE
  8
0
 10
113.4
 11
113.4
 20
58.04
 21
62.24
  0
LINE
  8
0
 10
113.4
 11
109.2
 20
62.24
 21
62.24
  0
LINE
  8
0
 10
109.2
 11
109.2
 20
62.24
 21
66.44
  0
LINE
  8
0
 10
109.2
 11
113.4
 20
66.44
 21
66.44
  0
LINE
  8
0
 10
113.4
 11
113.4
 20
66.44
 21
74.84
  0
LINE
  8
0
 10
113.4
 11
117.6
 20
74.84
 21
74.84
  0
LINE
  8
0
 10
117.6
 11
117.6
 20
74.84
 21
70.64
  0
LINE
  8
0
 10
117.6
 11
121.8
 20
70.64
 21
70.64
  0
LINE
  8
0
 10
121.8
 11
121.8
 20
70.64
 21
74.84
  0
LINE
  8
0
 10
121.8
 11
126
 20
74.84
 21
74.84
  0
LINE
  8
0
 10
126
 11
126
 20
74.84
 21
70.64
  0
LINE
  8
0
 10
126
 11
130.2
 20
70.64
 21
70.64
  0
LINE
  8
0
 10
130.2
 11
130.2
 20
70.64
 21
74.84
  0
LINE
  8
0
 10
130.2
 11
134.4
 20
74.84
 21
74.84
  0
LINE
  8
0
 10
134.4
 11
134.4
 20
74.84
 21
70.64
  0
LINE
  8
0
 10
134.4
 11
138.6
 20
70.64
 21
70.64
  0
LINE
  8
0
 10
138.6
 11
138.6
 20
70.64
 21
74.84
  0
LINE
  8
0
 10
138.6
 11
142.8
 20
74.84
 21
74.84
  0
LINE
  8
0
 10
142.8
 11
142.8
 20
74.84
 21
70.64
  0
LINE
  8
0
 10
142.8
 11
151.2
 20
70.64
 21
70.64
  0
LINE
  8
0
 10
151.2
 11
151.2
 20
70.64
 21
66.44
  0
LINE
  8
0
 10
151.2
 11
147
 20
66.44
 21
66.44
  0
LINE
  8
0
 10
147
 11
147
 20
66.44
 21
62.24
  0
LINE
  8
0
 10
147
 11
151.2
 20
62.24
 21
62.24
  0
LINE
  8
0
 10
151.2
 11
151.2
 20
62.24
 21
58.04
  0
LINE
  8
0
 10
151.2
 11
147
 20
58.04
 21
58.04
  0
LINE
  8
0
 10
147
 11
147
 20
58.04
 21
53.84
  0
LINE
  8
0
 10
147
 11
151.2
 20
53.84
 21
53.84
  0
LINE
  8
0
 10
151.2
 11
151.2
 20
53.84
 21
49.64
  0
LINE
  8
0
 10
151.2
 11
147
 20
49.64
 21
49.64
  0
LINE
  8
0
 10
147
 11
147
 20
49.64
 21
45.44
  0
LINE
  8
0
 10
147
 11
151.2
 20
45.44
 21
45.44
  0
LINE
  8
0
 10
151.2
 11
151.2
 20
45.44
 21
41.24
  0
LINE
  8
0
 10
151.2
 11
147
 20
41.24
 21
41.24
  0
LINE
  8
0
 10
147
 11
147
 20
41.24
 21
37.04
  0
LINE
  8
0
 10
147
 11
151.2
 20
37.04
 21
37.04
  0
LINE
  8
0
 10
151.2
 11
151.2
 20
37.04
 21
32.84
  0
LINE
  8
0
 10
151.2
 11
147
 20
32.84
 21
32.84
  0
LINE
  8
0
 10
147
 11
147
 20
32.84
 21
28.64
  0
LINE
  8
0
 10
147
 11
151.2
 20
28.64
 21
28.64
  0
LINE
  8
0
 10
151.2
 11
151.2
 20
28.64
 21
24.44
  0
LINE
  8
0
 10
151.2
 11
147
 20
24.44
 21
24.44
  0
LINE
  8
0
 10
147
 11
147
 20
24.44
 21
20.24
  0
LINE
  8
0
 10
147
 11
151.2
 20
20.24
 21
20.24
  0
LINE
  8
0
 10
151.2
 11
151.2
 20
20.24
 21
16.04
  0
LINE
  8
0
 10
151.2
 11
147
 20
16.04
 21
16.04
  0
LINE
  8
0
 10
147
 11
147
 20
16.04
 21
11.84
  0
LINE
  8
0
 10
147
 11
151.2
 20
11.84
 21
11.84
  0
LINE
  8
0
 10
151.2
 11
151.2
 20
11.84
 21
7.64
  0
LINE
  8
0
 10
151.2
 11
147
 20
7.64
 21
7.64
  0
LINE
  8
0
 10
147
 11
147
 20
7.64
 21
3.44
  0
LINE
  8
0
 10
147
 11
151.2
 20
3.44
 21
3.44
  0
LINE
  8
0
 10
151.2
 11
151.2
 20
3.44
 21
-0.76
  0
LINE
  8
0
 10
151.2
 11
147
 20
-0.76
 21
-0.76
  0
LINE
  8
0
 10
147
 11
147
 20
-0.76
 21
-4.96
  0
LINE
  8
0
 10
147
 11
151.2
 20
-4.96
 21
-4.96
  0
LINE
  8
0
 10
151.2
 11
151.2
 20
-4.96
 21
-9.16
  0
LINE
  8
0
 10
151.2
 11
147
 20
-9.16
 21
-9.16
  0
LINE
  8
0
 10
147
 11
147
 20
-9.16
 21
-13.36
  0
LINE
  8
0
 10
147
 11
151.2
 20
-13.36
 21
-13.36
  0
LINE
  8
0
 10
151.2
 11
151.2
 20
-13.36
 21
-17.56
  0
LINE
  8
0
 10
151.2
 11
147
 20
-17.56
 21
-17.56
  0
LINE
  8
0
 10
147
 11
147
 20
-17.56
 21
-21.76
  0
LINE
  8
0
 10
147
 11
151.2
 20
-21.76
 21
-21.76
  0
LINE
  8
0
 10
151.2
 11
151.2
 20
-21.76
 21
-25.96
  0
LINE
  8
0
 10
151.2
 11
147
 20
-25.96
 21
-25.96
  0
LINE
  8
0
 10
147
 11
147
 20
-25.96
 21
-34.36
  0
LINE
  8
0
 10
147
 11
142.8
 20
-34.36
 21
-34.36
  0
LINE
  8
0
 10
142.8
 11
142.8
 20
-34.36
 21
-30.16
  0
LINE
  8
0
 10
142.8
 11
138.6
 20
-30.16
 21
-30.16
  0
LINE
  8
0
 10
138.6
 11
138.6
 20
-30.16
 21
-34.36
  0
LINE
  8
0
 10
138.6
 11
134.4
 20
-34.36
 21
-34.36
  0
LINE
  8
0
 10
134.4
 11
134.4
 20
-34.36
 21
-30.16
  0
LINE
  8
0
 10
134.4
 11
130.2
 20
-30.16
 21
-30.16
  0
LINE
  8
0
 10
130.2
 11
130.2
 20
-30.16
 21
-34.36
  0
LINE
  8
0
 10
130.2
 11
126
 20
-34.36
 21
-34.36
  0
LINE
  8
0
 10
126
 11
126
 20
-34.36
 21
-30.16
  0
LINE
  8
0
 10
126
 11
121.8
 20
-30.16
 21
-30.16
  0
LINE
  8
0
 10
121.8
 11
121.8
 20
-30.16
 21
-34.36
  0
LINE
  8
0
 10
121.8
 11
117.6
 20
-34.36
 21
-34.36
  0
LINE
  8
0
 10
117.6
 11
117.6
 20
-34.36
 21
-30.16
  0
LINE
  8
0
 10
117.6
 11
109.2
 20
-30.16
 21
-30.16
  0
LINE
  8
0
 10
156.24
 11
156.24
 20
-30.16
 21
-25.96
  0
LINE
  8
0
 10
156.24
 11
160.44
 20
-25.96
 21
-25.96
  0
LINE
  8
0
 10
160.44
 11
160.44
 20
-25.96
 21
-21.76
  0
LINE
  8
0
 10
160.44
 11
156.24
 20
-21.76
 21
-21.76
  0
LINE
  8
0
 10
156.24
 11
156.24
 20
-21.76
 21
-17.56
  0
LINE
  8
0
 10
156.24
 11
160.44
 20
-17.56
 21
-17.56
  0
LINE
  8
0
 10
160.44
 11
160.44
 20
-17.56
 21
-13.36
  0
LINE
  8
0
 10
160.44
 11
156.24
 20
-13.36
 21
-13.36
  0
LINE
  8
0
 10
156.24
 11
156.24
 20
-13.36
 21
-9.16
  0
LINE
  8
0
 10
156.24
 11
160.44
 20
-9.16
 21
-9.16
  0
LINE
  8
0
 10
160.44
 11
160.44
 20
-9.16
 21
-4.96
  0
LINE
  8
0
 10
160.44
 11
156.24
 20
-4.96
 21
-4.96
  0
LINE
  8
0
 10
156.24
 11
156.24
 20
-4.96
 21
-0.76
  0
LINE
  8
0
 10
156.24
 11
160.44
 20
-0.76
 21
-0.76
  0
LINE
  8
0
 10
160.44
 11
160.44
 20
-0.76
 21
3.44
  0
LINE
  8
0
 10
160.44
 11
156.24
 20
3.44
 21
3.44
  0
LINE
  8
0
 10
156.24
 11
156.24
 20
3.44
 21
7.64
  0
LINE
  8
0
 10
156.24
 11
160.44
 20
7.64
 21
7.64
  0
LINE
  8
0
 10
160.44
 11
160.44
 20
7.64
 21
11.84
  0
LINE
  8
0
 10
160.44
 11
156.24
 20
11.84
 21
11.84
  0
LINE
  8
0
 10
156.24
 11
156.24
 20
11.84
 21
16.04
  0
LINE
  8
0
 10
156.24
 11
160.44
 20
16.04
 21
16.04
  0
LINE
  8
0
 10
160.44
 11
160.44
 20
16.04
 21
20.24
  0
LINE
  8
0
 10
160.44
 11
156.24
 20
20.24
 21
20.24
  0
LINE
  8
0
 10
156.24
 11
156.24
 20
20.24
 21
24.44
  0
LINE
  8
0
 10
156.24
 11
160.44
 20
24.44
 21
24.44
  0
LINE
  8
0
 10
160.44
 11
160.44
 20
24.44
 21
28.64
  0
LINE
  8
0
 10
160.44
 11
156.24
 20
28.64
 21
28.64
  0
LINE
  8
0
 10
156.24
 11
156.24
 20
28.64
 21
32.84
  0
LINE
  8
0
 10
156.24
 11
160.44
 20
32.84
 21
32.84
  0
LINE
  8
0
 10
160.44
 11
160.44
 20
32.84
 21
37.04
  0
LINE
  8
0
 10
160.44
 11
156.24
 20
37.04
 21
37.04
  0
LINE
  8
0
 10
156.24
 11
156.24
 20
37.04
 21
41.24
  0
LINE
  8
0
 10
156.24
 11
160.44
 20
41.24
 21
41.24
  0
LINE
  8
0
 10
160.44
 11
160.44
 20
41.24
 21
45.44
  0
LINE
  8
0
 10
160.44
 11
156.24
 20
45.44
 21
45.44
  0
LINE
  8
0
 10
156.24
 11
156.24
 20
45.44
 21
49.64
  0
LINE
  8
0
 10
156.24
 11
160.44
 20
49.64
 21
49.64
  0
LINE
  8
0
 10
160.44
 11
160.44
 20
49.64
 21
53.84
  0
LINE
  8
0
 10
160.44
 11
156.24
 20
53.84
 21
53.84
  0
LINE
  8
0
 10
156.24
 11
156.24
 20
53.84
 21
58.04
  0
LINE
  8
0
 10
156.24
 11
160.44
 20
58.04
 21
58.04
  0
LINE
  8
0
 10
160.44
 11
160.44
 20
58.04
 21
62.24
  0
LINE
  8
0
 10
160.44
 11
156.24
 20
62.24
 21
62.24
  0
LINE
  8
0
 10
156.24
 11
156.24
 20
62.24
 21
66.44
  0
LINE
  8
0
 10
156.24
 11
160.44
 20
66.44
 21
66.44
  0
LINE
  8
0
 10
160.44
 11
160.44
 20
66.44
 21
74.84
  0
LINE
  8
0
 10
160.44
 11
164.64
 20
74.84
 21
74.84
  0
LINE
  8
0
 10
164.64
 11
164.64
 20
74.84
 21
70.64
  0
LINE
  8
0
 10
164.64
 11
168.84
 20
70.64
 21
70.64
  0
LINE
  8
0
 10
168.84
 11
168.84
 20
70.64
 21
74.84
  0
LINE
  8
0
 10
168.84
 11
173.04
 20
74.84
 21
74.84
  0
LINE
  8
0
 10
173.04
 11
173.04
 20
74.84
 21
70.64
  0
LINE
  8
0
 10
173.04
 11
177.24
 20
70.64
 21
70.64
  0
LINE
  8
0
 10
177.24
 11
177.24
 20
70.64
 21
74.84
  0
LINE
  8
0
 10
177.24
 11
181.44
 20
74.84
 21
74.84
  0
LINE
  8
0
 10
181.44
 11
181.44
 20
74.84
 21
70.64
  0
LINE
  8
0
 10
181.44
 11
185.64
 20
70.64
 21
70.64
  0
LINE
  8
0
 10
185.64
 11
185.64
 20
70.64
 21
74.84
  0
LINE
  8
0
 10
185.64
 11
189.84
 20
74.84
 21
74.84
  0
LINE
  8
0
 10
189.84
 11
189.84
 20
74.84
 21
70.64
  0
LINE
  8
0
 10
189.84
 11
198.24
 20
70.64
 21
70.64
  0
LINE
  8
0
 10
198.24
 11
198.24
 20
70.64
 21
66.44
  0
LINE
  8
0
 10
198.24
 11
194.04
 20
66.44
 21
66.44
  0
LINE
  8
0
 10
194.04
 11
194.04
 20
66.44
 21
62.24
  0
LINE
  8
0
 10
194.04
 11
198.24
 20
62.24
 21
62.24
  0
LINE
  8
0
 10
198.24
 11
198.24
 20
62.24
 21
58.04
  0
LINE
  8
0
 10
198.24
 11
194.04
 20
58.04
 21
58.04
  0
LINE
  8
0
 10
194.04
 11
194.04
 20
58.04
 21
53.84
  0
LINE
  8
0
 10
194.04
 11
198.24
 20
53.84
 21
53.84
  0
LINE
  8
0
 10
198.24
 11
198.24
 20
53.84
 21
49.64
  0
LINE
  8
0
 10
198.24
 11
194.04
 20
49.64
 21
49.64
  0
LINE
  8
0
 10
194.04
 11
194.04
 20
49.64
 21
45.44
  0
LINE
  8
0
 10
194.04
 11
198.24
 20
45.44
 21
45.44
  0
LINE
  8
0
 10
198.24
 11
198.24
 20
45.44
 21
41.24
  0
LINE
  8
0
 10
198.24
 11
194.04
 20
41.24
 21
41.24
  0
LINE
  8
0
 10
194.04
 11
194.04
 20
41.24
 21
37.04
  0
LINE
  8
0
 10
194.04
 11
198.24
 20
37.04
 21
37.04
  0
LINE
  8
0
 10
198.24
 11
198.24
 20
37.04
 21
32.84
  0
LINE
  8
0
 10
198.24
 11
194.04
 20
32.84
 21
32.84
  0
LINE
  8
0
 10
194.04
 11
194.04
 20
32.84
 21
28.64
  0
LINE
  8
0
 10
194.04
 11
198.24
 20
28.64
 21
28.64
  0
LINE
  8
0
 10
198.24
 11
198.24
 20
28.64
 21
24.44
  0
LINE
  8
0
 10
198.24
 11
194.04
 20
24.44
 21
24.44
  0
LINE
  8
0
 10
194.04
 11
194.04
 20
24.44
 21
20.24
  0
LINE
  8
0
 10
194.04
 11
198.24
 20
20.24
 21
20.24
  0
LINE
  8
0
 10
198.24
 11
198.24
 20
20.24
 21
16.04
  0
LINE
  8
0
 10
198.24
 11
194.04
 20
16.04
 21
16.04
  0
LINE
  8
0
 10
194.04
 11
194.04
 20
16.04
 21
11.84
  0
LINE
  8
0
 10
194.04
 11
198.24
 20
11.84
 21
11.84
  0
LINE
  8
0
 10
198.24
 11
198.24
 20
11.84
 21
7.64
  0
LINE
  8
0
 10
198.24
 11
194.04
 20
7.64
 21
7.64
  0
LINE
  8
0
 10
194.04
 11
194.04
 20
7.64
 21
3.44
  0
LINE
  8
0
 10
194.04
 11
198.24
 20
3.44
 21
3.44
  0
LINE
  8
0
 10
198.24
 11
198.24
 20
3.44
 21
-0.76
  0
LINE
  8
0
 10
198.24
 11
194.04
 20
-0.76
 21
-0.76
  0
LINE
  8
0
 10
194.04
 11
194.04
 20
-0.76
 21
-4.96
  0
LINE
  8
0
 10
194.04
 11
198.24
 20
-4.96
 21
-4.96
  0
LINE
  8
0
 10
198.24
 11
198.24
 20
-4.96
 21
-9.16
  0
LINE
  8
0
 10
198.24
 11
194.04
 20
-9.16
 21
-9.16
  0
LINE
  8
0
 10
194.04
 11
194.04
 20
-9.16
 21
-13.36
  0
LINE
  8
0
 10
194.04
 11
198.24
 20
-13.36
 21
-13.36
  0
LINE
  8
0
 10
198.24
 11
198.24
 20
-13.36
 21
-17.56
  0
LINE
  8
0
 10
198.24
 11
194.04
 20
-17.56
 21
-17.56
  0
LINE
  8
0
 10
194.04
 11
194.04
 20
-17.56
 21
-21.76
  0
LINE
  8
0
 10
194.04
 11
198.24
 20
-21.76
 21
-21.76
  0
LINE
  8
0
 10
198.24
 11
198.24
 20
-21.76
 21
-25.96
  0
LINE
  8
0
 10
198.24
 11
194.04
 20
-25.96
 21
-25.96
  0
LINE
  8
0
 10
194.04
 11
194.04
 20
-25.96
 21
-34.36
  0
LINE
  8
0
 10
194.04
 11
189.84
 20
-34.36
 21
-34.36
  0
LINE
  8
0
 10
189.84
 11
189.84
 20
-34.36
 21
-30.16
  0
LINE
  8
0
 10
189.84
 11
185.64
 20
-30.16
 21
-30.16
  0
LINE
  8
0
 10
185.64
 11
185.64
 20
-30.16
 21
-34.36
  0
LINE
  8
0
 10
185.64
 11
181.44
 20
-34.36
 21
-34.36
  0
LINE
  8
0
 10
181.44
 11
181.44
 20
-34.36
 21
-30.16
  0
LINE
  8
0
 10
181.44
 11
177.24
 20
-30.16
 21
-30.16
  0
LINE
  8
0
 10
177.24
 11
177.24
 20
-30.16
 21
-34.36
  0
LINE
  8
0
 10
177.24
 11
173.04
 20
-34.36
 21
-34.36
  0
LINE
  8
0
 10
173.04
 11
173.04
 20
-34.36
 21
-30.16
  0
LINE
  8
0
 10
173.04
 11
168.84
 20
-30.16
 21
-30.16
  0
LINE
  8
0
 10
168.84
 11
168.84
 20
-30.16
 21
-34.36
  0
LINE
  8
0
 10
168.84
 11
164.64
 20
-34.36
 21
-34.36
  0
LINE
  8
0
 10
164.64
 11
164.64
 20
-34.36
 21
-30.16
  0
LINE
  8
0
 10
164.64
 11
156.24
 20
-30.16
 21
-30.16
  0
ENDSEC
  0
SECTION
  2
OBJECTS
  0
DICTIONARY
  0
ENDSEC
  0
EOF
