<?xml version="1.0" standalone="no"?>
<!DOCTYPE svg PUBLIC "-//W3C//DTD SVG 1.1//EN" "http://www.w3.org/Graphics/SVG/1.1/DTD/svg11.dtd">
<svg width="32" height="32" viewBox="-16 -16 32 32" xmlns="http://www.w3.org/2000/svg" version="1.1">
<title>OpenSCAD Model</title>
<path d="
M 0.684174,15.2346 L 1.13963,15.2074 L 1.59406,15.1665 L 2.04704,15.112 L 2.49821,15.044 L 2.94714,14.9625
 L 3.39343,14.8676 L 3.83669,14.7595 L 4.2765,14.6381 L 4.71251,14.5036 L 5.14427,14.3561 L 5.57144,14.1958
 L 5.99362,14.0228 L 6.41045,13.8372 L 6.82152,13.6393 L 7.22649,13.4291 L 7.62498,13.2069 L 8.01666,12.9729
 L 8.40117,12.7272 L 8.77815,12.4702 L 9.14728,12.202 L 9.50821,11.9229 L 9.86064,11.6331 L 10.2042,11.3329
 L 10.5387,11.0226 L 10.8637,10.7024 L 11.179,10.3726 L 11.4843,10.0336 L 11.7794,9.6855 L 12.0638,9.32878
 L 12.3375,8.96371 L 12.6001,8.59062 L 12.8515,8.20984 L 13.0913,7.8217 L 13.3195,7.42657 L 13.5357,7.0248
 L 13.7398,6.61671 L 13.9316,6.20273 L 14.1109,5.78319 L 14.2776,5.35846 L 14.4315,4.92894 L 14.5725,4.49501
 L 14.7004,4.05705 L 14.8152,3.61546 L 14.9167,3.17064 L 15.0049,2.72299 L 15.0797,2.27289 L 15.1409,1.82076
 L 15.1886,1.36699 L 15.2227,0.912003 L 15.2432,0.456207 L 15.25,-0 L 15.2432,-0.456207 L 15.2227,-0.912003
 L 15.1886,-1.36699 L 15.1409,-1.82076 L 15.0797,-2.27289 L 15.0049,-2.72299 L 14.9167,-3.17064 L 14.8152,-3.61546
 L 14.7004,-4.05705 L 14.5725,-4.49501 L 14.4315,-4.92894 L 14.2776,-5.35846 L 14.1109,-5.78319 L 13.9316,-6.20273
 L 13.7398,-6.61671 L 13.5357,-7.0248 L 13.3195,-7.42657 L 13.0913,-7.8217 L 12.8515,-8.20984 L 12.6001,-8.59062
 L 12.3375,-8.96371 L 12.0638,-9.32878 L 11.7794,-9.6855 L 11.4843,-10.0336 L 11.179,-10.3726 L 10.8637,-10.7024
 L 10.5387,-11.0226 L 10.2042,-11.3329 L 9.86064,-11.6331 L 9.50821,-11.9229 L 9.14728,-12.202 L 8.77815,-12.4702
 L 8.40117,-12.7272 L 8.01666,-12.9729 L 7.625,-13.2069 L 7.22649,-13.4291 L 6.82152,-13.6393 L 6.41045,-13.8372
 L 5.99362,-14.0228 L 5.57144,-14.1958 L 5.14427,-14.3561 L 4.71251,-14.5036 L 4.2765,-14.6381 L 3.83669,-14.7595
 L 3.39343,-14.8676 L 2.94714,-14.9625 L 2.49821,-15.044 L 2.04704,-15.112 L 1.59406,-15.1665 L 1.13963,-15.2074
 L 0.684174,-15.2346 L 0.228119,-15.2483 L -0.228119,-15.2483 L -0.684174,-15.2346 L -1.13963,-15.2074 L -1.59406,-15.1665
 L -2.04704,-15.112 L -2.49821,-15.044 L -2.94714,-14.9625 L -3.39343,-14.8676 L -3.83669,-14.7595 L -4.2765,-14.6381
 L -4.71251,-14.5036 L -5.14427,-14.3561 L -5.57144,-14.1958 L -5.99362,-14.0228 L -6.41045,-13.8372 L -6.82152,-13.6393
 L -7.22649,-13.4291 L -7.62498,-13.2069 L -8.01666,-12.9729 L -8.40117,-12.7272 L -8.77815,-12.4702 L -9.14728,-12.202
 L -9.50821,-11.9229 L -9.86064,-11.6331 L -10.2042,-11.3329 L -10.5387,-11.0226 L -10.8637,-10.7024 L -11.179,-10.3726
 L -11.4843,-10.0336 L -11.7794,-9.6855 L -12.0638,-9.32878 L -12.3375,-8.96371 L -12.6001,-8.59062 L -12.8515,-8.20984
 L -13.0913,-7.8217 L -13.3195,-7.42657 L -13.5357,-7.0248 L -13.7398,-6.61671 L -13.9316,-6.20273 L -14.1109,-5.78319
 L -14.2776,-5.35846 L -14.4315,-4.92894 L -14.5725,-4.49501 L -14.7004,-4.05705 L -14.8152,-3.61546 L -14.9167,-3.17064
 L -15.0049,-2.72299 L -15.0797,-2.27289 L -15.1409,-1.82076 L -15.1886,-1.36699 L -15.2227,-0.912003 L -15.2432,-0.456207
 L -15.25,-0 L -15.2432,0.456207 L -15.2227,0.912003 L -15.1886,1.36699 L -15.1409,1.82076 L -15.0797,2.27289
 L -15.0049,2.72299 L -14.9167,3.17064 L -14.8152,3.61546 L -14.7004,4.05705 L -14.5725,4.49501 L -14.4315,4.92894
 L -14.2776,5.35846 L -14.1109,5.78319 L -13.9316,6.20273 L -13.7398,6.61671 L -13.5357,7.0248 L -13.3195,7.42657
 L -13.0913,7.8217 L -12.8515,8.20984 L -12.6001,8.59062 L -12.3375,8.96371 L -12.0638,9.32878 L -11.7794,9.6855
 L -11.4843,10.0336 L -11.179,10.3726 L -10.8637,10.7024 L -10.5387,11.0226 L -10.2042,11.3329 L -9.86064,11.6331
 L -9.50821,11.9229 L -9.14728,12.202 L -8.77815,12.4702 L -8.40117,12.7272 L -8.01666,12.9729 L -7.625,13.2069
 L -7.22649,13.4291 L -6.82152,13.6393 L -6.41045,13.8372 L -5.99362,14.0228 L -5.57144,14.1958 L -5.14427,14.3561
 L -4.71251,14.5036 L -4.2765,14.6381 L -3.83669,14.7595 L -3.39343,14.8676 L -2.94714,14.9625 L -2.49821,15.044
 L -2.04704,15.112 L -1.59406,15.1665 L -1.13963,15.2074 L -0.684174,15.2346 L -0.228119,15.2483 L 0.228119,15.2483
 z
M -13.1011,7.30482 L -13.3138,6.90962 L -13.5145,6.50826 L -13.7032,6.10104 L -13.8796,5.68837 L -14.0435,5.27061
 L -14.1949,4.84814 L -14.3336,4.42133 L -14.4594,3.99054 L -14.5723,3.5562 L -14.6722,3.11867 L -14.7589,2.67834
 L -14.8325,2.23563 L -14.8927,1.79091 L -14.9396,1.34459 L -14.9731,0.897049 L -14.9933,0.44873 L -15,-0
 L -14.9933,-0.44873 L -14.9731,-0.897049 L -14.9396,-1.34459 L -14.8927,-1.79091 L -14.8325,-2.23563 L -14.7589,-2.67834
 L -14.6722,-3.11867 L -14.5723,-3.5562 L -14.4594,-3.99054 L -14.3336,-4.42133 L -14.1949,-4.84814 L -14.0435,-5.27061
 L -13.8796,-5.68837 L -13.7032,-6.10104 L -13.5145,-6.50826 L -13.3138,-6.90962 L -13.1011,-7.30482 L -12.8767,-7.69348
 L -12.6408,-8.07526 L -12.3936,-8.4498 L -12.1353,-8.81677 L -11.8661,-9.17586 L -11.5862,-9.52673 L -11.2961,-9.86908
 L -10.9958,-10.2026 L -10.6856,-10.527 L -10.3659,-10.8419 L -10.037,-11.1472 L -9.69899,-11.4424 L -9.35234,-11.7275
 L -8.99731,-12.002 L -8.63425,-12.2658 L -8.26344,-12.5186 L -7.88525,-12.7602 L -7.49998,-12.9904 L -7.10802,-13.2089
 L -6.70969,-13.4156 L -6.30534,-13.6104 L -5.89537,-13.7929 L -5.4801,-13.9631 L -5.05994,-14.1208 L -4.63525,-14.2658
 L -4.20641,-14.3981 L -3.77379,-14.5175 L -3.3378,-14.6239 L -2.89883,-14.7172 L -2.45726,-14.7973 L -2.01349,-14.8642
 L -1.56792,-14.9178 L -1.12094,-14.9581 L -0.672958,-14.9849 L -0.22438,-14.9983 L -0.000961304,-14.9983 L -12.9894,7.49831
 z
M 0.000961304,-14.9983 L 0.22438,-14.9983 L 0.672958,-14.9849 L 1.12094,-14.9581 L 1.56792,-14.9178 L 2.01349,-14.8642
 L 2.45726,-14.7973 L 2.89883,-14.7172 L 3.3378,-14.6239 L 3.77379,-14.5175 L 4.20641,-14.3981 L 4.63525,-14.2658
 L 5.05994,-14.1208 L 5.4801,-13.9631 L 5.89537,-13.7929 L 6.30534,-13.6104 L 6.70969,-13.4156 L 7.10802,-13.2089
 L 7.5,-12.9904 L 7.88525,-12.7602 L 8.26344,-12.5186 L 8.63425,-12.2658 L 8.99731,-12.002 L 9.35234,-11.7275
 L 9.69899,-11.4424 L 10.037,-11.1472 L 10.3659,-10.8419 L 10.6856,-10.527 L 10.9958,-10.2026 L 11.2961,-9.86908
 L 11.5862,-9.52673 L 11.8661,-9.17586 L 12.1353,-8.81677 L 12.3936,-8.4498 L 12.6408,-8.07526 L 12.8767,-7.69348
 L 13.1011,-7.30482 L 13.3138,-6.90962 L 13.5145,-6.50826 L 13.7032,-6.10104 L 13.8796,-5.68837 L 14.0435,-5.27061
 L 14.1949,-4.84814 L 14.3336,-4.42133 L 14.4594,-3.99054 L 14.5723,-3.5562 L 14.6722,-3.11867 L 14.7589,-2.67834
 L 14.8325,-2.23563 L 14.8927,-1.79091 L 14.9396,-1.34459 L 14.9731,-0.897049 L 14.9933,-0.44873 L 15,-0
 L 14.9933,0.44873 L 14.9731,0.897049 L 14.9396,1.34459 L 14.8927,1.79091 L 14.8325,2.23563 L 14.7589,2.67834
 L 14.6722,3.11867 L 14.5723,3.5562 L 14.4594,3.99054 L 14.3336,4.42133 L 14.1949,4.84814 L 14.0435,5.27061
 L 13.8796,5.68837 L 13.7032,6.10104 L 13.5145,6.50826 L 13.3138,6.90962 L 13.1011,7.30482 L 12.9894,7.49832
 z
M -12.5574,7.24998 L 0,-14.5 L 12.5574,7.25 z
M 0,-13 L -11.2583,6.49998 L 11.2583,6.5 z
M -10.8253,6.24998 L 0,-12.5 L 10.8253,6.25 z
M 0,-11 L -9.52628,5.49998 L 9.52628,5.5 z
M -9.09326,5.24998 L 0,-10.5 L 9.09326,5.25 z
M 0,-8.99998 L -7.79422,4.49998 L 7.79422,4.5 z
M -7.36121,4.24998 L 0,-8.49997 L 7.36121,4.25 z
M 0,-6.99997 L -6.06216,3.49998 L 6.06216,3.5 z
M -5.62915,3.24998 L 0,-6.49997 L 5.62915,3.25 z
M 0.0782166,0.493835 L 0.154495,0.475525 L 0.22699,0.445496 L 0.293884,0.404495 L 0.353546,0.353546 L 0.404495,0.293884
 L 0.445496,0.22699 L 0.475525,0.154495 L 0.493835,0.0782166 L 0.5,-0 L 0.493835,-0.0782166 L 0.475525,-0.154495
 L 0.445496,-0.22699 L 0.404495,-0.293884 L 0.353546,-0.353546 L 0.293884,-0.404495 L 0.22699,-0.445496 L 0.154495,-0.475525
 L 0.0782166,-0.493835 L 0,-0.5 L -0.0782166,-0.493835 L -0.154495,-0.475525 L -0.22699,-0.445496 L -0.293884,-0.404495
 L -0.353546,-0.353546 L -0.404495,-0.293884 L -0.445496,-0.22699 L -0.475525,-0.154495 L -0.493835,-0.0782166 L -0.5,-0
 L -0.493835,0.0782166 L -0.475525,0.154495 L -0.445496,0.22699 L -0.404495,0.293884 L -0.353546,0.353546 L -0.293884,0.404495
 L -0.22699,0.445496 L -0.154495,0.475525 L -0.0782166,0.493835 L 0,0.5 z
M -0.22438,14.9983 L -0.672958,14.9849 L -1.12094,14.9581 L -1.56792,14.9178 L -2.01349,14.8642 L -2.45726,14.7973
 L -2.89883,14.7172 L -3.3378,14.6239 L -3.77379,14.5175 L -4.20641,14.3981 L -4.63525,14.2658 L -5.05994,14.1208
 L -5.4801,13.9631 L -5.89537,13.7929 L -6.30534,13.6104 L -6.70969,13.4156 L -7.10802,13.2089 L -7.5,12.9904
 L -7.88525,12.7602 L -8.26344,12.5186 L -8.63425,12.2658 L -8.99731,12.002 L -9.35234,11.7275 L -9.69899,11.4424
 L -10.037,11.1472 L -10.3659,10.8419 L -10.6856,10.527 L -10.9958,10.2026 L -11.2961,9.86908 L -11.5862,9.52673
 L -11.8661,9.17586 L -12.1353,8.81677 L -12.3936,8.4498 L -12.6408,8.07526 L -12.8767,7.69348 L -12.9884,7.49998
 L 12.9884,7.5 L 12.8767,7.69348 L 12.6408,8.07526 L 12.3936,8.4498 L 12.1353,8.81677 L 11.8661,9.17586
 L 11.5862,9.52673 L 11.2961,9.86908 L 10.9958,10.2026 L 10.6856,10.527 L 10.3659,10.8419 L 10.037,11.1472
 L 9.69899,11.4424 L 9.35234,11.7275 L 8.99731,12.002 L 8.63425,12.2658 L 8.26344,12.5186 L 7.88525,12.7602
 L 7.49998,12.9904 L 7.10802,13.2089 L 6.70969,13.4156 L 6.30534,13.6104 L 5.89537,13.7929 L 5.4801,13.9631
 L 5.05994,14.1208 L 4.63525,14.2658 L 4.20641,14.3981 L 3.77379,14.5175 L 3.3378,14.6239 L 2.89883,14.7172
 L 2.45726,14.7973 L 2.01349,14.8642 L 1.56792,14.9178 L 1.12094,14.9581 L 0.672958,14.9849 L 0.22438,14.9983
 z
" stroke="black" fill="lightgray" stroke-width="0.5"/></svg>
