<?xml version="1.0" encoding="UTF-8" standalone="no"?>
<svg
   xmlns:dc="http://purl.org/dc/elements/1.1/"
   xmlns:cc="http://creativecommons.org/ns#"
   xmlns:rdf="http://www.w3.org/1999/02/22-rdf-syntax-ns#"
   xmlns:svg="http://www.w3.org/2000/svg"
   xmlns="http://www.w3.org/2000/svg"
   xmlns:sodipodi="http://sodipodi.sourceforge.net/DTD/sodipodi-0.dtd"
   xmlns:inkscape="http://www.inkscape.org/namespaces/inkscape"
   width="355.33072"
   height="256.1181"
   id="svg3364"
   version="1.1"
   inkscape:version="0.91 r13725"
   sodipodi:docname="part3.svg">
  <metadata
     id="metadata5670">
    <rdf:RDF>
      <cc:Work
         rdf:about="">
        <dc:format>image/svg+xml</dc:format>
        <dc:type
           rdf:resource="http://purl.org/dc/dcmitype/StillImage" />
        <dc:title></dc:title>
      </cc:Work>
    </rdf:RDF>
  </metadata>
  <sodipodi:namedview
     pagecolor="#ffffff"
     bordercolor="#666666"
     borderopacity="1"
     objecttolerance="10"
     gridtolerance="10"
     guidetolerance="10"
     inkscape:pageopacity="0"
     inkscape:pageshadow="2"
     inkscape:window-width="1440"
     inkscape:window-height="800"
     id="namedview5668"
     showgrid="false"
     inkscape:zoom="0.56824543"
     inkscape:cx="-303.75039"
     inkscape:cy="118.80265"
     inkscape:window-x="0"
     inkscape:window-y="0"
     inkscape:window-maximized="1"
     inkscape:current-layer="g3382"
     fit-margin-top="0"
     fit-margin-left="0"
     fit-margin-right="0"
     fit-margin-bottom="0" />
  <desc
     id="desc3366">/Users/mvn/Downloads/MechParts-v14.03.dxf - scale = 1.000000, origin = (0.000000, 0.000000), auto = False</desc>
  <defs
     id="defs3368">
    <marker
       id="DistanceX"
       orient="auto"
       refX="0"
       refY="0"
       style="overflow:visible">
      <path
         d="M 3,-3 -3,3 M 0,-5 0,5"
         style="stroke:#000000;stroke-width:0.5"
         id="path3371"
         inkscape:connector-curvature="0" />
    </marker>
    <pattern
       height="8"
       id="Hatch"
       patternUnits="userSpaceOnUse"
       width="8"
       x="0"
       y="0">
      <path
         d="M8 4 l-4,4"
         linecap="square"
         stroke="#000000"
         stroke-width="0.25"
         id="path3374" />
      <path
         d="M6 2 l-4,4"
         linecap="square"
         stroke="#000000"
         stroke-width="0.25"
         id="path3376" />
      <path
         d="M4 0 l-4,4"
         linecap="square"
         stroke="#000000"
         stroke-width="0.25"
         id="path3378" />
    </pattern>
    <symbol
       id="$MODEL_SPACE" />
    <symbol
       id="$PAPER_SPACE" />
  </defs>
  <g
     inkscape:groupmode="layer"
     inkscape:label="0"
     id="g3382"
     transform="translate(-605.40551,-20.759843)">
    <path
       d="m 912.4016,177.16539 a 8.85827,8.85827 0 1 0 -17.71654,0 8.85827,8.85827 0 1 0 17.71654,0 z"
       style="fill:none;stroke:#000000"
       id="path3442"
       inkscape:connector-curvature="0" />
    <path
       d="m 912.4016,248.03148 a 8.85827,8.85827 0 1 0 -17.71654,0 8.85827,8.85827 0 1 0 17.71654,0 z"
       style="fill:none;stroke:#000000"
       id="path3444"
       inkscape:connector-curvature="0" />
    <path
       d="m 671.45671,49.606286 a 8.85827,8.85827 0 1 0 -17.71654,0 8.85827,8.85827 0 1 0 17.71654,0 z"
       style="fill:none;stroke:#000000"
       id="path3446"
       inkscape:connector-curvature="0" />
    <path
       d="m 671.45671,120.47249 a 8.85827,8.85827 0 1 0 -17.71654,0 8.85827,8.85827 0 1 0 17.71654,0 z"
       style="fill:none;stroke:#000000"
       id="path3448"
       inkscape:connector-curvature="0" />
    <path
       d="m 644.88189,276.37795 191.33858,0"
       style="fill:none;stroke:#000000"
       id="path3450"
       inkscape:connector-curvature="0" />
    <path
       d="m 836.22047,276.37795 0,-120.47244"
       style="fill:none;stroke:#000000"
       id="path3452"
       inkscape:connector-curvature="0" />
    <path
       d="m 836.22047,155.90551 -116.92913,0"
       style="fill:none;stroke:#000000"
       id="path3454"
       inkscape:connector-curvature="0" />
    <path
       d="m 719.29134,155.90551 0,-134.645667"
       style="fill:none;stroke:#000000"
       id="path3456"
       inkscape:connector-curvature="0" />
    <path
       d="m 719.29134,21.259843 -113.38583,0"
       style="fill:none;stroke:#000000"
       id="path3458"
       inkscape:connector-curvature="0" />
    <path
       d="m 605.90551,21.259843 0,134.645667"
       style="fill:none;stroke:#000000"
       id="path3460"
       inkscape:connector-curvature="0" />
    <path
       d="m 605.90551,155.90551 38.97638,120.47244"
       style="fill:none;stroke:#000000"
       id="path3462"
       inkscape:connector-curvature="0" />
    <path
       d="m 846.85039,276.37795 113.38583,0"
       style="fill:none;stroke:#000000"
       id="path3464"
       inkscape:connector-curvature="0" />
    <path
       d="m 960.23622,276.37795 0,-134.64567"
       style="fill:none;stroke:#000000"
       id="path3466"
       inkscape:connector-curvature="0" />
    <path
       d="M 960.23622,141.73228 921.25984,21.259843"
       style="fill:none;stroke:#000000"
       id="path3468"
       inkscape:connector-curvature="0" />
    <path
       d="m 921.25984,21.259843 -191.33858,0"
       style="fill:none;stroke:#000000"
       id="path3470"
       inkscape:connector-curvature="0" />
    <path
       d="m 729.92126,21.259843 0,120.472437"
       style="fill:none;stroke:#000000"
       id="path3472"
       inkscape:connector-curvature="0" />
    <path
       d="m 729.92126,141.73228 116.92913,0"
       style="fill:none;stroke:#000000"
       id="path3474"
       inkscape:connector-curvature="0" />
    <path
       d="m 846.85039,141.73228 0,134.64567"
       style="fill:none;stroke:#000000"
       id="path3476"
       inkscape:connector-curvature="0" />
  </g>
  <g
     inkscape:groupmode="layer"
     inkscape:label="STENCILS"
     id="g5456"
     transform="translate(-605.40551,-20.759843)" />
  <g
     inkscape:groupmode="layer"
     inkscape:label="DEFAULT"
     id="g5634"
     transform="translate(-605.40551,-20.759843)">
    <path
       d="m 774.21259,59.881908 a 5.314961,5.314961 0 1 0 -10.62992,0 5.314961,5.314961 0 1 0 10.62992,0 z"
       style="fill:none;stroke:#000000"
       id="path5644"
       inkscape:connector-curvature="0" />
    <path
       d="m 774.21259,109.48815 a 5.314961,5.314961 0 1 0 -10.62992,0 5.314961,5.314961 0 1 0 10.62992,0 z"
       style="fill:none;stroke:#000000"
       id="path5646"
       inkscape:connector-curvature="0" />
    <path
       d="m 802.55904,237.75591 a 5.314961,5.314961 0 1 0 -10.62992,0 5.314961,5.314961 0 1 0 10.62992,0 z"
       style="fill:none;stroke:#000000"
       id="path5648"
       inkscape:connector-curvature="0" />
    <path
       d="m 802.55905,188.14963 a 5.314961,5.314961 0 1 0 -10.62992,0 5.314961,5.314961 0 1 0 10.62992,0 z"
       style="fill:none;stroke:#000000"
       id="path5650"
       inkscape:connector-curvature="0" />
  </g>
</svg>
