<?xml version="1.0" encoding="UTF-8" standalone="no"?>
<svg
   xmlns:dc="http://purl.org/dc/elements/1.1/"
   xmlns:cc="http://creativecommons.org/ns#"
   xmlns:rdf="http://www.w3.org/1999/02/22-rdf-syntax-ns#"
   xmlns:svg="http://www.w3.org/2000/svg"
   xmlns="http://www.w3.org/2000/svg"
   xmlns:sodipodi="http://sodipodi.sourceforge.net/DTD/sodipodi-0.dtd"
   xmlns:inkscape="http://www.inkscape.org/namespaces/inkscape"
   width="465.17322"
   height="185.25197"
   id="svg3362"
   version="1.1"
   inkscape:version="0.91 r13725"
   sodipodi:docname="part8.svg">
  <metadata
     id="metadata5668">
    <rdf:RDF>
      <cc:Work
         rdf:about="">
        <dc:format>image/svg+xml</dc:format>
        <dc:type
           rdf:resource="http://purl.org/dc/dcmitype/StillImage" />
        <dc:title></dc:title>
      </cc:Work>
    </rdf:RDF>
  </metadata>
  <sodipodi:namedview
     pagecolor="#ffffff"
     bordercolor="#666666"
     borderopacity="1"
     objecttolerance="10"
     gridtolerance="10"
     guidetolerance="10"
     inkscape:pageopacity="0"
     inkscape:pageshadow="2"
     inkscape:window-width="1440"
     inkscape:window-height="800"
     id="namedview5666"
     showgrid="false"
     inkscape:zoom="0.22425739"
     inkscape:cx="-449.5"
     inkscape:cy="-18.98818"
     inkscape:window-x="0"
     inkscape:window-y="0"
     inkscape:window-maximized="1"
     inkscape:current-layer="g3380"
     fit-margin-top="0"
     fit-margin-left="0"
     fit-margin-right="0"
     fit-margin-bottom="0" />
  <desc
     id="desc3364">/Users/mvn/Downloads/MechParts-v14.03.dxf - scale = 1.000000, origin = (0.000000, 0.000000), auto = False</desc>
  <defs
     id="defs3366">
    <marker
       id="DistanceX"
       orient="auto"
       refX="0"
       refY="0"
       style="overflow:visible">
      <path
         d="M 3,-3 -3,3 M 0,-5 0,5"
         style="stroke:#000000;stroke-width:0.5"
         id="path3369"
         inkscape:connector-curvature="0" />
    </marker>
    <pattern
       height="8"
       id="Hatch"
       patternUnits="userSpaceOnUse"
       width="8"
       x="0"
       y="0">
      <path
         d="M8 4 l-4,4"
         linecap="square"
         stroke="#000000"
         stroke-width="0.25"
         id="path3372" />
      <path
         d="M6 2 l-4,4"
         linecap="square"
         stroke="#000000"
         stroke-width="0.25"
         id="path3374" />
      <path
         d="M4 0 l-4,4"
         linecap="square"
         stroke="#000000"
         stroke-width="0.25"
         id="path3376" />
    </pattern>
    <symbol
       id="$MODEL_SPACE" />
    <symbol
       id="$PAPER_SPACE" />
  </defs>
  <g
     inkscape:groupmode="layer"
     inkscape:label="0"
     id="g3380"
     transform="translate(-821.54724,-321.94095)">
    <path
       d="m 1286.2205,322.44094 -141.7323,0"
       style="fill:none;stroke:#000000"
       id="path3516"
       inkscape:connector-curvature="0" />
    <path
       d="m 1286.2205,506.69291 0,-184.25197"
       style="fill:none;stroke:#000000"
       id="path3518"
       inkscape:connector-curvature="0" />
    <path
       d="m 1144.4882,506.69291 141.7323,0"
       style="fill:none;stroke:#000000"
       id="path3520"
       inkscape:connector-curvature="0" />
    <path
       d="m 1144.4882,456.52935 0,50.16359"
       style="fill:none;stroke:#000000"
       id="path3522"
       inkscape:connector-curvature="0" />
    <path
       d="m 1144.4882,372.60454 a 54.92126,54.92126 0 0 0 0,83.92478"
       style="fill:none;stroke:#000000"
       id="path3524"
       inkscape:connector-curvature="0" />
    <path
       d="m 1144.4882,322.44094 0,50.1636"
       style="fill:none;stroke:#000000"
       id="path3526"
       inkscape:connector-curvature="0" />
    <path
       d="m 1213.5827,414.56693 a 33.66145,33.66145 0 1 0 -67.3229,0 33.66145,33.66145 0 1 0 67.3229,0 z"
       style="fill:none;stroke:#000000"
       id="path3528"
       inkscape:connector-curvature="0" />
    <path
       d="m 1259.6457,361.41732 a 8.8583,8.8583 0 1 0 -17.7166,0 8.8583,8.8583 0 1 0 17.7166,0 z"
       style="fill:none;stroke:#000000"
       id="path3530"
       inkscape:connector-curvature="0" />
    <path
       d="m 1259.6457,467.71654 a 8.8583,8.8583 0 1 0 -17.7166,0 8.8583,8.8583 0 1 0 17.7166,0 z"
       style="fill:none;stroke:#000000"
       id="path3532"
       inkscape:connector-curvature="0" />
    <path
       d="m 1011.6142,418.11024 a 8.85828,8.85828 0 1 0 -17.71656,0 8.85828,8.85828 0 1 0 17.71656,0 z"
       style="fill:none;stroke:#000000"
       id="path3534"
       inkscape:connector-curvature="0" />
    <path
       d="m 1011.6142,347.24409 a 8.85828,8.85828 0 1 0 -17.71656,0 8.85828,8.85828 0 1 0 17.71656,0 z"
       style="fill:none;stroke:#000000"
       id="path3536"
       inkscape:connector-curvature="0" />
    <path
       d="m 1082.4803,418.11024 a 8.858268,8.858268 0 1 0 -17.7165,0 8.858268,8.858268 0 1 0 17.7165,0 z"
       style="fill:none;stroke:#000000"
       id="path3538"
       inkscape:connector-curvature="0" />
    <path
       d="m 1082.4803,347.24409 a 8.858268,8.858268 0 1 0 -17.7165,0 8.858268,8.858268 0 1 0 17.7165,0 z"
       style="fill:none;stroke:#000000"
       id="path3540"
       inkscape:connector-curvature="0" />
    <path
       d="m 977.95276,325.98425 0,113.38583"
       style="fill:none;stroke:#000000"
       id="path3542"
       inkscape:connector-curvature="0" />
    <path
       d="m 977.95276,439.37008 131.10234,0"
       style="fill:none;stroke:#000000"
       id="path3544"
       inkscape:connector-curvature="0" />
    <path
       d="m 1109.0551,439.37008 0,-113.38583"
       style="fill:none;stroke:#000000"
       id="path3546"
       inkscape:connector-curvature="0" />
    <path
       d="m 1109.0551,325.98425 -131.10234,0"
       style="fill:none;stroke:#000000"
       id="path3548"
       inkscape:connector-curvature="0" />
  </g>
  <g
     inkscape:groupmode="layer"
     inkscape:label="STENCILS"
     id="g5454"
     transform="translate(-821.54724,-321.94095)">
    <path
       d="m 905.31496,354.33071 a 5.314961,5.314961 0 1 0 -10.62992,0 5.314961,5.314961 0 1 0 10.62992,0 z"
       style="fill:none;stroke:#000000"
       id="path5612"
       inkscape:connector-curvature="0" />
    <path
       d="m 866.33858,407.48032 a 8.858268,8.858268 0 1 0 -17.71653,0 8.858268,8.858268 0 1 0 17.71653,0 z"
       style="fill:none;stroke:#000000"
       id="path5614"
       inkscape:connector-curvature="0" />
    <path
       d="m 937.20472,407.48032 a 8.858268,8.858268 0 1 0 -17.71653,0 8.858268,8.858268 0 1 0 17.71653,0 z"
       style="fill:none;stroke:#000000"
       id="path5616"
       inkscape:connector-curvature="0" />
    <path
       d="m 933.66142,354.33071 a 5.314961,5.314961 0 1 0 -10.62992,0 5.314961,5.314961 0 1 0 10.62992,0 z"
       style="fill:none;stroke:#000000"
       id="path5618"
       inkscape:connector-curvature="0" />
    <path
       d="M 963.77953,336.61417 A 10.629921,10.629921 0 0 0 953.14961,325.98425"
       style="fill:none;stroke:#000000"
       id="path5620"
       inkscape:connector-curvature="0" />
    <path
       d="m 963.77953,428.74016 0,-92.12599"
       style="fill:none;stroke:#000000"
       id="path5622"
       inkscape:connector-curvature="0" />
    <path
       d="m 822.04724,428.74016 141.73229,0"
       style="fill:none;stroke:#000000"
       id="path5624"
       inkscape:connector-curvature="0" />
    <path
       d="m 822.04724,336.61417 0,92.12599"
       style="fill:none;stroke:#000000"
       id="path5626"
       inkscape:connector-curvature="0" />
    <path
       d="m 832.67716,325.98425 a 10.629921,10.629921 0 0 0 -10.62992,10.62992"
       style="fill:none;stroke:#000000"
       id="path5628"
       inkscape:connector-curvature="0" />
    <path
       d="m 953.14961,325.98425 -120.47245,0"
       style="fill:none;stroke:#000000"
       id="path5630"
       inkscape:connector-curvature="0" />
  </g>
  <g
     inkscape:groupmode="layer"
     inkscape:label="DEFAULT"
     id="g5632"
     transform="translate(-821.54724,-321.94095)" />
</svg>
