<?xml version="1.0" encoding="UTF-8" standalone="no"?>
<svg
   xmlns:dc="http://purl.org/dc/elements/1.1/"
   xmlns:cc="http://creativecommons.org/ns#"
   xmlns:rdf="http://www.w3.org/1999/02/22-rdf-syntax-ns#"
   xmlns:svg="http://www.w3.org/2000/svg"
   xmlns="http://www.w3.org/2000/svg"
   xmlns:sodipodi="http://sodipodi.sourceforge.net/DTD/sodipodi-0.dtd"
   xmlns:inkscape="http://www.inkscape.org/namespaces/inkscape"
   width="234.86128"
   height="174.62186"
   id="svg3364"
   version="1.1"
   inkscape:version="0.91 r13725"
   sodipodi:docname="part5.svg">
  <metadata
     id="metadata5670">
    <rdf:RDF>
      <cc:Work
         rdf:about="">
        <dc:format>image/svg+xml</dc:format>
        <dc:type
           rdf:resource="http://purl.org/dc/dcmitype/StillImage" />
        <dc:title></dc:title>
      </cc:Work>
    </rdf:RDF>
  </metadata>
  <sodipodi:namedview
     pagecolor="#ffffff"
     bordercolor="#666666"
     borderopacity="1"
     objecttolerance="10"
     gridtolerance="10"
     guidetolerance="10"
     inkscape:pageopacity="0"
     inkscape:pageshadow="2"
     inkscape:window-width="1440"
     inkscape:window-height="800"
     id="namedview5668"
     showgrid="false"
     inkscape:zoom="0.56824543"
     inkscape:cx="202.47152"
     inkscape:cy="-48.566684"
     inkscape:window-x="0"
     inkscape:window-y="0"
     inkscape:window-maximized="1"
     inkscape:current-layer="g3382"
     fit-margin-top="0"
     fit-margin-left="0"
     fit-margin-right="0"
     fit-margin-bottom="0" />
  <desc
     id="desc3366">/Users/mvn/Downloads/MechParts-v14.03.dxf - scale = 1.000000, origin = (0.000000, 0.000000), auto = False</desc>
  <defs
     id="defs3368">
    <marker
       id="DistanceX"
       orient="auto"
       refX="0"
       refY="0"
       style="overflow:visible">
      <path
         d="M 3,-3 -3,3 M 0,-5 0,5"
         style="stroke:#000000;stroke-width:0.5"
         id="path3371"
         inkscape:connector-curvature="0" />
    </marker>
    <pattern
       height="8"
       id="Hatch"
       patternUnits="userSpaceOnUse"
       width="8"
       x="0"
       y="0">
      <path
         d="M8 4 l-4,4"
         linecap="square"
         stroke="#000000"
         stroke-width="0.25"
         id="path3374" />
      <path
         d="M6 2 l-4,4"
         linecap="square"
         stroke="#000000"
         stroke-width="0.25"
         id="path3376" />
      <path
         d="M4 0 l-4,4"
         linecap="square"
         stroke="#000000"
         stroke-width="0.25"
         id="path3378" />
    </pattern>
    <symbol
       id="$MODEL_SPACE" />
    <symbol
       id="$PAPER_SPACE" />
  </defs>
  <g
     inkscape:groupmode="layer"
     inkscape:label="0"
     id="g3382"
     transform="translate(-169.57572,-304.22441)">
    <path
       d="m 173.55572,389.66777 a 67.322835,67.322835 0 0 0 97.27796,79.79093"
       style="fill:none;stroke:#000000"
       id="path3692"
       inkscape:connector-curvature="0" />
    <path
       d="m 201.9685,304.72441 -28.41278,84.94336"
       style="fill:none;stroke:#000000"
       id="path3694"
       inkscape:connector-curvature="0" />
    <path
       d="m 403.93701,304.72441 -201.96851,0"
       style="fill:none;stroke:#000000"
       id="path3696"
       inkscape:connector-curvature="0" />
    <path
       d="m 403.93701,393.30709 0,-88.58268"
       style="fill:none;stroke:#000000"
       id="path3698"
       inkscape:connector-curvature="0" />
    <path
       d="M 270.83369,469.45867 403.93701,393.30706"
       style="fill:none;stroke:#000000"
       id="path3700"
       inkscape:connector-curvature="0" />
    <path
       d="m 244.48818,364.96063 a 7.086615,7.086615 0 1 0 -14.17323,0 7.086615,7.086615 0 1 0 14.17323,0 z"
       style="fill:none;stroke:#000000"
       id="path3702"
       inkscape:connector-curvature="0" />
    <path
       d="m 244.48818,457.08661 a 7.086615,7.086615 0 1 0 -14.17323,0 7.086615,7.086615 0 1 0 14.17323,0 z"
       style="fill:none;stroke:#000000"
       id="path3704"
       inkscape:connector-curvature="0" />
    <path
       d="m 271.06299,411.02362 a 33.66142,33.66142 0 1 0 -67.32284,0 33.66142,33.66142 0 1 0 67.32284,0 z"
       style="fill:none;stroke:#000000"
       id="path3706"
       inkscape:connector-curvature="0" />
    <path
       d="m 317.12598,357.87402 a 8.85827,8.85827 0 1 0 -17.71654,0 8.85827,8.85827 0 1 0 17.71654,0 z"
       style="fill:none;stroke:#000000"
       id="path3708"
       inkscape:connector-curvature="0" />
    <path
       d="m 387.99213,357.87402 a 8.85827,8.85827 0 1 0 -17.71654,0 8.85827,8.85827 0 1 0 17.71654,0 z"
       style="fill:none;stroke:#000000"
       id="path3710"
       inkscape:connector-curvature="0" />
  </g>
  <g
     inkscape:groupmode="layer"
     inkscape:label="STENCILS"
     id="g5456"
     transform="translate(-169.57572,-304.22441)" />
  <g
     inkscape:groupmode="layer"
     inkscape:label="DEFAULT"
     id="g5634"
     transform="translate(-169.57572,-304.22441)" />
</svg>
