<?xml version="1.0" encoding="UTF-8" standalone="no"?>
<svg
   xmlns:dc="http://purl.org/dc/elements/1.1/"
   xmlns:cc="http://creativecommons.org/ns#"
   xmlns:rdf="http://www.w3.org/1999/02/22-rdf-syntax-ns#"
   xmlns:svg="http://www.w3.org/2000/svg"
   xmlns="http://www.w3.org/2000/svg"
   xmlns:sodipodi="http://sodipodi.sourceforge.net/DTD/sodipodi-0.dtd"
   xmlns:inkscape="http://www.inkscape.org/namespaces/inkscape"
   width="295.10056"
   height="291.55118"
   id="svg3364"
   version="1.1"
   inkscape:version="0.91 r13725"
   sodipodi:docname="part4.svg">
  <metadata
     id="metadata5670">
    <rdf:RDF>
      <cc:Work
         rdf:about="">
        <dc:format>image/svg+xml</dc:format>
        <dc:type
           rdf:resource="http://purl.org/dc/dcmitype/StillImage" />
        <dc:title></dc:title>
      </cc:Work>
    </rdf:RDF>
  </metadata>
  <sodipodi:namedview
     pagecolor="#ffffff"
     bordercolor="#666666"
     borderopacity="1"
     objecttolerance="10"
     gridtolerance="10"
     guidetolerance="10"
     inkscape:pageopacity="0"
     inkscape:pageshadow="2"
     inkscape:window-width="1440"
     inkscape:window-height="800"
     id="namedview5668"
     showgrid="false"
     inkscape:zoom="1"
     inkscape:cx="-45.220394"
     inkscape:cy="118.42962"
     inkscape:window-x="0"
     inkscape:window-y="0"
     inkscape:window-maximized="1"
     inkscape:current-layer="g3382"
     fit-margin-top="0"
     fit-margin-left="0"
     fit-margin-right="0"
     fit-margin-bottom="0" />
  <desc
     id="desc3366">/Users/mvn/Downloads/MechParts-v14.03.dxf - scale = 1.000000, origin = (0.000000, 0.000000), auto = False</desc>
  <defs
     id="defs3368">
    <marker
       id="DistanceX"
       orient="auto"
       refX="0"
       refY="0"
       style="overflow:visible">
      <path
         d="M 3,-3 -3,3 M 0,-5 0,5"
         style="stroke:#000000;stroke-width:0.5"
         id="path3371"
         inkscape:connector-curvature="0" />
    </marker>
    <pattern
       height="8"
       id="Hatch"
       patternUnits="userSpaceOnUse"
       width="8"
       x="0"
       y="0">
      <path
         d="M8 4 l-4,4"
         linecap="square"
         stroke="#000000"
         stroke-width="0.25"
         id="path3374" />
      <path
         d="M6 2 l-4,4"
         linecap="square"
         stroke="#000000"
         stroke-width="0.25"
         id="path3376" />
      <path
         d="M4 0 l-4,4"
         linecap="square"
         stroke="#000000"
         stroke-width="0.25"
         id="path3378" />
    </pattern>
    <symbol
       id="$MODEL_SPACE" />
    <symbol
       id="$PAPER_SPACE" />
  </defs>
  <g
     inkscape:groupmode="layer"
     inkscape:label="0"
     id="g3382"
     transform="translate(-980.99305,-17.216535)">
    <path
       d="m 984.97305,102.6599 a 67.322835,67.322835 0 0 0 97.27795,79.79092"
       style="fill:none;stroke:#000000"
       id="path3478"
       inkscape:connector-curvature="0" />
    <path
       d="M 1013.3858,17.716535 984.97305,102.6599"
       style="fill:none;stroke:#000000"
       id="path3480"
       inkscape:connector-curvature="0" />
    <path
       d="m 1215.3543,17.716535 -201.9685,0"
       style="fill:none;stroke:#000000"
       id="path3482"
       inkscape:connector-curvature="0" />
    <path
       d="m 1215.3543,106.29921 0,-88.582675"
       style="fill:none;stroke:#000000"
       id="path3484"
       inkscape:connector-curvature="0" />
    <path
       d="m 1082.251,182.45079 133.1033,-76.15161"
       style="fill:none;stroke:#000000"
       id="path3486"
       inkscape:connector-curvature="0" />
    <path
       d="m 1055.9055,77.952756 a 7.0866145,7.0866145 0 1 0 -14.1732,0 7.0866145,7.0866145 0 1 0 14.1732,0 z"
       style="fill:none;stroke:#000000"
       id="path3488"
       inkscape:connector-curvature="0" />
    <path
       d="m 1055.9055,170.07874 a 7.0866145,7.0866145 0 1 0 -14.1732,0 7.0866145,7.0866145 0 1 0 14.1732,0 z"
       style="fill:none;stroke:#000000"
       id="path3490"
       inkscape:connector-curvature="0" />
    <path
       d="m 1082.4803,124.01575 a 33.661418,33.661418 0 1 0 -67.3228,0 33.661418,33.661418 0 1 0 67.3228,0 z"
       style="fill:none;stroke:#000000"
       id="path3492"
       inkscape:connector-curvature="0" />
    <path
       d="m 1128.5433,70.866142 a 8.858268,8.858268 0 1 0 -17.7165,0 8.858268,8.858268 0 1 0 17.7165,0 z"
       style="fill:none;stroke:#000000"
       id="path3494"
       inkscape:connector-curvature="0" />
    <path
       d="m 1199.4094,70.866142 a 8.858268,8.858268 0 1 0 -17.7165,0 8.858268,8.858268 0 1 0 17.7165,0 z"
       style="fill:none;stroke:#000000"
       id="path3496"
       inkscape:connector-curvature="0" />
    <path
       d="m 1272.1136,223.32435 a 67.322835,67.322835 0 0 0 -97.278,-79.79092"
       style="fill:none;stroke:#000000"
       id="path3498"
       inkscape:connector-curvature="0" />
    <path
       d="m 1243.7008,308.26772 28.4128,-84.94337"
       style="fill:none;stroke:#000000"
       id="path3500"
       inkscape:connector-curvature="0" />
    <path
       d="m 1041.7323,308.26772 201.9685,0"
       style="fill:none;stroke:#000000"
       id="path3502"
       inkscape:connector-curvature="0" />
    <path
       d="m 1041.7323,219.68504 0,88.58268"
       style="fill:none;stroke:#000000"
       id="path3504"
       inkscape:connector-curvature="0" />
    <path
       d="m 1174.8357,143.53346 -133.1034,76.15161"
       style="fill:none;stroke:#000000"
       id="path3506"
       inkscape:connector-curvature="0" />
    <path
       d="m 1215.3543,248.0315 a 7.0866145,7.0866145 0 1 0 -14.1732,0 7.0866145,7.0866145 0 1 0 14.1732,0 z"
       style="fill:none;stroke:#000000"
       id="path3508"
       inkscape:connector-curvature="0" />
    <path
       d="m 1215.3543,155.90551 a 7.0866145,7.0866145 0 1 0 -14.1732,0 7.0866145,7.0866145 0 1 0 14.1732,0 z"
       style="fill:none;stroke:#000000"
       id="path3510"
       inkscape:connector-curvature="0" />
    <path
       d="m 1241.9291,201.9685 a 33.661417,33.661417 0 1 0 -67.3228,0 33.661417,33.661417 0 1 0 67.3228,0 z"
       style="fill:none;stroke:#000000"
       id="path3512"
       inkscape:connector-curvature="0" />
    <path
       d="m 1146.2598,255.11811 a 8.858268,8.858268 0 1 0 -17.7165,0 8.858268,8.858268 0 1 0 17.7165,0 z"
       style="fill:none;stroke:#000000"
       id="path3514"
       inkscape:connector-curvature="0" />
    <path
       d="m 1075.3937,255.11811 a 8.858268,8.858268 0 1 0 -17.7165,0 8.858268,8.858268 0 1 0 17.7165,0 z"
       style="fill:none;stroke:#000000"
       id="path3516"
       inkscape:connector-curvature="0" />
  </g>
  <g
     inkscape:groupmode="layer"
     inkscape:label="STENCILS"
     id="g5456"
     transform="translate(-980.99305,-17.216535)" />
  <g
     inkscape:groupmode="layer"
     inkscape:label="DEFAULT"
     id="g5634"
     transform="translate(-980.99305,-17.216535)" />
</svg>
