<?xml version="1.0" encoding="UTF-8" standalone="no"?>
<svg
   xmlns:dc="http://purl.org/dc/elements/1.1/"
   xmlns:cc="http://creativecommons.org/ns#"
   xmlns:rdf="http://www.w3.org/1999/02/22-rdf-syntax-ns#"
   xmlns:svg="http://www.w3.org/2000/svg"
   xmlns="http://www.w3.org/2000/svg"
   xmlns:sodipodi="http://sodipodi.sourceforge.net/DTD/sodipodi-0.dtd"
   xmlns:inkscape="http://www.inkscape.org/namespaces/inkscape"
   width="325.21713"
   height="298.63779"
   id="svg3362"
   version="1.1"
   inkscape:version="0.91 r13725"
   sodipodi:docname="part7.svg">
  <metadata
     id="metadata5668">
    <rdf:RDF>
      <cc:Work
         rdf:about="">
        <dc:format>image/svg+xml</dc:format>
        <dc:type
           rdf:resource="http://purl.org/dc/dcmitype/StillImage" />
        <dc:title></dc:title>
      </cc:Work>
    </rdf:RDF>
  </metadata>
  <sodipodi:namedview
     pagecolor="#ffffff"
     bordercolor="#666666"
     borderopacity="1"
     objecttolerance="10"
     gridtolerance="10"
     guidetolerance="10"
     inkscape:pageopacity="0"
     inkscape:pageshadow="2"
     inkscape:window-width="1440"
     inkscape:window-height="800"
     id="namedview5666"
     showgrid="false"
     inkscape:zoom="0.22425739"
     inkscape:cx="-91.62596"
     inkscape:cy="87.311035"
     inkscape:window-x="0"
     inkscape:window-y="0"
     inkscape:window-maximized="1"
     inkscape:current-layer="g5454"
     fit-margin-top="0"
     fit-margin-left="0"
     fit-margin-right="0"
     fit-margin-bottom="0" />
  <desc
     id="desc3364">/Users/mvn/Downloads/MechParts-v14.03.dxf - scale = 1.000000, origin = (0.000000, 0.000000), auto = False</desc>
  <defs
     id="defs3366">
    <marker
       id="DistanceX"
       orient="auto"
       refX="0"
       refY="0"
       style="overflow:visible">
      <path
         d="M 3,-3 -3,3 M 0,-5 0,5"
         style="stroke:#000000;stroke-width:0.5"
         id="path3369"
         inkscape:connector-curvature="0" />
    </marker>
    <pattern
       height="8"
       id="Hatch"
       patternUnits="userSpaceOnUse"
       width="8"
       x="0"
       y="0">
      <path
         d="M8 4 l-4,4"
         linecap="square"
         stroke="#000000"
         stroke-width="0.25"
         id="path3372" />
      <path
         d="M6 2 l-4,4"
         linecap="square"
         stroke="#000000"
         stroke-width="0.25"
         id="path3374" />
      <path
         d="M4 0 l-4,4"
         linecap="square"
         stroke="#000000"
         stroke-width="0.25"
         id="path3376" />
    </pattern>
    <symbol
       id="$MODEL_SPACE" />
    <symbol
       id="$PAPER_SPACE" />
  </defs>
  <g
     inkscape:groupmode="layer"
     inkscape:label="0"
     id="g3380"
     transform="translate(-463.6732,-314.85433)">
    <path
       d="m 483.66139,355.74801 7.08661,0"
       style="fill:none;stroke:#000000"
       id="path3550"
       inkscape:connector-curvature="0" />
    <path
       d="m 483.66139,345.11809 a 5.314961,5.314961 0 0 0 0,10.62992"
       style="fill:none;stroke:#000000"
       id="path3552"
       inkscape:connector-curvature="0" />
    <path
       d="m 490.748,345.11809 -7.08661,0"
       style="fill:none;stroke:#000000"
       id="path3554"
       inkscape:connector-curvature="0" />
    <path
       d="m 490.748,355.74801 a 5.314961,5.314961 0 1 0 0,-10.62992"
       style="fill:none;stroke:#000000"
       id="path3556"
       inkscape:connector-curvature="0" />
    <path
       d="m 483.66139,465.59053 7.08661,0"
       style="fill:none;stroke:#000000"
       id="path3558"
       inkscape:connector-curvature="0" />
    <path
       d="m 483.66139,454.96061 a 5.314961,5.314961 0 0 0 0,10.62992"
       style="fill:none;stroke:#000000"
       id="path3560"
       inkscape:connector-curvature="0" />
    <path
       d="m 490.748,454.96061 -7.08661,0"
       style="fill:none;stroke:#000000"
       id="path3562"
       inkscape:connector-curvature="0" />
    <path
       d="m 490.748,465.59053 a 5.314961,5.314961 0 0 0 0,-10.62992"
       style="fill:none;stroke:#000000"
       id="path3564"
       inkscape:connector-curvature="0" />
    <path
       d="m 593.50391,465.59053 7.08661,0"
       style="fill:none;stroke:#000000"
       id="path3566"
       inkscape:connector-curvature="0" />
    <path
       d="m 602.36218,499.6063 138.18897,0"
       style="fill:none;stroke:#000000"
       id="path3568"
       inkscape:connector-curvature="0" />
    <path
       d="m 602.36218,499.6063 a 3.543307,3.543307 0 1 0 -3.54331,3.54331"
       style="fill:none;stroke:#000000"
       id="path3570"
       inkscape:connector-curvature="0" />
    <path
       d="m 598.81887,612.99213 0,-109.84252"
       style="fill:none;stroke:#000000"
       id="path3572"
       inkscape:connector-curvature="0" />
    <path
       d="m 527.95273,612.99213 70.86614,0"
       style="fill:none;stroke:#000000"
       id="path3574"
       inkscape:connector-curvature="0" />
    <path
       d="m 527.95273,481.88976 0,131.10237"
       style="fill:none;stroke:#000000"
       id="path3576"
       inkscape:connector-curvature="0" />
    <path
       d="m 464.1732,481.88976 63.77953,0"
       style="fill:none;stroke:#000000"
       id="path3578"
       inkscape:connector-curvature="0" />
    <path
       d="m 464.1732,329.52756 0,152.3622"
       style="fill:none;stroke:#000000"
       id="path3580"
       inkscape:connector-curvature="0" />
    <path
       d="m 527.95273,329.52756 -63.77953,0"
       style="fill:none;stroke:#000000"
       id="path3582"
       inkscape:connector-curvature="0" />
    <path
       d="m 527.95273,315.35433 0,14.17323"
       style="fill:none;stroke:#000000"
       id="path3584"
       inkscape:connector-curvature="0" />
    <path
       d="m 740.55118,315.35433 -212.59842,0"
       style="fill:none;stroke:#000000"
       id="path3586"
       inkscape:connector-curvature="0" />
    <path
       d="m 572.24407,520.86614 a 8.85827,8.85827 0 1 0 -17.71654,0 8.85827,8.85827 0 1 0 17.71654,0 z"
       style="fill:none;stroke:#000000"
       id="path3588"
       inkscape:connector-curvature="0" />
    <path
       d="m 572.24407,591.73228 a 8.85827,8.85827 0 1 0 -17.71654,0 8.85827,8.85827 0 1 0 17.71654,0 z"
       style="fill:none;stroke:#000000"
       id="path3590"
       inkscape:connector-curvature="0" />
    <path
       d="m 709.54544,366.73228 a 4.427362,4.427362 0 1 0 -8.85472,0 4.427362,4.427362 0 1 0 8.85472,0 z"
       style="fill:none;stroke:#000000"
       id="path3592"
       inkscape:connector-curvature="0" />
    <path
       d="m 709.54544,448.22835 a 4.427362,4.427362 0 1 0 -8.85472,0 4.427362,4.427362 0 1 0 8.85472,0 z"
       style="fill:none;stroke:#000000"
       id="path3594"
       inkscape:connector-curvature="0" />
    <path
       d="m 593.50391,345.11809 a 5.314961,5.314961 0 0 0 0,10.62992"
       style="fill:none;stroke:#000000"
       id="path3596"
       inkscape:connector-curvature="0" />
    <path
       d="m 600.59052,345.11809 -7.08661,0"
       style="fill:none;stroke:#000000"
       id="path3598"
       inkscape:connector-curvature="0" />
    <path
       d="m 600.59052,355.74801 a 5.314961,5.314961 0 1 0 0,-10.62992"
       style="fill:none;stroke:#000000"
       id="path3600"
       inkscape:connector-curvature="0" />
    <path
       d="m 593.50391,355.74801 7.08661,0"
       style="fill:none;stroke:#000000"
       id="path3602"
       inkscape:connector-curvature="0" />
    <path
       d="m 593.50391,454.96061 a 5.314961,5.314961 0 0 0 0,10.62992"
       style="fill:none;stroke:#000000"
       id="path3604"
       inkscape:connector-curvature="0" />
    <path
       d="m 600.59052,454.96061 -7.08661,0"
       style="fill:none;stroke:#000000"
       id="path3606"
       inkscape:connector-curvature="0" />
    <path
       d="m 600.59052,465.59053 a 5.314961,5.314961 0 1 0 0,-10.62992"
       style="fill:none;stroke:#000000"
       id="path3608"
       inkscape:connector-curvature="0" />
    <path
       d="m 772.88302,484.78838 a 26.574803,26.574803 0 0 0 12.29931,-36.80766"
       style="fill:none;stroke:#000000"
       id="path3610"
       inkscape:connector-curvature="0" />
    <path
       d="m 740.55118,499.6063 32.33184,-14.81792"
       style="fill:none;stroke:#000000"
       id="path3612"
       inkscape:connector-curvature="0" />
    <path
       d="m 740.55118,365.51784 0,-50.16359"
       style="fill:none;stroke:#000000"
       id="path3614"
       inkscape:connector-curvature="0" />
    <path
       d="m 785.18233,447.98072 -44.63115,-82.4628"
       style="fill:none;stroke:#000000"
       id="path3616"
       inkscape:connector-curvature="0" />
    <path
       d="m 738.7795,407.48032 a 33.661417,33.661417 0 1 0 -67.32283,0 33.661417,33.661417 0 1 0 67.32283,0 z"
       style="fill:none;stroke:#000000"
       id="path3618"
       inkscape:connector-curvature="0" />
    <path
       d="m 584.64564,407.48032 a 42.519685,42.519685 0 1 0 -85.03937,0 42.519685,42.519685 0 1 0 85.03937,0 z"
       style="fill:none;stroke:#000000"
       id="path3620"
       inkscape:connector-curvature="0" />
    <path
       d="m 770.66929,460.62992 a 8.858268,8.858268 0 1 0 -17.71653,0 8.858268,8.858268 0 1 0 17.71653,0 z"
       style="fill:none;stroke:#000000"
       id="path3622"
       inkscape:connector-curvature="0" />
    <path
       d="m 657.28344,460.62992 a 8.85827,8.85827 0 1 0 -17.71654,0 8.85827,8.85827 0 1 0 17.71654,0 z"
       style="fill:none;stroke:#000000"
       id="path3624"
       inkscape:connector-curvature="0" />
  </g>
  <g
     inkscape:groupmode="layer"
     inkscape:label="STENCILS"
     id="g5454"
     transform="translate(-463.6732,-314.85433)" />
  <g
     inkscape:groupmode="layer"
     inkscape:label="DEFAULT"
     id="g5632"
     transform="translate(-463.6732,-314.85433)">
    <path
       d="m 710.43304,448.22835 a 5.314961,5.314961 0 1 0 -10.62992,0 5.314961,5.314961 0 1 0 10.62992,0 z"
       style="fill:none;stroke:#000000"
       id="path5650"
       inkscape:connector-curvature="0" />
    <path
       d="m 710.43304,366.73228 a 5.314961,5.314961 0 1 0 -10.62992,0 5.314961,5.314961 0 1 0 10.62992,0 z"
       style="fill:none;stroke:#000000"
       id="path5652"
       inkscape:connector-curvature="0" />
  </g>
</svg>
